M48
METRIC
T1C0.800
T2C0.900
T3C1.020
T4C1.100
T5C1.500
%
G90
G05
T1
X71.12Y-130.81
X71.12Y-134.62
X71.12Y-138.43
X71.4Y-93.6
X71.4Y-103.76
X71.6Y-110.32
X71.6Y-120.48
X72.0Y-75.72
X72.0Y-85.88
X72.2Y-58.8
X72.2Y-68.96
X74.4Y-93.6
X74.4Y-103.76
X74.638Y-110.32
X74.638Y-120.48
X75.0Y-75.72
X75.0Y-85.88
X75.2Y-58.8
X75.2Y-68.96
X77.4Y-93.58
X77.4Y-103.74
X77.7Y-110.32
X77.7Y-120.48
X78.0Y-75.72
X78.0Y-85.88
X78.2Y-58.8
X78.2Y-68.96
X81.28Y-130.81
X81.28Y-134.62
X81.28Y-138.43
X84.0Y-93.52
X84.0Y-103.68
X84.2Y-110.32
X84.2Y-120.48
X84.5Y-58.8
X84.5Y-68.96
X84.5Y-75.7
X84.5Y-85.86
X87.0Y-93.52
X87.0Y-103.68
X87.2Y-110.32
X87.2Y-120.48
X87.5Y-58.78
X87.5Y-68.94
X87.5Y-75.7
X87.5Y-85.86
X90.0Y-93.52
X90.0Y-103.68
X90.2Y-110.32
X90.2Y-120.48
X90.5Y-58.8
X90.5Y-68.96
X90.5Y-75.7
X90.5Y-85.86
X91.44Y-147.0
X91.44Y-154.62
X93.98Y-147.0
X93.98Y-154.62
X96.52Y-147.0
X96.52Y-154.62
X96.68Y-90.62
X96.68Y-93.16
X96.68Y-95.7
X96.68Y-98.24
X96.68Y-100.78
X96.68Y-103.32
X96.68Y-105.86
X97.5Y-58.82
X97.5Y-68.98
X98.1Y-75.7
X98.1Y-85.86
X99.06Y-147.0
X99.06Y-154.62
X100.5Y-58.8
X100.5Y-68.96
X101.1Y-75.7
X101.1Y-85.86
X101.6Y-147.0
X101.6Y-154.62
X103.5Y-58.8
X103.5Y-68.96
X104.1Y-75.7
X104.1Y-85.86
X104.14Y-147.0
X104.14Y-154.62
X104.3Y-90.62
X104.3Y-93.16
X104.3Y-95.7
X104.3Y-98.24
X104.3Y-100.78
X104.3Y-103.32
X104.3Y-105.86
X106.68Y-147.0
X106.68Y-154.62
X109.22Y-147.0
X109.22Y-154.62
X111.76Y-147.0
X111.76Y-154.62
X114.3Y-147.0
X114.3Y-154.62
T2
X71.12Y-144.78
X71.12Y-147.32
X71.12Y-152.4
X71.12Y-154.94
X78.74Y-157.49
X78.74Y-160.03
T3
X66.0Y-60.0
X66.0Y-62.54
X66.0Y-65.08
X66.0Y-67.62
X66.0Y-70.16
X66.0Y-72.7
X66.0Y-75.24
X66.0Y-77.78
X66.0Y-80.32
X66.0Y-82.86
X66.0Y-86.924
X66.0Y-89.464
X66.0Y-92.004
X66.0Y-94.544
X66.0Y-97.084
X66.0Y-99.624
X66.0Y-102.164
X66.0Y-104.704
X66.0Y-109.784
X66.0Y-112.324
X66.0Y-114.864
X66.0Y-117.404
X66.0Y-119.944
X66.0Y-122.484
X66.0Y-125.024
X66.0Y-127.564
X85.09Y-146.05
X85.09Y-148.59
X85.09Y-151.13
X85.09Y-153.67
X85.09Y-156.21
X114.26Y-69.144
X114.26Y-71.684
X114.26Y-74.224
X114.26Y-76.764
X114.26Y-79.304
X114.26Y-81.844
X114.26Y-84.384
X114.26Y-86.924
X114.26Y-92.004
X114.26Y-94.544
X114.26Y-97.084
X114.26Y-99.624
X114.26Y-102.164
X114.26Y-104.704
X114.26Y-107.244
X114.26Y-109.784
X114.26Y-114.864
X114.26Y-117.404
X114.26Y-119.944
X114.26Y-122.484
X114.26Y-125.024
X114.26Y-127.564
X114.26Y-130.104
X114.26Y-132.644
T4
X90.17Y-159.385
X100.33Y-159.385
T5
X71.4Y-90.9
X71.6Y-107.62
X72.0Y-73.0
X72.125Y-56.0
X74.4Y-90.9
X74.6Y-107.62
X75.0Y-73.0
X75.125Y-56.0
X77.4Y-90.9
X77.6Y-107.62
X78.0Y-73.0
X78.125Y-56.0
X84.025Y-90.9
X84.2Y-107.62
X84.425Y-56.0
X84.525Y-73.0
X87.025Y-90.9
X87.2Y-107.62
X87.425Y-56.0
X87.525Y-73.0
X90.025Y-90.9
X90.2Y-107.62
X90.425Y-56.0
X90.525Y-73.0
X97.4Y-56.0
X98.1Y-73.0
X100.4Y-56.0
X101.1Y-73.0
X103.4Y-56.0
X104.1Y-73.0
M30
