G04 #@! TF.GenerationSoftware,KiCad,Pcbnew,8.0.0*
G04 #@! TF.CreationDate,2024-10-02T08:02:54-07:00*
G04 #@! TF.ProjectId,sumitomo_node_v3,73756d69-746f-46d6-9f5f-6e6f64655f76,rev?*
G04 #@! TF.SameCoordinates,Original*
G04 #@! TF.FileFunction,Legend,Bot*
G04 #@! TF.FilePolarity,Positive*
%FSLAX46Y46*%
G04 Gerber Fmt 4.6, Leading zero omitted, Abs format (unit mm)*
G04 Created by KiCad (PCBNEW 8.0.0) date 2024-10-02 08:02:54*
%MOMM*%
%LPD*%
G01*
G04 APERTURE LIST*
%ADD10C,0.100000*%
%ADD11C,0.150000*%
%ADD12C,0.120000*%
%ADD13C,3.200000*%
%ADD14C,1.600000*%
%ADD15O,1.600000X1.600000*%
%ADD16R,2.400000X2.400000*%
%ADD17R,2.400000X1.600000*%
%ADD18O,2.400000X1.600000*%
%ADD19R,2.200000X2.200000*%
%ADD20O,2.200000X2.200000*%
%ADD21R,1.800000X1.800000*%
%ADD22C,1.800000*%
%ADD23R,2.000000X2.000000*%
%ADD24R,1.600000X1.600000*%
G04 APERTURE END LIST*
D10*
X82324800Y-76756265D02*
X82372419Y-76899122D01*
X82372419Y-76899122D02*
X82372419Y-77137217D01*
X82372419Y-77137217D02*
X82324800Y-77232455D01*
X82324800Y-77232455D02*
X82277180Y-77280074D01*
X82277180Y-77280074D02*
X82181942Y-77327693D01*
X82181942Y-77327693D02*
X82086704Y-77327693D01*
X82086704Y-77327693D02*
X81991466Y-77280074D01*
X81991466Y-77280074D02*
X81943847Y-77232455D01*
X81943847Y-77232455D02*
X81896228Y-77137217D01*
X81896228Y-77137217D02*
X81848609Y-76946741D01*
X81848609Y-76946741D02*
X81800990Y-76851503D01*
X81800990Y-76851503D02*
X81753371Y-76803884D01*
X81753371Y-76803884D02*
X81658133Y-76756265D01*
X81658133Y-76756265D02*
X81562895Y-76756265D01*
X81562895Y-76756265D02*
X81467657Y-76803884D01*
X81467657Y-76803884D02*
X81420038Y-76851503D01*
X81420038Y-76851503D02*
X81372419Y-76946741D01*
X81372419Y-76946741D02*
X81372419Y-77184836D01*
X81372419Y-77184836D02*
X81420038Y-77327693D01*
X81848609Y-77756265D02*
X81848609Y-78089598D01*
X82372419Y-78232455D02*
X82372419Y-77756265D01*
X82372419Y-77756265D02*
X81372419Y-77756265D01*
X81372419Y-77756265D02*
X81372419Y-78232455D01*
X82372419Y-78661027D02*
X81372419Y-78661027D01*
X81372419Y-78661027D02*
X82372419Y-79232455D01*
X82372419Y-79232455D02*
X81372419Y-79232455D01*
X82324800Y-79661027D02*
X82372419Y-79803884D01*
X82372419Y-79803884D02*
X82372419Y-80041979D01*
X82372419Y-80041979D02*
X82324800Y-80137217D01*
X82324800Y-80137217D02*
X82277180Y-80184836D01*
X82277180Y-80184836D02*
X82181942Y-80232455D01*
X82181942Y-80232455D02*
X82086704Y-80232455D01*
X82086704Y-80232455D02*
X81991466Y-80184836D01*
X81991466Y-80184836D02*
X81943847Y-80137217D01*
X81943847Y-80137217D02*
X81896228Y-80041979D01*
X81896228Y-80041979D02*
X81848609Y-79851503D01*
X81848609Y-79851503D02*
X81800990Y-79756265D01*
X81800990Y-79756265D02*
X81753371Y-79708646D01*
X81753371Y-79708646D02*
X81658133Y-79661027D01*
X81658133Y-79661027D02*
X81562895Y-79661027D01*
X81562895Y-79661027D02*
X81467657Y-79708646D01*
X81467657Y-79708646D02*
X81420038Y-79756265D01*
X81420038Y-79756265D02*
X81372419Y-79851503D01*
X81372419Y-79851503D02*
X81372419Y-80089598D01*
X81372419Y-80089598D02*
X81420038Y-80232455D01*
X81372419Y-80851503D02*
X81372419Y-81041979D01*
X81372419Y-81041979D02*
X81420038Y-81137217D01*
X81420038Y-81137217D02*
X81515276Y-81232455D01*
X81515276Y-81232455D02*
X81705752Y-81280074D01*
X81705752Y-81280074D02*
X82039085Y-81280074D01*
X82039085Y-81280074D02*
X82229561Y-81232455D01*
X82229561Y-81232455D02*
X82324800Y-81137217D01*
X82324800Y-81137217D02*
X82372419Y-81041979D01*
X82372419Y-81041979D02*
X82372419Y-80851503D01*
X82372419Y-80851503D02*
X82324800Y-80756265D01*
X82324800Y-80756265D02*
X82229561Y-80661027D01*
X82229561Y-80661027D02*
X82039085Y-80613408D01*
X82039085Y-80613408D02*
X81705752Y-80613408D01*
X81705752Y-80613408D02*
X81515276Y-80661027D01*
X81515276Y-80661027D02*
X81420038Y-80756265D01*
X81420038Y-80756265D02*
X81372419Y-80851503D01*
X82372419Y-82280074D02*
X81896228Y-81946741D01*
X82372419Y-81708646D02*
X81372419Y-81708646D01*
X81372419Y-81708646D02*
X81372419Y-82089598D01*
X81372419Y-82089598D02*
X81420038Y-82184836D01*
X81420038Y-82184836D02*
X81467657Y-82232455D01*
X81467657Y-82232455D02*
X81562895Y-82280074D01*
X81562895Y-82280074D02*
X81705752Y-82280074D01*
X81705752Y-82280074D02*
X81800990Y-82232455D01*
X81800990Y-82232455D02*
X81848609Y-82184836D01*
X81848609Y-82184836D02*
X81896228Y-82089598D01*
X81896228Y-82089598D02*
X81896228Y-81708646D01*
X82467657Y-82470551D02*
X82467657Y-83232455D01*
X82372419Y-83518170D02*
X82372419Y-83708646D01*
X82372419Y-83708646D02*
X82324800Y-83803884D01*
X82324800Y-83803884D02*
X82277180Y-83851503D01*
X82277180Y-83851503D02*
X82134323Y-83946741D01*
X82134323Y-83946741D02*
X81943847Y-83994360D01*
X81943847Y-83994360D02*
X81562895Y-83994360D01*
X81562895Y-83994360D02*
X81467657Y-83946741D01*
X81467657Y-83946741D02*
X81420038Y-83899122D01*
X81420038Y-83899122D02*
X81372419Y-83803884D01*
X81372419Y-83803884D02*
X81372419Y-83613408D01*
X81372419Y-83613408D02*
X81420038Y-83518170D01*
X81420038Y-83518170D02*
X81467657Y-83470551D01*
X81467657Y-83470551D02*
X81562895Y-83422932D01*
X81562895Y-83422932D02*
X81800990Y-83422932D01*
X81800990Y-83422932D02*
X81896228Y-83470551D01*
X81896228Y-83470551D02*
X81943847Y-83518170D01*
X81943847Y-83518170D02*
X81991466Y-83613408D01*
X81991466Y-83613408D02*
X81991466Y-83803884D01*
X81991466Y-83803884D02*
X81943847Y-83899122D01*
X81943847Y-83899122D02*
X81896228Y-83946741D01*
X81896228Y-83946741D02*
X81800990Y-83994360D01*
X81824800Y-95456265D02*
X81872419Y-95599122D01*
X81872419Y-95599122D02*
X81872419Y-95837217D01*
X81872419Y-95837217D02*
X81824800Y-95932455D01*
X81824800Y-95932455D02*
X81777180Y-95980074D01*
X81777180Y-95980074D02*
X81681942Y-96027693D01*
X81681942Y-96027693D02*
X81586704Y-96027693D01*
X81586704Y-96027693D02*
X81491466Y-95980074D01*
X81491466Y-95980074D02*
X81443847Y-95932455D01*
X81443847Y-95932455D02*
X81396228Y-95837217D01*
X81396228Y-95837217D02*
X81348609Y-95646741D01*
X81348609Y-95646741D02*
X81300990Y-95551503D01*
X81300990Y-95551503D02*
X81253371Y-95503884D01*
X81253371Y-95503884D02*
X81158133Y-95456265D01*
X81158133Y-95456265D02*
X81062895Y-95456265D01*
X81062895Y-95456265D02*
X80967657Y-95503884D01*
X80967657Y-95503884D02*
X80920038Y-95551503D01*
X80920038Y-95551503D02*
X80872419Y-95646741D01*
X80872419Y-95646741D02*
X80872419Y-95884836D01*
X80872419Y-95884836D02*
X80920038Y-96027693D01*
X81348609Y-96456265D02*
X81348609Y-96789598D01*
X81872419Y-96932455D02*
X81872419Y-96456265D01*
X81872419Y-96456265D02*
X80872419Y-96456265D01*
X80872419Y-96456265D02*
X80872419Y-96932455D01*
X81872419Y-97361027D02*
X80872419Y-97361027D01*
X80872419Y-97361027D02*
X81872419Y-97932455D01*
X81872419Y-97932455D02*
X80872419Y-97932455D01*
X81824800Y-98361027D02*
X81872419Y-98503884D01*
X81872419Y-98503884D02*
X81872419Y-98741979D01*
X81872419Y-98741979D02*
X81824800Y-98837217D01*
X81824800Y-98837217D02*
X81777180Y-98884836D01*
X81777180Y-98884836D02*
X81681942Y-98932455D01*
X81681942Y-98932455D02*
X81586704Y-98932455D01*
X81586704Y-98932455D02*
X81491466Y-98884836D01*
X81491466Y-98884836D02*
X81443847Y-98837217D01*
X81443847Y-98837217D02*
X81396228Y-98741979D01*
X81396228Y-98741979D02*
X81348609Y-98551503D01*
X81348609Y-98551503D02*
X81300990Y-98456265D01*
X81300990Y-98456265D02*
X81253371Y-98408646D01*
X81253371Y-98408646D02*
X81158133Y-98361027D01*
X81158133Y-98361027D02*
X81062895Y-98361027D01*
X81062895Y-98361027D02*
X80967657Y-98408646D01*
X80967657Y-98408646D02*
X80920038Y-98456265D01*
X80920038Y-98456265D02*
X80872419Y-98551503D01*
X80872419Y-98551503D02*
X80872419Y-98789598D01*
X80872419Y-98789598D02*
X80920038Y-98932455D01*
X80872419Y-99551503D02*
X80872419Y-99741979D01*
X80872419Y-99741979D02*
X80920038Y-99837217D01*
X80920038Y-99837217D02*
X81015276Y-99932455D01*
X81015276Y-99932455D02*
X81205752Y-99980074D01*
X81205752Y-99980074D02*
X81539085Y-99980074D01*
X81539085Y-99980074D02*
X81729561Y-99932455D01*
X81729561Y-99932455D02*
X81824800Y-99837217D01*
X81824800Y-99837217D02*
X81872419Y-99741979D01*
X81872419Y-99741979D02*
X81872419Y-99551503D01*
X81872419Y-99551503D02*
X81824800Y-99456265D01*
X81824800Y-99456265D02*
X81729561Y-99361027D01*
X81729561Y-99361027D02*
X81539085Y-99313408D01*
X81539085Y-99313408D02*
X81205752Y-99313408D01*
X81205752Y-99313408D02*
X81015276Y-99361027D01*
X81015276Y-99361027D02*
X80920038Y-99456265D01*
X80920038Y-99456265D02*
X80872419Y-99551503D01*
X81872419Y-100980074D02*
X81396228Y-100646741D01*
X81872419Y-100408646D02*
X80872419Y-100408646D01*
X80872419Y-100408646D02*
X80872419Y-100789598D01*
X80872419Y-100789598D02*
X80920038Y-100884836D01*
X80920038Y-100884836D02*
X80967657Y-100932455D01*
X80967657Y-100932455D02*
X81062895Y-100980074D01*
X81062895Y-100980074D02*
X81205752Y-100980074D01*
X81205752Y-100980074D02*
X81300990Y-100932455D01*
X81300990Y-100932455D02*
X81348609Y-100884836D01*
X81348609Y-100884836D02*
X81396228Y-100789598D01*
X81396228Y-100789598D02*
X81396228Y-100408646D01*
X81967657Y-101170551D02*
X81967657Y-101932455D01*
X81300990Y-102313408D02*
X81253371Y-102218170D01*
X81253371Y-102218170D02*
X81205752Y-102170551D01*
X81205752Y-102170551D02*
X81110514Y-102122932D01*
X81110514Y-102122932D02*
X81062895Y-102122932D01*
X81062895Y-102122932D02*
X80967657Y-102170551D01*
X80967657Y-102170551D02*
X80920038Y-102218170D01*
X80920038Y-102218170D02*
X80872419Y-102313408D01*
X80872419Y-102313408D02*
X80872419Y-102503884D01*
X80872419Y-102503884D02*
X80920038Y-102599122D01*
X80920038Y-102599122D02*
X80967657Y-102646741D01*
X80967657Y-102646741D02*
X81062895Y-102694360D01*
X81062895Y-102694360D02*
X81110514Y-102694360D01*
X81110514Y-102694360D02*
X81205752Y-102646741D01*
X81205752Y-102646741D02*
X81253371Y-102599122D01*
X81253371Y-102599122D02*
X81300990Y-102503884D01*
X81300990Y-102503884D02*
X81300990Y-102313408D01*
X81300990Y-102313408D02*
X81348609Y-102218170D01*
X81348609Y-102218170D02*
X81396228Y-102170551D01*
X81396228Y-102170551D02*
X81491466Y-102122932D01*
X81491466Y-102122932D02*
X81681942Y-102122932D01*
X81681942Y-102122932D02*
X81777180Y-102170551D01*
X81777180Y-102170551D02*
X81824800Y-102218170D01*
X81824800Y-102218170D02*
X81872419Y-102313408D01*
X81872419Y-102313408D02*
X81872419Y-102503884D01*
X81872419Y-102503884D02*
X81824800Y-102599122D01*
X81824800Y-102599122D02*
X81777180Y-102646741D01*
X81777180Y-102646741D02*
X81681942Y-102694360D01*
X81681942Y-102694360D02*
X81491466Y-102694360D01*
X81491466Y-102694360D02*
X81396228Y-102646741D01*
X81396228Y-102646741D02*
X81348609Y-102599122D01*
X81348609Y-102599122D02*
X81300990Y-102503884D01*
X82024800Y-111956265D02*
X82072419Y-112099122D01*
X82072419Y-112099122D02*
X82072419Y-112337217D01*
X82072419Y-112337217D02*
X82024800Y-112432455D01*
X82024800Y-112432455D02*
X81977180Y-112480074D01*
X81977180Y-112480074D02*
X81881942Y-112527693D01*
X81881942Y-112527693D02*
X81786704Y-112527693D01*
X81786704Y-112527693D02*
X81691466Y-112480074D01*
X81691466Y-112480074D02*
X81643847Y-112432455D01*
X81643847Y-112432455D02*
X81596228Y-112337217D01*
X81596228Y-112337217D02*
X81548609Y-112146741D01*
X81548609Y-112146741D02*
X81500990Y-112051503D01*
X81500990Y-112051503D02*
X81453371Y-112003884D01*
X81453371Y-112003884D02*
X81358133Y-111956265D01*
X81358133Y-111956265D02*
X81262895Y-111956265D01*
X81262895Y-111956265D02*
X81167657Y-112003884D01*
X81167657Y-112003884D02*
X81120038Y-112051503D01*
X81120038Y-112051503D02*
X81072419Y-112146741D01*
X81072419Y-112146741D02*
X81072419Y-112384836D01*
X81072419Y-112384836D02*
X81120038Y-112527693D01*
X81548609Y-112956265D02*
X81548609Y-113289598D01*
X82072419Y-113432455D02*
X82072419Y-112956265D01*
X82072419Y-112956265D02*
X81072419Y-112956265D01*
X81072419Y-112956265D02*
X81072419Y-113432455D01*
X82072419Y-113861027D02*
X81072419Y-113861027D01*
X81072419Y-113861027D02*
X82072419Y-114432455D01*
X82072419Y-114432455D02*
X81072419Y-114432455D01*
X82024800Y-114861027D02*
X82072419Y-115003884D01*
X82072419Y-115003884D02*
X82072419Y-115241979D01*
X82072419Y-115241979D02*
X82024800Y-115337217D01*
X82024800Y-115337217D02*
X81977180Y-115384836D01*
X81977180Y-115384836D02*
X81881942Y-115432455D01*
X81881942Y-115432455D02*
X81786704Y-115432455D01*
X81786704Y-115432455D02*
X81691466Y-115384836D01*
X81691466Y-115384836D02*
X81643847Y-115337217D01*
X81643847Y-115337217D02*
X81596228Y-115241979D01*
X81596228Y-115241979D02*
X81548609Y-115051503D01*
X81548609Y-115051503D02*
X81500990Y-114956265D01*
X81500990Y-114956265D02*
X81453371Y-114908646D01*
X81453371Y-114908646D02*
X81358133Y-114861027D01*
X81358133Y-114861027D02*
X81262895Y-114861027D01*
X81262895Y-114861027D02*
X81167657Y-114908646D01*
X81167657Y-114908646D02*
X81120038Y-114956265D01*
X81120038Y-114956265D02*
X81072419Y-115051503D01*
X81072419Y-115051503D02*
X81072419Y-115289598D01*
X81072419Y-115289598D02*
X81120038Y-115432455D01*
X81072419Y-116051503D02*
X81072419Y-116241979D01*
X81072419Y-116241979D02*
X81120038Y-116337217D01*
X81120038Y-116337217D02*
X81215276Y-116432455D01*
X81215276Y-116432455D02*
X81405752Y-116480074D01*
X81405752Y-116480074D02*
X81739085Y-116480074D01*
X81739085Y-116480074D02*
X81929561Y-116432455D01*
X81929561Y-116432455D02*
X82024800Y-116337217D01*
X82024800Y-116337217D02*
X82072419Y-116241979D01*
X82072419Y-116241979D02*
X82072419Y-116051503D01*
X82072419Y-116051503D02*
X82024800Y-115956265D01*
X82024800Y-115956265D02*
X81929561Y-115861027D01*
X81929561Y-115861027D02*
X81739085Y-115813408D01*
X81739085Y-115813408D02*
X81405752Y-115813408D01*
X81405752Y-115813408D02*
X81215276Y-115861027D01*
X81215276Y-115861027D02*
X81120038Y-115956265D01*
X81120038Y-115956265D02*
X81072419Y-116051503D01*
X82072419Y-117480074D02*
X81596228Y-117146741D01*
X82072419Y-116908646D02*
X81072419Y-116908646D01*
X81072419Y-116908646D02*
X81072419Y-117289598D01*
X81072419Y-117289598D02*
X81120038Y-117384836D01*
X81120038Y-117384836D02*
X81167657Y-117432455D01*
X81167657Y-117432455D02*
X81262895Y-117480074D01*
X81262895Y-117480074D02*
X81405752Y-117480074D01*
X81405752Y-117480074D02*
X81500990Y-117432455D01*
X81500990Y-117432455D02*
X81548609Y-117384836D01*
X81548609Y-117384836D02*
X81596228Y-117289598D01*
X81596228Y-117289598D02*
X81596228Y-116908646D01*
X82167657Y-117670551D02*
X82167657Y-118432455D01*
X81072419Y-118575313D02*
X81072419Y-119241979D01*
X81072419Y-119241979D02*
X82072419Y-118813408D01*
X69124800Y-111956265D02*
X69172419Y-112099122D01*
X69172419Y-112099122D02*
X69172419Y-112337217D01*
X69172419Y-112337217D02*
X69124800Y-112432455D01*
X69124800Y-112432455D02*
X69077180Y-112480074D01*
X69077180Y-112480074D02*
X68981942Y-112527693D01*
X68981942Y-112527693D02*
X68886704Y-112527693D01*
X68886704Y-112527693D02*
X68791466Y-112480074D01*
X68791466Y-112480074D02*
X68743847Y-112432455D01*
X68743847Y-112432455D02*
X68696228Y-112337217D01*
X68696228Y-112337217D02*
X68648609Y-112146741D01*
X68648609Y-112146741D02*
X68600990Y-112051503D01*
X68600990Y-112051503D02*
X68553371Y-112003884D01*
X68553371Y-112003884D02*
X68458133Y-111956265D01*
X68458133Y-111956265D02*
X68362895Y-111956265D01*
X68362895Y-111956265D02*
X68267657Y-112003884D01*
X68267657Y-112003884D02*
X68220038Y-112051503D01*
X68220038Y-112051503D02*
X68172419Y-112146741D01*
X68172419Y-112146741D02*
X68172419Y-112384836D01*
X68172419Y-112384836D02*
X68220038Y-112527693D01*
X68648609Y-112956265D02*
X68648609Y-113289598D01*
X69172419Y-113432455D02*
X69172419Y-112956265D01*
X69172419Y-112956265D02*
X68172419Y-112956265D01*
X68172419Y-112956265D02*
X68172419Y-113432455D01*
X69172419Y-113861027D02*
X68172419Y-113861027D01*
X68172419Y-113861027D02*
X69172419Y-114432455D01*
X69172419Y-114432455D02*
X68172419Y-114432455D01*
X69124800Y-114861027D02*
X69172419Y-115003884D01*
X69172419Y-115003884D02*
X69172419Y-115241979D01*
X69172419Y-115241979D02*
X69124800Y-115337217D01*
X69124800Y-115337217D02*
X69077180Y-115384836D01*
X69077180Y-115384836D02*
X68981942Y-115432455D01*
X68981942Y-115432455D02*
X68886704Y-115432455D01*
X68886704Y-115432455D02*
X68791466Y-115384836D01*
X68791466Y-115384836D02*
X68743847Y-115337217D01*
X68743847Y-115337217D02*
X68696228Y-115241979D01*
X68696228Y-115241979D02*
X68648609Y-115051503D01*
X68648609Y-115051503D02*
X68600990Y-114956265D01*
X68600990Y-114956265D02*
X68553371Y-114908646D01*
X68553371Y-114908646D02*
X68458133Y-114861027D01*
X68458133Y-114861027D02*
X68362895Y-114861027D01*
X68362895Y-114861027D02*
X68267657Y-114908646D01*
X68267657Y-114908646D02*
X68220038Y-114956265D01*
X68220038Y-114956265D02*
X68172419Y-115051503D01*
X68172419Y-115051503D02*
X68172419Y-115289598D01*
X68172419Y-115289598D02*
X68220038Y-115432455D01*
X68172419Y-116051503D02*
X68172419Y-116241979D01*
X68172419Y-116241979D02*
X68220038Y-116337217D01*
X68220038Y-116337217D02*
X68315276Y-116432455D01*
X68315276Y-116432455D02*
X68505752Y-116480074D01*
X68505752Y-116480074D02*
X68839085Y-116480074D01*
X68839085Y-116480074D02*
X69029561Y-116432455D01*
X69029561Y-116432455D02*
X69124800Y-116337217D01*
X69124800Y-116337217D02*
X69172419Y-116241979D01*
X69172419Y-116241979D02*
X69172419Y-116051503D01*
X69172419Y-116051503D02*
X69124800Y-115956265D01*
X69124800Y-115956265D02*
X69029561Y-115861027D01*
X69029561Y-115861027D02*
X68839085Y-115813408D01*
X68839085Y-115813408D02*
X68505752Y-115813408D01*
X68505752Y-115813408D02*
X68315276Y-115861027D01*
X68315276Y-115861027D02*
X68220038Y-115956265D01*
X68220038Y-115956265D02*
X68172419Y-116051503D01*
X69172419Y-117480074D02*
X68696228Y-117146741D01*
X69172419Y-116908646D02*
X68172419Y-116908646D01*
X68172419Y-116908646D02*
X68172419Y-117289598D01*
X68172419Y-117289598D02*
X68220038Y-117384836D01*
X68220038Y-117384836D02*
X68267657Y-117432455D01*
X68267657Y-117432455D02*
X68362895Y-117480074D01*
X68362895Y-117480074D02*
X68505752Y-117480074D01*
X68505752Y-117480074D02*
X68600990Y-117432455D01*
X68600990Y-117432455D02*
X68648609Y-117384836D01*
X68648609Y-117384836D02*
X68696228Y-117289598D01*
X68696228Y-117289598D02*
X68696228Y-116908646D01*
X69267657Y-117670551D02*
X69267657Y-118432455D01*
X68172419Y-119099122D02*
X68172419Y-118908646D01*
X68172419Y-118908646D02*
X68220038Y-118813408D01*
X68220038Y-118813408D02*
X68267657Y-118765789D01*
X68267657Y-118765789D02*
X68410514Y-118670551D01*
X68410514Y-118670551D02*
X68600990Y-118622932D01*
X68600990Y-118622932D02*
X68981942Y-118622932D01*
X68981942Y-118622932D02*
X69077180Y-118670551D01*
X69077180Y-118670551D02*
X69124800Y-118718170D01*
X69124800Y-118718170D02*
X69172419Y-118813408D01*
X69172419Y-118813408D02*
X69172419Y-119003884D01*
X69172419Y-119003884D02*
X69124800Y-119099122D01*
X69124800Y-119099122D02*
X69077180Y-119146741D01*
X69077180Y-119146741D02*
X68981942Y-119194360D01*
X68981942Y-119194360D02*
X68743847Y-119194360D01*
X68743847Y-119194360D02*
X68648609Y-119146741D01*
X68648609Y-119146741D02*
X68600990Y-119099122D01*
X68600990Y-119099122D02*
X68553371Y-119003884D01*
X68553371Y-119003884D02*
X68553371Y-118813408D01*
X68553371Y-118813408D02*
X68600990Y-118718170D01*
X68600990Y-118718170D02*
X68648609Y-118670551D01*
X68648609Y-118670551D02*
X68743847Y-118622932D01*
X69224800Y-95256265D02*
X69272419Y-95399122D01*
X69272419Y-95399122D02*
X69272419Y-95637217D01*
X69272419Y-95637217D02*
X69224800Y-95732455D01*
X69224800Y-95732455D02*
X69177180Y-95780074D01*
X69177180Y-95780074D02*
X69081942Y-95827693D01*
X69081942Y-95827693D02*
X68986704Y-95827693D01*
X68986704Y-95827693D02*
X68891466Y-95780074D01*
X68891466Y-95780074D02*
X68843847Y-95732455D01*
X68843847Y-95732455D02*
X68796228Y-95637217D01*
X68796228Y-95637217D02*
X68748609Y-95446741D01*
X68748609Y-95446741D02*
X68700990Y-95351503D01*
X68700990Y-95351503D02*
X68653371Y-95303884D01*
X68653371Y-95303884D02*
X68558133Y-95256265D01*
X68558133Y-95256265D02*
X68462895Y-95256265D01*
X68462895Y-95256265D02*
X68367657Y-95303884D01*
X68367657Y-95303884D02*
X68320038Y-95351503D01*
X68320038Y-95351503D02*
X68272419Y-95446741D01*
X68272419Y-95446741D02*
X68272419Y-95684836D01*
X68272419Y-95684836D02*
X68320038Y-95827693D01*
X68748609Y-96256265D02*
X68748609Y-96589598D01*
X69272419Y-96732455D02*
X69272419Y-96256265D01*
X69272419Y-96256265D02*
X68272419Y-96256265D01*
X68272419Y-96256265D02*
X68272419Y-96732455D01*
X69272419Y-97161027D02*
X68272419Y-97161027D01*
X68272419Y-97161027D02*
X69272419Y-97732455D01*
X69272419Y-97732455D02*
X68272419Y-97732455D01*
X69224800Y-98161027D02*
X69272419Y-98303884D01*
X69272419Y-98303884D02*
X69272419Y-98541979D01*
X69272419Y-98541979D02*
X69224800Y-98637217D01*
X69224800Y-98637217D02*
X69177180Y-98684836D01*
X69177180Y-98684836D02*
X69081942Y-98732455D01*
X69081942Y-98732455D02*
X68986704Y-98732455D01*
X68986704Y-98732455D02*
X68891466Y-98684836D01*
X68891466Y-98684836D02*
X68843847Y-98637217D01*
X68843847Y-98637217D02*
X68796228Y-98541979D01*
X68796228Y-98541979D02*
X68748609Y-98351503D01*
X68748609Y-98351503D02*
X68700990Y-98256265D01*
X68700990Y-98256265D02*
X68653371Y-98208646D01*
X68653371Y-98208646D02*
X68558133Y-98161027D01*
X68558133Y-98161027D02*
X68462895Y-98161027D01*
X68462895Y-98161027D02*
X68367657Y-98208646D01*
X68367657Y-98208646D02*
X68320038Y-98256265D01*
X68320038Y-98256265D02*
X68272419Y-98351503D01*
X68272419Y-98351503D02*
X68272419Y-98589598D01*
X68272419Y-98589598D02*
X68320038Y-98732455D01*
X68272419Y-99351503D02*
X68272419Y-99541979D01*
X68272419Y-99541979D02*
X68320038Y-99637217D01*
X68320038Y-99637217D02*
X68415276Y-99732455D01*
X68415276Y-99732455D02*
X68605752Y-99780074D01*
X68605752Y-99780074D02*
X68939085Y-99780074D01*
X68939085Y-99780074D02*
X69129561Y-99732455D01*
X69129561Y-99732455D02*
X69224800Y-99637217D01*
X69224800Y-99637217D02*
X69272419Y-99541979D01*
X69272419Y-99541979D02*
X69272419Y-99351503D01*
X69272419Y-99351503D02*
X69224800Y-99256265D01*
X69224800Y-99256265D02*
X69129561Y-99161027D01*
X69129561Y-99161027D02*
X68939085Y-99113408D01*
X68939085Y-99113408D02*
X68605752Y-99113408D01*
X68605752Y-99113408D02*
X68415276Y-99161027D01*
X68415276Y-99161027D02*
X68320038Y-99256265D01*
X68320038Y-99256265D02*
X68272419Y-99351503D01*
X69272419Y-100780074D02*
X68796228Y-100446741D01*
X69272419Y-100208646D02*
X68272419Y-100208646D01*
X68272419Y-100208646D02*
X68272419Y-100589598D01*
X68272419Y-100589598D02*
X68320038Y-100684836D01*
X68320038Y-100684836D02*
X68367657Y-100732455D01*
X68367657Y-100732455D02*
X68462895Y-100780074D01*
X68462895Y-100780074D02*
X68605752Y-100780074D01*
X68605752Y-100780074D02*
X68700990Y-100732455D01*
X68700990Y-100732455D02*
X68748609Y-100684836D01*
X68748609Y-100684836D02*
X68796228Y-100589598D01*
X68796228Y-100589598D02*
X68796228Y-100208646D01*
X69367657Y-100970551D02*
X69367657Y-101732455D01*
X68272419Y-102446741D02*
X68272419Y-101970551D01*
X68272419Y-101970551D02*
X68748609Y-101922932D01*
X68748609Y-101922932D02*
X68700990Y-101970551D01*
X68700990Y-101970551D02*
X68653371Y-102065789D01*
X68653371Y-102065789D02*
X68653371Y-102303884D01*
X68653371Y-102303884D02*
X68700990Y-102399122D01*
X68700990Y-102399122D02*
X68748609Y-102446741D01*
X68748609Y-102446741D02*
X68843847Y-102494360D01*
X68843847Y-102494360D02*
X69081942Y-102494360D01*
X69081942Y-102494360D02*
X69177180Y-102446741D01*
X69177180Y-102446741D02*
X69224800Y-102399122D01*
X69224800Y-102399122D02*
X69272419Y-102303884D01*
X69272419Y-102303884D02*
X69272419Y-102065789D01*
X69272419Y-102065789D02*
X69224800Y-101970551D01*
X69224800Y-101970551D02*
X69177180Y-101922932D01*
X69624800Y-76756265D02*
X69672419Y-76899122D01*
X69672419Y-76899122D02*
X69672419Y-77137217D01*
X69672419Y-77137217D02*
X69624800Y-77232455D01*
X69624800Y-77232455D02*
X69577180Y-77280074D01*
X69577180Y-77280074D02*
X69481942Y-77327693D01*
X69481942Y-77327693D02*
X69386704Y-77327693D01*
X69386704Y-77327693D02*
X69291466Y-77280074D01*
X69291466Y-77280074D02*
X69243847Y-77232455D01*
X69243847Y-77232455D02*
X69196228Y-77137217D01*
X69196228Y-77137217D02*
X69148609Y-76946741D01*
X69148609Y-76946741D02*
X69100990Y-76851503D01*
X69100990Y-76851503D02*
X69053371Y-76803884D01*
X69053371Y-76803884D02*
X68958133Y-76756265D01*
X68958133Y-76756265D02*
X68862895Y-76756265D01*
X68862895Y-76756265D02*
X68767657Y-76803884D01*
X68767657Y-76803884D02*
X68720038Y-76851503D01*
X68720038Y-76851503D02*
X68672419Y-76946741D01*
X68672419Y-76946741D02*
X68672419Y-77184836D01*
X68672419Y-77184836D02*
X68720038Y-77327693D01*
X69148609Y-77756265D02*
X69148609Y-78089598D01*
X69672419Y-78232455D02*
X69672419Y-77756265D01*
X69672419Y-77756265D02*
X68672419Y-77756265D01*
X68672419Y-77756265D02*
X68672419Y-78232455D01*
X69672419Y-78661027D02*
X68672419Y-78661027D01*
X68672419Y-78661027D02*
X69672419Y-79232455D01*
X69672419Y-79232455D02*
X68672419Y-79232455D01*
X69624800Y-79661027D02*
X69672419Y-79803884D01*
X69672419Y-79803884D02*
X69672419Y-80041979D01*
X69672419Y-80041979D02*
X69624800Y-80137217D01*
X69624800Y-80137217D02*
X69577180Y-80184836D01*
X69577180Y-80184836D02*
X69481942Y-80232455D01*
X69481942Y-80232455D02*
X69386704Y-80232455D01*
X69386704Y-80232455D02*
X69291466Y-80184836D01*
X69291466Y-80184836D02*
X69243847Y-80137217D01*
X69243847Y-80137217D02*
X69196228Y-80041979D01*
X69196228Y-80041979D02*
X69148609Y-79851503D01*
X69148609Y-79851503D02*
X69100990Y-79756265D01*
X69100990Y-79756265D02*
X69053371Y-79708646D01*
X69053371Y-79708646D02*
X68958133Y-79661027D01*
X68958133Y-79661027D02*
X68862895Y-79661027D01*
X68862895Y-79661027D02*
X68767657Y-79708646D01*
X68767657Y-79708646D02*
X68720038Y-79756265D01*
X68720038Y-79756265D02*
X68672419Y-79851503D01*
X68672419Y-79851503D02*
X68672419Y-80089598D01*
X68672419Y-80089598D02*
X68720038Y-80232455D01*
X68672419Y-80851503D02*
X68672419Y-81041979D01*
X68672419Y-81041979D02*
X68720038Y-81137217D01*
X68720038Y-81137217D02*
X68815276Y-81232455D01*
X68815276Y-81232455D02*
X69005752Y-81280074D01*
X69005752Y-81280074D02*
X69339085Y-81280074D01*
X69339085Y-81280074D02*
X69529561Y-81232455D01*
X69529561Y-81232455D02*
X69624800Y-81137217D01*
X69624800Y-81137217D02*
X69672419Y-81041979D01*
X69672419Y-81041979D02*
X69672419Y-80851503D01*
X69672419Y-80851503D02*
X69624800Y-80756265D01*
X69624800Y-80756265D02*
X69529561Y-80661027D01*
X69529561Y-80661027D02*
X69339085Y-80613408D01*
X69339085Y-80613408D02*
X69005752Y-80613408D01*
X69005752Y-80613408D02*
X68815276Y-80661027D01*
X68815276Y-80661027D02*
X68720038Y-80756265D01*
X68720038Y-80756265D02*
X68672419Y-80851503D01*
X69672419Y-82280074D02*
X69196228Y-81946741D01*
X69672419Y-81708646D02*
X68672419Y-81708646D01*
X68672419Y-81708646D02*
X68672419Y-82089598D01*
X68672419Y-82089598D02*
X68720038Y-82184836D01*
X68720038Y-82184836D02*
X68767657Y-82232455D01*
X68767657Y-82232455D02*
X68862895Y-82280074D01*
X68862895Y-82280074D02*
X69005752Y-82280074D01*
X69005752Y-82280074D02*
X69100990Y-82232455D01*
X69100990Y-82232455D02*
X69148609Y-82184836D01*
X69148609Y-82184836D02*
X69196228Y-82089598D01*
X69196228Y-82089598D02*
X69196228Y-81708646D01*
X69767657Y-82470551D02*
X69767657Y-83232455D01*
X69005752Y-83899122D02*
X69672419Y-83899122D01*
X68624800Y-83661027D02*
X69339085Y-83422932D01*
X69339085Y-83422932D02*
X69339085Y-84041979D01*
X70024800Y-60356265D02*
X70072419Y-60499122D01*
X70072419Y-60499122D02*
X70072419Y-60737217D01*
X70072419Y-60737217D02*
X70024800Y-60832455D01*
X70024800Y-60832455D02*
X69977180Y-60880074D01*
X69977180Y-60880074D02*
X69881942Y-60927693D01*
X69881942Y-60927693D02*
X69786704Y-60927693D01*
X69786704Y-60927693D02*
X69691466Y-60880074D01*
X69691466Y-60880074D02*
X69643847Y-60832455D01*
X69643847Y-60832455D02*
X69596228Y-60737217D01*
X69596228Y-60737217D02*
X69548609Y-60546741D01*
X69548609Y-60546741D02*
X69500990Y-60451503D01*
X69500990Y-60451503D02*
X69453371Y-60403884D01*
X69453371Y-60403884D02*
X69358133Y-60356265D01*
X69358133Y-60356265D02*
X69262895Y-60356265D01*
X69262895Y-60356265D02*
X69167657Y-60403884D01*
X69167657Y-60403884D02*
X69120038Y-60451503D01*
X69120038Y-60451503D02*
X69072419Y-60546741D01*
X69072419Y-60546741D02*
X69072419Y-60784836D01*
X69072419Y-60784836D02*
X69120038Y-60927693D01*
X69548609Y-61356265D02*
X69548609Y-61689598D01*
X70072419Y-61832455D02*
X70072419Y-61356265D01*
X70072419Y-61356265D02*
X69072419Y-61356265D01*
X69072419Y-61356265D02*
X69072419Y-61832455D01*
X70072419Y-62261027D02*
X69072419Y-62261027D01*
X69072419Y-62261027D02*
X70072419Y-62832455D01*
X70072419Y-62832455D02*
X69072419Y-62832455D01*
X70024800Y-63261027D02*
X70072419Y-63403884D01*
X70072419Y-63403884D02*
X70072419Y-63641979D01*
X70072419Y-63641979D02*
X70024800Y-63737217D01*
X70024800Y-63737217D02*
X69977180Y-63784836D01*
X69977180Y-63784836D02*
X69881942Y-63832455D01*
X69881942Y-63832455D02*
X69786704Y-63832455D01*
X69786704Y-63832455D02*
X69691466Y-63784836D01*
X69691466Y-63784836D02*
X69643847Y-63737217D01*
X69643847Y-63737217D02*
X69596228Y-63641979D01*
X69596228Y-63641979D02*
X69548609Y-63451503D01*
X69548609Y-63451503D02*
X69500990Y-63356265D01*
X69500990Y-63356265D02*
X69453371Y-63308646D01*
X69453371Y-63308646D02*
X69358133Y-63261027D01*
X69358133Y-63261027D02*
X69262895Y-63261027D01*
X69262895Y-63261027D02*
X69167657Y-63308646D01*
X69167657Y-63308646D02*
X69120038Y-63356265D01*
X69120038Y-63356265D02*
X69072419Y-63451503D01*
X69072419Y-63451503D02*
X69072419Y-63689598D01*
X69072419Y-63689598D02*
X69120038Y-63832455D01*
X69072419Y-64451503D02*
X69072419Y-64641979D01*
X69072419Y-64641979D02*
X69120038Y-64737217D01*
X69120038Y-64737217D02*
X69215276Y-64832455D01*
X69215276Y-64832455D02*
X69405752Y-64880074D01*
X69405752Y-64880074D02*
X69739085Y-64880074D01*
X69739085Y-64880074D02*
X69929561Y-64832455D01*
X69929561Y-64832455D02*
X70024800Y-64737217D01*
X70024800Y-64737217D02*
X70072419Y-64641979D01*
X70072419Y-64641979D02*
X70072419Y-64451503D01*
X70072419Y-64451503D02*
X70024800Y-64356265D01*
X70024800Y-64356265D02*
X69929561Y-64261027D01*
X69929561Y-64261027D02*
X69739085Y-64213408D01*
X69739085Y-64213408D02*
X69405752Y-64213408D01*
X69405752Y-64213408D02*
X69215276Y-64261027D01*
X69215276Y-64261027D02*
X69120038Y-64356265D01*
X69120038Y-64356265D02*
X69072419Y-64451503D01*
X70072419Y-65880074D02*
X69596228Y-65546741D01*
X70072419Y-65308646D02*
X69072419Y-65308646D01*
X69072419Y-65308646D02*
X69072419Y-65689598D01*
X69072419Y-65689598D02*
X69120038Y-65784836D01*
X69120038Y-65784836D02*
X69167657Y-65832455D01*
X69167657Y-65832455D02*
X69262895Y-65880074D01*
X69262895Y-65880074D02*
X69405752Y-65880074D01*
X69405752Y-65880074D02*
X69500990Y-65832455D01*
X69500990Y-65832455D02*
X69548609Y-65784836D01*
X69548609Y-65784836D02*
X69596228Y-65689598D01*
X69596228Y-65689598D02*
X69596228Y-65308646D01*
X70167657Y-66070551D02*
X70167657Y-66832455D01*
X69072419Y-66975313D02*
X69072419Y-67594360D01*
X69072419Y-67594360D02*
X69453371Y-67261027D01*
X69453371Y-67261027D02*
X69453371Y-67403884D01*
X69453371Y-67403884D02*
X69500990Y-67499122D01*
X69500990Y-67499122D02*
X69548609Y-67546741D01*
X69548609Y-67546741D02*
X69643847Y-67594360D01*
X69643847Y-67594360D02*
X69881942Y-67594360D01*
X69881942Y-67594360D02*
X69977180Y-67546741D01*
X69977180Y-67546741D02*
X70024800Y-67499122D01*
X70024800Y-67499122D02*
X70072419Y-67403884D01*
X70072419Y-67403884D02*
X70072419Y-67118170D01*
X70072419Y-67118170D02*
X70024800Y-67022932D01*
X70024800Y-67022932D02*
X69977180Y-66975313D01*
X82424800Y-60556265D02*
X82472419Y-60699122D01*
X82472419Y-60699122D02*
X82472419Y-60937217D01*
X82472419Y-60937217D02*
X82424800Y-61032455D01*
X82424800Y-61032455D02*
X82377180Y-61080074D01*
X82377180Y-61080074D02*
X82281942Y-61127693D01*
X82281942Y-61127693D02*
X82186704Y-61127693D01*
X82186704Y-61127693D02*
X82091466Y-61080074D01*
X82091466Y-61080074D02*
X82043847Y-61032455D01*
X82043847Y-61032455D02*
X81996228Y-60937217D01*
X81996228Y-60937217D02*
X81948609Y-60746741D01*
X81948609Y-60746741D02*
X81900990Y-60651503D01*
X81900990Y-60651503D02*
X81853371Y-60603884D01*
X81853371Y-60603884D02*
X81758133Y-60556265D01*
X81758133Y-60556265D02*
X81662895Y-60556265D01*
X81662895Y-60556265D02*
X81567657Y-60603884D01*
X81567657Y-60603884D02*
X81520038Y-60651503D01*
X81520038Y-60651503D02*
X81472419Y-60746741D01*
X81472419Y-60746741D02*
X81472419Y-60984836D01*
X81472419Y-60984836D02*
X81520038Y-61127693D01*
X81948609Y-61556265D02*
X81948609Y-61889598D01*
X82472419Y-62032455D02*
X82472419Y-61556265D01*
X82472419Y-61556265D02*
X81472419Y-61556265D01*
X81472419Y-61556265D02*
X81472419Y-62032455D01*
X82472419Y-62461027D02*
X81472419Y-62461027D01*
X81472419Y-62461027D02*
X82472419Y-63032455D01*
X82472419Y-63032455D02*
X81472419Y-63032455D01*
X82424800Y-63461027D02*
X82472419Y-63603884D01*
X82472419Y-63603884D02*
X82472419Y-63841979D01*
X82472419Y-63841979D02*
X82424800Y-63937217D01*
X82424800Y-63937217D02*
X82377180Y-63984836D01*
X82377180Y-63984836D02*
X82281942Y-64032455D01*
X82281942Y-64032455D02*
X82186704Y-64032455D01*
X82186704Y-64032455D02*
X82091466Y-63984836D01*
X82091466Y-63984836D02*
X82043847Y-63937217D01*
X82043847Y-63937217D02*
X81996228Y-63841979D01*
X81996228Y-63841979D02*
X81948609Y-63651503D01*
X81948609Y-63651503D02*
X81900990Y-63556265D01*
X81900990Y-63556265D02*
X81853371Y-63508646D01*
X81853371Y-63508646D02*
X81758133Y-63461027D01*
X81758133Y-63461027D02*
X81662895Y-63461027D01*
X81662895Y-63461027D02*
X81567657Y-63508646D01*
X81567657Y-63508646D02*
X81520038Y-63556265D01*
X81520038Y-63556265D02*
X81472419Y-63651503D01*
X81472419Y-63651503D02*
X81472419Y-63889598D01*
X81472419Y-63889598D02*
X81520038Y-64032455D01*
X81472419Y-64651503D02*
X81472419Y-64841979D01*
X81472419Y-64841979D02*
X81520038Y-64937217D01*
X81520038Y-64937217D02*
X81615276Y-65032455D01*
X81615276Y-65032455D02*
X81805752Y-65080074D01*
X81805752Y-65080074D02*
X82139085Y-65080074D01*
X82139085Y-65080074D02*
X82329561Y-65032455D01*
X82329561Y-65032455D02*
X82424800Y-64937217D01*
X82424800Y-64937217D02*
X82472419Y-64841979D01*
X82472419Y-64841979D02*
X82472419Y-64651503D01*
X82472419Y-64651503D02*
X82424800Y-64556265D01*
X82424800Y-64556265D02*
X82329561Y-64461027D01*
X82329561Y-64461027D02*
X82139085Y-64413408D01*
X82139085Y-64413408D02*
X81805752Y-64413408D01*
X81805752Y-64413408D02*
X81615276Y-64461027D01*
X81615276Y-64461027D02*
X81520038Y-64556265D01*
X81520038Y-64556265D02*
X81472419Y-64651503D01*
X82472419Y-66080074D02*
X81996228Y-65746741D01*
X82472419Y-65508646D02*
X81472419Y-65508646D01*
X81472419Y-65508646D02*
X81472419Y-65889598D01*
X81472419Y-65889598D02*
X81520038Y-65984836D01*
X81520038Y-65984836D02*
X81567657Y-66032455D01*
X81567657Y-66032455D02*
X81662895Y-66080074D01*
X81662895Y-66080074D02*
X81805752Y-66080074D01*
X81805752Y-66080074D02*
X81900990Y-66032455D01*
X81900990Y-66032455D02*
X81948609Y-65984836D01*
X81948609Y-65984836D02*
X81996228Y-65889598D01*
X81996228Y-65889598D02*
X81996228Y-65508646D01*
X82567657Y-66270551D02*
X82567657Y-67032455D01*
X81567657Y-67222932D02*
X81520038Y-67270551D01*
X81520038Y-67270551D02*
X81472419Y-67365789D01*
X81472419Y-67365789D02*
X81472419Y-67603884D01*
X81472419Y-67603884D02*
X81520038Y-67699122D01*
X81520038Y-67699122D02*
X81567657Y-67746741D01*
X81567657Y-67746741D02*
X81662895Y-67794360D01*
X81662895Y-67794360D02*
X81758133Y-67794360D01*
X81758133Y-67794360D02*
X81900990Y-67746741D01*
X81900990Y-67746741D02*
X82472419Y-67175313D01*
X82472419Y-67175313D02*
X82472419Y-67794360D01*
X95424800Y-60556265D02*
X95472419Y-60699122D01*
X95472419Y-60699122D02*
X95472419Y-60937217D01*
X95472419Y-60937217D02*
X95424800Y-61032455D01*
X95424800Y-61032455D02*
X95377180Y-61080074D01*
X95377180Y-61080074D02*
X95281942Y-61127693D01*
X95281942Y-61127693D02*
X95186704Y-61127693D01*
X95186704Y-61127693D02*
X95091466Y-61080074D01*
X95091466Y-61080074D02*
X95043847Y-61032455D01*
X95043847Y-61032455D02*
X94996228Y-60937217D01*
X94996228Y-60937217D02*
X94948609Y-60746741D01*
X94948609Y-60746741D02*
X94900990Y-60651503D01*
X94900990Y-60651503D02*
X94853371Y-60603884D01*
X94853371Y-60603884D02*
X94758133Y-60556265D01*
X94758133Y-60556265D02*
X94662895Y-60556265D01*
X94662895Y-60556265D02*
X94567657Y-60603884D01*
X94567657Y-60603884D02*
X94520038Y-60651503D01*
X94520038Y-60651503D02*
X94472419Y-60746741D01*
X94472419Y-60746741D02*
X94472419Y-60984836D01*
X94472419Y-60984836D02*
X94520038Y-61127693D01*
X94948609Y-61556265D02*
X94948609Y-61889598D01*
X95472419Y-62032455D02*
X95472419Y-61556265D01*
X95472419Y-61556265D02*
X94472419Y-61556265D01*
X94472419Y-61556265D02*
X94472419Y-62032455D01*
X95472419Y-62461027D02*
X94472419Y-62461027D01*
X94472419Y-62461027D02*
X95472419Y-63032455D01*
X95472419Y-63032455D02*
X94472419Y-63032455D01*
X95424800Y-63461027D02*
X95472419Y-63603884D01*
X95472419Y-63603884D02*
X95472419Y-63841979D01*
X95472419Y-63841979D02*
X95424800Y-63937217D01*
X95424800Y-63937217D02*
X95377180Y-63984836D01*
X95377180Y-63984836D02*
X95281942Y-64032455D01*
X95281942Y-64032455D02*
X95186704Y-64032455D01*
X95186704Y-64032455D02*
X95091466Y-63984836D01*
X95091466Y-63984836D02*
X95043847Y-63937217D01*
X95043847Y-63937217D02*
X94996228Y-63841979D01*
X94996228Y-63841979D02*
X94948609Y-63651503D01*
X94948609Y-63651503D02*
X94900990Y-63556265D01*
X94900990Y-63556265D02*
X94853371Y-63508646D01*
X94853371Y-63508646D02*
X94758133Y-63461027D01*
X94758133Y-63461027D02*
X94662895Y-63461027D01*
X94662895Y-63461027D02*
X94567657Y-63508646D01*
X94567657Y-63508646D02*
X94520038Y-63556265D01*
X94520038Y-63556265D02*
X94472419Y-63651503D01*
X94472419Y-63651503D02*
X94472419Y-63889598D01*
X94472419Y-63889598D02*
X94520038Y-64032455D01*
X94472419Y-64651503D02*
X94472419Y-64841979D01*
X94472419Y-64841979D02*
X94520038Y-64937217D01*
X94520038Y-64937217D02*
X94615276Y-65032455D01*
X94615276Y-65032455D02*
X94805752Y-65080074D01*
X94805752Y-65080074D02*
X95139085Y-65080074D01*
X95139085Y-65080074D02*
X95329561Y-65032455D01*
X95329561Y-65032455D02*
X95424800Y-64937217D01*
X95424800Y-64937217D02*
X95472419Y-64841979D01*
X95472419Y-64841979D02*
X95472419Y-64651503D01*
X95472419Y-64651503D02*
X95424800Y-64556265D01*
X95424800Y-64556265D02*
X95329561Y-64461027D01*
X95329561Y-64461027D02*
X95139085Y-64413408D01*
X95139085Y-64413408D02*
X94805752Y-64413408D01*
X94805752Y-64413408D02*
X94615276Y-64461027D01*
X94615276Y-64461027D02*
X94520038Y-64556265D01*
X94520038Y-64556265D02*
X94472419Y-64651503D01*
X95472419Y-66080074D02*
X94996228Y-65746741D01*
X95472419Y-65508646D02*
X94472419Y-65508646D01*
X94472419Y-65508646D02*
X94472419Y-65889598D01*
X94472419Y-65889598D02*
X94520038Y-65984836D01*
X94520038Y-65984836D02*
X94567657Y-66032455D01*
X94567657Y-66032455D02*
X94662895Y-66080074D01*
X94662895Y-66080074D02*
X94805752Y-66080074D01*
X94805752Y-66080074D02*
X94900990Y-66032455D01*
X94900990Y-66032455D02*
X94948609Y-65984836D01*
X94948609Y-65984836D02*
X94996228Y-65889598D01*
X94996228Y-65889598D02*
X94996228Y-65508646D01*
X95567657Y-66270551D02*
X95567657Y-67032455D01*
X95472419Y-67794360D02*
X95472419Y-67222932D01*
X95472419Y-67508646D02*
X94472419Y-67508646D01*
X94472419Y-67508646D02*
X94615276Y-67413408D01*
X94615276Y-67413408D02*
X94710514Y-67318170D01*
X94710514Y-67318170D02*
X94758133Y-67222932D01*
X95924800Y-76456265D02*
X95972419Y-76599122D01*
X95972419Y-76599122D02*
X95972419Y-76837217D01*
X95972419Y-76837217D02*
X95924800Y-76932455D01*
X95924800Y-76932455D02*
X95877180Y-76980074D01*
X95877180Y-76980074D02*
X95781942Y-77027693D01*
X95781942Y-77027693D02*
X95686704Y-77027693D01*
X95686704Y-77027693D02*
X95591466Y-76980074D01*
X95591466Y-76980074D02*
X95543847Y-76932455D01*
X95543847Y-76932455D02*
X95496228Y-76837217D01*
X95496228Y-76837217D02*
X95448609Y-76646741D01*
X95448609Y-76646741D02*
X95400990Y-76551503D01*
X95400990Y-76551503D02*
X95353371Y-76503884D01*
X95353371Y-76503884D02*
X95258133Y-76456265D01*
X95258133Y-76456265D02*
X95162895Y-76456265D01*
X95162895Y-76456265D02*
X95067657Y-76503884D01*
X95067657Y-76503884D02*
X95020038Y-76551503D01*
X95020038Y-76551503D02*
X94972419Y-76646741D01*
X94972419Y-76646741D02*
X94972419Y-76884836D01*
X94972419Y-76884836D02*
X95020038Y-77027693D01*
X95448609Y-77456265D02*
X95448609Y-77789598D01*
X95972419Y-77932455D02*
X95972419Y-77456265D01*
X95972419Y-77456265D02*
X94972419Y-77456265D01*
X94972419Y-77456265D02*
X94972419Y-77932455D01*
X95972419Y-78361027D02*
X94972419Y-78361027D01*
X94972419Y-78361027D02*
X95972419Y-78932455D01*
X95972419Y-78932455D02*
X94972419Y-78932455D01*
X95924800Y-79361027D02*
X95972419Y-79503884D01*
X95972419Y-79503884D02*
X95972419Y-79741979D01*
X95972419Y-79741979D02*
X95924800Y-79837217D01*
X95924800Y-79837217D02*
X95877180Y-79884836D01*
X95877180Y-79884836D02*
X95781942Y-79932455D01*
X95781942Y-79932455D02*
X95686704Y-79932455D01*
X95686704Y-79932455D02*
X95591466Y-79884836D01*
X95591466Y-79884836D02*
X95543847Y-79837217D01*
X95543847Y-79837217D02*
X95496228Y-79741979D01*
X95496228Y-79741979D02*
X95448609Y-79551503D01*
X95448609Y-79551503D02*
X95400990Y-79456265D01*
X95400990Y-79456265D02*
X95353371Y-79408646D01*
X95353371Y-79408646D02*
X95258133Y-79361027D01*
X95258133Y-79361027D02*
X95162895Y-79361027D01*
X95162895Y-79361027D02*
X95067657Y-79408646D01*
X95067657Y-79408646D02*
X95020038Y-79456265D01*
X95020038Y-79456265D02*
X94972419Y-79551503D01*
X94972419Y-79551503D02*
X94972419Y-79789598D01*
X94972419Y-79789598D02*
X95020038Y-79932455D01*
X94972419Y-80551503D02*
X94972419Y-80741979D01*
X94972419Y-80741979D02*
X95020038Y-80837217D01*
X95020038Y-80837217D02*
X95115276Y-80932455D01*
X95115276Y-80932455D02*
X95305752Y-80980074D01*
X95305752Y-80980074D02*
X95639085Y-80980074D01*
X95639085Y-80980074D02*
X95829561Y-80932455D01*
X95829561Y-80932455D02*
X95924800Y-80837217D01*
X95924800Y-80837217D02*
X95972419Y-80741979D01*
X95972419Y-80741979D02*
X95972419Y-80551503D01*
X95972419Y-80551503D02*
X95924800Y-80456265D01*
X95924800Y-80456265D02*
X95829561Y-80361027D01*
X95829561Y-80361027D02*
X95639085Y-80313408D01*
X95639085Y-80313408D02*
X95305752Y-80313408D01*
X95305752Y-80313408D02*
X95115276Y-80361027D01*
X95115276Y-80361027D02*
X95020038Y-80456265D01*
X95020038Y-80456265D02*
X94972419Y-80551503D01*
X95972419Y-81980074D02*
X95496228Y-81646741D01*
X95972419Y-81408646D02*
X94972419Y-81408646D01*
X94972419Y-81408646D02*
X94972419Y-81789598D01*
X94972419Y-81789598D02*
X95020038Y-81884836D01*
X95020038Y-81884836D02*
X95067657Y-81932455D01*
X95067657Y-81932455D02*
X95162895Y-81980074D01*
X95162895Y-81980074D02*
X95305752Y-81980074D01*
X95305752Y-81980074D02*
X95400990Y-81932455D01*
X95400990Y-81932455D02*
X95448609Y-81884836D01*
X95448609Y-81884836D02*
X95496228Y-81789598D01*
X95496228Y-81789598D02*
X95496228Y-81408646D01*
X96067657Y-82170551D02*
X96067657Y-82932455D01*
X94972419Y-83361027D02*
X94972419Y-83456265D01*
X94972419Y-83456265D02*
X95020038Y-83551503D01*
X95020038Y-83551503D02*
X95067657Y-83599122D01*
X95067657Y-83599122D02*
X95162895Y-83646741D01*
X95162895Y-83646741D02*
X95353371Y-83694360D01*
X95353371Y-83694360D02*
X95591466Y-83694360D01*
X95591466Y-83694360D02*
X95781942Y-83646741D01*
X95781942Y-83646741D02*
X95877180Y-83599122D01*
X95877180Y-83599122D02*
X95924800Y-83551503D01*
X95924800Y-83551503D02*
X95972419Y-83456265D01*
X95972419Y-83456265D02*
X95972419Y-83361027D01*
X95972419Y-83361027D02*
X95924800Y-83265789D01*
X95924800Y-83265789D02*
X95877180Y-83218170D01*
X95877180Y-83218170D02*
X95781942Y-83170551D01*
X95781942Y-83170551D02*
X95591466Y-83122932D01*
X95591466Y-83122932D02*
X95353371Y-83122932D01*
X95353371Y-83122932D02*
X95162895Y-83170551D01*
X95162895Y-83170551D02*
X95067657Y-83218170D01*
X95067657Y-83218170D02*
X95020038Y-83265789D01*
X95020038Y-83265789D02*
X94972419Y-83361027D01*
D11*
X83986666Y-138884819D02*
X84319999Y-138408628D01*
X84558094Y-138884819D02*
X84558094Y-137884819D01*
X84558094Y-137884819D02*
X84177142Y-137884819D01*
X84177142Y-137884819D02*
X84081904Y-137932438D01*
X84081904Y-137932438D02*
X84034285Y-137980057D01*
X84034285Y-137980057D02*
X83986666Y-138075295D01*
X83986666Y-138075295D02*
X83986666Y-138218152D01*
X83986666Y-138218152D02*
X84034285Y-138313390D01*
X84034285Y-138313390D02*
X84081904Y-138361009D01*
X84081904Y-138361009D02*
X84177142Y-138408628D01*
X84177142Y-138408628D02*
X84558094Y-138408628D01*
X83034285Y-138884819D02*
X83605713Y-138884819D01*
X83319999Y-138884819D02*
X83319999Y-137884819D01*
X83319999Y-137884819D02*
X83415237Y-138027676D01*
X83415237Y-138027676D02*
X83510475Y-138122914D01*
X83510475Y-138122914D02*
X83605713Y-138170533D01*
X83986666Y-131264819D02*
X84319999Y-130788628D01*
X84558094Y-131264819D02*
X84558094Y-130264819D01*
X84558094Y-130264819D02*
X84177142Y-130264819D01*
X84177142Y-130264819D02*
X84081904Y-130312438D01*
X84081904Y-130312438D02*
X84034285Y-130360057D01*
X84034285Y-130360057D02*
X83986666Y-130455295D01*
X83986666Y-130455295D02*
X83986666Y-130598152D01*
X83986666Y-130598152D02*
X84034285Y-130693390D01*
X84034285Y-130693390D02*
X84081904Y-130741009D01*
X84081904Y-130741009D02*
X84177142Y-130788628D01*
X84177142Y-130788628D02*
X84558094Y-130788628D01*
X83653332Y-130264819D02*
X83034285Y-130264819D01*
X83034285Y-130264819D02*
X83367618Y-130645771D01*
X83367618Y-130645771D02*
X83224761Y-130645771D01*
X83224761Y-130645771D02*
X83129523Y-130693390D01*
X83129523Y-130693390D02*
X83081904Y-130741009D01*
X83081904Y-130741009D02*
X83034285Y-130836247D01*
X83034285Y-130836247D02*
X83034285Y-131074342D01*
X83034285Y-131074342D02*
X83081904Y-131169580D01*
X83081904Y-131169580D02*
X83129523Y-131217200D01*
X83129523Y-131217200D02*
X83224761Y-131264819D01*
X83224761Y-131264819D02*
X83510475Y-131264819D01*
X83510475Y-131264819D02*
X83605713Y-131217200D01*
X83605713Y-131217200D02*
X83653332Y-131169580D01*
X83986666Y-135074819D02*
X84319999Y-134598628D01*
X84558094Y-135074819D02*
X84558094Y-134074819D01*
X84558094Y-134074819D02*
X84177142Y-134074819D01*
X84177142Y-134074819D02*
X84081904Y-134122438D01*
X84081904Y-134122438D02*
X84034285Y-134170057D01*
X84034285Y-134170057D02*
X83986666Y-134265295D01*
X83986666Y-134265295D02*
X83986666Y-134408152D01*
X83986666Y-134408152D02*
X84034285Y-134503390D01*
X84034285Y-134503390D02*
X84081904Y-134551009D01*
X84081904Y-134551009D02*
X84177142Y-134598628D01*
X84177142Y-134598628D02*
X84558094Y-134598628D01*
X83605713Y-134170057D02*
X83558094Y-134122438D01*
X83558094Y-134122438D02*
X83462856Y-134074819D01*
X83462856Y-134074819D02*
X83224761Y-134074819D01*
X83224761Y-134074819D02*
X83129523Y-134122438D01*
X83129523Y-134122438D02*
X83081904Y-134170057D01*
X83081904Y-134170057D02*
X83034285Y-134265295D01*
X83034285Y-134265295D02*
X83034285Y-134360533D01*
X83034285Y-134360533D02*
X83081904Y-134503390D01*
X83081904Y-134503390D02*
X83653332Y-135074819D01*
X83653332Y-135074819D02*
X83034285Y-135074819D01*
D10*
X115021904Y-38121419D02*
X115021904Y-38930942D01*
X115021904Y-38930942D02*
X114974285Y-39026180D01*
X114974285Y-39026180D02*
X114926666Y-39073800D01*
X114926666Y-39073800D02*
X114831428Y-39121419D01*
X114831428Y-39121419D02*
X114640952Y-39121419D01*
X114640952Y-39121419D02*
X114545714Y-39073800D01*
X114545714Y-39073800D02*
X114498095Y-39026180D01*
X114498095Y-39026180D02*
X114450476Y-38930942D01*
X114450476Y-38930942D02*
X114450476Y-38121419D01*
X113450476Y-39121419D02*
X114021904Y-39121419D01*
X113736190Y-39121419D02*
X113736190Y-38121419D01*
X113736190Y-38121419D02*
X113831428Y-38264276D01*
X113831428Y-38264276D02*
X113926666Y-38359514D01*
X113926666Y-38359514D02*
X114021904Y-38407133D01*
D12*
X79470000Y-138430000D02*
X80240000Y-138430000D01*
X79470000Y-139800000D02*
X79470000Y-137060000D01*
X72930000Y-139800000D02*
X79470000Y-139800000D01*
X79470000Y-137060000D02*
X72930000Y-137060000D01*
X72930000Y-137060000D02*
X72930000Y-139800000D01*
X72930000Y-138430000D02*
X72160000Y-138430000D01*
X79470000Y-130810000D02*
X80240000Y-130810000D01*
X79470000Y-132180000D02*
X79470000Y-129440000D01*
X72930000Y-132180000D02*
X79470000Y-132180000D01*
X79470000Y-129440000D02*
X72930000Y-129440000D01*
X72930000Y-129440000D02*
X72930000Y-132180000D01*
X72930000Y-130810000D02*
X72160000Y-130810000D01*
X79470000Y-134620000D02*
X80240000Y-134620000D01*
X79470000Y-135990000D02*
X79470000Y-133250000D01*
X72930000Y-135990000D02*
X79470000Y-135990000D01*
X79470000Y-133250000D02*
X72930000Y-133250000D01*
X72930000Y-133250000D02*
X72930000Y-135990000D01*
X72930000Y-134620000D02*
X72160000Y-134620000D01*
%LPC*%
D13*
X65600000Y-47200000D03*
X114700000Y-47300000D03*
X114700000Y-163300000D03*
X65600000Y-163200000D03*
D14*
X104100000Y-75700000D03*
D15*
X104100000Y-85860000D03*
D14*
X98100000Y-75700000D03*
D15*
X98100000Y-85860000D03*
D14*
X101100000Y-75700000D03*
D15*
X101100000Y-85860000D03*
D14*
X103500000Y-58800000D03*
D15*
X103500000Y-68960000D03*
D14*
X97500000Y-58820000D03*
D15*
X97500000Y-68980000D03*
D14*
X100500000Y-58800000D03*
D15*
X100500000Y-68960000D03*
D14*
X90200000Y-110320000D03*
D15*
X90200000Y-120480000D03*
D14*
X84200000Y-110320000D03*
D15*
X84200000Y-120480000D03*
D14*
X87200000Y-110320000D03*
D15*
X87200000Y-120480000D03*
D14*
X90000000Y-93520000D03*
D15*
X90000000Y-103680000D03*
D14*
X84000000Y-93520000D03*
D15*
X84000000Y-103680000D03*
D14*
X87000000Y-93520000D03*
D15*
X87000000Y-103680000D03*
D14*
X90500000Y-75700000D03*
D15*
X90500000Y-85860000D03*
D14*
X84500000Y-75700000D03*
D15*
X84500000Y-85860000D03*
D14*
X87500000Y-75700000D03*
D15*
X87500000Y-85860000D03*
D14*
X90500000Y-58800000D03*
D15*
X90500000Y-68960000D03*
D14*
X84500000Y-58800000D03*
D15*
X84500000Y-68960000D03*
D14*
X87500000Y-58780000D03*
D15*
X87500000Y-68940000D03*
D14*
X78200000Y-58800000D03*
D15*
X78200000Y-68960000D03*
D14*
X72200000Y-58800000D03*
D15*
X72200000Y-68960000D03*
D14*
X75200000Y-58800000D03*
D15*
X75200000Y-68960000D03*
D14*
X78000000Y-75720000D03*
D15*
X78000000Y-85880000D03*
D14*
X72000000Y-75720000D03*
D15*
X72000000Y-85880000D03*
D14*
X75000000Y-75720000D03*
D15*
X75000000Y-85880000D03*
D14*
X77400000Y-93580000D03*
D15*
X77400000Y-103740000D03*
D14*
X71400000Y-93600000D03*
D15*
X71400000Y-103760000D03*
D14*
X74400000Y-93600000D03*
D15*
X74400000Y-103760000D03*
D16*
X98100000Y-73000000D03*
X101100000Y-73000000D03*
X104100000Y-73000000D03*
X97400000Y-56000000D03*
X100400000Y-56000000D03*
X103400000Y-56000000D03*
X84200000Y-107620000D03*
X87200000Y-107620000D03*
X90200000Y-107620000D03*
X84025000Y-90900000D03*
X87025000Y-90900000D03*
X90025000Y-90900000D03*
X84525000Y-73000000D03*
X87525000Y-73000000D03*
X90525000Y-73000000D03*
X84425000Y-56000000D03*
X87425000Y-56000000D03*
X90425000Y-56000000D03*
X72125000Y-56000000D03*
X75125000Y-56000000D03*
X78125000Y-56000000D03*
X72000000Y-73000000D03*
X75000000Y-73000000D03*
X78000000Y-73000000D03*
X71400000Y-90900000D03*
X74400000Y-90900000D03*
X77400000Y-90900000D03*
D14*
X77700000Y-110320000D03*
D15*
X77700000Y-120480000D03*
D14*
X71600000Y-110320000D03*
D15*
X71600000Y-120480000D03*
D14*
X74637500Y-110320000D03*
D15*
X74637500Y-120480000D03*
D16*
X71600000Y-107620000D03*
X74600000Y-107620000D03*
X77600000Y-107620000D03*
D17*
X96680000Y-90620000D03*
D18*
X96680000Y-93160000D03*
X96680000Y-95700000D03*
X96680000Y-98240000D03*
X96680000Y-100780000D03*
X96680000Y-103320000D03*
X96680000Y-105860000D03*
X104300000Y-105860000D03*
X104300000Y-103320000D03*
X104300000Y-100780000D03*
X104300000Y-98240000D03*
X104300000Y-95700000D03*
X104300000Y-93160000D03*
X104300000Y-90620000D03*
D19*
X90170000Y-159385000D03*
D20*
X100330000Y-159385000D03*
D21*
X71120000Y-144780000D03*
D22*
X71120000Y-147320000D03*
D21*
X78740000Y-160030000D03*
D22*
X78740000Y-157490000D03*
D21*
X71120000Y-152400000D03*
D22*
X71120000Y-154940000D03*
D23*
X85090000Y-146050000D03*
X85090000Y-148590000D03*
X85090000Y-151130000D03*
X85090000Y-153670000D03*
X85090000Y-156210000D03*
D24*
X114300000Y-147000000D03*
D15*
X111760000Y-147000000D03*
X109220000Y-147000000D03*
X106680000Y-147000000D03*
X104140000Y-147000000D03*
X101600000Y-147000000D03*
X99060000Y-147000000D03*
X96520000Y-147000000D03*
X93980000Y-147000000D03*
X91440000Y-147000000D03*
X91440000Y-154620000D03*
X93980000Y-154620000D03*
X96520000Y-154620000D03*
X99060000Y-154620000D03*
X101600000Y-154620000D03*
X104140000Y-154620000D03*
X106680000Y-154620000D03*
X109220000Y-154620000D03*
X111760000Y-154620000D03*
X114300000Y-154620000D03*
D14*
X81280000Y-138430000D03*
D15*
X71120000Y-138430000D03*
D14*
X81280000Y-130810000D03*
D15*
X71120000Y-130810000D03*
D14*
X81280000Y-134620000D03*
D15*
X71120000Y-134620000D03*
D23*
X114260000Y-69144000D03*
X114260000Y-71684000D03*
X114260000Y-74224000D03*
X114260000Y-76764000D03*
X114260000Y-79304000D03*
X114260000Y-81844000D03*
X114260000Y-84384000D03*
X114260000Y-86924000D03*
X114260000Y-92004000D03*
X114260000Y-94544000D03*
X114260000Y-97084000D03*
X114260000Y-99624000D03*
X114260000Y-102164000D03*
X114260000Y-104704000D03*
X114260000Y-107244000D03*
X114260000Y-109784000D03*
X114260000Y-114864000D03*
X114260000Y-117404000D03*
X114260000Y-119944000D03*
X114260000Y-122484000D03*
X114260000Y-125024000D03*
X114260000Y-127564000D03*
X114260000Y-130104000D03*
X114260000Y-132644000D03*
X66000000Y-60000000D03*
X66000000Y-62540000D03*
X66000000Y-65080000D03*
X66000000Y-67620000D03*
X66000000Y-70160000D03*
X66000000Y-72700000D03*
X66000000Y-75240000D03*
X66000000Y-77780000D03*
X66000000Y-80320000D03*
X66000000Y-82860000D03*
X66000000Y-86924000D03*
X66000000Y-89464000D03*
X66000000Y-92004000D03*
X66000000Y-94544000D03*
X66000000Y-97084000D03*
X66000000Y-99624000D03*
X66000000Y-102164000D03*
X66000000Y-104704000D03*
X66000000Y-109784000D03*
X66000000Y-112324000D03*
X66000000Y-114864000D03*
X66000000Y-117404000D03*
X66000000Y-119944000D03*
X66000000Y-122484000D03*
X66000000Y-125024000D03*
X66000000Y-127564000D03*
%LPD*%
M02*
