G04 #@! TF.GenerationSoftware,KiCad,Pcbnew,8.0.0*
G04 #@! TF.CreationDate,2024-10-02T08:02:54-07:00*
G04 #@! TF.ProjectId,sumitomo_node_v3,73756d69-746f-46d6-9f5f-6e6f64655f76,rev?*
G04 #@! TF.SameCoordinates,Original*
G04 #@! TF.FileFunction,Copper,L2,Bot*
G04 #@! TF.FilePolarity,Positive*
%FSLAX46Y46*%
G04 Gerber Fmt 4.6, Leading zero omitted, Abs format (unit mm)*
G04 Created by KiCad (PCBNEW 8.0.0) date 2024-10-02 08:02:54*
%MOMM*%
%LPD*%
G01*
G04 APERTURE LIST*
G04 #@! TA.AperFunction,ComponentPad*
%ADD10C,1.600000*%
G04 #@! TD*
G04 #@! TA.AperFunction,ComponentPad*
%ADD11O,1.600000X1.600000*%
G04 #@! TD*
G04 #@! TA.AperFunction,ComponentPad*
%ADD12R,2.400000X2.400000*%
G04 #@! TD*
G04 #@! TA.AperFunction,ComponentPad*
%ADD13R,2.400000X1.600000*%
G04 #@! TD*
G04 #@! TA.AperFunction,ComponentPad*
%ADD14O,2.400000X1.600000*%
G04 #@! TD*
G04 #@! TA.AperFunction,ComponentPad*
%ADD15R,2.200000X2.200000*%
G04 #@! TD*
G04 #@! TA.AperFunction,ComponentPad*
%ADD16O,2.200000X2.200000*%
G04 #@! TD*
G04 #@! TA.AperFunction,ComponentPad*
%ADD17R,1.800000X1.800000*%
G04 #@! TD*
G04 #@! TA.AperFunction,ComponentPad*
%ADD18C,1.800000*%
G04 #@! TD*
G04 #@! TA.AperFunction,ComponentPad*
%ADD19R,2.000000X2.000000*%
G04 #@! TD*
G04 #@! TA.AperFunction,ComponentPad*
%ADD20R,1.600000X1.600000*%
G04 #@! TD*
G04 #@! TA.AperFunction,Conductor*
%ADD21C,0.500000*%
G04 #@! TD*
G04 #@! TA.AperFunction,Conductor*
%ADD22C,1.000000*%
G04 #@! TD*
G04 APERTURE END LIST*
D10*
X104100000Y-75700000D03*
D11*
X104100000Y-85860000D03*
D10*
X98100000Y-75700000D03*
D11*
X98100000Y-85860000D03*
D10*
X101100000Y-75700000D03*
D11*
X101100000Y-85860000D03*
D10*
X103500000Y-58800000D03*
D11*
X103500000Y-68960000D03*
D10*
X97500000Y-58820000D03*
D11*
X97500000Y-68980000D03*
D10*
X100500000Y-58800000D03*
D11*
X100500000Y-68960000D03*
D10*
X90200000Y-110320000D03*
D11*
X90200000Y-120480000D03*
D10*
X84200000Y-110320000D03*
D11*
X84200000Y-120480000D03*
D10*
X87200000Y-110320000D03*
D11*
X87200000Y-120480000D03*
D10*
X90000000Y-93520000D03*
D11*
X90000000Y-103680000D03*
D10*
X84000000Y-93520000D03*
D11*
X84000000Y-103680000D03*
D10*
X87000000Y-93520000D03*
D11*
X87000000Y-103680000D03*
D10*
X90500000Y-75700000D03*
D11*
X90500000Y-85860000D03*
D10*
X84500000Y-75700000D03*
D11*
X84500000Y-85860000D03*
D10*
X87500000Y-75700000D03*
D11*
X87500000Y-85860000D03*
D10*
X90500000Y-58800000D03*
D11*
X90500000Y-68960000D03*
D10*
X84500000Y-58800000D03*
D11*
X84500000Y-68960000D03*
D10*
X87500000Y-58780000D03*
D11*
X87500000Y-68940000D03*
D10*
X78200000Y-58800000D03*
D11*
X78200000Y-68960000D03*
D10*
X72200000Y-58800000D03*
D11*
X72200000Y-68960000D03*
D10*
X75200000Y-58800000D03*
D11*
X75200000Y-68960000D03*
D10*
X78000000Y-75720000D03*
D11*
X78000000Y-85880000D03*
D10*
X72000000Y-75720000D03*
D11*
X72000000Y-85880000D03*
D10*
X75000000Y-75720000D03*
D11*
X75000000Y-85880000D03*
D10*
X77400000Y-93580000D03*
D11*
X77400000Y-103740000D03*
D10*
X71400000Y-93600000D03*
D11*
X71400000Y-103760000D03*
D10*
X74400000Y-93600000D03*
D11*
X74400000Y-103760000D03*
D12*
X98100000Y-73000000D03*
X101100000Y-73000000D03*
X104100000Y-73000000D03*
X97400000Y-56000000D03*
X100400000Y-56000000D03*
X103400000Y-56000000D03*
X84200000Y-107620000D03*
X87200000Y-107620000D03*
X90200000Y-107620000D03*
X84025000Y-90900000D03*
X87025000Y-90900000D03*
X90025000Y-90900000D03*
X84525000Y-73000000D03*
X87525000Y-73000000D03*
X90525000Y-73000000D03*
X84425000Y-56000000D03*
X87425000Y-56000000D03*
X90425000Y-56000000D03*
X72125000Y-56000000D03*
X75125000Y-56000000D03*
X78125000Y-56000000D03*
X72000000Y-73000000D03*
X75000000Y-73000000D03*
X78000000Y-73000000D03*
X71400000Y-90900000D03*
X74400000Y-90900000D03*
X77400000Y-90900000D03*
D10*
X77700000Y-110320000D03*
D11*
X77700000Y-120480000D03*
D10*
X71600000Y-110320000D03*
D11*
X71600000Y-120480000D03*
D10*
X74637500Y-110320000D03*
D11*
X74637500Y-120480000D03*
D12*
X71600000Y-107620000D03*
X74600000Y-107620000D03*
X77600000Y-107620000D03*
D13*
X96680000Y-90620000D03*
D14*
X96680000Y-93160000D03*
X96680000Y-95700000D03*
X96680000Y-98240000D03*
X96680000Y-100780000D03*
X96680000Y-103320000D03*
X96680000Y-105860000D03*
X104300000Y-105860000D03*
X104300000Y-103320000D03*
X104300000Y-100780000D03*
X104300000Y-98240000D03*
X104300000Y-95700000D03*
X104300000Y-93160000D03*
X104300000Y-90620000D03*
D15*
X90170000Y-159385000D03*
D16*
X100330000Y-159385000D03*
D17*
X71120000Y-144780000D03*
D18*
X71120000Y-147320000D03*
D17*
X78740000Y-160030000D03*
D18*
X78740000Y-157490000D03*
D17*
X71120000Y-152400000D03*
D18*
X71120000Y-154940000D03*
D19*
X85090000Y-146050000D03*
X85090000Y-148590000D03*
X85090000Y-151130000D03*
X85090000Y-153670000D03*
X85090000Y-156210000D03*
D20*
X114300000Y-147000000D03*
D11*
X111760000Y-147000000D03*
X109220000Y-147000000D03*
X106680000Y-147000000D03*
X104140000Y-147000000D03*
X101600000Y-147000000D03*
X99060000Y-147000000D03*
X96520000Y-147000000D03*
X93980000Y-147000000D03*
X91440000Y-147000000D03*
X91440000Y-154620000D03*
X93980000Y-154620000D03*
X96520000Y-154620000D03*
X99060000Y-154620000D03*
X101600000Y-154620000D03*
X104140000Y-154620000D03*
X106680000Y-154620000D03*
X109220000Y-154620000D03*
X111760000Y-154620000D03*
X114300000Y-154620000D03*
D10*
X81280000Y-138430000D03*
D11*
X71120000Y-138430000D03*
D10*
X81280000Y-130810000D03*
D11*
X71120000Y-130810000D03*
D10*
X81280000Y-134620000D03*
D11*
X71120000Y-134620000D03*
D19*
X114260000Y-69144000D03*
X114260000Y-71684000D03*
X114260000Y-74224000D03*
X114260000Y-76764000D03*
X114260000Y-79304000D03*
X114260000Y-81844000D03*
X114260000Y-84384000D03*
X114260000Y-86924000D03*
X114260000Y-92004000D03*
X114260000Y-94544000D03*
X114260000Y-97084000D03*
X114260000Y-99624000D03*
X114260000Y-102164000D03*
X114260000Y-104704000D03*
X114260000Y-107244000D03*
X114260000Y-109784000D03*
X114260000Y-114864000D03*
X114260000Y-117404000D03*
X114260000Y-119944000D03*
X114260000Y-122484000D03*
X114260000Y-125024000D03*
X114260000Y-127564000D03*
X114260000Y-130104000D03*
X114260000Y-132644000D03*
X66000000Y-60000000D03*
X66000000Y-62540000D03*
X66000000Y-65080000D03*
X66000000Y-67620000D03*
X66000000Y-70160000D03*
X66000000Y-72700000D03*
X66000000Y-75240000D03*
X66000000Y-77780000D03*
X66000000Y-80320000D03*
X66000000Y-82860000D03*
X66000000Y-86924000D03*
X66000000Y-89464000D03*
X66000000Y-92004000D03*
X66000000Y-94544000D03*
X66000000Y-97084000D03*
X66000000Y-99624000D03*
X66000000Y-102164000D03*
X66000000Y-104704000D03*
X66000000Y-109784000D03*
X66000000Y-112324000D03*
X66000000Y-114864000D03*
X66000000Y-117404000D03*
X66000000Y-119944000D03*
X66000000Y-122484000D03*
X66000000Y-125024000D03*
X66000000Y-127564000D03*
D21*
X92825000Y-88100000D02*
X110100000Y-88100000D01*
X90025000Y-90900000D02*
X92825000Y-88100000D01*
D22*
X110300000Y-87900000D02*
X110300000Y-84100000D01*
D21*
X110100000Y-88100000D02*
X110300000Y-87900000D01*
D22*
X110300000Y-137900000D02*
X110300000Y-87900000D01*
D21*
X93300000Y-104300000D02*
X93300000Y-104520000D01*
X93400000Y-104000000D02*
X93500000Y-104100000D01*
X93500000Y-104100000D02*
X93300000Y-104300000D01*
X93400000Y-92200000D02*
X93400000Y-104000000D01*
X90025000Y-90900000D02*
X92100000Y-90900000D01*
X92100000Y-90900000D02*
X93400000Y-92200000D01*
X93300000Y-104520000D02*
X90200000Y-107620000D01*
X90200000Y-106400000D02*
X90200000Y-107620000D01*
X89700000Y-105500000D02*
X90400000Y-106200000D01*
X90400000Y-106200000D02*
X90200000Y-106400000D01*
X79720000Y-105500000D02*
X89700000Y-105500000D01*
X77600000Y-107620000D02*
X79720000Y-105500000D01*
X90025000Y-89825000D02*
X90025000Y-90900000D01*
X88500000Y-88300000D02*
X90025000Y-89825000D01*
X80000000Y-88300000D02*
X88500000Y-88300000D01*
X77400000Y-90900000D02*
X80000000Y-88300000D01*
X103300000Y-70900000D02*
X108950000Y-70900000D01*
X108950000Y-70900000D02*
X108950000Y-80550000D01*
X103200000Y-70800000D02*
X103300000Y-70900000D01*
X108950000Y-55850000D02*
X108950000Y-70900000D01*
X109000000Y-55800000D02*
X108950000Y-55850000D01*
X109000000Y-55400000D02*
X109000000Y-55800000D01*
X104100000Y-75700000D02*
X108950000Y-80550000D01*
X108950000Y-80550000D02*
X110244000Y-81844000D01*
X107100000Y-53500000D02*
X109000000Y-55400000D01*
X102100000Y-53500000D02*
X107100000Y-53500000D01*
X102100000Y-53500000D02*
X102400000Y-53500000D01*
X89600000Y-53500000D02*
X102100000Y-53500000D01*
X102400000Y-53500000D02*
X103400000Y-54500000D01*
X103400000Y-54500000D02*
X103400000Y-56000000D01*
X89600000Y-53500000D02*
X90425000Y-54325000D01*
X90425000Y-54325000D02*
X90425000Y-56000000D01*
X80600000Y-53500000D02*
X89600000Y-53500000D01*
X78125000Y-56000000D02*
X80600000Y-53525000D01*
X80600000Y-53525000D02*
X80600000Y-53500000D01*
X104100000Y-71700000D02*
X104100000Y-73000000D01*
X103200000Y-70800000D02*
X104100000Y-71700000D01*
X90100000Y-70800000D02*
X103200000Y-70800000D01*
X90525000Y-71375000D02*
X90525000Y-73000000D01*
X80200000Y-70800000D02*
X90100000Y-70800000D01*
X90100000Y-70800000D02*
X90600000Y-71300000D01*
X78000000Y-73000000D02*
X80200000Y-70800000D01*
X90600000Y-71300000D02*
X90525000Y-71375000D01*
X110244000Y-81844000D02*
X114260000Y-81844000D01*
X94920000Y-107620000D02*
X96680000Y-105860000D01*
X90200000Y-107620000D02*
X94920000Y-107620000D01*
X87200000Y-116120000D02*
X87200000Y-120480000D01*
X84200000Y-113120000D02*
X87200000Y-116120000D01*
X84200000Y-110320000D02*
X84200000Y-113120000D01*
X84200000Y-107620000D02*
X84200000Y-110320000D01*
X90000000Y-107200000D02*
X90000000Y-109900000D01*
X71600000Y-112820000D02*
X74637500Y-115857500D01*
X74637500Y-115857500D02*
X74637500Y-120480000D01*
X71600000Y-110320000D02*
X71600000Y-112820000D01*
X71600000Y-107620000D02*
X71600000Y-110320000D01*
X77600000Y-110220000D02*
X77700000Y-110320000D01*
X77600000Y-107620000D02*
X77600000Y-110220000D01*
X84000000Y-95300000D02*
X87000000Y-98300000D01*
X84000000Y-93520000D02*
X84000000Y-95300000D01*
X87000000Y-98300000D02*
X87000000Y-103680000D01*
X84025000Y-93495000D02*
X84000000Y-93520000D01*
X84025000Y-90900000D02*
X84025000Y-93495000D01*
X90025000Y-93495000D02*
X90000000Y-93520000D01*
X90025000Y-90900000D02*
X90025000Y-93495000D01*
X74400000Y-98800000D02*
X74400000Y-103760000D01*
X71400000Y-95800000D02*
X74400000Y-98800000D01*
X71400000Y-93600000D02*
X71400000Y-95800000D01*
X71400000Y-90900000D02*
X71400000Y-93600000D01*
X77400000Y-90900000D02*
X77400000Y-93580000D01*
X101100000Y-80700000D02*
X101100000Y-85860000D01*
X98100000Y-77700000D02*
X101100000Y-80700000D01*
X98100000Y-75700000D02*
X98100000Y-77700000D01*
X98100000Y-73000000D02*
X98100000Y-75700000D01*
X104100000Y-73000000D02*
X104100000Y-75700000D01*
X87500000Y-81200000D02*
X87500000Y-85860000D01*
X84500000Y-78200000D02*
X87500000Y-81200000D01*
X84500000Y-75700000D02*
X84500000Y-78200000D01*
X84525000Y-75675000D02*
X84500000Y-75700000D01*
X84525000Y-73000000D02*
X84525000Y-75675000D01*
X90525000Y-75675000D02*
X90500000Y-75700000D01*
X90525000Y-73000000D02*
X90525000Y-75675000D01*
X75000000Y-80200000D02*
X75000000Y-85880000D01*
X72000000Y-77200000D02*
X75000000Y-80200000D01*
X72000000Y-75720000D02*
X72000000Y-77200000D01*
X72000000Y-73000000D02*
X72000000Y-75720000D01*
X78000000Y-73000000D02*
X78000000Y-75720000D01*
X100500000Y-64300000D02*
X100500000Y-68960000D01*
X97500000Y-61300000D02*
X100500000Y-64300000D01*
X97500000Y-58820000D02*
X97500000Y-61300000D01*
X97400000Y-58720000D02*
X97500000Y-58820000D01*
X97400000Y-56000000D02*
X97400000Y-58720000D01*
X103400000Y-58700000D02*
X103500000Y-58800000D01*
X103400000Y-56000000D02*
X103400000Y-58700000D01*
X87500000Y-63500000D02*
X87500000Y-68940000D01*
X84500000Y-60500000D02*
X87500000Y-63500000D01*
X84500000Y-58800000D02*
X84500000Y-60500000D01*
X84425000Y-58725000D02*
X84500000Y-58800000D01*
X84425000Y-56000000D02*
X84425000Y-58725000D01*
X90425000Y-56000000D02*
X90425000Y-58725000D01*
X90425000Y-58725000D02*
X90500000Y-58800000D01*
X75200000Y-62800000D02*
X75200000Y-68960000D01*
X72200000Y-59800000D02*
X75200000Y-62800000D01*
X72200000Y-58800000D02*
X72200000Y-59800000D01*
X78200000Y-56075000D02*
X78125000Y-56000000D01*
X78200000Y-58800000D02*
X78200000Y-56075000D01*
X72200000Y-56075000D02*
X72125000Y-56000000D01*
X72200000Y-58800000D02*
X72200000Y-56075000D01*
D22*
X113356000Y-81844000D02*
X114260000Y-81844000D01*
X112000000Y-82400000D02*
X112800000Y-82400000D01*
X112800000Y-82400000D02*
X113356000Y-81844000D01*
X108000000Y-140200000D02*
X110300000Y-137900000D01*
X92200000Y-140200000D02*
X108000000Y-140200000D01*
X88700000Y-143700000D02*
X92200000Y-140200000D01*
X88700000Y-146980000D02*
X88700000Y-143700000D01*
X110300000Y-84100000D02*
X112000000Y-82400000D01*
X87090000Y-148590000D02*
X88700000Y-146980000D01*
X91440000Y-152940000D02*
X91440000Y-154620000D01*
X85090000Y-148590000D02*
X87090000Y-148590000D01*
X87090000Y-148590000D02*
X91440000Y-152940000D01*
G04 #@! TA.AperFunction,Conductor*
G36*
X118045788Y-43599454D02*
G01*
X118126570Y-43653430D01*
X118180546Y-43734212D01*
X118199500Y-43829500D01*
X118199500Y-167050500D01*
X118180546Y-167145788D01*
X118126570Y-167226570D01*
X118045788Y-167280546D01*
X117950500Y-167299500D01*
X61354500Y-167299500D01*
X61259212Y-167280546D01*
X61178430Y-167226570D01*
X61124454Y-167145788D01*
X61105500Y-167050500D01*
X61105500Y-163321287D01*
X63749500Y-163321287D01*
X63781162Y-163561790D01*
X63781163Y-163561795D01*
X63843940Y-163796082D01*
X63843948Y-163796105D01*
X63936770Y-164020201D01*
X63936778Y-164020217D01*
X64058058Y-164230279D01*
X64058064Y-164230289D01*
X64205729Y-164422731D01*
X64205738Y-164422741D01*
X64377258Y-164594261D01*
X64377268Y-164594270D01*
X64498491Y-164687287D01*
X64569711Y-164741936D01*
X64569720Y-164741941D01*
X64779782Y-164863221D01*
X64779798Y-164863229D01*
X64919858Y-164921242D01*
X65003900Y-164956054D01*
X65003911Y-164956057D01*
X65003917Y-164956059D01*
X65187021Y-165005121D01*
X65238211Y-165018838D01*
X65478712Y-165050500D01*
X65721288Y-165050500D01*
X65961789Y-165018838D01*
X66169323Y-164963229D01*
X66196082Y-164956059D01*
X66196084Y-164956058D01*
X66196100Y-164956054D01*
X66347766Y-164893231D01*
X66420201Y-164863229D01*
X66420206Y-164863226D01*
X66420212Y-164863224D01*
X66630289Y-164741936D01*
X66822738Y-164594265D01*
X66994265Y-164422738D01*
X67141936Y-164230289D01*
X67263224Y-164020212D01*
X67356054Y-163796100D01*
X67418838Y-163561789D01*
X67437335Y-163421287D01*
X112849500Y-163421287D01*
X112881162Y-163661790D01*
X112881163Y-163661795D01*
X112943940Y-163896082D01*
X112943948Y-163896105D01*
X113036770Y-164120201D01*
X113036778Y-164120217D01*
X113158058Y-164330279D01*
X113158064Y-164330289D01*
X113305729Y-164522731D01*
X113305738Y-164522741D01*
X113477258Y-164694261D01*
X113477268Y-164694270D01*
X113598491Y-164787287D01*
X113669711Y-164841936D01*
X113669720Y-164841941D01*
X113879782Y-164963221D01*
X113879798Y-164963229D01*
X114014050Y-165018837D01*
X114103900Y-165056054D01*
X114103911Y-165056057D01*
X114103917Y-165056059D01*
X114287021Y-165105121D01*
X114338211Y-165118838D01*
X114578712Y-165150500D01*
X114821288Y-165150500D01*
X115061789Y-165118838D01*
X115223275Y-165075567D01*
X115296082Y-165056059D01*
X115296084Y-165056058D01*
X115296100Y-165056054D01*
X115447766Y-164993231D01*
X115520201Y-164963229D01*
X115520206Y-164963226D01*
X115520212Y-164963224D01*
X115730289Y-164841936D01*
X115922738Y-164694265D01*
X116094265Y-164522738D01*
X116241936Y-164330289D01*
X116363224Y-164120212D01*
X116456054Y-163896100D01*
X116518838Y-163661789D01*
X116550500Y-163421288D01*
X116550500Y-163178712D01*
X116518838Y-162938211D01*
X116456054Y-162703900D01*
X116414630Y-162603894D01*
X116363229Y-162479798D01*
X116363221Y-162479782D01*
X116241941Y-162269720D01*
X116241935Y-162269710D01*
X116094270Y-162077268D01*
X116094261Y-162077258D01*
X115922741Y-161905738D01*
X115922731Y-161905729D01*
X115730289Y-161758064D01*
X115730279Y-161758058D01*
X115520217Y-161636778D01*
X115520201Y-161636770D01*
X115296105Y-161543948D01*
X115296103Y-161543947D01*
X115296100Y-161543946D01*
X115296096Y-161543945D01*
X115296082Y-161543940D01*
X115061795Y-161481163D01*
X115061790Y-161481162D01*
X114821288Y-161449500D01*
X114578712Y-161449500D01*
X114338209Y-161481162D01*
X114338204Y-161481163D01*
X114103917Y-161543940D01*
X114103894Y-161543948D01*
X113879798Y-161636770D01*
X113879782Y-161636778D01*
X113669720Y-161758058D01*
X113669710Y-161758064D01*
X113477268Y-161905729D01*
X113477258Y-161905738D01*
X113305738Y-162077258D01*
X113305729Y-162077268D01*
X113158064Y-162269710D01*
X113158058Y-162269720D01*
X113036778Y-162479782D01*
X113036770Y-162479798D01*
X112943948Y-162703894D01*
X112943940Y-162703917D01*
X112881163Y-162938204D01*
X112881162Y-162938209D01*
X112849500Y-163178712D01*
X112849500Y-163421287D01*
X67437335Y-163421287D01*
X67450500Y-163321288D01*
X67450500Y-163078712D01*
X67418838Y-162838211D01*
X67356054Y-162603900D01*
X67321242Y-162519858D01*
X67263229Y-162379798D01*
X67263221Y-162379782D01*
X67141941Y-162169720D01*
X67141935Y-162169710D01*
X66994270Y-161977268D01*
X66994261Y-161977258D01*
X66822741Y-161805738D01*
X66822731Y-161805729D01*
X66630289Y-161658064D01*
X66630279Y-161658058D01*
X66420217Y-161536778D01*
X66420201Y-161536770D01*
X66196105Y-161443948D01*
X66196103Y-161443947D01*
X66196100Y-161443946D01*
X66196096Y-161443945D01*
X66196082Y-161443940D01*
X65961795Y-161381163D01*
X65961790Y-161381162D01*
X65721288Y-161349500D01*
X65478712Y-161349500D01*
X65238209Y-161381162D01*
X65238204Y-161381163D01*
X65003917Y-161443940D01*
X65003894Y-161443948D01*
X64779798Y-161536770D01*
X64779782Y-161536778D01*
X64569720Y-161658058D01*
X64569710Y-161658064D01*
X64377268Y-161805729D01*
X64377258Y-161805738D01*
X64205738Y-161977258D01*
X64205729Y-161977268D01*
X64058064Y-162169710D01*
X64058058Y-162169720D01*
X63936778Y-162379782D01*
X63936770Y-162379798D01*
X63843948Y-162603894D01*
X63843940Y-162603917D01*
X63781163Y-162838204D01*
X63781162Y-162838209D01*
X63749500Y-163078712D01*
X63749500Y-163321287D01*
X61105500Y-163321287D01*
X61105500Y-157490000D01*
X77334700Y-157490000D01*
X77353866Y-157721308D01*
X77353868Y-157721315D01*
X77406071Y-157927455D01*
X77410843Y-157946300D01*
X77414455Y-157954534D01*
X77504074Y-158158846D01*
X77636654Y-158361776D01*
X77634511Y-158363175D01*
X77670262Y-158434429D01*
X77677285Y-158531330D01*
X77646691Y-158623542D01*
X77583137Y-158697027D01*
X77579419Y-158699865D01*
X77482459Y-158772449D01*
X77482453Y-158772455D01*
X77396204Y-158887669D01*
X77345908Y-159022518D01*
X77339500Y-159082123D01*
X77339500Y-160977865D01*
X77339500Y-160977868D01*
X77339501Y-160977872D01*
X77339632Y-160979090D01*
X77345908Y-161037480D01*
X77345909Y-161037483D01*
X77396204Y-161172331D01*
X77482454Y-161287546D01*
X77597669Y-161373796D01*
X77732517Y-161424091D01*
X77792127Y-161430500D01*
X79687872Y-161430499D01*
X79747483Y-161424091D01*
X79882331Y-161373796D01*
X79997546Y-161287546D01*
X80083796Y-161172331D01*
X80134091Y-161037483D01*
X80140500Y-160977873D01*
X80140500Y-160532868D01*
X88569500Y-160532868D01*
X88569501Y-160532872D01*
X88571567Y-160552093D01*
X88575908Y-160592480D01*
X88575909Y-160592484D01*
X88609983Y-160683841D01*
X88626204Y-160727331D01*
X88712454Y-160842546D01*
X88827669Y-160928796D01*
X88962517Y-160979091D01*
X89022127Y-160985500D01*
X91317872Y-160985499D01*
X91377483Y-160979091D01*
X91512331Y-160928796D01*
X91627546Y-160842546D01*
X91713796Y-160727331D01*
X91764091Y-160592483D01*
X91770500Y-160532873D01*
X91770500Y-159385005D01*
X98724551Y-159385005D01*
X98744316Y-159636145D01*
X98803126Y-159881108D01*
X98803129Y-159881116D01*
X98899533Y-160113858D01*
X98899537Y-160113864D01*
X99031158Y-160328652D01*
X99031160Y-160328654D01*
X99031163Y-160328657D01*
X99031164Y-160328659D01*
X99194776Y-160520224D01*
X99279382Y-160592484D01*
X99386345Y-160683839D01*
X99386347Y-160683841D01*
X99558971Y-160789624D01*
X99601141Y-160815466D01*
X99833889Y-160911873D01*
X100078852Y-160970683D01*
X100150608Y-160976330D01*
X100329995Y-160990449D01*
X100330000Y-160990449D01*
X100330005Y-160990449D01*
X100489893Y-160977865D01*
X100581148Y-160970683D01*
X100826111Y-160911873D01*
X101058859Y-160815466D01*
X101202682Y-160727331D01*
X101273652Y-160683841D01*
X101273654Y-160683839D01*
X101273653Y-160683839D01*
X101273659Y-160683836D01*
X101465224Y-160520224D01*
X101628836Y-160328659D01*
X101628839Y-160328653D01*
X101628841Y-160328652D01*
X101685633Y-160235974D01*
X101760466Y-160113859D01*
X101856873Y-159881111D01*
X101915683Y-159636148D01*
X101935449Y-159385000D01*
X101915683Y-159133852D01*
X101856873Y-158888889D01*
X101760466Y-158656141D01*
X101734624Y-158613971D01*
X101628841Y-158441347D01*
X101628839Y-158441345D01*
X101628836Y-158441341D01*
X101465224Y-158249776D01*
X101273659Y-158086164D01*
X101273657Y-158086163D01*
X101273654Y-158086160D01*
X101273652Y-158086158D01*
X101058864Y-157954537D01*
X101058858Y-157954533D01*
X100826116Y-157858129D01*
X100826108Y-157858126D01*
X100581145Y-157799316D01*
X100330005Y-157779551D01*
X100329995Y-157779551D01*
X100078854Y-157799316D01*
X99833891Y-157858126D01*
X99833883Y-157858129D01*
X99601141Y-157954533D01*
X99601135Y-157954537D01*
X99386347Y-158086158D01*
X99386345Y-158086160D01*
X99194779Y-158249773D01*
X99194773Y-158249779D01*
X99031160Y-158441345D01*
X99031158Y-158441347D01*
X98899537Y-158656135D01*
X98899533Y-158656141D01*
X98803129Y-158888883D01*
X98803126Y-158888891D01*
X98744316Y-159133854D01*
X98724551Y-159384994D01*
X98724551Y-159385005D01*
X91770500Y-159385005D01*
X91770499Y-158237128D01*
X91764091Y-158177517D01*
X91713796Y-158042669D01*
X91627546Y-157927454D01*
X91512331Y-157841204D01*
X91400026Y-157799317D01*
X91377481Y-157790908D01*
X91317873Y-157784500D01*
X89022134Y-157784500D01*
X89022130Y-157784500D01*
X89022128Y-157784501D01*
X89009314Y-157785878D01*
X88962519Y-157790908D01*
X88962515Y-157790909D01*
X88827670Y-157841203D01*
X88712455Y-157927453D01*
X88712453Y-157927455D01*
X88626204Y-158042669D01*
X88575908Y-158177518D01*
X88569500Y-158237123D01*
X88569500Y-160532865D01*
X88569500Y-160532868D01*
X80140500Y-160532868D01*
X80140499Y-159082128D01*
X80134091Y-159022517D01*
X80083796Y-158887669D01*
X79997546Y-158772454D01*
X79997539Y-158772449D01*
X79900581Y-158699866D01*
X79835658Y-158627588D01*
X79803336Y-158535967D01*
X79808537Y-158438951D01*
X79844957Y-158362828D01*
X79843346Y-158361776D01*
X79898360Y-158277568D01*
X79975924Y-158158849D01*
X80069157Y-157946300D01*
X80126134Y-157721305D01*
X80145300Y-157490000D01*
X80126134Y-157258695D01*
X80125925Y-157257868D01*
X83589500Y-157257868D01*
X83589501Y-157257872D01*
X83591567Y-157277093D01*
X83595908Y-157317480D01*
X83595909Y-157317483D01*
X83646204Y-157452331D01*
X83732454Y-157567546D01*
X83847669Y-157653796D01*
X83982517Y-157704091D01*
X84042127Y-157710500D01*
X86137872Y-157710499D01*
X86197483Y-157704091D01*
X86332331Y-157653796D01*
X86447546Y-157567546D01*
X86533796Y-157452331D01*
X86584091Y-157317483D01*
X86590500Y-157257873D01*
X86590499Y-155162128D01*
X86584091Y-155102517D01*
X86555929Y-155027011D01*
X86540390Y-154931112D01*
X86555931Y-154852983D01*
X86584091Y-154777483D01*
X86584091Y-154777480D01*
X86590500Y-154717873D01*
X86590499Y-152622128D01*
X86584091Y-152562517D01*
X86555929Y-152487011D01*
X86540390Y-152391112D01*
X86555931Y-152312983D01*
X86584091Y-152237483D01*
X86584091Y-152237480D01*
X86590500Y-152177873D01*
X86590499Y-150082128D01*
X86584091Y-150022517D01*
X86533796Y-149887669D01*
X86447546Y-149772454D01*
X86332331Y-149686204D01*
X86252117Y-149656286D01*
X86197481Y-149635908D01*
X86137873Y-149629500D01*
X84042134Y-149629500D01*
X84042130Y-149629500D01*
X84042128Y-149629501D01*
X84029314Y-149630878D01*
X83982519Y-149635908D01*
X83982515Y-149635909D01*
X83847670Y-149686203D01*
X83732455Y-149772453D01*
X83732453Y-149772455D01*
X83646204Y-149887669D01*
X83595908Y-150022518D01*
X83589500Y-150082123D01*
X83589500Y-152177865D01*
X83589500Y-152177868D01*
X83589501Y-152177872D01*
X83591567Y-152197093D01*
X83595908Y-152237480D01*
X83595909Y-152237485D01*
X83624069Y-152312984D01*
X83639609Y-152408888D01*
X83624069Y-152487013D01*
X83595909Y-152562514D01*
X83589500Y-152622123D01*
X83589500Y-154717865D01*
X83589500Y-154717868D01*
X83589501Y-154717872D01*
X83591567Y-154737093D01*
X83595908Y-154777480D01*
X83595909Y-154777485D01*
X83624069Y-154852984D01*
X83639609Y-154948888D01*
X83624069Y-155027013D01*
X83595909Y-155102514D01*
X83589500Y-155162123D01*
X83589500Y-157257865D01*
X83589500Y-157257868D01*
X80125925Y-157257868D01*
X80069157Y-157033700D01*
X79975924Y-156821151D01*
X79848979Y-156626847D01*
X79848977Y-156626844D01*
X79691785Y-156456088D01*
X79691779Y-156456083D01*
X79508628Y-156313531D01*
X79304512Y-156203068D01*
X79304507Y-156203066D01*
X79304503Y-156203064D01*
X79084981Y-156127702D01*
X79084978Y-156127701D01*
X79084974Y-156127700D01*
X78856049Y-156089500D01*
X78623951Y-156089500D01*
X78395025Y-156127700D01*
X78395019Y-156127701D01*
X78395019Y-156127702D01*
X78175497Y-156203064D01*
X78175494Y-156203065D01*
X78175487Y-156203068D01*
X77971371Y-156313531D01*
X77788220Y-156456083D01*
X77788214Y-156456088D01*
X77631022Y-156626844D01*
X77631019Y-156626848D01*
X77504074Y-156821153D01*
X77410842Y-157033702D01*
X77410841Y-157033706D01*
X77353868Y-157258684D01*
X77353866Y-157258691D01*
X77334700Y-157490000D01*
X61105500Y-157490000D01*
X61105500Y-154940000D01*
X69714700Y-154940000D01*
X69733866Y-155171308D01*
X69733868Y-155171315D01*
X69790841Y-155396293D01*
X69790842Y-155396297D01*
X69884074Y-155608846D01*
X70011019Y-155803151D01*
X70011022Y-155803155D01*
X70168214Y-155973911D01*
X70168220Y-155973916D01*
X70316722Y-156089500D01*
X70351374Y-156116470D01*
X70372129Y-156127702D01*
X70555487Y-156226931D01*
X70555489Y-156226931D01*
X70555497Y-156226936D01*
X70775019Y-156302298D01*
X71003951Y-156340500D01*
X71236049Y-156340500D01*
X71464981Y-156302298D01*
X71684503Y-156226936D01*
X71888626Y-156116470D01*
X72071784Y-155973913D01*
X72228979Y-155803153D01*
X72355924Y-155608849D01*
X72449157Y-155396300D01*
X72506134Y-155171305D01*
X72525300Y-154940000D01*
X72506134Y-154708695D01*
X72449157Y-154483700D01*
X72355924Y-154271151D01*
X72314756Y-154208138D01*
X72223346Y-154068224D01*
X72225489Y-154066823D01*
X72189740Y-153995583D01*
X72182712Y-153898682D01*
X72213302Y-153806468D01*
X72276851Y-153732980D01*
X72280494Y-153730199D01*
X72377546Y-153657546D01*
X72463796Y-153542331D01*
X72514091Y-153407483D01*
X72520500Y-153347873D01*
X72520499Y-151452128D01*
X72514091Y-151392517D01*
X72463796Y-151257669D01*
X72377546Y-151142454D01*
X72262331Y-151056204D01*
X72182117Y-151026286D01*
X72127481Y-151005908D01*
X72067873Y-150999500D01*
X70172134Y-150999500D01*
X70172130Y-150999500D01*
X70172128Y-150999501D01*
X70159314Y-151000878D01*
X70112519Y-151005908D01*
X70112515Y-151005909D01*
X69977670Y-151056203D01*
X69862455Y-151142453D01*
X69862453Y-151142455D01*
X69776204Y-151257669D01*
X69725908Y-151392518D01*
X69719500Y-151452123D01*
X69719500Y-153347865D01*
X69719500Y-153347868D01*
X69719501Y-153347872D01*
X69721567Y-153367093D01*
X69725908Y-153407480D01*
X69725909Y-153407483D01*
X69776204Y-153542331D01*
X69862454Y-153657546D01*
X69959416Y-153730132D01*
X69959418Y-153730133D01*
X70024341Y-153802411D01*
X70056663Y-153894032D01*
X70051462Y-153991047D01*
X70015041Y-154067170D01*
X70016654Y-154068224D01*
X69884074Y-154271153D01*
X69790842Y-154483702D01*
X69790841Y-154483706D01*
X69733868Y-154708684D01*
X69733866Y-154708691D01*
X69714700Y-154940000D01*
X61105500Y-154940000D01*
X61105500Y-147320000D01*
X69714700Y-147320000D01*
X69733866Y-147551308D01*
X69733868Y-147551315D01*
X69790841Y-147776293D01*
X69790842Y-147776297D01*
X69884074Y-147988846D01*
X70011019Y-148183151D01*
X70011022Y-148183155D01*
X70113145Y-148294090D01*
X70168216Y-148353913D01*
X70351374Y-148496470D01*
X70448863Y-148549228D01*
X70555487Y-148606931D01*
X70555489Y-148606931D01*
X70555497Y-148606936D01*
X70775019Y-148682298D01*
X71003951Y-148720500D01*
X71236049Y-148720500D01*
X71464981Y-148682298D01*
X71684503Y-148606936D01*
X71888626Y-148496470D01*
X72071784Y-148353913D01*
X72228979Y-148183153D01*
X72355924Y-147988849D01*
X72449157Y-147776300D01*
X72506134Y-147551305D01*
X72525300Y-147320000D01*
X72506894Y-147097868D01*
X83589500Y-147097868D01*
X83589501Y-147097872D01*
X83591567Y-147117093D01*
X83595908Y-147157480D01*
X83595909Y-147157483D01*
X83646204Y-147292331D01*
X83732454Y-147407546D01*
X83847669Y-147493796D01*
X83982517Y-147544091D01*
X84042127Y-147550500D01*
X86137872Y-147550499D01*
X86197483Y-147544091D01*
X86332331Y-147493796D01*
X86447546Y-147407546D01*
X86533796Y-147292331D01*
X86584091Y-147157483D01*
X86590500Y-147097873D01*
X86590500Y-147000005D01*
X90134532Y-147000005D01*
X90154363Y-147226679D01*
X90154365Y-147226694D01*
X90213261Y-147446496D01*
X90213262Y-147446499D01*
X90309428Y-147652727D01*
X90309436Y-147652741D01*
X90439949Y-147839134D01*
X90439953Y-147839139D01*
X90600861Y-148000047D01*
X90600864Y-148000049D01*
X90600865Y-148000050D01*
X90787258Y-148130563D01*
X90787262Y-148130565D01*
X90787266Y-148130568D01*
X90993504Y-148226739D01*
X91213308Y-148285635D01*
X91232984Y-148287356D01*
X91439994Y-148305468D01*
X91440000Y-148305468D01*
X91440006Y-148305468D01*
X91619668Y-148289749D01*
X91666692Y-148285635D01*
X91886496Y-148226739D01*
X92092734Y-148130568D01*
X92279139Y-148000047D01*
X92440047Y-147839139D01*
X92506031Y-147744902D01*
X92576211Y-147677719D01*
X92666760Y-147642506D01*
X92763892Y-147644625D01*
X92852819Y-147683753D01*
X92913968Y-147744902D01*
X92979953Y-147839139D01*
X93140861Y-148000047D01*
X93140864Y-148000049D01*
X93140865Y-148000050D01*
X93327258Y-148130563D01*
X93327262Y-148130565D01*
X93327266Y-148130568D01*
X93533504Y-148226739D01*
X93753308Y-148285635D01*
X93772984Y-148287356D01*
X93979994Y-148305468D01*
X93980000Y-148305468D01*
X93980006Y-148305468D01*
X94159668Y-148289749D01*
X94206692Y-148285635D01*
X94426496Y-148226739D01*
X94632734Y-148130568D01*
X94819139Y-148000047D01*
X94980047Y-147839139D01*
X95046031Y-147744902D01*
X95116211Y-147677719D01*
X95206760Y-147642506D01*
X95303892Y-147644625D01*
X95392819Y-147683753D01*
X95453968Y-147744902D01*
X95519953Y-147839139D01*
X95680861Y-148000047D01*
X95680864Y-148000049D01*
X95680865Y-148000050D01*
X95867258Y-148130563D01*
X95867262Y-148130565D01*
X95867266Y-148130568D01*
X96073504Y-148226739D01*
X96293308Y-148285635D01*
X96312984Y-148287356D01*
X96519994Y-148305468D01*
X96520000Y-148305468D01*
X96520006Y-148305468D01*
X96699668Y-148289749D01*
X96746692Y-148285635D01*
X96966496Y-148226739D01*
X97172734Y-148130568D01*
X97359139Y-148000047D01*
X97520047Y-147839139D01*
X97586031Y-147744902D01*
X97656211Y-147677719D01*
X97746760Y-147642506D01*
X97843892Y-147644625D01*
X97932819Y-147683753D01*
X97993968Y-147744902D01*
X98059953Y-147839139D01*
X98220861Y-148000047D01*
X98220864Y-148000049D01*
X98220865Y-148000050D01*
X98407258Y-148130563D01*
X98407262Y-148130565D01*
X98407266Y-148130568D01*
X98613504Y-148226739D01*
X98833308Y-148285635D01*
X98852984Y-148287356D01*
X99059994Y-148305468D01*
X99060000Y-148305468D01*
X99060006Y-148305468D01*
X99239668Y-148289749D01*
X99286692Y-148285635D01*
X99506496Y-148226739D01*
X99712734Y-148130568D01*
X99899139Y-148000047D01*
X100060047Y-147839139D01*
X100126031Y-147744902D01*
X100196211Y-147677719D01*
X100286760Y-147642506D01*
X100383892Y-147644625D01*
X100472819Y-147683753D01*
X100533968Y-147744902D01*
X100599953Y-147839139D01*
X100760861Y-148000047D01*
X100760864Y-148000049D01*
X100760865Y-148000050D01*
X100947258Y-148130563D01*
X100947262Y-148130565D01*
X100947266Y-148130568D01*
X101153504Y-148226739D01*
X101373308Y-148285635D01*
X101392984Y-148287356D01*
X101599994Y-148305468D01*
X101600000Y-148305468D01*
X101600006Y-148305468D01*
X101779668Y-148289749D01*
X101826692Y-148285635D01*
X102046496Y-148226739D01*
X102252734Y-148130568D01*
X102439139Y-148000047D01*
X102600047Y-147839139D01*
X102666031Y-147744902D01*
X102736211Y-147677719D01*
X102826760Y-147642506D01*
X102923892Y-147644625D01*
X103012819Y-147683753D01*
X103073968Y-147744902D01*
X103139953Y-147839139D01*
X103300861Y-148000047D01*
X103300864Y-148000049D01*
X103300865Y-148000050D01*
X103487258Y-148130563D01*
X103487262Y-148130565D01*
X103487266Y-148130568D01*
X103693504Y-148226739D01*
X103913308Y-148285635D01*
X103932984Y-148287356D01*
X104139994Y-148305468D01*
X104140000Y-148305468D01*
X104140006Y-148305468D01*
X104319668Y-148289749D01*
X104366692Y-148285635D01*
X104586496Y-148226739D01*
X104792734Y-148130568D01*
X104979139Y-148000047D01*
X105140047Y-147839139D01*
X105206031Y-147744902D01*
X105276211Y-147677719D01*
X105366760Y-147642506D01*
X105463892Y-147644625D01*
X105552819Y-147683753D01*
X105613968Y-147744902D01*
X105679953Y-147839139D01*
X105840861Y-148000047D01*
X105840864Y-148000049D01*
X105840865Y-148000050D01*
X106027258Y-148130563D01*
X106027262Y-148130565D01*
X106027266Y-148130568D01*
X106233504Y-148226739D01*
X106453308Y-148285635D01*
X106472984Y-148287356D01*
X106679994Y-148305468D01*
X106680000Y-148305468D01*
X106680006Y-148305468D01*
X106859668Y-148289749D01*
X106906692Y-148285635D01*
X107126496Y-148226739D01*
X107332734Y-148130568D01*
X107519139Y-148000047D01*
X107680047Y-147839139D01*
X107746031Y-147744902D01*
X107816211Y-147677719D01*
X107906760Y-147642506D01*
X108003892Y-147644625D01*
X108092819Y-147683753D01*
X108153968Y-147744902D01*
X108219953Y-147839139D01*
X108380861Y-148000047D01*
X108380864Y-148000049D01*
X108380865Y-148000050D01*
X108567258Y-148130563D01*
X108567262Y-148130565D01*
X108567266Y-148130568D01*
X108773504Y-148226739D01*
X108993308Y-148285635D01*
X109012984Y-148287356D01*
X109219994Y-148305468D01*
X109220000Y-148305468D01*
X109220006Y-148305468D01*
X109399668Y-148289749D01*
X109446692Y-148285635D01*
X109666496Y-148226739D01*
X109872734Y-148130568D01*
X110059139Y-148000047D01*
X110220047Y-147839139D01*
X110286031Y-147744902D01*
X110356211Y-147677719D01*
X110446760Y-147642506D01*
X110543892Y-147644625D01*
X110632819Y-147683753D01*
X110693968Y-147744902D01*
X110759953Y-147839139D01*
X110920861Y-148000047D01*
X110920864Y-148000049D01*
X110920865Y-148000050D01*
X111107258Y-148130563D01*
X111107262Y-148130565D01*
X111107266Y-148130568D01*
X111313504Y-148226739D01*
X111533308Y-148285635D01*
X111552984Y-148287356D01*
X111759994Y-148305468D01*
X111760000Y-148305468D01*
X111760006Y-148305468D01*
X111939668Y-148289749D01*
X111986692Y-148285635D01*
X112206496Y-148226739D01*
X112412734Y-148130568D01*
X112599139Y-148000047D01*
X112646584Y-147952601D01*
X112727362Y-147898627D01*
X112822650Y-147879672D01*
X112917938Y-147898625D01*
X112998720Y-147952601D01*
X113052697Y-148033382D01*
X113055941Y-148041627D01*
X113056204Y-148042331D01*
X113142454Y-148157546D01*
X113257669Y-148243796D01*
X113392517Y-148294091D01*
X113452127Y-148300500D01*
X115147872Y-148300499D01*
X115207483Y-148294091D01*
X115342331Y-148243796D01*
X115457546Y-148157546D01*
X115543796Y-148042331D01*
X115594091Y-147907483D01*
X115600500Y-147847873D01*
X115600499Y-146152128D01*
X115594091Y-146092517D01*
X115543796Y-145957669D01*
X115457546Y-145842454D01*
X115342331Y-145756204D01*
X115230155Y-145714365D01*
X115207481Y-145705908D01*
X115147873Y-145699500D01*
X113452134Y-145699500D01*
X113452130Y-145699500D01*
X113452128Y-145699501D01*
X113439314Y-145700878D01*
X113392519Y-145705908D01*
X113392515Y-145705909D01*
X113257670Y-145756203D01*
X113142455Y-145842453D01*
X113142453Y-145842455D01*
X113056202Y-145957671D01*
X113055952Y-145958344D01*
X113054946Y-145959971D01*
X113047670Y-145973298D01*
X113046955Y-145972907D01*
X113004893Y-146041001D01*
X112926090Y-146097826D01*
X112831539Y-146120168D01*
X112735635Y-146104627D01*
X112652978Y-146053568D01*
X112646610Y-146047424D01*
X112599139Y-145999953D01*
X112599135Y-145999950D01*
X112599134Y-145999949D01*
X112412741Y-145869436D01*
X112412727Y-145869428D01*
X112206499Y-145773262D01*
X112206496Y-145773261D01*
X111986694Y-145714365D01*
X111986679Y-145714363D01*
X111760006Y-145694532D01*
X111759994Y-145694532D01*
X111533320Y-145714363D01*
X111533305Y-145714365D01*
X111313503Y-145773261D01*
X111313500Y-145773262D01*
X111107272Y-145869428D01*
X111107258Y-145869436D01*
X110920865Y-145999949D01*
X110759949Y-146160865D01*
X110693969Y-146255096D01*
X110623788Y-146322280D01*
X110533239Y-146357493D01*
X110436107Y-146355374D01*
X110347180Y-146316245D01*
X110286031Y-146255096D01*
X110220050Y-146160865D01*
X110220049Y-146160864D01*
X110220047Y-146160861D01*
X110059139Y-145999953D01*
X110059135Y-145999950D01*
X110059134Y-145999949D01*
X109872741Y-145869436D01*
X109872727Y-145869428D01*
X109666499Y-145773262D01*
X109666496Y-145773261D01*
X109446694Y-145714365D01*
X109446679Y-145714363D01*
X109220006Y-145694532D01*
X109219994Y-145694532D01*
X108993320Y-145714363D01*
X108993305Y-145714365D01*
X108773503Y-145773261D01*
X108773500Y-145773262D01*
X108567272Y-145869428D01*
X108567258Y-145869436D01*
X108380865Y-145999949D01*
X108219949Y-146160865D01*
X108153969Y-146255096D01*
X108083788Y-146322280D01*
X107993239Y-146357493D01*
X107896107Y-146355374D01*
X107807180Y-146316245D01*
X107746031Y-146255096D01*
X107680050Y-146160865D01*
X107680049Y-146160864D01*
X107680047Y-146160861D01*
X107519139Y-145999953D01*
X107519135Y-145999950D01*
X107519134Y-145999949D01*
X107332741Y-145869436D01*
X107332727Y-145869428D01*
X107126499Y-145773262D01*
X107126496Y-145773261D01*
X106906694Y-145714365D01*
X106906679Y-145714363D01*
X106680006Y-145694532D01*
X106679994Y-145694532D01*
X106453320Y-145714363D01*
X106453305Y-145714365D01*
X106233503Y-145773261D01*
X106233500Y-145773262D01*
X106027272Y-145869428D01*
X106027258Y-145869436D01*
X105840865Y-145999949D01*
X105679949Y-146160865D01*
X105613969Y-146255096D01*
X105543788Y-146322280D01*
X105453239Y-146357493D01*
X105356107Y-146355374D01*
X105267180Y-146316245D01*
X105206031Y-146255096D01*
X105140050Y-146160865D01*
X105140049Y-146160864D01*
X105140047Y-146160861D01*
X104979139Y-145999953D01*
X104979135Y-145999950D01*
X104979134Y-145999949D01*
X104792741Y-145869436D01*
X104792727Y-145869428D01*
X104586499Y-145773262D01*
X104586496Y-145773261D01*
X104366694Y-145714365D01*
X104366679Y-145714363D01*
X104140006Y-145694532D01*
X104139994Y-145694532D01*
X103913320Y-145714363D01*
X103913305Y-145714365D01*
X103693503Y-145773261D01*
X103693500Y-145773262D01*
X103487272Y-145869428D01*
X103487258Y-145869436D01*
X103300865Y-145999949D01*
X103139949Y-146160865D01*
X103073969Y-146255096D01*
X103003788Y-146322280D01*
X102913239Y-146357493D01*
X102816107Y-146355374D01*
X102727180Y-146316245D01*
X102666031Y-146255096D01*
X102600050Y-146160865D01*
X102600049Y-146160864D01*
X102600047Y-146160861D01*
X102439139Y-145999953D01*
X102439135Y-145999950D01*
X102439134Y-145999949D01*
X102252741Y-145869436D01*
X102252727Y-145869428D01*
X102046499Y-145773262D01*
X102046496Y-145773261D01*
X101826694Y-145714365D01*
X101826679Y-145714363D01*
X101600006Y-145694532D01*
X101599994Y-145694532D01*
X101373320Y-145714363D01*
X101373305Y-145714365D01*
X101153503Y-145773261D01*
X101153500Y-145773262D01*
X100947272Y-145869428D01*
X100947258Y-145869436D01*
X100760865Y-145999949D01*
X100599949Y-146160865D01*
X100533969Y-146255096D01*
X100463788Y-146322280D01*
X100373239Y-146357493D01*
X100276107Y-146355374D01*
X100187180Y-146316245D01*
X100126031Y-146255096D01*
X100060050Y-146160865D01*
X100060049Y-146160864D01*
X100060047Y-146160861D01*
X99899139Y-145999953D01*
X99899135Y-145999950D01*
X99899134Y-145999949D01*
X99712741Y-145869436D01*
X99712727Y-145869428D01*
X99506499Y-145773262D01*
X99506496Y-145773261D01*
X99286694Y-145714365D01*
X99286679Y-145714363D01*
X99060006Y-145694532D01*
X99059994Y-145694532D01*
X98833320Y-145714363D01*
X98833305Y-145714365D01*
X98613503Y-145773261D01*
X98613500Y-145773262D01*
X98407272Y-145869428D01*
X98407258Y-145869436D01*
X98220865Y-145999949D01*
X98059949Y-146160865D01*
X97993969Y-146255096D01*
X97923788Y-146322280D01*
X97833239Y-146357493D01*
X97736107Y-146355374D01*
X97647180Y-146316245D01*
X97586031Y-146255096D01*
X97520050Y-146160865D01*
X97520049Y-146160864D01*
X97520047Y-146160861D01*
X97359139Y-145999953D01*
X97359135Y-145999950D01*
X97359134Y-145999949D01*
X97172741Y-145869436D01*
X97172727Y-145869428D01*
X96966499Y-145773262D01*
X96966496Y-145773261D01*
X96746694Y-145714365D01*
X96746679Y-145714363D01*
X96520006Y-145694532D01*
X96519994Y-145694532D01*
X96293320Y-145714363D01*
X96293305Y-145714365D01*
X96073503Y-145773261D01*
X96073500Y-145773262D01*
X95867272Y-145869428D01*
X95867258Y-145869436D01*
X95680865Y-145999949D01*
X95519949Y-146160865D01*
X95453969Y-146255096D01*
X95383788Y-146322280D01*
X95293239Y-146357493D01*
X95196107Y-146355374D01*
X95107180Y-146316245D01*
X95046031Y-146255096D01*
X94980050Y-146160865D01*
X94980049Y-146160864D01*
X94980047Y-146160861D01*
X94819139Y-145999953D01*
X94819135Y-145999950D01*
X94819134Y-145999949D01*
X94632741Y-145869436D01*
X94632727Y-145869428D01*
X94426499Y-145773262D01*
X94426496Y-145773261D01*
X94206694Y-145714365D01*
X94206679Y-145714363D01*
X93980006Y-145694532D01*
X93979994Y-145694532D01*
X93753320Y-145714363D01*
X93753305Y-145714365D01*
X93533503Y-145773261D01*
X93533500Y-145773262D01*
X93327272Y-145869428D01*
X93327258Y-145869436D01*
X93140865Y-145999949D01*
X92979949Y-146160865D01*
X92913969Y-146255096D01*
X92843788Y-146322280D01*
X92753239Y-146357493D01*
X92656107Y-146355374D01*
X92567180Y-146316245D01*
X92506031Y-146255096D01*
X92440050Y-146160865D01*
X92440049Y-146160864D01*
X92440047Y-146160861D01*
X92279139Y-145999953D01*
X92279135Y-145999950D01*
X92279134Y-145999949D01*
X92092741Y-145869436D01*
X92092727Y-145869428D01*
X91886499Y-145773262D01*
X91886496Y-145773261D01*
X91666694Y-145714365D01*
X91666679Y-145714363D01*
X91440006Y-145694532D01*
X91439994Y-145694532D01*
X91213320Y-145714363D01*
X91213305Y-145714365D01*
X90993503Y-145773261D01*
X90993500Y-145773262D01*
X90787272Y-145869428D01*
X90787258Y-145869436D01*
X90600865Y-145999949D01*
X90439949Y-146160865D01*
X90309436Y-146347258D01*
X90309428Y-146347272D01*
X90213262Y-146553500D01*
X90213261Y-146553503D01*
X90154365Y-146773305D01*
X90154363Y-146773320D01*
X90134532Y-146999994D01*
X90134532Y-147000005D01*
X86590500Y-147000005D01*
X86590499Y-145002128D01*
X86584091Y-144942517D01*
X86533796Y-144807669D01*
X86447546Y-144692454D01*
X86332331Y-144606204D01*
X86252117Y-144576286D01*
X86197481Y-144555908D01*
X86137873Y-144549500D01*
X84042134Y-144549500D01*
X84042130Y-144549500D01*
X84042128Y-144549501D01*
X84029314Y-144550878D01*
X83982519Y-144555908D01*
X83982515Y-144555909D01*
X83847670Y-144606203D01*
X83732455Y-144692453D01*
X83732453Y-144692455D01*
X83646204Y-144807669D01*
X83595908Y-144942518D01*
X83589500Y-145002123D01*
X83589500Y-147097865D01*
X83589500Y-147097868D01*
X72506894Y-147097868D01*
X72506134Y-147088695D01*
X72449157Y-146863700D01*
X72355924Y-146651151D01*
X72292128Y-146553504D01*
X72223346Y-146448224D01*
X72225489Y-146446823D01*
X72189740Y-146375583D01*
X72182712Y-146278682D01*
X72213302Y-146186468D01*
X72276851Y-146112980D01*
X72280494Y-146110199D01*
X72377546Y-146037546D01*
X72463796Y-145922331D01*
X72514091Y-145787483D01*
X72520500Y-145727873D01*
X72520499Y-143832128D01*
X72514091Y-143772517D01*
X72463796Y-143637669D01*
X72377546Y-143522454D01*
X72262331Y-143436204D01*
X72182117Y-143406286D01*
X72127481Y-143385908D01*
X72067873Y-143379500D01*
X70172134Y-143379500D01*
X70172130Y-143379500D01*
X70172128Y-143379501D01*
X70159314Y-143380878D01*
X70112519Y-143385908D01*
X70112515Y-143385909D01*
X69977670Y-143436203D01*
X69862455Y-143522453D01*
X69862453Y-143522455D01*
X69776204Y-143637669D01*
X69725908Y-143772518D01*
X69719500Y-143832123D01*
X69719500Y-145727865D01*
X69719500Y-145727868D01*
X69719501Y-145727872D01*
X69721567Y-145747093D01*
X69725908Y-145787480D01*
X69725909Y-145787483D01*
X69776204Y-145922331D01*
X69862454Y-146037546D01*
X69959416Y-146110132D01*
X69959418Y-146110133D01*
X70024341Y-146182411D01*
X70056663Y-146274032D01*
X70051462Y-146371047D01*
X70015041Y-146447170D01*
X70016654Y-146448224D01*
X69884074Y-146651153D01*
X69790842Y-146863702D01*
X69790841Y-146863706D01*
X69733868Y-147088684D01*
X69733866Y-147088691D01*
X69714700Y-147320000D01*
X61105500Y-147320000D01*
X61105500Y-138430005D01*
X69814532Y-138430005D01*
X69834363Y-138656679D01*
X69834365Y-138656694D01*
X69893261Y-138876496D01*
X69893262Y-138876499D01*
X69989428Y-139082727D01*
X69989436Y-139082741D01*
X70119949Y-139269134D01*
X70119953Y-139269139D01*
X70280861Y-139430047D01*
X70280864Y-139430049D01*
X70280865Y-139430050D01*
X70467258Y-139560563D01*
X70467262Y-139560565D01*
X70467266Y-139560568D01*
X70673504Y-139656739D01*
X70893308Y-139715635D01*
X70912984Y-139717356D01*
X71119994Y-139735468D01*
X71120000Y-139735468D01*
X71120006Y-139735468D01*
X71299668Y-139719749D01*
X71346692Y-139715635D01*
X71566496Y-139656739D01*
X71772734Y-139560568D01*
X71959139Y-139430047D01*
X72120047Y-139269139D01*
X72250568Y-139082734D01*
X72346739Y-138876496D01*
X72405635Y-138656692D01*
X72425468Y-138430005D01*
X79974532Y-138430005D01*
X79994363Y-138656679D01*
X79994365Y-138656694D01*
X80053261Y-138876496D01*
X80053262Y-138876499D01*
X80149428Y-139082727D01*
X80149436Y-139082741D01*
X80279949Y-139269134D01*
X80279953Y-139269139D01*
X80440861Y-139430047D01*
X80440864Y-139430049D01*
X80440865Y-139430050D01*
X80627258Y-139560563D01*
X80627262Y-139560565D01*
X80627266Y-139560568D01*
X80833504Y-139656739D01*
X81053308Y-139715635D01*
X81072984Y-139717356D01*
X81279994Y-139735468D01*
X81280000Y-139735468D01*
X81280006Y-139735468D01*
X81459668Y-139719749D01*
X81506692Y-139715635D01*
X81726496Y-139656739D01*
X81932734Y-139560568D01*
X82119139Y-139430047D01*
X82280047Y-139269139D01*
X82410568Y-139082734D01*
X82506739Y-138876496D01*
X82565635Y-138656692D01*
X82585468Y-138430000D01*
X82585468Y-138429994D01*
X82565636Y-138203320D01*
X82565635Y-138203308D01*
X82506739Y-137983504D01*
X82410568Y-137777266D01*
X82410565Y-137777262D01*
X82410563Y-137777258D01*
X82280050Y-137590865D01*
X82280049Y-137590864D01*
X82280047Y-137590861D01*
X82119139Y-137429953D01*
X82119135Y-137429950D01*
X82119134Y-137429949D01*
X81932741Y-137299436D01*
X81932727Y-137299428D01*
X81726499Y-137203262D01*
X81726496Y-137203261D01*
X81506694Y-137144365D01*
X81506679Y-137144363D01*
X81280006Y-137124532D01*
X81279994Y-137124532D01*
X81053320Y-137144363D01*
X81053305Y-137144365D01*
X80833503Y-137203261D01*
X80833500Y-137203262D01*
X80627272Y-137299428D01*
X80627258Y-137299436D01*
X80440865Y-137429949D01*
X80279949Y-137590865D01*
X80149436Y-137777258D01*
X80149428Y-137777272D01*
X80053262Y-137983500D01*
X80053261Y-137983503D01*
X79994365Y-138203305D01*
X79994363Y-138203320D01*
X79974532Y-138429994D01*
X79974532Y-138430005D01*
X72425468Y-138430005D01*
X72425468Y-138430000D01*
X72425468Y-138429994D01*
X72405636Y-138203320D01*
X72405635Y-138203308D01*
X72346739Y-137983504D01*
X72250568Y-137777266D01*
X72250565Y-137777262D01*
X72250563Y-137777258D01*
X72120050Y-137590865D01*
X72120049Y-137590864D01*
X72120047Y-137590861D01*
X71959139Y-137429953D01*
X71959135Y-137429950D01*
X71959134Y-137429949D01*
X71772741Y-137299436D01*
X71772727Y-137299428D01*
X71566499Y-137203262D01*
X71566496Y-137203261D01*
X71346694Y-137144365D01*
X71346679Y-137144363D01*
X71120006Y-137124532D01*
X71119994Y-137124532D01*
X70893320Y-137144363D01*
X70893305Y-137144365D01*
X70673503Y-137203261D01*
X70673500Y-137203262D01*
X70467272Y-137299428D01*
X70467258Y-137299436D01*
X70280865Y-137429949D01*
X70119949Y-137590865D01*
X69989436Y-137777258D01*
X69989428Y-137777272D01*
X69893262Y-137983500D01*
X69893261Y-137983503D01*
X69834365Y-138203305D01*
X69834363Y-138203320D01*
X69814532Y-138429994D01*
X69814532Y-138430005D01*
X61105500Y-138430005D01*
X61105500Y-134620005D01*
X69814532Y-134620005D01*
X69834363Y-134846679D01*
X69834365Y-134846694D01*
X69893261Y-135066496D01*
X69893262Y-135066499D01*
X69989428Y-135272727D01*
X69989436Y-135272741D01*
X70119949Y-135459134D01*
X70119953Y-135459139D01*
X70280861Y-135620047D01*
X70280864Y-135620049D01*
X70280865Y-135620050D01*
X70467258Y-135750563D01*
X70467262Y-135750565D01*
X70467266Y-135750568D01*
X70673504Y-135846739D01*
X70893308Y-135905635D01*
X70912984Y-135907356D01*
X71119994Y-135925468D01*
X71120000Y-135925468D01*
X71120006Y-135925468D01*
X71299668Y-135909749D01*
X71346692Y-135905635D01*
X71566496Y-135846739D01*
X71772734Y-135750568D01*
X71959139Y-135620047D01*
X72120047Y-135459139D01*
X72250568Y-135272734D01*
X72346739Y-135066496D01*
X72405635Y-134846692D01*
X72425468Y-134620005D01*
X79974532Y-134620005D01*
X79994363Y-134846679D01*
X79994365Y-134846694D01*
X80053261Y-135066496D01*
X80053262Y-135066499D01*
X80149428Y-135272727D01*
X80149436Y-135272741D01*
X80279949Y-135459134D01*
X80279953Y-135459139D01*
X80440861Y-135620047D01*
X80440864Y-135620049D01*
X80440865Y-135620050D01*
X80627258Y-135750563D01*
X80627262Y-135750565D01*
X80627266Y-135750568D01*
X80833504Y-135846739D01*
X81053308Y-135905635D01*
X81072984Y-135907356D01*
X81279994Y-135925468D01*
X81280000Y-135925468D01*
X81280006Y-135925468D01*
X81459668Y-135909749D01*
X81506692Y-135905635D01*
X81726496Y-135846739D01*
X81932734Y-135750568D01*
X82119139Y-135620047D01*
X82280047Y-135459139D01*
X82410568Y-135272734D01*
X82506739Y-135066496D01*
X82565635Y-134846692D01*
X82585468Y-134620000D01*
X82585468Y-134619994D01*
X82565636Y-134393320D01*
X82565635Y-134393308D01*
X82506739Y-134173504D01*
X82410568Y-133967266D01*
X82410565Y-133967262D01*
X82410563Y-133967258D01*
X82280050Y-133780865D01*
X82280049Y-133780864D01*
X82280047Y-133780861D01*
X82191054Y-133691868D01*
X112759500Y-133691868D01*
X112759501Y-133691872D01*
X112761567Y-133711093D01*
X112765908Y-133751480D01*
X112765909Y-133751484D01*
X112816203Y-133886329D01*
X112816204Y-133886331D01*
X112902454Y-134001546D01*
X113017669Y-134087796D01*
X113152517Y-134138091D01*
X113212127Y-134144500D01*
X115307872Y-134144499D01*
X115367483Y-134138091D01*
X115502331Y-134087796D01*
X115617546Y-134001546D01*
X115703796Y-133886331D01*
X115754091Y-133751483D01*
X115760500Y-133691873D01*
X115760499Y-131596128D01*
X115754091Y-131536517D01*
X115725929Y-131461011D01*
X115710390Y-131365112D01*
X115725931Y-131286983D01*
X115754091Y-131211483D01*
X115754091Y-131211480D01*
X115760500Y-131151873D01*
X115760499Y-129056128D01*
X115754091Y-128996517D01*
X115725929Y-128921011D01*
X115710390Y-128825112D01*
X115725931Y-128746983D01*
X115754091Y-128671483D01*
X115754091Y-128671480D01*
X115760500Y-128611873D01*
X115760499Y-126516128D01*
X115754091Y-126456517D01*
X115725929Y-126381011D01*
X115710390Y-126285112D01*
X115725931Y-126206983D01*
X115754091Y-126131483D01*
X115754091Y-126131480D01*
X115760500Y-126071873D01*
X115760499Y-123976128D01*
X115754091Y-123916517D01*
X115725929Y-123841011D01*
X115710390Y-123745112D01*
X115725931Y-123666983D01*
X115754091Y-123591483D01*
X115754091Y-123591480D01*
X115760500Y-123531873D01*
X115760499Y-121436128D01*
X115754091Y-121376517D01*
X115725929Y-121301011D01*
X115710390Y-121205112D01*
X115725931Y-121126983D01*
X115754091Y-121051483D01*
X115754091Y-121051480D01*
X115760500Y-120991873D01*
X115760499Y-118896128D01*
X115754091Y-118836517D01*
X115725929Y-118761011D01*
X115710390Y-118665112D01*
X115725931Y-118586983D01*
X115754091Y-118511483D01*
X115754091Y-118511480D01*
X115760500Y-118451873D01*
X115760499Y-116356128D01*
X115754091Y-116296517D01*
X115725929Y-116221011D01*
X115710390Y-116125112D01*
X115725931Y-116046983D01*
X115726268Y-116046081D01*
X115754091Y-115971483D01*
X115760500Y-115911873D01*
X115760499Y-113816128D01*
X115754091Y-113756517D01*
X115703796Y-113621669D01*
X115617546Y-113506454D01*
X115502331Y-113420204D01*
X115372749Y-113371873D01*
X115367481Y-113369908D01*
X115307873Y-113363500D01*
X113212134Y-113363500D01*
X113212130Y-113363500D01*
X113212128Y-113363501D01*
X113199314Y-113364878D01*
X113152519Y-113369908D01*
X113152515Y-113369909D01*
X113017670Y-113420203D01*
X113002600Y-113431485D01*
X112902454Y-113506454D01*
X112816204Y-113621669D01*
X112765908Y-113756518D01*
X112759500Y-113816123D01*
X112759500Y-115911865D01*
X112759500Y-115911868D01*
X112759501Y-115911872D01*
X112761567Y-115931093D01*
X112765908Y-115971480D01*
X112765908Y-115971481D01*
X112765909Y-115971483D01*
X112793068Y-116044301D01*
X112794069Y-116046984D01*
X112809609Y-116142888D01*
X112794069Y-116221013D01*
X112765909Y-116296514D01*
X112759500Y-116356123D01*
X112759500Y-118451865D01*
X112759500Y-118451868D01*
X112759501Y-118451872D01*
X112761567Y-118471093D01*
X112765908Y-118511480D01*
X112765909Y-118511485D01*
X112794069Y-118586984D01*
X112809609Y-118682888D01*
X112794069Y-118761013D01*
X112765909Y-118836514D01*
X112759500Y-118896123D01*
X112759500Y-120991865D01*
X112759500Y-120991868D01*
X112759501Y-120991872D01*
X112761567Y-121011093D01*
X112765908Y-121051480D01*
X112765909Y-121051485D01*
X112794069Y-121126984D01*
X112809609Y-121222888D01*
X112794069Y-121301013D01*
X112765909Y-121376514D01*
X112759500Y-121436123D01*
X112759500Y-123531865D01*
X112759500Y-123531868D01*
X112759501Y-123531872D01*
X112761567Y-123551093D01*
X112765908Y-123591480D01*
X112765909Y-123591485D01*
X112794069Y-123666984D01*
X112809609Y-123762888D01*
X112794069Y-123841013D01*
X112765909Y-123916514D01*
X112759500Y-123976123D01*
X112759500Y-126071865D01*
X112759500Y-126071868D01*
X112759501Y-126071872D01*
X112761567Y-126091093D01*
X112765908Y-126131480D01*
X112765909Y-126131485D01*
X112794069Y-126206984D01*
X112809609Y-126302888D01*
X112794069Y-126381013D01*
X112765909Y-126456514D01*
X112759500Y-126516123D01*
X112759500Y-128611865D01*
X112759500Y-128611868D01*
X112759501Y-128611872D01*
X112761567Y-128631093D01*
X112765908Y-128671480D01*
X112765909Y-128671485D01*
X112794069Y-128746984D01*
X112809609Y-128842888D01*
X112794069Y-128921013D01*
X112765909Y-128996514D01*
X112759500Y-129056123D01*
X112759500Y-131151865D01*
X112759500Y-131151868D01*
X112759501Y-131151872D01*
X112761567Y-131171093D01*
X112765908Y-131211480D01*
X112765909Y-131211485D01*
X112794069Y-131286984D01*
X112809609Y-131382888D01*
X112794069Y-131461013D01*
X112765909Y-131536514D01*
X112759500Y-131596123D01*
X112759500Y-133691865D01*
X112759500Y-133691868D01*
X82191054Y-133691868D01*
X82119139Y-133619953D01*
X82119135Y-133619950D01*
X82119134Y-133619949D01*
X81932741Y-133489436D01*
X81932727Y-133489428D01*
X81726499Y-133393262D01*
X81726496Y-133393261D01*
X81506694Y-133334365D01*
X81506679Y-133334363D01*
X81280006Y-133314532D01*
X81279994Y-133314532D01*
X81053320Y-133334363D01*
X81053305Y-133334365D01*
X80833503Y-133393261D01*
X80833500Y-133393262D01*
X80627272Y-133489428D01*
X80627258Y-133489436D01*
X80440865Y-133619949D01*
X80279949Y-133780865D01*
X80149436Y-133967258D01*
X80149428Y-133967272D01*
X80053262Y-134173500D01*
X80053261Y-134173503D01*
X79994365Y-134393305D01*
X79994363Y-134393320D01*
X79974532Y-134619994D01*
X79974532Y-134620005D01*
X72425468Y-134620005D01*
X72425468Y-134620000D01*
X72425468Y-134619994D01*
X72405636Y-134393320D01*
X72405635Y-134393308D01*
X72346739Y-134173504D01*
X72250568Y-133967266D01*
X72250565Y-133967262D01*
X72250563Y-133967258D01*
X72120050Y-133780865D01*
X72120049Y-133780864D01*
X72120047Y-133780861D01*
X71959139Y-133619953D01*
X71959135Y-133619950D01*
X71959134Y-133619949D01*
X71772741Y-133489436D01*
X71772727Y-133489428D01*
X71566499Y-133393262D01*
X71566496Y-133393261D01*
X71346694Y-133334365D01*
X71346679Y-133334363D01*
X71120006Y-133314532D01*
X71119994Y-133314532D01*
X70893320Y-133334363D01*
X70893305Y-133334365D01*
X70673503Y-133393261D01*
X70673500Y-133393262D01*
X70467272Y-133489428D01*
X70467258Y-133489436D01*
X70280865Y-133619949D01*
X70119949Y-133780865D01*
X69989436Y-133967258D01*
X69989428Y-133967272D01*
X69893262Y-134173500D01*
X69893261Y-134173503D01*
X69834365Y-134393305D01*
X69834363Y-134393320D01*
X69814532Y-134619994D01*
X69814532Y-134620005D01*
X61105500Y-134620005D01*
X61105500Y-130810005D01*
X69814532Y-130810005D01*
X69834363Y-131036679D01*
X69834365Y-131036694D01*
X69893261Y-131256496D01*
X69893262Y-131256499D01*
X69989428Y-131462727D01*
X69989436Y-131462741D01*
X70119949Y-131649134D01*
X70119953Y-131649139D01*
X70280861Y-131810047D01*
X70280864Y-131810049D01*
X70280865Y-131810050D01*
X70467258Y-131940563D01*
X70467262Y-131940565D01*
X70467266Y-131940568D01*
X70673504Y-132036739D01*
X70893308Y-132095635D01*
X70912984Y-132097356D01*
X71119994Y-132115468D01*
X71120000Y-132115468D01*
X71120006Y-132115468D01*
X71299668Y-132099749D01*
X71346692Y-132095635D01*
X71566496Y-132036739D01*
X71772734Y-131940568D01*
X71959139Y-131810047D01*
X72120047Y-131649139D01*
X72250568Y-131462734D01*
X72346739Y-131256496D01*
X72405635Y-131036692D01*
X72425468Y-130810005D01*
X79974532Y-130810005D01*
X79994363Y-131036679D01*
X79994365Y-131036694D01*
X80053261Y-131256496D01*
X80053262Y-131256499D01*
X80149428Y-131462727D01*
X80149436Y-131462741D01*
X80279949Y-131649134D01*
X80279953Y-131649139D01*
X80440861Y-131810047D01*
X80440864Y-131810049D01*
X80440865Y-131810050D01*
X80627258Y-131940563D01*
X80627262Y-131940565D01*
X80627266Y-131940568D01*
X80833504Y-132036739D01*
X81053308Y-132095635D01*
X81072984Y-132097356D01*
X81279994Y-132115468D01*
X81280000Y-132115468D01*
X81280006Y-132115468D01*
X81459668Y-132099749D01*
X81506692Y-132095635D01*
X81726496Y-132036739D01*
X81932734Y-131940568D01*
X82119139Y-131810047D01*
X82280047Y-131649139D01*
X82410568Y-131462734D01*
X82506739Y-131256496D01*
X82565635Y-131036692D01*
X82585468Y-130810000D01*
X82585468Y-130809994D01*
X82565636Y-130583320D01*
X82565635Y-130583308D01*
X82506739Y-130363504D01*
X82410568Y-130157266D01*
X82410565Y-130157262D01*
X82410563Y-130157258D01*
X82280050Y-129970865D01*
X82280049Y-129970864D01*
X82280047Y-129970861D01*
X82119139Y-129809953D01*
X82119135Y-129809950D01*
X82119134Y-129809949D01*
X81932741Y-129679436D01*
X81932727Y-129679428D01*
X81726499Y-129583262D01*
X81726496Y-129583261D01*
X81506694Y-129524365D01*
X81506679Y-129524363D01*
X81280006Y-129504532D01*
X81279994Y-129504532D01*
X81053320Y-129524363D01*
X81053305Y-129524365D01*
X80833503Y-129583261D01*
X80833500Y-129583262D01*
X80627272Y-129679428D01*
X80627258Y-129679436D01*
X80440865Y-129809949D01*
X80279949Y-129970865D01*
X80149436Y-130157258D01*
X80149428Y-130157272D01*
X80053262Y-130363500D01*
X80053261Y-130363503D01*
X79994365Y-130583305D01*
X79994363Y-130583320D01*
X79974532Y-130809994D01*
X79974532Y-130810005D01*
X72425468Y-130810005D01*
X72425468Y-130810000D01*
X72425468Y-130809994D01*
X72405636Y-130583320D01*
X72405635Y-130583308D01*
X72346739Y-130363504D01*
X72250568Y-130157266D01*
X72250565Y-130157262D01*
X72250563Y-130157258D01*
X72120050Y-129970865D01*
X72120049Y-129970864D01*
X72120047Y-129970861D01*
X71959139Y-129809953D01*
X71959135Y-129809950D01*
X71959134Y-129809949D01*
X71772741Y-129679436D01*
X71772727Y-129679428D01*
X71566499Y-129583262D01*
X71566496Y-129583261D01*
X71346694Y-129524365D01*
X71346679Y-129524363D01*
X71120006Y-129504532D01*
X71119994Y-129504532D01*
X70893320Y-129524363D01*
X70893305Y-129524365D01*
X70673503Y-129583261D01*
X70673500Y-129583262D01*
X70467272Y-129679428D01*
X70467258Y-129679436D01*
X70280865Y-129809949D01*
X70119949Y-129970865D01*
X69989436Y-130157258D01*
X69989428Y-130157272D01*
X69893262Y-130363500D01*
X69893261Y-130363503D01*
X69834365Y-130583305D01*
X69834363Y-130583320D01*
X69814532Y-130809994D01*
X69814532Y-130810005D01*
X61105500Y-130810005D01*
X61105500Y-128611868D01*
X64499500Y-128611868D01*
X64499501Y-128611872D01*
X64501567Y-128631093D01*
X64505908Y-128671480D01*
X64505909Y-128671484D01*
X64534069Y-128746984D01*
X64556204Y-128806331D01*
X64642454Y-128921546D01*
X64757669Y-129007796D01*
X64892517Y-129058091D01*
X64952127Y-129064500D01*
X67047872Y-129064499D01*
X67107483Y-129058091D01*
X67242331Y-129007796D01*
X67357546Y-128921546D01*
X67443796Y-128806331D01*
X67494091Y-128671483D01*
X67500500Y-128611873D01*
X67500499Y-126516128D01*
X67494091Y-126456517D01*
X67465929Y-126381011D01*
X67450390Y-126285112D01*
X67465931Y-126206983D01*
X67494091Y-126131483D01*
X67494091Y-126131480D01*
X67500500Y-126071873D01*
X67500499Y-123976128D01*
X67494091Y-123916517D01*
X67465929Y-123841011D01*
X67450390Y-123745112D01*
X67465931Y-123666983D01*
X67494091Y-123591483D01*
X67494091Y-123591480D01*
X67500500Y-123531873D01*
X67500499Y-121436128D01*
X67494091Y-121376517D01*
X67465929Y-121301011D01*
X67450390Y-121205112D01*
X67465931Y-121126983D01*
X67494091Y-121051483D01*
X67494091Y-121051480D01*
X67500500Y-120991873D01*
X67500499Y-118896128D01*
X67494091Y-118836517D01*
X67465929Y-118761011D01*
X67450390Y-118665112D01*
X67465931Y-118586983D01*
X67494091Y-118511483D01*
X67494091Y-118511480D01*
X67500500Y-118451873D01*
X67500499Y-116356128D01*
X67494091Y-116296517D01*
X67465929Y-116221011D01*
X67450390Y-116125112D01*
X67465931Y-116046983D01*
X67466268Y-116046081D01*
X67494091Y-115971483D01*
X67500500Y-115911873D01*
X67500499Y-113816128D01*
X67494091Y-113756517D01*
X67465929Y-113681011D01*
X67450390Y-113585112D01*
X67465931Y-113506983D01*
X67466129Y-113506454D01*
X67494091Y-113431483D01*
X67500500Y-113371873D01*
X67500499Y-111276128D01*
X67494091Y-111216517D01*
X67465929Y-111141011D01*
X67450390Y-111045112D01*
X67465931Y-110966983D01*
X67494091Y-110891483D01*
X67494091Y-110891480D01*
X67500500Y-110831873D01*
X67500499Y-108867868D01*
X69899500Y-108867868D01*
X69899501Y-108867872D01*
X69901567Y-108887093D01*
X69905908Y-108927480D01*
X69905909Y-108927483D01*
X69956204Y-109062331D01*
X70042454Y-109177546D01*
X70157669Y-109263796D01*
X70292514Y-109314090D01*
X70292517Y-109314091D01*
X70302535Y-109316458D01*
X70390911Y-109356816D01*
X70457115Y-109427922D01*
X70491069Y-109518951D01*
X70487603Y-109616044D01*
X70470947Y-109664017D01*
X70373260Y-109873506D01*
X70314365Y-110093305D01*
X70314363Y-110093320D01*
X70294532Y-110319994D01*
X70294532Y-110320005D01*
X70314363Y-110546679D01*
X70314365Y-110546694D01*
X70373261Y-110766496D01*
X70373262Y-110766499D01*
X70469428Y-110972727D01*
X70469436Y-110972741D01*
X70587634Y-111141546D01*
X70599953Y-111159139D01*
X70760861Y-111320047D01*
X70760864Y-111320049D01*
X70768549Y-111327734D01*
X70767650Y-111328632D01*
X70821362Y-111395552D01*
X70848552Y-111488825D01*
X70849500Y-111510534D01*
X70849500Y-112893920D01*
X70878341Y-113038911D01*
X70878342Y-113038913D01*
X70934916Y-113175495D01*
X70967813Y-113224729D01*
X71017048Y-113298416D01*
X73814072Y-116095440D01*
X73868046Y-116176219D01*
X73887000Y-116271507D01*
X73887000Y-119289465D01*
X73868046Y-119384753D01*
X73814070Y-119465535D01*
X73798659Y-119479655D01*
X73637449Y-119640865D01*
X73506936Y-119827258D01*
X73506928Y-119827272D01*
X73410762Y-120033500D01*
X73410761Y-120033503D01*
X73410761Y-120033504D01*
X73361925Y-120215766D01*
X73359266Y-120225688D01*
X73316295Y-120312824D01*
X73243251Y-120376883D01*
X73151252Y-120408113D01*
X73054305Y-120401759D01*
X72967169Y-120358788D01*
X72903110Y-120285744D01*
X72878234Y-120225688D01*
X72826739Y-120033504D01*
X72730568Y-119827266D01*
X72730565Y-119827262D01*
X72730563Y-119827258D01*
X72600050Y-119640865D01*
X72600049Y-119640864D01*
X72600047Y-119640861D01*
X72439139Y-119479953D01*
X72439135Y-119479950D01*
X72439134Y-119479949D01*
X72252741Y-119349436D01*
X72252727Y-119349428D01*
X72046499Y-119253262D01*
X72046496Y-119253261D01*
X71826694Y-119194365D01*
X71826679Y-119194363D01*
X71600006Y-119174532D01*
X71599994Y-119174532D01*
X71373320Y-119194363D01*
X71373305Y-119194365D01*
X71153503Y-119253261D01*
X71153500Y-119253262D01*
X70947272Y-119349428D01*
X70947258Y-119349436D01*
X70760865Y-119479949D01*
X70599949Y-119640865D01*
X70469436Y-119827258D01*
X70469428Y-119827272D01*
X70373262Y-120033500D01*
X70373261Y-120033503D01*
X70314365Y-120253305D01*
X70314363Y-120253320D01*
X70294532Y-120479994D01*
X70294532Y-120480005D01*
X70314363Y-120706679D01*
X70314365Y-120706694D01*
X70373261Y-120926496D01*
X70373262Y-120926499D01*
X70469428Y-121132727D01*
X70469436Y-121132741D01*
X70545708Y-121241669D01*
X70599953Y-121319139D01*
X70760861Y-121480047D01*
X70760864Y-121480049D01*
X70760865Y-121480050D01*
X70947258Y-121610563D01*
X70947262Y-121610565D01*
X70947266Y-121610568D01*
X71153504Y-121706739D01*
X71373308Y-121765635D01*
X71392984Y-121767356D01*
X71599994Y-121785468D01*
X71600000Y-121785468D01*
X71600006Y-121785468D01*
X71779668Y-121769749D01*
X71826692Y-121765635D01*
X72046496Y-121706739D01*
X72252734Y-121610568D01*
X72439139Y-121480047D01*
X72600047Y-121319139D01*
X72730568Y-121132734D01*
X72826739Y-120926496D01*
X72878235Y-120734308D01*
X72921204Y-120647175D01*
X72994249Y-120583116D01*
X73086248Y-120551886D01*
X73183195Y-120558240D01*
X73270331Y-120601210D01*
X73334390Y-120674255D01*
X73359264Y-120734307D01*
X73361924Y-120744232D01*
X73410761Y-120926496D01*
X73410762Y-120926499D01*
X73506928Y-121132727D01*
X73506936Y-121132741D01*
X73583208Y-121241669D01*
X73637453Y-121319139D01*
X73798361Y-121480047D01*
X73798364Y-121480049D01*
X73798365Y-121480050D01*
X73984758Y-121610563D01*
X73984762Y-121610565D01*
X73984766Y-121610568D01*
X74191004Y-121706739D01*
X74410808Y-121765635D01*
X74430484Y-121767356D01*
X74637494Y-121785468D01*
X74637500Y-121785468D01*
X74637506Y-121785468D01*
X74817168Y-121769749D01*
X74864192Y-121765635D01*
X75083996Y-121706739D01*
X75290234Y-121610568D01*
X75476639Y-121480047D01*
X75637547Y-121319139D01*
X75768068Y-121132734D01*
X75864239Y-120926496D01*
X75923135Y-120706692D01*
X75923136Y-120706676D01*
X75923533Y-120704433D01*
X75924198Y-120702722D01*
X75925948Y-120696192D01*
X75926663Y-120696383D01*
X75958747Y-120613884D01*
X76025931Y-120543703D01*
X76114858Y-120504575D01*
X76211990Y-120502456D01*
X76302539Y-120537670D01*
X76372720Y-120604854D01*
X76411848Y-120693781D01*
X76413967Y-120704433D01*
X76414364Y-120706688D01*
X76414365Y-120706692D01*
X76424424Y-120744232D01*
X76473261Y-120926496D01*
X76473262Y-120926499D01*
X76569428Y-121132727D01*
X76569436Y-121132741D01*
X76645708Y-121241669D01*
X76699953Y-121319139D01*
X76860861Y-121480047D01*
X76860864Y-121480049D01*
X76860865Y-121480050D01*
X77047258Y-121610563D01*
X77047262Y-121610565D01*
X77047266Y-121610568D01*
X77253504Y-121706739D01*
X77473308Y-121765635D01*
X77492984Y-121767356D01*
X77699994Y-121785468D01*
X77700000Y-121785468D01*
X77700006Y-121785468D01*
X77879668Y-121769749D01*
X77926692Y-121765635D01*
X78146496Y-121706739D01*
X78352734Y-121610568D01*
X78539139Y-121480047D01*
X78700047Y-121319139D01*
X78830568Y-121132734D01*
X78926739Y-120926496D01*
X78985635Y-120706692D01*
X78994545Y-120604854D01*
X79005468Y-120480005D01*
X79005468Y-120479994D01*
X78985636Y-120253320D01*
X78985635Y-120253308D01*
X78926739Y-120033504D01*
X78830568Y-119827266D01*
X78830565Y-119827262D01*
X78830563Y-119827258D01*
X78700050Y-119640865D01*
X78700049Y-119640864D01*
X78700047Y-119640861D01*
X78539139Y-119479953D01*
X78539135Y-119479950D01*
X78539134Y-119479949D01*
X78352741Y-119349436D01*
X78352727Y-119349428D01*
X78146499Y-119253262D01*
X78146496Y-119253261D01*
X77926694Y-119194365D01*
X77926679Y-119194363D01*
X77700006Y-119174532D01*
X77699994Y-119174532D01*
X77473320Y-119194363D01*
X77473305Y-119194365D01*
X77253503Y-119253261D01*
X77253500Y-119253262D01*
X77047272Y-119349428D01*
X77047258Y-119349436D01*
X76860865Y-119479949D01*
X76699949Y-119640865D01*
X76569436Y-119827258D01*
X76569428Y-119827272D01*
X76473262Y-120033500D01*
X76473261Y-120033503D01*
X76414363Y-120253315D01*
X76413966Y-120255569D01*
X76413302Y-120257275D01*
X76411552Y-120263808D01*
X76410836Y-120263616D01*
X76378752Y-120346118D01*
X76311566Y-120416298D01*
X76222638Y-120455425D01*
X76125507Y-120457542D01*
X76034958Y-120422328D01*
X75964778Y-120355142D01*
X75925651Y-120266214D01*
X75923534Y-120255569D01*
X75923136Y-120253315D01*
X75923135Y-120253312D01*
X75923135Y-120253308D01*
X75864239Y-120033504D01*
X75768068Y-119827266D01*
X75768065Y-119827262D01*
X75768063Y-119827258D01*
X75637550Y-119640865D01*
X75637549Y-119640864D01*
X75637547Y-119640861D01*
X75476639Y-119479953D01*
X75476635Y-119479950D01*
X75468951Y-119472266D01*
X75469848Y-119471368D01*
X75416129Y-119404431D01*
X75388947Y-119311156D01*
X75388000Y-119289465D01*
X75388000Y-115783582D01*
X75387999Y-115783579D01*
X75384205Y-115764506D01*
X75361211Y-115648906D01*
X75359159Y-115638588D01*
X75317100Y-115537049D01*
X75317100Y-115537048D01*
X75317100Y-115537047D01*
X75302586Y-115502010D01*
X75302582Y-115502001D01*
X75268068Y-115450348D01*
X75233319Y-115398342D01*
X75220452Y-115379084D01*
X72423430Y-112582062D01*
X72369454Y-112501280D01*
X72350500Y-112405992D01*
X72350500Y-111510534D01*
X72369454Y-111415246D01*
X72423430Y-111334464D01*
X72438843Y-111320341D01*
X72439132Y-111320051D01*
X72439139Y-111320047D01*
X72600047Y-111159139D01*
X72730568Y-110972734D01*
X72826739Y-110766496D01*
X72878235Y-110574308D01*
X72921204Y-110487175D01*
X72994249Y-110423116D01*
X73086248Y-110391886D01*
X73183195Y-110398240D01*
X73270331Y-110441210D01*
X73334390Y-110514255D01*
X73359264Y-110574307D01*
X73361924Y-110584232D01*
X73410761Y-110766496D01*
X73410762Y-110766499D01*
X73506928Y-110972727D01*
X73506936Y-110972741D01*
X73625134Y-111141546D01*
X73637453Y-111159139D01*
X73798361Y-111320047D01*
X73798364Y-111320049D01*
X73798365Y-111320050D01*
X73984758Y-111450563D01*
X73984762Y-111450565D01*
X73984766Y-111450568D01*
X74191004Y-111546739D01*
X74410808Y-111605635D01*
X74430484Y-111607356D01*
X74637494Y-111625468D01*
X74637500Y-111625468D01*
X74637506Y-111625468D01*
X74817168Y-111609749D01*
X74864192Y-111605635D01*
X75083996Y-111546739D01*
X75290234Y-111450568D01*
X75476639Y-111320047D01*
X75637547Y-111159139D01*
X75768068Y-110972734D01*
X75864239Y-110766496D01*
X75923135Y-110546692D01*
X75930557Y-110461863D01*
X75942968Y-110320005D01*
X75942968Y-110319994D01*
X75923136Y-110093320D01*
X75923135Y-110093308D01*
X75864239Y-109873504D01*
X75844692Y-109831586D01*
X75763474Y-109657413D01*
X75766016Y-109656227D01*
X75740950Y-109582404D01*
X75747296Y-109485457D01*
X75790260Y-109398317D01*
X75863299Y-109334253D01*
X75900802Y-109316582D01*
X75907479Y-109314091D01*
X75907483Y-109314091D01*
X76042331Y-109263796D01*
X76157546Y-109177546D01*
X76243796Y-109062331D01*
X76294091Y-108927483D01*
X76300500Y-108867873D01*
X76300500Y-108867868D01*
X82499500Y-108867868D01*
X82499501Y-108867872D01*
X82501567Y-108887093D01*
X82505908Y-108927480D01*
X82505909Y-108927483D01*
X82556204Y-109062331D01*
X82642454Y-109177546D01*
X82757669Y-109263796D01*
X82892514Y-109314090D01*
X82892517Y-109314091D01*
X82902535Y-109316458D01*
X82990911Y-109356816D01*
X83057115Y-109427922D01*
X83091069Y-109518951D01*
X83087603Y-109616044D01*
X83070947Y-109664017D01*
X82973260Y-109873506D01*
X82914365Y-110093305D01*
X82914363Y-110093320D01*
X82894532Y-110319994D01*
X82894532Y-110320005D01*
X82914363Y-110546679D01*
X82914365Y-110546694D01*
X82973261Y-110766496D01*
X82973262Y-110766499D01*
X83069428Y-110972727D01*
X83069436Y-110972741D01*
X83187634Y-111141546D01*
X83199953Y-111159139D01*
X83360861Y-111320047D01*
X83360864Y-111320049D01*
X83368549Y-111327734D01*
X83367650Y-111328632D01*
X83421362Y-111395552D01*
X83448552Y-111488825D01*
X83449500Y-111510534D01*
X83449500Y-113193920D01*
X83478341Y-113338911D01*
X83534913Y-113475489D01*
X83534914Y-113475491D01*
X83534916Y-113475495D01*
X83555602Y-113506454D01*
X83617048Y-113598416D01*
X83617049Y-113598417D01*
X86376570Y-116357937D01*
X86430546Y-116438719D01*
X86449500Y-116534007D01*
X86449500Y-119289465D01*
X86430546Y-119384753D01*
X86376570Y-119465535D01*
X86361159Y-119479655D01*
X86199949Y-119640865D01*
X86069436Y-119827258D01*
X86069428Y-119827272D01*
X85973262Y-120033500D01*
X85973261Y-120033503D01*
X85940516Y-120155711D01*
X85897545Y-120242847D01*
X85824500Y-120306906D01*
X85732501Y-120338136D01*
X85635555Y-120331782D01*
X85548419Y-120288811D01*
X85484360Y-120215766D01*
X85459484Y-120155711D01*
X85426739Y-120033504D01*
X85330568Y-119827266D01*
X85330565Y-119827262D01*
X85330563Y-119827258D01*
X85200050Y-119640865D01*
X85200049Y-119640864D01*
X85200047Y-119640861D01*
X85039139Y-119479953D01*
X85039135Y-119479950D01*
X85039134Y-119479949D01*
X84852741Y-119349436D01*
X84852727Y-119349428D01*
X84646499Y-119253262D01*
X84646496Y-119253261D01*
X84426694Y-119194365D01*
X84426679Y-119194363D01*
X84200006Y-119174532D01*
X84199994Y-119174532D01*
X83973320Y-119194363D01*
X83973305Y-119194365D01*
X83753503Y-119253261D01*
X83753500Y-119253262D01*
X83547272Y-119349428D01*
X83547258Y-119349436D01*
X83360865Y-119479949D01*
X83199949Y-119640865D01*
X83069436Y-119827258D01*
X83069428Y-119827272D01*
X82973262Y-120033500D01*
X82973261Y-120033503D01*
X82914365Y-120253305D01*
X82914363Y-120253320D01*
X82894532Y-120479994D01*
X82894532Y-120480005D01*
X82914363Y-120706679D01*
X82914365Y-120706694D01*
X82973261Y-120926496D01*
X82973262Y-120926499D01*
X83069428Y-121132727D01*
X83069436Y-121132741D01*
X83145708Y-121241669D01*
X83199953Y-121319139D01*
X83360861Y-121480047D01*
X83360864Y-121480049D01*
X83360865Y-121480050D01*
X83547258Y-121610563D01*
X83547262Y-121610565D01*
X83547266Y-121610568D01*
X83753504Y-121706739D01*
X83973308Y-121765635D01*
X83992984Y-121767356D01*
X84199994Y-121785468D01*
X84200000Y-121785468D01*
X84200006Y-121785468D01*
X84379668Y-121769749D01*
X84426692Y-121765635D01*
X84646496Y-121706739D01*
X84852734Y-121610568D01*
X85039139Y-121480047D01*
X85200047Y-121319139D01*
X85330568Y-121132734D01*
X85426739Y-120926496D01*
X85459484Y-120804286D01*
X85502454Y-120717152D01*
X85575499Y-120653093D01*
X85667498Y-120621863D01*
X85764445Y-120628217D01*
X85851581Y-120671187D01*
X85915640Y-120744232D01*
X85940516Y-120804288D01*
X85973261Y-120926496D01*
X85973262Y-120926499D01*
X86069428Y-121132727D01*
X86069436Y-121132741D01*
X86145708Y-121241669D01*
X86199953Y-121319139D01*
X86360861Y-121480047D01*
X86360864Y-121480049D01*
X86360865Y-121480050D01*
X86547258Y-121610563D01*
X86547262Y-121610565D01*
X86547266Y-121610568D01*
X86753504Y-121706739D01*
X86973308Y-121765635D01*
X86992984Y-121767356D01*
X87199994Y-121785468D01*
X87200000Y-121785468D01*
X87200006Y-121785468D01*
X87379668Y-121769749D01*
X87426692Y-121765635D01*
X87646496Y-121706739D01*
X87852734Y-121610568D01*
X88039139Y-121480047D01*
X88200047Y-121319139D01*
X88330568Y-121132734D01*
X88426739Y-120926496D01*
X88459484Y-120804286D01*
X88502454Y-120717152D01*
X88575499Y-120653093D01*
X88667498Y-120621863D01*
X88764445Y-120628217D01*
X88851581Y-120671187D01*
X88915640Y-120744232D01*
X88940516Y-120804288D01*
X88973261Y-120926496D01*
X88973262Y-120926499D01*
X89069428Y-121132727D01*
X89069436Y-121132741D01*
X89145708Y-121241669D01*
X89199953Y-121319139D01*
X89360861Y-121480047D01*
X89360864Y-121480049D01*
X89360865Y-121480050D01*
X89547258Y-121610563D01*
X89547262Y-121610565D01*
X89547266Y-121610568D01*
X89753504Y-121706739D01*
X89973308Y-121765635D01*
X89992984Y-121767356D01*
X90199994Y-121785468D01*
X90200000Y-121785468D01*
X90200006Y-121785468D01*
X90379668Y-121769749D01*
X90426692Y-121765635D01*
X90646496Y-121706739D01*
X90852734Y-121610568D01*
X91039139Y-121480047D01*
X91200047Y-121319139D01*
X91330568Y-121132734D01*
X91426739Y-120926496D01*
X91485635Y-120706692D01*
X91494545Y-120604854D01*
X91505468Y-120480005D01*
X91505468Y-120479994D01*
X91485636Y-120253320D01*
X91485635Y-120253308D01*
X91426739Y-120033504D01*
X91330568Y-119827266D01*
X91330565Y-119827262D01*
X91330563Y-119827258D01*
X91200050Y-119640865D01*
X91200049Y-119640864D01*
X91200047Y-119640861D01*
X91039139Y-119479953D01*
X91039135Y-119479950D01*
X91039134Y-119479949D01*
X90852741Y-119349436D01*
X90852727Y-119349428D01*
X90646499Y-119253262D01*
X90646496Y-119253261D01*
X90426694Y-119194365D01*
X90426679Y-119194363D01*
X90200006Y-119174532D01*
X90199994Y-119174532D01*
X89973320Y-119194363D01*
X89973305Y-119194365D01*
X89753503Y-119253261D01*
X89753500Y-119253262D01*
X89547272Y-119349428D01*
X89547258Y-119349436D01*
X89360865Y-119479949D01*
X89199949Y-119640865D01*
X89069436Y-119827258D01*
X89069428Y-119827272D01*
X88973262Y-120033500D01*
X88973261Y-120033503D01*
X88940516Y-120155711D01*
X88897545Y-120242847D01*
X88824500Y-120306906D01*
X88732501Y-120338136D01*
X88635555Y-120331782D01*
X88548419Y-120288811D01*
X88484360Y-120215766D01*
X88459484Y-120155711D01*
X88426739Y-120033504D01*
X88330568Y-119827266D01*
X88330565Y-119827262D01*
X88330563Y-119827258D01*
X88200050Y-119640865D01*
X88200049Y-119640864D01*
X88200047Y-119640861D01*
X88039139Y-119479953D01*
X88039135Y-119479950D01*
X88031451Y-119472266D01*
X88032348Y-119471368D01*
X87978629Y-119404431D01*
X87951447Y-119311156D01*
X87950500Y-119289465D01*
X87950500Y-116046081D01*
X87935661Y-115971484D01*
X87935660Y-115971480D01*
X87921659Y-115901088D01*
X87869765Y-115775807D01*
X87866456Y-115766559D01*
X87810206Y-115682375D01*
X87810203Y-115682369D01*
X87782954Y-115641588D01*
X87782952Y-115641585D01*
X85023430Y-112882062D01*
X84969454Y-112801280D01*
X84950500Y-112705992D01*
X84950500Y-111510534D01*
X84969454Y-111415246D01*
X85023430Y-111334464D01*
X85038843Y-111320341D01*
X85039132Y-111320051D01*
X85039139Y-111320047D01*
X85200047Y-111159139D01*
X85330568Y-110972734D01*
X85426739Y-110766496D01*
X85459484Y-110644286D01*
X85502454Y-110557152D01*
X85575499Y-110493093D01*
X85667498Y-110461863D01*
X85764445Y-110468217D01*
X85851581Y-110511187D01*
X85915640Y-110584232D01*
X85940516Y-110644288D01*
X85973261Y-110766496D01*
X85973262Y-110766499D01*
X86069428Y-110972727D01*
X86069436Y-110972741D01*
X86187634Y-111141546D01*
X86199953Y-111159139D01*
X86360861Y-111320047D01*
X86360864Y-111320049D01*
X86360865Y-111320050D01*
X86547258Y-111450563D01*
X86547262Y-111450565D01*
X86547266Y-111450568D01*
X86753504Y-111546739D01*
X86973308Y-111605635D01*
X86992984Y-111607356D01*
X87199994Y-111625468D01*
X87200000Y-111625468D01*
X87200006Y-111625468D01*
X87379668Y-111609749D01*
X87426692Y-111605635D01*
X87646496Y-111546739D01*
X87852734Y-111450568D01*
X88039139Y-111320047D01*
X88200047Y-111159139D01*
X88330568Y-110972734D01*
X88396255Y-110831868D01*
X112759500Y-110831868D01*
X112759501Y-110831872D01*
X112761567Y-110851093D01*
X112765908Y-110891480D01*
X112765909Y-110891484D01*
X112796216Y-110972741D01*
X112816204Y-111026331D01*
X112902454Y-111141546D01*
X113017669Y-111227796D01*
X113152517Y-111278091D01*
X113212127Y-111284500D01*
X115307872Y-111284499D01*
X115367483Y-111278091D01*
X115502331Y-111227796D01*
X115617546Y-111141546D01*
X115703796Y-111026331D01*
X115754091Y-110891483D01*
X115760500Y-110831873D01*
X115760499Y-108736128D01*
X115754091Y-108676517D01*
X115725929Y-108601011D01*
X115710390Y-108505112D01*
X115725931Y-108426983D01*
X115726129Y-108426454D01*
X115754091Y-108351483D01*
X115760500Y-108291873D01*
X115760499Y-106196128D01*
X115754091Y-106136517D01*
X115725929Y-106061011D01*
X115710390Y-105965112D01*
X115725931Y-105886983D01*
X115754091Y-105811483D01*
X115754091Y-105811480D01*
X115760500Y-105751873D01*
X115760499Y-103656128D01*
X115754091Y-103596517D01*
X115725929Y-103521011D01*
X115710390Y-103425112D01*
X115725931Y-103346983D01*
X115738419Y-103313503D01*
X115754091Y-103271483D01*
X115760500Y-103211873D01*
X115760499Y-101116128D01*
X115754091Y-101056517D01*
X115725929Y-100981011D01*
X115710390Y-100885112D01*
X115725931Y-100806983D01*
X115754091Y-100731483D01*
X115754091Y-100731480D01*
X115760500Y-100671873D01*
X115760499Y-98576128D01*
X115754091Y-98516517D01*
X115725929Y-98441011D01*
X115710390Y-98345112D01*
X115725931Y-98266983D01*
X115744556Y-98217049D01*
X115754091Y-98191483D01*
X115760500Y-98131873D01*
X115760499Y-96036128D01*
X115754091Y-95976517D01*
X115725929Y-95901011D01*
X115710390Y-95805112D01*
X115725931Y-95726983D01*
X115734232Y-95704729D01*
X115754091Y-95651483D01*
X115760500Y-95591873D01*
X115760499Y-93496128D01*
X115754091Y-93436517D01*
X115725929Y-93361011D01*
X115710390Y-93265112D01*
X115725931Y-93186983D01*
X115754091Y-93111483D01*
X115758174Y-93073503D01*
X115760500Y-93051873D01*
X115760499Y-90956128D01*
X115754091Y-90896517D01*
X115703796Y-90761669D01*
X115617546Y-90646454D01*
X115502331Y-90560204D01*
X115388238Y-90517650D01*
X115367481Y-90509908D01*
X115307873Y-90503500D01*
X113212134Y-90503500D01*
X113212130Y-90503500D01*
X113212128Y-90503501D01*
X113199314Y-90504878D01*
X113152519Y-90509908D01*
X113152515Y-90509909D01*
X113017670Y-90560203D01*
X112902455Y-90646453D01*
X112902453Y-90646455D01*
X112816204Y-90761669D01*
X112765908Y-90896518D01*
X112759500Y-90956123D01*
X112759500Y-93051865D01*
X112759500Y-93051868D01*
X112759501Y-93051872D01*
X112760121Y-93057638D01*
X112765908Y-93111480D01*
X112765909Y-93111485D01*
X112794069Y-93186984D01*
X112809609Y-93282888D01*
X112794069Y-93361013D01*
X112765909Y-93436514D01*
X112759500Y-93496123D01*
X112759500Y-95591865D01*
X112759500Y-95591868D01*
X112759501Y-95591872D01*
X112760121Y-95597638D01*
X112765908Y-95651480D01*
X112765909Y-95651485D01*
X112794069Y-95726984D01*
X112809609Y-95822888D01*
X112794069Y-95901013D01*
X112765909Y-95976514D01*
X112759500Y-96036123D01*
X112759500Y-98131865D01*
X112759500Y-98131868D01*
X112759501Y-98131872D01*
X112760121Y-98137638D01*
X112765908Y-98191480D01*
X112765909Y-98191485D01*
X112794069Y-98266984D01*
X112809609Y-98362888D01*
X112794069Y-98441013D01*
X112765909Y-98516514D01*
X112759500Y-98576123D01*
X112759500Y-100671865D01*
X112759500Y-100671868D01*
X112759501Y-100671872D01*
X112760121Y-100677638D01*
X112765908Y-100731480D01*
X112765909Y-100731485D01*
X112794069Y-100806984D01*
X112809609Y-100902888D01*
X112794069Y-100981013D01*
X112765909Y-101056514D01*
X112759500Y-101116123D01*
X112759500Y-103211865D01*
X112759500Y-103211868D01*
X112759501Y-103211872D01*
X112760121Y-103217638D01*
X112765908Y-103271480D01*
X112765909Y-103271485D01*
X112794069Y-103346984D01*
X112809609Y-103442888D01*
X112794069Y-103521013D01*
X112765909Y-103596514D01*
X112759500Y-103656123D01*
X112759500Y-105751865D01*
X112759500Y-105751868D01*
X112759501Y-105751872D01*
X112760121Y-105757638D01*
X112765908Y-105811480D01*
X112765909Y-105811485D01*
X112794069Y-105886984D01*
X112809609Y-105982888D01*
X112794069Y-106061013D01*
X112765909Y-106136514D01*
X112759500Y-106196123D01*
X112759500Y-108291865D01*
X112759500Y-108291868D01*
X112759501Y-108291872D01*
X112761567Y-108311093D01*
X112765908Y-108351480D01*
X112765909Y-108351485D01*
X112794069Y-108426984D01*
X112809609Y-108522888D01*
X112794069Y-108601013D01*
X112765909Y-108676514D01*
X112759500Y-108736123D01*
X112759500Y-110831865D01*
X112759500Y-110831868D01*
X88396255Y-110831868D01*
X88426739Y-110766496D01*
X88485635Y-110546692D01*
X88493057Y-110461863D01*
X88505468Y-110320005D01*
X88505468Y-110319994D01*
X88485636Y-110093320D01*
X88485635Y-110093308D01*
X88426739Y-109873504D01*
X88330568Y-109667266D01*
X88330566Y-109667264D01*
X88329053Y-109664018D01*
X88305960Y-109569647D01*
X88320739Y-109473623D01*
X88371140Y-109390564D01*
X88449490Y-109333115D01*
X88497464Y-109316458D01*
X88507477Y-109314091D01*
X88507483Y-109314091D01*
X88642331Y-109263796D01*
X88757546Y-109177546D01*
X88843796Y-109062331D01*
X88894091Y-108927483D01*
X88900500Y-108867873D01*
X88900499Y-106372128D01*
X88894091Y-106312517D01*
X88843796Y-106177669D01*
X88757546Y-106062454D01*
X88642331Y-105976204D01*
X88605216Y-105962361D01*
X102599500Y-105962361D01*
X102631522Y-106164531D01*
X102694778Y-106359214D01*
X102694782Y-106359224D01*
X102787711Y-106541607D01*
X102787713Y-106541610D01*
X102908034Y-106707219D01*
X103052781Y-106851966D01*
X103218390Y-106972287D01*
X103400781Y-107065220D01*
X103595466Y-107128477D01*
X103666575Y-107139739D01*
X103797638Y-107160499D01*
X103797645Y-107160499D01*
X103797648Y-107160500D01*
X103797651Y-107160500D01*
X104802349Y-107160500D01*
X104802352Y-107160500D01*
X104802355Y-107160499D01*
X104802361Y-107160499D01*
X104897870Y-107145371D01*
X105004534Y-107128477D01*
X105199219Y-107065220D01*
X105381610Y-106972287D01*
X105547219Y-106851966D01*
X105691966Y-106707219D01*
X105812287Y-106541610D01*
X105905220Y-106359219D01*
X105968477Y-106164534D01*
X105994273Y-106001669D01*
X106000499Y-105962361D01*
X106000500Y-105962349D01*
X106000500Y-105757650D01*
X106000499Y-105757638D01*
X105968477Y-105555468D01*
X105968477Y-105555466D01*
X105905220Y-105360781D01*
X105812287Y-105178390D01*
X105691966Y-105012781D01*
X105547219Y-104868034D01*
X105441801Y-104791444D01*
X105375854Y-104720103D01*
X105342227Y-104628953D01*
X105346041Y-104531873D01*
X105386715Y-104443642D01*
X105441802Y-104388555D01*
X105547219Y-104311966D01*
X105691966Y-104167219D01*
X105812287Y-104001610D01*
X105905220Y-103819219D01*
X105968477Y-103624534D01*
X105995597Y-103453308D01*
X106000499Y-103422361D01*
X106000500Y-103422349D01*
X106000500Y-103217650D01*
X106000499Y-103217638D01*
X105970346Y-103027266D01*
X105968477Y-103015466D01*
X105905220Y-102820781D01*
X105874224Y-102759949D01*
X105812288Y-102638392D01*
X105812287Y-102638390D01*
X105691966Y-102472781D01*
X105547219Y-102328034D01*
X105441801Y-102251444D01*
X105375854Y-102180103D01*
X105342227Y-102088953D01*
X105346041Y-101991873D01*
X105386715Y-101903642D01*
X105441802Y-101848555D01*
X105547219Y-101771966D01*
X105691966Y-101627219D01*
X105812287Y-101461610D01*
X105905220Y-101279219D01*
X105968477Y-101084534D01*
X105994273Y-100921669D01*
X106000499Y-100882361D01*
X106000500Y-100882349D01*
X106000500Y-100677650D01*
X106000499Y-100677638D01*
X105968477Y-100475468D01*
X105968477Y-100475466D01*
X105905220Y-100280781D01*
X105812287Y-100098390D01*
X105691966Y-99932781D01*
X105547219Y-99788034D01*
X105441801Y-99711444D01*
X105375854Y-99640103D01*
X105342227Y-99548953D01*
X105346041Y-99451873D01*
X105386715Y-99363642D01*
X105441802Y-99308555D01*
X105547219Y-99231966D01*
X105691966Y-99087219D01*
X105812287Y-98921610D01*
X105905220Y-98739219D01*
X105968477Y-98544534D01*
X105994273Y-98381669D01*
X106000499Y-98342361D01*
X106000500Y-98342349D01*
X106000500Y-98137650D01*
X106000499Y-98137638D01*
X105971700Y-97955815D01*
X105968477Y-97935466D01*
X105905220Y-97740781D01*
X105812287Y-97558390D01*
X105691966Y-97392781D01*
X105547219Y-97248034D01*
X105441801Y-97171444D01*
X105375854Y-97100103D01*
X105342227Y-97008953D01*
X105346041Y-96911873D01*
X105386715Y-96823642D01*
X105441802Y-96768555D01*
X105547219Y-96691966D01*
X105691966Y-96547219D01*
X105812287Y-96381610D01*
X105905220Y-96199219D01*
X105968477Y-96004534D01*
X105994273Y-95841669D01*
X106000499Y-95802361D01*
X106000500Y-95802349D01*
X106000500Y-95597650D01*
X106000499Y-95597638D01*
X105968477Y-95395468D01*
X105968477Y-95395466D01*
X105905220Y-95200781D01*
X105812287Y-95018390D01*
X105691966Y-94852781D01*
X105547219Y-94708034D01*
X105441801Y-94631444D01*
X105375854Y-94560103D01*
X105342227Y-94468953D01*
X105346041Y-94371873D01*
X105386715Y-94283642D01*
X105441802Y-94228555D01*
X105547219Y-94151966D01*
X105691966Y-94007219D01*
X105812287Y-93841610D01*
X105905220Y-93659219D01*
X105968477Y-93464534D01*
X105995597Y-93293308D01*
X106000499Y-93262361D01*
X106000500Y-93262349D01*
X106000500Y-93057650D01*
X106000499Y-93057638D01*
X105968477Y-92855468D01*
X105968477Y-92855466D01*
X105905220Y-92660781D01*
X105894467Y-92639678D01*
X105812288Y-92478392D01*
X105797143Y-92457546D01*
X105691966Y-92312781D01*
X105547219Y-92168034D01*
X105441801Y-92091444D01*
X105375854Y-92020103D01*
X105342227Y-91928953D01*
X105346041Y-91831873D01*
X105386715Y-91743642D01*
X105441802Y-91688555D01*
X105547219Y-91611966D01*
X105691966Y-91467219D01*
X105812287Y-91301610D01*
X105905220Y-91119219D01*
X105968477Y-90924534D01*
X105994273Y-90761669D01*
X106000499Y-90722361D01*
X106000500Y-90722349D01*
X106000500Y-90517650D01*
X106000499Y-90517638D01*
X105968477Y-90315468D01*
X105968477Y-90315466D01*
X105905220Y-90120781D01*
X105812287Y-89938390D01*
X105691966Y-89772781D01*
X105547219Y-89628034D01*
X105381610Y-89507713D01*
X105381609Y-89507712D01*
X105381607Y-89507711D01*
X105199224Y-89414782D01*
X105199214Y-89414778D01*
X105004531Y-89351522D01*
X104802361Y-89319500D01*
X104802352Y-89319500D01*
X103797648Y-89319500D01*
X103797638Y-89319500D01*
X103595468Y-89351522D01*
X103400785Y-89414778D01*
X103400775Y-89414782D01*
X103218392Y-89507711D01*
X103052779Y-89628035D01*
X102908035Y-89772779D01*
X102787711Y-89938392D01*
X102694782Y-90120775D01*
X102694778Y-90120785D01*
X102631522Y-90315468D01*
X102599500Y-90517638D01*
X102599500Y-90722361D01*
X102631522Y-90924531D01*
X102694778Y-91119214D01*
X102694782Y-91119224D01*
X102787711Y-91301607D01*
X102908035Y-91467220D01*
X103052781Y-91611966D01*
X103052785Y-91611969D01*
X103158196Y-91688555D01*
X103224145Y-91759898D01*
X103257772Y-91851048D01*
X103253958Y-91948128D01*
X103213283Y-92036358D01*
X103158196Y-92091445D01*
X103052785Y-92168030D01*
X103052781Y-92168033D01*
X102908035Y-92312779D01*
X102787711Y-92478392D01*
X102694782Y-92660775D01*
X102694778Y-92660785D01*
X102631522Y-92855468D01*
X102599500Y-93057638D01*
X102599500Y-93262361D01*
X102631522Y-93464531D01*
X102694778Y-93659214D01*
X102694782Y-93659224D01*
X102787711Y-93841607D01*
X102787713Y-93841610D01*
X102878449Y-93966499D01*
X102908035Y-94007220D01*
X103052781Y-94151966D01*
X103052785Y-94151969D01*
X103158196Y-94228555D01*
X103224145Y-94299898D01*
X103257772Y-94391048D01*
X103253958Y-94488128D01*
X103213283Y-94576358D01*
X103158196Y-94631445D01*
X103052785Y-94708030D01*
X103052781Y-94708033D01*
X102908035Y-94852779D01*
X102787711Y-95018392D01*
X102694782Y-95200775D01*
X102694778Y-95200785D01*
X102631522Y-95395468D01*
X102599500Y-95597638D01*
X102599500Y-95802361D01*
X102631522Y-96004531D01*
X102694778Y-96199214D01*
X102694782Y-96199224D01*
X102787711Y-96381607D01*
X102908035Y-96547220D01*
X103052781Y-96691966D01*
X103052785Y-96691969D01*
X103158196Y-96768555D01*
X103224145Y-96839898D01*
X103257772Y-96931048D01*
X103253958Y-97028128D01*
X103213283Y-97116358D01*
X103158196Y-97171445D01*
X103052785Y-97248030D01*
X103052781Y-97248033D01*
X102908035Y-97392779D01*
X102787711Y-97558392D01*
X102694782Y-97740775D01*
X102694778Y-97740785D01*
X102631522Y-97935468D01*
X102599500Y-98137638D01*
X102599500Y-98342361D01*
X102631522Y-98544531D01*
X102694778Y-98739214D01*
X102694782Y-98739224D01*
X102787711Y-98921607D01*
X102908035Y-99087220D01*
X103052781Y-99231966D01*
X103052785Y-99231969D01*
X103158196Y-99308555D01*
X103224145Y-99379898D01*
X103257772Y-99471048D01*
X103253958Y-99568128D01*
X103213283Y-99656358D01*
X103158196Y-99711445D01*
X103052785Y-99788030D01*
X103052781Y-99788033D01*
X102908035Y-99932779D01*
X102787711Y-100098392D01*
X102694782Y-100280775D01*
X102694778Y-100280785D01*
X102631522Y-100475468D01*
X102599500Y-100677638D01*
X102599500Y-100882361D01*
X102631522Y-101084531D01*
X102694778Y-101279214D01*
X102694782Y-101279224D01*
X102787711Y-101461607D01*
X102908035Y-101627220D01*
X103052781Y-101771966D01*
X103052785Y-101771969D01*
X103158196Y-101848555D01*
X103224145Y-101919898D01*
X103257772Y-102011048D01*
X103253958Y-102108128D01*
X103213283Y-102196358D01*
X103158196Y-102251445D01*
X103052785Y-102328030D01*
X103052781Y-102328033D01*
X102908035Y-102472779D01*
X102787711Y-102638392D01*
X102694782Y-102820775D01*
X102694778Y-102820785D01*
X102631522Y-103015468D01*
X102599500Y-103217638D01*
X102599500Y-103422361D01*
X102631522Y-103624531D01*
X102694778Y-103819214D01*
X102694782Y-103819224D01*
X102787711Y-104001607D01*
X102787713Y-104001610D01*
X102878449Y-104126499D01*
X102908035Y-104167220D01*
X103052781Y-104311966D01*
X103052785Y-104311969D01*
X103158196Y-104388555D01*
X103224145Y-104459898D01*
X103257772Y-104551048D01*
X103253958Y-104648128D01*
X103213283Y-104736358D01*
X103158196Y-104791445D01*
X103052785Y-104868030D01*
X103052781Y-104868033D01*
X102908035Y-105012779D01*
X102787711Y-105178392D01*
X102694782Y-105360775D01*
X102694778Y-105360785D01*
X102631522Y-105555468D01*
X102599500Y-105757638D01*
X102599500Y-105962361D01*
X88605216Y-105962361D01*
X88507486Y-105925910D01*
X88507481Y-105925908D01*
X88447873Y-105919500D01*
X85952134Y-105919500D01*
X85952130Y-105919500D01*
X85952128Y-105919501D01*
X85939314Y-105920878D01*
X85892519Y-105925908D01*
X85892511Y-105925910D01*
X85787014Y-105965258D01*
X85691110Y-105980798D01*
X85612985Y-105965258D01*
X85507483Y-105925908D01*
X85447873Y-105919500D01*
X82952134Y-105919500D01*
X82952130Y-105919500D01*
X82952128Y-105919501D01*
X82939314Y-105920878D01*
X82892519Y-105925908D01*
X82892515Y-105925909D01*
X82757670Y-105976203D01*
X82642455Y-106062453D01*
X82642453Y-106062455D01*
X82556204Y-106177669D01*
X82505908Y-106312518D01*
X82499500Y-106372123D01*
X82499500Y-108867865D01*
X82499500Y-108867868D01*
X76300500Y-108867868D01*
X76300499Y-106372128D01*
X76294091Y-106312517D01*
X76243796Y-106177669D01*
X76157546Y-106062454D01*
X76042331Y-105976204D01*
X75907486Y-105925910D01*
X75907481Y-105925908D01*
X75847873Y-105919500D01*
X73352134Y-105919500D01*
X73352130Y-105919500D01*
X73352128Y-105919501D01*
X73339314Y-105920878D01*
X73292519Y-105925908D01*
X73292511Y-105925910D01*
X73187014Y-105965258D01*
X73091110Y-105980798D01*
X73012985Y-105965258D01*
X72907483Y-105925908D01*
X72847873Y-105919500D01*
X70352134Y-105919500D01*
X70352130Y-105919500D01*
X70352128Y-105919501D01*
X70339314Y-105920878D01*
X70292519Y-105925908D01*
X70292515Y-105925909D01*
X70157670Y-105976203D01*
X70042455Y-106062453D01*
X70042453Y-106062455D01*
X69956204Y-106177669D01*
X69905908Y-106312518D01*
X69899500Y-106372123D01*
X69899500Y-108867865D01*
X69899500Y-108867868D01*
X67500499Y-108867868D01*
X67500499Y-108736128D01*
X67494091Y-108676517D01*
X67443796Y-108541669D01*
X67357546Y-108426454D01*
X67242331Y-108340204D01*
X67112749Y-108291873D01*
X67107481Y-108289908D01*
X67047873Y-108283500D01*
X64952134Y-108283500D01*
X64952130Y-108283500D01*
X64952128Y-108283501D01*
X64939314Y-108284878D01*
X64892519Y-108289908D01*
X64892515Y-108289909D01*
X64757670Y-108340203D01*
X64642455Y-108426453D01*
X64642453Y-108426455D01*
X64556204Y-108541669D01*
X64505908Y-108676518D01*
X64499500Y-108736123D01*
X64499500Y-110831865D01*
X64499500Y-110831868D01*
X64499501Y-110831872D01*
X64501567Y-110851093D01*
X64505908Y-110891480D01*
X64505909Y-110891485D01*
X64534069Y-110966984D01*
X64549609Y-111062888D01*
X64534069Y-111141013D01*
X64505909Y-111216514D01*
X64499500Y-111276123D01*
X64499500Y-113371865D01*
X64499500Y-113371868D01*
X64499501Y-113371872D01*
X64501567Y-113391093D01*
X64505908Y-113431480D01*
X64505909Y-113431485D01*
X64534069Y-113506984D01*
X64549609Y-113602888D01*
X64534069Y-113681013D01*
X64505909Y-113756514D01*
X64499500Y-113816123D01*
X64499500Y-115911865D01*
X64499500Y-115911868D01*
X64499501Y-115911872D01*
X64501567Y-115931093D01*
X64505908Y-115971480D01*
X64505908Y-115971481D01*
X64505909Y-115971483D01*
X64533068Y-116044301D01*
X64534069Y-116046984D01*
X64549609Y-116142888D01*
X64534069Y-116221013D01*
X64505909Y-116296514D01*
X64499500Y-116356123D01*
X64499500Y-118451865D01*
X64499500Y-118451868D01*
X64499501Y-118451872D01*
X64501567Y-118471093D01*
X64505908Y-118511480D01*
X64505909Y-118511485D01*
X64534069Y-118586984D01*
X64549609Y-118682888D01*
X64534069Y-118761013D01*
X64505909Y-118836514D01*
X64499500Y-118896123D01*
X64499500Y-120991865D01*
X64499500Y-120991868D01*
X64499501Y-120991872D01*
X64501567Y-121011093D01*
X64505908Y-121051480D01*
X64505909Y-121051485D01*
X64534069Y-121126984D01*
X64549609Y-121222888D01*
X64534069Y-121301013D01*
X64505909Y-121376514D01*
X64499500Y-121436123D01*
X64499500Y-123531865D01*
X64499500Y-123531868D01*
X64499501Y-123531872D01*
X64501567Y-123551093D01*
X64505908Y-123591480D01*
X64505909Y-123591485D01*
X64534069Y-123666984D01*
X64549609Y-123762888D01*
X64534069Y-123841013D01*
X64505909Y-123916514D01*
X64499500Y-123976123D01*
X64499500Y-126071865D01*
X64499500Y-126071868D01*
X64499501Y-126071872D01*
X64501567Y-126091093D01*
X64505908Y-126131480D01*
X64505909Y-126131485D01*
X64534069Y-126206984D01*
X64549609Y-126302888D01*
X64534069Y-126381013D01*
X64505909Y-126456514D01*
X64499500Y-126516123D01*
X64499500Y-128611865D01*
X64499500Y-128611868D01*
X61105500Y-128611868D01*
X61105500Y-105751868D01*
X64499500Y-105751868D01*
X64499501Y-105751872D01*
X64500121Y-105757638D01*
X64505908Y-105811480D01*
X64505909Y-105811484D01*
X64548587Y-105925909D01*
X64556204Y-105946331D01*
X64642454Y-106061546D01*
X64757669Y-106147796D01*
X64892517Y-106198091D01*
X64952127Y-106204500D01*
X67047872Y-106204499D01*
X67107483Y-106198091D01*
X67242331Y-106147796D01*
X67357546Y-106061546D01*
X67443796Y-105946331D01*
X67494091Y-105811483D01*
X67500500Y-105751873D01*
X67500499Y-103656128D01*
X67494091Y-103596517D01*
X67465929Y-103521011D01*
X67450390Y-103425112D01*
X67465931Y-103346983D01*
X67478419Y-103313503D01*
X67494091Y-103271483D01*
X67500500Y-103211873D01*
X67500499Y-101116128D01*
X67494091Y-101056517D01*
X67465929Y-100981011D01*
X67450390Y-100885112D01*
X67465931Y-100806983D01*
X67494091Y-100731483D01*
X67494091Y-100731480D01*
X67500500Y-100671873D01*
X67500499Y-98576128D01*
X67494091Y-98516517D01*
X67465929Y-98441011D01*
X67450390Y-98345112D01*
X67465931Y-98266983D01*
X67484556Y-98217049D01*
X67494091Y-98191483D01*
X67500500Y-98131873D01*
X67500499Y-96036128D01*
X67494091Y-95976517D01*
X67465929Y-95901011D01*
X67450390Y-95805112D01*
X67465931Y-95726983D01*
X67474232Y-95704729D01*
X67494091Y-95651483D01*
X67500500Y-95591873D01*
X67500499Y-93496128D01*
X67494091Y-93436517D01*
X67465929Y-93361011D01*
X67450390Y-93265112D01*
X67465931Y-93186983D01*
X67494091Y-93111483D01*
X67498174Y-93073503D01*
X67500500Y-93051873D01*
X67500500Y-92147868D01*
X69699500Y-92147868D01*
X69699501Y-92147872D01*
X69701567Y-92167093D01*
X69705908Y-92207480D01*
X69705909Y-92207484D01*
X69756203Y-92342329D01*
X69756204Y-92342331D01*
X69842454Y-92457546D01*
X69957669Y-92543796D01*
X70092514Y-92594090D01*
X70092517Y-92594091D01*
X70102535Y-92596458D01*
X70190911Y-92636816D01*
X70257115Y-92707922D01*
X70291069Y-92798951D01*
X70287603Y-92896044D01*
X70270947Y-92944017D01*
X70173260Y-93153506D01*
X70114365Y-93373305D01*
X70114363Y-93373320D01*
X70094532Y-93599994D01*
X70094532Y-93600005D01*
X70114363Y-93826679D01*
X70114365Y-93826694D01*
X70173261Y-94046496D01*
X70173262Y-94046499D01*
X70269428Y-94252727D01*
X70269436Y-94252741D01*
X70394620Y-94431523D01*
X70399953Y-94439139D01*
X70560861Y-94600047D01*
X70560864Y-94600049D01*
X70568549Y-94607734D01*
X70567650Y-94608632D01*
X70621362Y-94675552D01*
X70648552Y-94768825D01*
X70649500Y-94790534D01*
X70649500Y-95873920D01*
X70678341Y-96018911D01*
X70678342Y-96018914D01*
X70734912Y-96155487D01*
X70734916Y-96155495D01*
X70756974Y-96188507D01*
X70817048Y-96278416D01*
X72255681Y-97717048D01*
X73576570Y-99037937D01*
X73630546Y-99118719D01*
X73649500Y-99214007D01*
X73649500Y-102569465D01*
X73630546Y-102664753D01*
X73576570Y-102745535D01*
X73561159Y-102759655D01*
X73399949Y-102920865D01*
X73269436Y-103107258D01*
X73269428Y-103107272D01*
X73173262Y-103313500D01*
X73173261Y-103313503D01*
X73140516Y-103435711D01*
X73097545Y-103522847D01*
X73024500Y-103586906D01*
X72932501Y-103618136D01*
X72835555Y-103611782D01*
X72748419Y-103568811D01*
X72684360Y-103495766D01*
X72659484Y-103435711D01*
X72656805Y-103425712D01*
X72626739Y-103313504D01*
X72530568Y-103107266D01*
X72530565Y-103107262D01*
X72530563Y-103107258D01*
X72400050Y-102920865D01*
X72400049Y-102920864D01*
X72400047Y-102920861D01*
X72239139Y-102759953D01*
X72239135Y-102759950D01*
X72239134Y-102759949D01*
X72052741Y-102629436D01*
X72052727Y-102629428D01*
X71846499Y-102533262D01*
X71846496Y-102533261D01*
X71626694Y-102474365D01*
X71626679Y-102474363D01*
X71400006Y-102454532D01*
X71399994Y-102454532D01*
X71173320Y-102474363D01*
X71173305Y-102474365D01*
X70953503Y-102533261D01*
X70953500Y-102533262D01*
X70747272Y-102629428D01*
X70747258Y-102629436D01*
X70560865Y-102759949D01*
X70399949Y-102920865D01*
X70269436Y-103107258D01*
X70269428Y-103107272D01*
X70173262Y-103313500D01*
X70173261Y-103313503D01*
X70114365Y-103533305D01*
X70114363Y-103533320D01*
X70094532Y-103759994D01*
X70094532Y-103760005D01*
X70114363Y-103986679D01*
X70114365Y-103986694D01*
X70173261Y-104206496D01*
X70173262Y-104206499D01*
X70269428Y-104412727D01*
X70269436Y-104412741D01*
X70394620Y-104591523D01*
X70399953Y-104599139D01*
X70560861Y-104760047D01*
X70560864Y-104760049D01*
X70560865Y-104760050D01*
X70747258Y-104890563D01*
X70747262Y-104890565D01*
X70747266Y-104890568D01*
X70747270Y-104890569D01*
X70747272Y-104890571D01*
X70871008Y-104948270D01*
X70953504Y-104986739D01*
X71173308Y-105045635D01*
X71192984Y-105047356D01*
X71399994Y-105065468D01*
X71400000Y-105065468D01*
X71400006Y-105065468D01*
X71579668Y-105049749D01*
X71626692Y-105045635D01*
X71846496Y-104986739D01*
X72052734Y-104890568D01*
X72239139Y-104760047D01*
X72400047Y-104599139D01*
X72530568Y-104412734D01*
X72626739Y-104206496D01*
X72659484Y-104084286D01*
X72702454Y-103997152D01*
X72775499Y-103933093D01*
X72867498Y-103901863D01*
X72964445Y-103908217D01*
X73051581Y-103951187D01*
X73115640Y-104024232D01*
X73140516Y-104084288D01*
X73173261Y-104206496D01*
X73173262Y-104206499D01*
X73269428Y-104412727D01*
X73269436Y-104412741D01*
X73394620Y-104591523D01*
X73399953Y-104599139D01*
X73560861Y-104760047D01*
X73560864Y-104760049D01*
X73560865Y-104760050D01*
X73747258Y-104890563D01*
X73747262Y-104890565D01*
X73747266Y-104890568D01*
X73747270Y-104890569D01*
X73747272Y-104890571D01*
X73871008Y-104948270D01*
X73953504Y-104986739D01*
X74173308Y-105045635D01*
X74192984Y-105047356D01*
X74399994Y-105065468D01*
X74400000Y-105065468D01*
X74400006Y-105065468D01*
X74579668Y-105049749D01*
X74626692Y-105045635D01*
X74846496Y-104986739D01*
X75052734Y-104890568D01*
X75239139Y-104760047D01*
X75400047Y-104599139D01*
X75530568Y-104412734D01*
X75626739Y-104206496D01*
X75662164Y-104074286D01*
X75705133Y-103987153D01*
X75778178Y-103923094D01*
X75870176Y-103891863D01*
X75967123Y-103898217D01*
X76054259Y-103941187D01*
X76118318Y-104014232D01*
X76143194Y-104074285D01*
X76143195Y-104074289D01*
X76173262Y-104186499D01*
X76269428Y-104392727D01*
X76269436Y-104392741D01*
X76399949Y-104579134D01*
X76399953Y-104579139D01*
X76560861Y-104740047D01*
X76560864Y-104740049D01*
X76560865Y-104740050D01*
X76747258Y-104870563D01*
X76747262Y-104870565D01*
X76747266Y-104870568D01*
X76953504Y-104966739D01*
X77173308Y-105025635D01*
X77192984Y-105027356D01*
X77399994Y-105045468D01*
X77400000Y-105045468D01*
X77400006Y-105045468D01*
X77579668Y-105029749D01*
X77626692Y-105025635D01*
X77846496Y-104966739D01*
X78052734Y-104870568D01*
X78239139Y-104740047D01*
X78400047Y-104579139D01*
X78530568Y-104392734D01*
X78626739Y-104186496D01*
X78685635Y-103966692D01*
X78703718Y-103760005D01*
X78705468Y-103740005D01*
X78705468Y-103739994D01*
X78685636Y-103513320D01*
X78685635Y-103513308D01*
X78626739Y-103293504D01*
X78539894Y-103107266D01*
X78530571Y-103087272D01*
X78530563Y-103087258D01*
X78400050Y-102900865D01*
X78400049Y-102900864D01*
X78400047Y-102900861D01*
X78239139Y-102739953D01*
X78239135Y-102739950D01*
X78239134Y-102739949D01*
X78052741Y-102609436D01*
X78052727Y-102609428D01*
X77846499Y-102513262D01*
X77846496Y-102513261D01*
X77626694Y-102454365D01*
X77626679Y-102454363D01*
X77400006Y-102434532D01*
X77399994Y-102434532D01*
X77173320Y-102454363D01*
X77173305Y-102454365D01*
X76953503Y-102513261D01*
X76953500Y-102513262D01*
X76747272Y-102609428D01*
X76747258Y-102609436D01*
X76560865Y-102739949D01*
X76399949Y-102900865D01*
X76269436Y-103087258D01*
X76269428Y-103087272D01*
X76173262Y-103293500D01*
X76173258Y-103293511D01*
X76137835Y-103425712D01*
X76094865Y-103512848D01*
X76021820Y-103576907D01*
X75929821Y-103608136D01*
X75832874Y-103601781D01*
X75745738Y-103558811D01*
X75681679Y-103485766D01*
X75656805Y-103425715D01*
X75626739Y-103313504D01*
X75530568Y-103107266D01*
X75530565Y-103107262D01*
X75530563Y-103107258D01*
X75400050Y-102920865D01*
X75400049Y-102920864D01*
X75400047Y-102920861D01*
X75239139Y-102759953D01*
X75239135Y-102759950D01*
X75231451Y-102752266D01*
X75232348Y-102751368D01*
X75178629Y-102684431D01*
X75151447Y-102591156D01*
X75150500Y-102569465D01*
X75150500Y-98726081D01*
X75150499Y-98726079D01*
X75144764Y-98697247D01*
X75144764Y-98697242D01*
X75121659Y-98581090D01*
X75121659Y-98581088D01*
X75119602Y-98576123D01*
X75069762Y-98455801D01*
X75066454Y-98446555D01*
X74982955Y-98321589D01*
X74982949Y-98321582D01*
X74878416Y-98217048D01*
X74878416Y-98217049D01*
X72223430Y-95562062D01*
X72169454Y-95481280D01*
X72150500Y-95385992D01*
X72150500Y-94790534D01*
X72169454Y-94695246D01*
X72223430Y-94614464D01*
X72238843Y-94600341D01*
X72239132Y-94600051D01*
X72239139Y-94600047D01*
X72400047Y-94439139D01*
X72530568Y-94252734D01*
X72626739Y-94046496D01*
X72659484Y-93924286D01*
X72702454Y-93837152D01*
X72775499Y-93773093D01*
X72867498Y-93741863D01*
X72964445Y-93748217D01*
X73051581Y-93791187D01*
X73115640Y-93864232D01*
X73140516Y-93924288D01*
X73173261Y-94046496D01*
X73173262Y-94046499D01*
X73269428Y-94252727D01*
X73269436Y-94252741D01*
X73394620Y-94431523D01*
X73399953Y-94439139D01*
X73560861Y-94600047D01*
X73560864Y-94600049D01*
X73560865Y-94600050D01*
X73747258Y-94730563D01*
X73747262Y-94730565D01*
X73747266Y-94730568D01*
X73747270Y-94730569D01*
X73747272Y-94730571D01*
X73829308Y-94768825D01*
X73953504Y-94826739D01*
X74173308Y-94885635D01*
X74177389Y-94885992D01*
X74399994Y-94905468D01*
X74400000Y-94905468D01*
X74400006Y-94905468D01*
X74579668Y-94889749D01*
X74626692Y-94885635D01*
X74846496Y-94826739D01*
X75052734Y-94730568D01*
X75239139Y-94600047D01*
X75400047Y-94439139D01*
X75530568Y-94252734D01*
X75626739Y-94046496D01*
X75685635Y-93826692D01*
X75693057Y-93741863D01*
X75705468Y-93600005D01*
X75705468Y-93599994D01*
X75685636Y-93373320D01*
X75685635Y-93373308D01*
X75626739Y-93153504D01*
X75530568Y-92947266D01*
X75530566Y-92947264D01*
X75529053Y-92944018D01*
X75505960Y-92849647D01*
X75520739Y-92753623D01*
X75571140Y-92670564D01*
X75649490Y-92613115D01*
X75697464Y-92596458D01*
X75707477Y-92594091D01*
X75707483Y-92594091D01*
X75842331Y-92543796D01*
X75957546Y-92457546D01*
X76043796Y-92342331D01*
X76094091Y-92207483D01*
X76100500Y-92147873D01*
X76100500Y-92147868D01*
X82324500Y-92147868D01*
X82324501Y-92147872D01*
X82326567Y-92167093D01*
X82330908Y-92207480D01*
X82330909Y-92207484D01*
X82381203Y-92342329D01*
X82381204Y-92342331D01*
X82467454Y-92457546D01*
X82582669Y-92543796D01*
X82702852Y-92588621D01*
X82785507Y-92639678D01*
X82842333Y-92718481D01*
X82864676Y-92813032D01*
X82849136Y-92908936D01*
X82841506Y-92927153D01*
X82773260Y-93073506D01*
X82714365Y-93293305D01*
X82714363Y-93293320D01*
X82694532Y-93519994D01*
X82694532Y-93520005D01*
X82714363Y-93746679D01*
X82714365Y-93746694D01*
X82773261Y-93966496D01*
X82773262Y-93966499D01*
X82869428Y-94172727D01*
X82869436Y-94172741D01*
X82958472Y-94299898D01*
X82999953Y-94359139D01*
X83160861Y-94520047D01*
X83160864Y-94520049D01*
X83168549Y-94527734D01*
X83167650Y-94528632D01*
X83221362Y-94595552D01*
X83248552Y-94688825D01*
X83249500Y-94710534D01*
X83249500Y-95373920D01*
X83278341Y-95518911D01*
X83278342Y-95518913D01*
X83334916Y-95655495D01*
X83367813Y-95704729D01*
X83417048Y-95778416D01*
X84886663Y-97248030D01*
X86176570Y-98537937D01*
X86230546Y-98618719D01*
X86249500Y-98714007D01*
X86249500Y-102489465D01*
X86230546Y-102584753D01*
X86176570Y-102665535D01*
X86161159Y-102679655D01*
X85999949Y-102840865D01*
X85869436Y-103027258D01*
X85869428Y-103027272D01*
X85773262Y-103233500D01*
X85773261Y-103233503D01*
X85740516Y-103355711D01*
X85697545Y-103442847D01*
X85624500Y-103506906D01*
X85532501Y-103538136D01*
X85435555Y-103531782D01*
X85348419Y-103488811D01*
X85284360Y-103415766D01*
X85259484Y-103355711D01*
X85248175Y-103313504D01*
X85226739Y-103233504D01*
X85167869Y-103107258D01*
X85130571Y-103027272D01*
X85130563Y-103027258D01*
X85000050Y-102840865D01*
X85000049Y-102840864D01*
X85000047Y-102840861D01*
X84839139Y-102679953D01*
X84839135Y-102679950D01*
X84839134Y-102679949D01*
X84652741Y-102549436D01*
X84652727Y-102549428D01*
X84446499Y-102453262D01*
X84446496Y-102453261D01*
X84226694Y-102394365D01*
X84226679Y-102394363D01*
X84000006Y-102374532D01*
X83999994Y-102374532D01*
X83773320Y-102394363D01*
X83773305Y-102394365D01*
X83553503Y-102453261D01*
X83553500Y-102453262D01*
X83347272Y-102549428D01*
X83347258Y-102549436D01*
X83160865Y-102679949D01*
X82999949Y-102840865D01*
X82869436Y-103027258D01*
X82869428Y-103027272D01*
X82773262Y-103233500D01*
X82773261Y-103233503D01*
X82714365Y-103453305D01*
X82714363Y-103453320D01*
X82694532Y-103679994D01*
X82694532Y-103680005D01*
X82714363Y-103906679D01*
X82714365Y-103906694D01*
X82773261Y-104126496D01*
X82773262Y-104126499D01*
X82869428Y-104332727D01*
X82869436Y-104332741D01*
X82958472Y-104459898D01*
X82999953Y-104519139D01*
X83160861Y-104680047D01*
X83160864Y-104680049D01*
X83160865Y-104680050D01*
X83347258Y-104810563D01*
X83347262Y-104810565D01*
X83347266Y-104810568D01*
X83553504Y-104906739D01*
X83773308Y-104965635D01*
X83785927Y-104966739D01*
X83999994Y-104985468D01*
X84000000Y-104985468D01*
X84000006Y-104985468D01*
X84179668Y-104969749D01*
X84226692Y-104965635D01*
X84446496Y-104906739D01*
X84652734Y-104810568D01*
X84839139Y-104680047D01*
X85000047Y-104519139D01*
X85130568Y-104332734D01*
X85226739Y-104126496D01*
X85259484Y-104004286D01*
X85302454Y-103917152D01*
X85375499Y-103853093D01*
X85467498Y-103821863D01*
X85564445Y-103828217D01*
X85651581Y-103871187D01*
X85715640Y-103944232D01*
X85740514Y-104004285D01*
X85773261Y-104126496D01*
X85773262Y-104126499D01*
X85869428Y-104332727D01*
X85869436Y-104332741D01*
X85958472Y-104459898D01*
X85999953Y-104519139D01*
X86160861Y-104680047D01*
X86160864Y-104680049D01*
X86160865Y-104680050D01*
X86347258Y-104810563D01*
X86347262Y-104810565D01*
X86347266Y-104810568D01*
X86553504Y-104906739D01*
X86773308Y-104965635D01*
X86785927Y-104966739D01*
X86999994Y-104985468D01*
X87000000Y-104985468D01*
X87000006Y-104985468D01*
X87179668Y-104969749D01*
X87226692Y-104965635D01*
X87446496Y-104906739D01*
X87652734Y-104810568D01*
X87839139Y-104680047D01*
X88000047Y-104519139D01*
X88130568Y-104332734D01*
X88226739Y-104126496D01*
X88259484Y-104004286D01*
X88302454Y-103917152D01*
X88375499Y-103853093D01*
X88467498Y-103821863D01*
X88564445Y-103828217D01*
X88651581Y-103871187D01*
X88715640Y-103944232D01*
X88740514Y-104004285D01*
X88773261Y-104126496D01*
X88773262Y-104126499D01*
X88869428Y-104332727D01*
X88869436Y-104332741D01*
X88958472Y-104459898D01*
X88999953Y-104519139D01*
X89160861Y-104680047D01*
X89160864Y-104680049D01*
X89160865Y-104680050D01*
X89347258Y-104810563D01*
X89347262Y-104810565D01*
X89347266Y-104810568D01*
X89553504Y-104906739D01*
X89773308Y-104965635D01*
X89785927Y-104966739D01*
X89999994Y-104985468D01*
X90000000Y-104985468D01*
X90000006Y-104985468D01*
X90179668Y-104969749D01*
X90226692Y-104965635D01*
X90446496Y-104906739D01*
X90652734Y-104810568D01*
X90839139Y-104680047D01*
X91000047Y-104519139D01*
X91130568Y-104332734D01*
X91226739Y-104126496D01*
X91285635Y-103906692D01*
X91293057Y-103821863D01*
X91305468Y-103680005D01*
X91305468Y-103679994D01*
X91285636Y-103453320D01*
X91285635Y-103453308D01*
X91277343Y-103422361D01*
X94979500Y-103422361D01*
X95011522Y-103624531D01*
X95074778Y-103819214D01*
X95074782Y-103819224D01*
X95167711Y-104001607D01*
X95167713Y-104001610D01*
X95288034Y-104167219D01*
X95432781Y-104311966D01*
X95598390Y-104432287D01*
X95598392Y-104432288D01*
X95768836Y-104519134D01*
X95780781Y-104525220D01*
X95975466Y-104588477D01*
X96042751Y-104599134D01*
X96177638Y-104620499D01*
X96177645Y-104620499D01*
X96177648Y-104620500D01*
X96177651Y-104620500D01*
X97182349Y-104620500D01*
X97182352Y-104620500D01*
X97182355Y-104620499D01*
X97182361Y-104620499D01*
X97277870Y-104605371D01*
X97384534Y-104588477D01*
X97579219Y-104525220D01*
X97761610Y-104432287D01*
X97927219Y-104311966D01*
X98071966Y-104167219D01*
X98192287Y-104001610D01*
X98285220Y-103819219D01*
X98348477Y-103624534D01*
X98375597Y-103453308D01*
X98380499Y-103422361D01*
X98380500Y-103422349D01*
X98380500Y-103217650D01*
X98380499Y-103217638D01*
X98350346Y-103027266D01*
X98348477Y-103015466D01*
X98285220Y-102820781D01*
X98254224Y-102759949D01*
X98192288Y-102638392D01*
X98192287Y-102638390D01*
X98071966Y-102472781D01*
X97927219Y-102328034D01*
X97821801Y-102251444D01*
X97755854Y-102180103D01*
X97722227Y-102088953D01*
X97726041Y-101991873D01*
X97766715Y-101903642D01*
X97821802Y-101848555D01*
X97927219Y-101771966D01*
X98071966Y-101627219D01*
X98192287Y-101461610D01*
X98285220Y-101279219D01*
X98348477Y-101084534D01*
X98374273Y-100921669D01*
X98380499Y-100882361D01*
X98380500Y-100882349D01*
X98380500Y-100677650D01*
X98380499Y-100677638D01*
X98348477Y-100475468D01*
X98348477Y-100475466D01*
X98285220Y-100280781D01*
X98192287Y-100098390D01*
X98071966Y-99932781D01*
X97927219Y-99788034D01*
X97821801Y-99711444D01*
X97755854Y-99640103D01*
X97722227Y-99548953D01*
X97726041Y-99451873D01*
X97766715Y-99363642D01*
X97821802Y-99308555D01*
X97927219Y-99231966D01*
X98071966Y-99087219D01*
X98192287Y-98921610D01*
X98285220Y-98739219D01*
X98348477Y-98544534D01*
X98374273Y-98381669D01*
X98380499Y-98342361D01*
X98380500Y-98342349D01*
X98380500Y-98137650D01*
X98380499Y-98137638D01*
X98351700Y-97955815D01*
X98348477Y-97935466D01*
X98285220Y-97740781D01*
X98192287Y-97558390D01*
X98071966Y-97392781D01*
X97927219Y-97248034D01*
X97821801Y-97171444D01*
X97755854Y-97100103D01*
X97722227Y-97008953D01*
X97726041Y-96911873D01*
X97766715Y-96823642D01*
X97821802Y-96768555D01*
X97927219Y-96691966D01*
X98071966Y-96547219D01*
X98192287Y-96381610D01*
X98285220Y-96199219D01*
X98348477Y-96004534D01*
X98374273Y-95841669D01*
X98380499Y-95802361D01*
X98380500Y-95802349D01*
X98380500Y-95597650D01*
X98380499Y-95597638D01*
X98348477Y-95395468D01*
X98348477Y-95395466D01*
X98285220Y-95200781D01*
X98192287Y-95018390D01*
X98071966Y-94852781D01*
X97927219Y-94708034D01*
X97821801Y-94631444D01*
X97755854Y-94560103D01*
X97722227Y-94468953D01*
X97726041Y-94371873D01*
X97766715Y-94283642D01*
X97821802Y-94228555D01*
X97927219Y-94151966D01*
X98071966Y-94007219D01*
X98192287Y-93841610D01*
X98285220Y-93659219D01*
X98348477Y-93464534D01*
X98375597Y-93293308D01*
X98380499Y-93262361D01*
X98380500Y-93262349D01*
X98380500Y-93057650D01*
X98380499Y-93057638D01*
X98348477Y-92855468D01*
X98348477Y-92855466D01*
X98285220Y-92660781D01*
X98274467Y-92639678D01*
X98192288Y-92478392D01*
X98177143Y-92457546D01*
X98071966Y-92312781D01*
X98032602Y-92273417D01*
X97978626Y-92192635D01*
X97959672Y-92097347D01*
X97978626Y-92002059D01*
X98032602Y-91921277D01*
X98113384Y-91867301D01*
X98121613Y-91864063D01*
X98122331Y-91863796D01*
X98237546Y-91777546D01*
X98323796Y-91662331D01*
X98374091Y-91527483D01*
X98380500Y-91467873D01*
X98380499Y-89772128D01*
X98374091Y-89712517D01*
X98323796Y-89577669D01*
X98237546Y-89462454D01*
X98122331Y-89376204D01*
X98031845Y-89342455D01*
X97987481Y-89325908D01*
X97927873Y-89319500D01*
X95432134Y-89319500D01*
X95432130Y-89319500D01*
X95432128Y-89319501D01*
X95419314Y-89320878D01*
X95372519Y-89325908D01*
X95372515Y-89325909D01*
X95237670Y-89376203D01*
X95122455Y-89462453D01*
X95122453Y-89462455D01*
X95036204Y-89577669D01*
X94985908Y-89712518D01*
X94979500Y-89772123D01*
X94979500Y-91467865D01*
X94979500Y-91467868D01*
X94979501Y-91467872D01*
X94981567Y-91487093D01*
X94985908Y-91527480D01*
X94985909Y-91527483D01*
X95036204Y-91662331D01*
X95122454Y-91777546D01*
X95237669Y-91863796D01*
X95238337Y-91864045D01*
X95239953Y-91865043D01*
X95253298Y-91872330D01*
X95252907Y-91873044D01*
X95320991Y-91915097D01*
X95377820Y-91993898D01*
X95400168Y-92088448D01*
X95384632Y-92184352D01*
X95333577Y-92267011D01*
X95327398Y-92273415D01*
X95288037Y-92312776D01*
X95167711Y-92478392D01*
X95074782Y-92660775D01*
X95074778Y-92660785D01*
X95011522Y-92855468D01*
X94979500Y-93057638D01*
X94979500Y-93262361D01*
X95011522Y-93464531D01*
X95074778Y-93659214D01*
X95074782Y-93659224D01*
X95167711Y-93841607D01*
X95167713Y-93841610D01*
X95258449Y-93966499D01*
X95288035Y-94007220D01*
X95432781Y-94151966D01*
X95432785Y-94151969D01*
X95538196Y-94228555D01*
X95604145Y-94299898D01*
X95637772Y-94391048D01*
X95633958Y-94488128D01*
X95593283Y-94576358D01*
X95538196Y-94631445D01*
X95432785Y-94708030D01*
X95432781Y-94708033D01*
X95288035Y-94852779D01*
X95167711Y-95018392D01*
X95074782Y-95200775D01*
X95074778Y-95200785D01*
X95011522Y-95395468D01*
X94979500Y-95597638D01*
X94979500Y-95802361D01*
X95011522Y-96004531D01*
X95074778Y-96199214D01*
X95074782Y-96199224D01*
X95167711Y-96381607D01*
X95288035Y-96547220D01*
X95432781Y-96691966D01*
X95432785Y-96691969D01*
X95538196Y-96768555D01*
X95604145Y-96839898D01*
X95637772Y-96931048D01*
X95633958Y-97028128D01*
X95593283Y-97116358D01*
X95538196Y-97171445D01*
X95432785Y-97248030D01*
X95432781Y-97248033D01*
X95288035Y-97392779D01*
X95167711Y-97558392D01*
X95074782Y-97740775D01*
X95074778Y-97740785D01*
X95011522Y-97935468D01*
X94979500Y-98137638D01*
X94979500Y-98342361D01*
X95011522Y-98544531D01*
X95074778Y-98739214D01*
X95074782Y-98739224D01*
X95167711Y-98921607D01*
X95288035Y-99087220D01*
X95432781Y-99231966D01*
X95432785Y-99231969D01*
X95538196Y-99308555D01*
X95604145Y-99379898D01*
X95637772Y-99471048D01*
X95633958Y-99568128D01*
X95593283Y-99656358D01*
X95538196Y-99711445D01*
X95432785Y-99788030D01*
X95432781Y-99788033D01*
X95288035Y-99932779D01*
X95167711Y-100098392D01*
X95074782Y-100280775D01*
X95074778Y-100280785D01*
X95011522Y-100475468D01*
X94979500Y-100677638D01*
X94979500Y-100882361D01*
X95011522Y-101084531D01*
X95074778Y-101279214D01*
X95074782Y-101279224D01*
X95167711Y-101461607D01*
X95288035Y-101627220D01*
X95432781Y-101771966D01*
X95432785Y-101771969D01*
X95538196Y-101848555D01*
X95604145Y-101919898D01*
X95637772Y-102011048D01*
X95633958Y-102108128D01*
X95593283Y-102196358D01*
X95538196Y-102251445D01*
X95432785Y-102328030D01*
X95432781Y-102328033D01*
X95288035Y-102472779D01*
X95167711Y-102638392D01*
X95074782Y-102820775D01*
X95074778Y-102820785D01*
X95011522Y-103015468D01*
X94979500Y-103217638D01*
X94979500Y-103422361D01*
X91277343Y-103422361D01*
X91226739Y-103233504D01*
X91167869Y-103107258D01*
X91130571Y-103027272D01*
X91130563Y-103027258D01*
X91000050Y-102840865D01*
X91000049Y-102840864D01*
X91000047Y-102840861D01*
X90839139Y-102679953D01*
X90839135Y-102679950D01*
X90839134Y-102679949D01*
X90652741Y-102549436D01*
X90652727Y-102549428D01*
X90446499Y-102453262D01*
X90446496Y-102453261D01*
X90226694Y-102394365D01*
X90226679Y-102394363D01*
X90000006Y-102374532D01*
X89999994Y-102374532D01*
X89773320Y-102394363D01*
X89773305Y-102394365D01*
X89553503Y-102453261D01*
X89553500Y-102453262D01*
X89347272Y-102549428D01*
X89347258Y-102549436D01*
X89160865Y-102679949D01*
X88999949Y-102840865D01*
X88869436Y-103027258D01*
X88869428Y-103027272D01*
X88773262Y-103233500D01*
X88773261Y-103233503D01*
X88740516Y-103355711D01*
X88697545Y-103442847D01*
X88624500Y-103506906D01*
X88532501Y-103538136D01*
X88435555Y-103531782D01*
X88348419Y-103488811D01*
X88284360Y-103415766D01*
X88259484Y-103355711D01*
X88248175Y-103313504D01*
X88226739Y-103233504D01*
X88167869Y-103107258D01*
X88130571Y-103027272D01*
X88130563Y-103027258D01*
X88000050Y-102840865D01*
X88000049Y-102840864D01*
X88000047Y-102840861D01*
X87839139Y-102679953D01*
X87839135Y-102679950D01*
X87831451Y-102672266D01*
X87832348Y-102671368D01*
X87778629Y-102604431D01*
X87751447Y-102511156D01*
X87750500Y-102489465D01*
X87750500Y-98226083D01*
X87748703Y-98217048D01*
X87741374Y-98180204D01*
X87721659Y-98081088D01*
X87669765Y-97955807D01*
X87666455Y-97946556D01*
X87582955Y-97821589D01*
X87582949Y-97821582D01*
X87478416Y-97717048D01*
X87478416Y-97717049D01*
X84823430Y-95062062D01*
X84769454Y-94981280D01*
X84750500Y-94885992D01*
X84750500Y-94710534D01*
X84769454Y-94615246D01*
X84823430Y-94534464D01*
X84838843Y-94520341D01*
X84839132Y-94520051D01*
X84839139Y-94520047D01*
X85000047Y-94359139D01*
X85130568Y-94172734D01*
X85226739Y-93966496D01*
X85259484Y-93844286D01*
X85302454Y-93757152D01*
X85375499Y-93693093D01*
X85467498Y-93661863D01*
X85564445Y-93668217D01*
X85651581Y-93711187D01*
X85715640Y-93784232D01*
X85740514Y-93844285D01*
X85773261Y-93966496D01*
X85773262Y-93966499D01*
X85869428Y-94172727D01*
X85869436Y-94172741D01*
X85958472Y-94299898D01*
X85999953Y-94359139D01*
X86160861Y-94520047D01*
X86160864Y-94520049D01*
X86160865Y-94520050D01*
X86347258Y-94650563D01*
X86347262Y-94650565D01*
X86347266Y-94650568D01*
X86553504Y-94746739D01*
X86773308Y-94805635D01*
X86792984Y-94807356D01*
X86999994Y-94825468D01*
X87000000Y-94825468D01*
X87000006Y-94825468D01*
X87179668Y-94809749D01*
X87226692Y-94805635D01*
X87446496Y-94746739D01*
X87652734Y-94650568D01*
X87839139Y-94520047D01*
X88000047Y-94359139D01*
X88130568Y-94172734D01*
X88226739Y-93966496D01*
X88285635Y-93746692D01*
X88293057Y-93661863D01*
X88305468Y-93520005D01*
X88305468Y-93519994D01*
X88285636Y-93293320D01*
X88285635Y-93293308D01*
X88226739Y-93073504D01*
X88165136Y-92941398D01*
X88142044Y-92847028D01*
X88156823Y-92751004D01*
X88207225Y-92667944D01*
X88285574Y-92610496D01*
X88327916Y-92595794D01*
X88332481Y-92594091D01*
X88332483Y-92594091D01*
X88467331Y-92543796D01*
X88582546Y-92457546D01*
X88668796Y-92342331D01*
X88719091Y-92207483D01*
X88725500Y-92147873D01*
X88725499Y-89652128D01*
X88719091Y-89592517D01*
X88668796Y-89457669D01*
X88582546Y-89342454D01*
X88467331Y-89256204D01*
X88332486Y-89205910D01*
X88332481Y-89205908D01*
X88272873Y-89199500D01*
X85777134Y-89199500D01*
X85777130Y-89199500D01*
X85777128Y-89199501D01*
X85764314Y-89200878D01*
X85717519Y-89205908D01*
X85717511Y-89205910D01*
X85612014Y-89245258D01*
X85516110Y-89260798D01*
X85437985Y-89245258D01*
X85332483Y-89205908D01*
X85272873Y-89199500D01*
X82777134Y-89199500D01*
X82777130Y-89199500D01*
X82777128Y-89199501D01*
X82764314Y-89200878D01*
X82717519Y-89205908D01*
X82717515Y-89205909D01*
X82582670Y-89256203D01*
X82467455Y-89342453D01*
X82467453Y-89342455D01*
X82381204Y-89457669D01*
X82330908Y-89592518D01*
X82324500Y-89652123D01*
X82324500Y-92147865D01*
X82324500Y-92147868D01*
X76100500Y-92147868D01*
X76100499Y-89652128D01*
X76094091Y-89592517D01*
X76043796Y-89457669D01*
X75957546Y-89342454D01*
X75842331Y-89256204D01*
X75707486Y-89205910D01*
X75707481Y-89205908D01*
X75647873Y-89199500D01*
X73152134Y-89199500D01*
X73152130Y-89199500D01*
X73152128Y-89199501D01*
X73139314Y-89200878D01*
X73092519Y-89205908D01*
X73092511Y-89205910D01*
X72987014Y-89245258D01*
X72891110Y-89260798D01*
X72812985Y-89245258D01*
X72707483Y-89205908D01*
X72647873Y-89199500D01*
X70152134Y-89199500D01*
X70152130Y-89199500D01*
X70152128Y-89199501D01*
X70139314Y-89200878D01*
X70092519Y-89205908D01*
X70092515Y-89205909D01*
X69957670Y-89256203D01*
X69842455Y-89342453D01*
X69842453Y-89342455D01*
X69756204Y-89457669D01*
X69705908Y-89592518D01*
X69699500Y-89652123D01*
X69699500Y-92147865D01*
X69699500Y-92147868D01*
X67500500Y-92147868D01*
X67500499Y-90956128D01*
X67494091Y-90896517D01*
X67465929Y-90821011D01*
X67450390Y-90725112D01*
X67465931Y-90646983D01*
X67466129Y-90646454D01*
X67494091Y-90571483D01*
X67500500Y-90511873D01*
X67500499Y-88416128D01*
X67494091Y-88356517D01*
X67465929Y-88281011D01*
X67450390Y-88185112D01*
X67465931Y-88106983D01*
X67494091Y-88031483D01*
X67494091Y-88031480D01*
X67500500Y-87971873D01*
X67500500Y-87971868D01*
X112759500Y-87971868D01*
X112759501Y-87971872D01*
X112761567Y-87991093D01*
X112765908Y-88031480D01*
X112765909Y-88031484D01*
X112794069Y-88106984D01*
X112816204Y-88166331D01*
X112902454Y-88281546D01*
X113017669Y-88367796D01*
X113152517Y-88418091D01*
X113212127Y-88424500D01*
X115307872Y-88424499D01*
X115367483Y-88418091D01*
X115502331Y-88367796D01*
X115617546Y-88281546D01*
X115703796Y-88166331D01*
X115754091Y-88031483D01*
X115760500Y-87971873D01*
X115760499Y-85876128D01*
X115754091Y-85816517D01*
X115725929Y-85741011D01*
X115710390Y-85645112D01*
X115725931Y-85566983D01*
X115726129Y-85566454D01*
X115754091Y-85491483D01*
X115760500Y-85431873D01*
X115760499Y-83336128D01*
X115754091Y-83276517D01*
X115703796Y-83141669D01*
X115617546Y-83026454D01*
X115502331Y-82940204D01*
X115422117Y-82910286D01*
X115367481Y-82889908D01*
X115307873Y-82883500D01*
X113212134Y-82883500D01*
X113212130Y-82883500D01*
X113212128Y-82883501D01*
X113199314Y-82884878D01*
X113152519Y-82889908D01*
X113152515Y-82889909D01*
X113017670Y-82940203D01*
X112902455Y-83026453D01*
X112902453Y-83026455D01*
X112816204Y-83141669D01*
X112765908Y-83276518D01*
X112759500Y-83336123D01*
X112759500Y-85431865D01*
X112759500Y-85431868D01*
X112759501Y-85431872D01*
X112761567Y-85451093D01*
X112765908Y-85491480D01*
X112765909Y-85491485D01*
X112794069Y-85566984D01*
X112809609Y-85662888D01*
X112794069Y-85741013D01*
X112765909Y-85816514D01*
X112759500Y-85876123D01*
X112759500Y-87971865D01*
X112759500Y-87971868D01*
X67500500Y-87971868D01*
X67500499Y-85876128D01*
X67494091Y-85816517D01*
X67443796Y-85681669D01*
X67357546Y-85566454D01*
X67242331Y-85480204D01*
X67117122Y-85433504D01*
X67107481Y-85429908D01*
X67047873Y-85423500D01*
X64952134Y-85423500D01*
X64952130Y-85423500D01*
X64952128Y-85423501D01*
X64939314Y-85424878D01*
X64892519Y-85429908D01*
X64892515Y-85429909D01*
X64757670Y-85480203D01*
X64642455Y-85566453D01*
X64642453Y-85566455D01*
X64556204Y-85681669D01*
X64505908Y-85816518D01*
X64499500Y-85876123D01*
X64499500Y-87971865D01*
X64499500Y-87971868D01*
X64499501Y-87971872D01*
X64501567Y-87991093D01*
X64505908Y-88031480D01*
X64505909Y-88031485D01*
X64534069Y-88106984D01*
X64549609Y-88202888D01*
X64534069Y-88281013D01*
X64505909Y-88356514D01*
X64499500Y-88416123D01*
X64499500Y-90511865D01*
X64499500Y-90511868D01*
X64499501Y-90511872D01*
X64500121Y-90517638D01*
X64505908Y-90571480D01*
X64505909Y-90571485D01*
X64534069Y-90646984D01*
X64549609Y-90742888D01*
X64534069Y-90821013D01*
X64505909Y-90896514D01*
X64499500Y-90956123D01*
X64499500Y-93051865D01*
X64499500Y-93051868D01*
X64499501Y-93051872D01*
X64500121Y-93057638D01*
X64505908Y-93111480D01*
X64505909Y-93111485D01*
X64534069Y-93186984D01*
X64549609Y-93282888D01*
X64534069Y-93361013D01*
X64505909Y-93436514D01*
X64499500Y-93496123D01*
X64499500Y-95591865D01*
X64499500Y-95591868D01*
X64499501Y-95591872D01*
X64500121Y-95597638D01*
X64505908Y-95651480D01*
X64505909Y-95651485D01*
X64534069Y-95726984D01*
X64549609Y-95822888D01*
X64534069Y-95901013D01*
X64505909Y-95976514D01*
X64499500Y-96036123D01*
X64499500Y-98131865D01*
X64499500Y-98131868D01*
X64499501Y-98131872D01*
X64500121Y-98137638D01*
X64505908Y-98191480D01*
X64505909Y-98191485D01*
X64534069Y-98266984D01*
X64549609Y-98362888D01*
X64534069Y-98441013D01*
X64505909Y-98516514D01*
X64499500Y-98576123D01*
X64499500Y-100671865D01*
X64499500Y-100671868D01*
X64499501Y-100671872D01*
X64500121Y-100677638D01*
X64505908Y-100731480D01*
X64505909Y-100731485D01*
X64534069Y-100806984D01*
X64549609Y-100902888D01*
X64534069Y-100981013D01*
X64505909Y-101056514D01*
X64499500Y-101116123D01*
X64499500Y-103211865D01*
X64499500Y-103211868D01*
X64499501Y-103211872D01*
X64500121Y-103217638D01*
X64505908Y-103271480D01*
X64505909Y-103271485D01*
X64534069Y-103346984D01*
X64549609Y-103442888D01*
X64534069Y-103521013D01*
X64505909Y-103596514D01*
X64499500Y-103656123D01*
X64499500Y-105751865D01*
X64499500Y-105751868D01*
X61105500Y-105751868D01*
X61105500Y-83907868D01*
X64499500Y-83907868D01*
X64499501Y-83907872D01*
X64501567Y-83927093D01*
X64505908Y-83967480D01*
X64505909Y-83967483D01*
X64556204Y-84102331D01*
X64642454Y-84217546D01*
X64757669Y-84303796D01*
X64892517Y-84354091D01*
X64952127Y-84360500D01*
X67047872Y-84360499D01*
X67107483Y-84354091D01*
X67242331Y-84303796D01*
X67357546Y-84217546D01*
X67443796Y-84102331D01*
X67494091Y-83967483D01*
X67500500Y-83907873D01*
X67500499Y-81812128D01*
X67494091Y-81752517D01*
X67465929Y-81677011D01*
X67450390Y-81581112D01*
X67465931Y-81502983D01*
X67494091Y-81427483D01*
X67494091Y-81427480D01*
X67500500Y-81367873D01*
X67500499Y-79272128D01*
X67494091Y-79212517D01*
X67465929Y-79137011D01*
X67450390Y-79041112D01*
X67465931Y-78962983D01*
X67494091Y-78887483D01*
X67494091Y-78887480D01*
X67500500Y-78827873D01*
X67500499Y-76732128D01*
X67494091Y-76672517D01*
X67465929Y-76597011D01*
X67450390Y-76501112D01*
X67465931Y-76422983D01*
X67484676Y-76372727D01*
X67494091Y-76347483D01*
X67500500Y-76287873D01*
X67500499Y-74247868D01*
X70299500Y-74247868D01*
X70299501Y-74247872D01*
X70301567Y-74267093D01*
X70305908Y-74307480D01*
X70305909Y-74307483D01*
X70356204Y-74442331D01*
X70442454Y-74557546D01*
X70557669Y-74643796D01*
X70692517Y-74694091D01*
X70692518Y-74694091D01*
X70692521Y-74694092D01*
X70707674Y-74697673D01*
X70706928Y-74700827D01*
X70774394Y-74721940D01*
X70848953Y-74784230D01*
X70894000Y-74870310D01*
X70902676Y-74967077D01*
X70873660Y-75059798D01*
X70870745Y-75064990D01*
X70869432Y-75067263D01*
X70773262Y-75273500D01*
X70773261Y-75273503D01*
X70714365Y-75493305D01*
X70714363Y-75493320D01*
X70694532Y-75719994D01*
X70694532Y-75720005D01*
X70714363Y-75946679D01*
X70714365Y-75946694D01*
X70773261Y-76166496D01*
X70773262Y-76166499D01*
X70869428Y-76372727D01*
X70869436Y-76372741D01*
X70999949Y-76559134D01*
X70999953Y-76559139D01*
X71160861Y-76720047D01*
X71160864Y-76720049D01*
X71168549Y-76727734D01*
X71167650Y-76728632D01*
X71221362Y-76795552D01*
X71248552Y-76888825D01*
X71249500Y-76910534D01*
X71249500Y-77273920D01*
X71278341Y-77418911D01*
X71278342Y-77418913D01*
X71334916Y-77555495D01*
X71367813Y-77604729D01*
X71417048Y-77678416D01*
X72875646Y-79137013D01*
X74176570Y-80437937D01*
X74230546Y-80518719D01*
X74249500Y-80614007D01*
X74249500Y-84689465D01*
X74230546Y-84784753D01*
X74176570Y-84865535D01*
X74161159Y-84879655D01*
X73999949Y-85040865D01*
X73869436Y-85227258D01*
X73869428Y-85227272D01*
X73773262Y-85433500D01*
X73773261Y-85433503D01*
X73740516Y-85555711D01*
X73697545Y-85642847D01*
X73624500Y-85706906D01*
X73532501Y-85738136D01*
X73435555Y-85731782D01*
X73348419Y-85688811D01*
X73284360Y-85615766D01*
X73259484Y-85555711D01*
X73254125Y-85535711D01*
X73226739Y-85433504D01*
X73130568Y-85227266D01*
X73130565Y-85227262D01*
X73130563Y-85227258D01*
X73000050Y-85040865D01*
X73000049Y-85040864D01*
X73000047Y-85040861D01*
X72839139Y-84879953D01*
X72839135Y-84879950D01*
X72839134Y-84879949D01*
X72652741Y-84749436D01*
X72652727Y-84749428D01*
X72446499Y-84653262D01*
X72446496Y-84653261D01*
X72226694Y-84594365D01*
X72226679Y-84594363D01*
X72000006Y-84574532D01*
X71999994Y-84574532D01*
X71773320Y-84594363D01*
X71773305Y-84594365D01*
X71553503Y-84653261D01*
X71553500Y-84653262D01*
X71347272Y-84749428D01*
X71347258Y-84749436D01*
X71160865Y-84879949D01*
X70999949Y-85040865D01*
X70869436Y-85227258D01*
X70869428Y-85227272D01*
X70773262Y-85433500D01*
X70773261Y-85433503D01*
X70714365Y-85653305D01*
X70714363Y-85653320D01*
X70694532Y-85879994D01*
X70694532Y-85880005D01*
X70714363Y-86106679D01*
X70714365Y-86106694D01*
X70773261Y-86326496D01*
X70773262Y-86326499D01*
X70869428Y-86532727D01*
X70869436Y-86532741D01*
X70999949Y-86719134D01*
X70999953Y-86719139D01*
X71160861Y-86880047D01*
X71160864Y-86880049D01*
X71160865Y-86880050D01*
X71347258Y-87010563D01*
X71347262Y-87010565D01*
X71347266Y-87010568D01*
X71553504Y-87106739D01*
X71773308Y-87165635D01*
X71792984Y-87167356D01*
X71999994Y-87185468D01*
X72000000Y-87185468D01*
X72000006Y-87185468D01*
X72179668Y-87169749D01*
X72226692Y-87165635D01*
X72446496Y-87106739D01*
X72652734Y-87010568D01*
X72839139Y-86880047D01*
X73000047Y-86719139D01*
X73130568Y-86532734D01*
X73226739Y-86326496D01*
X73259484Y-86204286D01*
X73302454Y-86117152D01*
X73375499Y-86053093D01*
X73467498Y-86021863D01*
X73564445Y-86028217D01*
X73651581Y-86071187D01*
X73715640Y-86144232D01*
X73740516Y-86204288D01*
X73773261Y-86326496D01*
X73773262Y-86326499D01*
X73869428Y-86532727D01*
X73869436Y-86532741D01*
X73999949Y-86719134D01*
X73999953Y-86719139D01*
X74160861Y-86880047D01*
X74160864Y-86880049D01*
X74160865Y-86880050D01*
X74347258Y-87010563D01*
X74347262Y-87010565D01*
X74347266Y-87010568D01*
X74553504Y-87106739D01*
X74773308Y-87165635D01*
X74792984Y-87167356D01*
X74999994Y-87185468D01*
X75000000Y-87185468D01*
X75000006Y-87185468D01*
X75179668Y-87169749D01*
X75226692Y-87165635D01*
X75446496Y-87106739D01*
X75652734Y-87010568D01*
X75839139Y-86880047D01*
X76000047Y-86719139D01*
X76130568Y-86532734D01*
X76226739Y-86326496D01*
X76259484Y-86204286D01*
X76302454Y-86117152D01*
X76375499Y-86053093D01*
X76467498Y-86021863D01*
X76564445Y-86028217D01*
X76651581Y-86071187D01*
X76715640Y-86144232D01*
X76740516Y-86204288D01*
X76773261Y-86326496D01*
X76773262Y-86326499D01*
X76869428Y-86532727D01*
X76869436Y-86532741D01*
X76999949Y-86719134D01*
X76999953Y-86719139D01*
X77160861Y-86880047D01*
X77160864Y-86880049D01*
X77160865Y-86880050D01*
X77347258Y-87010563D01*
X77347262Y-87010565D01*
X77347266Y-87010568D01*
X77553504Y-87106739D01*
X77773308Y-87165635D01*
X77792984Y-87167356D01*
X77999994Y-87185468D01*
X78000000Y-87185468D01*
X78000006Y-87185468D01*
X78179668Y-87169749D01*
X78226692Y-87165635D01*
X78446496Y-87106739D01*
X78652734Y-87010568D01*
X78839139Y-86880047D01*
X79000047Y-86719139D01*
X79130568Y-86532734D01*
X79226739Y-86326496D01*
X79285635Y-86106692D01*
X79293057Y-86021863D01*
X79305468Y-85880005D01*
X79305468Y-85879994D01*
X79286473Y-85662888D01*
X79285635Y-85653308D01*
X79226739Y-85433504D01*
X79130568Y-85227266D01*
X79130565Y-85227262D01*
X79130563Y-85227258D01*
X79000050Y-85040865D01*
X79000049Y-85040864D01*
X79000047Y-85040861D01*
X78839139Y-84879953D01*
X78839135Y-84879950D01*
X78839134Y-84879949D01*
X78652741Y-84749436D01*
X78652727Y-84749428D01*
X78446499Y-84653262D01*
X78446496Y-84653261D01*
X78226694Y-84594365D01*
X78226679Y-84594363D01*
X78000006Y-84574532D01*
X77999994Y-84574532D01*
X77773320Y-84594363D01*
X77773305Y-84594365D01*
X77553503Y-84653261D01*
X77553500Y-84653262D01*
X77347272Y-84749428D01*
X77347258Y-84749436D01*
X77160865Y-84879949D01*
X76999949Y-85040865D01*
X76869436Y-85227258D01*
X76869428Y-85227272D01*
X76773262Y-85433500D01*
X76773261Y-85433503D01*
X76740516Y-85555711D01*
X76697545Y-85642847D01*
X76624500Y-85706906D01*
X76532501Y-85738136D01*
X76435555Y-85731782D01*
X76348419Y-85688811D01*
X76284360Y-85615766D01*
X76259484Y-85555711D01*
X76254125Y-85535711D01*
X76226739Y-85433504D01*
X76130568Y-85227266D01*
X76130565Y-85227262D01*
X76130563Y-85227258D01*
X76000050Y-85040865D01*
X76000049Y-85040864D01*
X76000047Y-85040861D01*
X75839139Y-84879953D01*
X75839135Y-84879950D01*
X75831451Y-84872266D01*
X75832348Y-84871368D01*
X75778629Y-84804431D01*
X75751447Y-84711156D01*
X75750500Y-84689465D01*
X75750500Y-80126083D01*
X75732366Y-80034916D01*
X75732366Y-80034915D01*
X75721659Y-79981089D01*
X75721659Y-79981088D01*
X75669762Y-79855801D01*
X75666454Y-79846555D01*
X75582955Y-79721589D01*
X75582949Y-79721582D01*
X75478416Y-79617048D01*
X75478416Y-79617049D01*
X72886346Y-77024978D01*
X72832370Y-76944196D01*
X72813416Y-76848908D01*
X72832370Y-76753620D01*
X72886341Y-76672844D01*
X73000047Y-76559139D01*
X73130568Y-76372734D01*
X73226739Y-76166496D01*
X73259484Y-76044286D01*
X73302454Y-75957152D01*
X73375499Y-75893093D01*
X73467498Y-75861863D01*
X73564445Y-75868217D01*
X73651581Y-75911187D01*
X73715640Y-75984232D01*
X73740516Y-76044288D01*
X73773261Y-76166496D01*
X73773262Y-76166499D01*
X73869428Y-76372727D01*
X73869436Y-76372741D01*
X73999949Y-76559134D01*
X73999953Y-76559139D01*
X74160861Y-76720047D01*
X74160864Y-76720049D01*
X74160865Y-76720050D01*
X74347258Y-76850563D01*
X74347262Y-76850565D01*
X74347266Y-76850568D01*
X74553504Y-76946739D01*
X74773308Y-77005635D01*
X74792984Y-77007356D01*
X74999994Y-77025468D01*
X75000000Y-77025468D01*
X75000006Y-77025468D01*
X75179668Y-77009749D01*
X75226692Y-77005635D01*
X75446496Y-76946739D01*
X75652734Y-76850568D01*
X75839139Y-76720047D01*
X76000047Y-76559139D01*
X76130568Y-76372734D01*
X76226739Y-76166496D01*
X76285635Y-75946692D01*
X76293057Y-75861863D01*
X76305468Y-75720005D01*
X76305468Y-75719994D01*
X76286473Y-75502888D01*
X76285635Y-75493308D01*
X76226739Y-75273504D01*
X76130568Y-75067266D01*
X76130565Y-75067262D01*
X76129259Y-75064999D01*
X76128583Y-75063009D01*
X76125974Y-75057413D01*
X76126587Y-75057127D01*
X76098032Y-74972999D01*
X76104388Y-74876052D01*
X76147360Y-74788918D01*
X76220406Y-74724860D01*
X76292926Y-74700244D01*
X76292319Y-74697674D01*
X76307477Y-74694091D01*
X76307483Y-74694091D01*
X76442331Y-74643796D01*
X76557546Y-74557546D01*
X76643796Y-74442331D01*
X76694091Y-74307483D01*
X76700500Y-74247873D01*
X76700500Y-74247868D01*
X82824500Y-74247868D01*
X82824501Y-74247872D01*
X82826567Y-74267093D01*
X82830908Y-74307480D01*
X82830909Y-74307483D01*
X82881204Y-74442331D01*
X82967454Y-74557546D01*
X83082669Y-74643796D01*
X83217517Y-74694091D01*
X83217518Y-74694091D01*
X83232111Y-74699534D01*
X83230843Y-74702931D01*
X83293392Y-74731495D01*
X83359596Y-74802601D01*
X83393550Y-74893630D01*
X83390084Y-74990723D01*
X83373428Y-75038696D01*
X83273260Y-75253506D01*
X83214365Y-75473305D01*
X83214363Y-75473320D01*
X83194532Y-75699994D01*
X83194532Y-75700005D01*
X83214363Y-75926679D01*
X83214365Y-75926694D01*
X83273261Y-76146496D01*
X83273262Y-76146499D01*
X83369428Y-76352727D01*
X83369436Y-76352741D01*
X83499949Y-76539134D01*
X83499953Y-76539139D01*
X83660861Y-76700047D01*
X83660864Y-76700049D01*
X83668549Y-76707734D01*
X83667650Y-76708632D01*
X83721362Y-76775552D01*
X83748552Y-76868825D01*
X83749500Y-76890534D01*
X83749500Y-78273920D01*
X83778341Y-78418911D01*
X83778342Y-78418913D01*
X83834916Y-78555495D01*
X83867813Y-78604729D01*
X83917048Y-78678416D01*
X85355681Y-80117048D01*
X86676570Y-81437937D01*
X86730546Y-81518719D01*
X86749500Y-81614007D01*
X86749500Y-84669465D01*
X86730546Y-84764753D01*
X86676570Y-84845535D01*
X86661159Y-84859655D01*
X86499949Y-85020865D01*
X86369436Y-85207258D01*
X86369428Y-85207272D01*
X86273262Y-85413500D01*
X86273261Y-85413503D01*
X86240516Y-85535711D01*
X86197545Y-85622847D01*
X86124500Y-85686906D01*
X86032501Y-85718136D01*
X85935555Y-85711782D01*
X85848419Y-85668811D01*
X85784360Y-85595766D01*
X85759484Y-85535711D01*
X85744611Y-85480204D01*
X85726739Y-85413504D01*
X85639894Y-85227266D01*
X85630571Y-85207272D01*
X85630563Y-85207258D01*
X85500050Y-85020865D01*
X85500049Y-85020864D01*
X85500047Y-85020861D01*
X85339139Y-84859953D01*
X85339135Y-84859950D01*
X85339134Y-84859949D01*
X85152741Y-84729436D01*
X85152727Y-84729428D01*
X84946499Y-84633262D01*
X84946496Y-84633261D01*
X84726694Y-84574365D01*
X84726679Y-84574363D01*
X84500006Y-84554532D01*
X84499994Y-84554532D01*
X84273320Y-84574363D01*
X84273305Y-84574365D01*
X84053503Y-84633261D01*
X84053500Y-84633262D01*
X83847272Y-84729428D01*
X83847258Y-84729436D01*
X83660865Y-84859949D01*
X83499949Y-85020865D01*
X83369436Y-85207258D01*
X83369428Y-85207272D01*
X83273262Y-85413500D01*
X83273261Y-85413503D01*
X83214365Y-85633305D01*
X83214363Y-85633320D01*
X83194532Y-85859994D01*
X83194532Y-85860005D01*
X83214363Y-86086679D01*
X83214365Y-86086694D01*
X83273261Y-86306496D01*
X83273262Y-86306499D01*
X83369428Y-86512727D01*
X83369436Y-86512741D01*
X83499949Y-86699134D01*
X83499953Y-86699139D01*
X83660861Y-86860047D01*
X83660864Y-86860049D01*
X83660865Y-86860050D01*
X83847258Y-86990563D01*
X83847262Y-86990565D01*
X83847266Y-86990568D01*
X84053504Y-87086739D01*
X84273308Y-87145635D01*
X84292984Y-87147356D01*
X84499994Y-87165468D01*
X84500000Y-87165468D01*
X84500006Y-87165468D01*
X84679668Y-87149749D01*
X84726692Y-87145635D01*
X84946496Y-87086739D01*
X85152734Y-86990568D01*
X85339139Y-86860047D01*
X85500047Y-86699139D01*
X85630568Y-86512734D01*
X85726739Y-86306496D01*
X85759484Y-86184286D01*
X85802454Y-86097152D01*
X85875499Y-86033093D01*
X85967498Y-86001863D01*
X86064445Y-86008217D01*
X86151581Y-86051187D01*
X86215640Y-86124232D01*
X86240516Y-86184288D01*
X86273261Y-86306496D01*
X86273262Y-86306499D01*
X86369428Y-86512727D01*
X86369436Y-86512741D01*
X86499949Y-86699134D01*
X86499953Y-86699139D01*
X86660861Y-86860047D01*
X86660864Y-86860049D01*
X86660865Y-86860050D01*
X86847258Y-86990563D01*
X86847262Y-86990565D01*
X86847266Y-86990568D01*
X87053504Y-87086739D01*
X87273308Y-87145635D01*
X87292984Y-87147356D01*
X87499994Y-87165468D01*
X87500000Y-87165468D01*
X87500006Y-87165468D01*
X87679668Y-87149749D01*
X87726692Y-87145635D01*
X87946496Y-87086739D01*
X88152734Y-86990568D01*
X88339139Y-86860047D01*
X88500047Y-86699139D01*
X88630568Y-86512734D01*
X88726739Y-86306496D01*
X88759484Y-86184286D01*
X88802454Y-86097152D01*
X88875499Y-86033093D01*
X88967498Y-86001863D01*
X89064445Y-86008217D01*
X89151581Y-86051187D01*
X89215640Y-86124232D01*
X89240516Y-86184288D01*
X89273261Y-86306496D01*
X89273262Y-86306499D01*
X89369428Y-86512727D01*
X89369436Y-86512741D01*
X89499949Y-86699134D01*
X89499953Y-86699139D01*
X89660861Y-86860047D01*
X89660864Y-86860049D01*
X89660865Y-86860050D01*
X89847258Y-86990563D01*
X89847262Y-86990565D01*
X89847266Y-86990568D01*
X90053504Y-87086739D01*
X90273308Y-87145635D01*
X90292984Y-87147356D01*
X90499994Y-87165468D01*
X90500000Y-87165468D01*
X90500006Y-87165468D01*
X90679668Y-87149749D01*
X90726692Y-87145635D01*
X90946496Y-87086739D01*
X91152734Y-86990568D01*
X91339139Y-86860047D01*
X91500047Y-86699139D01*
X91630568Y-86512734D01*
X91726739Y-86306496D01*
X91785635Y-86086692D01*
X91803718Y-85880005D01*
X91805468Y-85860005D01*
X91805468Y-85859994D01*
X91785636Y-85633320D01*
X91785635Y-85633308D01*
X91726739Y-85413504D01*
X91639894Y-85227266D01*
X91630571Y-85207272D01*
X91630563Y-85207258D01*
X91500050Y-85020865D01*
X91500049Y-85020864D01*
X91500047Y-85020861D01*
X91339139Y-84859953D01*
X91339135Y-84859950D01*
X91339134Y-84859949D01*
X91152741Y-84729436D01*
X91152727Y-84729428D01*
X90946499Y-84633262D01*
X90946496Y-84633261D01*
X90726694Y-84574365D01*
X90726679Y-84574363D01*
X90500006Y-84554532D01*
X90499994Y-84554532D01*
X90273320Y-84574363D01*
X90273305Y-84574365D01*
X90053503Y-84633261D01*
X90053500Y-84633262D01*
X89847272Y-84729428D01*
X89847258Y-84729436D01*
X89660865Y-84859949D01*
X89499949Y-85020865D01*
X89369436Y-85207258D01*
X89369428Y-85207272D01*
X89273262Y-85413500D01*
X89273261Y-85413503D01*
X89240516Y-85535711D01*
X89197545Y-85622847D01*
X89124500Y-85686906D01*
X89032501Y-85718136D01*
X88935555Y-85711782D01*
X88848419Y-85668811D01*
X88784360Y-85595766D01*
X88759484Y-85535711D01*
X88744611Y-85480204D01*
X88726739Y-85413504D01*
X88639894Y-85227266D01*
X88630571Y-85207272D01*
X88630563Y-85207258D01*
X88500050Y-85020865D01*
X88500049Y-85020864D01*
X88500047Y-85020861D01*
X88339139Y-84859953D01*
X88339135Y-84859950D01*
X88331451Y-84852266D01*
X88332348Y-84851368D01*
X88278629Y-84784431D01*
X88251447Y-84691156D01*
X88250500Y-84669465D01*
X88250500Y-81126081D01*
X88236459Y-81055496D01*
X88236458Y-81055492D01*
X88221659Y-80981088D01*
X88169765Y-80855807D01*
X88166455Y-80846556D01*
X88082955Y-80721589D01*
X88082949Y-80721582D01*
X87978416Y-80617048D01*
X87978416Y-80617049D01*
X85323430Y-77962062D01*
X85269454Y-77881280D01*
X85250500Y-77785992D01*
X85250500Y-76890534D01*
X85269454Y-76795246D01*
X85323430Y-76714464D01*
X85338843Y-76700341D01*
X85339132Y-76700051D01*
X85339139Y-76700047D01*
X85500047Y-76539139D01*
X85630568Y-76352734D01*
X85726739Y-76146496D01*
X85759484Y-76024286D01*
X85802454Y-75937152D01*
X85875499Y-75873093D01*
X85967498Y-75841863D01*
X86064445Y-75848217D01*
X86151581Y-75891187D01*
X86215640Y-75964232D01*
X86240516Y-76024288D01*
X86273261Y-76146496D01*
X86273262Y-76146499D01*
X86369428Y-76352727D01*
X86369436Y-76352741D01*
X86499949Y-76539134D01*
X86499953Y-76539139D01*
X86660861Y-76700047D01*
X86660864Y-76700049D01*
X86660865Y-76700050D01*
X86847258Y-76830563D01*
X86847262Y-76830565D01*
X86847266Y-76830568D01*
X87053504Y-76926739D01*
X87273308Y-76985635D01*
X87292984Y-76987356D01*
X87499994Y-77005468D01*
X87500000Y-77005468D01*
X87500006Y-77005468D01*
X87679668Y-76989749D01*
X87726692Y-76985635D01*
X87946496Y-76926739D01*
X88152734Y-76830568D01*
X88339139Y-76700047D01*
X88500047Y-76539139D01*
X88630568Y-76352734D01*
X88726739Y-76146496D01*
X88785635Y-75926692D01*
X88803718Y-75720005D01*
X88805468Y-75700005D01*
X88805468Y-75699994D01*
X88785636Y-75473320D01*
X88785635Y-75473308D01*
X88726739Y-75253504D01*
X88630568Y-75047266D01*
X88630567Y-75047265D01*
X88630540Y-75047206D01*
X88607448Y-74952835D01*
X88622227Y-74856811D01*
X88672629Y-74773752D01*
X88750979Y-74716303D01*
X88817352Y-74697813D01*
X88817319Y-74697674D01*
X88820847Y-74696840D01*
X88829606Y-74694400D01*
X88832483Y-74694091D01*
X88967331Y-74643796D01*
X89082546Y-74557546D01*
X89168796Y-74442331D01*
X89219091Y-74307483D01*
X89225500Y-74247873D01*
X89225500Y-74247868D01*
X96399500Y-74247868D01*
X96399501Y-74247872D01*
X96401567Y-74267093D01*
X96405908Y-74307480D01*
X96405909Y-74307483D01*
X96456204Y-74442331D01*
X96542454Y-74557546D01*
X96657669Y-74643796D01*
X96792514Y-74694090D01*
X96792517Y-74694091D01*
X96802535Y-74696458D01*
X96890911Y-74736816D01*
X96957115Y-74807922D01*
X96991069Y-74898951D01*
X96987603Y-74996044D01*
X96970947Y-75044017D01*
X96873260Y-75253506D01*
X96814365Y-75473305D01*
X96814363Y-75473320D01*
X96794532Y-75699994D01*
X96794532Y-75700005D01*
X96814363Y-75926679D01*
X96814365Y-75926694D01*
X96873261Y-76146496D01*
X96873262Y-76146499D01*
X96969428Y-76352727D01*
X96969436Y-76352741D01*
X97099949Y-76539134D01*
X97099953Y-76539139D01*
X97260861Y-76700047D01*
X97260864Y-76700049D01*
X97268549Y-76707734D01*
X97267650Y-76708632D01*
X97321362Y-76775552D01*
X97348552Y-76868825D01*
X97349500Y-76890534D01*
X97349500Y-77773920D01*
X97378341Y-77918911D01*
X97434913Y-78055489D01*
X97434917Y-78055497D01*
X97447783Y-78074752D01*
X97517048Y-78178416D01*
X100276570Y-80937937D01*
X100330546Y-81018719D01*
X100349500Y-81114007D01*
X100349500Y-84669465D01*
X100330546Y-84764753D01*
X100276570Y-84845535D01*
X100261159Y-84859655D01*
X100099949Y-85020865D01*
X99969436Y-85207258D01*
X99969428Y-85207272D01*
X99873262Y-85413500D01*
X99873261Y-85413503D01*
X99840516Y-85535711D01*
X99797545Y-85622847D01*
X99724500Y-85686906D01*
X99632501Y-85718136D01*
X99535555Y-85711782D01*
X99448419Y-85668811D01*
X99384360Y-85595766D01*
X99359484Y-85535711D01*
X99344611Y-85480204D01*
X99326739Y-85413504D01*
X99239894Y-85227266D01*
X99230571Y-85207272D01*
X99230563Y-85207258D01*
X99100050Y-85020865D01*
X99100049Y-85020864D01*
X99100047Y-85020861D01*
X98939139Y-84859953D01*
X98939135Y-84859950D01*
X98939134Y-84859949D01*
X98752741Y-84729436D01*
X98752727Y-84729428D01*
X98546499Y-84633262D01*
X98546496Y-84633261D01*
X98326694Y-84574365D01*
X98326679Y-84574363D01*
X98100006Y-84554532D01*
X98099994Y-84554532D01*
X97873320Y-84574363D01*
X97873305Y-84574365D01*
X97653503Y-84633261D01*
X97653500Y-84633262D01*
X97447272Y-84729428D01*
X97447258Y-84729436D01*
X97260865Y-84859949D01*
X97099949Y-85020865D01*
X96969436Y-85207258D01*
X96969428Y-85207272D01*
X96873262Y-85413500D01*
X96873261Y-85413503D01*
X96814365Y-85633305D01*
X96814363Y-85633320D01*
X96794532Y-85859994D01*
X96794532Y-85860005D01*
X96814363Y-86086679D01*
X96814365Y-86086694D01*
X96873261Y-86306496D01*
X96873262Y-86306499D01*
X96969428Y-86512727D01*
X96969436Y-86512741D01*
X97099949Y-86699134D01*
X97099953Y-86699139D01*
X97260861Y-86860047D01*
X97260864Y-86860049D01*
X97260865Y-86860050D01*
X97447258Y-86990563D01*
X97447262Y-86990565D01*
X97447266Y-86990568D01*
X97653504Y-87086739D01*
X97873308Y-87145635D01*
X97892984Y-87147356D01*
X98099994Y-87165468D01*
X98100000Y-87165468D01*
X98100006Y-87165468D01*
X98279668Y-87149749D01*
X98326692Y-87145635D01*
X98546496Y-87086739D01*
X98752734Y-86990568D01*
X98939139Y-86860047D01*
X99100047Y-86699139D01*
X99230568Y-86512734D01*
X99326739Y-86306496D01*
X99359484Y-86184286D01*
X99402454Y-86097152D01*
X99475499Y-86033093D01*
X99567498Y-86001863D01*
X99664445Y-86008217D01*
X99751581Y-86051187D01*
X99815640Y-86124232D01*
X99840516Y-86184288D01*
X99873261Y-86306496D01*
X99873262Y-86306499D01*
X99969428Y-86512727D01*
X99969436Y-86512741D01*
X100099949Y-86699134D01*
X100099953Y-86699139D01*
X100260861Y-86860047D01*
X100260864Y-86860049D01*
X100260865Y-86860050D01*
X100447258Y-86990563D01*
X100447262Y-86990565D01*
X100447266Y-86990568D01*
X100653504Y-87086739D01*
X100873308Y-87145635D01*
X100892984Y-87147356D01*
X101099994Y-87165468D01*
X101100000Y-87165468D01*
X101100006Y-87165468D01*
X101279668Y-87149749D01*
X101326692Y-87145635D01*
X101546496Y-87086739D01*
X101752734Y-86990568D01*
X101939139Y-86860047D01*
X102100047Y-86699139D01*
X102230568Y-86512734D01*
X102326739Y-86306496D01*
X102359484Y-86184286D01*
X102402454Y-86097152D01*
X102475499Y-86033093D01*
X102567498Y-86001863D01*
X102664445Y-86008217D01*
X102751581Y-86051187D01*
X102815640Y-86124232D01*
X102840516Y-86184288D01*
X102873261Y-86306496D01*
X102873262Y-86306499D01*
X102969428Y-86512727D01*
X102969436Y-86512741D01*
X103099949Y-86699134D01*
X103099953Y-86699139D01*
X103260861Y-86860047D01*
X103260864Y-86860049D01*
X103260865Y-86860050D01*
X103447258Y-86990563D01*
X103447262Y-86990565D01*
X103447266Y-86990568D01*
X103653504Y-87086739D01*
X103873308Y-87145635D01*
X103892984Y-87147356D01*
X104099994Y-87165468D01*
X104100000Y-87165468D01*
X104100006Y-87165468D01*
X104279668Y-87149749D01*
X104326692Y-87145635D01*
X104546496Y-87086739D01*
X104752734Y-86990568D01*
X104939139Y-86860047D01*
X105100047Y-86699139D01*
X105230568Y-86512734D01*
X105326739Y-86306496D01*
X105385635Y-86086692D01*
X105403718Y-85880005D01*
X105405468Y-85860005D01*
X105405468Y-85859994D01*
X105385636Y-85633320D01*
X105385635Y-85633308D01*
X105326739Y-85413504D01*
X105239894Y-85227266D01*
X105230571Y-85207272D01*
X105230563Y-85207258D01*
X105100050Y-85020865D01*
X105100049Y-85020864D01*
X105100047Y-85020861D01*
X104939139Y-84859953D01*
X104939135Y-84859950D01*
X104939134Y-84859949D01*
X104752741Y-84729436D01*
X104752727Y-84729428D01*
X104546499Y-84633262D01*
X104546496Y-84633261D01*
X104326694Y-84574365D01*
X104326679Y-84574363D01*
X104100006Y-84554532D01*
X104099994Y-84554532D01*
X103873320Y-84574363D01*
X103873305Y-84574365D01*
X103653503Y-84633261D01*
X103653500Y-84633262D01*
X103447272Y-84729428D01*
X103447258Y-84729436D01*
X103260865Y-84859949D01*
X103099949Y-85020865D01*
X102969436Y-85207258D01*
X102969428Y-85207272D01*
X102873262Y-85413500D01*
X102873261Y-85413503D01*
X102840516Y-85535711D01*
X102797545Y-85622847D01*
X102724500Y-85686906D01*
X102632501Y-85718136D01*
X102535555Y-85711782D01*
X102448419Y-85668811D01*
X102384360Y-85595766D01*
X102359484Y-85535711D01*
X102344611Y-85480204D01*
X102326739Y-85413504D01*
X102239894Y-85227266D01*
X102230571Y-85207272D01*
X102230563Y-85207258D01*
X102100050Y-85020865D01*
X102100049Y-85020864D01*
X102100047Y-85020861D01*
X101939139Y-84859953D01*
X101939135Y-84859950D01*
X101931451Y-84852266D01*
X101932348Y-84851368D01*
X101878629Y-84784431D01*
X101851447Y-84691156D01*
X101850500Y-84669465D01*
X101850500Y-80626081D01*
X101836459Y-80555496D01*
X101836458Y-80555492D01*
X101834636Y-80546331D01*
X101821659Y-80481088D01*
X101768136Y-80351873D01*
X101768134Y-80351867D01*
X112759500Y-80351867D01*
X112759501Y-80351872D01*
X112761988Y-80375012D01*
X112765908Y-80411480D01*
X112765909Y-80411484D01*
X112791869Y-80481085D01*
X112816204Y-80546331D01*
X112902454Y-80661546D01*
X113017669Y-80747796D01*
X113152517Y-80798091D01*
X113212127Y-80804500D01*
X115307872Y-80804499D01*
X115367483Y-80798091D01*
X115502331Y-80747796D01*
X115617546Y-80661546D01*
X115703796Y-80546331D01*
X115754091Y-80411483D01*
X115760500Y-80351873D01*
X115760499Y-78256128D01*
X115754091Y-78196517D01*
X115725929Y-78121011D01*
X115710390Y-78025112D01*
X115725931Y-77946983D01*
X115736402Y-77918911D01*
X115754091Y-77871483D01*
X115760500Y-77811873D01*
X115760499Y-75716128D01*
X115754091Y-75656517D01*
X115725929Y-75581011D01*
X115710390Y-75485112D01*
X115725931Y-75406983D01*
X115754091Y-75331483D01*
X115754091Y-75331480D01*
X115760500Y-75271873D01*
X115760499Y-73176128D01*
X115754091Y-73116517D01*
X115725929Y-73041011D01*
X115710390Y-72945112D01*
X115725931Y-72866983D01*
X115754091Y-72791483D01*
X115754091Y-72791480D01*
X115760500Y-72731873D01*
X115760499Y-70636128D01*
X115754091Y-70576517D01*
X115725929Y-70501011D01*
X115710390Y-70405112D01*
X115725931Y-70326983D01*
X115754091Y-70251483D01*
X115756870Y-70225634D01*
X115760500Y-70191873D01*
X115760499Y-68096128D01*
X115754091Y-68036517D01*
X115703796Y-67901669D01*
X115617546Y-67786454D01*
X115502331Y-67700204D01*
X115379878Y-67654532D01*
X115367481Y-67649908D01*
X115307873Y-67643500D01*
X113212134Y-67643500D01*
X113212130Y-67643500D01*
X113212128Y-67643501D01*
X113199314Y-67644878D01*
X113152519Y-67649908D01*
X113152515Y-67649909D01*
X113017670Y-67700203D01*
X112902455Y-67786453D01*
X112902453Y-67786455D01*
X112816204Y-67901669D01*
X112765908Y-68036518D01*
X112759500Y-68096123D01*
X112759500Y-70191865D01*
X112759500Y-70191868D01*
X112759501Y-70191872D01*
X112761099Y-70206737D01*
X112765908Y-70251480D01*
X112765909Y-70251485D01*
X112794069Y-70326984D01*
X112809609Y-70422888D01*
X112794069Y-70501013D01*
X112765909Y-70576514D01*
X112759500Y-70636123D01*
X112759500Y-72731865D01*
X112759500Y-72731868D01*
X112759501Y-72731872D01*
X112761567Y-72751093D01*
X112765908Y-72791480D01*
X112765909Y-72791485D01*
X112794069Y-72866984D01*
X112809609Y-72962888D01*
X112794069Y-73041013D01*
X112765909Y-73116514D01*
X112759500Y-73176123D01*
X112759500Y-75271865D01*
X112759500Y-75271868D01*
X112759501Y-75271872D01*
X112761567Y-75291093D01*
X112765908Y-75331480D01*
X112765909Y-75331485D01*
X112794069Y-75406984D01*
X112809609Y-75502888D01*
X112794069Y-75581013D01*
X112765909Y-75656514D01*
X112759500Y-75716123D01*
X112759500Y-77811865D01*
X112759500Y-77811868D01*
X112759501Y-77811872D01*
X112761567Y-77831093D01*
X112765908Y-77871480D01*
X112765909Y-77871485D01*
X112794069Y-77946984D01*
X112809609Y-78042888D01*
X112794069Y-78121013D01*
X112765909Y-78196514D01*
X112759500Y-78256123D01*
X112759500Y-80351865D01*
X112759500Y-80351867D01*
X101768134Y-80351867D01*
X101765084Y-80344505D01*
X101682951Y-80221584D01*
X101682949Y-80221582D01*
X101578416Y-80117048D01*
X101578416Y-80117049D01*
X98923430Y-77462062D01*
X98869454Y-77381280D01*
X98850500Y-77285992D01*
X98850500Y-76890534D01*
X98869454Y-76795246D01*
X98923430Y-76714464D01*
X98938843Y-76700341D01*
X98939132Y-76700051D01*
X98939139Y-76700047D01*
X99100047Y-76539139D01*
X99230568Y-76352734D01*
X99326739Y-76146496D01*
X99359484Y-76024286D01*
X99402454Y-75937152D01*
X99475499Y-75873093D01*
X99567498Y-75841863D01*
X99664445Y-75848217D01*
X99751581Y-75891187D01*
X99815640Y-75964232D01*
X99840516Y-76024288D01*
X99873261Y-76146496D01*
X99873262Y-76146499D01*
X99969428Y-76352727D01*
X99969436Y-76352741D01*
X100099949Y-76539134D01*
X100099953Y-76539139D01*
X100260861Y-76700047D01*
X100260864Y-76700049D01*
X100260865Y-76700050D01*
X100447258Y-76830563D01*
X100447262Y-76830565D01*
X100447266Y-76830568D01*
X100653504Y-76926739D01*
X100873308Y-76985635D01*
X100892984Y-76987356D01*
X101099994Y-77005468D01*
X101100000Y-77005468D01*
X101100006Y-77005468D01*
X101279668Y-76989749D01*
X101326692Y-76985635D01*
X101546496Y-76926739D01*
X101752734Y-76830568D01*
X101939139Y-76700047D01*
X102100047Y-76539139D01*
X102230568Y-76352734D01*
X102326739Y-76146496D01*
X102385635Y-75926692D01*
X102403718Y-75720005D01*
X102405468Y-75700005D01*
X102405468Y-75699994D01*
X102385636Y-75473320D01*
X102385635Y-75473308D01*
X102326739Y-75253504D01*
X102230568Y-75047266D01*
X102230566Y-75047264D01*
X102229053Y-75044018D01*
X102205960Y-74949647D01*
X102220739Y-74853623D01*
X102271140Y-74770564D01*
X102349490Y-74713115D01*
X102397464Y-74696458D01*
X102407477Y-74694091D01*
X102407483Y-74694091D01*
X102542331Y-74643796D01*
X102657546Y-74557546D01*
X102743796Y-74442331D01*
X102794091Y-74307483D01*
X102800500Y-74247873D01*
X102800499Y-71752128D01*
X102794091Y-71692517D01*
X102743796Y-71557669D01*
X102657546Y-71442454D01*
X102542331Y-71356204D01*
X102407486Y-71305910D01*
X102407481Y-71305908D01*
X102347873Y-71299500D01*
X99852134Y-71299500D01*
X99852130Y-71299500D01*
X99852128Y-71299501D01*
X99839314Y-71300878D01*
X99792519Y-71305908D01*
X99792511Y-71305910D01*
X99687014Y-71345258D01*
X99591110Y-71360798D01*
X99512985Y-71345258D01*
X99407483Y-71305908D01*
X99347873Y-71299500D01*
X96852134Y-71299500D01*
X96852130Y-71299500D01*
X96852128Y-71299501D01*
X96839314Y-71300878D01*
X96792519Y-71305908D01*
X96792515Y-71305909D01*
X96657670Y-71356203D01*
X96542455Y-71442453D01*
X96542453Y-71442455D01*
X96456204Y-71557669D01*
X96405908Y-71692518D01*
X96399500Y-71752123D01*
X96399500Y-74247865D01*
X96399500Y-74247868D01*
X89225500Y-74247868D01*
X89225499Y-71752128D01*
X89219091Y-71692517D01*
X89168796Y-71557669D01*
X89082546Y-71442454D01*
X88967331Y-71356204D01*
X88832486Y-71305910D01*
X88832481Y-71305908D01*
X88772873Y-71299500D01*
X86277134Y-71299500D01*
X86277130Y-71299500D01*
X86277128Y-71299501D01*
X86264314Y-71300878D01*
X86217519Y-71305908D01*
X86217511Y-71305910D01*
X86112014Y-71345258D01*
X86016110Y-71360798D01*
X85937985Y-71345258D01*
X85832483Y-71305908D01*
X85772873Y-71299500D01*
X83277134Y-71299500D01*
X83277130Y-71299500D01*
X83277128Y-71299501D01*
X83264314Y-71300878D01*
X83217519Y-71305908D01*
X83217515Y-71305909D01*
X83082670Y-71356203D01*
X82967455Y-71442453D01*
X82967453Y-71442455D01*
X82881204Y-71557669D01*
X82830908Y-71692518D01*
X82824500Y-71752123D01*
X82824500Y-74247865D01*
X82824500Y-74247868D01*
X76700500Y-74247868D01*
X76700499Y-71752128D01*
X76694091Y-71692517D01*
X76643796Y-71557669D01*
X76557546Y-71442454D01*
X76442331Y-71356204D01*
X76307486Y-71305910D01*
X76307481Y-71305908D01*
X76247873Y-71299500D01*
X73752134Y-71299500D01*
X73752130Y-71299500D01*
X73752128Y-71299501D01*
X73739314Y-71300878D01*
X73692519Y-71305908D01*
X73692511Y-71305910D01*
X73587014Y-71345258D01*
X73491110Y-71360798D01*
X73412985Y-71345258D01*
X73307483Y-71305908D01*
X73247873Y-71299500D01*
X70752134Y-71299500D01*
X70752130Y-71299500D01*
X70752128Y-71299501D01*
X70739314Y-71300878D01*
X70692519Y-71305908D01*
X70692515Y-71305909D01*
X70557670Y-71356203D01*
X70442455Y-71442453D01*
X70442453Y-71442455D01*
X70356204Y-71557669D01*
X70305908Y-71692518D01*
X70299500Y-71752123D01*
X70299500Y-74247865D01*
X70299500Y-74247868D01*
X67500499Y-74247868D01*
X67500499Y-74192128D01*
X67494091Y-74132517D01*
X67465929Y-74057011D01*
X67450390Y-73961112D01*
X67465931Y-73882983D01*
X67494091Y-73807483D01*
X67494091Y-73807480D01*
X67500500Y-73747873D01*
X67500499Y-71652128D01*
X67494091Y-71592517D01*
X67465929Y-71517011D01*
X67450390Y-71421112D01*
X67465931Y-71342983D01*
X67479759Y-71305910D01*
X67494091Y-71267483D01*
X67500500Y-71207873D01*
X67500499Y-69112128D01*
X67494091Y-69052517D01*
X67465929Y-68977011D01*
X67450390Y-68881112D01*
X67465931Y-68802983D01*
X67466380Y-68801781D01*
X67494091Y-68727483D01*
X67500500Y-68667873D01*
X67500499Y-66572128D01*
X67494091Y-66512517D01*
X67465929Y-66437011D01*
X67450390Y-66341112D01*
X67465931Y-66262983D01*
X67494091Y-66187483D01*
X67494091Y-66187480D01*
X67500500Y-66127873D01*
X67500499Y-64032128D01*
X67494091Y-63972517D01*
X67465929Y-63897011D01*
X67450390Y-63801112D01*
X67465931Y-63722983D01*
X67468145Y-63717049D01*
X67494091Y-63647483D01*
X67500500Y-63587873D01*
X67500499Y-61492128D01*
X67494091Y-61432517D01*
X67465929Y-61357011D01*
X67450390Y-61261112D01*
X67465931Y-61182983D01*
X67494091Y-61107483D01*
X67498974Y-61062062D01*
X67500500Y-61047873D01*
X67500499Y-58952128D01*
X67494091Y-58892517D01*
X67443796Y-58757669D01*
X67357546Y-58642454D01*
X67242331Y-58556204D01*
X67160722Y-58525766D01*
X67107481Y-58505908D01*
X67047873Y-58499500D01*
X64952134Y-58499500D01*
X64952130Y-58499500D01*
X64952128Y-58499501D01*
X64939314Y-58500878D01*
X64892519Y-58505908D01*
X64892515Y-58505909D01*
X64757670Y-58556203D01*
X64642455Y-58642453D01*
X64642453Y-58642455D01*
X64556204Y-58757669D01*
X64505908Y-58892518D01*
X64499500Y-58952123D01*
X64499500Y-61047865D01*
X64499500Y-61047868D01*
X64499501Y-61047872D01*
X64501026Y-61062062D01*
X64505908Y-61107480D01*
X64505909Y-61107485D01*
X64534069Y-61182984D01*
X64549609Y-61278888D01*
X64534069Y-61357013D01*
X64505909Y-61432514D01*
X64499500Y-61492123D01*
X64499500Y-63587865D01*
X64499500Y-63587868D01*
X64499501Y-63587872D01*
X64501567Y-63607093D01*
X64505908Y-63647480D01*
X64505909Y-63647485D01*
X64534069Y-63722984D01*
X64549609Y-63818888D01*
X64534069Y-63897013D01*
X64505909Y-63972514D01*
X64499500Y-64032123D01*
X64499500Y-66127865D01*
X64499500Y-66127868D01*
X64499501Y-66127872D01*
X64501567Y-66147093D01*
X64505908Y-66187480D01*
X64505909Y-66187485D01*
X64534069Y-66262984D01*
X64549609Y-66358888D01*
X64534069Y-66437013D01*
X64505909Y-66512514D01*
X64499500Y-66572123D01*
X64499500Y-68667865D01*
X64499500Y-68667868D01*
X64499501Y-68667872D01*
X64501425Y-68685766D01*
X64505908Y-68727480D01*
X64505909Y-68727485D01*
X64534069Y-68802984D01*
X64549609Y-68898888D01*
X64534069Y-68977013D01*
X64505909Y-69052514D01*
X64499500Y-69112123D01*
X64499500Y-71207865D01*
X64499500Y-71207868D01*
X64499501Y-71207872D01*
X64501567Y-71227093D01*
X64505908Y-71267480D01*
X64505909Y-71267485D01*
X64534069Y-71342984D01*
X64549609Y-71438888D01*
X64534069Y-71517013D01*
X64505909Y-71592514D01*
X64499500Y-71652123D01*
X64499500Y-73747865D01*
X64499500Y-73747868D01*
X64499501Y-73747872D01*
X64501567Y-73767093D01*
X64505908Y-73807480D01*
X64505909Y-73807485D01*
X64534069Y-73882984D01*
X64549609Y-73978888D01*
X64534069Y-74057013D01*
X64505909Y-74132514D01*
X64499500Y-74192123D01*
X64499500Y-76287865D01*
X64499500Y-76287868D01*
X64499501Y-76287872D01*
X64501567Y-76307093D01*
X64505908Y-76347480D01*
X64505909Y-76347485D01*
X64534069Y-76422984D01*
X64549609Y-76518888D01*
X64534069Y-76597013D01*
X64505909Y-76672514D01*
X64499500Y-76732123D01*
X64499500Y-78827865D01*
X64499500Y-78827868D01*
X64499501Y-78827872D01*
X64501567Y-78847093D01*
X64505908Y-78887480D01*
X64505909Y-78887485D01*
X64534069Y-78962984D01*
X64549609Y-79058888D01*
X64534069Y-79137013D01*
X64505909Y-79212514D01*
X64499500Y-79272123D01*
X64499500Y-81367865D01*
X64499500Y-81367868D01*
X64499501Y-81367872D01*
X64501567Y-81387093D01*
X64505908Y-81427480D01*
X64505909Y-81427485D01*
X64534069Y-81502984D01*
X64549609Y-81598888D01*
X64534069Y-81677013D01*
X64505909Y-81752514D01*
X64499500Y-81812123D01*
X64499500Y-83907865D01*
X64499500Y-83907868D01*
X61105500Y-83907868D01*
X61105500Y-57247868D01*
X70424500Y-57247868D01*
X70424501Y-57247872D01*
X70426567Y-57267093D01*
X70430908Y-57307480D01*
X70430909Y-57307483D01*
X70481204Y-57442331D01*
X70567454Y-57557546D01*
X70682669Y-57643796D01*
X70817517Y-57694091D01*
X70877127Y-57700500D01*
X70903932Y-57700499D01*
X70999216Y-57719450D01*
X71079999Y-57773424D01*
X71133978Y-57854204D01*
X71152935Y-57949492D01*
X71133984Y-58044780D01*
X71107906Y-58092316D01*
X71069437Y-58147256D01*
X71069428Y-58147272D01*
X70973262Y-58353500D01*
X70973261Y-58353503D01*
X70914365Y-58573305D01*
X70914363Y-58573320D01*
X70894532Y-58799994D01*
X70894532Y-58800005D01*
X70914363Y-59026679D01*
X70914365Y-59026694D01*
X70973261Y-59246496D01*
X70973262Y-59246499D01*
X71069428Y-59452727D01*
X71069436Y-59452741D01*
X71199949Y-59639134D01*
X71199953Y-59639139D01*
X71360861Y-59800047D01*
X71360864Y-59800049D01*
X71360865Y-59800050D01*
X71364882Y-59802863D01*
X71367598Y-59805700D01*
X71369191Y-59807037D01*
X71369044Y-59807211D01*
X71432065Y-59873045D01*
X71466274Y-59958249D01*
X71478341Y-60018912D01*
X71506127Y-60085992D01*
X71534916Y-60155495D01*
X71567813Y-60204729D01*
X71617048Y-60278416D01*
X73043362Y-61704729D01*
X74376570Y-63037937D01*
X74430546Y-63118719D01*
X74449500Y-63214007D01*
X74449500Y-67769465D01*
X74430546Y-67864753D01*
X74376570Y-67945535D01*
X74361159Y-67959655D01*
X74199949Y-68120865D01*
X74069436Y-68307258D01*
X74069428Y-68307272D01*
X73973262Y-68513500D01*
X73973261Y-68513503D01*
X73940516Y-68635711D01*
X73897545Y-68722847D01*
X73824500Y-68786906D01*
X73732501Y-68818136D01*
X73635555Y-68811782D01*
X73548419Y-68768811D01*
X73484360Y-68695766D01*
X73459484Y-68635711D01*
X73456805Y-68625712D01*
X73426739Y-68513504D01*
X73339894Y-68327266D01*
X73330571Y-68307272D01*
X73330563Y-68307258D01*
X73200050Y-68120865D01*
X73200049Y-68120864D01*
X73200047Y-68120861D01*
X73039139Y-67959953D01*
X73039135Y-67959950D01*
X73039134Y-67959949D01*
X72852741Y-67829436D01*
X72852727Y-67829428D01*
X72646499Y-67733262D01*
X72646496Y-67733261D01*
X72426694Y-67674365D01*
X72426679Y-67674363D01*
X72200006Y-67654532D01*
X72199994Y-67654532D01*
X71973320Y-67674363D01*
X71973305Y-67674365D01*
X71753503Y-67733261D01*
X71753500Y-67733262D01*
X71547272Y-67829428D01*
X71547258Y-67829436D01*
X71360865Y-67959949D01*
X71199949Y-68120865D01*
X71069436Y-68307258D01*
X71069428Y-68307272D01*
X70973262Y-68513500D01*
X70973261Y-68513503D01*
X70914365Y-68733305D01*
X70914363Y-68733320D01*
X70894532Y-68959994D01*
X70894532Y-68960005D01*
X70914363Y-69186679D01*
X70914365Y-69186694D01*
X70973261Y-69406496D01*
X70973262Y-69406499D01*
X71069428Y-69612727D01*
X71069436Y-69612741D01*
X71199949Y-69799134D01*
X71199953Y-69799139D01*
X71360861Y-69960047D01*
X71360864Y-69960049D01*
X71360865Y-69960050D01*
X71547258Y-70090563D01*
X71547262Y-70090565D01*
X71547266Y-70090568D01*
X71753504Y-70186739D01*
X71973308Y-70245635D01*
X71992984Y-70247356D01*
X72199994Y-70265468D01*
X72200000Y-70265468D01*
X72200006Y-70265468D01*
X72379668Y-70249749D01*
X72426692Y-70245635D01*
X72646496Y-70186739D01*
X72852734Y-70090568D01*
X73039139Y-69960047D01*
X73200047Y-69799139D01*
X73330568Y-69612734D01*
X73426739Y-69406496D01*
X73459484Y-69284286D01*
X73502454Y-69197152D01*
X73575499Y-69133093D01*
X73667498Y-69101863D01*
X73764445Y-69108217D01*
X73851581Y-69151187D01*
X73915640Y-69224232D01*
X73940514Y-69284285D01*
X73967902Y-69386494D01*
X73973261Y-69406496D01*
X73973262Y-69406499D01*
X74069428Y-69612727D01*
X74069436Y-69612741D01*
X74199949Y-69799134D01*
X74199953Y-69799139D01*
X74360861Y-69960047D01*
X74360864Y-69960049D01*
X74360865Y-69960050D01*
X74547258Y-70090563D01*
X74547262Y-70090565D01*
X74547266Y-70090568D01*
X74753504Y-70186739D01*
X74973308Y-70245635D01*
X74992984Y-70247356D01*
X75199994Y-70265468D01*
X75200000Y-70265468D01*
X75200006Y-70265468D01*
X75379668Y-70249749D01*
X75426692Y-70245635D01*
X75646496Y-70186739D01*
X75852734Y-70090568D01*
X76039139Y-69960047D01*
X76200047Y-69799139D01*
X76330568Y-69612734D01*
X76426739Y-69406496D01*
X76459484Y-69284286D01*
X76502454Y-69197152D01*
X76575499Y-69133093D01*
X76667498Y-69101863D01*
X76764445Y-69108217D01*
X76851581Y-69151187D01*
X76915640Y-69224232D01*
X76940514Y-69284285D01*
X76967902Y-69386494D01*
X76973261Y-69406496D01*
X76973262Y-69406499D01*
X77069428Y-69612727D01*
X77069436Y-69612741D01*
X77199949Y-69799134D01*
X77199953Y-69799139D01*
X77360861Y-69960047D01*
X77360864Y-69960049D01*
X77360865Y-69960050D01*
X77547258Y-70090563D01*
X77547262Y-70090565D01*
X77547266Y-70090568D01*
X77753504Y-70186739D01*
X77973308Y-70245635D01*
X77992984Y-70247356D01*
X78199994Y-70265468D01*
X78200000Y-70265468D01*
X78200006Y-70265468D01*
X78379668Y-70249749D01*
X78426692Y-70245635D01*
X78646496Y-70186739D01*
X78852734Y-70090568D01*
X79039139Y-69960047D01*
X79200047Y-69799139D01*
X79330568Y-69612734D01*
X79426739Y-69406496D01*
X79485635Y-69186692D01*
X79493376Y-69098217D01*
X79505468Y-68960005D01*
X79505468Y-68959994D01*
X79485636Y-68733320D01*
X79485635Y-68733308D01*
X79426739Y-68513504D01*
X79339894Y-68327266D01*
X79330571Y-68307272D01*
X79330563Y-68307258D01*
X79200050Y-68120865D01*
X79200049Y-68120864D01*
X79200047Y-68120861D01*
X79039139Y-67959953D01*
X79039135Y-67959950D01*
X79039134Y-67959949D01*
X78852741Y-67829436D01*
X78852727Y-67829428D01*
X78646499Y-67733262D01*
X78646496Y-67733261D01*
X78426694Y-67674365D01*
X78426679Y-67674363D01*
X78200006Y-67654532D01*
X78199994Y-67654532D01*
X77973320Y-67674363D01*
X77973305Y-67674365D01*
X77753503Y-67733261D01*
X77753500Y-67733262D01*
X77547272Y-67829428D01*
X77547258Y-67829436D01*
X77360865Y-67959949D01*
X77199949Y-68120865D01*
X77069436Y-68307258D01*
X77069428Y-68307272D01*
X76973262Y-68513500D01*
X76973261Y-68513503D01*
X76940516Y-68635711D01*
X76897545Y-68722847D01*
X76824500Y-68786906D01*
X76732501Y-68818136D01*
X76635555Y-68811782D01*
X76548419Y-68768811D01*
X76484360Y-68695766D01*
X76459484Y-68635711D01*
X76456805Y-68625712D01*
X76426739Y-68513504D01*
X76339894Y-68327266D01*
X76330571Y-68307272D01*
X76330563Y-68307258D01*
X76200050Y-68120865D01*
X76200049Y-68120864D01*
X76200047Y-68120861D01*
X76039139Y-67959953D01*
X76039135Y-67959950D01*
X76031451Y-67952266D01*
X76032348Y-67951368D01*
X75978629Y-67884431D01*
X75951447Y-67791156D01*
X75950500Y-67769465D01*
X75950500Y-62726083D01*
X75933283Y-62639526D01*
X75933283Y-62639525D01*
X75921659Y-62581089D01*
X75921659Y-62581088D01*
X75869762Y-62455801D01*
X75866454Y-62446555D01*
X75782955Y-62321589D01*
X75782949Y-62321582D01*
X75678416Y-62217048D01*
X75678416Y-62217049D01*
X73306791Y-59845424D01*
X73252815Y-59764642D01*
X73233861Y-59669354D01*
X73252815Y-59574066D01*
X73278889Y-59526539D01*
X73330568Y-59452734D01*
X73426739Y-59246496D01*
X73459484Y-59124286D01*
X73502454Y-59037152D01*
X73575499Y-58973093D01*
X73667498Y-58941863D01*
X73764445Y-58948217D01*
X73851581Y-58991187D01*
X73915640Y-59064232D01*
X73940514Y-59124285D01*
X73967902Y-59226496D01*
X73973261Y-59246496D01*
X73973262Y-59246499D01*
X74069428Y-59452727D01*
X74069436Y-59452741D01*
X74199949Y-59639134D01*
X74199953Y-59639139D01*
X74360861Y-59800047D01*
X74360864Y-59800049D01*
X74360865Y-59800050D01*
X74547258Y-59930563D01*
X74547262Y-59930565D01*
X74547266Y-59930568D01*
X74547270Y-59930569D01*
X74547272Y-59930571D01*
X74629308Y-59968825D01*
X74753504Y-60026739D01*
X74973308Y-60085635D01*
X74977389Y-60085992D01*
X75199994Y-60105468D01*
X75200000Y-60105468D01*
X75200006Y-60105468D01*
X75379668Y-60089749D01*
X75426692Y-60085635D01*
X75646496Y-60026739D01*
X75852734Y-59930568D01*
X76039139Y-59800047D01*
X76200047Y-59639139D01*
X76330568Y-59452734D01*
X76426739Y-59246496D01*
X76485635Y-59026692D01*
X76493376Y-58938217D01*
X76505468Y-58800005D01*
X76505468Y-58799994D01*
X76485636Y-58573320D01*
X76485635Y-58573308D01*
X76426739Y-58353504D01*
X76339894Y-58167266D01*
X76330571Y-58147272D01*
X76330563Y-58147258D01*
X76283338Y-58079813D01*
X76244209Y-57990886D01*
X76242090Y-57893754D01*
X76277303Y-57803205D01*
X76344487Y-57733024D01*
X76418075Y-57700033D01*
X76417889Y-57699534D01*
X76425622Y-57696649D01*
X76430047Y-57694666D01*
X76432471Y-57694092D01*
X76432483Y-57694091D01*
X76567331Y-57643796D01*
X76682546Y-57557546D01*
X76768796Y-57442331D01*
X76819091Y-57307483D01*
X76825500Y-57247873D01*
X76825500Y-57247868D01*
X82724500Y-57247868D01*
X82724501Y-57247872D01*
X82726567Y-57267093D01*
X82730908Y-57307480D01*
X82730909Y-57307483D01*
X82781204Y-57442331D01*
X82867454Y-57557546D01*
X82982669Y-57643796D01*
X83117517Y-57694091D01*
X83177127Y-57700500D01*
X83203932Y-57700499D01*
X83299216Y-57719450D01*
X83379999Y-57773424D01*
X83433978Y-57854204D01*
X83452935Y-57949492D01*
X83433984Y-58044780D01*
X83407906Y-58092316D01*
X83369437Y-58147256D01*
X83369428Y-58147272D01*
X83273262Y-58353500D01*
X83273261Y-58353503D01*
X83214365Y-58573305D01*
X83214363Y-58573320D01*
X83194532Y-58799994D01*
X83194532Y-58800005D01*
X83214363Y-59026679D01*
X83214365Y-59026694D01*
X83273261Y-59246496D01*
X83273262Y-59246499D01*
X83369428Y-59452727D01*
X83369436Y-59452741D01*
X83499949Y-59639134D01*
X83499953Y-59639139D01*
X83660861Y-59800047D01*
X83660864Y-59800049D01*
X83668549Y-59807734D01*
X83667650Y-59808632D01*
X83721362Y-59875552D01*
X83748552Y-59968825D01*
X83749500Y-59990534D01*
X83749500Y-60573920D01*
X83778341Y-60718911D01*
X83778342Y-60718914D01*
X83834912Y-60855487D01*
X83834916Y-60855495D01*
X83861640Y-60895490D01*
X83861642Y-60895495D01*
X83917044Y-60978411D01*
X83917045Y-60978412D01*
X83917048Y-60978416D01*
X85383138Y-62444505D01*
X86676570Y-63737937D01*
X86730546Y-63818719D01*
X86749500Y-63914007D01*
X86749500Y-67749465D01*
X86730546Y-67844753D01*
X86676570Y-67925535D01*
X86661159Y-67939655D01*
X86499949Y-68100865D01*
X86369436Y-68287258D01*
X86369428Y-68287272D01*
X86273262Y-68493500D01*
X86273258Y-68493511D01*
X86237835Y-68625712D01*
X86194865Y-68712848D01*
X86121820Y-68776907D01*
X86029821Y-68808136D01*
X85932874Y-68801781D01*
X85845738Y-68758811D01*
X85781679Y-68685766D01*
X85756805Y-68625715D01*
X85726739Y-68513504D01*
X85639894Y-68327266D01*
X85630571Y-68307272D01*
X85630563Y-68307258D01*
X85500050Y-68120865D01*
X85500049Y-68120864D01*
X85500047Y-68120861D01*
X85339139Y-67959953D01*
X85339135Y-67959950D01*
X85339134Y-67959949D01*
X85152741Y-67829436D01*
X85152727Y-67829428D01*
X84946499Y-67733262D01*
X84946496Y-67733261D01*
X84726694Y-67674365D01*
X84726679Y-67674363D01*
X84500006Y-67654532D01*
X84499994Y-67654532D01*
X84273320Y-67674363D01*
X84273305Y-67674365D01*
X84053503Y-67733261D01*
X84053500Y-67733262D01*
X83847272Y-67829428D01*
X83847258Y-67829436D01*
X83660865Y-67959949D01*
X83499949Y-68120865D01*
X83369436Y-68307258D01*
X83369428Y-68307272D01*
X83273262Y-68513500D01*
X83273261Y-68513503D01*
X83214365Y-68733305D01*
X83214363Y-68733320D01*
X83194532Y-68959994D01*
X83194532Y-68960005D01*
X83214363Y-69186679D01*
X83214365Y-69186694D01*
X83273261Y-69406496D01*
X83273262Y-69406499D01*
X83369428Y-69612727D01*
X83369436Y-69612741D01*
X83499949Y-69799134D01*
X83499953Y-69799139D01*
X83660861Y-69960047D01*
X83660864Y-69960049D01*
X83660865Y-69960050D01*
X83847258Y-70090563D01*
X83847262Y-70090565D01*
X83847266Y-70090568D01*
X84053504Y-70186739D01*
X84273308Y-70245635D01*
X84292984Y-70247356D01*
X84499994Y-70265468D01*
X84500000Y-70265468D01*
X84500006Y-70265468D01*
X84679668Y-70249749D01*
X84726692Y-70245635D01*
X84946496Y-70186739D01*
X85152734Y-70090568D01*
X85339139Y-69960047D01*
X85500047Y-69799139D01*
X85630568Y-69612734D01*
X85726739Y-69406496D01*
X85762164Y-69274286D01*
X85805133Y-69187153D01*
X85878178Y-69123094D01*
X85970176Y-69091863D01*
X86067123Y-69098217D01*
X86154259Y-69141187D01*
X86218318Y-69214232D01*
X86243194Y-69274285D01*
X86273260Y-69386494D01*
X86273262Y-69386499D01*
X86369428Y-69592727D01*
X86369436Y-69592741D01*
X86499949Y-69779134D01*
X86499953Y-69779139D01*
X86660861Y-69940047D01*
X86660864Y-69940049D01*
X86660865Y-69940050D01*
X86847258Y-70070563D01*
X86847262Y-70070565D01*
X86847266Y-70070568D01*
X87053504Y-70166739D01*
X87273308Y-70225635D01*
X87292984Y-70227356D01*
X87499994Y-70245468D01*
X87500000Y-70245468D01*
X87500006Y-70245468D01*
X87679668Y-70229749D01*
X87726692Y-70225635D01*
X87946496Y-70166739D01*
X88152734Y-70070568D01*
X88339139Y-69940047D01*
X88500047Y-69779139D01*
X88630568Y-69592734D01*
X88726739Y-69386496D01*
X88756805Y-69274286D01*
X88799774Y-69187153D01*
X88872818Y-69123094D01*
X88964817Y-69091863D01*
X89061764Y-69098217D01*
X89148900Y-69141187D01*
X89212959Y-69214231D01*
X89237835Y-69274286D01*
X89273260Y-69406494D01*
X89273262Y-69406499D01*
X89369428Y-69612727D01*
X89369436Y-69612741D01*
X89499949Y-69799134D01*
X89499953Y-69799139D01*
X89660861Y-69960047D01*
X89660864Y-69960049D01*
X89660865Y-69960050D01*
X89847258Y-70090563D01*
X89847262Y-70090565D01*
X89847266Y-70090568D01*
X90053504Y-70186739D01*
X90273308Y-70245635D01*
X90292984Y-70247356D01*
X90499994Y-70265468D01*
X90500000Y-70265468D01*
X90500006Y-70265468D01*
X90679668Y-70249749D01*
X90726692Y-70245635D01*
X90946496Y-70186739D01*
X91152734Y-70090568D01*
X91339139Y-69960047D01*
X91500047Y-69799139D01*
X91630568Y-69612734D01*
X91726739Y-69406496D01*
X91785635Y-69186692D01*
X91793376Y-69098217D01*
X91805468Y-68960005D01*
X91805468Y-68959994D01*
X91785636Y-68733320D01*
X91785635Y-68733308D01*
X91726739Y-68513504D01*
X91639894Y-68327266D01*
X91630571Y-68307272D01*
X91630563Y-68307258D01*
X91500050Y-68120865D01*
X91500049Y-68120864D01*
X91500047Y-68120861D01*
X91339139Y-67959953D01*
X91339135Y-67959950D01*
X91339134Y-67959949D01*
X91152741Y-67829436D01*
X91152727Y-67829428D01*
X90946499Y-67733262D01*
X90946496Y-67733261D01*
X90726694Y-67674365D01*
X90726679Y-67674363D01*
X90500006Y-67654532D01*
X90499994Y-67654532D01*
X90273320Y-67674363D01*
X90273305Y-67674365D01*
X90053503Y-67733261D01*
X90053500Y-67733262D01*
X89847272Y-67829428D01*
X89847258Y-67829436D01*
X89660865Y-67959949D01*
X89499949Y-68120865D01*
X89369436Y-68307258D01*
X89369428Y-68307272D01*
X89273262Y-68513500D01*
X89273258Y-68513511D01*
X89243194Y-68625712D01*
X89200224Y-68712848D01*
X89127179Y-68776907D01*
X89035180Y-68808136D01*
X88938233Y-68801781D01*
X88851097Y-68758811D01*
X88787038Y-68685766D01*
X88762164Y-68625714D01*
X88726739Y-68493504D01*
X88649223Y-68327272D01*
X88630571Y-68287272D01*
X88630563Y-68287258D01*
X88500050Y-68100865D01*
X88500049Y-68100864D01*
X88500047Y-68100861D01*
X88339139Y-67939953D01*
X88339135Y-67939950D01*
X88331451Y-67932266D01*
X88332348Y-67931368D01*
X88278629Y-67864431D01*
X88251447Y-67771156D01*
X88250500Y-67749465D01*
X88250500Y-63426082D01*
X88241921Y-63382951D01*
X88241921Y-63382950D01*
X88221660Y-63281091D01*
X88221659Y-63281088D01*
X88169762Y-63155801D01*
X88166454Y-63146555D01*
X88082955Y-63021589D01*
X88082949Y-63021582D01*
X87978416Y-62917048D01*
X87978416Y-62917049D01*
X85323430Y-60262062D01*
X85269454Y-60181280D01*
X85250500Y-60085992D01*
X85250500Y-59990534D01*
X85269454Y-59895246D01*
X85323430Y-59814464D01*
X85338843Y-59800341D01*
X85339132Y-59800051D01*
X85339139Y-59800047D01*
X85500047Y-59639139D01*
X85630568Y-59452734D01*
X85726739Y-59246496D01*
X85762164Y-59114286D01*
X85805133Y-59027153D01*
X85878178Y-58963094D01*
X85970176Y-58931863D01*
X86067123Y-58938217D01*
X86154259Y-58981187D01*
X86218318Y-59054232D01*
X86243194Y-59114285D01*
X86243195Y-59114289D01*
X86273262Y-59226499D01*
X86369428Y-59432727D01*
X86369436Y-59432741D01*
X86499949Y-59619134D01*
X86499953Y-59619139D01*
X86660861Y-59780047D01*
X86660864Y-59780049D01*
X86660865Y-59780050D01*
X86847258Y-59910563D01*
X86847262Y-59910565D01*
X86847266Y-59910568D01*
X86847270Y-59910569D01*
X86847272Y-59910571D01*
X86971008Y-59968270D01*
X87053504Y-60006739D01*
X87273308Y-60065635D01*
X87292984Y-60067356D01*
X87499994Y-60085468D01*
X87500000Y-60085468D01*
X87500006Y-60085468D01*
X87679668Y-60069749D01*
X87726692Y-60065635D01*
X87946496Y-60006739D01*
X88152734Y-59910568D01*
X88339139Y-59780047D01*
X88500047Y-59619139D01*
X88630568Y-59432734D01*
X88726739Y-59226496D01*
X88785635Y-59006692D01*
X88801968Y-58820005D01*
X88805468Y-58780005D01*
X88805468Y-58779994D01*
X88785636Y-58553320D01*
X88785635Y-58553308D01*
X88726739Y-58333504D01*
X88649223Y-58167272D01*
X88630571Y-58127272D01*
X88630567Y-58127264D01*
X88614597Y-58104457D01*
X88595352Y-58076972D01*
X88556224Y-57988047D01*
X88554105Y-57890915D01*
X88589317Y-57800366D01*
X88656501Y-57730184D01*
X88718890Y-57702220D01*
X88717889Y-57699534D01*
X88732482Y-57694091D01*
X88732483Y-57694091D01*
X88867331Y-57643796D01*
X88982546Y-57557546D01*
X89068796Y-57442331D01*
X89119091Y-57307483D01*
X89125500Y-57247873D01*
X89125500Y-57247868D01*
X95699500Y-57247868D01*
X95699501Y-57247872D01*
X95701567Y-57267093D01*
X95705908Y-57307480D01*
X95705909Y-57307483D01*
X95756204Y-57442331D01*
X95842454Y-57557546D01*
X95957669Y-57643796D01*
X96092517Y-57694091D01*
X96152127Y-57700500D01*
X96217940Y-57700499D01*
X96313224Y-57719452D01*
X96394006Y-57773427D01*
X96447984Y-57854208D01*
X96466939Y-57949496D01*
X96447986Y-58044784D01*
X96421910Y-58092317D01*
X96369434Y-58167262D01*
X96369428Y-58167272D01*
X96273262Y-58373500D01*
X96273261Y-58373503D01*
X96214365Y-58593305D01*
X96214363Y-58593320D01*
X96194532Y-58819994D01*
X96194532Y-58820005D01*
X96214363Y-59046679D01*
X96214365Y-59046694D01*
X96273261Y-59266496D01*
X96273262Y-59266499D01*
X96369428Y-59472727D01*
X96369436Y-59472741D01*
X96499949Y-59659134D01*
X96499953Y-59659139D01*
X96660861Y-59820047D01*
X96660864Y-59820049D01*
X96668549Y-59827734D01*
X96667650Y-59828632D01*
X96721362Y-59895552D01*
X96748552Y-59988825D01*
X96749500Y-60010534D01*
X96749500Y-61373920D01*
X96778341Y-61518911D01*
X96778342Y-61518913D01*
X96834916Y-61655495D01*
X96867813Y-61704729D01*
X96917048Y-61778416D01*
X98352640Y-63214007D01*
X99676570Y-64537937D01*
X99730546Y-64618719D01*
X99749500Y-64714007D01*
X99749500Y-67769465D01*
X99730546Y-67864753D01*
X99676570Y-67945535D01*
X99661159Y-67959655D01*
X99499949Y-68120865D01*
X99369436Y-68307258D01*
X99369428Y-68307272D01*
X99273262Y-68513500D01*
X99273258Y-68513511D01*
X99237835Y-68645712D01*
X99194865Y-68732848D01*
X99121820Y-68796907D01*
X99029821Y-68828136D01*
X98932874Y-68821781D01*
X98845738Y-68778811D01*
X98781679Y-68705766D01*
X98756805Y-68645715D01*
X98726739Y-68533504D01*
X98630568Y-68327266D01*
X98630565Y-68327262D01*
X98630563Y-68327258D01*
X98500050Y-68140865D01*
X98500049Y-68140864D01*
X98500047Y-68140861D01*
X98339139Y-67979953D01*
X98339135Y-67979950D01*
X98339134Y-67979949D01*
X98152741Y-67849436D01*
X98152727Y-67849428D01*
X97946499Y-67753262D01*
X97946496Y-67753261D01*
X97726694Y-67694365D01*
X97726679Y-67694363D01*
X97500006Y-67674532D01*
X97499994Y-67674532D01*
X97273320Y-67694363D01*
X97273305Y-67694365D01*
X97053503Y-67753261D01*
X97053500Y-67753262D01*
X96847272Y-67849428D01*
X96847258Y-67849436D01*
X96660865Y-67979949D01*
X96499949Y-68140865D01*
X96369436Y-68327258D01*
X96369428Y-68327272D01*
X96273262Y-68533500D01*
X96273261Y-68533503D01*
X96214365Y-68753305D01*
X96214363Y-68753320D01*
X96194532Y-68979994D01*
X96194532Y-68980005D01*
X96214363Y-69206679D01*
X96214365Y-69206694D01*
X96273261Y-69426496D01*
X96273262Y-69426499D01*
X96369428Y-69632727D01*
X96369436Y-69632741D01*
X96499949Y-69819134D01*
X96499953Y-69819139D01*
X96660861Y-69980047D01*
X96660864Y-69980049D01*
X96660865Y-69980050D01*
X96847258Y-70110563D01*
X96847262Y-70110565D01*
X96847266Y-70110568D01*
X97053504Y-70206739D01*
X97273308Y-70265635D01*
X97292984Y-70267356D01*
X97499994Y-70285468D01*
X97500000Y-70285468D01*
X97500006Y-70285468D01*
X97679668Y-70269749D01*
X97726692Y-70265635D01*
X97946496Y-70206739D01*
X98152734Y-70110568D01*
X98339139Y-69980047D01*
X98500047Y-69819139D01*
X98630568Y-69632734D01*
X98726739Y-69426496D01*
X98762164Y-69294286D01*
X98805133Y-69207153D01*
X98878178Y-69143094D01*
X98970176Y-69111863D01*
X99067123Y-69118217D01*
X99154259Y-69161187D01*
X99218318Y-69234232D01*
X99243194Y-69294285D01*
X99273260Y-69406494D01*
X99273262Y-69406499D01*
X99369428Y-69612727D01*
X99369436Y-69612741D01*
X99499949Y-69799134D01*
X99499953Y-69799139D01*
X99660861Y-69960047D01*
X99660864Y-69960049D01*
X99660865Y-69960050D01*
X99847258Y-70090563D01*
X99847262Y-70090565D01*
X99847266Y-70090568D01*
X100053504Y-70186739D01*
X100273308Y-70245635D01*
X100292984Y-70247356D01*
X100499994Y-70265468D01*
X100500000Y-70265468D01*
X100500006Y-70265468D01*
X100679668Y-70249749D01*
X100726692Y-70245635D01*
X100946496Y-70186739D01*
X101152734Y-70090568D01*
X101339139Y-69960047D01*
X101500047Y-69799139D01*
X101630568Y-69612734D01*
X101726739Y-69406496D01*
X101759484Y-69284286D01*
X101802454Y-69197152D01*
X101875499Y-69133093D01*
X101967498Y-69101863D01*
X102064445Y-69108217D01*
X102151581Y-69151187D01*
X102215640Y-69224232D01*
X102240514Y-69284285D01*
X102267902Y-69386494D01*
X102273261Y-69406496D01*
X102273262Y-69406499D01*
X102369428Y-69612727D01*
X102369436Y-69612741D01*
X102499949Y-69799134D01*
X102499953Y-69799139D01*
X102660861Y-69960047D01*
X102660864Y-69960049D01*
X102660865Y-69960050D01*
X102847258Y-70090563D01*
X102847262Y-70090565D01*
X102847266Y-70090568D01*
X103053504Y-70186739D01*
X103273308Y-70245635D01*
X103292984Y-70247356D01*
X103499994Y-70265468D01*
X103500000Y-70265468D01*
X103500006Y-70265468D01*
X103679668Y-70249749D01*
X103726692Y-70245635D01*
X103946496Y-70186739D01*
X104152734Y-70090568D01*
X104339139Y-69960047D01*
X104500047Y-69799139D01*
X104630568Y-69612734D01*
X104726739Y-69406496D01*
X104785635Y-69186692D01*
X104793376Y-69098217D01*
X104805468Y-68960005D01*
X104805468Y-68959994D01*
X104785636Y-68733320D01*
X104785635Y-68733308D01*
X104726739Y-68513504D01*
X104639894Y-68327266D01*
X104630571Y-68307272D01*
X104630563Y-68307258D01*
X104500050Y-68120865D01*
X104500049Y-68120864D01*
X104500047Y-68120861D01*
X104339139Y-67959953D01*
X104339135Y-67959950D01*
X104339134Y-67959949D01*
X104152741Y-67829436D01*
X104152727Y-67829428D01*
X103946499Y-67733262D01*
X103946496Y-67733261D01*
X103726694Y-67674365D01*
X103726679Y-67674363D01*
X103500006Y-67654532D01*
X103499994Y-67654532D01*
X103273320Y-67674363D01*
X103273305Y-67674365D01*
X103053503Y-67733261D01*
X103053500Y-67733262D01*
X102847272Y-67829428D01*
X102847258Y-67829436D01*
X102660865Y-67959949D01*
X102499949Y-68120865D01*
X102369436Y-68307258D01*
X102369428Y-68307272D01*
X102273262Y-68513500D01*
X102273261Y-68513503D01*
X102240516Y-68635711D01*
X102197545Y-68722847D01*
X102124500Y-68786906D01*
X102032501Y-68818136D01*
X101935555Y-68811782D01*
X101848419Y-68768811D01*
X101784360Y-68695766D01*
X101759484Y-68635711D01*
X101756805Y-68625712D01*
X101726739Y-68513504D01*
X101639894Y-68327266D01*
X101630571Y-68307272D01*
X101630563Y-68307258D01*
X101500050Y-68120865D01*
X101500049Y-68120864D01*
X101500047Y-68120861D01*
X101339139Y-67959953D01*
X101339135Y-67959950D01*
X101331451Y-67952266D01*
X101332348Y-67951368D01*
X101278629Y-67884431D01*
X101251447Y-67791156D01*
X101250500Y-67769465D01*
X101250500Y-64226083D01*
X101250500Y-64226082D01*
X101242230Y-64184507D01*
X101221659Y-64081088D01*
X101169762Y-63955801D01*
X101166454Y-63946555D01*
X101082955Y-63821589D01*
X101082949Y-63821582D01*
X100978416Y-63717048D01*
X100978416Y-63717049D01*
X98323430Y-61062062D01*
X98269454Y-60981280D01*
X98250500Y-60885992D01*
X98250500Y-60010534D01*
X98269454Y-59915246D01*
X98323430Y-59834464D01*
X98338843Y-59820341D01*
X98339132Y-59820051D01*
X98339139Y-59820047D01*
X98500047Y-59659139D01*
X98630568Y-59472734D01*
X98726739Y-59266496D01*
X98762164Y-59134286D01*
X98805133Y-59047153D01*
X98878178Y-58983094D01*
X98970176Y-58951863D01*
X99067123Y-58958217D01*
X99154259Y-59001187D01*
X99218318Y-59074232D01*
X99243194Y-59134285D01*
X99273260Y-59246494D01*
X99273262Y-59246499D01*
X99369428Y-59452727D01*
X99369436Y-59452741D01*
X99499949Y-59639134D01*
X99499953Y-59639139D01*
X99660861Y-59800047D01*
X99660864Y-59800049D01*
X99660865Y-59800050D01*
X99847258Y-59930563D01*
X99847262Y-59930565D01*
X99847266Y-59930568D01*
X99847270Y-59930569D01*
X99847272Y-59930571D01*
X99929308Y-59968825D01*
X100053504Y-60026739D01*
X100273308Y-60085635D01*
X100277389Y-60085992D01*
X100499994Y-60105468D01*
X100500000Y-60105468D01*
X100500006Y-60105468D01*
X100679668Y-60089749D01*
X100726692Y-60085635D01*
X100946496Y-60026739D01*
X101152734Y-59930568D01*
X101339139Y-59800047D01*
X101500047Y-59639139D01*
X101630568Y-59452734D01*
X101726739Y-59246496D01*
X101785635Y-59026692D01*
X101793376Y-58938217D01*
X101805468Y-58800005D01*
X101805468Y-58799994D01*
X101785636Y-58573320D01*
X101785635Y-58573308D01*
X101726739Y-58353504D01*
X101639894Y-58167266D01*
X101630571Y-58147272D01*
X101630563Y-58147258D01*
X101579496Y-58074326D01*
X101540367Y-57985398D01*
X101538248Y-57888267D01*
X101573461Y-57797718D01*
X101640645Y-57727537D01*
X101696451Y-57698205D01*
X101707480Y-57694091D01*
X101707483Y-57694091D01*
X101842331Y-57643796D01*
X101957546Y-57557546D01*
X102043796Y-57442331D01*
X102094091Y-57307483D01*
X102100500Y-57247873D01*
X102100499Y-54752128D01*
X102094091Y-54692517D01*
X102043796Y-54557669D01*
X101957546Y-54442454D01*
X101842331Y-54356204D01*
X101707486Y-54305910D01*
X101707481Y-54305908D01*
X101647873Y-54299500D01*
X99152134Y-54299500D01*
X99152130Y-54299500D01*
X99152128Y-54299501D01*
X99139314Y-54300878D01*
X99092519Y-54305908D01*
X99092511Y-54305910D01*
X98987014Y-54345258D01*
X98891110Y-54360798D01*
X98812985Y-54345258D01*
X98707483Y-54305908D01*
X98647873Y-54299500D01*
X96152134Y-54299500D01*
X96152130Y-54299500D01*
X96152128Y-54299501D01*
X96139314Y-54300878D01*
X96092519Y-54305908D01*
X96092515Y-54305909D01*
X95957670Y-54356203D01*
X95842455Y-54442453D01*
X95842453Y-54442455D01*
X95756204Y-54557669D01*
X95705908Y-54692518D01*
X95699500Y-54752123D01*
X95699500Y-57247865D01*
X95699500Y-57247868D01*
X89125500Y-57247868D01*
X89125499Y-54752128D01*
X89119091Y-54692517D01*
X89068796Y-54557669D01*
X88982546Y-54442454D01*
X88867331Y-54356204D01*
X88732486Y-54305910D01*
X88732481Y-54305908D01*
X88672873Y-54299500D01*
X86177134Y-54299500D01*
X86177130Y-54299500D01*
X86177128Y-54299501D01*
X86164314Y-54300878D01*
X86117519Y-54305908D01*
X86117511Y-54305910D01*
X86012014Y-54345258D01*
X85916110Y-54360798D01*
X85837985Y-54345258D01*
X85732483Y-54305908D01*
X85672873Y-54299500D01*
X83177134Y-54299500D01*
X83177130Y-54299500D01*
X83177128Y-54299501D01*
X83164314Y-54300878D01*
X83117519Y-54305908D01*
X83117515Y-54305909D01*
X82982670Y-54356203D01*
X82867455Y-54442453D01*
X82867453Y-54442455D01*
X82781204Y-54557669D01*
X82730908Y-54692518D01*
X82724500Y-54752123D01*
X82724500Y-57247865D01*
X82724500Y-57247868D01*
X76825500Y-57247868D01*
X76825499Y-54752128D01*
X76819091Y-54692517D01*
X76768796Y-54557669D01*
X76682546Y-54442454D01*
X76567331Y-54356204D01*
X76432486Y-54305910D01*
X76432481Y-54305908D01*
X76372873Y-54299500D01*
X73877134Y-54299500D01*
X73877130Y-54299500D01*
X73877128Y-54299501D01*
X73864314Y-54300878D01*
X73817519Y-54305908D01*
X73817511Y-54305910D01*
X73712014Y-54345258D01*
X73616110Y-54360798D01*
X73537985Y-54345258D01*
X73432483Y-54305908D01*
X73372873Y-54299500D01*
X70877134Y-54299500D01*
X70877130Y-54299500D01*
X70877128Y-54299501D01*
X70864314Y-54300878D01*
X70817519Y-54305908D01*
X70817515Y-54305909D01*
X70682670Y-54356203D01*
X70567455Y-54442453D01*
X70567453Y-54442455D01*
X70481204Y-54557669D01*
X70430908Y-54692518D01*
X70424500Y-54752123D01*
X70424500Y-57247865D01*
X70424500Y-57247868D01*
X61105500Y-57247868D01*
X61105500Y-47321287D01*
X63749500Y-47321287D01*
X63781162Y-47561790D01*
X63781163Y-47561795D01*
X63843940Y-47796082D01*
X63843948Y-47796105D01*
X63936770Y-48020201D01*
X63936778Y-48020217D01*
X64058058Y-48230279D01*
X64058064Y-48230289D01*
X64205729Y-48422731D01*
X64205738Y-48422741D01*
X64377258Y-48594261D01*
X64377268Y-48594270D01*
X64498491Y-48687287D01*
X64569711Y-48741936D01*
X64569720Y-48741941D01*
X64779782Y-48863221D01*
X64779798Y-48863229D01*
X64919858Y-48921242D01*
X65003900Y-48956054D01*
X65003911Y-48956057D01*
X65003917Y-48956059D01*
X65187021Y-49005121D01*
X65238211Y-49018838D01*
X65478712Y-49050500D01*
X65721288Y-49050500D01*
X65961789Y-49018838D01*
X66169323Y-48963229D01*
X66196082Y-48956059D01*
X66196084Y-48956058D01*
X66196100Y-48956054D01*
X66347766Y-48893231D01*
X66420201Y-48863229D01*
X66420206Y-48863226D01*
X66420212Y-48863224D01*
X66630289Y-48741936D01*
X66822738Y-48594265D01*
X66994265Y-48422738D01*
X67141936Y-48230289D01*
X67263224Y-48020212D01*
X67356054Y-47796100D01*
X67418838Y-47561789D01*
X67437335Y-47421287D01*
X112849500Y-47421287D01*
X112881162Y-47661790D01*
X112881163Y-47661795D01*
X112943940Y-47896082D01*
X112943948Y-47896105D01*
X113036770Y-48120201D01*
X113036778Y-48120217D01*
X113158058Y-48330279D01*
X113158064Y-48330289D01*
X113305729Y-48522731D01*
X113305738Y-48522741D01*
X113477258Y-48694261D01*
X113477268Y-48694270D01*
X113598491Y-48787287D01*
X113669711Y-48841936D01*
X113669720Y-48841941D01*
X113879782Y-48963221D01*
X113879798Y-48963229D01*
X114014050Y-49018837D01*
X114103900Y-49056054D01*
X114103911Y-49056057D01*
X114103917Y-49056059D01*
X114287021Y-49105121D01*
X114338211Y-49118838D01*
X114578712Y-49150500D01*
X114821288Y-49150500D01*
X115061789Y-49118838D01*
X115223275Y-49075567D01*
X115296082Y-49056059D01*
X115296084Y-49056058D01*
X115296100Y-49056054D01*
X115447766Y-48993231D01*
X115520201Y-48963229D01*
X115520206Y-48963226D01*
X115520212Y-48963224D01*
X115730289Y-48841936D01*
X115922738Y-48694265D01*
X116094265Y-48522738D01*
X116241936Y-48330289D01*
X116363224Y-48120212D01*
X116456054Y-47896100D01*
X116518838Y-47661789D01*
X116550500Y-47421288D01*
X116550500Y-47178712D01*
X116518838Y-46938211D01*
X116456054Y-46703900D01*
X116414630Y-46603894D01*
X116363229Y-46479798D01*
X116363221Y-46479782D01*
X116241941Y-46269720D01*
X116241935Y-46269710D01*
X116094270Y-46077268D01*
X116094261Y-46077258D01*
X115922741Y-45905738D01*
X115922731Y-45905729D01*
X115730289Y-45758064D01*
X115730279Y-45758058D01*
X115520217Y-45636778D01*
X115520201Y-45636770D01*
X115296105Y-45543948D01*
X115296103Y-45543947D01*
X115296100Y-45543946D01*
X115296096Y-45543945D01*
X115296082Y-45543940D01*
X115061795Y-45481163D01*
X115061790Y-45481162D01*
X114821288Y-45449500D01*
X114578712Y-45449500D01*
X114338209Y-45481162D01*
X114338204Y-45481163D01*
X114103917Y-45543940D01*
X114103894Y-45543948D01*
X113879798Y-45636770D01*
X113879782Y-45636778D01*
X113669720Y-45758058D01*
X113669710Y-45758064D01*
X113477268Y-45905729D01*
X113477258Y-45905738D01*
X113305738Y-46077258D01*
X113305729Y-46077268D01*
X113158064Y-46269710D01*
X113158058Y-46269720D01*
X113036778Y-46479782D01*
X113036770Y-46479798D01*
X112943948Y-46703894D01*
X112943940Y-46703917D01*
X112881163Y-46938204D01*
X112881162Y-46938209D01*
X112849500Y-47178712D01*
X112849500Y-47421287D01*
X67437335Y-47421287D01*
X67450500Y-47321288D01*
X67450500Y-47078712D01*
X67418838Y-46838211D01*
X67356054Y-46603900D01*
X67321242Y-46519858D01*
X67263229Y-46379798D01*
X67263221Y-46379782D01*
X67141941Y-46169720D01*
X67141935Y-46169710D01*
X66994270Y-45977268D01*
X66994261Y-45977258D01*
X66822741Y-45805738D01*
X66822731Y-45805729D01*
X66630289Y-45658064D01*
X66630279Y-45658058D01*
X66420217Y-45536778D01*
X66420201Y-45536770D01*
X66196105Y-45443948D01*
X66196103Y-45443947D01*
X66196100Y-45443946D01*
X66196096Y-45443945D01*
X66196082Y-45443940D01*
X65961795Y-45381163D01*
X65961790Y-45381162D01*
X65721288Y-45349500D01*
X65478712Y-45349500D01*
X65238209Y-45381162D01*
X65238204Y-45381163D01*
X65003917Y-45443940D01*
X65003894Y-45443948D01*
X64779798Y-45536770D01*
X64779782Y-45536778D01*
X64569720Y-45658058D01*
X64569710Y-45658064D01*
X64377268Y-45805729D01*
X64377258Y-45805738D01*
X64205738Y-45977258D01*
X64205729Y-45977268D01*
X64058064Y-46169710D01*
X64058058Y-46169720D01*
X63936778Y-46379782D01*
X63936770Y-46379798D01*
X63843948Y-46603894D01*
X63843940Y-46603917D01*
X63781163Y-46838204D01*
X63781162Y-46838209D01*
X63749500Y-47078712D01*
X63749500Y-47321287D01*
X61105500Y-47321287D01*
X61105500Y-43829500D01*
X61124454Y-43734212D01*
X61178430Y-43653430D01*
X61259212Y-43599454D01*
X61354500Y-43580500D01*
X117950500Y-43580500D01*
X118045788Y-43599454D01*
G37*
G04 #@! TD.AperFunction*
M02*
