G04 #@! TF.GenerationSoftware,KiCad,Pcbnew,8.0.0*
G04 #@! TF.CreationDate,2024-10-02T08:02:54-07:00*
G04 #@! TF.ProjectId,sumitomo_node_v3,73756d69-746f-46d6-9f5f-6e6f64655f76,rev?*
G04 #@! TF.SameCoordinates,Original*
G04 #@! TF.FileFunction,Legend,Top*
G04 #@! TF.FilePolarity,Positive*
%FSLAX46Y46*%
G04 Gerber Fmt 4.6, Leading zero omitted, Abs format (unit mm)*
G04 Created by KiCad (PCBNEW 8.0.0) date 2024-10-02 08:02:54*
%MOMM*%
%LPD*%
G01*
G04 APERTURE LIST*
%ADD10C,0.100000*%
%ADD11C,0.150000*%
%ADD12C,0.120000*%
%ADD13C,3.200000*%
%ADD14C,1.600000*%
%ADD15O,1.600000X1.600000*%
%ADD16R,2.400000X2.400000*%
%ADD17R,2.400000X1.600000*%
%ADD18O,2.400000X1.600000*%
%ADD19R,2.200000X2.200000*%
%ADD20O,2.200000X2.200000*%
%ADD21R,1.800000X1.800000*%
%ADD22C,1.800000*%
%ADD23R,2.000000X2.000000*%
%ADD24R,1.600000X1.600000*%
G04 APERTURE END LIST*
D10*
X81375200Y-76756265D02*
X81327580Y-76899122D01*
X81327580Y-76899122D02*
X81327580Y-77137217D01*
X81327580Y-77137217D02*
X81375200Y-77232455D01*
X81375200Y-77232455D02*
X81422819Y-77280074D01*
X81422819Y-77280074D02*
X81518057Y-77327693D01*
X81518057Y-77327693D02*
X81613295Y-77327693D01*
X81613295Y-77327693D02*
X81708533Y-77280074D01*
X81708533Y-77280074D02*
X81756152Y-77232455D01*
X81756152Y-77232455D02*
X81803771Y-77137217D01*
X81803771Y-77137217D02*
X81851390Y-76946741D01*
X81851390Y-76946741D02*
X81899009Y-76851503D01*
X81899009Y-76851503D02*
X81946628Y-76803884D01*
X81946628Y-76803884D02*
X82041866Y-76756265D01*
X82041866Y-76756265D02*
X82137104Y-76756265D01*
X82137104Y-76756265D02*
X82232342Y-76803884D01*
X82232342Y-76803884D02*
X82279961Y-76851503D01*
X82279961Y-76851503D02*
X82327580Y-76946741D01*
X82327580Y-76946741D02*
X82327580Y-77184836D01*
X82327580Y-77184836D02*
X82279961Y-77327693D01*
X81851390Y-77756265D02*
X81851390Y-78089598D01*
X81327580Y-78232455D02*
X81327580Y-77756265D01*
X81327580Y-77756265D02*
X82327580Y-77756265D01*
X82327580Y-77756265D02*
X82327580Y-78232455D01*
X81327580Y-78661027D02*
X82327580Y-78661027D01*
X82327580Y-78661027D02*
X81327580Y-79232455D01*
X81327580Y-79232455D02*
X82327580Y-79232455D01*
X81375200Y-79661027D02*
X81327580Y-79803884D01*
X81327580Y-79803884D02*
X81327580Y-80041979D01*
X81327580Y-80041979D02*
X81375200Y-80137217D01*
X81375200Y-80137217D02*
X81422819Y-80184836D01*
X81422819Y-80184836D02*
X81518057Y-80232455D01*
X81518057Y-80232455D02*
X81613295Y-80232455D01*
X81613295Y-80232455D02*
X81708533Y-80184836D01*
X81708533Y-80184836D02*
X81756152Y-80137217D01*
X81756152Y-80137217D02*
X81803771Y-80041979D01*
X81803771Y-80041979D02*
X81851390Y-79851503D01*
X81851390Y-79851503D02*
X81899009Y-79756265D01*
X81899009Y-79756265D02*
X81946628Y-79708646D01*
X81946628Y-79708646D02*
X82041866Y-79661027D01*
X82041866Y-79661027D02*
X82137104Y-79661027D01*
X82137104Y-79661027D02*
X82232342Y-79708646D01*
X82232342Y-79708646D02*
X82279961Y-79756265D01*
X82279961Y-79756265D02*
X82327580Y-79851503D01*
X82327580Y-79851503D02*
X82327580Y-80089598D01*
X82327580Y-80089598D02*
X82279961Y-80232455D01*
X82327580Y-80851503D02*
X82327580Y-81041979D01*
X82327580Y-81041979D02*
X82279961Y-81137217D01*
X82279961Y-81137217D02*
X82184723Y-81232455D01*
X82184723Y-81232455D02*
X81994247Y-81280074D01*
X81994247Y-81280074D02*
X81660914Y-81280074D01*
X81660914Y-81280074D02*
X81470438Y-81232455D01*
X81470438Y-81232455D02*
X81375200Y-81137217D01*
X81375200Y-81137217D02*
X81327580Y-81041979D01*
X81327580Y-81041979D02*
X81327580Y-80851503D01*
X81327580Y-80851503D02*
X81375200Y-80756265D01*
X81375200Y-80756265D02*
X81470438Y-80661027D01*
X81470438Y-80661027D02*
X81660914Y-80613408D01*
X81660914Y-80613408D02*
X81994247Y-80613408D01*
X81994247Y-80613408D02*
X82184723Y-80661027D01*
X82184723Y-80661027D02*
X82279961Y-80756265D01*
X82279961Y-80756265D02*
X82327580Y-80851503D01*
X81327580Y-82280074D02*
X81803771Y-81946741D01*
X81327580Y-81708646D02*
X82327580Y-81708646D01*
X82327580Y-81708646D02*
X82327580Y-82089598D01*
X82327580Y-82089598D02*
X82279961Y-82184836D01*
X82279961Y-82184836D02*
X82232342Y-82232455D01*
X82232342Y-82232455D02*
X82137104Y-82280074D01*
X82137104Y-82280074D02*
X81994247Y-82280074D01*
X81994247Y-82280074D02*
X81899009Y-82232455D01*
X81899009Y-82232455D02*
X81851390Y-82184836D01*
X81851390Y-82184836D02*
X81803771Y-82089598D01*
X81803771Y-82089598D02*
X81803771Y-81708646D01*
X81232342Y-82470551D02*
X81232342Y-83232455D01*
X81327580Y-83518170D02*
X81327580Y-83708646D01*
X81327580Y-83708646D02*
X81375200Y-83803884D01*
X81375200Y-83803884D02*
X81422819Y-83851503D01*
X81422819Y-83851503D02*
X81565676Y-83946741D01*
X81565676Y-83946741D02*
X81756152Y-83994360D01*
X81756152Y-83994360D02*
X82137104Y-83994360D01*
X82137104Y-83994360D02*
X82232342Y-83946741D01*
X82232342Y-83946741D02*
X82279961Y-83899122D01*
X82279961Y-83899122D02*
X82327580Y-83803884D01*
X82327580Y-83803884D02*
X82327580Y-83613408D01*
X82327580Y-83613408D02*
X82279961Y-83518170D01*
X82279961Y-83518170D02*
X82232342Y-83470551D01*
X82232342Y-83470551D02*
X82137104Y-83422932D01*
X82137104Y-83422932D02*
X81899009Y-83422932D01*
X81899009Y-83422932D02*
X81803771Y-83470551D01*
X81803771Y-83470551D02*
X81756152Y-83518170D01*
X81756152Y-83518170D02*
X81708533Y-83613408D01*
X81708533Y-83613408D02*
X81708533Y-83803884D01*
X81708533Y-83803884D02*
X81756152Y-83899122D01*
X81756152Y-83899122D02*
X81803771Y-83946741D01*
X81803771Y-83946741D02*
X81899009Y-83994360D01*
X80875200Y-95556265D02*
X80827580Y-95699122D01*
X80827580Y-95699122D02*
X80827580Y-95937217D01*
X80827580Y-95937217D02*
X80875200Y-96032455D01*
X80875200Y-96032455D02*
X80922819Y-96080074D01*
X80922819Y-96080074D02*
X81018057Y-96127693D01*
X81018057Y-96127693D02*
X81113295Y-96127693D01*
X81113295Y-96127693D02*
X81208533Y-96080074D01*
X81208533Y-96080074D02*
X81256152Y-96032455D01*
X81256152Y-96032455D02*
X81303771Y-95937217D01*
X81303771Y-95937217D02*
X81351390Y-95746741D01*
X81351390Y-95746741D02*
X81399009Y-95651503D01*
X81399009Y-95651503D02*
X81446628Y-95603884D01*
X81446628Y-95603884D02*
X81541866Y-95556265D01*
X81541866Y-95556265D02*
X81637104Y-95556265D01*
X81637104Y-95556265D02*
X81732342Y-95603884D01*
X81732342Y-95603884D02*
X81779961Y-95651503D01*
X81779961Y-95651503D02*
X81827580Y-95746741D01*
X81827580Y-95746741D02*
X81827580Y-95984836D01*
X81827580Y-95984836D02*
X81779961Y-96127693D01*
X81351390Y-96556265D02*
X81351390Y-96889598D01*
X80827580Y-97032455D02*
X80827580Y-96556265D01*
X80827580Y-96556265D02*
X81827580Y-96556265D01*
X81827580Y-96556265D02*
X81827580Y-97032455D01*
X80827580Y-97461027D02*
X81827580Y-97461027D01*
X81827580Y-97461027D02*
X80827580Y-98032455D01*
X80827580Y-98032455D02*
X81827580Y-98032455D01*
X80875200Y-98461027D02*
X80827580Y-98603884D01*
X80827580Y-98603884D02*
X80827580Y-98841979D01*
X80827580Y-98841979D02*
X80875200Y-98937217D01*
X80875200Y-98937217D02*
X80922819Y-98984836D01*
X80922819Y-98984836D02*
X81018057Y-99032455D01*
X81018057Y-99032455D02*
X81113295Y-99032455D01*
X81113295Y-99032455D02*
X81208533Y-98984836D01*
X81208533Y-98984836D02*
X81256152Y-98937217D01*
X81256152Y-98937217D02*
X81303771Y-98841979D01*
X81303771Y-98841979D02*
X81351390Y-98651503D01*
X81351390Y-98651503D02*
X81399009Y-98556265D01*
X81399009Y-98556265D02*
X81446628Y-98508646D01*
X81446628Y-98508646D02*
X81541866Y-98461027D01*
X81541866Y-98461027D02*
X81637104Y-98461027D01*
X81637104Y-98461027D02*
X81732342Y-98508646D01*
X81732342Y-98508646D02*
X81779961Y-98556265D01*
X81779961Y-98556265D02*
X81827580Y-98651503D01*
X81827580Y-98651503D02*
X81827580Y-98889598D01*
X81827580Y-98889598D02*
X81779961Y-99032455D01*
X81827580Y-99651503D02*
X81827580Y-99841979D01*
X81827580Y-99841979D02*
X81779961Y-99937217D01*
X81779961Y-99937217D02*
X81684723Y-100032455D01*
X81684723Y-100032455D02*
X81494247Y-100080074D01*
X81494247Y-100080074D02*
X81160914Y-100080074D01*
X81160914Y-100080074D02*
X80970438Y-100032455D01*
X80970438Y-100032455D02*
X80875200Y-99937217D01*
X80875200Y-99937217D02*
X80827580Y-99841979D01*
X80827580Y-99841979D02*
X80827580Y-99651503D01*
X80827580Y-99651503D02*
X80875200Y-99556265D01*
X80875200Y-99556265D02*
X80970438Y-99461027D01*
X80970438Y-99461027D02*
X81160914Y-99413408D01*
X81160914Y-99413408D02*
X81494247Y-99413408D01*
X81494247Y-99413408D02*
X81684723Y-99461027D01*
X81684723Y-99461027D02*
X81779961Y-99556265D01*
X81779961Y-99556265D02*
X81827580Y-99651503D01*
X80827580Y-101080074D02*
X81303771Y-100746741D01*
X80827580Y-100508646D02*
X81827580Y-100508646D01*
X81827580Y-100508646D02*
X81827580Y-100889598D01*
X81827580Y-100889598D02*
X81779961Y-100984836D01*
X81779961Y-100984836D02*
X81732342Y-101032455D01*
X81732342Y-101032455D02*
X81637104Y-101080074D01*
X81637104Y-101080074D02*
X81494247Y-101080074D01*
X81494247Y-101080074D02*
X81399009Y-101032455D01*
X81399009Y-101032455D02*
X81351390Y-100984836D01*
X81351390Y-100984836D02*
X81303771Y-100889598D01*
X81303771Y-100889598D02*
X81303771Y-100508646D01*
X80732342Y-101270551D02*
X80732342Y-102032455D01*
X81399009Y-102413408D02*
X81446628Y-102318170D01*
X81446628Y-102318170D02*
X81494247Y-102270551D01*
X81494247Y-102270551D02*
X81589485Y-102222932D01*
X81589485Y-102222932D02*
X81637104Y-102222932D01*
X81637104Y-102222932D02*
X81732342Y-102270551D01*
X81732342Y-102270551D02*
X81779961Y-102318170D01*
X81779961Y-102318170D02*
X81827580Y-102413408D01*
X81827580Y-102413408D02*
X81827580Y-102603884D01*
X81827580Y-102603884D02*
X81779961Y-102699122D01*
X81779961Y-102699122D02*
X81732342Y-102746741D01*
X81732342Y-102746741D02*
X81637104Y-102794360D01*
X81637104Y-102794360D02*
X81589485Y-102794360D01*
X81589485Y-102794360D02*
X81494247Y-102746741D01*
X81494247Y-102746741D02*
X81446628Y-102699122D01*
X81446628Y-102699122D02*
X81399009Y-102603884D01*
X81399009Y-102603884D02*
X81399009Y-102413408D01*
X81399009Y-102413408D02*
X81351390Y-102318170D01*
X81351390Y-102318170D02*
X81303771Y-102270551D01*
X81303771Y-102270551D02*
X81208533Y-102222932D01*
X81208533Y-102222932D02*
X81018057Y-102222932D01*
X81018057Y-102222932D02*
X80922819Y-102270551D01*
X80922819Y-102270551D02*
X80875200Y-102318170D01*
X80875200Y-102318170D02*
X80827580Y-102413408D01*
X80827580Y-102413408D02*
X80827580Y-102603884D01*
X80827580Y-102603884D02*
X80875200Y-102699122D01*
X80875200Y-102699122D02*
X80922819Y-102746741D01*
X80922819Y-102746741D02*
X81018057Y-102794360D01*
X81018057Y-102794360D02*
X81208533Y-102794360D01*
X81208533Y-102794360D02*
X81303771Y-102746741D01*
X81303771Y-102746741D02*
X81351390Y-102699122D01*
X81351390Y-102699122D02*
X81399009Y-102603884D01*
X81075200Y-111956265D02*
X81027580Y-112099122D01*
X81027580Y-112099122D02*
X81027580Y-112337217D01*
X81027580Y-112337217D02*
X81075200Y-112432455D01*
X81075200Y-112432455D02*
X81122819Y-112480074D01*
X81122819Y-112480074D02*
X81218057Y-112527693D01*
X81218057Y-112527693D02*
X81313295Y-112527693D01*
X81313295Y-112527693D02*
X81408533Y-112480074D01*
X81408533Y-112480074D02*
X81456152Y-112432455D01*
X81456152Y-112432455D02*
X81503771Y-112337217D01*
X81503771Y-112337217D02*
X81551390Y-112146741D01*
X81551390Y-112146741D02*
X81599009Y-112051503D01*
X81599009Y-112051503D02*
X81646628Y-112003884D01*
X81646628Y-112003884D02*
X81741866Y-111956265D01*
X81741866Y-111956265D02*
X81837104Y-111956265D01*
X81837104Y-111956265D02*
X81932342Y-112003884D01*
X81932342Y-112003884D02*
X81979961Y-112051503D01*
X81979961Y-112051503D02*
X82027580Y-112146741D01*
X82027580Y-112146741D02*
X82027580Y-112384836D01*
X82027580Y-112384836D02*
X81979961Y-112527693D01*
X81551390Y-112956265D02*
X81551390Y-113289598D01*
X81027580Y-113432455D02*
X81027580Y-112956265D01*
X81027580Y-112956265D02*
X82027580Y-112956265D01*
X82027580Y-112956265D02*
X82027580Y-113432455D01*
X81027580Y-113861027D02*
X82027580Y-113861027D01*
X82027580Y-113861027D02*
X81027580Y-114432455D01*
X81027580Y-114432455D02*
X82027580Y-114432455D01*
X81075200Y-114861027D02*
X81027580Y-115003884D01*
X81027580Y-115003884D02*
X81027580Y-115241979D01*
X81027580Y-115241979D02*
X81075200Y-115337217D01*
X81075200Y-115337217D02*
X81122819Y-115384836D01*
X81122819Y-115384836D02*
X81218057Y-115432455D01*
X81218057Y-115432455D02*
X81313295Y-115432455D01*
X81313295Y-115432455D02*
X81408533Y-115384836D01*
X81408533Y-115384836D02*
X81456152Y-115337217D01*
X81456152Y-115337217D02*
X81503771Y-115241979D01*
X81503771Y-115241979D02*
X81551390Y-115051503D01*
X81551390Y-115051503D02*
X81599009Y-114956265D01*
X81599009Y-114956265D02*
X81646628Y-114908646D01*
X81646628Y-114908646D02*
X81741866Y-114861027D01*
X81741866Y-114861027D02*
X81837104Y-114861027D01*
X81837104Y-114861027D02*
X81932342Y-114908646D01*
X81932342Y-114908646D02*
X81979961Y-114956265D01*
X81979961Y-114956265D02*
X82027580Y-115051503D01*
X82027580Y-115051503D02*
X82027580Y-115289598D01*
X82027580Y-115289598D02*
X81979961Y-115432455D01*
X82027580Y-116051503D02*
X82027580Y-116241979D01*
X82027580Y-116241979D02*
X81979961Y-116337217D01*
X81979961Y-116337217D02*
X81884723Y-116432455D01*
X81884723Y-116432455D02*
X81694247Y-116480074D01*
X81694247Y-116480074D02*
X81360914Y-116480074D01*
X81360914Y-116480074D02*
X81170438Y-116432455D01*
X81170438Y-116432455D02*
X81075200Y-116337217D01*
X81075200Y-116337217D02*
X81027580Y-116241979D01*
X81027580Y-116241979D02*
X81027580Y-116051503D01*
X81027580Y-116051503D02*
X81075200Y-115956265D01*
X81075200Y-115956265D02*
X81170438Y-115861027D01*
X81170438Y-115861027D02*
X81360914Y-115813408D01*
X81360914Y-115813408D02*
X81694247Y-115813408D01*
X81694247Y-115813408D02*
X81884723Y-115861027D01*
X81884723Y-115861027D02*
X81979961Y-115956265D01*
X81979961Y-115956265D02*
X82027580Y-116051503D01*
X81027580Y-117480074D02*
X81503771Y-117146741D01*
X81027580Y-116908646D02*
X82027580Y-116908646D01*
X82027580Y-116908646D02*
X82027580Y-117289598D01*
X82027580Y-117289598D02*
X81979961Y-117384836D01*
X81979961Y-117384836D02*
X81932342Y-117432455D01*
X81932342Y-117432455D02*
X81837104Y-117480074D01*
X81837104Y-117480074D02*
X81694247Y-117480074D01*
X81694247Y-117480074D02*
X81599009Y-117432455D01*
X81599009Y-117432455D02*
X81551390Y-117384836D01*
X81551390Y-117384836D02*
X81503771Y-117289598D01*
X81503771Y-117289598D02*
X81503771Y-116908646D01*
X80932342Y-117670551D02*
X80932342Y-118432455D01*
X82027580Y-118575313D02*
X82027580Y-119241979D01*
X82027580Y-119241979D02*
X81027580Y-118813408D01*
X68375200Y-111956265D02*
X68327580Y-112099122D01*
X68327580Y-112099122D02*
X68327580Y-112337217D01*
X68327580Y-112337217D02*
X68375200Y-112432455D01*
X68375200Y-112432455D02*
X68422819Y-112480074D01*
X68422819Y-112480074D02*
X68518057Y-112527693D01*
X68518057Y-112527693D02*
X68613295Y-112527693D01*
X68613295Y-112527693D02*
X68708533Y-112480074D01*
X68708533Y-112480074D02*
X68756152Y-112432455D01*
X68756152Y-112432455D02*
X68803771Y-112337217D01*
X68803771Y-112337217D02*
X68851390Y-112146741D01*
X68851390Y-112146741D02*
X68899009Y-112051503D01*
X68899009Y-112051503D02*
X68946628Y-112003884D01*
X68946628Y-112003884D02*
X69041866Y-111956265D01*
X69041866Y-111956265D02*
X69137104Y-111956265D01*
X69137104Y-111956265D02*
X69232342Y-112003884D01*
X69232342Y-112003884D02*
X69279961Y-112051503D01*
X69279961Y-112051503D02*
X69327580Y-112146741D01*
X69327580Y-112146741D02*
X69327580Y-112384836D01*
X69327580Y-112384836D02*
X69279961Y-112527693D01*
X68851390Y-112956265D02*
X68851390Y-113289598D01*
X68327580Y-113432455D02*
X68327580Y-112956265D01*
X68327580Y-112956265D02*
X69327580Y-112956265D01*
X69327580Y-112956265D02*
X69327580Y-113432455D01*
X68327580Y-113861027D02*
X69327580Y-113861027D01*
X69327580Y-113861027D02*
X68327580Y-114432455D01*
X68327580Y-114432455D02*
X69327580Y-114432455D01*
X68375200Y-114861027D02*
X68327580Y-115003884D01*
X68327580Y-115003884D02*
X68327580Y-115241979D01*
X68327580Y-115241979D02*
X68375200Y-115337217D01*
X68375200Y-115337217D02*
X68422819Y-115384836D01*
X68422819Y-115384836D02*
X68518057Y-115432455D01*
X68518057Y-115432455D02*
X68613295Y-115432455D01*
X68613295Y-115432455D02*
X68708533Y-115384836D01*
X68708533Y-115384836D02*
X68756152Y-115337217D01*
X68756152Y-115337217D02*
X68803771Y-115241979D01*
X68803771Y-115241979D02*
X68851390Y-115051503D01*
X68851390Y-115051503D02*
X68899009Y-114956265D01*
X68899009Y-114956265D02*
X68946628Y-114908646D01*
X68946628Y-114908646D02*
X69041866Y-114861027D01*
X69041866Y-114861027D02*
X69137104Y-114861027D01*
X69137104Y-114861027D02*
X69232342Y-114908646D01*
X69232342Y-114908646D02*
X69279961Y-114956265D01*
X69279961Y-114956265D02*
X69327580Y-115051503D01*
X69327580Y-115051503D02*
X69327580Y-115289598D01*
X69327580Y-115289598D02*
X69279961Y-115432455D01*
X69327580Y-116051503D02*
X69327580Y-116241979D01*
X69327580Y-116241979D02*
X69279961Y-116337217D01*
X69279961Y-116337217D02*
X69184723Y-116432455D01*
X69184723Y-116432455D02*
X68994247Y-116480074D01*
X68994247Y-116480074D02*
X68660914Y-116480074D01*
X68660914Y-116480074D02*
X68470438Y-116432455D01*
X68470438Y-116432455D02*
X68375200Y-116337217D01*
X68375200Y-116337217D02*
X68327580Y-116241979D01*
X68327580Y-116241979D02*
X68327580Y-116051503D01*
X68327580Y-116051503D02*
X68375200Y-115956265D01*
X68375200Y-115956265D02*
X68470438Y-115861027D01*
X68470438Y-115861027D02*
X68660914Y-115813408D01*
X68660914Y-115813408D02*
X68994247Y-115813408D01*
X68994247Y-115813408D02*
X69184723Y-115861027D01*
X69184723Y-115861027D02*
X69279961Y-115956265D01*
X69279961Y-115956265D02*
X69327580Y-116051503D01*
X68327580Y-117480074D02*
X68803771Y-117146741D01*
X68327580Y-116908646D02*
X69327580Y-116908646D01*
X69327580Y-116908646D02*
X69327580Y-117289598D01*
X69327580Y-117289598D02*
X69279961Y-117384836D01*
X69279961Y-117384836D02*
X69232342Y-117432455D01*
X69232342Y-117432455D02*
X69137104Y-117480074D01*
X69137104Y-117480074D02*
X68994247Y-117480074D01*
X68994247Y-117480074D02*
X68899009Y-117432455D01*
X68899009Y-117432455D02*
X68851390Y-117384836D01*
X68851390Y-117384836D02*
X68803771Y-117289598D01*
X68803771Y-117289598D02*
X68803771Y-116908646D01*
X68232342Y-117670551D02*
X68232342Y-118432455D01*
X69327580Y-119099122D02*
X69327580Y-118908646D01*
X69327580Y-118908646D02*
X69279961Y-118813408D01*
X69279961Y-118813408D02*
X69232342Y-118765789D01*
X69232342Y-118765789D02*
X69089485Y-118670551D01*
X69089485Y-118670551D02*
X68899009Y-118622932D01*
X68899009Y-118622932D02*
X68518057Y-118622932D01*
X68518057Y-118622932D02*
X68422819Y-118670551D01*
X68422819Y-118670551D02*
X68375200Y-118718170D01*
X68375200Y-118718170D02*
X68327580Y-118813408D01*
X68327580Y-118813408D02*
X68327580Y-119003884D01*
X68327580Y-119003884D02*
X68375200Y-119099122D01*
X68375200Y-119099122D02*
X68422819Y-119146741D01*
X68422819Y-119146741D02*
X68518057Y-119194360D01*
X68518057Y-119194360D02*
X68756152Y-119194360D01*
X68756152Y-119194360D02*
X68851390Y-119146741D01*
X68851390Y-119146741D02*
X68899009Y-119099122D01*
X68899009Y-119099122D02*
X68946628Y-119003884D01*
X68946628Y-119003884D02*
X68946628Y-118813408D01*
X68946628Y-118813408D02*
X68899009Y-118718170D01*
X68899009Y-118718170D02*
X68851390Y-118670551D01*
X68851390Y-118670551D02*
X68756152Y-118622932D01*
X68375200Y-95356265D02*
X68327580Y-95499122D01*
X68327580Y-95499122D02*
X68327580Y-95737217D01*
X68327580Y-95737217D02*
X68375200Y-95832455D01*
X68375200Y-95832455D02*
X68422819Y-95880074D01*
X68422819Y-95880074D02*
X68518057Y-95927693D01*
X68518057Y-95927693D02*
X68613295Y-95927693D01*
X68613295Y-95927693D02*
X68708533Y-95880074D01*
X68708533Y-95880074D02*
X68756152Y-95832455D01*
X68756152Y-95832455D02*
X68803771Y-95737217D01*
X68803771Y-95737217D02*
X68851390Y-95546741D01*
X68851390Y-95546741D02*
X68899009Y-95451503D01*
X68899009Y-95451503D02*
X68946628Y-95403884D01*
X68946628Y-95403884D02*
X69041866Y-95356265D01*
X69041866Y-95356265D02*
X69137104Y-95356265D01*
X69137104Y-95356265D02*
X69232342Y-95403884D01*
X69232342Y-95403884D02*
X69279961Y-95451503D01*
X69279961Y-95451503D02*
X69327580Y-95546741D01*
X69327580Y-95546741D02*
X69327580Y-95784836D01*
X69327580Y-95784836D02*
X69279961Y-95927693D01*
X68851390Y-96356265D02*
X68851390Y-96689598D01*
X68327580Y-96832455D02*
X68327580Y-96356265D01*
X68327580Y-96356265D02*
X69327580Y-96356265D01*
X69327580Y-96356265D02*
X69327580Y-96832455D01*
X68327580Y-97261027D02*
X69327580Y-97261027D01*
X69327580Y-97261027D02*
X68327580Y-97832455D01*
X68327580Y-97832455D02*
X69327580Y-97832455D01*
X68375200Y-98261027D02*
X68327580Y-98403884D01*
X68327580Y-98403884D02*
X68327580Y-98641979D01*
X68327580Y-98641979D02*
X68375200Y-98737217D01*
X68375200Y-98737217D02*
X68422819Y-98784836D01*
X68422819Y-98784836D02*
X68518057Y-98832455D01*
X68518057Y-98832455D02*
X68613295Y-98832455D01*
X68613295Y-98832455D02*
X68708533Y-98784836D01*
X68708533Y-98784836D02*
X68756152Y-98737217D01*
X68756152Y-98737217D02*
X68803771Y-98641979D01*
X68803771Y-98641979D02*
X68851390Y-98451503D01*
X68851390Y-98451503D02*
X68899009Y-98356265D01*
X68899009Y-98356265D02*
X68946628Y-98308646D01*
X68946628Y-98308646D02*
X69041866Y-98261027D01*
X69041866Y-98261027D02*
X69137104Y-98261027D01*
X69137104Y-98261027D02*
X69232342Y-98308646D01*
X69232342Y-98308646D02*
X69279961Y-98356265D01*
X69279961Y-98356265D02*
X69327580Y-98451503D01*
X69327580Y-98451503D02*
X69327580Y-98689598D01*
X69327580Y-98689598D02*
X69279961Y-98832455D01*
X69327580Y-99451503D02*
X69327580Y-99641979D01*
X69327580Y-99641979D02*
X69279961Y-99737217D01*
X69279961Y-99737217D02*
X69184723Y-99832455D01*
X69184723Y-99832455D02*
X68994247Y-99880074D01*
X68994247Y-99880074D02*
X68660914Y-99880074D01*
X68660914Y-99880074D02*
X68470438Y-99832455D01*
X68470438Y-99832455D02*
X68375200Y-99737217D01*
X68375200Y-99737217D02*
X68327580Y-99641979D01*
X68327580Y-99641979D02*
X68327580Y-99451503D01*
X68327580Y-99451503D02*
X68375200Y-99356265D01*
X68375200Y-99356265D02*
X68470438Y-99261027D01*
X68470438Y-99261027D02*
X68660914Y-99213408D01*
X68660914Y-99213408D02*
X68994247Y-99213408D01*
X68994247Y-99213408D02*
X69184723Y-99261027D01*
X69184723Y-99261027D02*
X69279961Y-99356265D01*
X69279961Y-99356265D02*
X69327580Y-99451503D01*
X68327580Y-100880074D02*
X68803771Y-100546741D01*
X68327580Y-100308646D02*
X69327580Y-100308646D01*
X69327580Y-100308646D02*
X69327580Y-100689598D01*
X69327580Y-100689598D02*
X69279961Y-100784836D01*
X69279961Y-100784836D02*
X69232342Y-100832455D01*
X69232342Y-100832455D02*
X69137104Y-100880074D01*
X69137104Y-100880074D02*
X68994247Y-100880074D01*
X68994247Y-100880074D02*
X68899009Y-100832455D01*
X68899009Y-100832455D02*
X68851390Y-100784836D01*
X68851390Y-100784836D02*
X68803771Y-100689598D01*
X68803771Y-100689598D02*
X68803771Y-100308646D01*
X68232342Y-101070551D02*
X68232342Y-101832455D01*
X69327580Y-102546741D02*
X69327580Y-102070551D01*
X69327580Y-102070551D02*
X68851390Y-102022932D01*
X68851390Y-102022932D02*
X68899009Y-102070551D01*
X68899009Y-102070551D02*
X68946628Y-102165789D01*
X68946628Y-102165789D02*
X68946628Y-102403884D01*
X68946628Y-102403884D02*
X68899009Y-102499122D01*
X68899009Y-102499122D02*
X68851390Y-102546741D01*
X68851390Y-102546741D02*
X68756152Y-102594360D01*
X68756152Y-102594360D02*
X68518057Y-102594360D01*
X68518057Y-102594360D02*
X68422819Y-102546741D01*
X68422819Y-102546741D02*
X68375200Y-102499122D01*
X68375200Y-102499122D02*
X68327580Y-102403884D01*
X68327580Y-102403884D02*
X68327580Y-102165789D01*
X68327580Y-102165789D02*
X68375200Y-102070551D01*
X68375200Y-102070551D02*
X68422819Y-102022932D01*
X68775200Y-76756265D02*
X68727580Y-76899122D01*
X68727580Y-76899122D02*
X68727580Y-77137217D01*
X68727580Y-77137217D02*
X68775200Y-77232455D01*
X68775200Y-77232455D02*
X68822819Y-77280074D01*
X68822819Y-77280074D02*
X68918057Y-77327693D01*
X68918057Y-77327693D02*
X69013295Y-77327693D01*
X69013295Y-77327693D02*
X69108533Y-77280074D01*
X69108533Y-77280074D02*
X69156152Y-77232455D01*
X69156152Y-77232455D02*
X69203771Y-77137217D01*
X69203771Y-77137217D02*
X69251390Y-76946741D01*
X69251390Y-76946741D02*
X69299009Y-76851503D01*
X69299009Y-76851503D02*
X69346628Y-76803884D01*
X69346628Y-76803884D02*
X69441866Y-76756265D01*
X69441866Y-76756265D02*
X69537104Y-76756265D01*
X69537104Y-76756265D02*
X69632342Y-76803884D01*
X69632342Y-76803884D02*
X69679961Y-76851503D01*
X69679961Y-76851503D02*
X69727580Y-76946741D01*
X69727580Y-76946741D02*
X69727580Y-77184836D01*
X69727580Y-77184836D02*
X69679961Y-77327693D01*
X69251390Y-77756265D02*
X69251390Y-78089598D01*
X68727580Y-78232455D02*
X68727580Y-77756265D01*
X68727580Y-77756265D02*
X69727580Y-77756265D01*
X69727580Y-77756265D02*
X69727580Y-78232455D01*
X68727580Y-78661027D02*
X69727580Y-78661027D01*
X69727580Y-78661027D02*
X68727580Y-79232455D01*
X68727580Y-79232455D02*
X69727580Y-79232455D01*
X68775200Y-79661027D02*
X68727580Y-79803884D01*
X68727580Y-79803884D02*
X68727580Y-80041979D01*
X68727580Y-80041979D02*
X68775200Y-80137217D01*
X68775200Y-80137217D02*
X68822819Y-80184836D01*
X68822819Y-80184836D02*
X68918057Y-80232455D01*
X68918057Y-80232455D02*
X69013295Y-80232455D01*
X69013295Y-80232455D02*
X69108533Y-80184836D01*
X69108533Y-80184836D02*
X69156152Y-80137217D01*
X69156152Y-80137217D02*
X69203771Y-80041979D01*
X69203771Y-80041979D02*
X69251390Y-79851503D01*
X69251390Y-79851503D02*
X69299009Y-79756265D01*
X69299009Y-79756265D02*
X69346628Y-79708646D01*
X69346628Y-79708646D02*
X69441866Y-79661027D01*
X69441866Y-79661027D02*
X69537104Y-79661027D01*
X69537104Y-79661027D02*
X69632342Y-79708646D01*
X69632342Y-79708646D02*
X69679961Y-79756265D01*
X69679961Y-79756265D02*
X69727580Y-79851503D01*
X69727580Y-79851503D02*
X69727580Y-80089598D01*
X69727580Y-80089598D02*
X69679961Y-80232455D01*
X69727580Y-80851503D02*
X69727580Y-81041979D01*
X69727580Y-81041979D02*
X69679961Y-81137217D01*
X69679961Y-81137217D02*
X69584723Y-81232455D01*
X69584723Y-81232455D02*
X69394247Y-81280074D01*
X69394247Y-81280074D02*
X69060914Y-81280074D01*
X69060914Y-81280074D02*
X68870438Y-81232455D01*
X68870438Y-81232455D02*
X68775200Y-81137217D01*
X68775200Y-81137217D02*
X68727580Y-81041979D01*
X68727580Y-81041979D02*
X68727580Y-80851503D01*
X68727580Y-80851503D02*
X68775200Y-80756265D01*
X68775200Y-80756265D02*
X68870438Y-80661027D01*
X68870438Y-80661027D02*
X69060914Y-80613408D01*
X69060914Y-80613408D02*
X69394247Y-80613408D01*
X69394247Y-80613408D02*
X69584723Y-80661027D01*
X69584723Y-80661027D02*
X69679961Y-80756265D01*
X69679961Y-80756265D02*
X69727580Y-80851503D01*
X68727580Y-82280074D02*
X69203771Y-81946741D01*
X68727580Y-81708646D02*
X69727580Y-81708646D01*
X69727580Y-81708646D02*
X69727580Y-82089598D01*
X69727580Y-82089598D02*
X69679961Y-82184836D01*
X69679961Y-82184836D02*
X69632342Y-82232455D01*
X69632342Y-82232455D02*
X69537104Y-82280074D01*
X69537104Y-82280074D02*
X69394247Y-82280074D01*
X69394247Y-82280074D02*
X69299009Y-82232455D01*
X69299009Y-82232455D02*
X69251390Y-82184836D01*
X69251390Y-82184836D02*
X69203771Y-82089598D01*
X69203771Y-82089598D02*
X69203771Y-81708646D01*
X68632342Y-82470551D02*
X68632342Y-83232455D01*
X69394247Y-83899122D02*
X68727580Y-83899122D01*
X69775200Y-83661027D02*
X69060914Y-83422932D01*
X69060914Y-83422932D02*
X69060914Y-84041979D01*
X69175200Y-60356265D02*
X69127580Y-60499122D01*
X69127580Y-60499122D02*
X69127580Y-60737217D01*
X69127580Y-60737217D02*
X69175200Y-60832455D01*
X69175200Y-60832455D02*
X69222819Y-60880074D01*
X69222819Y-60880074D02*
X69318057Y-60927693D01*
X69318057Y-60927693D02*
X69413295Y-60927693D01*
X69413295Y-60927693D02*
X69508533Y-60880074D01*
X69508533Y-60880074D02*
X69556152Y-60832455D01*
X69556152Y-60832455D02*
X69603771Y-60737217D01*
X69603771Y-60737217D02*
X69651390Y-60546741D01*
X69651390Y-60546741D02*
X69699009Y-60451503D01*
X69699009Y-60451503D02*
X69746628Y-60403884D01*
X69746628Y-60403884D02*
X69841866Y-60356265D01*
X69841866Y-60356265D02*
X69937104Y-60356265D01*
X69937104Y-60356265D02*
X70032342Y-60403884D01*
X70032342Y-60403884D02*
X70079961Y-60451503D01*
X70079961Y-60451503D02*
X70127580Y-60546741D01*
X70127580Y-60546741D02*
X70127580Y-60784836D01*
X70127580Y-60784836D02*
X70079961Y-60927693D01*
X69651390Y-61356265D02*
X69651390Y-61689598D01*
X69127580Y-61832455D02*
X69127580Y-61356265D01*
X69127580Y-61356265D02*
X70127580Y-61356265D01*
X70127580Y-61356265D02*
X70127580Y-61832455D01*
X69127580Y-62261027D02*
X70127580Y-62261027D01*
X70127580Y-62261027D02*
X69127580Y-62832455D01*
X69127580Y-62832455D02*
X70127580Y-62832455D01*
X69175200Y-63261027D02*
X69127580Y-63403884D01*
X69127580Y-63403884D02*
X69127580Y-63641979D01*
X69127580Y-63641979D02*
X69175200Y-63737217D01*
X69175200Y-63737217D02*
X69222819Y-63784836D01*
X69222819Y-63784836D02*
X69318057Y-63832455D01*
X69318057Y-63832455D02*
X69413295Y-63832455D01*
X69413295Y-63832455D02*
X69508533Y-63784836D01*
X69508533Y-63784836D02*
X69556152Y-63737217D01*
X69556152Y-63737217D02*
X69603771Y-63641979D01*
X69603771Y-63641979D02*
X69651390Y-63451503D01*
X69651390Y-63451503D02*
X69699009Y-63356265D01*
X69699009Y-63356265D02*
X69746628Y-63308646D01*
X69746628Y-63308646D02*
X69841866Y-63261027D01*
X69841866Y-63261027D02*
X69937104Y-63261027D01*
X69937104Y-63261027D02*
X70032342Y-63308646D01*
X70032342Y-63308646D02*
X70079961Y-63356265D01*
X70079961Y-63356265D02*
X70127580Y-63451503D01*
X70127580Y-63451503D02*
X70127580Y-63689598D01*
X70127580Y-63689598D02*
X70079961Y-63832455D01*
X70127580Y-64451503D02*
X70127580Y-64641979D01*
X70127580Y-64641979D02*
X70079961Y-64737217D01*
X70079961Y-64737217D02*
X69984723Y-64832455D01*
X69984723Y-64832455D02*
X69794247Y-64880074D01*
X69794247Y-64880074D02*
X69460914Y-64880074D01*
X69460914Y-64880074D02*
X69270438Y-64832455D01*
X69270438Y-64832455D02*
X69175200Y-64737217D01*
X69175200Y-64737217D02*
X69127580Y-64641979D01*
X69127580Y-64641979D02*
X69127580Y-64451503D01*
X69127580Y-64451503D02*
X69175200Y-64356265D01*
X69175200Y-64356265D02*
X69270438Y-64261027D01*
X69270438Y-64261027D02*
X69460914Y-64213408D01*
X69460914Y-64213408D02*
X69794247Y-64213408D01*
X69794247Y-64213408D02*
X69984723Y-64261027D01*
X69984723Y-64261027D02*
X70079961Y-64356265D01*
X70079961Y-64356265D02*
X70127580Y-64451503D01*
X69127580Y-65880074D02*
X69603771Y-65546741D01*
X69127580Y-65308646D02*
X70127580Y-65308646D01*
X70127580Y-65308646D02*
X70127580Y-65689598D01*
X70127580Y-65689598D02*
X70079961Y-65784836D01*
X70079961Y-65784836D02*
X70032342Y-65832455D01*
X70032342Y-65832455D02*
X69937104Y-65880074D01*
X69937104Y-65880074D02*
X69794247Y-65880074D01*
X69794247Y-65880074D02*
X69699009Y-65832455D01*
X69699009Y-65832455D02*
X69651390Y-65784836D01*
X69651390Y-65784836D02*
X69603771Y-65689598D01*
X69603771Y-65689598D02*
X69603771Y-65308646D01*
X69032342Y-66070551D02*
X69032342Y-66832455D01*
X70127580Y-66975313D02*
X70127580Y-67594360D01*
X70127580Y-67594360D02*
X69746628Y-67261027D01*
X69746628Y-67261027D02*
X69746628Y-67403884D01*
X69746628Y-67403884D02*
X69699009Y-67499122D01*
X69699009Y-67499122D02*
X69651390Y-67546741D01*
X69651390Y-67546741D02*
X69556152Y-67594360D01*
X69556152Y-67594360D02*
X69318057Y-67594360D01*
X69318057Y-67594360D02*
X69222819Y-67546741D01*
X69222819Y-67546741D02*
X69175200Y-67499122D01*
X69175200Y-67499122D02*
X69127580Y-67403884D01*
X69127580Y-67403884D02*
X69127580Y-67118170D01*
X69127580Y-67118170D02*
X69175200Y-67022932D01*
X69175200Y-67022932D02*
X69222819Y-66975313D01*
X81575200Y-60556265D02*
X81527580Y-60699122D01*
X81527580Y-60699122D02*
X81527580Y-60937217D01*
X81527580Y-60937217D02*
X81575200Y-61032455D01*
X81575200Y-61032455D02*
X81622819Y-61080074D01*
X81622819Y-61080074D02*
X81718057Y-61127693D01*
X81718057Y-61127693D02*
X81813295Y-61127693D01*
X81813295Y-61127693D02*
X81908533Y-61080074D01*
X81908533Y-61080074D02*
X81956152Y-61032455D01*
X81956152Y-61032455D02*
X82003771Y-60937217D01*
X82003771Y-60937217D02*
X82051390Y-60746741D01*
X82051390Y-60746741D02*
X82099009Y-60651503D01*
X82099009Y-60651503D02*
X82146628Y-60603884D01*
X82146628Y-60603884D02*
X82241866Y-60556265D01*
X82241866Y-60556265D02*
X82337104Y-60556265D01*
X82337104Y-60556265D02*
X82432342Y-60603884D01*
X82432342Y-60603884D02*
X82479961Y-60651503D01*
X82479961Y-60651503D02*
X82527580Y-60746741D01*
X82527580Y-60746741D02*
X82527580Y-60984836D01*
X82527580Y-60984836D02*
X82479961Y-61127693D01*
X82051390Y-61556265D02*
X82051390Y-61889598D01*
X81527580Y-62032455D02*
X81527580Y-61556265D01*
X81527580Y-61556265D02*
X82527580Y-61556265D01*
X82527580Y-61556265D02*
X82527580Y-62032455D01*
X81527580Y-62461027D02*
X82527580Y-62461027D01*
X82527580Y-62461027D02*
X81527580Y-63032455D01*
X81527580Y-63032455D02*
X82527580Y-63032455D01*
X81575200Y-63461027D02*
X81527580Y-63603884D01*
X81527580Y-63603884D02*
X81527580Y-63841979D01*
X81527580Y-63841979D02*
X81575200Y-63937217D01*
X81575200Y-63937217D02*
X81622819Y-63984836D01*
X81622819Y-63984836D02*
X81718057Y-64032455D01*
X81718057Y-64032455D02*
X81813295Y-64032455D01*
X81813295Y-64032455D02*
X81908533Y-63984836D01*
X81908533Y-63984836D02*
X81956152Y-63937217D01*
X81956152Y-63937217D02*
X82003771Y-63841979D01*
X82003771Y-63841979D02*
X82051390Y-63651503D01*
X82051390Y-63651503D02*
X82099009Y-63556265D01*
X82099009Y-63556265D02*
X82146628Y-63508646D01*
X82146628Y-63508646D02*
X82241866Y-63461027D01*
X82241866Y-63461027D02*
X82337104Y-63461027D01*
X82337104Y-63461027D02*
X82432342Y-63508646D01*
X82432342Y-63508646D02*
X82479961Y-63556265D01*
X82479961Y-63556265D02*
X82527580Y-63651503D01*
X82527580Y-63651503D02*
X82527580Y-63889598D01*
X82527580Y-63889598D02*
X82479961Y-64032455D01*
X82527580Y-64651503D02*
X82527580Y-64841979D01*
X82527580Y-64841979D02*
X82479961Y-64937217D01*
X82479961Y-64937217D02*
X82384723Y-65032455D01*
X82384723Y-65032455D02*
X82194247Y-65080074D01*
X82194247Y-65080074D02*
X81860914Y-65080074D01*
X81860914Y-65080074D02*
X81670438Y-65032455D01*
X81670438Y-65032455D02*
X81575200Y-64937217D01*
X81575200Y-64937217D02*
X81527580Y-64841979D01*
X81527580Y-64841979D02*
X81527580Y-64651503D01*
X81527580Y-64651503D02*
X81575200Y-64556265D01*
X81575200Y-64556265D02*
X81670438Y-64461027D01*
X81670438Y-64461027D02*
X81860914Y-64413408D01*
X81860914Y-64413408D02*
X82194247Y-64413408D01*
X82194247Y-64413408D02*
X82384723Y-64461027D01*
X82384723Y-64461027D02*
X82479961Y-64556265D01*
X82479961Y-64556265D02*
X82527580Y-64651503D01*
X81527580Y-66080074D02*
X82003771Y-65746741D01*
X81527580Y-65508646D02*
X82527580Y-65508646D01*
X82527580Y-65508646D02*
X82527580Y-65889598D01*
X82527580Y-65889598D02*
X82479961Y-65984836D01*
X82479961Y-65984836D02*
X82432342Y-66032455D01*
X82432342Y-66032455D02*
X82337104Y-66080074D01*
X82337104Y-66080074D02*
X82194247Y-66080074D01*
X82194247Y-66080074D02*
X82099009Y-66032455D01*
X82099009Y-66032455D02*
X82051390Y-65984836D01*
X82051390Y-65984836D02*
X82003771Y-65889598D01*
X82003771Y-65889598D02*
X82003771Y-65508646D01*
X81432342Y-66270551D02*
X81432342Y-67032455D01*
X82432342Y-67222932D02*
X82479961Y-67270551D01*
X82479961Y-67270551D02*
X82527580Y-67365789D01*
X82527580Y-67365789D02*
X82527580Y-67603884D01*
X82527580Y-67603884D02*
X82479961Y-67699122D01*
X82479961Y-67699122D02*
X82432342Y-67746741D01*
X82432342Y-67746741D02*
X82337104Y-67794360D01*
X82337104Y-67794360D02*
X82241866Y-67794360D01*
X82241866Y-67794360D02*
X82099009Y-67746741D01*
X82099009Y-67746741D02*
X81527580Y-67175313D01*
X81527580Y-67175313D02*
X81527580Y-67794360D01*
X94575200Y-60556265D02*
X94527580Y-60699122D01*
X94527580Y-60699122D02*
X94527580Y-60937217D01*
X94527580Y-60937217D02*
X94575200Y-61032455D01*
X94575200Y-61032455D02*
X94622819Y-61080074D01*
X94622819Y-61080074D02*
X94718057Y-61127693D01*
X94718057Y-61127693D02*
X94813295Y-61127693D01*
X94813295Y-61127693D02*
X94908533Y-61080074D01*
X94908533Y-61080074D02*
X94956152Y-61032455D01*
X94956152Y-61032455D02*
X95003771Y-60937217D01*
X95003771Y-60937217D02*
X95051390Y-60746741D01*
X95051390Y-60746741D02*
X95099009Y-60651503D01*
X95099009Y-60651503D02*
X95146628Y-60603884D01*
X95146628Y-60603884D02*
X95241866Y-60556265D01*
X95241866Y-60556265D02*
X95337104Y-60556265D01*
X95337104Y-60556265D02*
X95432342Y-60603884D01*
X95432342Y-60603884D02*
X95479961Y-60651503D01*
X95479961Y-60651503D02*
X95527580Y-60746741D01*
X95527580Y-60746741D02*
X95527580Y-60984836D01*
X95527580Y-60984836D02*
X95479961Y-61127693D01*
X95051390Y-61556265D02*
X95051390Y-61889598D01*
X94527580Y-62032455D02*
X94527580Y-61556265D01*
X94527580Y-61556265D02*
X95527580Y-61556265D01*
X95527580Y-61556265D02*
X95527580Y-62032455D01*
X94527580Y-62461027D02*
X95527580Y-62461027D01*
X95527580Y-62461027D02*
X94527580Y-63032455D01*
X94527580Y-63032455D02*
X95527580Y-63032455D01*
X94575200Y-63461027D02*
X94527580Y-63603884D01*
X94527580Y-63603884D02*
X94527580Y-63841979D01*
X94527580Y-63841979D02*
X94575200Y-63937217D01*
X94575200Y-63937217D02*
X94622819Y-63984836D01*
X94622819Y-63984836D02*
X94718057Y-64032455D01*
X94718057Y-64032455D02*
X94813295Y-64032455D01*
X94813295Y-64032455D02*
X94908533Y-63984836D01*
X94908533Y-63984836D02*
X94956152Y-63937217D01*
X94956152Y-63937217D02*
X95003771Y-63841979D01*
X95003771Y-63841979D02*
X95051390Y-63651503D01*
X95051390Y-63651503D02*
X95099009Y-63556265D01*
X95099009Y-63556265D02*
X95146628Y-63508646D01*
X95146628Y-63508646D02*
X95241866Y-63461027D01*
X95241866Y-63461027D02*
X95337104Y-63461027D01*
X95337104Y-63461027D02*
X95432342Y-63508646D01*
X95432342Y-63508646D02*
X95479961Y-63556265D01*
X95479961Y-63556265D02*
X95527580Y-63651503D01*
X95527580Y-63651503D02*
X95527580Y-63889598D01*
X95527580Y-63889598D02*
X95479961Y-64032455D01*
X95527580Y-64651503D02*
X95527580Y-64841979D01*
X95527580Y-64841979D02*
X95479961Y-64937217D01*
X95479961Y-64937217D02*
X95384723Y-65032455D01*
X95384723Y-65032455D02*
X95194247Y-65080074D01*
X95194247Y-65080074D02*
X94860914Y-65080074D01*
X94860914Y-65080074D02*
X94670438Y-65032455D01*
X94670438Y-65032455D02*
X94575200Y-64937217D01*
X94575200Y-64937217D02*
X94527580Y-64841979D01*
X94527580Y-64841979D02*
X94527580Y-64651503D01*
X94527580Y-64651503D02*
X94575200Y-64556265D01*
X94575200Y-64556265D02*
X94670438Y-64461027D01*
X94670438Y-64461027D02*
X94860914Y-64413408D01*
X94860914Y-64413408D02*
X95194247Y-64413408D01*
X95194247Y-64413408D02*
X95384723Y-64461027D01*
X95384723Y-64461027D02*
X95479961Y-64556265D01*
X95479961Y-64556265D02*
X95527580Y-64651503D01*
X94527580Y-66080074D02*
X95003771Y-65746741D01*
X94527580Y-65508646D02*
X95527580Y-65508646D01*
X95527580Y-65508646D02*
X95527580Y-65889598D01*
X95527580Y-65889598D02*
X95479961Y-65984836D01*
X95479961Y-65984836D02*
X95432342Y-66032455D01*
X95432342Y-66032455D02*
X95337104Y-66080074D01*
X95337104Y-66080074D02*
X95194247Y-66080074D01*
X95194247Y-66080074D02*
X95099009Y-66032455D01*
X95099009Y-66032455D02*
X95051390Y-65984836D01*
X95051390Y-65984836D02*
X95003771Y-65889598D01*
X95003771Y-65889598D02*
X95003771Y-65508646D01*
X94432342Y-66270551D02*
X94432342Y-67032455D01*
X94527580Y-67794360D02*
X94527580Y-67222932D01*
X94527580Y-67508646D02*
X95527580Y-67508646D01*
X95527580Y-67508646D02*
X95384723Y-67413408D01*
X95384723Y-67413408D02*
X95289485Y-67318170D01*
X95289485Y-67318170D02*
X95241866Y-67222932D01*
X95075200Y-76456265D02*
X95027580Y-76599122D01*
X95027580Y-76599122D02*
X95027580Y-76837217D01*
X95027580Y-76837217D02*
X95075200Y-76932455D01*
X95075200Y-76932455D02*
X95122819Y-76980074D01*
X95122819Y-76980074D02*
X95218057Y-77027693D01*
X95218057Y-77027693D02*
X95313295Y-77027693D01*
X95313295Y-77027693D02*
X95408533Y-76980074D01*
X95408533Y-76980074D02*
X95456152Y-76932455D01*
X95456152Y-76932455D02*
X95503771Y-76837217D01*
X95503771Y-76837217D02*
X95551390Y-76646741D01*
X95551390Y-76646741D02*
X95599009Y-76551503D01*
X95599009Y-76551503D02*
X95646628Y-76503884D01*
X95646628Y-76503884D02*
X95741866Y-76456265D01*
X95741866Y-76456265D02*
X95837104Y-76456265D01*
X95837104Y-76456265D02*
X95932342Y-76503884D01*
X95932342Y-76503884D02*
X95979961Y-76551503D01*
X95979961Y-76551503D02*
X96027580Y-76646741D01*
X96027580Y-76646741D02*
X96027580Y-76884836D01*
X96027580Y-76884836D02*
X95979961Y-77027693D01*
X95551390Y-77456265D02*
X95551390Y-77789598D01*
X95027580Y-77932455D02*
X95027580Y-77456265D01*
X95027580Y-77456265D02*
X96027580Y-77456265D01*
X96027580Y-77456265D02*
X96027580Y-77932455D01*
X95027580Y-78361027D02*
X96027580Y-78361027D01*
X96027580Y-78361027D02*
X95027580Y-78932455D01*
X95027580Y-78932455D02*
X96027580Y-78932455D01*
X95075200Y-79361027D02*
X95027580Y-79503884D01*
X95027580Y-79503884D02*
X95027580Y-79741979D01*
X95027580Y-79741979D02*
X95075200Y-79837217D01*
X95075200Y-79837217D02*
X95122819Y-79884836D01*
X95122819Y-79884836D02*
X95218057Y-79932455D01*
X95218057Y-79932455D02*
X95313295Y-79932455D01*
X95313295Y-79932455D02*
X95408533Y-79884836D01*
X95408533Y-79884836D02*
X95456152Y-79837217D01*
X95456152Y-79837217D02*
X95503771Y-79741979D01*
X95503771Y-79741979D02*
X95551390Y-79551503D01*
X95551390Y-79551503D02*
X95599009Y-79456265D01*
X95599009Y-79456265D02*
X95646628Y-79408646D01*
X95646628Y-79408646D02*
X95741866Y-79361027D01*
X95741866Y-79361027D02*
X95837104Y-79361027D01*
X95837104Y-79361027D02*
X95932342Y-79408646D01*
X95932342Y-79408646D02*
X95979961Y-79456265D01*
X95979961Y-79456265D02*
X96027580Y-79551503D01*
X96027580Y-79551503D02*
X96027580Y-79789598D01*
X96027580Y-79789598D02*
X95979961Y-79932455D01*
X96027580Y-80551503D02*
X96027580Y-80741979D01*
X96027580Y-80741979D02*
X95979961Y-80837217D01*
X95979961Y-80837217D02*
X95884723Y-80932455D01*
X95884723Y-80932455D02*
X95694247Y-80980074D01*
X95694247Y-80980074D02*
X95360914Y-80980074D01*
X95360914Y-80980074D02*
X95170438Y-80932455D01*
X95170438Y-80932455D02*
X95075200Y-80837217D01*
X95075200Y-80837217D02*
X95027580Y-80741979D01*
X95027580Y-80741979D02*
X95027580Y-80551503D01*
X95027580Y-80551503D02*
X95075200Y-80456265D01*
X95075200Y-80456265D02*
X95170438Y-80361027D01*
X95170438Y-80361027D02*
X95360914Y-80313408D01*
X95360914Y-80313408D02*
X95694247Y-80313408D01*
X95694247Y-80313408D02*
X95884723Y-80361027D01*
X95884723Y-80361027D02*
X95979961Y-80456265D01*
X95979961Y-80456265D02*
X96027580Y-80551503D01*
X95027580Y-81980074D02*
X95503771Y-81646741D01*
X95027580Y-81408646D02*
X96027580Y-81408646D01*
X96027580Y-81408646D02*
X96027580Y-81789598D01*
X96027580Y-81789598D02*
X95979961Y-81884836D01*
X95979961Y-81884836D02*
X95932342Y-81932455D01*
X95932342Y-81932455D02*
X95837104Y-81980074D01*
X95837104Y-81980074D02*
X95694247Y-81980074D01*
X95694247Y-81980074D02*
X95599009Y-81932455D01*
X95599009Y-81932455D02*
X95551390Y-81884836D01*
X95551390Y-81884836D02*
X95503771Y-81789598D01*
X95503771Y-81789598D02*
X95503771Y-81408646D01*
X94932342Y-82170551D02*
X94932342Y-82932455D01*
X96027580Y-83361027D02*
X96027580Y-83456265D01*
X96027580Y-83456265D02*
X95979961Y-83551503D01*
X95979961Y-83551503D02*
X95932342Y-83599122D01*
X95932342Y-83599122D02*
X95837104Y-83646741D01*
X95837104Y-83646741D02*
X95646628Y-83694360D01*
X95646628Y-83694360D02*
X95408533Y-83694360D01*
X95408533Y-83694360D02*
X95218057Y-83646741D01*
X95218057Y-83646741D02*
X95122819Y-83599122D01*
X95122819Y-83599122D02*
X95075200Y-83551503D01*
X95075200Y-83551503D02*
X95027580Y-83456265D01*
X95027580Y-83456265D02*
X95027580Y-83361027D01*
X95027580Y-83361027D02*
X95075200Y-83265789D01*
X95075200Y-83265789D02*
X95122819Y-83218170D01*
X95122819Y-83218170D02*
X95218057Y-83170551D01*
X95218057Y-83170551D02*
X95408533Y-83122932D01*
X95408533Y-83122932D02*
X95646628Y-83122932D01*
X95646628Y-83122932D02*
X95837104Y-83170551D01*
X95837104Y-83170551D02*
X95932342Y-83218170D01*
X95932342Y-83218170D02*
X95979961Y-83265789D01*
X95979961Y-83265789D02*
X96027580Y-83361027D01*
D11*
X75203207Y-164534636D02*
X75155588Y-164582256D01*
X75155588Y-164582256D02*
X75012731Y-164629875D01*
X75012731Y-164629875D02*
X74917493Y-164629875D01*
X74917493Y-164629875D02*
X74774636Y-164582256D01*
X74774636Y-164582256D02*
X74679398Y-164487017D01*
X74679398Y-164487017D02*
X74631779Y-164391779D01*
X74631779Y-164391779D02*
X74584160Y-164201303D01*
X74584160Y-164201303D02*
X74584160Y-164058446D01*
X74584160Y-164058446D02*
X74631779Y-163867970D01*
X74631779Y-163867970D02*
X74679398Y-163772732D01*
X74679398Y-163772732D02*
X74774636Y-163677494D01*
X74774636Y-163677494D02*
X74917493Y-163629875D01*
X74917493Y-163629875D02*
X75012731Y-163629875D01*
X75012731Y-163629875D02*
X75155588Y-163677494D01*
X75155588Y-163677494D02*
X75203207Y-163725113D01*
X75631779Y-164629875D02*
X75631779Y-163629875D01*
X76679397Y-164629875D02*
X76346064Y-164153684D01*
X76107969Y-164629875D02*
X76107969Y-163629875D01*
X76107969Y-163629875D02*
X76488921Y-163629875D01*
X76488921Y-163629875D02*
X76584159Y-163677494D01*
X76584159Y-163677494D02*
X76631778Y-163725113D01*
X76631778Y-163725113D02*
X76679397Y-163820351D01*
X76679397Y-163820351D02*
X76679397Y-163963208D01*
X76679397Y-163963208D02*
X76631778Y-164058446D01*
X76631778Y-164058446D02*
X76584159Y-164106065D01*
X76584159Y-164106065D02*
X76488921Y-164153684D01*
X76488921Y-164153684D02*
X76107969Y-164153684D01*
X77298445Y-163629875D02*
X77488921Y-163629875D01*
X77488921Y-163629875D02*
X77584159Y-163677494D01*
X77584159Y-163677494D02*
X77679397Y-163772732D01*
X77679397Y-163772732D02*
X77727016Y-163963208D01*
X77727016Y-163963208D02*
X77727016Y-164296541D01*
X77727016Y-164296541D02*
X77679397Y-164487017D01*
X77679397Y-164487017D02*
X77584159Y-164582256D01*
X77584159Y-164582256D02*
X77488921Y-164629875D01*
X77488921Y-164629875D02*
X77298445Y-164629875D01*
X77298445Y-164629875D02*
X77203207Y-164582256D01*
X77203207Y-164582256D02*
X77107969Y-164487017D01*
X77107969Y-164487017D02*
X77060350Y-164296541D01*
X77060350Y-164296541D02*
X77060350Y-163963208D01*
X77060350Y-163963208D02*
X77107969Y-163772732D01*
X77107969Y-163772732D02*
X77203207Y-163677494D01*
X77203207Y-163677494D02*
X77298445Y-163629875D01*
X78012731Y-163629875D02*
X78584159Y-163629875D01*
X78298445Y-164629875D02*
X78298445Y-163629875D01*
X78917493Y-164106065D02*
X79250826Y-164106065D01*
X79393683Y-164629875D02*
X78917493Y-164629875D01*
X78917493Y-164629875D02*
X78917493Y-163629875D01*
X78917493Y-163629875D02*
X79393683Y-163629875D01*
X80393683Y-164534636D02*
X80346064Y-164582256D01*
X80346064Y-164582256D02*
X80203207Y-164629875D01*
X80203207Y-164629875D02*
X80107969Y-164629875D01*
X80107969Y-164629875D02*
X79965112Y-164582256D01*
X79965112Y-164582256D02*
X79869874Y-164487017D01*
X79869874Y-164487017D02*
X79822255Y-164391779D01*
X79822255Y-164391779D02*
X79774636Y-164201303D01*
X79774636Y-164201303D02*
X79774636Y-164058446D01*
X79774636Y-164058446D02*
X79822255Y-163867970D01*
X79822255Y-163867970D02*
X79869874Y-163772732D01*
X79869874Y-163772732D02*
X79965112Y-163677494D01*
X79965112Y-163677494D02*
X80107969Y-163629875D01*
X80107969Y-163629875D02*
X80203207Y-163629875D01*
X80203207Y-163629875D02*
X80346064Y-163677494D01*
X80346064Y-163677494D02*
X80393683Y-163725113D01*
X80822255Y-164534636D02*
X80869874Y-164582256D01*
X80869874Y-164582256D02*
X80822255Y-164629875D01*
X80822255Y-164629875D02*
X80774636Y-164582256D01*
X80774636Y-164582256D02*
X80822255Y-164534636D01*
X80822255Y-164534636D02*
X80822255Y-164629875D01*
X81298445Y-164629875D02*
X81298445Y-163629875D01*
X81298445Y-163629875D02*
X81631778Y-164344160D01*
X81631778Y-164344160D02*
X81965111Y-163629875D01*
X81965111Y-163629875D02*
X81965111Y-164629875D01*
X82346064Y-163629875D02*
X83012730Y-164629875D01*
X83012730Y-163629875D02*
X82346064Y-164629875D01*
X84107968Y-163582256D02*
X83250826Y-164867970D01*
X84393683Y-164344160D02*
X84869873Y-164344160D01*
X84298445Y-164629875D02*
X84631778Y-163629875D01*
X84631778Y-163629875D02*
X84965111Y-164629875D01*
X85298445Y-163629875D02*
X85298445Y-164439398D01*
X85298445Y-164439398D02*
X85346064Y-164534636D01*
X85346064Y-164534636D02*
X85393683Y-164582256D01*
X85393683Y-164582256D02*
X85488921Y-164629875D01*
X85488921Y-164629875D02*
X85679397Y-164629875D01*
X85679397Y-164629875D02*
X85774635Y-164582256D01*
X85774635Y-164582256D02*
X85822254Y-164534636D01*
X85822254Y-164534636D02*
X85869873Y-164439398D01*
X85869873Y-164439398D02*
X85869873Y-163629875D01*
X86203207Y-163629875D02*
X86774635Y-163629875D01*
X86488921Y-164629875D02*
X86488921Y-163629875D01*
X87298445Y-163629875D02*
X87488921Y-163629875D01*
X87488921Y-163629875D02*
X87584159Y-163677494D01*
X87584159Y-163677494D02*
X87679397Y-163772732D01*
X87679397Y-163772732D02*
X87727016Y-163963208D01*
X87727016Y-163963208D02*
X87727016Y-164296541D01*
X87727016Y-164296541D02*
X87679397Y-164487017D01*
X87679397Y-164487017D02*
X87584159Y-164582256D01*
X87584159Y-164582256D02*
X87488921Y-164629875D01*
X87488921Y-164629875D02*
X87298445Y-164629875D01*
X87298445Y-164629875D02*
X87203207Y-164582256D01*
X87203207Y-164582256D02*
X87107969Y-164487017D01*
X87107969Y-164487017D02*
X87060350Y-164296541D01*
X87060350Y-164296541D02*
X87060350Y-163963208D01*
X87060350Y-163963208D02*
X87107969Y-163772732D01*
X87107969Y-163772732D02*
X87203207Y-163677494D01*
X87203207Y-163677494D02*
X87298445Y-163629875D01*
X88155588Y-164629875D02*
X88155588Y-163629875D01*
X88155588Y-163629875D02*
X88488921Y-164344160D01*
X88488921Y-164344160D02*
X88822254Y-163629875D01*
X88822254Y-163629875D02*
X88822254Y-164629875D01*
X89250826Y-164344160D02*
X89727016Y-164344160D01*
X89155588Y-164629875D02*
X89488921Y-163629875D01*
X89488921Y-163629875D02*
X89822254Y-164629875D01*
X90012731Y-163629875D02*
X90584159Y-163629875D01*
X90298445Y-164629875D02*
X90298445Y-163629875D01*
X90917493Y-164629875D02*
X90917493Y-163629875D01*
X91584159Y-163629875D02*
X91774635Y-163629875D01*
X91774635Y-163629875D02*
X91869873Y-163677494D01*
X91869873Y-163677494D02*
X91965111Y-163772732D01*
X91965111Y-163772732D02*
X92012730Y-163963208D01*
X92012730Y-163963208D02*
X92012730Y-164296541D01*
X92012730Y-164296541D02*
X91965111Y-164487017D01*
X91965111Y-164487017D02*
X91869873Y-164582256D01*
X91869873Y-164582256D02*
X91774635Y-164629875D01*
X91774635Y-164629875D02*
X91584159Y-164629875D01*
X91584159Y-164629875D02*
X91488921Y-164582256D01*
X91488921Y-164582256D02*
X91393683Y-164487017D01*
X91393683Y-164487017D02*
X91346064Y-164296541D01*
X91346064Y-164296541D02*
X91346064Y-163963208D01*
X91346064Y-163963208D02*
X91393683Y-163772732D01*
X91393683Y-163772732D02*
X91488921Y-163677494D01*
X91488921Y-163677494D02*
X91584159Y-163629875D01*
X92441302Y-164629875D02*
X92441302Y-163629875D01*
X92441302Y-163629875D02*
X93012730Y-164629875D01*
X93012730Y-164629875D02*
X93012730Y-163629875D01*
X74584160Y-166192200D02*
X74727017Y-166239819D01*
X74727017Y-166239819D02*
X74965112Y-166239819D01*
X74965112Y-166239819D02*
X75060350Y-166192200D01*
X75060350Y-166192200D02*
X75107969Y-166144580D01*
X75107969Y-166144580D02*
X75155588Y-166049342D01*
X75155588Y-166049342D02*
X75155588Y-165954104D01*
X75155588Y-165954104D02*
X75107969Y-165858866D01*
X75107969Y-165858866D02*
X75060350Y-165811247D01*
X75060350Y-165811247D02*
X74965112Y-165763628D01*
X74965112Y-165763628D02*
X74774636Y-165716009D01*
X74774636Y-165716009D02*
X74679398Y-165668390D01*
X74679398Y-165668390D02*
X74631779Y-165620771D01*
X74631779Y-165620771D02*
X74584160Y-165525533D01*
X74584160Y-165525533D02*
X74584160Y-165430295D01*
X74584160Y-165430295D02*
X74631779Y-165335057D01*
X74631779Y-165335057D02*
X74679398Y-165287438D01*
X74679398Y-165287438D02*
X74774636Y-165239819D01*
X74774636Y-165239819D02*
X75012731Y-165239819D01*
X75012731Y-165239819D02*
X75155588Y-165287438D01*
X75584160Y-165239819D02*
X75584160Y-166049342D01*
X75584160Y-166049342D02*
X75631779Y-166144580D01*
X75631779Y-166144580D02*
X75679398Y-166192200D01*
X75679398Y-166192200D02*
X75774636Y-166239819D01*
X75774636Y-166239819D02*
X75965112Y-166239819D01*
X75965112Y-166239819D02*
X76060350Y-166192200D01*
X76060350Y-166192200D02*
X76107969Y-166144580D01*
X76107969Y-166144580D02*
X76155588Y-166049342D01*
X76155588Y-166049342D02*
X76155588Y-165239819D01*
X76631779Y-166239819D02*
X76631779Y-165239819D01*
X76631779Y-165239819D02*
X76965112Y-165954104D01*
X76965112Y-165954104D02*
X77298445Y-165239819D01*
X77298445Y-165239819D02*
X77298445Y-166239819D01*
X77774636Y-166239819D02*
X77774636Y-165239819D01*
X78107969Y-165239819D02*
X78679397Y-165239819D01*
X78393683Y-166239819D02*
X78393683Y-165239819D01*
X79203207Y-165239819D02*
X79393683Y-165239819D01*
X79393683Y-165239819D02*
X79488921Y-165287438D01*
X79488921Y-165287438D02*
X79584159Y-165382676D01*
X79584159Y-165382676D02*
X79631778Y-165573152D01*
X79631778Y-165573152D02*
X79631778Y-165906485D01*
X79631778Y-165906485D02*
X79584159Y-166096961D01*
X79584159Y-166096961D02*
X79488921Y-166192200D01*
X79488921Y-166192200D02*
X79393683Y-166239819D01*
X79393683Y-166239819D02*
X79203207Y-166239819D01*
X79203207Y-166239819D02*
X79107969Y-166192200D01*
X79107969Y-166192200D02*
X79012731Y-166096961D01*
X79012731Y-166096961D02*
X78965112Y-165906485D01*
X78965112Y-165906485D02*
X78965112Y-165573152D01*
X78965112Y-165573152D02*
X79012731Y-165382676D01*
X79012731Y-165382676D02*
X79107969Y-165287438D01*
X79107969Y-165287438D02*
X79203207Y-165239819D01*
X80060350Y-166239819D02*
X80060350Y-165239819D01*
X80060350Y-165239819D02*
X80393683Y-165954104D01*
X80393683Y-165954104D02*
X80727016Y-165239819D01*
X80727016Y-165239819D02*
X80727016Y-166239819D01*
X81393683Y-165239819D02*
X81584159Y-165239819D01*
X81584159Y-165239819D02*
X81679397Y-165287438D01*
X81679397Y-165287438D02*
X81774635Y-165382676D01*
X81774635Y-165382676D02*
X81822254Y-165573152D01*
X81822254Y-165573152D02*
X81822254Y-165906485D01*
X81822254Y-165906485D02*
X81774635Y-166096961D01*
X81774635Y-166096961D02*
X81679397Y-166192200D01*
X81679397Y-166192200D02*
X81584159Y-166239819D01*
X81584159Y-166239819D02*
X81393683Y-166239819D01*
X81393683Y-166239819D02*
X81298445Y-166192200D01*
X81298445Y-166192200D02*
X81203207Y-166096961D01*
X81203207Y-166096961D02*
X81155588Y-165906485D01*
X81155588Y-165906485D02*
X81155588Y-165573152D01*
X81155588Y-165573152D02*
X81203207Y-165382676D01*
X81203207Y-165382676D02*
X81298445Y-165287438D01*
X81298445Y-165287438D02*
X81393683Y-165239819D01*
X82012731Y-166335057D02*
X82774635Y-166335057D01*
X83012731Y-166239819D02*
X83012731Y-165239819D01*
X83012731Y-165239819D02*
X83584159Y-166239819D01*
X83584159Y-166239819D02*
X83584159Y-165239819D01*
X84250826Y-165239819D02*
X84441302Y-165239819D01*
X84441302Y-165239819D02*
X84536540Y-165287438D01*
X84536540Y-165287438D02*
X84631778Y-165382676D01*
X84631778Y-165382676D02*
X84679397Y-165573152D01*
X84679397Y-165573152D02*
X84679397Y-165906485D01*
X84679397Y-165906485D02*
X84631778Y-166096961D01*
X84631778Y-166096961D02*
X84536540Y-166192200D01*
X84536540Y-166192200D02*
X84441302Y-166239819D01*
X84441302Y-166239819D02*
X84250826Y-166239819D01*
X84250826Y-166239819D02*
X84155588Y-166192200D01*
X84155588Y-166192200D02*
X84060350Y-166096961D01*
X84060350Y-166096961D02*
X84012731Y-165906485D01*
X84012731Y-165906485D02*
X84012731Y-165573152D01*
X84012731Y-165573152D02*
X84060350Y-165382676D01*
X84060350Y-165382676D02*
X84155588Y-165287438D01*
X84155588Y-165287438D02*
X84250826Y-165239819D01*
X85107969Y-166239819D02*
X85107969Y-165239819D01*
X85107969Y-165239819D02*
X85346064Y-165239819D01*
X85346064Y-165239819D02*
X85488921Y-165287438D01*
X85488921Y-165287438D02*
X85584159Y-165382676D01*
X85584159Y-165382676D02*
X85631778Y-165477914D01*
X85631778Y-165477914D02*
X85679397Y-165668390D01*
X85679397Y-165668390D02*
X85679397Y-165811247D01*
X85679397Y-165811247D02*
X85631778Y-166001723D01*
X85631778Y-166001723D02*
X85584159Y-166096961D01*
X85584159Y-166096961D02*
X85488921Y-166192200D01*
X85488921Y-166192200D02*
X85346064Y-166239819D01*
X85346064Y-166239819D02*
X85107969Y-166239819D01*
X86107969Y-165716009D02*
X86441302Y-165716009D01*
X86584159Y-166239819D02*
X86107969Y-166239819D01*
X86107969Y-166239819D02*
X86107969Y-165239819D01*
X86107969Y-165239819D02*
X86584159Y-165239819D01*
X86774636Y-166335057D02*
X87536540Y-166335057D01*
X87631779Y-165239819D02*
X87965112Y-166239819D01*
X87965112Y-166239819D02*
X88298445Y-165239819D01*
X88536541Y-165239819D02*
X89155588Y-165239819D01*
X89155588Y-165239819D02*
X88822255Y-165620771D01*
X88822255Y-165620771D02*
X88965112Y-165620771D01*
X88965112Y-165620771D02*
X89060350Y-165668390D01*
X89060350Y-165668390D02*
X89107969Y-165716009D01*
X89107969Y-165716009D02*
X89155588Y-165811247D01*
X89155588Y-165811247D02*
X89155588Y-166049342D01*
X89155588Y-166049342D02*
X89107969Y-166144580D01*
X89107969Y-166144580D02*
X89060350Y-166192200D01*
X89060350Y-166192200D02*
X88965112Y-166239819D01*
X88965112Y-166239819D02*
X88679398Y-166239819D01*
X88679398Y-166239819D02*
X88584160Y-166192200D01*
X88584160Y-166192200D02*
X88536541Y-166144580D01*
X64838095Y-43804819D02*
X64838095Y-42804819D01*
X64838095Y-43281009D02*
X65409523Y-43281009D01*
X65409523Y-43804819D02*
X65409523Y-42804819D01*
X66028571Y-43233390D02*
X65933333Y-43185771D01*
X65933333Y-43185771D02*
X65885714Y-43138152D01*
X65885714Y-43138152D02*
X65838095Y-43042914D01*
X65838095Y-43042914D02*
X65838095Y-42995295D01*
X65838095Y-42995295D02*
X65885714Y-42900057D01*
X65885714Y-42900057D02*
X65933333Y-42852438D01*
X65933333Y-42852438D02*
X66028571Y-42804819D01*
X66028571Y-42804819D02*
X66219047Y-42804819D01*
X66219047Y-42804819D02*
X66314285Y-42852438D01*
X66314285Y-42852438D02*
X66361904Y-42900057D01*
X66361904Y-42900057D02*
X66409523Y-42995295D01*
X66409523Y-42995295D02*
X66409523Y-43042914D01*
X66409523Y-43042914D02*
X66361904Y-43138152D01*
X66361904Y-43138152D02*
X66314285Y-43185771D01*
X66314285Y-43185771D02*
X66219047Y-43233390D01*
X66219047Y-43233390D02*
X66028571Y-43233390D01*
X66028571Y-43233390D02*
X65933333Y-43281009D01*
X65933333Y-43281009D02*
X65885714Y-43328628D01*
X65885714Y-43328628D02*
X65838095Y-43423866D01*
X65838095Y-43423866D02*
X65838095Y-43614342D01*
X65838095Y-43614342D02*
X65885714Y-43709580D01*
X65885714Y-43709580D02*
X65933333Y-43757200D01*
X65933333Y-43757200D02*
X66028571Y-43804819D01*
X66028571Y-43804819D02*
X66219047Y-43804819D01*
X66219047Y-43804819D02*
X66314285Y-43757200D01*
X66314285Y-43757200D02*
X66361904Y-43709580D01*
X66361904Y-43709580D02*
X66409523Y-43614342D01*
X66409523Y-43614342D02*
X66409523Y-43423866D01*
X66409523Y-43423866D02*
X66361904Y-43328628D01*
X66361904Y-43328628D02*
X66314285Y-43281009D01*
X66314285Y-43281009D02*
X66219047Y-43233390D01*
X113938095Y-43904819D02*
X113938095Y-42904819D01*
X113938095Y-43381009D02*
X114509523Y-43381009D01*
X114509523Y-43904819D02*
X114509523Y-42904819D01*
X114890476Y-42904819D02*
X115557142Y-42904819D01*
X115557142Y-42904819D02*
X115128571Y-43904819D01*
X113938095Y-159904819D02*
X113938095Y-158904819D01*
X113938095Y-159381009D02*
X114509523Y-159381009D01*
X114509523Y-159904819D02*
X114509523Y-158904819D01*
X115414285Y-158904819D02*
X115223809Y-158904819D01*
X115223809Y-158904819D02*
X115128571Y-158952438D01*
X115128571Y-158952438D02*
X115080952Y-159000057D01*
X115080952Y-159000057D02*
X114985714Y-159142914D01*
X114985714Y-159142914D02*
X114938095Y-159333390D01*
X114938095Y-159333390D02*
X114938095Y-159714342D01*
X114938095Y-159714342D02*
X114985714Y-159809580D01*
X114985714Y-159809580D02*
X115033333Y-159857200D01*
X115033333Y-159857200D02*
X115128571Y-159904819D01*
X115128571Y-159904819D02*
X115319047Y-159904819D01*
X115319047Y-159904819D02*
X115414285Y-159857200D01*
X115414285Y-159857200D02*
X115461904Y-159809580D01*
X115461904Y-159809580D02*
X115509523Y-159714342D01*
X115509523Y-159714342D02*
X115509523Y-159476247D01*
X115509523Y-159476247D02*
X115461904Y-159381009D01*
X115461904Y-159381009D02*
X115414285Y-159333390D01*
X115414285Y-159333390D02*
X115319047Y-159285771D01*
X115319047Y-159285771D02*
X115128571Y-159285771D01*
X115128571Y-159285771D02*
X115033333Y-159333390D01*
X115033333Y-159333390D02*
X114985714Y-159381009D01*
X114985714Y-159381009D02*
X114938095Y-159476247D01*
X64838095Y-159804819D02*
X64838095Y-158804819D01*
X64838095Y-159281009D02*
X65409523Y-159281009D01*
X65409523Y-159804819D02*
X65409523Y-158804819D01*
X66361904Y-158804819D02*
X65885714Y-158804819D01*
X65885714Y-158804819D02*
X65838095Y-159281009D01*
X65838095Y-159281009D02*
X65885714Y-159233390D01*
X65885714Y-159233390D02*
X65980952Y-159185771D01*
X65980952Y-159185771D02*
X66219047Y-159185771D01*
X66219047Y-159185771D02*
X66314285Y-159233390D01*
X66314285Y-159233390D02*
X66361904Y-159281009D01*
X66361904Y-159281009D02*
X66409523Y-159376247D01*
X66409523Y-159376247D02*
X66409523Y-159614342D01*
X66409523Y-159614342D02*
X66361904Y-159709580D01*
X66361904Y-159709580D02*
X66314285Y-159757200D01*
X66314285Y-159757200D02*
X66219047Y-159804819D01*
X66219047Y-159804819D02*
X65980952Y-159804819D01*
X65980952Y-159804819D02*
X65885714Y-159757200D01*
X65885714Y-159757200D02*
X65838095Y-159709580D01*
X103557142Y-88154819D02*
X103223809Y-87678628D01*
X102985714Y-88154819D02*
X102985714Y-87154819D01*
X102985714Y-87154819D02*
X103366666Y-87154819D01*
X103366666Y-87154819D02*
X103461904Y-87202438D01*
X103461904Y-87202438D02*
X103509523Y-87250057D01*
X103509523Y-87250057D02*
X103557142Y-87345295D01*
X103557142Y-87345295D02*
X103557142Y-87488152D01*
X103557142Y-87488152D02*
X103509523Y-87583390D01*
X103509523Y-87583390D02*
X103461904Y-87631009D01*
X103461904Y-87631009D02*
X103366666Y-87678628D01*
X103366666Y-87678628D02*
X102985714Y-87678628D01*
X103890476Y-87154819D02*
X104509523Y-87154819D01*
X104509523Y-87154819D02*
X104176190Y-87535771D01*
X104176190Y-87535771D02*
X104319047Y-87535771D01*
X104319047Y-87535771D02*
X104414285Y-87583390D01*
X104414285Y-87583390D02*
X104461904Y-87631009D01*
X104461904Y-87631009D02*
X104509523Y-87726247D01*
X104509523Y-87726247D02*
X104509523Y-87964342D01*
X104509523Y-87964342D02*
X104461904Y-88059580D01*
X104461904Y-88059580D02*
X104414285Y-88107200D01*
X104414285Y-88107200D02*
X104319047Y-88154819D01*
X104319047Y-88154819D02*
X104033333Y-88154819D01*
X104033333Y-88154819D02*
X103938095Y-88107200D01*
X103938095Y-88107200D02*
X103890476Y-88059580D01*
X104842857Y-87154819D02*
X105461904Y-87154819D01*
X105461904Y-87154819D02*
X105128571Y-87535771D01*
X105128571Y-87535771D02*
X105271428Y-87535771D01*
X105271428Y-87535771D02*
X105366666Y-87583390D01*
X105366666Y-87583390D02*
X105414285Y-87631009D01*
X105414285Y-87631009D02*
X105461904Y-87726247D01*
X105461904Y-87726247D02*
X105461904Y-87964342D01*
X105461904Y-87964342D02*
X105414285Y-88059580D01*
X105414285Y-88059580D02*
X105366666Y-88107200D01*
X105366666Y-88107200D02*
X105271428Y-88154819D01*
X105271428Y-88154819D02*
X104985714Y-88154819D01*
X104985714Y-88154819D02*
X104890476Y-88107200D01*
X104890476Y-88107200D02*
X104842857Y-88059580D01*
X97357142Y-88154819D02*
X97023809Y-87678628D01*
X96785714Y-88154819D02*
X96785714Y-87154819D01*
X96785714Y-87154819D02*
X97166666Y-87154819D01*
X97166666Y-87154819D02*
X97261904Y-87202438D01*
X97261904Y-87202438D02*
X97309523Y-87250057D01*
X97309523Y-87250057D02*
X97357142Y-87345295D01*
X97357142Y-87345295D02*
X97357142Y-87488152D01*
X97357142Y-87488152D02*
X97309523Y-87583390D01*
X97309523Y-87583390D02*
X97261904Y-87631009D01*
X97261904Y-87631009D02*
X97166666Y-87678628D01*
X97166666Y-87678628D02*
X96785714Y-87678628D01*
X97690476Y-87154819D02*
X98309523Y-87154819D01*
X98309523Y-87154819D02*
X97976190Y-87535771D01*
X97976190Y-87535771D02*
X98119047Y-87535771D01*
X98119047Y-87535771D02*
X98214285Y-87583390D01*
X98214285Y-87583390D02*
X98261904Y-87631009D01*
X98261904Y-87631009D02*
X98309523Y-87726247D01*
X98309523Y-87726247D02*
X98309523Y-87964342D01*
X98309523Y-87964342D02*
X98261904Y-88059580D01*
X98261904Y-88059580D02*
X98214285Y-88107200D01*
X98214285Y-88107200D02*
X98119047Y-88154819D01*
X98119047Y-88154819D02*
X97833333Y-88154819D01*
X97833333Y-88154819D02*
X97738095Y-88107200D01*
X97738095Y-88107200D02*
X97690476Y-88059580D01*
X98690476Y-87250057D02*
X98738095Y-87202438D01*
X98738095Y-87202438D02*
X98833333Y-87154819D01*
X98833333Y-87154819D02*
X99071428Y-87154819D01*
X99071428Y-87154819D02*
X99166666Y-87202438D01*
X99166666Y-87202438D02*
X99214285Y-87250057D01*
X99214285Y-87250057D02*
X99261904Y-87345295D01*
X99261904Y-87345295D02*
X99261904Y-87440533D01*
X99261904Y-87440533D02*
X99214285Y-87583390D01*
X99214285Y-87583390D02*
X98642857Y-88154819D01*
X98642857Y-88154819D02*
X99261904Y-88154819D01*
X100657142Y-88154819D02*
X100323809Y-87678628D01*
X100085714Y-88154819D02*
X100085714Y-87154819D01*
X100085714Y-87154819D02*
X100466666Y-87154819D01*
X100466666Y-87154819D02*
X100561904Y-87202438D01*
X100561904Y-87202438D02*
X100609523Y-87250057D01*
X100609523Y-87250057D02*
X100657142Y-87345295D01*
X100657142Y-87345295D02*
X100657142Y-87488152D01*
X100657142Y-87488152D02*
X100609523Y-87583390D01*
X100609523Y-87583390D02*
X100561904Y-87631009D01*
X100561904Y-87631009D02*
X100466666Y-87678628D01*
X100466666Y-87678628D02*
X100085714Y-87678628D01*
X100990476Y-87154819D02*
X101609523Y-87154819D01*
X101609523Y-87154819D02*
X101276190Y-87535771D01*
X101276190Y-87535771D02*
X101419047Y-87535771D01*
X101419047Y-87535771D02*
X101514285Y-87583390D01*
X101514285Y-87583390D02*
X101561904Y-87631009D01*
X101561904Y-87631009D02*
X101609523Y-87726247D01*
X101609523Y-87726247D02*
X101609523Y-87964342D01*
X101609523Y-87964342D02*
X101561904Y-88059580D01*
X101561904Y-88059580D02*
X101514285Y-88107200D01*
X101514285Y-88107200D02*
X101419047Y-88154819D01*
X101419047Y-88154819D02*
X101133333Y-88154819D01*
X101133333Y-88154819D02*
X101038095Y-88107200D01*
X101038095Y-88107200D02*
X100990476Y-88059580D01*
X102561904Y-88154819D02*
X101990476Y-88154819D01*
X102276190Y-88154819D02*
X102276190Y-87154819D01*
X102276190Y-87154819D02*
X102180952Y-87297676D01*
X102180952Y-87297676D02*
X102085714Y-87392914D01*
X102085714Y-87392914D02*
X101990476Y-87440533D01*
X102957142Y-71254819D02*
X102623809Y-70778628D01*
X102385714Y-71254819D02*
X102385714Y-70254819D01*
X102385714Y-70254819D02*
X102766666Y-70254819D01*
X102766666Y-70254819D02*
X102861904Y-70302438D01*
X102861904Y-70302438D02*
X102909523Y-70350057D01*
X102909523Y-70350057D02*
X102957142Y-70445295D01*
X102957142Y-70445295D02*
X102957142Y-70588152D01*
X102957142Y-70588152D02*
X102909523Y-70683390D01*
X102909523Y-70683390D02*
X102861904Y-70731009D01*
X102861904Y-70731009D02*
X102766666Y-70778628D01*
X102766666Y-70778628D02*
X102385714Y-70778628D01*
X103290476Y-70254819D02*
X103909523Y-70254819D01*
X103909523Y-70254819D02*
X103576190Y-70635771D01*
X103576190Y-70635771D02*
X103719047Y-70635771D01*
X103719047Y-70635771D02*
X103814285Y-70683390D01*
X103814285Y-70683390D02*
X103861904Y-70731009D01*
X103861904Y-70731009D02*
X103909523Y-70826247D01*
X103909523Y-70826247D02*
X103909523Y-71064342D01*
X103909523Y-71064342D02*
X103861904Y-71159580D01*
X103861904Y-71159580D02*
X103814285Y-71207200D01*
X103814285Y-71207200D02*
X103719047Y-71254819D01*
X103719047Y-71254819D02*
X103433333Y-71254819D01*
X103433333Y-71254819D02*
X103338095Y-71207200D01*
X103338095Y-71207200D02*
X103290476Y-71159580D01*
X104528571Y-70254819D02*
X104623809Y-70254819D01*
X104623809Y-70254819D02*
X104719047Y-70302438D01*
X104719047Y-70302438D02*
X104766666Y-70350057D01*
X104766666Y-70350057D02*
X104814285Y-70445295D01*
X104814285Y-70445295D02*
X104861904Y-70635771D01*
X104861904Y-70635771D02*
X104861904Y-70873866D01*
X104861904Y-70873866D02*
X104814285Y-71064342D01*
X104814285Y-71064342D02*
X104766666Y-71159580D01*
X104766666Y-71159580D02*
X104719047Y-71207200D01*
X104719047Y-71207200D02*
X104623809Y-71254819D01*
X104623809Y-71254819D02*
X104528571Y-71254819D01*
X104528571Y-71254819D02*
X104433333Y-71207200D01*
X104433333Y-71207200D02*
X104385714Y-71159580D01*
X104385714Y-71159580D02*
X104338095Y-71064342D01*
X104338095Y-71064342D02*
X104290476Y-70873866D01*
X104290476Y-70873866D02*
X104290476Y-70635771D01*
X104290476Y-70635771D02*
X104338095Y-70445295D01*
X104338095Y-70445295D02*
X104385714Y-70350057D01*
X104385714Y-70350057D02*
X104433333Y-70302438D01*
X104433333Y-70302438D02*
X104528571Y-70254819D01*
X96857142Y-71254819D02*
X96523809Y-70778628D01*
X96285714Y-71254819D02*
X96285714Y-70254819D01*
X96285714Y-70254819D02*
X96666666Y-70254819D01*
X96666666Y-70254819D02*
X96761904Y-70302438D01*
X96761904Y-70302438D02*
X96809523Y-70350057D01*
X96809523Y-70350057D02*
X96857142Y-70445295D01*
X96857142Y-70445295D02*
X96857142Y-70588152D01*
X96857142Y-70588152D02*
X96809523Y-70683390D01*
X96809523Y-70683390D02*
X96761904Y-70731009D01*
X96761904Y-70731009D02*
X96666666Y-70778628D01*
X96666666Y-70778628D02*
X96285714Y-70778628D01*
X97238095Y-70350057D02*
X97285714Y-70302438D01*
X97285714Y-70302438D02*
X97380952Y-70254819D01*
X97380952Y-70254819D02*
X97619047Y-70254819D01*
X97619047Y-70254819D02*
X97714285Y-70302438D01*
X97714285Y-70302438D02*
X97761904Y-70350057D01*
X97761904Y-70350057D02*
X97809523Y-70445295D01*
X97809523Y-70445295D02*
X97809523Y-70540533D01*
X97809523Y-70540533D02*
X97761904Y-70683390D01*
X97761904Y-70683390D02*
X97190476Y-71254819D01*
X97190476Y-71254819D02*
X97809523Y-71254819D01*
X98285714Y-71254819D02*
X98476190Y-71254819D01*
X98476190Y-71254819D02*
X98571428Y-71207200D01*
X98571428Y-71207200D02*
X98619047Y-71159580D01*
X98619047Y-71159580D02*
X98714285Y-71016723D01*
X98714285Y-71016723D02*
X98761904Y-70826247D01*
X98761904Y-70826247D02*
X98761904Y-70445295D01*
X98761904Y-70445295D02*
X98714285Y-70350057D01*
X98714285Y-70350057D02*
X98666666Y-70302438D01*
X98666666Y-70302438D02*
X98571428Y-70254819D01*
X98571428Y-70254819D02*
X98380952Y-70254819D01*
X98380952Y-70254819D02*
X98285714Y-70302438D01*
X98285714Y-70302438D02*
X98238095Y-70350057D01*
X98238095Y-70350057D02*
X98190476Y-70445295D01*
X98190476Y-70445295D02*
X98190476Y-70683390D01*
X98190476Y-70683390D02*
X98238095Y-70778628D01*
X98238095Y-70778628D02*
X98285714Y-70826247D01*
X98285714Y-70826247D02*
X98380952Y-70873866D01*
X98380952Y-70873866D02*
X98571428Y-70873866D01*
X98571428Y-70873866D02*
X98666666Y-70826247D01*
X98666666Y-70826247D02*
X98714285Y-70778628D01*
X98714285Y-70778628D02*
X98761904Y-70683390D01*
X99857142Y-71254819D02*
X99523809Y-70778628D01*
X99285714Y-71254819D02*
X99285714Y-70254819D01*
X99285714Y-70254819D02*
X99666666Y-70254819D01*
X99666666Y-70254819D02*
X99761904Y-70302438D01*
X99761904Y-70302438D02*
X99809523Y-70350057D01*
X99809523Y-70350057D02*
X99857142Y-70445295D01*
X99857142Y-70445295D02*
X99857142Y-70588152D01*
X99857142Y-70588152D02*
X99809523Y-70683390D01*
X99809523Y-70683390D02*
X99761904Y-70731009D01*
X99761904Y-70731009D02*
X99666666Y-70778628D01*
X99666666Y-70778628D02*
X99285714Y-70778628D01*
X100238095Y-70350057D02*
X100285714Y-70302438D01*
X100285714Y-70302438D02*
X100380952Y-70254819D01*
X100380952Y-70254819D02*
X100619047Y-70254819D01*
X100619047Y-70254819D02*
X100714285Y-70302438D01*
X100714285Y-70302438D02*
X100761904Y-70350057D01*
X100761904Y-70350057D02*
X100809523Y-70445295D01*
X100809523Y-70445295D02*
X100809523Y-70540533D01*
X100809523Y-70540533D02*
X100761904Y-70683390D01*
X100761904Y-70683390D02*
X100190476Y-71254819D01*
X100190476Y-71254819D02*
X100809523Y-71254819D01*
X101380952Y-70683390D02*
X101285714Y-70635771D01*
X101285714Y-70635771D02*
X101238095Y-70588152D01*
X101238095Y-70588152D02*
X101190476Y-70492914D01*
X101190476Y-70492914D02*
X101190476Y-70445295D01*
X101190476Y-70445295D02*
X101238095Y-70350057D01*
X101238095Y-70350057D02*
X101285714Y-70302438D01*
X101285714Y-70302438D02*
X101380952Y-70254819D01*
X101380952Y-70254819D02*
X101571428Y-70254819D01*
X101571428Y-70254819D02*
X101666666Y-70302438D01*
X101666666Y-70302438D02*
X101714285Y-70350057D01*
X101714285Y-70350057D02*
X101761904Y-70445295D01*
X101761904Y-70445295D02*
X101761904Y-70492914D01*
X101761904Y-70492914D02*
X101714285Y-70588152D01*
X101714285Y-70588152D02*
X101666666Y-70635771D01*
X101666666Y-70635771D02*
X101571428Y-70683390D01*
X101571428Y-70683390D02*
X101380952Y-70683390D01*
X101380952Y-70683390D02*
X101285714Y-70731009D01*
X101285714Y-70731009D02*
X101238095Y-70778628D01*
X101238095Y-70778628D02*
X101190476Y-70873866D01*
X101190476Y-70873866D02*
X101190476Y-71064342D01*
X101190476Y-71064342D02*
X101238095Y-71159580D01*
X101238095Y-71159580D02*
X101285714Y-71207200D01*
X101285714Y-71207200D02*
X101380952Y-71254819D01*
X101380952Y-71254819D02*
X101571428Y-71254819D01*
X101571428Y-71254819D02*
X101666666Y-71207200D01*
X101666666Y-71207200D02*
X101714285Y-71159580D01*
X101714285Y-71159580D02*
X101761904Y-71064342D01*
X101761904Y-71064342D02*
X101761904Y-70873866D01*
X101761904Y-70873866D02*
X101714285Y-70778628D01*
X101714285Y-70778628D02*
X101666666Y-70731009D01*
X101666666Y-70731009D02*
X101571428Y-70683390D01*
X89557142Y-122854819D02*
X89223809Y-122378628D01*
X88985714Y-122854819D02*
X88985714Y-121854819D01*
X88985714Y-121854819D02*
X89366666Y-121854819D01*
X89366666Y-121854819D02*
X89461904Y-121902438D01*
X89461904Y-121902438D02*
X89509523Y-121950057D01*
X89509523Y-121950057D02*
X89557142Y-122045295D01*
X89557142Y-122045295D02*
X89557142Y-122188152D01*
X89557142Y-122188152D02*
X89509523Y-122283390D01*
X89509523Y-122283390D02*
X89461904Y-122331009D01*
X89461904Y-122331009D02*
X89366666Y-122378628D01*
X89366666Y-122378628D02*
X88985714Y-122378628D01*
X89938095Y-121950057D02*
X89985714Y-121902438D01*
X89985714Y-121902438D02*
X90080952Y-121854819D01*
X90080952Y-121854819D02*
X90319047Y-121854819D01*
X90319047Y-121854819D02*
X90414285Y-121902438D01*
X90414285Y-121902438D02*
X90461904Y-121950057D01*
X90461904Y-121950057D02*
X90509523Y-122045295D01*
X90509523Y-122045295D02*
X90509523Y-122140533D01*
X90509523Y-122140533D02*
X90461904Y-122283390D01*
X90461904Y-122283390D02*
X89890476Y-122854819D01*
X89890476Y-122854819D02*
X90509523Y-122854819D01*
X90842857Y-121854819D02*
X91509523Y-121854819D01*
X91509523Y-121854819D02*
X91080952Y-122854819D01*
X83557142Y-122854819D02*
X83223809Y-122378628D01*
X82985714Y-122854819D02*
X82985714Y-121854819D01*
X82985714Y-121854819D02*
X83366666Y-121854819D01*
X83366666Y-121854819D02*
X83461904Y-121902438D01*
X83461904Y-121902438D02*
X83509523Y-121950057D01*
X83509523Y-121950057D02*
X83557142Y-122045295D01*
X83557142Y-122045295D02*
X83557142Y-122188152D01*
X83557142Y-122188152D02*
X83509523Y-122283390D01*
X83509523Y-122283390D02*
X83461904Y-122331009D01*
X83461904Y-122331009D02*
X83366666Y-122378628D01*
X83366666Y-122378628D02*
X82985714Y-122378628D01*
X83938095Y-121950057D02*
X83985714Y-121902438D01*
X83985714Y-121902438D02*
X84080952Y-121854819D01*
X84080952Y-121854819D02*
X84319047Y-121854819D01*
X84319047Y-121854819D02*
X84414285Y-121902438D01*
X84414285Y-121902438D02*
X84461904Y-121950057D01*
X84461904Y-121950057D02*
X84509523Y-122045295D01*
X84509523Y-122045295D02*
X84509523Y-122140533D01*
X84509523Y-122140533D02*
X84461904Y-122283390D01*
X84461904Y-122283390D02*
X83890476Y-122854819D01*
X83890476Y-122854819D02*
X84509523Y-122854819D01*
X85366666Y-121854819D02*
X85176190Y-121854819D01*
X85176190Y-121854819D02*
X85080952Y-121902438D01*
X85080952Y-121902438D02*
X85033333Y-121950057D01*
X85033333Y-121950057D02*
X84938095Y-122092914D01*
X84938095Y-122092914D02*
X84890476Y-122283390D01*
X84890476Y-122283390D02*
X84890476Y-122664342D01*
X84890476Y-122664342D02*
X84938095Y-122759580D01*
X84938095Y-122759580D02*
X84985714Y-122807200D01*
X84985714Y-122807200D02*
X85080952Y-122854819D01*
X85080952Y-122854819D02*
X85271428Y-122854819D01*
X85271428Y-122854819D02*
X85366666Y-122807200D01*
X85366666Y-122807200D02*
X85414285Y-122759580D01*
X85414285Y-122759580D02*
X85461904Y-122664342D01*
X85461904Y-122664342D02*
X85461904Y-122426247D01*
X85461904Y-122426247D02*
X85414285Y-122331009D01*
X85414285Y-122331009D02*
X85366666Y-122283390D01*
X85366666Y-122283390D02*
X85271428Y-122235771D01*
X85271428Y-122235771D02*
X85080952Y-122235771D01*
X85080952Y-122235771D02*
X84985714Y-122283390D01*
X84985714Y-122283390D02*
X84938095Y-122331009D01*
X84938095Y-122331009D02*
X84890476Y-122426247D01*
X86657142Y-122854819D02*
X86323809Y-122378628D01*
X86085714Y-122854819D02*
X86085714Y-121854819D01*
X86085714Y-121854819D02*
X86466666Y-121854819D01*
X86466666Y-121854819D02*
X86561904Y-121902438D01*
X86561904Y-121902438D02*
X86609523Y-121950057D01*
X86609523Y-121950057D02*
X86657142Y-122045295D01*
X86657142Y-122045295D02*
X86657142Y-122188152D01*
X86657142Y-122188152D02*
X86609523Y-122283390D01*
X86609523Y-122283390D02*
X86561904Y-122331009D01*
X86561904Y-122331009D02*
X86466666Y-122378628D01*
X86466666Y-122378628D02*
X86085714Y-122378628D01*
X87038095Y-121950057D02*
X87085714Y-121902438D01*
X87085714Y-121902438D02*
X87180952Y-121854819D01*
X87180952Y-121854819D02*
X87419047Y-121854819D01*
X87419047Y-121854819D02*
X87514285Y-121902438D01*
X87514285Y-121902438D02*
X87561904Y-121950057D01*
X87561904Y-121950057D02*
X87609523Y-122045295D01*
X87609523Y-122045295D02*
X87609523Y-122140533D01*
X87609523Y-122140533D02*
X87561904Y-122283390D01*
X87561904Y-122283390D02*
X86990476Y-122854819D01*
X86990476Y-122854819D02*
X87609523Y-122854819D01*
X88514285Y-121854819D02*
X88038095Y-121854819D01*
X88038095Y-121854819D02*
X87990476Y-122331009D01*
X87990476Y-122331009D02*
X88038095Y-122283390D01*
X88038095Y-122283390D02*
X88133333Y-122235771D01*
X88133333Y-122235771D02*
X88371428Y-122235771D01*
X88371428Y-122235771D02*
X88466666Y-122283390D01*
X88466666Y-122283390D02*
X88514285Y-122331009D01*
X88514285Y-122331009D02*
X88561904Y-122426247D01*
X88561904Y-122426247D02*
X88561904Y-122664342D01*
X88561904Y-122664342D02*
X88514285Y-122759580D01*
X88514285Y-122759580D02*
X88466666Y-122807200D01*
X88466666Y-122807200D02*
X88371428Y-122854819D01*
X88371428Y-122854819D02*
X88133333Y-122854819D01*
X88133333Y-122854819D02*
X88038095Y-122807200D01*
X88038095Y-122807200D02*
X87990476Y-122759580D01*
X89357142Y-105954819D02*
X89023809Y-105478628D01*
X88785714Y-105954819D02*
X88785714Y-104954819D01*
X88785714Y-104954819D02*
X89166666Y-104954819D01*
X89166666Y-104954819D02*
X89261904Y-105002438D01*
X89261904Y-105002438D02*
X89309523Y-105050057D01*
X89309523Y-105050057D02*
X89357142Y-105145295D01*
X89357142Y-105145295D02*
X89357142Y-105288152D01*
X89357142Y-105288152D02*
X89309523Y-105383390D01*
X89309523Y-105383390D02*
X89261904Y-105431009D01*
X89261904Y-105431009D02*
X89166666Y-105478628D01*
X89166666Y-105478628D02*
X88785714Y-105478628D01*
X89738095Y-105050057D02*
X89785714Y-105002438D01*
X89785714Y-105002438D02*
X89880952Y-104954819D01*
X89880952Y-104954819D02*
X90119047Y-104954819D01*
X90119047Y-104954819D02*
X90214285Y-105002438D01*
X90214285Y-105002438D02*
X90261904Y-105050057D01*
X90261904Y-105050057D02*
X90309523Y-105145295D01*
X90309523Y-105145295D02*
X90309523Y-105240533D01*
X90309523Y-105240533D02*
X90261904Y-105383390D01*
X90261904Y-105383390D02*
X89690476Y-105954819D01*
X89690476Y-105954819D02*
X90309523Y-105954819D01*
X91166666Y-105288152D02*
X91166666Y-105954819D01*
X90928571Y-104907200D02*
X90690476Y-105621485D01*
X90690476Y-105621485D02*
X91309523Y-105621485D01*
X83357142Y-105954819D02*
X83023809Y-105478628D01*
X82785714Y-105954819D02*
X82785714Y-104954819D01*
X82785714Y-104954819D02*
X83166666Y-104954819D01*
X83166666Y-104954819D02*
X83261904Y-105002438D01*
X83261904Y-105002438D02*
X83309523Y-105050057D01*
X83309523Y-105050057D02*
X83357142Y-105145295D01*
X83357142Y-105145295D02*
X83357142Y-105288152D01*
X83357142Y-105288152D02*
X83309523Y-105383390D01*
X83309523Y-105383390D02*
X83261904Y-105431009D01*
X83261904Y-105431009D02*
X83166666Y-105478628D01*
X83166666Y-105478628D02*
X82785714Y-105478628D01*
X83738095Y-105050057D02*
X83785714Y-105002438D01*
X83785714Y-105002438D02*
X83880952Y-104954819D01*
X83880952Y-104954819D02*
X84119047Y-104954819D01*
X84119047Y-104954819D02*
X84214285Y-105002438D01*
X84214285Y-105002438D02*
X84261904Y-105050057D01*
X84261904Y-105050057D02*
X84309523Y-105145295D01*
X84309523Y-105145295D02*
X84309523Y-105240533D01*
X84309523Y-105240533D02*
X84261904Y-105383390D01*
X84261904Y-105383390D02*
X83690476Y-105954819D01*
X83690476Y-105954819D02*
X84309523Y-105954819D01*
X84642857Y-104954819D02*
X85261904Y-104954819D01*
X85261904Y-104954819D02*
X84928571Y-105335771D01*
X84928571Y-105335771D02*
X85071428Y-105335771D01*
X85071428Y-105335771D02*
X85166666Y-105383390D01*
X85166666Y-105383390D02*
X85214285Y-105431009D01*
X85214285Y-105431009D02*
X85261904Y-105526247D01*
X85261904Y-105526247D02*
X85261904Y-105764342D01*
X85261904Y-105764342D02*
X85214285Y-105859580D01*
X85214285Y-105859580D02*
X85166666Y-105907200D01*
X85166666Y-105907200D02*
X85071428Y-105954819D01*
X85071428Y-105954819D02*
X84785714Y-105954819D01*
X84785714Y-105954819D02*
X84690476Y-105907200D01*
X84690476Y-105907200D02*
X84642857Y-105859580D01*
X86357142Y-105954819D02*
X86023809Y-105478628D01*
X85785714Y-105954819D02*
X85785714Y-104954819D01*
X85785714Y-104954819D02*
X86166666Y-104954819D01*
X86166666Y-104954819D02*
X86261904Y-105002438D01*
X86261904Y-105002438D02*
X86309523Y-105050057D01*
X86309523Y-105050057D02*
X86357142Y-105145295D01*
X86357142Y-105145295D02*
X86357142Y-105288152D01*
X86357142Y-105288152D02*
X86309523Y-105383390D01*
X86309523Y-105383390D02*
X86261904Y-105431009D01*
X86261904Y-105431009D02*
X86166666Y-105478628D01*
X86166666Y-105478628D02*
X85785714Y-105478628D01*
X86738095Y-105050057D02*
X86785714Y-105002438D01*
X86785714Y-105002438D02*
X86880952Y-104954819D01*
X86880952Y-104954819D02*
X87119047Y-104954819D01*
X87119047Y-104954819D02*
X87214285Y-105002438D01*
X87214285Y-105002438D02*
X87261904Y-105050057D01*
X87261904Y-105050057D02*
X87309523Y-105145295D01*
X87309523Y-105145295D02*
X87309523Y-105240533D01*
X87309523Y-105240533D02*
X87261904Y-105383390D01*
X87261904Y-105383390D02*
X86690476Y-105954819D01*
X86690476Y-105954819D02*
X87309523Y-105954819D01*
X87690476Y-105050057D02*
X87738095Y-105002438D01*
X87738095Y-105002438D02*
X87833333Y-104954819D01*
X87833333Y-104954819D02*
X88071428Y-104954819D01*
X88071428Y-104954819D02*
X88166666Y-105002438D01*
X88166666Y-105002438D02*
X88214285Y-105050057D01*
X88214285Y-105050057D02*
X88261904Y-105145295D01*
X88261904Y-105145295D02*
X88261904Y-105240533D01*
X88261904Y-105240533D02*
X88214285Y-105383390D01*
X88214285Y-105383390D02*
X87642857Y-105954819D01*
X87642857Y-105954819D02*
X88261904Y-105954819D01*
X90057142Y-88254819D02*
X89723809Y-87778628D01*
X89485714Y-88254819D02*
X89485714Y-87254819D01*
X89485714Y-87254819D02*
X89866666Y-87254819D01*
X89866666Y-87254819D02*
X89961904Y-87302438D01*
X89961904Y-87302438D02*
X90009523Y-87350057D01*
X90009523Y-87350057D02*
X90057142Y-87445295D01*
X90057142Y-87445295D02*
X90057142Y-87588152D01*
X90057142Y-87588152D02*
X90009523Y-87683390D01*
X90009523Y-87683390D02*
X89961904Y-87731009D01*
X89961904Y-87731009D02*
X89866666Y-87778628D01*
X89866666Y-87778628D02*
X89485714Y-87778628D01*
X90438095Y-87350057D02*
X90485714Y-87302438D01*
X90485714Y-87302438D02*
X90580952Y-87254819D01*
X90580952Y-87254819D02*
X90819047Y-87254819D01*
X90819047Y-87254819D02*
X90914285Y-87302438D01*
X90914285Y-87302438D02*
X90961904Y-87350057D01*
X90961904Y-87350057D02*
X91009523Y-87445295D01*
X91009523Y-87445295D02*
X91009523Y-87540533D01*
X91009523Y-87540533D02*
X90961904Y-87683390D01*
X90961904Y-87683390D02*
X90390476Y-88254819D01*
X90390476Y-88254819D02*
X91009523Y-88254819D01*
X91961904Y-88254819D02*
X91390476Y-88254819D01*
X91676190Y-88254819D02*
X91676190Y-87254819D01*
X91676190Y-87254819D02*
X91580952Y-87397676D01*
X91580952Y-87397676D02*
X91485714Y-87492914D01*
X91485714Y-87492914D02*
X91390476Y-87540533D01*
X83857142Y-88254819D02*
X83523809Y-87778628D01*
X83285714Y-88254819D02*
X83285714Y-87254819D01*
X83285714Y-87254819D02*
X83666666Y-87254819D01*
X83666666Y-87254819D02*
X83761904Y-87302438D01*
X83761904Y-87302438D02*
X83809523Y-87350057D01*
X83809523Y-87350057D02*
X83857142Y-87445295D01*
X83857142Y-87445295D02*
X83857142Y-87588152D01*
X83857142Y-87588152D02*
X83809523Y-87683390D01*
X83809523Y-87683390D02*
X83761904Y-87731009D01*
X83761904Y-87731009D02*
X83666666Y-87778628D01*
X83666666Y-87778628D02*
X83285714Y-87778628D01*
X84238095Y-87350057D02*
X84285714Y-87302438D01*
X84285714Y-87302438D02*
X84380952Y-87254819D01*
X84380952Y-87254819D02*
X84619047Y-87254819D01*
X84619047Y-87254819D02*
X84714285Y-87302438D01*
X84714285Y-87302438D02*
X84761904Y-87350057D01*
X84761904Y-87350057D02*
X84809523Y-87445295D01*
X84809523Y-87445295D02*
X84809523Y-87540533D01*
X84809523Y-87540533D02*
X84761904Y-87683390D01*
X84761904Y-87683390D02*
X84190476Y-88254819D01*
X84190476Y-88254819D02*
X84809523Y-88254819D01*
X85428571Y-87254819D02*
X85523809Y-87254819D01*
X85523809Y-87254819D02*
X85619047Y-87302438D01*
X85619047Y-87302438D02*
X85666666Y-87350057D01*
X85666666Y-87350057D02*
X85714285Y-87445295D01*
X85714285Y-87445295D02*
X85761904Y-87635771D01*
X85761904Y-87635771D02*
X85761904Y-87873866D01*
X85761904Y-87873866D02*
X85714285Y-88064342D01*
X85714285Y-88064342D02*
X85666666Y-88159580D01*
X85666666Y-88159580D02*
X85619047Y-88207200D01*
X85619047Y-88207200D02*
X85523809Y-88254819D01*
X85523809Y-88254819D02*
X85428571Y-88254819D01*
X85428571Y-88254819D02*
X85333333Y-88207200D01*
X85333333Y-88207200D02*
X85285714Y-88159580D01*
X85285714Y-88159580D02*
X85238095Y-88064342D01*
X85238095Y-88064342D02*
X85190476Y-87873866D01*
X85190476Y-87873866D02*
X85190476Y-87635771D01*
X85190476Y-87635771D02*
X85238095Y-87445295D01*
X85238095Y-87445295D02*
X85285714Y-87350057D01*
X85285714Y-87350057D02*
X85333333Y-87302438D01*
X85333333Y-87302438D02*
X85428571Y-87254819D01*
X86957142Y-88254819D02*
X86623809Y-87778628D01*
X86385714Y-88254819D02*
X86385714Y-87254819D01*
X86385714Y-87254819D02*
X86766666Y-87254819D01*
X86766666Y-87254819D02*
X86861904Y-87302438D01*
X86861904Y-87302438D02*
X86909523Y-87350057D01*
X86909523Y-87350057D02*
X86957142Y-87445295D01*
X86957142Y-87445295D02*
X86957142Y-87588152D01*
X86957142Y-87588152D02*
X86909523Y-87683390D01*
X86909523Y-87683390D02*
X86861904Y-87731009D01*
X86861904Y-87731009D02*
X86766666Y-87778628D01*
X86766666Y-87778628D02*
X86385714Y-87778628D01*
X87909523Y-88254819D02*
X87338095Y-88254819D01*
X87623809Y-88254819D02*
X87623809Y-87254819D01*
X87623809Y-87254819D02*
X87528571Y-87397676D01*
X87528571Y-87397676D02*
X87433333Y-87492914D01*
X87433333Y-87492914D02*
X87338095Y-87540533D01*
X88385714Y-88254819D02*
X88576190Y-88254819D01*
X88576190Y-88254819D02*
X88671428Y-88207200D01*
X88671428Y-88207200D02*
X88719047Y-88159580D01*
X88719047Y-88159580D02*
X88814285Y-88016723D01*
X88814285Y-88016723D02*
X88861904Y-87826247D01*
X88861904Y-87826247D02*
X88861904Y-87445295D01*
X88861904Y-87445295D02*
X88814285Y-87350057D01*
X88814285Y-87350057D02*
X88766666Y-87302438D01*
X88766666Y-87302438D02*
X88671428Y-87254819D01*
X88671428Y-87254819D02*
X88480952Y-87254819D01*
X88480952Y-87254819D02*
X88385714Y-87302438D01*
X88385714Y-87302438D02*
X88338095Y-87350057D01*
X88338095Y-87350057D02*
X88290476Y-87445295D01*
X88290476Y-87445295D02*
X88290476Y-87683390D01*
X88290476Y-87683390D02*
X88338095Y-87778628D01*
X88338095Y-87778628D02*
X88385714Y-87826247D01*
X88385714Y-87826247D02*
X88480952Y-87873866D01*
X88480952Y-87873866D02*
X88671428Y-87873866D01*
X88671428Y-87873866D02*
X88766666Y-87826247D01*
X88766666Y-87826247D02*
X88814285Y-87778628D01*
X88814285Y-87778628D02*
X88861904Y-87683390D01*
X89957142Y-71254819D02*
X89623809Y-70778628D01*
X89385714Y-71254819D02*
X89385714Y-70254819D01*
X89385714Y-70254819D02*
X89766666Y-70254819D01*
X89766666Y-70254819D02*
X89861904Y-70302438D01*
X89861904Y-70302438D02*
X89909523Y-70350057D01*
X89909523Y-70350057D02*
X89957142Y-70445295D01*
X89957142Y-70445295D02*
X89957142Y-70588152D01*
X89957142Y-70588152D02*
X89909523Y-70683390D01*
X89909523Y-70683390D02*
X89861904Y-70731009D01*
X89861904Y-70731009D02*
X89766666Y-70778628D01*
X89766666Y-70778628D02*
X89385714Y-70778628D01*
X90909523Y-71254819D02*
X90338095Y-71254819D01*
X90623809Y-71254819D02*
X90623809Y-70254819D01*
X90623809Y-70254819D02*
X90528571Y-70397676D01*
X90528571Y-70397676D02*
X90433333Y-70492914D01*
X90433333Y-70492914D02*
X90338095Y-70540533D01*
X91480952Y-70683390D02*
X91385714Y-70635771D01*
X91385714Y-70635771D02*
X91338095Y-70588152D01*
X91338095Y-70588152D02*
X91290476Y-70492914D01*
X91290476Y-70492914D02*
X91290476Y-70445295D01*
X91290476Y-70445295D02*
X91338095Y-70350057D01*
X91338095Y-70350057D02*
X91385714Y-70302438D01*
X91385714Y-70302438D02*
X91480952Y-70254819D01*
X91480952Y-70254819D02*
X91671428Y-70254819D01*
X91671428Y-70254819D02*
X91766666Y-70302438D01*
X91766666Y-70302438D02*
X91814285Y-70350057D01*
X91814285Y-70350057D02*
X91861904Y-70445295D01*
X91861904Y-70445295D02*
X91861904Y-70492914D01*
X91861904Y-70492914D02*
X91814285Y-70588152D01*
X91814285Y-70588152D02*
X91766666Y-70635771D01*
X91766666Y-70635771D02*
X91671428Y-70683390D01*
X91671428Y-70683390D02*
X91480952Y-70683390D01*
X91480952Y-70683390D02*
X91385714Y-70731009D01*
X91385714Y-70731009D02*
X91338095Y-70778628D01*
X91338095Y-70778628D02*
X91290476Y-70873866D01*
X91290476Y-70873866D02*
X91290476Y-71064342D01*
X91290476Y-71064342D02*
X91338095Y-71159580D01*
X91338095Y-71159580D02*
X91385714Y-71207200D01*
X91385714Y-71207200D02*
X91480952Y-71254819D01*
X91480952Y-71254819D02*
X91671428Y-71254819D01*
X91671428Y-71254819D02*
X91766666Y-71207200D01*
X91766666Y-71207200D02*
X91814285Y-71159580D01*
X91814285Y-71159580D02*
X91861904Y-71064342D01*
X91861904Y-71064342D02*
X91861904Y-70873866D01*
X91861904Y-70873866D02*
X91814285Y-70778628D01*
X91814285Y-70778628D02*
X91766666Y-70731009D01*
X91766666Y-70731009D02*
X91671428Y-70683390D01*
X83757142Y-71254819D02*
X83423809Y-70778628D01*
X83185714Y-71254819D02*
X83185714Y-70254819D01*
X83185714Y-70254819D02*
X83566666Y-70254819D01*
X83566666Y-70254819D02*
X83661904Y-70302438D01*
X83661904Y-70302438D02*
X83709523Y-70350057D01*
X83709523Y-70350057D02*
X83757142Y-70445295D01*
X83757142Y-70445295D02*
X83757142Y-70588152D01*
X83757142Y-70588152D02*
X83709523Y-70683390D01*
X83709523Y-70683390D02*
X83661904Y-70731009D01*
X83661904Y-70731009D02*
X83566666Y-70778628D01*
X83566666Y-70778628D02*
X83185714Y-70778628D01*
X84709523Y-71254819D02*
X84138095Y-71254819D01*
X84423809Y-71254819D02*
X84423809Y-70254819D01*
X84423809Y-70254819D02*
X84328571Y-70397676D01*
X84328571Y-70397676D02*
X84233333Y-70492914D01*
X84233333Y-70492914D02*
X84138095Y-70540533D01*
X85042857Y-70254819D02*
X85709523Y-70254819D01*
X85709523Y-70254819D02*
X85280952Y-71254819D01*
X86957142Y-71254819D02*
X86623809Y-70778628D01*
X86385714Y-71254819D02*
X86385714Y-70254819D01*
X86385714Y-70254819D02*
X86766666Y-70254819D01*
X86766666Y-70254819D02*
X86861904Y-70302438D01*
X86861904Y-70302438D02*
X86909523Y-70350057D01*
X86909523Y-70350057D02*
X86957142Y-70445295D01*
X86957142Y-70445295D02*
X86957142Y-70588152D01*
X86957142Y-70588152D02*
X86909523Y-70683390D01*
X86909523Y-70683390D02*
X86861904Y-70731009D01*
X86861904Y-70731009D02*
X86766666Y-70778628D01*
X86766666Y-70778628D02*
X86385714Y-70778628D01*
X87909523Y-71254819D02*
X87338095Y-71254819D01*
X87623809Y-71254819D02*
X87623809Y-70254819D01*
X87623809Y-70254819D02*
X87528571Y-70397676D01*
X87528571Y-70397676D02*
X87433333Y-70492914D01*
X87433333Y-70492914D02*
X87338095Y-70540533D01*
X88766666Y-70254819D02*
X88576190Y-70254819D01*
X88576190Y-70254819D02*
X88480952Y-70302438D01*
X88480952Y-70302438D02*
X88433333Y-70350057D01*
X88433333Y-70350057D02*
X88338095Y-70492914D01*
X88338095Y-70492914D02*
X88290476Y-70683390D01*
X88290476Y-70683390D02*
X88290476Y-71064342D01*
X88290476Y-71064342D02*
X88338095Y-71159580D01*
X88338095Y-71159580D02*
X88385714Y-71207200D01*
X88385714Y-71207200D02*
X88480952Y-71254819D01*
X88480952Y-71254819D02*
X88671428Y-71254819D01*
X88671428Y-71254819D02*
X88766666Y-71207200D01*
X88766666Y-71207200D02*
X88814285Y-71159580D01*
X88814285Y-71159580D02*
X88861904Y-71064342D01*
X88861904Y-71064342D02*
X88861904Y-70826247D01*
X88861904Y-70826247D02*
X88814285Y-70731009D01*
X88814285Y-70731009D02*
X88766666Y-70683390D01*
X88766666Y-70683390D02*
X88671428Y-70635771D01*
X88671428Y-70635771D02*
X88480952Y-70635771D01*
X88480952Y-70635771D02*
X88385714Y-70683390D01*
X88385714Y-70683390D02*
X88338095Y-70731009D01*
X88338095Y-70731009D02*
X88290476Y-70826247D01*
X77557142Y-71254819D02*
X77223809Y-70778628D01*
X76985714Y-71254819D02*
X76985714Y-70254819D01*
X76985714Y-70254819D02*
X77366666Y-70254819D01*
X77366666Y-70254819D02*
X77461904Y-70302438D01*
X77461904Y-70302438D02*
X77509523Y-70350057D01*
X77509523Y-70350057D02*
X77557142Y-70445295D01*
X77557142Y-70445295D02*
X77557142Y-70588152D01*
X77557142Y-70588152D02*
X77509523Y-70683390D01*
X77509523Y-70683390D02*
X77461904Y-70731009D01*
X77461904Y-70731009D02*
X77366666Y-70778628D01*
X77366666Y-70778628D02*
X76985714Y-70778628D01*
X78509523Y-71254819D02*
X77938095Y-71254819D01*
X78223809Y-71254819D02*
X78223809Y-70254819D01*
X78223809Y-70254819D02*
X78128571Y-70397676D01*
X78128571Y-70397676D02*
X78033333Y-70492914D01*
X78033333Y-70492914D02*
X77938095Y-70540533D01*
X79414285Y-70254819D02*
X78938095Y-70254819D01*
X78938095Y-70254819D02*
X78890476Y-70731009D01*
X78890476Y-70731009D02*
X78938095Y-70683390D01*
X78938095Y-70683390D02*
X79033333Y-70635771D01*
X79033333Y-70635771D02*
X79271428Y-70635771D01*
X79271428Y-70635771D02*
X79366666Y-70683390D01*
X79366666Y-70683390D02*
X79414285Y-70731009D01*
X79414285Y-70731009D02*
X79461904Y-70826247D01*
X79461904Y-70826247D02*
X79461904Y-71064342D01*
X79461904Y-71064342D02*
X79414285Y-71159580D01*
X79414285Y-71159580D02*
X79366666Y-71207200D01*
X79366666Y-71207200D02*
X79271428Y-71254819D01*
X79271428Y-71254819D02*
X79033333Y-71254819D01*
X79033333Y-71254819D02*
X78938095Y-71207200D01*
X78938095Y-71207200D02*
X78890476Y-71159580D01*
X71457142Y-71254819D02*
X71123809Y-70778628D01*
X70885714Y-71254819D02*
X70885714Y-70254819D01*
X70885714Y-70254819D02*
X71266666Y-70254819D01*
X71266666Y-70254819D02*
X71361904Y-70302438D01*
X71361904Y-70302438D02*
X71409523Y-70350057D01*
X71409523Y-70350057D02*
X71457142Y-70445295D01*
X71457142Y-70445295D02*
X71457142Y-70588152D01*
X71457142Y-70588152D02*
X71409523Y-70683390D01*
X71409523Y-70683390D02*
X71361904Y-70731009D01*
X71361904Y-70731009D02*
X71266666Y-70778628D01*
X71266666Y-70778628D02*
X70885714Y-70778628D01*
X72409523Y-71254819D02*
X71838095Y-71254819D01*
X72123809Y-71254819D02*
X72123809Y-70254819D01*
X72123809Y-70254819D02*
X72028571Y-70397676D01*
X72028571Y-70397676D02*
X71933333Y-70492914D01*
X71933333Y-70492914D02*
X71838095Y-70540533D01*
X73266666Y-70588152D02*
X73266666Y-71254819D01*
X73028571Y-70207200D02*
X72790476Y-70921485D01*
X72790476Y-70921485D02*
X73409523Y-70921485D01*
X74557142Y-71254819D02*
X74223809Y-70778628D01*
X73985714Y-71254819D02*
X73985714Y-70254819D01*
X73985714Y-70254819D02*
X74366666Y-70254819D01*
X74366666Y-70254819D02*
X74461904Y-70302438D01*
X74461904Y-70302438D02*
X74509523Y-70350057D01*
X74509523Y-70350057D02*
X74557142Y-70445295D01*
X74557142Y-70445295D02*
X74557142Y-70588152D01*
X74557142Y-70588152D02*
X74509523Y-70683390D01*
X74509523Y-70683390D02*
X74461904Y-70731009D01*
X74461904Y-70731009D02*
X74366666Y-70778628D01*
X74366666Y-70778628D02*
X73985714Y-70778628D01*
X75509523Y-71254819D02*
X74938095Y-71254819D01*
X75223809Y-71254819D02*
X75223809Y-70254819D01*
X75223809Y-70254819D02*
X75128571Y-70397676D01*
X75128571Y-70397676D02*
X75033333Y-70492914D01*
X75033333Y-70492914D02*
X74938095Y-70540533D01*
X75842857Y-70254819D02*
X76461904Y-70254819D01*
X76461904Y-70254819D02*
X76128571Y-70635771D01*
X76128571Y-70635771D02*
X76271428Y-70635771D01*
X76271428Y-70635771D02*
X76366666Y-70683390D01*
X76366666Y-70683390D02*
X76414285Y-70731009D01*
X76414285Y-70731009D02*
X76461904Y-70826247D01*
X76461904Y-70826247D02*
X76461904Y-71064342D01*
X76461904Y-71064342D02*
X76414285Y-71159580D01*
X76414285Y-71159580D02*
X76366666Y-71207200D01*
X76366666Y-71207200D02*
X76271428Y-71254819D01*
X76271428Y-71254819D02*
X75985714Y-71254819D01*
X75985714Y-71254819D02*
X75890476Y-71207200D01*
X75890476Y-71207200D02*
X75842857Y-71159580D01*
X77557142Y-88254819D02*
X77223809Y-87778628D01*
X76985714Y-88254819D02*
X76985714Y-87254819D01*
X76985714Y-87254819D02*
X77366666Y-87254819D01*
X77366666Y-87254819D02*
X77461904Y-87302438D01*
X77461904Y-87302438D02*
X77509523Y-87350057D01*
X77509523Y-87350057D02*
X77557142Y-87445295D01*
X77557142Y-87445295D02*
X77557142Y-87588152D01*
X77557142Y-87588152D02*
X77509523Y-87683390D01*
X77509523Y-87683390D02*
X77461904Y-87731009D01*
X77461904Y-87731009D02*
X77366666Y-87778628D01*
X77366666Y-87778628D02*
X76985714Y-87778628D01*
X78509523Y-88254819D02*
X77938095Y-88254819D01*
X78223809Y-88254819D02*
X78223809Y-87254819D01*
X78223809Y-87254819D02*
X78128571Y-87397676D01*
X78128571Y-87397676D02*
X78033333Y-87492914D01*
X78033333Y-87492914D02*
X77938095Y-87540533D01*
X78890476Y-87350057D02*
X78938095Y-87302438D01*
X78938095Y-87302438D02*
X79033333Y-87254819D01*
X79033333Y-87254819D02*
X79271428Y-87254819D01*
X79271428Y-87254819D02*
X79366666Y-87302438D01*
X79366666Y-87302438D02*
X79414285Y-87350057D01*
X79414285Y-87350057D02*
X79461904Y-87445295D01*
X79461904Y-87445295D02*
X79461904Y-87540533D01*
X79461904Y-87540533D02*
X79414285Y-87683390D01*
X79414285Y-87683390D02*
X78842857Y-88254819D01*
X78842857Y-88254819D02*
X79461904Y-88254819D01*
X71157142Y-88154819D02*
X70823809Y-87678628D01*
X70585714Y-88154819D02*
X70585714Y-87154819D01*
X70585714Y-87154819D02*
X70966666Y-87154819D01*
X70966666Y-87154819D02*
X71061904Y-87202438D01*
X71061904Y-87202438D02*
X71109523Y-87250057D01*
X71109523Y-87250057D02*
X71157142Y-87345295D01*
X71157142Y-87345295D02*
X71157142Y-87488152D01*
X71157142Y-87488152D02*
X71109523Y-87583390D01*
X71109523Y-87583390D02*
X71061904Y-87631009D01*
X71061904Y-87631009D02*
X70966666Y-87678628D01*
X70966666Y-87678628D02*
X70585714Y-87678628D01*
X72109523Y-88154819D02*
X71538095Y-88154819D01*
X71823809Y-88154819D02*
X71823809Y-87154819D01*
X71823809Y-87154819D02*
X71728571Y-87297676D01*
X71728571Y-87297676D02*
X71633333Y-87392914D01*
X71633333Y-87392914D02*
X71538095Y-87440533D01*
X73061904Y-88154819D02*
X72490476Y-88154819D01*
X72776190Y-88154819D02*
X72776190Y-87154819D01*
X72776190Y-87154819D02*
X72680952Y-87297676D01*
X72680952Y-87297676D02*
X72585714Y-87392914D01*
X72585714Y-87392914D02*
X72490476Y-87440533D01*
X74457142Y-88254819D02*
X74123809Y-87778628D01*
X73885714Y-88254819D02*
X73885714Y-87254819D01*
X73885714Y-87254819D02*
X74266666Y-87254819D01*
X74266666Y-87254819D02*
X74361904Y-87302438D01*
X74361904Y-87302438D02*
X74409523Y-87350057D01*
X74409523Y-87350057D02*
X74457142Y-87445295D01*
X74457142Y-87445295D02*
X74457142Y-87588152D01*
X74457142Y-87588152D02*
X74409523Y-87683390D01*
X74409523Y-87683390D02*
X74361904Y-87731009D01*
X74361904Y-87731009D02*
X74266666Y-87778628D01*
X74266666Y-87778628D02*
X73885714Y-87778628D01*
X75409523Y-88254819D02*
X74838095Y-88254819D01*
X75123809Y-88254819D02*
X75123809Y-87254819D01*
X75123809Y-87254819D02*
X75028571Y-87397676D01*
X75028571Y-87397676D02*
X74933333Y-87492914D01*
X74933333Y-87492914D02*
X74838095Y-87540533D01*
X76028571Y-87254819D02*
X76123809Y-87254819D01*
X76123809Y-87254819D02*
X76219047Y-87302438D01*
X76219047Y-87302438D02*
X76266666Y-87350057D01*
X76266666Y-87350057D02*
X76314285Y-87445295D01*
X76314285Y-87445295D02*
X76361904Y-87635771D01*
X76361904Y-87635771D02*
X76361904Y-87873866D01*
X76361904Y-87873866D02*
X76314285Y-88064342D01*
X76314285Y-88064342D02*
X76266666Y-88159580D01*
X76266666Y-88159580D02*
X76219047Y-88207200D01*
X76219047Y-88207200D02*
X76123809Y-88254819D01*
X76123809Y-88254819D02*
X76028571Y-88254819D01*
X76028571Y-88254819D02*
X75933333Y-88207200D01*
X75933333Y-88207200D02*
X75885714Y-88159580D01*
X75885714Y-88159580D02*
X75838095Y-88064342D01*
X75838095Y-88064342D02*
X75790476Y-87873866D01*
X75790476Y-87873866D02*
X75790476Y-87635771D01*
X75790476Y-87635771D02*
X75838095Y-87445295D01*
X75838095Y-87445295D02*
X75885714Y-87350057D01*
X75885714Y-87350057D02*
X75933333Y-87302438D01*
X75933333Y-87302438D02*
X76028571Y-87254819D01*
X77233334Y-106054818D02*
X76900001Y-105578627D01*
X76661906Y-106054818D02*
X76661906Y-105054818D01*
X76661906Y-105054818D02*
X77042858Y-105054818D01*
X77042858Y-105054818D02*
X77138096Y-105102437D01*
X77138096Y-105102437D02*
X77185715Y-105150056D01*
X77185715Y-105150056D02*
X77233334Y-105245294D01*
X77233334Y-105245294D02*
X77233334Y-105388151D01*
X77233334Y-105388151D02*
X77185715Y-105483389D01*
X77185715Y-105483389D02*
X77138096Y-105531008D01*
X77138096Y-105531008D02*
X77042858Y-105578627D01*
X77042858Y-105578627D02*
X76661906Y-105578627D01*
X77709525Y-106054818D02*
X77900001Y-106054818D01*
X77900001Y-106054818D02*
X77995239Y-106007199D01*
X77995239Y-106007199D02*
X78042858Y-105959579D01*
X78042858Y-105959579D02*
X78138096Y-105816722D01*
X78138096Y-105816722D02*
X78185715Y-105626246D01*
X78185715Y-105626246D02*
X78185715Y-105245294D01*
X78185715Y-105245294D02*
X78138096Y-105150056D01*
X78138096Y-105150056D02*
X78090477Y-105102437D01*
X78090477Y-105102437D02*
X77995239Y-105054818D01*
X77995239Y-105054818D02*
X77804763Y-105054818D01*
X77804763Y-105054818D02*
X77709525Y-105102437D01*
X77709525Y-105102437D02*
X77661906Y-105150056D01*
X77661906Y-105150056D02*
X77614287Y-105245294D01*
X77614287Y-105245294D02*
X77614287Y-105483389D01*
X77614287Y-105483389D02*
X77661906Y-105578627D01*
X77661906Y-105578627D02*
X77709525Y-105626246D01*
X77709525Y-105626246D02*
X77804763Y-105673865D01*
X77804763Y-105673865D02*
X77995239Y-105673865D01*
X77995239Y-105673865D02*
X78090477Y-105626246D01*
X78090477Y-105626246D02*
X78138096Y-105578627D01*
X78138096Y-105578627D02*
X78185715Y-105483389D01*
X71233334Y-105954818D02*
X70900001Y-105478627D01*
X70661906Y-105954818D02*
X70661906Y-104954818D01*
X70661906Y-104954818D02*
X71042858Y-104954818D01*
X71042858Y-104954818D02*
X71138096Y-105002437D01*
X71138096Y-105002437D02*
X71185715Y-105050056D01*
X71185715Y-105050056D02*
X71233334Y-105145294D01*
X71233334Y-105145294D02*
X71233334Y-105288151D01*
X71233334Y-105288151D02*
X71185715Y-105383389D01*
X71185715Y-105383389D02*
X71138096Y-105431008D01*
X71138096Y-105431008D02*
X71042858Y-105478627D01*
X71042858Y-105478627D02*
X70661906Y-105478627D01*
X71804763Y-105383389D02*
X71709525Y-105335770D01*
X71709525Y-105335770D02*
X71661906Y-105288151D01*
X71661906Y-105288151D02*
X71614287Y-105192913D01*
X71614287Y-105192913D02*
X71614287Y-105145294D01*
X71614287Y-105145294D02*
X71661906Y-105050056D01*
X71661906Y-105050056D02*
X71709525Y-105002437D01*
X71709525Y-105002437D02*
X71804763Y-104954818D01*
X71804763Y-104954818D02*
X71995239Y-104954818D01*
X71995239Y-104954818D02*
X72090477Y-105002437D01*
X72090477Y-105002437D02*
X72138096Y-105050056D01*
X72138096Y-105050056D02*
X72185715Y-105145294D01*
X72185715Y-105145294D02*
X72185715Y-105192913D01*
X72185715Y-105192913D02*
X72138096Y-105288151D01*
X72138096Y-105288151D02*
X72090477Y-105335770D01*
X72090477Y-105335770D02*
X71995239Y-105383389D01*
X71995239Y-105383389D02*
X71804763Y-105383389D01*
X71804763Y-105383389D02*
X71709525Y-105431008D01*
X71709525Y-105431008D02*
X71661906Y-105478627D01*
X71661906Y-105478627D02*
X71614287Y-105573865D01*
X71614287Y-105573865D02*
X71614287Y-105764341D01*
X71614287Y-105764341D02*
X71661906Y-105859579D01*
X71661906Y-105859579D02*
X71709525Y-105907199D01*
X71709525Y-105907199D02*
X71804763Y-105954818D01*
X71804763Y-105954818D02*
X71995239Y-105954818D01*
X71995239Y-105954818D02*
X72090477Y-105907199D01*
X72090477Y-105907199D02*
X72138096Y-105859579D01*
X72138096Y-105859579D02*
X72185715Y-105764341D01*
X72185715Y-105764341D02*
X72185715Y-105573865D01*
X72185715Y-105573865D02*
X72138096Y-105478627D01*
X72138096Y-105478627D02*
X72090477Y-105431008D01*
X72090477Y-105431008D02*
X71995239Y-105383389D01*
X74233334Y-106054818D02*
X73900001Y-105578627D01*
X73661906Y-106054818D02*
X73661906Y-105054818D01*
X73661906Y-105054818D02*
X74042858Y-105054818D01*
X74042858Y-105054818D02*
X74138096Y-105102437D01*
X74138096Y-105102437D02*
X74185715Y-105150056D01*
X74185715Y-105150056D02*
X74233334Y-105245294D01*
X74233334Y-105245294D02*
X74233334Y-105388151D01*
X74233334Y-105388151D02*
X74185715Y-105483389D01*
X74185715Y-105483389D02*
X74138096Y-105531008D01*
X74138096Y-105531008D02*
X74042858Y-105578627D01*
X74042858Y-105578627D02*
X73661906Y-105578627D01*
X74566668Y-105054818D02*
X75233334Y-105054818D01*
X75233334Y-105054818D02*
X74804763Y-106054818D01*
D10*
X96342580Y-72190476D02*
X95628295Y-72190476D01*
X95628295Y-72190476D02*
X95485438Y-72142857D01*
X95485438Y-72142857D02*
X95390200Y-72047619D01*
X95390200Y-72047619D02*
X95342580Y-71904762D01*
X95342580Y-71904762D02*
X95342580Y-71809524D01*
X95342580Y-73190476D02*
X95342580Y-72619048D01*
X95342580Y-72904762D02*
X96342580Y-72904762D01*
X96342580Y-72904762D02*
X96199723Y-72809524D01*
X96199723Y-72809524D02*
X96104485Y-72714286D01*
X96104485Y-72714286D02*
X96056866Y-72619048D01*
X96342580Y-73809524D02*
X96342580Y-73904762D01*
X96342580Y-73904762D02*
X96294961Y-74000000D01*
X96294961Y-74000000D02*
X96247342Y-74047619D01*
X96247342Y-74047619D02*
X96152104Y-74095238D01*
X96152104Y-74095238D02*
X95961628Y-74142857D01*
X95961628Y-74142857D02*
X95723533Y-74142857D01*
X95723533Y-74142857D02*
X95533057Y-74095238D01*
X95533057Y-74095238D02*
X95437819Y-74047619D01*
X95437819Y-74047619D02*
X95390200Y-74000000D01*
X95390200Y-74000000D02*
X95342580Y-73904762D01*
X95342580Y-73904762D02*
X95342580Y-73809524D01*
X95342580Y-73809524D02*
X95390200Y-73714286D01*
X95390200Y-73714286D02*
X95437819Y-73666667D01*
X95437819Y-73666667D02*
X95533057Y-73619048D01*
X95533057Y-73619048D02*
X95723533Y-73571429D01*
X95723533Y-73571429D02*
X95961628Y-73571429D01*
X95961628Y-73571429D02*
X96152104Y-73619048D01*
X96152104Y-73619048D02*
X96247342Y-73666667D01*
X96247342Y-73666667D02*
X96294961Y-73714286D01*
X96294961Y-73714286D02*
X96342580Y-73809524D01*
X95542580Y-55766666D02*
X94828295Y-55766666D01*
X94828295Y-55766666D02*
X94685438Y-55719047D01*
X94685438Y-55719047D02*
X94590200Y-55623809D01*
X94590200Y-55623809D02*
X94542580Y-55480952D01*
X94542580Y-55480952D02*
X94542580Y-55385714D01*
X94542580Y-56290476D02*
X94542580Y-56480952D01*
X94542580Y-56480952D02*
X94590200Y-56576190D01*
X94590200Y-56576190D02*
X94637819Y-56623809D01*
X94637819Y-56623809D02*
X94780676Y-56719047D01*
X94780676Y-56719047D02*
X94971152Y-56766666D01*
X94971152Y-56766666D02*
X95352104Y-56766666D01*
X95352104Y-56766666D02*
X95447342Y-56719047D01*
X95447342Y-56719047D02*
X95494961Y-56671428D01*
X95494961Y-56671428D02*
X95542580Y-56576190D01*
X95542580Y-56576190D02*
X95542580Y-56385714D01*
X95542580Y-56385714D02*
X95494961Y-56290476D01*
X95494961Y-56290476D02*
X95447342Y-56242857D01*
X95447342Y-56242857D02*
X95352104Y-56195238D01*
X95352104Y-56195238D02*
X95114009Y-56195238D01*
X95114009Y-56195238D02*
X95018771Y-56242857D01*
X95018771Y-56242857D02*
X94971152Y-56290476D01*
X94971152Y-56290476D02*
X94923533Y-56385714D01*
X94923533Y-56385714D02*
X94923533Y-56576190D01*
X94923533Y-56576190D02*
X94971152Y-56671428D01*
X94971152Y-56671428D02*
X95018771Y-56719047D01*
X95018771Y-56719047D02*
X95114009Y-56766666D01*
X93242580Y-107786666D02*
X92528295Y-107786666D01*
X92528295Y-107786666D02*
X92385438Y-107739047D01*
X92385438Y-107739047D02*
X92290200Y-107643809D01*
X92290200Y-107643809D02*
X92242580Y-107500952D01*
X92242580Y-107500952D02*
X92242580Y-107405714D01*
X92814009Y-108405714D02*
X92861628Y-108310476D01*
X92861628Y-108310476D02*
X92909247Y-108262857D01*
X92909247Y-108262857D02*
X93004485Y-108215238D01*
X93004485Y-108215238D02*
X93052104Y-108215238D01*
X93052104Y-108215238D02*
X93147342Y-108262857D01*
X93147342Y-108262857D02*
X93194961Y-108310476D01*
X93194961Y-108310476D02*
X93242580Y-108405714D01*
X93242580Y-108405714D02*
X93242580Y-108596190D01*
X93242580Y-108596190D02*
X93194961Y-108691428D01*
X93194961Y-108691428D02*
X93147342Y-108739047D01*
X93147342Y-108739047D02*
X93052104Y-108786666D01*
X93052104Y-108786666D02*
X93004485Y-108786666D01*
X93004485Y-108786666D02*
X92909247Y-108739047D01*
X92909247Y-108739047D02*
X92861628Y-108691428D01*
X92861628Y-108691428D02*
X92814009Y-108596190D01*
X92814009Y-108596190D02*
X92814009Y-108405714D01*
X92814009Y-108405714D02*
X92766390Y-108310476D01*
X92766390Y-108310476D02*
X92718771Y-108262857D01*
X92718771Y-108262857D02*
X92623533Y-108215238D01*
X92623533Y-108215238D02*
X92433057Y-108215238D01*
X92433057Y-108215238D02*
X92337819Y-108262857D01*
X92337819Y-108262857D02*
X92290200Y-108310476D01*
X92290200Y-108310476D02*
X92242580Y-108405714D01*
X92242580Y-108405714D02*
X92242580Y-108596190D01*
X92242580Y-108596190D02*
X92290200Y-108691428D01*
X92290200Y-108691428D02*
X92337819Y-108739047D01*
X92337819Y-108739047D02*
X92433057Y-108786666D01*
X92433057Y-108786666D02*
X92623533Y-108786666D01*
X92623533Y-108786666D02*
X92718771Y-108739047D01*
X92718771Y-108739047D02*
X92766390Y-108691428D01*
X92766390Y-108691428D02*
X92814009Y-108596190D01*
X82142580Y-90666666D02*
X81428295Y-90666666D01*
X81428295Y-90666666D02*
X81285438Y-90619047D01*
X81285438Y-90619047D02*
X81190200Y-90523809D01*
X81190200Y-90523809D02*
X81142580Y-90380952D01*
X81142580Y-90380952D02*
X81142580Y-90285714D01*
X82142580Y-91047619D02*
X82142580Y-91714285D01*
X82142580Y-91714285D02*
X81142580Y-91285714D01*
X82742580Y-72666666D02*
X82028295Y-72666666D01*
X82028295Y-72666666D02*
X81885438Y-72619047D01*
X81885438Y-72619047D02*
X81790200Y-72523809D01*
X81790200Y-72523809D02*
X81742580Y-72380952D01*
X81742580Y-72380952D02*
X81742580Y-72285714D01*
X82742580Y-73571428D02*
X82742580Y-73380952D01*
X82742580Y-73380952D02*
X82694961Y-73285714D01*
X82694961Y-73285714D02*
X82647342Y-73238095D01*
X82647342Y-73238095D02*
X82504485Y-73142857D01*
X82504485Y-73142857D02*
X82314009Y-73095238D01*
X82314009Y-73095238D02*
X81933057Y-73095238D01*
X81933057Y-73095238D02*
X81837819Y-73142857D01*
X81837819Y-73142857D02*
X81790200Y-73190476D01*
X81790200Y-73190476D02*
X81742580Y-73285714D01*
X81742580Y-73285714D02*
X81742580Y-73476190D01*
X81742580Y-73476190D02*
X81790200Y-73571428D01*
X81790200Y-73571428D02*
X81837819Y-73619047D01*
X81837819Y-73619047D02*
X81933057Y-73666666D01*
X81933057Y-73666666D02*
X82171152Y-73666666D01*
X82171152Y-73666666D02*
X82266390Y-73619047D01*
X82266390Y-73619047D02*
X82314009Y-73571428D01*
X82314009Y-73571428D02*
X82361628Y-73476190D01*
X82361628Y-73476190D02*
X82361628Y-73285714D01*
X82361628Y-73285714D02*
X82314009Y-73190476D01*
X82314009Y-73190476D02*
X82266390Y-73142857D01*
X82266390Y-73142857D02*
X82171152Y-73095238D01*
X82542580Y-55766666D02*
X81828295Y-55766666D01*
X81828295Y-55766666D02*
X81685438Y-55719047D01*
X81685438Y-55719047D02*
X81590200Y-55623809D01*
X81590200Y-55623809D02*
X81542580Y-55480952D01*
X81542580Y-55480952D02*
X81542580Y-55385714D01*
X82542580Y-56719047D02*
X82542580Y-56242857D01*
X82542580Y-56242857D02*
X82066390Y-56195238D01*
X82066390Y-56195238D02*
X82114009Y-56242857D01*
X82114009Y-56242857D02*
X82161628Y-56338095D01*
X82161628Y-56338095D02*
X82161628Y-56576190D01*
X82161628Y-56576190D02*
X82114009Y-56671428D01*
X82114009Y-56671428D02*
X82066390Y-56719047D01*
X82066390Y-56719047D02*
X81971152Y-56766666D01*
X81971152Y-56766666D02*
X81733057Y-56766666D01*
X81733057Y-56766666D02*
X81637819Y-56719047D01*
X81637819Y-56719047D02*
X81590200Y-56671428D01*
X81590200Y-56671428D02*
X81542580Y-56576190D01*
X81542580Y-56576190D02*
X81542580Y-56338095D01*
X81542580Y-56338095D02*
X81590200Y-56242857D01*
X81590200Y-56242857D02*
X81637819Y-56195238D01*
X70242580Y-55566666D02*
X69528295Y-55566666D01*
X69528295Y-55566666D02*
X69385438Y-55519047D01*
X69385438Y-55519047D02*
X69290200Y-55423809D01*
X69290200Y-55423809D02*
X69242580Y-55280952D01*
X69242580Y-55280952D02*
X69242580Y-55185714D01*
X69909247Y-56471428D02*
X69242580Y-56471428D01*
X70290200Y-56233333D02*
X69575914Y-55995238D01*
X69575914Y-55995238D02*
X69575914Y-56614285D01*
X70142580Y-72666666D02*
X69428295Y-72666666D01*
X69428295Y-72666666D02*
X69285438Y-72619047D01*
X69285438Y-72619047D02*
X69190200Y-72523809D01*
X69190200Y-72523809D02*
X69142580Y-72380952D01*
X69142580Y-72380952D02*
X69142580Y-72285714D01*
X70142580Y-73047619D02*
X70142580Y-73666666D01*
X70142580Y-73666666D02*
X69761628Y-73333333D01*
X69761628Y-73333333D02*
X69761628Y-73476190D01*
X69761628Y-73476190D02*
X69714009Y-73571428D01*
X69714009Y-73571428D02*
X69666390Y-73619047D01*
X69666390Y-73619047D02*
X69571152Y-73666666D01*
X69571152Y-73666666D02*
X69333057Y-73666666D01*
X69333057Y-73666666D02*
X69237819Y-73619047D01*
X69237819Y-73619047D02*
X69190200Y-73571428D01*
X69190200Y-73571428D02*
X69142580Y-73476190D01*
X69142580Y-73476190D02*
X69142580Y-73190476D01*
X69142580Y-73190476D02*
X69190200Y-73095238D01*
X69190200Y-73095238D02*
X69237819Y-73047619D01*
X69542580Y-90466666D02*
X68828295Y-90466666D01*
X68828295Y-90466666D02*
X68685438Y-90419047D01*
X68685438Y-90419047D02*
X68590200Y-90323809D01*
X68590200Y-90323809D02*
X68542580Y-90180952D01*
X68542580Y-90180952D02*
X68542580Y-90085714D01*
X69447342Y-90895238D02*
X69494961Y-90942857D01*
X69494961Y-90942857D02*
X69542580Y-91038095D01*
X69542580Y-91038095D02*
X69542580Y-91276190D01*
X69542580Y-91276190D02*
X69494961Y-91371428D01*
X69494961Y-91371428D02*
X69447342Y-91419047D01*
X69447342Y-91419047D02*
X69352104Y-91466666D01*
X69352104Y-91466666D02*
X69256866Y-91466666D01*
X69256866Y-91466666D02*
X69114009Y-91419047D01*
X69114009Y-91419047D02*
X68542580Y-90847619D01*
X68542580Y-90847619D02*
X68542580Y-91466666D01*
D11*
X77533334Y-122754818D02*
X77200001Y-122278627D01*
X76961906Y-122754818D02*
X76961906Y-121754818D01*
X76961906Y-121754818D02*
X77342858Y-121754818D01*
X77342858Y-121754818D02*
X77438096Y-121802437D01*
X77438096Y-121802437D02*
X77485715Y-121850056D01*
X77485715Y-121850056D02*
X77533334Y-121945294D01*
X77533334Y-121945294D02*
X77533334Y-122088151D01*
X77533334Y-122088151D02*
X77485715Y-122183389D01*
X77485715Y-122183389D02*
X77438096Y-122231008D01*
X77438096Y-122231008D02*
X77342858Y-122278627D01*
X77342858Y-122278627D02*
X76961906Y-122278627D01*
X78390477Y-121754818D02*
X78200001Y-121754818D01*
X78200001Y-121754818D02*
X78104763Y-121802437D01*
X78104763Y-121802437D02*
X78057144Y-121850056D01*
X78057144Y-121850056D02*
X77961906Y-121992913D01*
X77961906Y-121992913D02*
X77914287Y-122183389D01*
X77914287Y-122183389D02*
X77914287Y-122564341D01*
X77914287Y-122564341D02*
X77961906Y-122659579D01*
X77961906Y-122659579D02*
X78009525Y-122707199D01*
X78009525Y-122707199D02*
X78104763Y-122754818D01*
X78104763Y-122754818D02*
X78295239Y-122754818D01*
X78295239Y-122754818D02*
X78390477Y-122707199D01*
X78390477Y-122707199D02*
X78438096Y-122659579D01*
X78438096Y-122659579D02*
X78485715Y-122564341D01*
X78485715Y-122564341D02*
X78485715Y-122326246D01*
X78485715Y-122326246D02*
X78438096Y-122231008D01*
X78438096Y-122231008D02*
X78390477Y-122183389D01*
X78390477Y-122183389D02*
X78295239Y-122135770D01*
X78295239Y-122135770D02*
X78104763Y-122135770D01*
X78104763Y-122135770D02*
X78009525Y-122183389D01*
X78009525Y-122183389D02*
X77961906Y-122231008D01*
X77961906Y-122231008D02*
X77914287Y-122326246D01*
X71433334Y-122854818D02*
X71100001Y-122378627D01*
X70861906Y-122854818D02*
X70861906Y-121854818D01*
X70861906Y-121854818D02*
X71242858Y-121854818D01*
X71242858Y-121854818D02*
X71338096Y-121902437D01*
X71338096Y-121902437D02*
X71385715Y-121950056D01*
X71385715Y-121950056D02*
X71433334Y-122045294D01*
X71433334Y-122045294D02*
X71433334Y-122188151D01*
X71433334Y-122188151D02*
X71385715Y-122283389D01*
X71385715Y-122283389D02*
X71338096Y-122331008D01*
X71338096Y-122331008D02*
X71242858Y-122378627D01*
X71242858Y-122378627D02*
X70861906Y-122378627D01*
X72338096Y-121854818D02*
X71861906Y-121854818D01*
X71861906Y-121854818D02*
X71814287Y-122331008D01*
X71814287Y-122331008D02*
X71861906Y-122283389D01*
X71861906Y-122283389D02*
X71957144Y-122235770D01*
X71957144Y-122235770D02*
X72195239Y-122235770D01*
X72195239Y-122235770D02*
X72290477Y-122283389D01*
X72290477Y-122283389D02*
X72338096Y-122331008D01*
X72338096Y-122331008D02*
X72385715Y-122426246D01*
X72385715Y-122426246D02*
X72385715Y-122664341D01*
X72385715Y-122664341D02*
X72338096Y-122759579D01*
X72338096Y-122759579D02*
X72290477Y-122807199D01*
X72290477Y-122807199D02*
X72195239Y-122854818D01*
X72195239Y-122854818D02*
X71957144Y-122854818D01*
X71957144Y-122854818D02*
X71861906Y-122807199D01*
X71861906Y-122807199D02*
X71814287Y-122759579D01*
X74533334Y-122854818D02*
X74200001Y-122378627D01*
X73961906Y-122854818D02*
X73961906Y-121854818D01*
X73961906Y-121854818D02*
X74342858Y-121854818D01*
X74342858Y-121854818D02*
X74438096Y-121902437D01*
X74438096Y-121902437D02*
X74485715Y-121950056D01*
X74485715Y-121950056D02*
X74533334Y-122045294D01*
X74533334Y-122045294D02*
X74533334Y-122188151D01*
X74533334Y-122188151D02*
X74485715Y-122283389D01*
X74485715Y-122283389D02*
X74438096Y-122331008D01*
X74438096Y-122331008D02*
X74342858Y-122378627D01*
X74342858Y-122378627D02*
X73961906Y-122378627D01*
X75390477Y-122188151D02*
X75390477Y-122854818D01*
X75152382Y-121807199D02*
X74914287Y-122521484D01*
X74914287Y-122521484D02*
X75533334Y-122521484D01*
D10*
X80642580Y-107786666D02*
X79928295Y-107786666D01*
X79928295Y-107786666D02*
X79785438Y-107739047D01*
X79785438Y-107739047D02*
X79690200Y-107643809D01*
X79690200Y-107643809D02*
X79642580Y-107500952D01*
X79642580Y-107500952D02*
X79642580Y-107405714D01*
X79642580Y-108786666D02*
X79642580Y-108215238D01*
X79642580Y-108500952D02*
X80642580Y-108500952D01*
X80642580Y-108500952D02*
X80499723Y-108405714D01*
X80499723Y-108405714D02*
X80404485Y-108310476D01*
X80404485Y-108310476D02*
X80356866Y-108215238D01*
D11*
X99838095Y-107654819D02*
X99838095Y-108464342D01*
X99838095Y-108464342D02*
X99885714Y-108559580D01*
X99885714Y-108559580D02*
X99933333Y-108607200D01*
X99933333Y-108607200D02*
X100028571Y-108654819D01*
X100028571Y-108654819D02*
X100219047Y-108654819D01*
X100219047Y-108654819D02*
X100314285Y-108607200D01*
X100314285Y-108607200D02*
X100361904Y-108559580D01*
X100361904Y-108559580D02*
X100409523Y-108464342D01*
X100409523Y-108464342D02*
X100409523Y-107654819D01*
X100838095Y-107750057D02*
X100885714Y-107702438D01*
X100885714Y-107702438D02*
X100980952Y-107654819D01*
X100980952Y-107654819D02*
X101219047Y-107654819D01*
X101219047Y-107654819D02*
X101314285Y-107702438D01*
X101314285Y-107702438D02*
X101361904Y-107750057D01*
X101361904Y-107750057D02*
X101409523Y-107845295D01*
X101409523Y-107845295D02*
X101409523Y-107940533D01*
X101409523Y-107940533D02*
X101361904Y-108083390D01*
X101361904Y-108083390D02*
X100790476Y-108654819D01*
X100790476Y-108654819D02*
X101409523Y-108654819D01*
X94361905Y-162354819D02*
X94361905Y-161354819D01*
X94361905Y-161354819D02*
X94600000Y-161354819D01*
X94600000Y-161354819D02*
X94742857Y-161402438D01*
X94742857Y-161402438D02*
X94838095Y-161497676D01*
X94838095Y-161497676D02*
X94885714Y-161592914D01*
X94885714Y-161592914D02*
X94933333Y-161783390D01*
X94933333Y-161783390D02*
X94933333Y-161926247D01*
X94933333Y-161926247D02*
X94885714Y-162116723D01*
X94885714Y-162116723D02*
X94838095Y-162211961D01*
X94838095Y-162211961D02*
X94742857Y-162307200D01*
X94742857Y-162307200D02*
X94600000Y-162354819D01*
X94600000Y-162354819D02*
X94361905Y-162354819D01*
X95790476Y-161688152D02*
X95790476Y-162354819D01*
X95552381Y-161307200D02*
X95314286Y-162021485D01*
X95314286Y-162021485D02*
X95933333Y-162021485D01*
X89908095Y-157739819D02*
X89908095Y-156739819D01*
X90479523Y-157739819D02*
X90050952Y-157168390D01*
X90479523Y-156739819D02*
X89908095Y-157311247D01*
X75534819Y-146788094D02*
X74534819Y-146788094D01*
X74534819Y-146788094D02*
X74534819Y-146549999D01*
X74534819Y-146549999D02*
X74582438Y-146407142D01*
X74582438Y-146407142D02*
X74677676Y-146311904D01*
X74677676Y-146311904D02*
X74772914Y-146264285D01*
X74772914Y-146264285D02*
X74963390Y-146216666D01*
X74963390Y-146216666D02*
X75106247Y-146216666D01*
X75106247Y-146216666D02*
X75296723Y-146264285D01*
X75296723Y-146264285D02*
X75391961Y-146311904D01*
X75391961Y-146311904D02*
X75487200Y-146407142D01*
X75487200Y-146407142D02*
X75534819Y-146549999D01*
X75534819Y-146549999D02*
X75534819Y-146788094D01*
X75534819Y-145264285D02*
X75534819Y-145835713D01*
X75534819Y-145549999D02*
X74534819Y-145549999D01*
X74534819Y-145549999D02*
X74677676Y-145645237D01*
X74677676Y-145645237D02*
X74772914Y-145740475D01*
X74772914Y-145740475D02*
X74820533Y-145835713D01*
X75234819Y-159498094D02*
X74234819Y-159498094D01*
X74234819Y-159498094D02*
X74234819Y-159259999D01*
X74234819Y-159259999D02*
X74282438Y-159117142D01*
X74282438Y-159117142D02*
X74377676Y-159021904D01*
X74377676Y-159021904D02*
X74472914Y-158974285D01*
X74472914Y-158974285D02*
X74663390Y-158926666D01*
X74663390Y-158926666D02*
X74806247Y-158926666D01*
X74806247Y-158926666D02*
X74996723Y-158974285D01*
X74996723Y-158974285D02*
X75091961Y-159021904D01*
X75091961Y-159021904D02*
X75187200Y-159117142D01*
X75187200Y-159117142D02*
X75234819Y-159259999D01*
X75234819Y-159259999D02*
X75234819Y-159498094D01*
X74234819Y-158593332D02*
X74234819Y-157974285D01*
X74234819Y-157974285D02*
X74615771Y-158307618D01*
X74615771Y-158307618D02*
X74615771Y-158164761D01*
X74615771Y-158164761D02*
X74663390Y-158069523D01*
X74663390Y-158069523D02*
X74711009Y-158021904D01*
X74711009Y-158021904D02*
X74806247Y-157974285D01*
X74806247Y-157974285D02*
X75044342Y-157974285D01*
X75044342Y-157974285D02*
X75139580Y-158021904D01*
X75139580Y-158021904D02*
X75187200Y-158069523D01*
X75187200Y-158069523D02*
X75234819Y-158164761D01*
X75234819Y-158164761D02*
X75234819Y-158450475D01*
X75234819Y-158450475D02*
X75187200Y-158545713D01*
X75187200Y-158545713D02*
X75139580Y-158593332D01*
X75534819Y-154408094D02*
X74534819Y-154408094D01*
X74534819Y-154408094D02*
X74534819Y-154169999D01*
X74534819Y-154169999D02*
X74582438Y-154027142D01*
X74582438Y-154027142D02*
X74677676Y-153931904D01*
X74677676Y-153931904D02*
X74772914Y-153884285D01*
X74772914Y-153884285D02*
X74963390Y-153836666D01*
X74963390Y-153836666D02*
X75106247Y-153836666D01*
X75106247Y-153836666D02*
X75296723Y-153884285D01*
X75296723Y-153884285D02*
X75391961Y-153931904D01*
X75391961Y-153931904D02*
X75487200Y-154027142D01*
X75487200Y-154027142D02*
X75534819Y-154169999D01*
X75534819Y-154169999D02*
X75534819Y-154408094D01*
X74630057Y-153455713D02*
X74582438Y-153408094D01*
X74582438Y-153408094D02*
X74534819Y-153312856D01*
X74534819Y-153312856D02*
X74534819Y-153074761D01*
X74534819Y-153074761D02*
X74582438Y-152979523D01*
X74582438Y-152979523D02*
X74630057Y-152931904D01*
X74630057Y-152931904D02*
X74725295Y-152884285D01*
X74725295Y-152884285D02*
X74820533Y-152884285D01*
X74820533Y-152884285D02*
X74963390Y-152931904D01*
X74963390Y-152931904D02*
X75534819Y-153503332D01*
X75534819Y-153503332D02*
X75534819Y-152884285D01*
D10*
X85598095Y-142967419D02*
X85598095Y-143776942D01*
X85598095Y-143776942D02*
X85645714Y-143872180D01*
X85645714Y-143872180D02*
X85693333Y-143919800D01*
X85693333Y-143919800D02*
X85788571Y-143967419D01*
X85788571Y-143967419D02*
X85979047Y-143967419D01*
X85979047Y-143967419D02*
X86074285Y-143919800D01*
X86074285Y-143919800D02*
X86121904Y-143872180D01*
X86121904Y-143872180D02*
X86169523Y-143776942D01*
X86169523Y-143776942D02*
X86169523Y-142967419D01*
X86550476Y-142967419D02*
X87169523Y-142967419D01*
X87169523Y-142967419D02*
X86836190Y-143348371D01*
X86836190Y-143348371D02*
X86979047Y-143348371D01*
X86979047Y-143348371D02*
X87074285Y-143395990D01*
X87074285Y-143395990D02*
X87121904Y-143443609D01*
X87121904Y-143443609D02*
X87169523Y-143538847D01*
X87169523Y-143538847D02*
X87169523Y-143776942D01*
X87169523Y-143776942D02*
X87121904Y-143872180D01*
X87121904Y-143872180D02*
X87074285Y-143919800D01*
X87074285Y-143919800D02*
X86979047Y-143967419D01*
X86979047Y-143967419D02*
X86693333Y-143967419D01*
X86693333Y-143967419D02*
X86598095Y-143919800D01*
X86598095Y-143919800D02*
X86550476Y-143872180D01*
X80171027Y-145557419D02*
X80504360Y-146557419D01*
X80504360Y-146557419D02*
X80837693Y-145557419D01*
X81742455Y-146462180D02*
X81694836Y-146509800D01*
X81694836Y-146509800D02*
X81551979Y-146557419D01*
X81551979Y-146557419D02*
X81456741Y-146557419D01*
X81456741Y-146557419D02*
X81313884Y-146509800D01*
X81313884Y-146509800D02*
X81218646Y-146414561D01*
X81218646Y-146414561D02*
X81171027Y-146319323D01*
X81171027Y-146319323D02*
X81123408Y-146128847D01*
X81123408Y-146128847D02*
X81123408Y-145985990D01*
X81123408Y-145985990D02*
X81171027Y-145795514D01*
X81171027Y-145795514D02*
X81218646Y-145700276D01*
X81218646Y-145700276D02*
X81313884Y-145605038D01*
X81313884Y-145605038D02*
X81456741Y-145557419D01*
X81456741Y-145557419D02*
X81551979Y-145557419D01*
X81551979Y-145557419D02*
X81694836Y-145605038D01*
X81694836Y-145605038D02*
X81742455Y-145652657D01*
X82742455Y-146462180D02*
X82694836Y-146509800D01*
X82694836Y-146509800D02*
X82551979Y-146557419D01*
X82551979Y-146557419D02*
X82456741Y-146557419D01*
X82456741Y-146557419D02*
X82313884Y-146509800D01*
X82313884Y-146509800D02*
X82218646Y-146414561D01*
X82218646Y-146414561D02*
X82171027Y-146319323D01*
X82171027Y-146319323D02*
X82123408Y-146128847D01*
X82123408Y-146128847D02*
X82123408Y-145985990D01*
X82123408Y-145985990D02*
X82171027Y-145795514D01*
X82171027Y-145795514D02*
X82218646Y-145700276D01*
X82218646Y-145700276D02*
X82313884Y-145605038D01*
X82313884Y-145605038D02*
X82456741Y-145557419D01*
X82456741Y-145557419D02*
X82551979Y-145557419D01*
X82551979Y-145557419D02*
X82694836Y-145605038D01*
X82694836Y-145605038D02*
X82742455Y-145652657D01*
X80171027Y-153177419D02*
X80742455Y-153177419D01*
X80456741Y-154177419D02*
X80456741Y-153177419D01*
X80980551Y-153177419D02*
X81647217Y-154177419D01*
X81647217Y-153177419D02*
X80980551Y-154177419D01*
X82028170Y-154177419D02*
X82028170Y-153177419D01*
X82028170Y-153177419D02*
X82266265Y-153177419D01*
X82266265Y-153177419D02*
X82409122Y-153225038D01*
X82409122Y-153225038D02*
X82504360Y-153320276D01*
X82504360Y-153320276D02*
X82551979Y-153415514D01*
X82551979Y-153415514D02*
X82599598Y-153605990D01*
X82599598Y-153605990D02*
X82599598Y-153748847D01*
X82599598Y-153748847D02*
X82551979Y-153939323D01*
X82551979Y-153939323D02*
X82504360Y-154034561D01*
X82504360Y-154034561D02*
X82409122Y-154129800D01*
X82409122Y-154129800D02*
X82266265Y-154177419D01*
X82266265Y-154177419D02*
X82028170Y-154177419D01*
X80837693Y-148145038D02*
X80742455Y-148097419D01*
X80742455Y-148097419D02*
X80599598Y-148097419D01*
X80599598Y-148097419D02*
X80456741Y-148145038D01*
X80456741Y-148145038D02*
X80361503Y-148240276D01*
X80361503Y-148240276D02*
X80313884Y-148335514D01*
X80313884Y-148335514D02*
X80266265Y-148525990D01*
X80266265Y-148525990D02*
X80266265Y-148668847D01*
X80266265Y-148668847D02*
X80313884Y-148859323D01*
X80313884Y-148859323D02*
X80361503Y-148954561D01*
X80361503Y-148954561D02*
X80456741Y-149049800D01*
X80456741Y-149049800D02*
X80599598Y-149097419D01*
X80599598Y-149097419D02*
X80694836Y-149097419D01*
X80694836Y-149097419D02*
X80837693Y-149049800D01*
X80837693Y-149049800D02*
X80885312Y-149002180D01*
X80885312Y-149002180D02*
X80885312Y-148668847D01*
X80885312Y-148668847D02*
X80694836Y-148668847D01*
X81313884Y-149097419D02*
X81313884Y-148097419D01*
X81313884Y-148097419D02*
X81885312Y-149097419D01*
X81885312Y-149097419D02*
X81885312Y-148097419D01*
X82361503Y-149097419D02*
X82361503Y-148097419D01*
X82361503Y-148097419D02*
X82599598Y-148097419D01*
X82599598Y-148097419D02*
X82742455Y-148145038D01*
X82742455Y-148145038D02*
X82837693Y-148240276D01*
X82837693Y-148240276D02*
X82885312Y-148335514D01*
X82885312Y-148335514D02*
X82932931Y-148525990D01*
X82932931Y-148525990D02*
X82932931Y-148668847D01*
X82932931Y-148668847D02*
X82885312Y-148859323D01*
X82885312Y-148859323D02*
X82837693Y-148954561D01*
X82837693Y-148954561D02*
X82742455Y-149049800D01*
X82742455Y-149049800D02*
X82599598Y-149097419D01*
X82599598Y-149097419D02*
X82361503Y-149097419D01*
X80266265Y-156034800D02*
X80409122Y-156082419D01*
X80409122Y-156082419D02*
X80647217Y-156082419D01*
X80647217Y-156082419D02*
X80742455Y-156034800D01*
X80742455Y-156034800D02*
X80790074Y-155987180D01*
X80790074Y-155987180D02*
X80837693Y-155891942D01*
X80837693Y-155891942D02*
X80837693Y-155796704D01*
X80837693Y-155796704D02*
X80790074Y-155701466D01*
X80790074Y-155701466D02*
X80742455Y-155653847D01*
X80742455Y-155653847D02*
X80647217Y-155606228D01*
X80647217Y-155606228D02*
X80456741Y-155558609D01*
X80456741Y-155558609D02*
X80361503Y-155510990D01*
X80361503Y-155510990D02*
X80313884Y-155463371D01*
X80313884Y-155463371D02*
X80266265Y-155368133D01*
X80266265Y-155368133D02*
X80266265Y-155272895D01*
X80266265Y-155272895D02*
X80313884Y-155177657D01*
X80313884Y-155177657D02*
X80361503Y-155130038D01*
X80361503Y-155130038D02*
X80456741Y-155082419D01*
X80456741Y-155082419D02*
X80694836Y-155082419D01*
X80694836Y-155082419D02*
X80837693Y-155130038D01*
X81266265Y-155558609D02*
X81599598Y-155558609D01*
X81742455Y-156082419D02*
X81266265Y-156082419D01*
X81266265Y-156082419D02*
X81266265Y-155082419D01*
X81266265Y-155082419D02*
X81742455Y-155082419D01*
X82028170Y-155082419D02*
X82599598Y-155082419D01*
X82313884Y-156082419D02*
X82313884Y-155082419D01*
X80885312Y-151637419D02*
X80551979Y-151161228D01*
X80313884Y-151637419D02*
X80313884Y-150637419D01*
X80313884Y-150637419D02*
X80694836Y-150637419D01*
X80694836Y-150637419D02*
X80790074Y-150685038D01*
X80790074Y-150685038D02*
X80837693Y-150732657D01*
X80837693Y-150732657D02*
X80885312Y-150827895D01*
X80885312Y-150827895D02*
X80885312Y-150970752D01*
X80885312Y-150970752D02*
X80837693Y-151065990D01*
X80837693Y-151065990D02*
X80790074Y-151113609D01*
X80790074Y-151113609D02*
X80694836Y-151161228D01*
X80694836Y-151161228D02*
X80313884Y-151161228D01*
X81218646Y-150637419D02*
X81885312Y-151637419D01*
X81885312Y-150637419D02*
X81218646Y-151637419D01*
X82266265Y-151637419D02*
X82266265Y-150637419D01*
X82266265Y-150637419D02*
X82504360Y-150637419D01*
X82504360Y-150637419D02*
X82647217Y-150685038D01*
X82647217Y-150685038D02*
X82742455Y-150780276D01*
X82742455Y-150780276D02*
X82790074Y-150875514D01*
X82790074Y-150875514D02*
X82837693Y-151065990D01*
X82837693Y-151065990D02*
X82837693Y-151208847D01*
X82837693Y-151208847D02*
X82790074Y-151399323D01*
X82790074Y-151399323D02*
X82742455Y-151494561D01*
X82742455Y-151494561D02*
X82647217Y-151589800D01*
X82647217Y-151589800D02*
X82504360Y-151637419D01*
X82504360Y-151637419D02*
X82266265Y-151637419D01*
D11*
X118127200Y-152143332D02*
X118174819Y-152000475D01*
X118174819Y-152000475D02*
X118174819Y-151762380D01*
X118174819Y-151762380D02*
X118127200Y-151667142D01*
X118127200Y-151667142D02*
X118079580Y-151619523D01*
X118079580Y-151619523D02*
X117984342Y-151571904D01*
X117984342Y-151571904D02*
X117889104Y-151571904D01*
X117889104Y-151571904D02*
X117793866Y-151619523D01*
X117793866Y-151619523D02*
X117746247Y-151667142D01*
X117746247Y-151667142D02*
X117698628Y-151762380D01*
X117698628Y-151762380D02*
X117651009Y-151952856D01*
X117651009Y-151952856D02*
X117603390Y-152048094D01*
X117603390Y-152048094D02*
X117555771Y-152095713D01*
X117555771Y-152095713D02*
X117460533Y-152143332D01*
X117460533Y-152143332D02*
X117365295Y-152143332D01*
X117365295Y-152143332D02*
X117270057Y-152095713D01*
X117270057Y-152095713D02*
X117222438Y-152048094D01*
X117222438Y-152048094D02*
X117174819Y-151952856D01*
X117174819Y-151952856D02*
X117174819Y-151714761D01*
X117174819Y-151714761D02*
X117222438Y-151571904D01*
X117174819Y-151238570D02*
X118174819Y-151000475D01*
X118174819Y-151000475D02*
X117460533Y-150809999D01*
X117460533Y-150809999D02*
X118174819Y-150619523D01*
X118174819Y-150619523D02*
X117174819Y-150381428D01*
X118174819Y-149476666D02*
X118174819Y-150048094D01*
X118174819Y-149762380D02*
X117174819Y-149762380D01*
X117174819Y-149762380D02*
X117317676Y-149857618D01*
X117317676Y-149857618D02*
X117412914Y-149952856D01*
X117412914Y-149952856D02*
X117460533Y-150048094D01*
D12*
X104100000Y-76740000D02*
X104100000Y-77510000D01*
X105470000Y-77510000D02*
X102730000Y-77510000D01*
X102730000Y-77510000D02*
X102730000Y-84050000D01*
X105470000Y-84050000D02*
X105470000Y-77510000D01*
X102730000Y-84050000D02*
X105470000Y-84050000D01*
X104100000Y-84820000D02*
X104100000Y-84050000D01*
X98100000Y-76740000D02*
X98100000Y-77510000D01*
X99470000Y-77510000D02*
X96730000Y-77510000D01*
X96730000Y-77510000D02*
X96730000Y-84050000D01*
X99470000Y-84050000D02*
X99470000Y-77510000D01*
X96730000Y-84050000D02*
X99470000Y-84050000D01*
X98100000Y-84820000D02*
X98100000Y-84050000D01*
X101100000Y-76740000D02*
X101100000Y-77510000D01*
X102470000Y-77510000D02*
X99730000Y-77510000D01*
X99730000Y-77510000D02*
X99730000Y-84050000D01*
X102470000Y-84050000D02*
X102470000Y-77510000D01*
X99730000Y-84050000D02*
X102470000Y-84050000D01*
X101100000Y-84820000D02*
X101100000Y-84050000D01*
X103500000Y-59840000D02*
X103500000Y-60610000D01*
X104870000Y-60610000D02*
X102130000Y-60610000D01*
X102130000Y-60610000D02*
X102130000Y-67150000D01*
X104870000Y-67150000D02*
X104870000Y-60610000D01*
X102130000Y-67150000D02*
X104870000Y-67150000D01*
X103500000Y-67920000D02*
X103500000Y-67150000D01*
X97500000Y-59860000D02*
X97500000Y-60630000D01*
X98870000Y-60630000D02*
X96130000Y-60630000D01*
X96130000Y-60630000D02*
X96130000Y-67170000D01*
X98870000Y-67170000D02*
X98870000Y-60630000D01*
X96130000Y-67170000D02*
X98870000Y-67170000D01*
X97500000Y-67940000D02*
X97500000Y-67170000D01*
X100500000Y-59840000D02*
X100500000Y-60610000D01*
X101870000Y-60610000D02*
X99130000Y-60610000D01*
X99130000Y-60610000D02*
X99130000Y-67150000D01*
X101870000Y-67150000D02*
X101870000Y-60610000D01*
X99130000Y-67150000D02*
X101870000Y-67150000D01*
X100500000Y-67920000D02*
X100500000Y-67150000D01*
X90200000Y-111360000D02*
X90200000Y-112130000D01*
X91570000Y-112130000D02*
X88830000Y-112130000D01*
X88830000Y-112130000D02*
X88830000Y-118670000D01*
X91570000Y-118670000D02*
X91570000Y-112130000D01*
X88830000Y-118670000D02*
X91570000Y-118670000D01*
X90200000Y-119440000D02*
X90200000Y-118670000D01*
X84200000Y-111360000D02*
X84200000Y-112130000D01*
X85570000Y-112130000D02*
X82830000Y-112130000D01*
X82830000Y-112130000D02*
X82830000Y-118670000D01*
X85570000Y-118670000D02*
X85570000Y-112130000D01*
X82830000Y-118670000D02*
X85570000Y-118670000D01*
X84200000Y-119440000D02*
X84200000Y-118670000D01*
X87200000Y-111360000D02*
X87200000Y-112130000D01*
X88570000Y-112130000D02*
X85830000Y-112130000D01*
X85830000Y-112130000D02*
X85830000Y-118670000D01*
X88570000Y-118670000D02*
X88570000Y-112130000D01*
X85830000Y-118670000D02*
X88570000Y-118670000D01*
X87200000Y-119440000D02*
X87200000Y-118670000D01*
X90000000Y-94560000D02*
X90000000Y-95330000D01*
X91370000Y-95330000D02*
X88630000Y-95330000D01*
X88630000Y-95330000D02*
X88630000Y-101870000D01*
X91370000Y-101870000D02*
X91370000Y-95330000D01*
X88630000Y-101870000D02*
X91370000Y-101870000D01*
X90000000Y-102640000D02*
X90000000Y-101870000D01*
X84000000Y-94560000D02*
X84000000Y-95330000D01*
X85370000Y-95330000D02*
X82630000Y-95330000D01*
X82630000Y-95330000D02*
X82630000Y-101870000D01*
X85370000Y-101870000D02*
X85370000Y-95330000D01*
X82630000Y-101870000D02*
X85370000Y-101870000D01*
X84000000Y-102640000D02*
X84000000Y-101870000D01*
X87000000Y-94560000D02*
X87000000Y-95330000D01*
X88370000Y-95330000D02*
X85630000Y-95330000D01*
X85630000Y-95330000D02*
X85630000Y-101870000D01*
X88370000Y-101870000D02*
X88370000Y-95330000D01*
X85630000Y-101870000D02*
X88370000Y-101870000D01*
X87000000Y-102640000D02*
X87000000Y-101870000D01*
X90500000Y-76740000D02*
X90500000Y-77510000D01*
X91870000Y-77510000D02*
X89130000Y-77510000D01*
X89130000Y-77510000D02*
X89130000Y-84050000D01*
X91870000Y-84050000D02*
X91870000Y-77510000D01*
X89130000Y-84050000D02*
X91870000Y-84050000D01*
X90500000Y-84820000D02*
X90500000Y-84050000D01*
X84500000Y-76740000D02*
X84500000Y-77510000D01*
X85870000Y-77510000D02*
X83130000Y-77510000D01*
X83130000Y-77510000D02*
X83130000Y-84050000D01*
X85870000Y-84050000D02*
X85870000Y-77510000D01*
X83130000Y-84050000D02*
X85870000Y-84050000D01*
X84500000Y-84820000D02*
X84500000Y-84050000D01*
X87500000Y-76740000D02*
X87500000Y-77510000D01*
X88870000Y-77510000D02*
X86130000Y-77510000D01*
X86130000Y-77510000D02*
X86130000Y-84050000D01*
X88870000Y-84050000D02*
X88870000Y-77510000D01*
X86130000Y-84050000D02*
X88870000Y-84050000D01*
X87500000Y-84820000D02*
X87500000Y-84050000D01*
X90500000Y-59840000D02*
X90500000Y-60610000D01*
X91870000Y-60610000D02*
X89130000Y-60610000D01*
X89130000Y-60610000D02*
X89130000Y-67150000D01*
X91870000Y-67150000D02*
X91870000Y-60610000D01*
X89130000Y-67150000D02*
X91870000Y-67150000D01*
X90500000Y-67920000D02*
X90500000Y-67150000D01*
X84500000Y-59840000D02*
X84500000Y-60610000D01*
X85870000Y-60610000D02*
X83130000Y-60610000D01*
X83130000Y-60610000D02*
X83130000Y-67150000D01*
X85870000Y-67150000D02*
X85870000Y-60610000D01*
X83130000Y-67150000D02*
X85870000Y-67150000D01*
X84500000Y-67920000D02*
X84500000Y-67150000D01*
X87500000Y-59820000D02*
X87500000Y-60590000D01*
X88870000Y-60590000D02*
X86130000Y-60590000D01*
X86130000Y-60590000D02*
X86130000Y-67130000D01*
X88870000Y-67130000D02*
X88870000Y-60590000D01*
X86130000Y-67130000D02*
X88870000Y-67130000D01*
X87500000Y-67900000D02*
X87500000Y-67130000D01*
X78200000Y-59840000D02*
X78200000Y-60610000D01*
X79570000Y-60610000D02*
X76830000Y-60610000D01*
X76830000Y-60610000D02*
X76830000Y-67150000D01*
X79570000Y-67150000D02*
X79570000Y-60610000D01*
X76830000Y-67150000D02*
X79570000Y-67150000D01*
X78200000Y-67920000D02*
X78200000Y-67150000D01*
X72200000Y-59840000D02*
X72200000Y-60610000D01*
X73570000Y-60610000D02*
X70830000Y-60610000D01*
X70830000Y-60610000D02*
X70830000Y-67150000D01*
X73570000Y-67150000D02*
X73570000Y-60610000D01*
X70830000Y-67150000D02*
X73570000Y-67150000D01*
X72200000Y-67920000D02*
X72200000Y-67150000D01*
X75200000Y-59840000D02*
X75200000Y-60610000D01*
X76570000Y-60610000D02*
X73830000Y-60610000D01*
X73830000Y-60610000D02*
X73830000Y-67150000D01*
X76570000Y-67150000D02*
X76570000Y-60610000D01*
X73830000Y-67150000D02*
X76570000Y-67150000D01*
X75200000Y-67920000D02*
X75200000Y-67150000D01*
X78000000Y-76760000D02*
X78000000Y-77530000D01*
X79370000Y-77530000D02*
X76630000Y-77530000D01*
X76630000Y-77530000D02*
X76630000Y-84070000D01*
X79370000Y-84070000D02*
X79370000Y-77530000D01*
X76630000Y-84070000D02*
X79370000Y-84070000D01*
X78000000Y-84840000D02*
X78000000Y-84070000D01*
X72000000Y-76760000D02*
X72000000Y-77530000D01*
X73370000Y-77530000D02*
X70630000Y-77530000D01*
X70630000Y-77530000D02*
X70630000Y-84070000D01*
X73370000Y-84070000D02*
X73370000Y-77530000D01*
X70630000Y-84070000D02*
X73370000Y-84070000D01*
X72000000Y-84840000D02*
X72000000Y-84070000D01*
X75000000Y-76760000D02*
X75000000Y-77530000D01*
X76370000Y-77530000D02*
X73630000Y-77530000D01*
X73630000Y-77530000D02*
X73630000Y-84070000D01*
X76370000Y-84070000D02*
X76370000Y-77530000D01*
X73630000Y-84070000D02*
X76370000Y-84070000D01*
X75000000Y-84840000D02*
X75000000Y-84070000D01*
X77400000Y-94620000D02*
X77400000Y-95390000D01*
X78770000Y-95390000D02*
X76030000Y-95390000D01*
X76030000Y-95390000D02*
X76030000Y-101930000D01*
X78770000Y-101930000D02*
X78770000Y-95390000D01*
X76030000Y-101930000D02*
X78770000Y-101930000D01*
X77400000Y-102700000D02*
X77400000Y-101930000D01*
X71400000Y-94640000D02*
X71400000Y-95410000D01*
X72770000Y-95410000D02*
X70030000Y-95410000D01*
X70030000Y-95410000D02*
X70030000Y-101950000D01*
X72770000Y-101950000D02*
X72770000Y-95410000D01*
X70030000Y-101950000D02*
X72770000Y-101950000D01*
X71400000Y-102720000D02*
X71400000Y-101950000D01*
X74400000Y-94640000D02*
X74400000Y-95410000D01*
X75770000Y-95410000D02*
X73030000Y-95410000D01*
X73030000Y-95410000D02*
X73030000Y-101950000D01*
X75770000Y-101950000D02*
X75770000Y-95410000D01*
X73030000Y-101950000D02*
X75770000Y-101950000D01*
X74400000Y-102720000D02*
X74400000Y-101950000D01*
X77700000Y-111360000D02*
X77700000Y-112130000D01*
X79070000Y-112130000D02*
X76330000Y-112130000D01*
X76330000Y-112130000D02*
X76330000Y-118670000D01*
X79070000Y-118670000D02*
X79070000Y-112130000D01*
X76330000Y-118670000D02*
X79070000Y-118670000D01*
X77700000Y-119440000D02*
X77700000Y-118670000D01*
X71600000Y-111360000D02*
X71600000Y-112130000D01*
X72970000Y-112130000D02*
X70230000Y-112130000D01*
X70230000Y-112130000D02*
X70230000Y-118670000D01*
X72970000Y-118670000D02*
X72970000Y-112130000D01*
X70230000Y-118670000D02*
X72970000Y-118670000D01*
X71600000Y-119440000D02*
X71600000Y-118670000D01*
X74637500Y-111360000D02*
X74637500Y-112130000D01*
X76007500Y-112130000D02*
X73267500Y-112130000D01*
X73267500Y-112130000D02*
X73267500Y-118670000D01*
X76007500Y-118670000D02*
X76007500Y-112130000D01*
X73267500Y-118670000D02*
X76007500Y-118670000D01*
X74637500Y-119440000D02*
X74637500Y-118670000D01*
X98240000Y-89290000D02*
X98240000Y-107190000D01*
X98240000Y-107190000D02*
X102740000Y-107190000D01*
X99490000Y-89290000D02*
X98240000Y-89290000D01*
X102740000Y-89290000D02*
X101490000Y-89290000D01*
X102740000Y-107190000D02*
X102740000Y-89290000D01*
X101490000Y-89290000D02*
G75*
G02*
X99490000Y-89290000I-1000000J0D01*
G01*
X91510000Y-159385000D02*
X92530000Y-159385000D01*
X92530000Y-157915000D02*
X92530000Y-160855000D01*
X92530000Y-160855000D02*
X97970000Y-160855000D01*
X93310000Y-157915000D02*
X93310000Y-160855000D01*
X93430000Y-157915000D02*
X93430000Y-160855000D01*
X93550000Y-157915000D02*
X93550000Y-160855000D01*
X97970000Y-157915000D02*
X92530000Y-157915000D01*
X97970000Y-160855000D02*
X97970000Y-157915000D01*
X98990000Y-159385000D02*
X97970000Y-159385000D01*
X72665000Y-143490000D02*
X69575000Y-143490000D01*
X72664830Y-143490001D02*
G75*
G02*
X71119538Y-149039999I-1544830J-2559999D01*
G01*
X71120462Y-149040000D02*
G75*
G02*
X69575170Y-143490000I-462J2990000D01*
G01*
X73620000Y-146050000D02*
G75*
G02*
X68620000Y-146050000I-2500000J0D01*
G01*
X68620000Y-146050000D02*
G75*
G02*
X73620000Y-146050000I2500000J0D01*
G01*
X77195000Y-161320000D02*
X80285000Y-161320000D01*
X77195170Y-161319999D02*
G75*
G02*
X78740462Y-155770001I1544830J2559999D01*
G01*
X78739538Y-155770000D02*
G75*
G02*
X80284830Y-161320000I462J-2990000D01*
G01*
X81240000Y-158760000D02*
G75*
G02*
X76240000Y-158760000I-2500000J0D01*
G01*
X76240000Y-158760000D02*
G75*
G02*
X81240000Y-158760000I2500000J0D01*
G01*
X72665000Y-151110000D02*
X69575000Y-151110000D01*
X72664830Y-151110001D02*
G75*
G02*
X71119538Y-156659999I-1544830J-2559999D01*
G01*
X71120462Y-156660000D02*
G75*
G02*
X69575170Y-151110000I-462J2990000D01*
G01*
X73620000Y-153670000D02*
G75*
G02*
X68620000Y-153670000I-2500000J0D01*
G01*
X68620000Y-153670000D02*
G75*
G02*
X73620000Y-153670000I2500000J0D01*
G01*
D10*
X83820000Y-144780000D02*
X111760000Y-144780000D01*
X111760000Y-157480000D01*
X83820000Y-157480000D01*
X83820000Y-144780000D01*
D12*
X116960000Y-145620000D02*
X115577000Y-145620000D01*
X116960000Y-145620000D02*
X116960000Y-147004000D01*
X116720000Y-145860000D02*
X89020000Y-145860000D01*
X116720000Y-145860000D02*
X116720000Y-155760000D01*
X89020000Y-145860000D02*
X89020000Y-155760000D01*
X114935000Y-148780000D02*
X113665000Y-148780000D01*
X114815000Y-148780000D02*
X114815000Y-150133333D01*
X114695000Y-148780000D02*
X114695000Y-150133333D01*
X114575000Y-148780000D02*
X114575000Y-150133333D01*
X114455000Y-148780000D02*
X114455000Y-150133333D01*
X114335000Y-148780000D02*
X114335000Y-150133333D01*
X114215000Y-148780000D02*
X114215000Y-150133333D01*
X114095000Y-148780000D02*
X114095000Y-150133333D01*
X113975000Y-148780000D02*
X113975000Y-150133333D01*
X113855000Y-148780000D02*
X113855000Y-150133333D01*
X113735000Y-148780000D02*
X113735000Y-150133333D01*
X113665000Y-148780000D02*
X113665000Y-152840000D01*
X112395000Y-148780000D02*
X111125000Y-148780000D01*
X112275000Y-148780000D02*
X112275000Y-150133333D01*
X112155000Y-148780000D02*
X112155000Y-150133333D01*
X112035000Y-148780000D02*
X112035000Y-150133333D01*
X111915000Y-148780000D02*
X111915000Y-150133333D01*
X111795000Y-148780000D02*
X111795000Y-150133333D01*
X111675000Y-148780000D02*
X111675000Y-150133333D01*
X111555000Y-148780000D02*
X111555000Y-150133333D01*
X111435000Y-148780000D02*
X111435000Y-150133333D01*
X111315000Y-148780000D02*
X111315000Y-150133333D01*
X111195000Y-148780000D02*
X111195000Y-150133333D01*
X111125000Y-148780000D02*
X111125000Y-152840000D01*
X109855000Y-148780000D02*
X108585000Y-148780000D01*
X109735000Y-148780000D02*
X109735000Y-150133333D01*
X109615000Y-148780000D02*
X109615000Y-150133333D01*
X109495000Y-148780000D02*
X109495000Y-150133333D01*
X109375000Y-148780000D02*
X109375000Y-150133333D01*
X109255000Y-148780000D02*
X109255000Y-150133333D01*
X109135000Y-148780000D02*
X109135000Y-150133333D01*
X109015000Y-148780000D02*
X109015000Y-150133333D01*
X108895000Y-148780000D02*
X108895000Y-150133333D01*
X108775000Y-148780000D02*
X108775000Y-150133333D01*
X108655000Y-148780000D02*
X108655000Y-150133333D01*
X108585000Y-148780000D02*
X108585000Y-152840000D01*
X107315000Y-148780000D02*
X106045000Y-148780000D01*
X107195000Y-148780000D02*
X107195000Y-150133333D01*
X107075000Y-148780000D02*
X107075000Y-150133333D01*
X106955000Y-148780000D02*
X106955000Y-150133333D01*
X106835000Y-148780000D02*
X106835000Y-150133333D01*
X106715000Y-148780000D02*
X106715000Y-150133333D01*
X106595000Y-148780000D02*
X106595000Y-150133333D01*
X106475000Y-148780000D02*
X106475000Y-150133333D01*
X106355000Y-148780000D02*
X106355000Y-150133333D01*
X106235000Y-148780000D02*
X106235000Y-150133333D01*
X106115000Y-148780000D02*
X106115000Y-150133333D01*
X106045000Y-148780000D02*
X106045000Y-152840000D01*
X104775000Y-148780000D02*
X103505000Y-148780000D01*
X104655000Y-148780000D02*
X104655000Y-150133333D01*
X104535000Y-148780000D02*
X104535000Y-150133333D01*
X104415000Y-148780000D02*
X104415000Y-150133333D01*
X104295000Y-148780000D02*
X104295000Y-150133333D01*
X104175000Y-148780000D02*
X104175000Y-150133333D01*
X104055000Y-148780000D02*
X104055000Y-150133333D01*
X103935000Y-148780000D02*
X103935000Y-150133333D01*
X103815000Y-148780000D02*
X103815000Y-150133333D01*
X103695000Y-148780000D02*
X103695000Y-150133333D01*
X103575000Y-148780000D02*
X103575000Y-150133333D01*
X103505000Y-148780000D02*
X103505000Y-152840000D01*
X102235000Y-148780000D02*
X100965000Y-148780000D01*
X102115000Y-148780000D02*
X102115000Y-150133333D01*
X101995000Y-148780000D02*
X101995000Y-150133333D01*
X101875000Y-148780000D02*
X101875000Y-150133333D01*
X101755000Y-148780000D02*
X101755000Y-150133333D01*
X101635000Y-148780000D02*
X101635000Y-150133333D01*
X101515000Y-148780000D02*
X101515000Y-150133333D01*
X101395000Y-148780000D02*
X101395000Y-150133333D01*
X101275000Y-148780000D02*
X101275000Y-150133333D01*
X101155000Y-148780000D02*
X101155000Y-150133333D01*
X101035000Y-148780000D02*
X101035000Y-150133333D01*
X100965000Y-148780000D02*
X100965000Y-152840000D01*
X99695000Y-148780000D02*
X98425000Y-148780000D01*
X99575000Y-148780000D02*
X99575000Y-150133333D01*
X99455000Y-148780000D02*
X99455000Y-150133333D01*
X99335000Y-148780000D02*
X99335000Y-150133333D01*
X99215000Y-148780000D02*
X99215000Y-150133333D01*
X99095000Y-148780000D02*
X99095000Y-150133333D01*
X98975000Y-148780000D02*
X98975000Y-150133333D01*
X98855000Y-148780000D02*
X98855000Y-150133333D01*
X98735000Y-148780000D02*
X98735000Y-150133333D01*
X98615000Y-148780000D02*
X98615000Y-150133333D01*
X98495000Y-148780000D02*
X98495000Y-150133333D01*
X98425000Y-148780000D02*
X98425000Y-152840000D01*
X97155000Y-148780000D02*
X95885000Y-148780000D01*
X97035000Y-148780000D02*
X97035000Y-150133333D01*
X96915000Y-148780000D02*
X96915000Y-150133333D01*
X96795000Y-148780000D02*
X96795000Y-150133333D01*
X96675000Y-148780000D02*
X96675000Y-150133333D01*
X96555000Y-148780000D02*
X96555000Y-150133333D01*
X96435000Y-148780000D02*
X96435000Y-150133333D01*
X96315000Y-148780000D02*
X96315000Y-150133333D01*
X96195000Y-148780000D02*
X96195000Y-150133333D01*
X96075000Y-148780000D02*
X96075000Y-150133333D01*
X95955000Y-148780000D02*
X95955000Y-150133333D01*
X95885000Y-148780000D02*
X95885000Y-152840000D01*
X94615000Y-148780000D02*
X93345000Y-148780000D01*
X94495000Y-148780000D02*
X94495000Y-150133333D01*
X94375000Y-148780000D02*
X94375000Y-150133333D01*
X94255000Y-148780000D02*
X94255000Y-150133333D01*
X94135000Y-148780000D02*
X94135000Y-150133333D01*
X94015000Y-148780000D02*
X94015000Y-150133333D01*
X93895000Y-148780000D02*
X93895000Y-150133333D01*
X93775000Y-148780000D02*
X93775000Y-150133333D01*
X93655000Y-148780000D02*
X93655000Y-150133333D01*
X93535000Y-148780000D02*
X93535000Y-150133333D01*
X93415000Y-148780000D02*
X93415000Y-150133333D01*
X93345000Y-148780000D02*
X93345000Y-152840000D01*
X92075000Y-148780000D02*
X90805000Y-148780000D01*
X91955000Y-148780000D02*
X91955000Y-150133333D01*
X91835000Y-148780000D02*
X91835000Y-150133333D01*
X91715000Y-148780000D02*
X91715000Y-150133333D01*
X91595000Y-148780000D02*
X91595000Y-150133333D01*
X91475000Y-148780000D02*
X91475000Y-150133333D01*
X91355000Y-148780000D02*
X91355000Y-150133333D01*
X91235000Y-148780000D02*
X91235000Y-150133333D01*
X91115000Y-148780000D02*
X91115000Y-150133333D01*
X90995000Y-148780000D02*
X90995000Y-150133333D01*
X90875000Y-148780000D02*
X90875000Y-150133333D01*
X90805000Y-148780000D02*
X90805000Y-152840000D01*
X114935000Y-150133333D02*
X113665000Y-150133333D01*
X112395000Y-150133333D02*
X111125000Y-150133333D01*
X109855000Y-150133333D02*
X108585000Y-150133333D01*
X107315000Y-150133333D02*
X106045000Y-150133333D01*
X104775000Y-150133333D02*
X103505000Y-150133333D01*
X102235000Y-150133333D02*
X100965000Y-150133333D01*
X99695000Y-150133333D02*
X98425000Y-150133333D01*
X97155000Y-150133333D02*
X95885000Y-150133333D01*
X94615000Y-150133333D02*
X93345000Y-150133333D01*
X92075000Y-150133333D02*
X90805000Y-150133333D01*
X114935000Y-152840000D02*
X114935000Y-148780000D01*
X113665000Y-152840000D02*
X114935000Y-152840000D01*
X112395000Y-152840000D02*
X112395000Y-148780000D01*
X111125000Y-152840000D02*
X112395000Y-152840000D01*
X109855000Y-152840000D02*
X109855000Y-148780000D01*
X108585000Y-152840000D02*
X109855000Y-152840000D01*
X107315000Y-152840000D02*
X107315000Y-148780000D01*
X106045000Y-152840000D02*
X107315000Y-152840000D01*
X104775000Y-152840000D02*
X104775000Y-148780000D01*
X103505000Y-152840000D02*
X104775000Y-152840000D01*
X102235000Y-152840000D02*
X102235000Y-148780000D01*
X100965000Y-152840000D02*
X102235000Y-152840000D01*
X99695000Y-152840000D02*
X99695000Y-148780000D01*
X98425000Y-152840000D02*
X99695000Y-152840000D01*
X97155000Y-152840000D02*
X97155000Y-148780000D01*
X95885000Y-152840000D02*
X97155000Y-152840000D01*
X94615000Y-152840000D02*
X94615000Y-148780000D01*
X93345000Y-152840000D02*
X94615000Y-152840000D01*
X92075000Y-152840000D02*
X92075000Y-148780000D01*
X90805000Y-152840000D02*
X92075000Y-152840000D01*
X116720000Y-155760000D02*
X89020000Y-155760000D01*
D10*
X63460000Y-142804000D02*
X116800000Y-142804000D01*
X116800000Y-41204000D01*
X63460000Y-41204000D01*
X63460000Y-142804000D01*
X100290000Y-49459000D02*
X109180000Y-49459000D01*
X109180000Y-39299000D01*
X100290000Y-39299000D01*
X100290000Y-49459000D01*
X72985000Y-50729000D02*
X84415000Y-50729000D01*
X84415000Y-34854000D01*
X72985000Y-34854000D01*
X72985000Y-50729000D01*
%LPC*%
D13*
X65600000Y-47200000D03*
X114700000Y-47300000D03*
X114700000Y-163300000D03*
X65600000Y-163200000D03*
D14*
X104100000Y-75700000D03*
D15*
X104100000Y-85860000D03*
D14*
X98100000Y-75700000D03*
D15*
X98100000Y-85860000D03*
D14*
X101100000Y-75700000D03*
D15*
X101100000Y-85860000D03*
D14*
X103500000Y-58800000D03*
D15*
X103500000Y-68960000D03*
D14*
X97500000Y-58820000D03*
D15*
X97500000Y-68980000D03*
D14*
X100500000Y-58800000D03*
D15*
X100500000Y-68960000D03*
D14*
X90200000Y-110320000D03*
D15*
X90200000Y-120480000D03*
D14*
X84200000Y-110320000D03*
D15*
X84200000Y-120480000D03*
D14*
X87200000Y-110320000D03*
D15*
X87200000Y-120480000D03*
D14*
X90000000Y-93520000D03*
D15*
X90000000Y-103680000D03*
D14*
X84000000Y-93520000D03*
D15*
X84000000Y-103680000D03*
D14*
X87000000Y-93520000D03*
D15*
X87000000Y-103680000D03*
D14*
X90500000Y-75700000D03*
D15*
X90500000Y-85860000D03*
D14*
X84500000Y-75700000D03*
D15*
X84500000Y-85860000D03*
D14*
X87500000Y-75700000D03*
D15*
X87500000Y-85860000D03*
D14*
X90500000Y-58800000D03*
D15*
X90500000Y-68960000D03*
D14*
X84500000Y-58800000D03*
D15*
X84500000Y-68960000D03*
D14*
X87500000Y-58780000D03*
D15*
X87500000Y-68940000D03*
D14*
X78200000Y-58800000D03*
D15*
X78200000Y-68960000D03*
D14*
X72200000Y-58800000D03*
D15*
X72200000Y-68960000D03*
D14*
X75200000Y-58800000D03*
D15*
X75200000Y-68960000D03*
D14*
X78000000Y-75720000D03*
D15*
X78000000Y-85880000D03*
D14*
X72000000Y-75720000D03*
D15*
X72000000Y-85880000D03*
D14*
X75000000Y-75720000D03*
D15*
X75000000Y-85880000D03*
D14*
X77400000Y-93580000D03*
D15*
X77400000Y-103740000D03*
D14*
X71400000Y-93600000D03*
D15*
X71400000Y-103760000D03*
D14*
X74400000Y-93600000D03*
D15*
X74400000Y-103760000D03*
D16*
X98100000Y-73000000D03*
X101100000Y-73000000D03*
X104100000Y-73000000D03*
X97400000Y-56000000D03*
X100400000Y-56000000D03*
X103400000Y-56000000D03*
X84200000Y-107620000D03*
X87200000Y-107620000D03*
X90200000Y-107620000D03*
X84025000Y-90900000D03*
X87025000Y-90900000D03*
X90025000Y-90900000D03*
X84525000Y-73000000D03*
X87525000Y-73000000D03*
X90525000Y-73000000D03*
X84425000Y-56000000D03*
X87425000Y-56000000D03*
X90425000Y-56000000D03*
X72125000Y-56000000D03*
X75125000Y-56000000D03*
X78125000Y-56000000D03*
X72000000Y-73000000D03*
X75000000Y-73000000D03*
X78000000Y-73000000D03*
X71400000Y-90900000D03*
X74400000Y-90900000D03*
X77400000Y-90900000D03*
D14*
X77700000Y-110320000D03*
D15*
X77700000Y-120480000D03*
D14*
X71600000Y-110320000D03*
D15*
X71600000Y-120480000D03*
D14*
X74637500Y-110320000D03*
D15*
X74637500Y-120480000D03*
D16*
X71600000Y-107620000D03*
X74600000Y-107620000D03*
X77600000Y-107620000D03*
D17*
X96680000Y-90620000D03*
D18*
X96680000Y-93160000D03*
X96680000Y-95700000D03*
X96680000Y-98240000D03*
X96680000Y-100780000D03*
X96680000Y-103320000D03*
X96680000Y-105860000D03*
X104300000Y-105860000D03*
X104300000Y-103320000D03*
X104300000Y-100780000D03*
X104300000Y-98240000D03*
X104300000Y-95700000D03*
X104300000Y-93160000D03*
X104300000Y-90620000D03*
D19*
X90170000Y-159385000D03*
D20*
X100330000Y-159385000D03*
D21*
X71120000Y-144780000D03*
D22*
X71120000Y-147320000D03*
D21*
X78740000Y-160030000D03*
D22*
X78740000Y-157490000D03*
D21*
X71120000Y-152400000D03*
D22*
X71120000Y-154940000D03*
D23*
X85090000Y-146050000D03*
X85090000Y-148590000D03*
X85090000Y-151130000D03*
X85090000Y-153670000D03*
X85090000Y-156210000D03*
D24*
X114300000Y-147000000D03*
D15*
X111760000Y-147000000D03*
X109220000Y-147000000D03*
X106680000Y-147000000D03*
X104140000Y-147000000D03*
X101600000Y-147000000D03*
X99060000Y-147000000D03*
X96520000Y-147000000D03*
X93980000Y-147000000D03*
X91440000Y-147000000D03*
X91440000Y-154620000D03*
X93980000Y-154620000D03*
X96520000Y-154620000D03*
X99060000Y-154620000D03*
X101600000Y-154620000D03*
X104140000Y-154620000D03*
X106680000Y-154620000D03*
X109220000Y-154620000D03*
X111760000Y-154620000D03*
X114300000Y-154620000D03*
D14*
X81280000Y-138430000D03*
D15*
X71120000Y-138430000D03*
D14*
X81280000Y-130810000D03*
D15*
X71120000Y-130810000D03*
D14*
X81280000Y-134620000D03*
D15*
X71120000Y-134620000D03*
D23*
X114260000Y-69144000D03*
X114260000Y-71684000D03*
X114260000Y-74224000D03*
X114260000Y-76764000D03*
X114260000Y-79304000D03*
X114260000Y-81844000D03*
X114260000Y-84384000D03*
X114260000Y-86924000D03*
X114260000Y-92004000D03*
X114260000Y-94544000D03*
X114260000Y-97084000D03*
X114260000Y-99624000D03*
X114260000Y-102164000D03*
X114260000Y-104704000D03*
X114260000Y-107244000D03*
X114260000Y-109784000D03*
X114260000Y-114864000D03*
X114260000Y-117404000D03*
X114260000Y-119944000D03*
X114260000Y-122484000D03*
X114260000Y-125024000D03*
X114260000Y-127564000D03*
X114260000Y-130104000D03*
X114260000Y-132644000D03*
X66000000Y-60000000D03*
X66000000Y-62540000D03*
X66000000Y-65080000D03*
X66000000Y-67620000D03*
X66000000Y-70160000D03*
X66000000Y-72700000D03*
X66000000Y-75240000D03*
X66000000Y-77780000D03*
X66000000Y-80320000D03*
X66000000Y-82860000D03*
X66000000Y-86924000D03*
X66000000Y-89464000D03*
X66000000Y-92004000D03*
X66000000Y-94544000D03*
X66000000Y-97084000D03*
X66000000Y-99624000D03*
X66000000Y-102164000D03*
X66000000Y-104704000D03*
X66000000Y-109784000D03*
X66000000Y-112324000D03*
X66000000Y-114864000D03*
X66000000Y-117404000D03*
X66000000Y-119944000D03*
X66000000Y-122484000D03*
X66000000Y-125024000D03*
X66000000Y-127564000D03*
%LPD*%
M02*
