G04 #@! TF.GenerationSoftware,KiCad,Pcbnew,8.0.0*
G04 #@! TF.CreationDate,2024-10-02T08:02:54-07:00*
G04 #@! TF.ProjectId,sumitomo_node_v3,73756d69-746f-46d6-9f5f-6e6f64655f76,rev?*
G04 #@! TF.SameCoordinates,Original*
G04 #@! TF.FileFunction,Copper,L1,Top*
G04 #@! TF.FilePolarity,Positive*
%FSLAX46Y46*%
G04 Gerber Fmt 4.6, Leading zero omitted, Abs format (unit mm)*
G04 Created by KiCad (PCBNEW 8.0.0) date 2024-10-02 08:02:54*
%MOMM*%
%LPD*%
G01*
G04 APERTURE LIST*
G04 #@! TA.AperFunction,ComponentPad*
%ADD10C,1.600000*%
G04 #@! TD*
G04 #@! TA.AperFunction,ComponentPad*
%ADD11O,1.600000X1.600000*%
G04 #@! TD*
G04 #@! TA.AperFunction,ComponentPad*
%ADD12R,2.400000X2.400000*%
G04 #@! TD*
G04 #@! TA.AperFunction,ComponentPad*
%ADD13R,2.400000X1.600000*%
G04 #@! TD*
G04 #@! TA.AperFunction,ComponentPad*
%ADD14O,2.400000X1.600000*%
G04 #@! TD*
G04 #@! TA.AperFunction,ComponentPad*
%ADD15R,2.200000X2.200000*%
G04 #@! TD*
G04 #@! TA.AperFunction,ComponentPad*
%ADD16O,2.200000X2.200000*%
G04 #@! TD*
G04 #@! TA.AperFunction,ComponentPad*
%ADD17R,1.800000X1.800000*%
G04 #@! TD*
G04 #@! TA.AperFunction,ComponentPad*
%ADD18C,1.800000*%
G04 #@! TD*
G04 #@! TA.AperFunction,ComponentPad*
%ADD19R,2.000000X2.000000*%
G04 #@! TD*
G04 #@! TA.AperFunction,ComponentPad*
%ADD20R,1.600000X1.600000*%
G04 #@! TD*
G04 #@! TA.AperFunction,Conductor*
%ADD21C,0.500000*%
G04 #@! TD*
G04 #@! TA.AperFunction,Conductor*
%ADD22C,1.000000*%
G04 #@! TD*
G04 APERTURE END LIST*
D10*
X104100000Y-75700000D03*
D11*
X104100000Y-85860000D03*
D10*
X98100000Y-75700000D03*
D11*
X98100000Y-85860000D03*
D10*
X101100000Y-75700000D03*
D11*
X101100000Y-85860000D03*
D10*
X103500000Y-58800000D03*
D11*
X103500000Y-68960000D03*
D10*
X97500000Y-58820000D03*
D11*
X97500000Y-68980000D03*
D10*
X100500000Y-58800000D03*
D11*
X100500000Y-68960000D03*
D10*
X90200000Y-110320000D03*
D11*
X90200000Y-120480000D03*
D10*
X84200000Y-110320000D03*
D11*
X84200000Y-120480000D03*
D10*
X87200000Y-110320000D03*
D11*
X87200000Y-120480000D03*
D10*
X90000000Y-93520000D03*
D11*
X90000000Y-103680000D03*
D10*
X84000000Y-93520000D03*
D11*
X84000000Y-103680000D03*
D10*
X87000000Y-93520000D03*
D11*
X87000000Y-103680000D03*
D10*
X90500000Y-75700000D03*
D11*
X90500000Y-85860000D03*
D10*
X84500000Y-75700000D03*
D11*
X84500000Y-85860000D03*
D10*
X87500000Y-75700000D03*
D11*
X87500000Y-85860000D03*
D10*
X90500000Y-58800000D03*
D11*
X90500000Y-68960000D03*
D10*
X84500000Y-58800000D03*
D11*
X84500000Y-68960000D03*
D10*
X87500000Y-58780000D03*
D11*
X87500000Y-68940000D03*
D10*
X78200000Y-58800000D03*
D11*
X78200000Y-68960000D03*
D10*
X72200000Y-58800000D03*
D11*
X72200000Y-68960000D03*
D10*
X75200000Y-58800000D03*
D11*
X75200000Y-68960000D03*
D10*
X78000000Y-75720000D03*
D11*
X78000000Y-85880000D03*
D10*
X72000000Y-75720000D03*
D11*
X72000000Y-85880000D03*
D10*
X75000000Y-75720000D03*
D11*
X75000000Y-85880000D03*
D10*
X77400000Y-93580000D03*
D11*
X77400000Y-103740000D03*
D10*
X71400000Y-93600000D03*
D11*
X71400000Y-103760000D03*
D10*
X74400000Y-93600000D03*
D11*
X74400000Y-103760000D03*
D12*
X98100000Y-73000000D03*
X101100000Y-73000000D03*
X104100000Y-73000000D03*
X97400000Y-56000000D03*
X100400000Y-56000000D03*
X103400000Y-56000000D03*
X84200000Y-107620000D03*
X87200000Y-107620000D03*
X90200000Y-107620000D03*
X84025000Y-90900000D03*
X87025000Y-90900000D03*
X90025000Y-90900000D03*
X84525000Y-73000000D03*
X87525000Y-73000000D03*
X90525000Y-73000000D03*
X84425000Y-56000000D03*
X87425000Y-56000000D03*
X90425000Y-56000000D03*
X72125000Y-56000000D03*
X75125000Y-56000000D03*
X78125000Y-56000000D03*
X72000000Y-73000000D03*
X75000000Y-73000000D03*
X78000000Y-73000000D03*
X71400000Y-90900000D03*
X74400000Y-90900000D03*
X77400000Y-90900000D03*
D10*
X77700000Y-110320000D03*
D11*
X77700000Y-120480000D03*
D10*
X71600000Y-110320000D03*
D11*
X71600000Y-120480000D03*
D10*
X74637500Y-110320000D03*
D11*
X74637500Y-120480000D03*
D12*
X71600000Y-107620000D03*
X74600000Y-107620000D03*
X77600000Y-107620000D03*
D13*
X96680000Y-90620000D03*
D14*
X96680000Y-93160000D03*
X96680000Y-95700000D03*
X96680000Y-98240000D03*
X96680000Y-100780000D03*
X96680000Y-103320000D03*
X96680000Y-105860000D03*
X104300000Y-105860000D03*
X104300000Y-103320000D03*
X104300000Y-100780000D03*
X104300000Y-98240000D03*
X104300000Y-95700000D03*
X104300000Y-93160000D03*
X104300000Y-90620000D03*
D15*
X90170000Y-159385000D03*
D16*
X100330000Y-159385000D03*
D17*
X71120000Y-144780000D03*
D18*
X71120000Y-147320000D03*
D17*
X78740000Y-160030000D03*
D18*
X78740000Y-157490000D03*
D17*
X71120000Y-152400000D03*
D18*
X71120000Y-154940000D03*
D19*
X85090000Y-146050000D03*
X85090000Y-148590000D03*
X85090000Y-151130000D03*
X85090000Y-153670000D03*
X85090000Y-156210000D03*
D20*
X114300000Y-147000000D03*
D11*
X111760000Y-147000000D03*
X109220000Y-147000000D03*
X106680000Y-147000000D03*
X104140000Y-147000000D03*
X101600000Y-147000000D03*
X99060000Y-147000000D03*
X96520000Y-147000000D03*
X93980000Y-147000000D03*
X91440000Y-147000000D03*
X91440000Y-154620000D03*
X93980000Y-154620000D03*
X96520000Y-154620000D03*
X99060000Y-154620000D03*
X101600000Y-154620000D03*
X104140000Y-154620000D03*
X106680000Y-154620000D03*
X109220000Y-154620000D03*
X111760000Y-154620000D03*
X114300000Y-154620000D03*
D10*
X81280000Y-138430000D03*
D11*
X71120000Y-138430000D03*
D10*
X81280000Y-130810000D03*
D11*
X71120000Y-130810000D03*
D10*
X81280000Y-134620000D03*
D11*
X71120000Y-134620000D03*
D19*
X114260000Y-69144000D03*
X114260000Y-71684000D03*
X114260000Y-74224000D03*
X114260000Y-76764000D03*
X114260000Y-79304000D03*
X114260000Y-81844000D03*
X114260000Y-84384000D03*
X114260000Y-86924000D03*
X114260000Y-92004000D03*
X114260000Y-94544000D03*
X114260000Y-97084000D03*
X114260000Y-99624000D03*
X114260000Y-102164000D03*
X114260000Y-104704000D03*
X114260000Y-107244000D03*
X114260000Y-109784000D03*
X114260000Y-114864000D03*
X114260000Y-117404000D03*
X114260000Y-119944000D03*
X114260000Y-122484000D03*
X114260000Y-125024000D03*
X114260000Y-127564000D03*
X114260000Y-130104000D03*
X114260000Y-132644000D03*
X66000000Y-60000000D03*
X66000000Y-62540000D03*
X66000000Y-65080000D03*
X66000000Y-67620000D03*
X66000000Y-70160000D03*
X66000000Y-72700000D03*
X66000000Y-75240000D03*
X66000000Y-77780000D03*
X66000000Y-80320000D03*
X66000000Y-82860000D03*
X66000000Y-86924000D03*
X66000000Y-89464000D03*
X66000000Y-92004000D03*
X66000000Y-94544000D03*
X66000000Y-97084000D03*
X66000000Y-99624000D03*
X66000000Y-102164000D03*
X66000000Y-104704000D03*
X66000000Y-109784000D03*
X66000000Y-112324000D03*
X66000000Y-114864000D03*
X66000000Y-117404000D03*
X66000000Y-119944000D03*
X66000000Y-122484000D03*
X66000000Y-125024000D03*
X66000000Y-127564000D03*
D21*
X100200000Y-70800000D02*
X108800000Y-70800000D01*
X109000000Y-70600000D02*
X109000000Y-87500000D01*
X108800000Y-70800000D02*
X109000000Y-70600000D01*
X109000000Y-55900000D02*
X109000000Y-70600000D01*
X109000000Y-87500000D02*
X108600000Y-87900000D01*
X102400000Y-87900000D02*
X108600000Y-87900000D01*
X106700000Y-53600000D02*
X109000000Y-55900000D01*
X99000000Y-53600000D02*
X106700000Y-53600000D01*
X99000000Y-53600000D02*
X99200000Y-53600000D01*
X108600000Y-87900000D02*
X110500000Y-87900000D01*
X86600000Y-53600000D02*
X99000000Y-53600000D01*
X92100000Y-83900000D02*
X89900000Y-83900000D01*
X94500000Y-92200000D02*
X94500000Y-86300000D01*
X95460000Y-93160000D02*
X94500000Y-92200000D01*
X96680000Y-93160000D02*
X95460000Y-93160000D01*
X94500000Y-86300000D02*
X92100000Y-83900000D01*
X96680000Y-87280000D02*
X98100000Y-85860000D01*
X96680000Y-90620000D02*
X96680000Y-87280000D01*
X68600000Y-97900000D02*
X67784000Y-97084000D01*
X68600000Y-112700000D02*
X68600000Y-97900000D01*
X67784000Y-97084000D02*
X66000000Y-97084000D01*
X71760000Y-115860000D02*
X68600000Y-112700000D01*
X71760000Y-119160000D02*
X71760000Y-115860000D01*
X84200000Y-118900000D02*
X84460000Y-119160000D01*
X81500000Y-118900000D02*
X84200000Y-118900000D01*
X76400000Y-113800000D02*
X81500000Y-118900000D01*
X76000000Y-113800000D02*
X76400000Y-113800000D01*
X70200000Y-113200000D02*
X75400000Y-113200000D01*
X69700000Y-112700000D02*
X70200000Y-113200000D01*
X69700000Y-97100000D02*
X69700000Y-112700000D01*
X67144000Y-94544000D02*
X69700000Y-97100000D01*
X75400000Y-113200000D02*
X76000000Y-113800000D01*
X66000000Y-94544000D02*
X67144000Y-94544000D01*
X74700000Y-99500000D02*
X74700000Y-102000000D01*
X72300000Y-97100000D02*
X74700000Y-99500000D01*
X68400000Y-94400000D02*
X71100000Y-97100000D01*
X71100000Y-97100000D02*
X72300000Y-97100000D01*
X67964000Y-89464000D02*
X68400000Y-89900000D01*
X68400000Y-89900000D02*
X68400000Y-94400000D01*
X66000000Y-89464000D02*
X67964000Y-89464000D01*
X69300000Y-93900000D02*
X71500000Y-96100000D01*
X69300000Y-88700000D02*
X69300000Y-93900000D01*
X85900000Y-96100000D02*
X87000000Y-97200000D01*
X67524000Y-86924000D02*
X69300000Y-88700000D01*
X66000000Y-86924000D02*
X67524000Y-86924000D01*
X71500000Y-96100000D02*
X85900000Y-96100000D01*
X87000000Y-97200000D02*
X87000000Y-102100000D01*
X72100000Y-102000000D02*
X74700000Y-102000000D01*
X74700000Y-102000000D02*
X76600000Y-102000000D01*
X87000000Y-102100000D02*
X89500000Y-102100000D01*
X84500000Y-102100000D02*
X87000000Y-102100000D01*
X63400000Y-99100000D02*
X63924000Y-99624000D01*
X63924000Y-99624000D02*
X66000000Y-99624000D01*
X63400000Y-86100000D02*
X63400000Y-99100000D01*
X64500000Y-85000000D02*
X63400000Y-86100000D01*
X67900000Y-85000000D02*
X64500000Y-85000000D01*
X70800000Y-87900000D02*
X67900000Y-85000000D01*
X92300000Y-87900000D02*
X70800000Y-87900000D01*
X93300000Y-94100000D02*
X93300000Y-88900000D01*
X93300000Y-88900000D02*
X92300000Y-87900000D01*
X94900000Y-95700000D02*
X93300000Y-94100000D01*
X96680000Y-95700000D02*
X94900000Y-95700000D01*
X66000000Y-82860000D02*
X73860000Y-82860000D01*
X73860000Y-82860000D02*
X75000000Y-84000000D01*
X75000000Y-84000000D02*
X77300000Y-84000000D01*
X72800000Y-84000000D02*
X75000000Y-84000000D01*
X85120000Y-80320000D02*
X88700000Y-83900000D01*
X66000000Y-80320000D02*
X85120000Y-80320000D01*
X85100000Y-83900000D02*
X88700000Y-83900000D01*
X88700000Y-83900000D02*
X89900000Y-83900000D01*
X95480000Y-77780000D02*
X101700000Y-84000000D01*
X66000000Y-77780000D02*
X95480000Y-77780000D01*
X101700000Y-84000000D02*
X103500000Y-84000000D01*
X99000000Y-84000000D02*
X101700000Y-84000000D01*
X70640000Y-68960000D02*
X72200000Y-68960000D01*
X70000000Y-69600000D02*
X70640000Y-68960000D01*
X70000000Y-72900000D02*
X70000000Y-69600000D01*
X67660000Y-75240000D02*
X70000000Y-72900000D01*
X66000000Y-75240000D02*
X67660000Y-75240000D01*
X70200000Y-65600000D02*
X83800000Y-65600000D01*
X69000000Y-66800000D02*
X70200000Y-65600000D01*
X69000000Y-71200000D02*
X69000000Y-66800000D01*
X67500000Y-72700000D02*
X69000000Y-71200000D01*
X83800000Y-65600000D02*
X85300000Y-67100000D01*
X66000000Y-72700000D02*
X67500000Y-72700000D01*
X67700000Y-70100000D02*
X67640000Y-70160000D01*
X67640000Y-70160000D02*
X66000000Y-70160000D01*
X68100000Y-69800000D02*
X67800000Y-70100000D01*
X67800000Y-70100000D02*
X67700000Y-70100000D01*
X68100000Y-65500000D02*
X68100000Y-69800000D01*
X69000000Y-64600000D02*
X68100000Y-65500000D01*
X94700000Y-64600000D02*
X69000000Y-64600000D01*
X97700000Y-67600000D02*
X94700000Y-64600000D01*
X97700000Y-67600000D02*
X98200000Y-67100000D01*
X97500000Y-67800000D02*
X97700000Y-67600000D01*
X111476000Y-86924000D02*
X114260000Y-86924000D01*
X110500000Y-87900000D02*
X111476000Y-86924000D01*
X100700000Y-89600000D02*
X102400000Y-87900000D01*
X100700000Y-106500000D02*
X100700000Y-89600000D01*
X98500000Y-108700000D02*
X100700000Y-106500000D01*
X95000000Y-108700000D02*
X98500000Y-108700000D01*
X91700000Y-105400000D02*
X95000000Y-108700000D01*
X91000000Y-105700000D02*
X86800000Y-105700000D01*
X91300000Y-105400000D02*
X91000000Y-105700000D01*
X92300000Y-104800000D02*
X91700000Y-105400000D01*
X92300000Y-89400000D02*
X92300000Y-104800000D01*
X85800000Y-88800000D02*
X91700000Y-88800000D01*
X91700000Y-88800000D02*
X92300000Y-89400000D01*
X91700000Y-105400000D02*
X91300000Y-105400000D01*
D22*
X116840000Y-89400000D02*
X116840000Y-155575000D01*
D21*
X105400000Y-89300000D02*
X116740000Y-89300000D01*
D22*
X116840000Y-79884000D02*
X116840000Y-89400000D01*
D21*
X116740000Y-89300000D02*
X116840000Y-89400000D01*
X104300000Y-90400000D02*
X105400000Y-89300000D01*
X104300000Y-90620000D02*
X104300000Y-90400000D01*
X84460000Y-119160000D02*
X84700000Y-118920000D01*
X84200000Y-119420000D02*
X84460000Y-119160000D01*
X71760000Y-119160000D02*
X72200000Y-118720000D01*
X71600000Y-119320000D02*
X71760000Y-119160000D01*
X87200000Y-106100000D02*
X87200000Y-107620000D01*
X75400000Y-105700000D02*
X86800000Y-105700000D01*
X74600000Y-106500000D02*
X75400000Y-105700000D01*
X74600000Y-107620000D02*
X74600000Y-106500000D01*
X86800000Y-105700000D02*
X87200000Y-106100000D01*
X85800000Y-88800000D02*
X87025000Y-90025000D01*
X74400000Y-89400000D02*
X75000000Y-88800000D01*
X87025000Y-90025000D02*
X87025000Y-90900000D01*
X74400000Y-90900000D02*
X74400000Y-89400000D01*
X75000000Y-88800000D02*
X85800000Y-88800000D01*
X101100000Y-71700000D02*
X101100000Y-73000000D01*
X100200000Y-70800000D02*
X101100000Y-71700000D01*
X87100000Y-70800000D02*
X100200000Y-70800000D01*
X87525000Y-71225000D02*
X87525000Y-73000000D01*
X76000000Y-70800000D02*
X87100000Y-70800000D01*
X75000000Y-73000000D02*
X75000000Y-71800000D01*
X75000000Y-71800000D02*
X76000000Y-70800000D01*
X87100000Y-70800000D02*
X87525000Y-71225000D01*
X99200000Y-53600000D02*
X100400000Y-54800000D01*
X100400000Y-54800000D02*
X100400000Y-56000000D01*
X75900000Y-53600000D02*
X86600000Y-53600000D01*
X75125000Y-54375000D02*
X75900000Y-53600000D01*
X75125000Y-56000000D02*
X75125000Y-54375000D01*
X86600000Y-53600000D02*
X87425000Y-54425000D01*
X87425000Y-54425000D02*
X87425000Y-56000000D01*
X89600000Y-118920000D02*
X90200000Y-119520000D01*
X84700000Y-118920000D02*
X89600000Y-118920000D01*
X84200000Y-120480000D02*
X84200000Y-119420000D01*
X90000000Y-119100000D02*
X90000000Y-120060000D01*
X87200000Y-107620000D02*
X87200000Y-110320000D01*
X77700000Y-119220000D02*
X77700000Y-120480000D01*
X77200000Y-118720000D02*
X77700000Y-119220000D01*
X72200000Y-118720000D02*
X77200000Y-118720000D01*
X71600000Y-120480000D02*
X71600000Y-119320000D01*
X74600000Y-110282500D02*
X74637500Y-110320000D01*
X74600000Y-107620000D02*
X74600000Y-110282500D01*
X89500000Y-102100000D02*
X90000000Y-102600000D01*
X84000000Y-102600000D02*
X84500000Y-102100000D01*
X90000000Y-102600000D02*
X90000000Y-103680000D01*
X84000000Y-103680000D02*
X84000000Y-102600000D01*
X87025000Y-93495000D02*
X87000000Y-93520000D01*
X87025000Y-90900000D02*
X87025000Y-93495000D01*
X74400000Y-90900000D02*
X74400000Y-93600000D01*
X76600000Y-102000000D02*
X77400000Y-102800000D01*
X77400000Y-102800000D02*
X77400000Y-103740000D01*
X71400000Y-102700000D02*
X72100000Y-102000000D01*
X71400000Y-103760000D02*
X71400000Y-102700000D01*
X98100000Y-84900000D02*
X99000000Y-84000000D01*
X104100000Y-84600000D02*
X104100000Y-85860000D01*
X98100000Y-85860000D02*
X98100000Y-84900000D01*
X103500000Y-84000000D02*
X104100000Y-84600000D01*
X98040000Y-85860000D02*
X98000000Y-85900000D01*
X98100000Y-85860000D02*
X98040000Y-85860000D01*
X101100000Y-73000000D02*
X101100000Y-75700000D01*
X90500000Y-84500000D02*
X90500000Y-85860000D01*
X84500000Y-84500000D02*
X85100000Y-83900000D01*
X89900000Y-83900000D02*
X90500000Y-84500000D01*
X84500000Y-85860000D02*
X84500000Y-84500000D01*
X87525000Y-75675000D02*
X87500000Y-75700000D01*
X87525000Y-73000000D02*
X87525000Y-75675000D01*
X78000000Y-84700000D02*
X78000000Y-85880000D01*
X72000000Y-84800000D02*
X72800000Y-84000000D01*
X77300000Y-84000000D02*
X78000000Y-84700000D01*
X72000000Y-85880000D02*
X72000000Y-84800000D01*
X75000000Y-73000000D02*
X75000000Y-75720000D01*
X103500000Y-67700000D02*
X103500000Y-68960000D01*
X102900000Y-67100000D02*
X103500000Y-67700000D01*
X98200000Y-67100000D02*
X102900000Y-67100000D01*
X97500000Y-68980000D02*
X97500000Y-67800000D01*
X100400000Y-58700000D02*
X100500000Y-58800000D01*
X100400000Y-56000000D02*
X100400000Y-58700000D01*
X90500000Y-67600000D02*
X90500000Y-68960000D01*
X85300000Y-67100000D02*
X90000000Y-67100000D01*
X90000000Y-67100000D02*
X90500000Y-67600000D01*
X84500000Y-67900000D02*
X85300000Y-67100000D01*
X84500000Y-68960000D02*
X84500000Y-67900000D01*
X87425000Y-58705000D02*
X87500000Y-58780000D01*
X87425000Y-56000000D02*
X87425000Y-58705000D01*
X75125000Y-58725000D02*
X75200000Y-58800000D01*
X75125000Y-56000000D02*
X75125000Y-58725000D01*
X78200000Y-68000000D02*
X78200000Y-68960000D01*
X77500000Y-67300000D02*
X78200000Y-68000000D01*
X72200000Y-68960000D02*
X72200000Y-68000000D01*
X72200000Y-68000000D02*
X72900000Y-67300000D01*
X72900000Y-67300000D02*
X77500000Y-67300000D01*
D22*
X78740000Y-130540000D02*
X68144000Y-119944000D01*
X78740000Y-146050000D02*
X78740000Y-130540000D01*
X83820000Y-151130000D02*
X78740000Y-146050000D01*
X68144000Y-119944000D02*
X66000000Y-119944000D01*
X85090000Y-151130000D02*
X83820000Y-151130000D01*
X82550000Y-153670000D02*
X85090000Y-153670000D01*
X76200000Y-147320000D02*
X82550000Y-153670000D01*
X76200000Y-130200000D02*
X76200000Y-147320000D01*
X68484000Y-122484000D02*
X76200000Y-130200000D01*
X66000000Y-122484000D02*
X68484000Y-122484000D01*
X82550000Y-156210000D02*
X85090000Y-156210000D01*
X73660000Y-147320000D02*
X82550000Y-156210000D01*
X73660000Y-129960000D02*
X73660000Y-147320000D01*
X66000000Y-125024000D02*
X68724000Y-125024000D01*
X68724000Y-125024000D02*
X73660000Y-129960000D01*
X112796000Y-104704000D02*
X114260000Y-104704000D01*
X112300000Y-105200000D02*
X112796000Y-104704000D01*
X87630000Y-135890000D02*
X87630000Y-131170000D01*
X85090000Y-138430000D02*
X87630000Y-135890000D01*
X81280000Y-138430000D02*
X85090000Y-138430000D01*
X87630000Y-131170000D02*
X112300000Y-106500000D01*
X112300000Y-106500000D02*
X112300000Y-105200000D01*
X110900000Y-103300000D02*
X112036000Y-102164000D01*
X83820000Y-134620000D02*
X85090000Y-133350000D01*
X110900000Y-105500000D02*
X110900000Y-103300000D01*
X81280000Y-134620000D02*
X83820000Y-134620000D01*
X85090000Y-133350000D02*
X85090000Y-131310000D01*
X85090000Y-131310000D02*
X110900000Y-105500000D01*
X112036000Y-102164000D02*
X114260000Y-102164000D01*
X111676000Y-99624000D02*
X114260000Y-99624000D01*
X109300000Y-102000000D02*
X111676000Y-99624000D01*
X84360000Y-129540000D02*
X109300000Y-104600000D01*
X109300000Y-104600000D02*
X109300000Y-102000000D01*
X82550000Y-129540000D02*
X84360000Y-129540000D01*
X81280000Y-130810000D02*
X82550000Y-129540000D01*
X91440000Y-129560000D02*
X91440000Y-147000000D01*
X113756000Y-107244000D02*
X91440000Y-129560000D01*
X114260000Y-107244000D02*
X113756000Y-107244000D01*
X113716000Y-109784000D02*
X93980000Y-129520000D01*
X93980000Y-129520000D02*
X93980000Y-147000000D01*
X114260000Y-109784000D02*
X113716000Y-109784000D01*
X72390000Y-154940000D02*
X71120000Y-154940000D01*
X78740000Y-157490000D02*
X76210000Y-157490000D01*
X116260000Y-79304000D02*
X116840000Y-79884000D01*
X78740000Y-157490000D02*
X80020000Y-157490000D01*
X71120000Y-148590000D02*
X73660000Y-151130000D01*
X73660000Y-151130000D02*
X73660000Y-153670000D01*
X80020000Y-157490000D02*
X84455000Y-161925000D01*
X113030000Y-159385000D02*
X100330000Y-159385000D01*
X73660000Y-154940000D02*
X73660000Y-153670000D01*
X84455000Y-161925000D02*
X97790000Y-161925000D01*
X73660000Y-153670000D02*
X72390000Y-154940000D01*
X116840000Y-155575000D02*
X113030000Y-159385000D01*
X97790000Y-161925000D02*
X100330000Y-159385000D01*
X114260000Y-79304000D02*
X116260000Y-79304000D01*
X76210000Y-157490000D02*
X73660000Y-154940000D01*
X71120000Y-147320000D02*
X71120000Y-148590000D01*
X101600000Y-154620000D02*
X104140000Y-154620000D01*
X106680000Y-154620000D02*
X109220000Y-154620000D01*
X96520000Y-154620000D02*
X99060000Y-154620000D01*
X93980000Y-154620000D02*
X96520000Y-154620000D01*
X111760000Y-154620000D02*
X114300000Y-154620000D01*
X99060000Y-154620000D02*
X101600000Y-154620000D01*
X109220000Y-154620000D02*
X111760000Y-154620000D01*
X104140000Y-154620000D02*
X106680000Y-154620000D01*
X91440000Y-154620000D02*
X93980000Y-154620000D01*
X111196000Y-117404000D02*
X99060000Y-129540000D01*
X114260000Y-117404000D02*
X111196000Y-117404000D01*
X99060000Y-129540000D02*
X99060000Y-147000000D01*
X114260000Y-114864000D02*
X111196000Y-114864000D01*
X111196000Y-114864000D02*
X96520000Y-129540000D01*
X96520000Y-129540000D02*
X96520000Y-147000000D01*
X114260000Y-127564000D02*
X111196000Y-127564000D01*
X109220000Y-129540000D02*
X109220000Y-147000000D01*
X111196000Y-127564000D02*
X109220000Y-129540000D01*
X111196000Y-125024000D02*
X106680000Y-129540000D01*
X114260000Y-125024000D02*
X111196000Y-125024000D01*
X106680000Y-129540000D02*
X106680000Y-147000000D01*
X111760000Y-130810000D02*
X112466000Y-130104000D01*
X112466000Y-130104000D02*
X114260000Y-130104000D01*
X111760000Y-147000000D02*
X111760000Y-130810000D01*
X104140000Y-129540000D02*
X104140000Y-147000000D01*
X111196000Y-122484000D02*
X104140000Y-129540000D01*
X114260000Y-122484000D02*
X111196000Y-122484000D01*
X114300000Y-132684000D02*
X114260000Y-132644000D01*
X114300000Y-147000000D02*
X114300000Y-132684000D01*
X114260000Y-119944000D02*
X111196000Y-119944000D01*
X101600000Y-129540000D02*
X101600000Y-147000000D01*
X111196000Y-119944000D02*
X101600000Y-129540000D01*
X71120000Y-138430000D02*
X71120000Y-144780000D01*
X69850000Y-134620000D02*
X68580000Y-135890000D01*
X68580000Y-135890000D02*
X68580000Y-149860000D01*
X68580000Y-149860000D02*
X71120000Y-152400000D01*
X71120000Y-134620000D02*
X69850000Y-134620000D01*
X68580000Y-130810000D02*
X71120000Y-130810000D01*
X66040000Y-133350000D02*
X68580000Y-130810000D01*
X78740000Y-160030000D02*
X70495000Y-160030000D01*
X70495000Y-160030000D02*
X66040000Y-155575000D01*
X66040000Y-155575000D02*
X66040000Y-133350000D01*
X86360000Y-146050000D02*
X88265000Y-147955000D01*
X85090000Y-146050000D02*
X86360000Y-146050000D01*
X88265000Y-147955000D02*
X88265000Y-157480000D01*
X88265000Y-157480000D02*
X90170000Y-159385000D01*
G04 #@! TA.AperFunction,Conductor*
G36*
X117841085Y-43600713D02*
G01*
X117970280Y-43659714D01*
X118077619Y-43752724D01*
X118154406Y-43872208D01*
X118194421Y-44008485D01*
X118199500Y-44079500D01*
X118199500Y-79048150D01*
X118179287Y-79188735D01*
X118120286Y-79317930D01*
X118027276Y-79425269D01*
X117907792Y-79502056D01*
X117771515Y-79542071D01*
X117629485Y-79542071D01*
X117493208Y-79502056D01*
X117373724Y-79425269D01*
X117347654Y-79400996D01*
X116706546Y-78759888D01*
X116706541Y-78759884D01*
X116591813Y-78683226D01*
X116591804Y-78683221D01*
X116464336Y-78630423D01*
X116464332Y-78630421D01*
X116464328Y-78630420D01*
X116328994Y-78603500D01*
X116328993Y-78603500D01*
X116328991Y-78603500D01*
X115933521Y-78603500D01*
X115792936Y-78583287D01*
X115663741Y-78524286D01*
X115556402Y-78431276D01*
X115479615Y-78311792D01*
X115462334Y-78258282D01*
X115448867Y-78225771D01*
X115448867Y-78225769D01*
X115448865Y-78225766D01*
X115448535Y-78224969D01*
X115413407Y-78087351D01*
X115418474Y-77945411D01*
X115448535Y-77843031D01*
X115448863Y-77842236D01*
X115448867Y-77842231D01*
X115460500Y-77783748D01*
X115460500Y-75744252D01*
X115448867Y-75685769D01*
X115448864Y-75685764D01*
X115448535Y-75684969D01*
X115413407Y-75547351D01*
X115418474Y-75405411D01*
X115448535Y-75303031D01*
X115448863Y-75302236D01*
X115448867Y-75302231D01*
X115460500Y-75243748D01*
X115460500Y-73204252D01*
X115455002Y-73176614D01*
X115448868Y-73145774D01*
X115448867Y-73145773D01*
X115448867Y-73145769D01*
X115448864Y-73145764D01*
X115448535Y-73144969D01*
X115413407Y-73007351D01*
X115418474Y-72865411D01*
X115448535Y-72763031D01*
X115448863Y-72762236D01*
X115448867Y-72762231D01*
X115460500Y-72703748D01*
X115460500Y-70664252D01*
X115448867Y-70605769D01*
X115448864Y-70605764D01*
X115448535Y-70604969D01*
X115413407Y-70467351D01*
X115418474Y-70325411D01*
X115448535Y-70223031D01*
X115448863Y-70222236D01*
X115448867Y-70222231D01*
X115460500Y-70163748D01*
X115460500Y-68124252D01*
X115459783Y-68120647D01*
X115448868Y-68065771D01*
X115448866Y-68065767D01*
X115404552Y-67999448D01*
X115404551Y-67999447D01*
X115338232Y-67955133D01*
X115338228Y-67955131D01*
X115279754Y-67943500D01*
X115279748Y-67943500D01*
X113240252Y-67943500D01*
X113240245Y-67943500D01*
X113181771Y-67955131D01*
X113181767Y-67955133D01*
X113115448Y-67999447D01*
X113115447Y-67999448D01*
X113071133Y-68065767D01*
X113071131Y-68065771D01*
X113059500Y-68124245D01*
X113059500Y-70163754D01*
X113071132Y-70222233D01*
X113071467Y-70223040D01*
X113106593Y-70360658D01*
X113101524Y-70502598D01*
X113071467Y-70604960D01*
X113071132Y-70605766D01*
X113059500Y-70664245D01*
X113059500Y-72703754D01*
X113071132Y-72762233D01*
X113071467Y-72763040D01*
X113106593Y-72900658D01*
X113101524Y-73042598D01*
X113071467Y-73144960D01*
X113071132Y-73145766D01*
X113059500Y-73204245D01*
X113059500Y-75243754D01*
X113071132Y-75302233D01*
X113071467Y-75303040D01*
X113106593Y-75440658D01*
X113101524Y-75582598D01*
X113071467Y-75684960D01*
X113071132Y-75685766D01*
X113059500Y-75744245D01*
X113059500Y-77783754D01*
X113071132Y-77842233D01*
X113071467Y-77843040D01*
X113106593Y-77980658D01*
X113101524Y-78122598D01*
X113071467Y-78224960D01*
X113071132Y-78225766D01*
X113059500Y-78284245D01*
X113059500Y-80323754D01*
X113071132Y-80382233D01*
X113071467Y-80383040D01*
X113106593Y-80520658D01*
X113101524Y-80662598D01*
X113071467Y-80764960D01*
X113071132Y-80765766D01*
X113059500Y-80824245D01*
X113059500Y-82863754D01*
X113071132Y-82922233D01*
X113071467Y-82923040D01*
X113106593Y-83060658D01*
X113101524Y-83202598D01*
X113071467Y-83304960D01*
X113071132Y-83305766D01*
X113059500Y-83364245D01*
X113059500Y-85403754D01*
X113071131Y-85462228D01*
X113071133Y-85462232D01*
X113115447Y-85528551D01*
X113115448Y-85528552D01*
X113181767Y-85572866D01*
X113181771Y-85572868D01*
X113240245Y-85584499D01*
X113240248Y-85584499D01*
X113240252Y-85584500D01*
X113240256Y-85584500D01*
X115279744Y-85584500D01*
X115279748Y-85584500D01*
X115279752Y-85584499D01*
X115279754Y-85584499D01*
X115338228Y-85572868D01*
X115338230Y-85572867D01*
X115338231Y-85572867D01*
X115338231Y-85572866D01*
X115338233Y-85572866D01*
X115363265Y-85556140D01*
X115491385Y-85494840D01*
X115631586Y-85472119D01*
X115772509Y-85489817D01*
X115902738Y-85546501D01*
X116011722Y-85637579D01*
X116090631Y-85755672D01*
X116133074Y-85891212D01*
X116139500Y-85971039D01*
X116139500Y-88350500D01*
X116119287Y-88491085D01*
X116060286Y-88620280D01*
X115967276Y-88727619D01*
X115847792Y-88804406D01*
X115711515Y-88844421D01*
X115640500Y-88849500D01*
X105340690Y-88849500D01*
X105251939Y-88873281D01*
X105251938Y-88873281D01*
X105226114Y-88880200D01*
X105226110Y-88880202D01*
X105123387Y-88939509D01*
X104976294Y-89086603D01*
X104589548Y-89473348D01*
X104475851Y-89558462D01*
X104342776Y-89608096D01*
X104236705Y-89619500D01*
X103801459Y-89619500D01*
X103608165Y-89657949D01*
X103608162Y-89657949D01*
X103608159Y-89657951D01*
X103426090Y-89733366D01*
X103426078Y-89733372D01*
X103262222Y-89842857D01*
X103262211Y-89842866D01*
X103122866Y-89982211D01*
X103122857Y-89982222D01*
X103013372Y-90146078D01*
X103013366Y-90146090D01*
X102970533Y-90249500D01*
X102937949Y-90328165D01*
X102907002Y-90483748D01*
X102899500Y-90521461D01*
X102899500Y-90718538D01*
X102899499Y-90718538D01*
X102899500Y-90718541D01*
X102937949Y-90911835D01*
X102937950Y-90911839D01*
X102937951Y-90911840D01*
X103013366Y-91093909D01*
X103013372Y-91093921D01*
X103122857Y-91257777D01*
X103122866Y-91257788D01*
X103262211Y-91397133D01*
X103262218Y-91397139D01*
X103378890Y-91475097D01*
X103484552Y-91570009D01*
X103559194Y-91690844D01*
X103596770Y-91827813D01*
X103594234Y-91969821D01*
X103551794Y-92105362D01*
X103472886Y-92223455D01*
X103378890Y-92304903D01*
X103262218Y-92382860D01*
X103262211Y-92382866D01*
X103122866Y-92522211D01*
X103122857Y-92522222D01*
X103013372Y-92686078D01*
X103013366Y-92686090D01*
X102966857Y-92798375D01*
X102937949Y-92868165D01*
X102905541Y-93031092D01*
X102899500Y-93061461D01*
X102899500Y-93258538D01*
X102899499Y-93258538D01*
X102899500Y-93258541D01*
X102937949Y-93451835D01*
X102937950Y-93451839D01*
X102937951Y-93451840D01*
X102943719Y-93465766D01*
X102999320Y-93600000D01*
X103013366Y-93633909D01*
X103013372Y-93633921D01*
X103122857Y-93797777D01*
X103122866Y-93797788D01*
X103262211Y-93937133D01*
X103262218Y-93937139D01*
X103378890Y-94015097D01*
X103484552Y-94110009D01*
X103559194Y-94230844D01*
X103596770Y-94367813D01*
X103594234Y-94509821D01*
X103551794Y-94645362D01*
X103472886Y-94763455D01*
X103378890Y-94844903D01*
X103262218Y-94922860D01*
X103262211Y-94922866D01*
X103122866Y-95062211D01*
X103122857Y-95062222D01*
X103013372Y-95226078D01*
X103013366Y-95226090D01*
X103003670Y-95249500D01*
X102937949Y-95408165D01*
X102907002Y-95563748D01*
X102899500Y-95601461D01*
X102899500Y-95798538D01*
X102899499Y-95798538D01*
X102899500Y-95798541D01*
X102937949Y-95991835D01*
X102937950Y-95991839D01*
X102937951Y-95991840D01*
X103013366Y-96173909D01*
X103013372Y-96173921D01*
X103122857Y-96337777D01*
X103122866Y-96337788D01*
X103262211Y-96477133D01*
X103262218Y-96477139D01*
X103378890Y-96555097D01*
X103484552Y-96650009D01*
X103559194Y-96770844D01*
X103596770Y-96907813D01*
X103594234Y-97049821D01*
X103551794Y-97185362D01*
X103472886Y-97303455D01*
X103378890Y-97384903D01*
X103262218Y-97462860D01*
X103262211Y-97462866D01*
X103122866Y-97602211D01*
X103122857Y-97602222D01*
X103013372Y-97766078D01*
X103013366Y-97766090D01*
X102982466Y-97840691D01*
X102937949Y-97948165D01*
X102907002Y-98103748D01*
X102899500Y-98141461D01*
X102899500Y-98338538D01*
X102899499Y-98338538D01*
X102899500Y-98338541D01*
X102937949Y-98531835D01*
X102937950Y-98531839D01*
X102937951Y-98531840D01*
X103013366Y-98713909D01*
X103013372Y-98713921D01*
X103122857Y-98877777D01*
X103122866Y-98877788D01*
X103262211Y-99017133D01*
X103262218Y-99017139D01*
X103378890Y-99095097D01*
X103484552Y-99190009D01*
X103559194Y-99310844D01*
X103596770Y-99447813D01*
X103594234Y-99589821D01*
X103551794Y-99725362D01*
X103472886Y-99843455D01*
X103378890Y-99924903D01*
X103262218Y-100002860D01*
X103262211Y-100002866D01*
X103122866Y-100142211D01*
X103122857Y-100142222D01*
X103013372Y-100306078D01*
X103013366Y-100306090D01*
X102988465Y-100366208D01*
X102937949Y-100488165D01*
X102907002Y-100643748D01*
X102899500Y-100681461D01*
X102899500Y-100878538D01*
X102899499Y-100878538D01*
X102899500Y-100878541D01*
X102937949Y-101071835D01*
X102937950Y-101071839D01*
X102937951Y-101071840D01*
X103013366Y-101253909D01*
X103013372Y-101253921D01*
X103122857Y-101417777D01*
X103122866Y-101417788D01*
X103262211Y-101557133D01*
X103262218Y-101557139D01*
X103378890Y-101635097D01*
X103484552Y-101730009D01*
X103559194Y-101850844D01*
X103596770Y-101987813D01*
X103594234Y-102129821D01*
X103551794Y-102265362D01*
X103472886Y-102383455D01*
X103378890Y-102464903D01*
X103262218Y-102542860D01*
X103262211Y-102542866D01*
X103122866Y-102682211D01*
X103122857Y-102682222D01*
X103013372Y-102846078D01*
X103013366Y-102846090D01*
X102962792Y-102968189D01*
X102937949Y-103028165D01*
X102907002Y-103183748D01*
X102899500Y-103221461D01*
X102899500Y-103418538D01*
X102899499Y-103418538D01*
X102903562Y-103438961D01*
X102937949Y-103611835D01*
X102937950Y-103611839D01*
X102937951Y-103611840D01*
X102956081Y-103655610D01*
X102999320Y-103760000D01*
X103013366Y-103793909D01*
X103013372Y-103793921D01*
X103122857Y-103957777D01*
X103122866Y-103957788D01*
X103262211Y-104097133D01*
X103262218Y-104097139D01*
X103378890Y-104175097D01*
X103484552Y-104270009D01*
X103559194Y-104390844D01*
X103596770Y-104527813D01*
X103594234Y-104669821D01*
X103551794Y-104805362D01*
X103472886Y-104923455D01*
X103378890Y-105004903D01*
X103262218Y-105082860D01*
X103262211Y-105082866D01*
X103122866Y-105222211D01*
X103122857Y-105222222D01*
X103013372Y-105386078D01*
X103013366Y-105386090D01*
X102940581Y-105561811D01*
X102937949Y-105568165D01*
X102902110Y-105748342D01*
X102899500Y-105761461D01*
X102899500Y-105958538D01*
X102899499Y-105958538D01*
X102916112Y-106042053D01*
X102937949Y-106151835D01*
X102937950Y-106151839D01*
X102937951Y-106151840D01*
X103013366Y-106333909D01*
X103013372Y-106333921D01*
X103122857Y-106497777D01*
X103122866Y-106497788D01*
X103262211Y-106637133D01*
X103262222Y-106637142D01*
X103426078Y-106746627D01*
X103426080Y-106746628D01*
X103426086Y-106746632D01*
X103608165Y-106822051D01*
X103801459Y-106860500D01*
X103801461Y-106860500D01*
X104823056Y-106860500D01*
X104823056Y-106861738D01*
X104939425Y-106866932D01*
X105073782Y-106912984D01*
X105189722Y-106995023D01*
X105277853Y-107106403D01*
X105331035Y-107238101D01*
X105344959Y-107379447D01*
X105318497Y-107518990D01*
X105253793Y-107645426D01*
X105199301Y-107710041D01*
X92057187Y-120852156D01*
X91943486Y-120937272D01*
X91810411Y-120986906D01*
X91668743Y-120997039D01*
X91529958Y-120966848D01*
X91405301Y-120898780D01*
X91304871Y-120798350D01*
X91236803Y-120673693D01*
X91206612Y-120534908D01*
X91205341Y-120499310D01*
X91205341Y-120479999D01*
X91198360Y-120409118D01*
X91186024Y-120283868D01*
X91128814Y-120095273D01*
X91128814Y-120095272D01*
X91128812Y-120095268D01*
X91035911Y-119921464D01*
X91035910Y-119921462D01*
X90910883Y-119769117D01*
X90822442Y-119696535D01*
X90806975Y-119683841D01*
X90711125Y-119579030D01*
X90648687Y-119451460D01*
X90641541Y-119427258D01*
X90634206Y-119399884D01*
X90619799Y-119346113D01*
X90619798Y-119346111D01*
X90560490Y-119243387D01*
X90540580Y-119217440D01*
X90543841Y-119214937D01*
X90493862Y-119148173D01*
X90449827Y-119038179D01*
X90433107Y-118975780D01*
X90419799Y-118926114D01*
X90419797Y-118926111D01*
X90419796Y-118926107D01*
X90360492Y-118823391D01*
X90360486Y-118823383D01*
X90276616Y-118739513D01*
X90276608Y-118739507D01*
X90173892Y-118680203D01*
X90173883Y-118680200D01*
X90054663Y-118648255D01*
X89924100Y-118592344D01*
X89880037Y-118562138D01*
X89876609Y-118559507D01*
X89773889Y-118500202D01*
X89773888Y-118500201D01*
X89773887Y-118500201D01*
X89767396Y-118498462D01*
X89749670Y-118493712D01*
X89749669Y-118493712D01*
X89699245Y-118480201D01*
X89659309Y-118469500D01*
X84640691Y-118469500D01*
X84640690Y-118469500D01*
X84616465Y-118475991D01*
X84475439Y-118492851D01*
X84358184Y-118475993D01*
X84333964Y-118469504D01*
X84333949Y-118469500D01*
X84259309Y-118449500D01*
X81893295Y-118449500D01*
X81752710Y-118429287D01*
X81623515Y-118370286D01*
X81540449Y-118303346D01*
X76676617Y-113439513D01*
X76676612Y-113439509D01*
X76573889Y-113380202D01*
X76573888Y-113380201D01*
X76573887Y-113380201D01*
X76567396Y-113378462D01*
X76549670Y-113373712D01*
X76549669Y-113373712D01*
X76459309Y-113349500D01*
X76393295Y-113349500D01*
X76252710Y-113329287D01*
X76123515Y-113270286D01*
X76040453Y-113203350D01*
X75676614Y-112839511D01*
X75676613Y-112839510D01*
X75676612Y-112839509D01*
X75573889Y-112780202D01*
X75573888Y-112780201D01*
X75573887Y-112780201D01*
X75567396Y-112778462D01*
X75549670Y-112773712D01*
X75549669Y-112773712D01*
X75459309Y-112749500D01*
X70649500Y-112749500D01*
X70508915Y-112729287D01*
X70379720Y-112670286D01*
X70272381Y-112577276D01*
X70195594Y-112457792D01*
X70155579Y-112321515D01*
X70150500Y-112250500D01*
X70150500Y-111479762D01*
X70170713Y-111339177D01*
X70229714Y-111209982D01*
X70322724Y-111102643D01*
X70442208Y-111025856D01*
X70578485Y-110985841D01*
X70720515Y-110985841D01*
X70856792Y-111025856D01*
X70966058Y-111094027D01*
X71041462Y-111155910D01*
X71041465Y-111155912D01*
X71041467Y-111155913D01*
X71215268Y-111248812D01*
X71215272Y-111248814D01*
X71297392Y-111273724D01*
X71403868Y-111306024D01*
X71578571Y-111323230D01*
X71599999Y-111325341D01*
X71600000Y-111325341D01*
X71600001Y-111325341D01*
X71619318Y-111323438D01*
X71796132Y-111306024D01*
X71984727Y-111248814D01*
X71990430Y-111245766D01*
X72057376Y-111209982D01*
X72158538Y-111155910D01*
X72310883Y-111030883D01*
X72435910Y-110878538D01*
X72528814Y-110704727D01*
X72586024Y-110516132D01*
X72605341Y-110320000D01*
X72586024Y-110123868D01*
X72528814Y-109935273D01*
X72528814Y-109935272D01*
X72528812Y-109935268D01*
X72430904Y-109752096D01*
X72382459Y-109618583D01*
X72373591Y-109476830D01*
X72405019Y-109338321D01*
X72474196Y-109214276D01*
X72575518Y-109114746D01*
X72700778Y-109047793D01*
X72795892Y-109026210D01*
X72795708Y-109025282D01*
X72878228Y-109008868D01*
X72878229Y-109008867D01*
X72878231Y-109008867D01*
X72944552Y-108964552D01*
X72988867Y-108898231D01*
X73000499Y-108839754D01*
X76199500Y-108839754D01*
X76211131Y-108898228D01*
X76211133Y-108898232D01*
X76255447Y-108964551D01*
X76255448Y-108964552D01*
X76321767Y-109008866D01*
X76321771Y-109008868D01*
X76380245Y-109020499D01*
X76380248Y-109020499D01*
X76380252Y-109020500D01*
X76380256Y-109020500D01*
X76427611Y-109020500D01*
X76568196Y-109040713D01*
X76697391Y-109099714D01*
X76804730Y-109192724D01*
X76881517Y-109312208D01*
X76921532Y-109448485D01*
X76921532Y-109590515D01*
X76881517Y-109726792D01*
X76867689Y-109754728D01*
X76771187Y-109935268D01*
X76771185Y-109935272D01*
X76713976Y-110123866D01*
X76694659Y-110319999D01*
X76694659Y-110320000D01*
X76713976Y-110516133D01*
X76771185Y-110704727D01*
X76771187Y-110704731D01*
X76855806Y-110863040D01*
X76864090Y-110878538D01*
X76877469Y-110894840D01*
X76989116Y-111030883D01*
X77066063Y-111094031D01*
X77141462Y-111155910D01*
X77141464Y-111155911D01*
X77315268Y-111248812D01*
X77315272Y-111248814D01*
X77397392Y-111273724D01*
X77503868Y-111306024D01*
X77678571Y-111323230D01*
X77699999Y-111325341D01*
X77700000Y-111325341D01*
X77700001Y-111325341D01*
X77719318Y-111323438D01*
X77896132Y-111306024D01*
X78084727Y-111248814D01*
X78090430Y-111245766D01*
X78157376Y-111209982D01*
X78258538Y-111155910D01*
X78410883Y-111030883D01*
X78535910Y-110878538D01*
X78628814Y-110704727D01*
X78686024Y-110516132D01*
X78705341Y-110320000D01*
X78686024Y-110123868D01*
X78628814Y-109935273D01*
X78628814Y-109935272D01*
X78628812Y-109935268D01*
X78524355Y-109739843D01*
X78527852Y-109737973D01*
X78485816Y-109650133D01*
X78463083Y-109509933D01*
X78480770Y-109369009D01*
X78537444Y-109238776D01*
X78628513Y-109129785D01*
X78746599Y-109050865D01*
X78864654Y-109011567D01*
X78878231Y-109008867D01*
X78944552Y-108964552D01*
X78988867Y-108898231D01*
X79000499Y-108839754D01*
X82799500Y-108839754D01*
X82811131Y-108898228D01*
X82811133Y-108898232D01*
X82855447Y-108964551D01*
X82855448Y-108964552D01*
X82921767Y-109008866D01*
X82921771Y-109008868D01*
X83004292Y-109025282D01*
X83004013Y-109026681D01*
X83115856Y-109054167D01*
X83238646Y-109125548D01*
X83336351Y-109228632D01*
X83401057Y-109355067D01*
X83427520Y-109494610D01*
X83413598Y-109635956D01*
X83369096Y-109752095D01*
X83271186Y-109935271D01*
X83271185Y-109935272D01*
X83213976Y-110123866D01*
X83194659Y-110319999D01*
X83194659Y-110320000D01*
X83213976Y-110516133D01*
X83271185Y-110704727D01*
X83271187Y-110704731D01*
X83355806Y-110863040D01*
X83364090Y-110878538D01*
X83377469Y-110894840D01*
X83489116Y-111030883D01*
X83566063Y-111094031D01*
X83641462Y-111155910D01*
X83641464Y-111155911D01*
X83815268Y-111248812D01*
X83815272Y-111248814D01*
X83897392Y-111273724D01*
X84003868Y-111306024D01*
X84178571Y-111323230D01*
X84199999Y-111325341D01*
X84200000Y-111325341D01*
X84200001Y-111325341D01*
X84219318Y-111323438D01*
X84396132Y-111306024D01*
X84584727Y-111248814D01*
X84590430Y-111245766D01*
X84657376Y-111209982D01*
X84758538Y-111155910D01*
X84910883Y-111030883D01*
X85035910Y-110878538D01*
X85128814Y-110704727D01*
X85186024Y-110516132D01*
X85205341Y-110320000D01*
X85186024Y-110123868D01*
X85128814Y-109935273D01*
X85128814Y-109935272D01*
X85128812Y-109935268D01*
X85030904Y-109752096D01*
X84982459Y-109618583D01*
X84973591Y-109476830D01*
X85005019Y-109338321D01*
X85074196Y-109214276D01*
X85175518Y-109114746D01*
X85300778Y-109047793D01*
X85395892Y-109026210D01*
X85395708Y-109025282D01*
X85478228Y-109008868D01*
X85478229Y-109008867D01*
X85478231Y-109008867D01*
X85544552Y-108964552D01*
X85588867Y-108898231D01*
X85600499Y-108839754D01*
X88799500Y-108839754D01*
X88811131Y-108898228D01*
X88811133Y-108898232D01*
X88855447Y-108964551D01*
X88855448Y-108964552D01*
X88921767Y-109008866D01*
X88921771Y-109008868D01*
X89004292Y-109025282D01*
X89004013Y-109026681D01*
X89115856Y-109054167D01*
X89238646Y-109125548D01*
X89336351Y-109228632D01*
X89401057Y-109355067D01*
X89427520Y-109494610D01*
X89413598Y-109635956D01*
X89369096Y-109752095D01*
X89271186Y-109935271D01*
X89271185Y-109935272D01*
X89213976Y-110123866D01*
X89194659Y-110319999D01*
X89194659Y-110320000D01*
X89213976Y-110516133D01*
X89271185Y-110704727D01*
X89271187Y-110704731D01*
X89355806Y-110863040D01*
X89364090Y-110878538D01*
X89377469Y-110894840D01*
X89489116Y-111030883D01*
X89566063Y-111094031D01*
X89641462Y-111155910D01*
X89641464Y-111155911D01*
X89815268Y-111248812D01*
X89815272Y-111248814D01*
X89897392Y-111273724D01*
X90003868Y-111306024D01*
X90178571Y-111323230D01*
X90199999Y-111325341D01*
X90200000Y-111325341D01*
X90200001Y-111325341D01*
X90219318Y-111323438D01*
X90396132Y-111306024D01*
X90584727Y-111248814D01*
X90590430Y-111245766D01*
X90657376Y-111209982D01*
X90758538Y-111155910D01*
X90910883Y-111030883D01*
X91035910Y-110878538D01*
X91128814Y-110704727D01*
X91186024Y-110516132D01*
X91205341Y-110320000D01*
X91186024Y-110123868D01*
X91128814Y-109935273D01*
X91128814Y-109935272D01*
X91128812Y-109935268D01*
X91030904Y-109752096D01*
X90982459Y-109618583D01*
X90973591Y-109476830D01*
X91005019Y-109338321D01*
X91074196Y-109214276D01*
X91175518Y-109114746D01*
X91300778Y-109047793D01*
X91395892Y-109026210D01*
X91395708Y-109025282D01*
X91478228Y-109008868D01*
X91478229Y-109008867D01*
X91478231Y-109008867D01*
X91544552Y-108964552D01*
X91588867Y-108898231D01*
X91600500Y-108839748D01*
X91600500Y-106400252D01*
X91600499Y-106400245D01*
X91588868Y-106341771D01*
X91588866Y-106341767D01*
X91544552Y-106275448D01*
X91544551Y-106275447D01*
X91478232Y-106231133D01*
X91478228Y-106231131D01*
X91419754Y-106219500D01*
X91419748Y-106219500D01*
X88980252Y-106219500D01*
X88980245Y-106219500D01*
X88921771Y-106231131D01*
X88921767Y-106231133D01*
X88855448Y-106275447D01*
X88855447Y-106275448D01*
X88811133Y-106341767D01*
X88811131Y-106341771D01*
X88799500Y-106400245D01*
X88799500Y-108839754D01*
X85600499Y-108839754D01*
X85600500Y-108839748D01*
X85600500Y-106400252D01*
X85600499Y-106400245D01*
X85588868Y-106341771D01*
X85588866Y-106341767D01*
X85544552Y-106275448D01*
X85544551Y-106275447D01*
X85478232Y-106231133D01*
X85478228Y-106231131D01*
X85419754Y-106219500D01*
X85419748Y-106219500D01*
X82980252Y-106219500D01*
X82980245Y-106219500D01*
X82921771Y-106231131D01*
X82921767Y-106231133D01*
X82855448Y-106275447D01*
X82855447Y-106275448D01*
X82811133Y-106341767D01*
X82811131Y-106341771D01*
X82799500Y-106400245D01*
X82799500Y-108839754D01*
X79000499Y-108839754D01*
X79000500Y-108839748D01*
X79000500Y-106400252D01*
X79000499Y-106400245D01*
X78988868Y-106341771D01*
X78988866Y-106341767D01*
X78944552Y-106275448D01*
X78944551Y-106275447D01*
X78878232Y-106231133D01*
X78878228Y-106231131D01*
X78819754Y-106219500D01*
X78819748Y-106219500D01*
X76380252Y-106219500D01*
X76380245Y-106219500D01*
X76321771Y-106231131D01*
X76321767Y-106231133D01*
X76255448Y-106275447D01*
X76255447Y-106275448D01*
X76211133Y-106341767D01*
X76211131Y-106341771D01*
X76199500Y-106400245D01*
X76199500Y-108839754D01*
X73000499Y-108839754D01*
X73000500Y-108839748D01*
X73000500Y-106400252D01*
X73000499Y-106400245D01*
X72988868Y-106341771D01*
X72988866Y-106341767D01*
X72944552Y-106275448D01*
X72944551Y-106275447D01*
X72878232Y-106231133D01*
X72878228Y-106231131D01*
X72819754Y-106219500D01*
X72819748Y-106219500D01*
X70649500Y-106219500D01*
X70508915Y-106199287D01*
X70379720Y-106140286D01*
X70272381Y-106047276D01*
X70195594Y-105927792D01*
X70155579Y-105791515D01*
X70150500Y-105720500D01*
X70150500Y-105059114D01*
X70170713Y-104918529D01*
X70229714Y-104789334D01*
X70322724Y-104681995D01*
X70442208Y-104605208D01*
X70578485Y-104565193D01*
X70720515Y-104565193D01*
X70856792Y-104605208D01*
X70884729Y-104619037D01*
X71015265Y-104688811D01*
X71015272Y-104688814D01*
X71097392Y-104713724D01*
X71203868Y-104746024D01*
X71378571Y-104763230D01*
X71399999Y-104765341D01*
X71400000Y-104765341D01*
X71400001Y-104765341D01*
X71419318Y-104763438D01*
X71596132Y-104746024D01*
X71784727Y-104688814D01*
X71797485Y-104681995D01*
X71915270Y-104619037D01*
X71958538Y-104595910D01*
X72110883Y-104470883D01*
X72235910Y-104318538D01*
X72328814Y-104144727D01*
X72386024Y-103956132D01*
X72403403Y-103779676D01*
X72437298Y-103641751D01*
X72508679Y-103518961D01*
X72611762Y-103421255D01*
X72738197Y-103356549D01*
X72877740Y-103330085D01*
X73019086Y-103344006D01*
X73150785Y-103397185D01*
X73262166Y-103485314D01*
X73344207Y-103601253D01*
X73390261Y-103735610D01*
X73396597Y-103779677D01*
X73413976Y-103956133D01*
X73471185Y-104144727D01*
X73471187Y-104144731D01*
X73559442Y-104309843D01*
X73564090Y-104318538D01*
X73603600Y-104366681D01*
X73689116Y-104470883D01*
X73737001Y-104510181D01*
X73841462Y-104595910D01*
X73841464Y-104595911D01*
X74015268Y-104688812D01*
X74015272Y-104688814D01*
X74097392Y-104713724D01*
X74203868Y-104746024D01*
X74378571Y-104763230D01*
X74399999Y-104765341D01*
X74400000Y-104765341D01*
X74400001Y-104765341D01*
X74419318Y-104763438D01*
X74596132Y-104746024D01*
X74784727Y-104688814D01*
X74797485Y-104681995D01*
X74915270Y-104619037D01*
X74958538Y-104595910D01*
X75110883Y-104470883D01*
X75235910Y-104318538D01*
X75328814Y-104144727D01*
X75386024Y-103956132D01*
X75404388Y-103769675D01*
X75438281Y-103631753D01*
X75509662Y-103508963D01*
X75612744Y-103411257D01*
X75739179Y-103346550D01*
X75878721Y-103320085D01*
X76020068Y-103334006D01*
X76151767Y-103387184D01*
X76263149Y-103475313D01*
X76345190Y-103591252D01*
X76391245Y-103725608D01*
X76397581Y-103769675D01*
X76413976Y-103936134D01*
X76471185Y-104124727D01*
X76471187Y-104124731D01*
X76564088Y-104298535D01*
X76689116Y-104450883D01*
X76761371Y-104510181D01*
X76841462Y-104575910D01*
X76841464Y-104575911D01*
X77015268Y-104668812D01*
X77015272Y-104668814D01*
X77069755Y-104685341D01*
X77203868Y-104726024D01*
X77378571Y-104743230D01*
X77399999Y-104745341D01*
X77400000Y-104745341D01*
X77400001Y-104745341D01*
X77419318Y-104743438D01*
X77596132Y-104726024D01*
X77784727Y-104668814D01*
X77958538Y-104575910D01*
X78110883Y-104450883D01*
X78235910Y-104298538D01*
X78328814Y-104124727D01*
X78386024Y-103936132D01*
X78405341Y-103740000D01*
X78386024Y-103543868D01*
X78328814Y-103355273D01*
X78328814Y-103355272D01*
X78328812Y-103355268D01*
X78235911Y-103181464D01*
X78235910Y-103181462D01*
X78127297Y-103049117D01*
X78110882Y-103029115D01*
X78000107Y-102938204D01*
X77904257Y-102833393D01*
X77841818Y-102705824D01*
X77834673Y-102681625D01*
X77819799Y-102626114D01*
X77819799Y-102626113D01*
X77760490Y-102523386D01*
X77349064Y-102111960D01*
X76876617Y-101639513D01*
X76876612Y-101639509D01*
X76773889Y-101580202D01*
X76773889Y-101580201D01*
X76754984Y-101575136D01*
X76748062Y-101573281D01*
X76748061Y-101573281D01*
X76659310Y-101549500D01*
X76659309Y-101549500D01*
X75649500Y-101549500D01*
X75508915Y-101529287D01*
X75379720Y-101470286D01*
X75272381Y-101377276D01*
X75195594Y-101257792D01*
X75155579Y-101121515D01*
X75150500Y-101050500D01*
X75150500Y-99440691D01*
X75119799Y-99326114D01*
X75110983Y-99310844D01*
X75060490Y-99223387D01*
X74175641Y-98338538D01*
X73239450Y-97402346D01*
X73154334Y-97288645D01*
X73104700Y-97155570D01*
X73094567Y-97013902D01*
X73124758Y-96875117D01*
X73192826Y-96750460D01*
X73293257Y-96650030D01*
X73417914Y-96581962D01*
X73556698Y-96551771D01*
X73592296Y-96550500D01*
X85506705Y-96550500D01*
X85647290Y-96570713D01*
X85776485Y-96629714D01*
X85859551Y-96696654D01*
X86403346Y-97240449D01*
X86488462Y-97354150D01*
X86538096Y-97487225D01*
X86549500Y-97593295D01*
X86549500Y-101150500D01*
X86529287Y-101291085D01*
X86470286Y-101420280D01*
X86377276Y-101527619D01*
X86257792Y-101604406D01*
X86121515Y-101644421D01*
X86050500Y-101649500D01*
X84440691Y-101649500D01*
X84350326Y-101673713D01*
X84350323Y-101673713D01*
X84326117Y-101680199D01*
X84326112Y-101680201D01*
X84223384Y-101739511D01*
X83639511Y-102323384D01*
X83580200Y-102426114D01*
X83575069Y-102445266D01*
X83549499Y-102540693D01*
X83545231Y-102573116D01*
X83541843Y-102572670D01*
X83529287Y-102660001D01*
X83470286Y-102789196D01*
X83377276Y-102896535D01*
X83367063Y-102905147D01*
X83289117Y-102969115D01*
X83164088Y-103121464D01*
X83071187Y-103295268D01*
X83071185Y-103295272D01*
X83013976Y-103483866D01*
X82994659Y-103679999D01*
X82994659Y-103680000D01*
X83013976Y-103876133D01*
X83071185Y-104064727D01*
X83071187Y-104064731D01*
X83164088Y-104238535D01*
X83289116Y-104390883D01*
X83362227Y-104450883D01*
X83441462Y-104515910D01*
X83441464Y-104515911D01*
X83615268Y-104608812D01*
X83615272Y-104608814D01*
X83697392Y-104633724D01*
X83803868Y-104666024D01*
X83978571Y-104683230D01*
X83999999Y-104685341D01*
X84000000Y-104685341D01*
X84000001Y-104685341D01*
X84019318Y-104683438D01*
X84196132Y-104666024D01*
X84384727Y-104608814D01*
X84391474Y-104605208D01*
X84466336Y-104565193D01*
X84558538Y-104515910D01*
X84710883Y-104390883D01*
X84835910Y-104238538D01*
X84928814Y-104064727D01*
X84986024Y-103876132D01*
X85003403Y-103699676D01*
X85037298Y-103561751D01*
X85108679Y-103438961D01*
X85211762Y-103341255D01*
X85338197Y-103276549D01*
X85477740Y-103250085D01*
X85619086Y-103264006D01*
X85750785Y-103317185D01*
X85862166Y-103405314D01*
X85944207Y-103521253D01*
X85990261Y-103655610D01*
X85996597Y-103699677D01*
X86013976Y-103876133D01*
X86071185Y-104064727D01*
X86071187Y-104064731D01*
X86164088Y-104238535D01*
X86289116Y-104390883D01*
X86362227Y-104450883D01*
X86441462Y-104515910D01*
X86441464Y-104515911D01*
X86615268Y-104608812D01*
X86615272Y-104608814D01*
X86697392Y-104633724D01*
X86803868Y-104666024D01*
X86978571Y-104683230D01*
X86999999Y-104685341D01*
X87000000Y-104685341D01*
X87000001Y-104685341D01*
X87019318Y-104683438D01*
X87196132Y-104666024D01*
X87384727Y-104608814D01*
X87391474Y-104605208D01*
X87466336Y-104565193D01*
X87558538Y-104515910D01*
X87710883Y-104390883D01*
X87835910Y-104238538D01*
X87928814Y-104064727D01*
X87986024Y-103876132D01*
X88003403Y-103699676D01*
X88037298Y-103561751D01*
X88108679Y-103438961D01*
X88211762Y-103341255D01*
X88338197Y-103276549D01*
X88477740Y-103250085D01*
X88619086Y-103264006D01*
X88750785Y-103317185D01*
X88862166Y-103405314D01*
X88944207Y-103521253D01*
X88990261Y-103655610D01*
X88996597Y-103699677D01*
X89013976Y-103876133D01*
X89071185Y-104064727D01*
X89071187Y-104064731D01*
X89164088Y-104238535D01*
X89289116Y-104390883D01*
X89362227Y-104450883D01*
X89441462Y-104515910D01*
X89441464Y-104515911D01*
X89615268Y-104608812D01*
X89615272Y-104608814D01*
X89697392Y-104633724D01*
X89803868Y-104666024D01*
X89978571Y-104683230D01*
X89999999Y-104685341D01*
X90000000Y-104685341D01*
X90000001Y-104685341D01*
X90019318Y-104683438D01*
X90196132Y-104666024D01*
X90384727Y-104608814D01*
X90391474Y-104605208D01*
X90466336Y-104565193D01*
X90558538Y-104515910D01*
X90710883Y-104390883D01*
X90835910Y-104238538D01*
X90928814Y-104064727D01*
X90986024Y-103876132D01*
X91005341Y-103680000D01*
X90986024Y-103483868D01*
X90928814Y-103295273D01*
X90928814Y-103295272D01*
X90928812Y-103295268D01*
X90835911Y-103121464D01*
X90835910Y-103121462D01*
X90759338Y-103028159D01*
X90710882Y-102969115D01*
X90632937Y-102905147D01*
X90537087Y-102800336D01*
X90474648Y-102672767D01*
X90457524Y-102572753D01*
X90454769Y-102573116D01*
X90450500Y-102540693D01*
X90450500Y-102540691D01*
X90419799Y-102426114D01*
X90419799Y-102426113D01*
X90360490Y-102323386D01*
X90149064Y-102111960D01*
X89776617Y-101739513D01*
X89776612Y-101739509D01*
X89673889Y-101680202D01*
X89673888Y-101680201D01*
X89673887Y-101680201D01*
X89649677Y-101673714D01*
X89649670Y-101673712D01*
X89649669Y-101673712D01*
X89559309Y-101649500D01*
X87949500Y-101649500D01*
X87808915Y-101629287D01*
X87679720Y-101570286D01*
X87572381Y-101477276D01*
X87495594Y-101357792D01*
X87455579Y-101221515D01*
X87450500Y-101150500D01*
X87450500Y-97140691D01*
X87423705Y-97040691D01*
X87419799Y-97026114D01*
X87419799Y-97026113D01*
X87362064Y-96926114D01*
X87360488Y-96923384D01*
X86176617Y-95739513D01*
X86176612Y-95739509D01*
X86073889Y-95680202D01*
X86073888Y-95680201D01*
X86073887Y-95680201D01*
X86067396Y-95678462D01*
X86049670Y-95673712D01*
X86049669Y-95673712D01*
X85959309Y-95649500D01*
X71893296Y-95649500D01*
X71752711Y-95629287D01*
X71623516Y-95570286D01*
X71540450Y-95503346D01*
X71438277Y-95401173D01*
X71353161Y-95287472D01*
X71303527Y-95154397D01*
X71293394Y-95012729D01*
X71323585Y-94873944D01*
X71391653Y-94749287D01*
X71492083Y-94648857D01*
X71616740Y-94580789D01*
X71646239Y-94570823D01*
X71784727Y-94528814D01*
X71958538Y-94435910D01*
X72110883Y-94310883D01*
X72235910Y-94158538D01*
X72328814Y-93984727D01*
X72386024Y-93796132D01*
X72405341Y-93600000D01*
X72386024Y-93403868D01*
X72341939Y-93258541D01*
X72328814Y-93215272D01*
X72328812Y-93215268D01*
X72230904Y-93032096D01*
X72182459Y-92898583D01*
X72173591Y-92756830D01*
X72205019Y-92618321D01*
X72274196Y-92494276D01*
X72375518Y-92394746D01*
X72500778Y-92327793D01*
X72595892Y-92306210D01*
X72595708Y-92305282D01*
X72678228Y-92288868D01*
X72678229Y-92288867D01*
X72678231Y-92288867D01*
X72744552Y-92244552D01*
X72788867Y-92178231D01*
X72800499Y-92119754D01*
X75999500Y-92119754D01*
X76011131Y-92178228D01*
X76011133Y-92178232D01*
X76055447Y-92244551D01*
X76055448Y-92244552D01*
X76121767Y-92288866D01*
X76121771Y-92288868D01*
X76204292Y-92305282D01*
X76203729Y-92308108D01*
X76305674Y-92333156D01*
X76428468Y-92404530D01*
X76526179Y-92507608D01*
X76590891Y-92634039D01*
X76617363Y-92773581D01*
X76603449Y-92914928D01*
X76558941Y-93031092D01*
X76471186Y-93195270D01*
X76471185Y-93195272D01*
X76413976Y-93383866D01*
X76394659Y-93579999D01*
X76394659Y-93580000D01*
X76413976Y-93776133D01*
X76471185Y-93964727D01*
X76471187Y-93964731D01*
X76564088Y-94138535D01*
X76564090Y-94138538D01*
X76582114Y-94160500D01*
X76689116Y-94290883D01*
X76761371Y-94350181D01*
X76841462Y-94415910D01*
X76841464Y-94415911D01*
X77015268Y-94508812D01*
X77015272Y-94508814D01*
X77069755Y-94525341D01*
X77203868Y-94566024D01*
X77378571Y-94583230D01*
X77399999Y-94585341D01*
X77400000Y-94585341D01*
X77400001Y-94585341D01*
X77419318Y-94583438D01*
X77596132Y-94566024D01*
X77784727Y-94508814D01*
X77958538Y-94415910D01*
X78110883Y-94290883D01*
X78235910Y-94138538D01*
X78328814Y-93964727D01*
X78386024Y-93776132D01*
X78405341Y-93580000D01*
X78386024Y-93383868D01*
X78334881Y-93215272D01*
X78328814Y-93195272D01*
X78328813Y-93195271D01*
X78241059Y-93031094D01*
X78192614Y-92897581D01*
X78183747Y-92755828D01*
X78215175Y-92617318D01*
X78284353Y-92493274D01*
X78385676Y-92393744D01*
X78510935Y-92326791D01*
X78596141Y-92307460D01*
X78595708Y-92305282D01*
X78678228Y-92288868D01*
X78678229Y-92288867D01*
X78678231Y-92288867D01*
X78744552Y-92244552D01*
X78788867Y-92178231D01*
X78800499Y-92119754D01*
X82624500Y-92119754D01*
X82636131Y-92178228D01*
X82636133Y-92178232D01*
X82680447Y-92244551D01*
X82680448Y-92244552D01*
X82746767Y-92288866D01*
X82746769Y-92288867D01*
X82789046Y-92297276D01*
X82922982Y-92344525D01*
X83038185Y-92427596D01*
X83125318Y-92539759D01*
X83177321Y-92671927D01*
X83189982Y-92813391D01*
X83162275Y-92952693D01*
X83131777Y-93021913D01*
X83071186Y-93135270D01*
X83071185Y-93135272D01*
X83013976Y-93323866D01*
X82994659Y-93519999D01*
X82994659Y-93520000D01*
X83013976Y-93716133D01*
X83071185Y-93904727D01*
X83071187Y-93904731D01*
X83164088Y-94078535D01*
X83289116Y-94230883D01*
X83362227Y-94290883D01*
X83441462Y-94355910D01*
X83441464Y-94355911D01*
X83615268Y-94448812D01*
X83615272Y-94448814D01*
X83649870Y-94459309D01*
X83803868Y-94506024D01*
X83978571Y-94523230D01*
X83999999Y-94525341D01*
X84000000Y-94525341D01*
X84000001Y-94525341D01*
X84019318Y-94523438D01*
X84196132Y-94506024D01*
X84384727Y-94448814D01*
X84558538Y-94355910D01*
X84710883Y-94230883D01*
X84835910Y-94078538D01*
X84928814Y-93904727D01*
X84986024Y-93716132D01*
X85005341Y-93520000D01*
X84986024Y-93323868D01*
X84946285Y-93192867D01*
X84928814Y-93135272D01*
X84928812Y-93135268D01*
X84872777Y-93030434D01*
X84824332Y-92896921D01*
X84815464Y-92755168D01*
X84846892Y-92616658D01*
X84916069Y-92492614D01*
X85017392Y-92393083D01*
X85142651Y-92326131D01*
X85221305Y-92308284D01*
X85220708Y-92305282D01*
X85303228Y-92288868D01*
X85303229Y-92288867D01*
X85303231Y-92288867D01*
X85369552Y-92244552D01*
X85413867Y-92178231D01*
X85425499Y-92119754D01*
X88624500Y-92119754D01*
X88636131Y-92178228D01*
X88636133Y-92178232D01*
X88680447Y-92244551D01*
X88680448Y-92244552D01*
X88746767Y-92288866D01*
X88746769Y-92288867D01*
X88789046Y-92297276D01*
X88922982Y-92344525D01*
X89038185Y-92427596D01*
X89125318Y-92539759D01*
X89177321Y-92671927D01*
X89189982Y-92813391D01*
X89162275Y-92952693D01*
X89131777Y-93021913D01*
X89071186Y-93135270D01*
X89071185Y-93135272D01*
X89013976Y-93323866D01*
X88994659Y-93519999D01*
X88994659Y-93520000D01*
X89013976Y-93716133D01*
X89071185Y-93904727D01*
X89071187Y-93904731D01*
X89164088Y-94078535D01*
X89289116Y-94230883D01*
X89362227Y-94290883D01*
X89441462Y-94355910D01*
X89441464Y-94355911D01*
X89615268Y-94448812D01*
X89615272Y-94448814D01*
X89649870Y-94459309D01*
X89803868Y-94506024D01*
X89978571Y-94523230D01*
X89999999Y-94525341D01*
X90000000Y-94525341D01*
X90000001Y-94525341D01*
X90019318Y-94523438D01*
X90196132Y-94506024D01*
X90384727Y-94448814D01*
X90558538Y-94355910D01*
X90710883Y-94230883D01*
X90835910Y-94078538D01*
X90928814Y-93904727D01*
X90986024Y-93716132D01*
X91005341Y-93520000D01*
X90986024Y-93323868D01*
X90946285Y-93192867D01*
X90928814Y-93135272D01*
X90928812Y-93135268D01*
X90872777Y-93030434D01*
X90824332Y-92896921D01*
X90815464Y-92755168D01*
X90846892Y-92616658D01*
X90916069Y-92492614D01*
X91017392Y-92393083D01*
X91142651Y-92326131D01*
X91221305Y-92308284D01*
X91220708Y-92305282D01*
X91303228Y-92288868D01*
X91303229Y-92288867D01*
X91303231Y-92288867D01*
X91369552Y-92244552D01*
X91413867Y-92178231D01*
X91425500Y-92119748D01*
X91425500Y-89680252D01*
X91425499Y-89680245D01*
X91413868Y-89621771D01*
X91413866Y-89621767D01*
X91369552Y-89555448D01*
X91369551Y-89555447D01*
X91303232Y-89511133D01*
X91303228Y-89511131D01*
X91244754Y-89499500D01*
X91244748Y-89499500D01*
X88805252Y-89499500D01*
X88805245Y-89499500D01*
X88746771Y-89511131D01*
X88746767Y-89511133D01*
X88680448Y-89555447D01*
X88680447Y-89555448D01*
X88636133Y-89621767D01*
X88636131Y-89621771D01*
X88624500Y-89680245D01*
X88624500Y-92119754D01*
X85425499Y-92119754D01*
X85425500Y-92119748D01*
X85425500Y-89680252D01*
X85425499Y-89680245D01*
X85413868Y-89621771D01*
X85413866Y-89621767D01*
X85369552Y-89555448D01*
X85369551Y-89555447D01*
X85303232Y-89511133D01*
X85303228Y-89511131D01*
X85244754Y-89499500D01*
X85244748Y-89499500D01*
X82805252Y-89499500D01*
X82805245Y-89499500D01*
X82746771Y-89511131D01*
X82746767Y-89511133D01*
X82680448Y-89555447D01*
X82680447Y-89555448D01*
X82636133Y-89621767D01*
X82636131Y-89621771D01*
X82624500Y-89680245D01*
X82624500Y-92119754D01*
X78800499Y-92119754D01*
X78800500Y-92119748D01*
X78800500Y-89680252D01*
X78800499Y-89680245D01*
X78788868Y-89621771D01*
X78788866Y-89621767D01*
X78744552Y-89555448D01*
X78744551Y-89555447D01*
X78678232Y-89511133D01*
X78678228Y-89511131D01*
X78619754Y-89499500D01*
X78619748Y-89499500D01*
X76180252Y-89499500D01*
X76180245Y-89499500D01*
X76121771Y-89511131D01*
X76121767Y-89511133D01*
X76055448Y-89555447D01*
X76055447Y-89555448D01*
X76011133Y-89621767D01*
X76011131Y-89621771D01*
X75999500Y-89680245D01*
X75999500Y-92119754D01*
X72800499Y-92119754D01*
X72800500Y-92119748D01*
X72800500Y-89680252D01*
X72800499Y-89680245D01*
X72788868Y-89621771D01*
X72788866Y-89621767D01*
X72744552Y-89555448D01*
X72744551Y-89555447D01*
X72678232Y-89511133D01*
X72678228Y-89511131D01*
X72619754Y-89499500D01*
X72619748Y-89499500D01*
X70249500Y-89499500D01*
X70108915Y-89479287D01*
X69979720Y-89420286D01*
X69872381Y-89327276D01*
X69795594Y-89207792D01*
X69755579Y-89071515D01*
X69750500Y-89000500D01*
X69750500Y-88678556D01*
X69770713Y-88537971D01*
X69829714Y-88408776D01*
X69922724Y-88301437D01*
X70042208Y-88224650D01*
X70178485Y-88184635D01*
X70320515Y-88184635D01*
X70456792Y-88224650D01*
X70498996Y-88246407D01*
X70523384Y-88260487D01*
X70523386Y-88260489D01*
X70582690Y-88294727D01*
X70582693Y-88294730D01*
X70582694Y-88294730D01*
X70582696Y-88294731D01*
X70626114Y-88319799D01*
X70694860Y-88338219D01*
X70740689Y-88350500D01*
X70740691Y-88350500D01*
X91906705Y-88350500D01*
X92047290Y-88370713D01*
X92176485Y-88429714D01*
X92259551Y-88496654D01*
X92703346Y-88940449D01*
X92788462Y-89054150D01*
X92838096Y-89187225D01*
X92849500Y-89293295D01*
X92849500Y-94159308D01*
X92873711Y-94249666D01*
X92880200Y-94273883D01*
X92880202Y-94273889D01*
X92939509Y-94376612D01*
X92939513Y-94376617D01*
X93788974Y-95226078D01*
X94623386Y-96060490D01*
X94726113Y-96119799D01*
X94750308Y-96126281D01*
X94750322Y-96126287D01*
X94750322Y-96126285D01*
X94750326Y-96126286D01*
X94840691Y-96150500D01*
X95113153Y-96150500D01*
X95253738Y-96170713D01*
X95382933Y-96229714D01*
X95490272Y-96322724D01*
X95498887Y-96332940D01*
X95502863Y-96337785D01*
X95642211Y-96477133D01*
X95642218Y-96477139D01*
X95758890Y-96555097D01*
X95864552Y-96650009D01*
X95939194Y-96770844D01*
X95976770Y-96907813D01*
X95974234Y-97049821D01*
X95931794Y-97185362D01*
X95852886Y-97303455D01*
X95758890Y-97384903D01*
X95642218Y-97462860D01*
X95642211Y-97462866D01*
X95502866Y-97602211D01*
X95502857Y-97602222D01*
X95393372Y-97766078D01*
X95393366Y-97766090D01*
X95362466Y-97840691D01*
X95317949Y-97948165D01*
X95287002Y-98103748D01*
X95279500Y-98141461D01*
X95279500Y-98338538D01*
X95279499Y-98338538D01*
X95279500Y-98338541D01*
X95317949Y-98531835D01*
X95317950Y-98531839D01*
X95317951Y-98531840D01*
X95393366Y-98713909D01*
X95393372Y-98713921D01*
X95502857Y-98877777D01*
X95502866Y-98877788D01*
X95642211Y-99017133D01*
X95642218Y-99017139D01*
X95758890Y-99095097D01*
X95864552Y-99190009D01*
X95939194Y-99310844D01*
X95976770Y-99447813D01*
X95974234Y-99589821D01*
X95931794Y-99725362D01*
X95852886Y-99843455D01*
X95758890Y-99924903D01*
X95642218Y-100002860D01*
X95642211Y-100002866D01*
X95502866Y-100142211D01*
X95502857Y-100142222D01*
X95393372Y-100306078D01*
X95393366Y-100306090D01*
X95368465Y-100366208D01*
X95317949Y-100488165D01*
X95287002Y-100643748D01*
X95279500Y-100681461D01*
X95279500Y-100878538D01*
X95279499Y-100878538D01*
X95279500Y-100878541D01*
X95317949Y-101071835D01*
X95317950Y-101071839D01*
X95317951Y-101071840D01*
X95393366Y-101253909D01*
X95393372Y-101253921D01*
X95502857Y-101417777D01*
X95502866Y-101417788D01*
X95642211Y-101557133D01*
X95642218Y-101557139D01*
X95758890Y-101635097D01*
X95864552Y-101730009D01*
X95939194Y-101850844D01*
X95976770Y-101987813D01*
X95974234Y-102129821D01*
X95931794Y-102265362D01*
X95852886Y-102383455D01*
X95758890Y-102464903D01*
X95642218Y-102542860D01*
X95642211Y-102542866D01*
X95502866Y-102682211D01*
X95502857Y-102682222D01*
X95393372Y-102846078D01*
X95393366Y-102846090D01*
X95342792Y-102968189D01*
X95317949Y-103028165D01*
X95287002Y-103183748D01*
X95279500Y-103221461D01*
X95279500Y-103418538D01*
X95279499Y-103418538D01*
X95283562Y-103438961D01*
X95317949Y-103611835D01*
X95317950Y-103611839D01*
X95317951Y-103611840D01*
X95336081Y-103655610D01*
X95379320Y-103760000D01*
X95393366Y-103793909D01*
X95393372Y-103793921D01*
X95502857Y-103957777D01*
X95502866Y-103957788D01*
X95642211Y-104097133D01*
X95642218Y-104097139D01*
X95758890Y-104175097D01*
X95864552Y-104270009D01*
X95939194Y-104390844D01*
X95976770Y-104527813D01*
X95974234Y-104669821D01*
X95931794Y-104805362D01*
X95852886Y-104923455D01*
X95758890Y-105004903D01*
X95642218Y-105082860D01*
X95642211Y-105082866D01*
X95502866Y-105222211D01*
X95502857Y-105222222D01*
X95393372Y-105386078D01*
X95393366Y-105386090D01*
X95320581Y-105561811D01*
X95317949Y-105568165D01*
X95282110Y-105748342D01*
X95279500Y-105761461D01*
X95279500Y-105958538D01*
X95279499Y-105958538D01*
X95296112Y-106042053D01*
X95317949Y-106151835D01*
X95317950Y-106151839D01*
X95317951Y-106151840D01*
X95393366Y-106333909D01*
X95393372Y-106333921D01*
X95502857Y-106497777D01*
X95502866Y-106497788D01*
X95642211Y-106637133D01*
X95642222Y-106637142D01*
X95806078Y-106746627D01*
X95806080Y-106746628D01*
X95806086Y-106746632D01*
X95988165Y-106822051D01*
X96181459Y-106860500D01*
X96181461Y-106860500D01*
X97178538Y-106860500D01*
X97178541Y-106860500D01*
X97371835Y-106822051D01*
X97553914Y-106746632D01*
X97717782Y-106637139D01*
X97857139Y-106497782D01*
X97966632Y-106333914D01*
X98042051Y-106151835D01*
X98080500Y-105958541D01*
X98080500Y-105761459D01*
X98042051Y-105568165D01*
X97966632Y-105386086D01*
X97857139Y-105222218D01*
X97857137Y-105222216D01*
X97857133Y-105222211D01*
X97717784Y-105082862D01*
X97663428Y-105046543D01*
X97601107Y-105004901D01*
X97495448Y-104909993D01*
X97420805Y-104789158D01*
X97383229Y-104652188D01*
X97385764Y-104510181D01*
X97428205Y-104374640D01*
X97507112Y-104256546D01*
X97601106Y-104175098D01*
X97717782Y-104097139D01*
X97857139Y-103957782D01*
X97966632Y-103793914D01*
X98042051Y-103611835D01*
X98080500Y-103418541D01*
X98080500Y-103221459D01*
X98042051Y-103028165D01*
X97966632Y-102846086D01*
X97965298Y-102844090D01*
X97857142Y-102682222D01*
X97857133Y-102682211D01*
X97717784Y-102542862D01*
X97676034Y-102514966D01*
X97601107Y-102464901D01*
X97495448Y-102369993D01*
X97420805Y-102249158D01*
X97383229Y-102112188D01*
X97385764Y-101970181D01*
X97428205Y-101834640D01*
X97507112Y-101716546D01*
X97601106Y-101635098D01*
X97717782Y-101557139D01*
X97857139Y-101417782D01*
X97966632Y-101253914D01*
X98042051Y-101071835D01*
X98080500Y-100878541D01*
X98080500Y-100681459D01*
X98042051Y-100488165D01*
X97966632Y-100306086D01*
X97864820Y-100153714D01*
X97857142Y-100142222D01*
X97857133Y-100142211D01*
X97717784Y-100002862D01*
X97678747Y-99976778D01*
X97601107Y-99924901D01*
X97495448Y-99829993D01*
X97420805Y-99709158D01*
X97383229Y-99572188D01*
X97385764Y-99430181D01*
X97428205Y-99294640D01*
X97507112Y-99176546D01*
X97601106Y-99095098D01*
X97717782Y-99017139D01*
X97857139Y-98877782D01*
X97966632Y-98713914D01*
X98042051Y-98531835D01*
X98080500Y-98338541D01*
X98080500Y-98141459D01*
X98042051Y-97948165D01*
X97966632Y-97766086D01*
X97900098Y-97666511D01*
X97857142Y-97602222D01*
X97857133Y-97602211D01*
X97717784Y-97462862D01*
X97678747Y-97436778D01*
X97601107Y-97384901D01*
X97495448Y-97289993D01*
X97420805Y-97169158D01*
X97383229Y-97032188D01*
X97385764Y-96890181D01*
X97428205Y-96754640D01*
X97507112Y-96636546D01*
X97601106Y-96555098D01*
X97717782Y-96477139D01*
X97857139Y-96337782D01*
X97966632Y-96173914D01*
X98042051Y-95991835D01*
X98080500Y-95798541D01*
X98080500Y-95601459D01*
X98042051Y-95408165D01*
X97966632Y-95226086D01*
X97913047Y-95145891D01*
X97857142Y-95062222D01*
X97857133Y-95062211D01*
X97717784Y-94922862D01*
X97644572Y-94873944D01*
X97601107Y-94844901D01*
X97495448Y-94749993D01*
X97420805Y-94629158D01*
X97383229Y-94492188D01*
X97385764Y-94350181D01*
X97428205Y-94214640D01*
X97507112Y-94096546D01*
X97601106Y-94015098D01*
X97717782Y-93937139D01*
X97857139Y-93797782D01*
X97966632Y-93633914D01*
X98042051Y-93451835D01*
X98080500Y-93258541D01*
X98080500Y-93061459D01*
X98042051Y-92868165D01*
X97966632Y-92686086D01*
X97965298Y-92684090D01*
X97857142Y-92522222D01*
X97857133Y-92522211D01*
X97768984Y-92434062D01*
X97683868Y-92320361D01*
X97634234Y-92187286D01*
X97624101Y-92045618D01*
X97654292Y-91906833D01*
X97722360Y-91782176D01*
X97822790Y-91681746D01*
X97930870Y-91620200D01*
X97958227Y-91608867D01*
X97958231Y-91608867D01*
X98024552Y-91564552D01*
X98068867Y-91498231D01*
X98080500Y-91439748D01*
X98080500Y-89800252D01*
X98076258Y-89778925D01*
X98068868Y-89741771D01*
X98068866Y-89741767D01*
X98024552Y-89675448D01*
X98024551Y-89675447D01*
X97958232Y-89631133D01*
X97958228Y-89631131D01*
X97899754Y-89619500D01*
X97899748Y-89619500D01*
X97629500Y-89619500D01*
X97488915Y-89599287D01*
X97359720Y-89540286D01*
X97252381Y-89447276D01*
X97175594Y-89327792D01*
X97135579Y-89191515D01*
X97130500Y-89120500D01*
X97130500Y-87673295D01*
X97150713Y-87532710D01*
X97209714Y-87403515D01*
X97276649Y-87320453D01*
X97597898Y-86999204D01*
X97711594Y-86914093D01*
X97844669Y-86864458D01*
X97986337Y-86854325D01*
X97999590Y-86855451D01*
X98100000Y-86865341D01*
X98296132Y-86846024D01*
X98484727Y-86788814D01*
X98658538Y-86695910D01*
X98810883Y-86570883D01*
X98935910Y-86418538D01*
X99028814Y-86244727D01*
X99086024Y-86056132D01*
X99103403Y-85879676D01*
X99137298Y-85741751D01*
X99208679Y-85618961D01*
X99311762Y-85521255D01*
X99438197Y-85456549D01*
X99577740Y-85430085D01*
X99719086Y-85444006D01*
X99850785Y-85497185D01*
X99962166Y-85585314D01*
X100044207Y-85701253D01*
X100090261Y-85835610D01*
X100096597Y-85879677D01*
X100113976Y-86056133D01*
X100171185Y-86244727D01*
X100171187Y-86244731D01*
X100264088Y-86418535D01*
X100264090Y-86418538D01*
X100303600Y-86466681D01*
X100389116Y-86570883D01*
X100474632Y-86641064D01*
X100541462Y-86695910D01*
X100541464Y-86695911D01*
X100715268Y-86788812D01*
X100715272Y-86788814D01*
X100742746Y-86797148D01*
X100903868Y-86846024D01*
X101078571Y-86863230D01*
X101099999Y-86865341D01*
X101100000Y-86865341D01*
X101100001Y-86865341D01*
X101119318Y-86863438D01*
X101296132Y-86846024D01*
X101484727Y-86788814D01*
X101658538Y-86695910D01*
X101810883Y-86570883D01*
X101935910Y-86418538D01*
X102028814Y-86244727D01*
X102086024Y-86056132D01*
X102103403Y-85879676D01*
X102137298Y-85741751D01*
X102208679Y-85618961D01*
X102311762Y-85521255D01*
X102438197Y-85456549D01*
X102577740Y-85430085D01*
X102719086Y-85444006D01*
X102850785Y-85497185D01*
X102962166Y-85585314D01*
X103044207Y-85701253D01*
X103090261Y-85835610D01*
X103096597Y-85879677D01*
X103113976Y-86056133D01*
X103171185Y-86244727D01*
X103171187Y-86244731D01*
X103264088Y-86418535D01*
X103264090Y-86418538D01*
X103303600Y-86466681D01*
X103389116Y-86570883D01*
X103474632Y-86641064D01*
X103541462Y-86695910D01*
X103541464Y-86695911D01*
X103715268Y-86788812D01*
X103715272Y-86788814D01*
X103742746Y-86797148D01*
X103903868Y-86846024D01*
X104078571Y-86863230D01*
X104099999Y-86865341D01*
X104100000Y-86865341D01*
X104100001Y-86865341D01*
X104119318Y-86863438D01*
X104296132Y-86846024D01*
X104484727Y-86788814D01*
X104658538Y-86695910D01*
X104810883Y-86570883D01*
X104935910Y-86418538D01*
X105028814Y-86244727D01*
X105086024Y-86056132D01*
X105105341Y-85860000D01*
X105086024Y-85663868D01*
X105034881Y-85495272D01*
X105028814Y-85475272D01*
X105028812Y-85475268D01*
X104935911Y-85301464D01*
X104935910Y-85301462D01*
X104827295Y-85169115D01*
X104810882Y-85149115D01*
X104732937Y-85085147D01*
X104637087Y-84980336D01*
X104574648Y-84852767D01*
X104550679Y-84712774D01*
X104550500Y-84699416D01*
X104550500Y-84540691D01*
X104523705Y-84440691D01*
X104519799Y-84426114D01*
X104519799Y-84426113D01*
X104462064Y-84326114D01*
X104460488Y-84323384D01*
X103776617Y-83639513D01*
X103776612Y-83639509D01*
X103673889Y-83580202D01*
X103673888Y-83580201D01*
X103673887Y-83580201D01*
X103649677Y-83573714D01*
X103649670Y-83573712D01*
X103649669Y-83573712D01*
X103559309Y-83549500D01*
X102093295Y-83549500D01*
X101952710Y-83529287D01*
X101823515Y-83470286D01*
X101740449Y-83403346D01*
X95756617Y-77419513D01*
X95756612Y-77419509D01*
X95653889Y-77360202D01*
X95653888Y-77360201D01*
X95653887Y-77360201D01*
X95647396Y-77358462D01*
X95629670Y-77353712D01*
X95629669Y-77353712D01*
X95539309Y-77329500D01*
X91486157Y-77329500D01*
X91345572Y-77309287D01*
X91216377Y-77250286D01*
X91109038Y-77157276D01*
X91032251Y-77037792D01*
X90992236Y-76901515D01*
X90992236Y-76759485D01*
X91032251Y-76623208D01*
X91109038Y-76503724D01*
X91169594Y-76444768D01*
X91210883Y-76410883D01*
X91335910Y-76258538D01*
X91428814Y-76084727D01*
X91486024Y-75896132D01*
X91505341Y-75700000D01*
X91486024Y-75503868D01*
X91434881Y-75335272D01*
X91428814Y-75315272D01*
X91332154Y-75134436D01*
X91283709Y-75000923D01*
X91274841Y-74859170D01*
X91306268Y-74720660D01*
X91375446Y-74596616D01*
X91476768Y-74497085D01*
X91602027Y-74430132D01*
X91723323Y-74402610D01*
X91744741Y-74400500D01*
X91744748Y-74400500D01*
X91773989Y-74394683D01*
X91803228Y-74388868D01*
X91803229Y-74388867D01*
X91803231Y-74388867D01*
X91869552Y-74344552D01*
X91913867Y-74278231D01*
X91925499Y-74219754D01*
X96699500Y-74219754D01*
X96711131Y-74278228D01*
X96711133Y-74278232D01*
X96755447Y-74344551D01*
X96755448Y-74344552D01*
X96821767Y-74388866D01*
X96821771Y-74388868D01*
X96904292Y-74405282D01*
X96904013Y-74406681D01*
X97015856Y-74434167D01*
X97138646Y-74505548D01*
X97236351Y-74608632D01*
X97301057Y-74735067D01*
X97327520Y-74874610D01*
X97313598Y-75015956D01*
X97269096Y-75132095D01*
X97171186Y-75315271D01*
X97171185Y-75315272D01*
X97113976Y-75503866D01*
X97094659Y-75699999D01*
X97094659Y-75700000D01*
X97113976Y-75896133D01*
X97171185Y-76084727D01*
X97171187Y-76084731D01*
X97264088Y-76258535D01*
X97389116Y-76410883D01*
X97474632Y-76481064D01*
X97541462Y-76535910D01*
X97541464Y-76535911D01*
X97715268Y-76628812D01*
X97715272Y-76628814D01*
X97737142Y-76635448D01*
X97903868Y-76686024D01*
X98078571Y-76703230D01*
X98099999Y-76705341D01*
X98100000Y-76705341D01*
X98100001Y-76705341D01*
X98119318Y-76703438D01*
X98296132Y-76686024D01*
X98484727Y-76628814D01*
X98658538Y-76535910D01*
X98810883Y-76410883D01*
X98935910Y-76258538D01*
X99028814Y-76084727D01*
X99086024Y-75896132D01*
X99105341Y-75700000D01*
X99086024Y-75503868D01*
X99034881Y-75335272D01*
X99028814Y-75315272D01*
X99028812Y-75315268D01*
X98930904Y-75132096D01*
X98882459Y-74998583D01*
X98873591Y-74856830D01*
X98905019Y-74718321D01*
X98974196Y-74594276D01*
X99075518Y-74494746D01*
X99200778Y-74427793D01*
X99295892Y-74406210D01*
X99295708Y-74405282D01*
X99378228Y-74388868D01*
X99378229Y-74388867D01*
X99378231Y-74388867D01*
X99444552Y-74344552D01*
X99488867Y-74278231D01*
X99500499Y-74219754D01*
X102699500Y-74219754D01*
X102711131Y-74278228D01*
X102711133Y-74278232D01*
X102755447Y-74344551D01*
X102755448Y-74344552D01*
X102821767Y-74388866D01*
X102821771Y-74388868D01*
X102904292Y-74405282D01*
X102904013Y-74406681D01*
X103015856Y-74434167D01*
X103138646Y-74505548D01*
X103236351Y-74608632D01*
X103301057Y-74735067D01*
X103327520Y-74874610D01*
X103313598Y-75015956D01*
X103269096Y-75132095D01*
X103171186Y-75315271D01*
X103171185Y-75315272D01*
X103113976Y-75503866D01*
X103094659Y-75699999D01*
X103094659Y-75700000D01*
X103113976Y-75896133D01*
X103171185Y-76084727D01*
X103171187Y-76084731D01*
X103264088Y-76258535D01*
X103389116Y-76410883D01*
X103474632Y-76481064D01*
X103541462Y-76535910D01*
X103541464Y-76535911D01*
X103715268Y-76628812D01*
X103715272Y-76628814D01*
X103737142Y-76635448D01*
X103903868Y-76686024D01*
X104078571Y-76703230D01*
X104099999Y-76705341D01*
X104100000Y-76705341D01*
X104100001Y-76705341D01*
X104119318Y-76703438D01*
X104296132Y-76686024D01*
X104484727Y-76628814D01*
X104658538Y-76535910D01*
X104810883Y-76410883D01*
X104935910Y-76258538D01*
X105028814Y-76084727D01*
X105086024Y-75896132D01*
X105105341Y-75700000D01*
X105086024Y-75503868D01*
X105034881Y-75335272D01*
X105028814Y-75315272D01*
X105028812Y-75315268D01*
X104930904Y-75132096D01*
X104882459Y-74998583D01*
X104873591Y-74856830D01*
X104905019Y-74718321D01*
X104974196Y-74594276D01*
X105075518Y-74494746D01*
X105200778Y-74427793D01*
X105295892Y-74406210D01*
X105295708Y-74405282D01*
X105378228Y-74388868D01*
X105378229Y-74388867D01*
X105378231Y-74388867D01*
X105444552Y-74344552D01*
X105488867Y-74278231D01*
X105500500Y-74219748D01*
X105500500Y-71780252D01*
X105500499Y-71780245D01*
X105488868Y-71721771D01*
X105488866Y-71721767D01*
X105444552Y-71655448D01*
X105444551Y-71655447D01*
X105378232Y-71611133D01*
X105378228Y-71611131D01*
X105319754Y-71599500D01*
X105319748Y-71599500D01*
X102880252Y-71599500D01*
X102880245Y-71599500D01*
X102821771Y-71611131D01*
X102821767Y-71611133D01*
X102755448Y-71655447D01*
X102755447Y-71655448D01*
X102711133Y-71721767D01*
X102711131Y-71721771D01*
X102699500Y-71780245D01*
X102699500Y-74219754D01*
X99500499Y-74219754D01*
X99500500Y-74219748D01*
X99500500Y-71780252D01*
X99500499Y-71780245D01*
X99488868Y-71721771D01*
X99488866Y-71721767D01*
X99444552Y-71655448D01*
X99444551Y-71655447D01*
X99378232Y-71611133D01*
X99378228Y-71611131D01*
X99319754Y-71599500D01*
X99319748Y-71599500D01*
X96880252Y-71599500D01*
X96880245Y-71599500D01*
X96821771Y-71611131D01*
X96821767Y-71611133D01*
X96755448Y-71655447D01*
X96755447Y-71655448D01*
X96711133Y-71721767D01*
X96711131Y-71721771D01*
X96699500Y-71780245D01*
X96699500Y-74219754D01*
X91925499Y-74219754D01*
X91925500Y-74219748D01*
X91925500Y-71780252D01*
X91925499Y-71780245D01*
X91913868Y-71721771D01*
X91913866Y-71721767D01*
X91869552Y-71655448D01*
X91869551Y-71655447D01*
X91803232Y-71611133D01*
X91803228Y-71611131D01*
X91744754Y-71599500D01*
X91744748Y-71599500D01*
X89305252Y-71599500D01*
X89305245Y-71599500D01*
X89246771Y-71611131D01*
X89246767Y-71611133D01*
X89180448Y-71655447D01*
X89180447Y-71655448D01*
X89136133Y-71721767D01*
X89136131Y-71721771D01*
X89124500Y-71780245D01*
X89124500Y-74219754D01*
X89136131Y-74278228D01*
X89136133Y-74278232D01*
X89180447Y-74344551D01*
X89180448Y-74344552D01*
X89246767Y-74388866D01*
X89246769Y-74388867D01*
X89305252Y-74400500D01*
X89305256Y-74400500D01*
X89327694Y-74404963D01*
X89461635Y-74452213D01*
X89576838Y-74535284D01*
X89663970Y-74647447D01*
X89715973Y-74779615D01*
X89728634Y-74921080D01*
X89700927Y-75060381D01*
X89670428Y-75129603D01*
X89571186Y-75315271D01*
X89571185Y-75315272D01*
X89513976Y-75503866D01*
X89494659Y-75699999D01*
X89494659Y-75700000D01*
X89513976Y-75896133D01*
X89571185Y-76084727D01*
X89571187Y-76084731D01*
X89627188Y-76189500D01*
X89664090Y-76258538D01*
X89680504Y-76278538D01*
X89789114Y-76410880D01*
X89789115Y-76410881D01*
X89789117Y-76410883D01*
X89830406Y-76444768D01*
X89926256Y-76549579D01*
X89988695Y-76677148D01*
X90012664Y-76817142D01*
X89996222Y-76958217D01*
X89940700Y-77088945D01*
X89850597Y-77198736D01*
X89733212Y-77278694D01*
X89598055Y-77322343D01*
X89513843Y-77329500D01*
X85486157Y-77329500D01*
X85345572Y-77309287D01*
X85216377Y-77250286D01*
X85109038Y-77157276D01*
X85032251Y-77037792D01*
X84992236Y-76901515D01*
X84992236Y-76759485D01*
X85032251Y-76623208D01*
X85109038Y-76503724D01*
X85169594Y-76444768D01*
X85210883Y-76410883D01*
X85335910Y-76258538D01*
X85428814Y-76084727D01*
X85486024Y-75896132D01*
X85505341Y-75700000D01*
X85486024Y-75503868D01*
X85434881Y-75335272D01*
X85428814Y-75315272D01*
X85332154Y-75134436D01*
X85283709Y-75000923D01*
X85274841Y-74859170D01*
X85306268Y-74720660D01*
X85375446Y-74596616D01*
X85476768Y-74497085D01*
X85602027Y-74430132D01*
X85723323Y-74402610D01*
X85744741Y-74400500D01*
X85744748Y-74400500D01*
X85773989Y-74394683D01*
X85803228Y-74388868D01*
X85803229Y-74388867D01*
X85803231Y-74388867D01*
X85869552Y-74344552D01*
X85913867Y-74278231D01*
X85925500Y-74219748D01*
X85925500Y-71780252D01*
X85925499Y-71780245D01*
X85913868Y-71721771D01*
X85913866Y-71721767D01*
X85869552Y-71655448D01*
X85869551Y-71655447D01*
X85803232Y-71611133D01*
X85803228Y-71611131D01*
X85744754Y-71599500D01*
X85744748Y-71599500D01*
X83305252Y-71599500D01*
X83305245Y-71599500D01*
X83246771Y-71611131D01*
X83246767Y-71611133D01*
X83180448Y-71655447D01*
X83180447Y-71655448D01*
X83136133Y-71721767D01*
X83136131Y-71721771D01*
X83124500Y-71780245D01*
X83124500Y-74219754D01*
X83136131Y-74278228D01*
X83136133Y-74278232D01*
X83180447Y-74344551D01*
X83180448Y-74344552D01*
X83246767Y-74388866D01*
X83246769Y-74388867D01*
X83305252Y-74400500D01*
X83305256Y-74400500D01*
X83327694Y-74404963D01*
X83461635Y-74452213D01*
X83576838Y-74535284D01*
X83663970Y-74647447D01*
X83715973Y-74779615D01*
X83728634Y-74921080D01*
X83700927Y-75060381D01*
X83670428Y-75129603D01*
X83571186Y-75315271D01*
X83571185Y-75315272D01*
X83513976Y-75503866D01*
X83494659Y-75699999D01*
X83494659Y-75700000D01*
X83513976Y-75896133D01*
X83571185Y-76084727D01*
X83571187Y-76084731D01*
X83627188Y-76189500D01*
X83664090Y-76258538D01*
X83680504Y-76278538D01*
X83789114Y-76410880D01*
X83789115Y-76410881D01*
X83789117Y-76410883D01*
X83830406Y-76444768D01*
X83926256Y-76549579D01*
X83988695Y-76677148D01*
X84012664Y-76817142D01*
X83996222Y-76958217D01*
X83940700Y-77088945D01*
X83850597Y-77198736D01*
X83733212Y-77278694D01*
X83598055Y-77322343D01*
X83513843Y-77329500D01*
X79010527Y-77329500D01*
X78869942Y-77309287D01*
X78740747Y-77250286D01*
X78633408Y-77157276D01*
X78556621Y-77037792D01*
X78516606Y-76901515D01*
X78516606Y-76759485D01*
X78556621Y-76623208D01*
X78633408Y-76503724D01*
X78693964Y-76444768D01*
X78710883Y-76430883D01*
X78835910Y-76278538D01*
X78928814Y-76104727D01*
X78986024Y-75916132D01*
X79005341Y-75720000D01*
X78986024Y-75523868D01*
X78928814Y-75335273D01*
X78928814Y-75335272D01*
X78928812Y-75335268D01*
X78824355Y-75139843D01*
X78827393Y-75138218D01*
X78783783Y-75047072D01*
X78761060Y-74906871D01*
X78778756Y-74765948D01*
X78835439Y-74635718D01*
X78926515Y-74526734D01*
X79044607Y-74447823D01*
X79180147Y-74405378D01*
X79211078Y-74401353D01*
X79219738Y-74400500D01*
X79219748Y-74400500D01*
X79221293Y-74400192D01*
X79278228Y-74388868D01*
X79278229Y-74388867D01*
X79278231Y-74388867D01*
X79344552Y-74344552D01*
X79388867Y-74278231D01*
X79400500Y-74219748D01*
X79400500Y-71780252D01*
X79400499Y-71780245D01*
X79388868Y-71721771D01*
X79388866Y-71721767D01*
X79344552Y-71655448D01*
X79344551Y-71655447D01*
X79278232Y-71611133D01*
X79278228Y-71611131D01*
X79219754Y-71599500D01*
X79219748Y-71599500D01*
X76780252Y-71599500D01*
X76780245Y-71599500D01*
X76721771Y-71611131D01*
X76721767Y-71611133D01*
X76655448Y-71655447D01*
X76655447Y-71655448D01*
X76611133Y-71721767D01*
X76611131Y-71721771D01*
X76599500Y-71780245D01*
X76599500Y-74219754D01*
X76611131Y-74278228D01*
X76611133Y-74278232D01*
X76655447Y-74344551D01*
X76655448Y-74344552D01*
X76721767Y-74388866D01*
X76721771Y-74388868D01*
X76780241Y-74400498D01*
X76780242Y-74400498D01*
X76780252Y-74400500D01*
X76780261Y-74400500D01*
X76788922Y-74401353D01*
X76926849Y-74435246D01*
X77049640Y-74506625D01*
X77147347Y-74609707D01*
X77212055Y-74736141D01*
X77238522Y-74875683D01*
X77224603Y-75017030D01*
X77175125Y-75139565D01*
X77175645Y-75139843D01*
X77173061Y-75144677D01*
X77171425Y-75148729D01*
X77167724Y-75154660D01*
X77071187Y-75335268D01*
X77071185Y-75335272D01*
X77013976Y-75523866D01*
X76994659Y-75719999D01*
X76994659Y-75720000D01*
X77013976Y-75916133D01*
X77071185Y-76104727D01*
X77071187Y-76104731D01*
X77164088Y-76278535D01*
X77164090Y-76278538D01*
X77221856Y-76348926D01*
X77289114Y-76430880D01*
X77289115Y-76430881D01*
X77289117Y-76430883D01*
X77306036Y-76444768D01*
X77401886Y-76549579D01*
X77464325Y-76677148D01*
X77488294Y-76817142D01*
X77471852Y-76958217D01*
X77416330Y-77088945D01*
X77326227Y-77198736D01*
X77208842Y-77278694D01*
X77073685Y-77322343D01*
X76989473Y-77329500D01*
X73010527Y-77329500D01*
X72869942Y-77309287D01*
X72740747Y-77250286D01*
X72633408Y-77157276D01*
X72556621Y-77037792D01*
X72516606Y-76901515D01*
X72516606Y-76759485D01*
X72556621Y-76623208D01*
X72633408Y-76503724D01*
X72693964Y-76444768D01*
X72710883Y-76430883D01*
X72835910Y-76278538D01*
X72928814Y-76104727D01*
X72986024Y-75916132D01*
X73005341Y-75720000D01*
X72986024Y-75523868D01*
X72928814Y-75335273D01*
X72928814Y-75335272D01*
X72928812Y-75335268D01*
X72824355Y-75139843D01*
X72827393Y-75138218D01*
X72783783Y-75047072D01*
X72761060Y-74906871D01*
X72778756Y-74765948D01*
X72835439Y-74635718D01*
X72926515Y-74526734D01*
X73044607Y-74447823D01*
X73180147Y-74405378D01*
X73211078Y-74401353D01*
X73219738Y-74400500D01*
X73219748Y-74400500D01*
X73221293Y-74400192D01*
X73278228Y-74388868D01*
X73278229Y-74388867D01*
X73278231Y-74388867D01*
X73344552Y-74344552D01*
X73388867Y-74278231D01*
X73400500Y-74219748D01*
X73400500Y-71780252D01*
X73400499Y-71780245D01*
X73388868Y-71721771D01*
X73388866Y-71721767D01*
X73344552Y-71655448D01*
X73344551Y-71655447D01*
X73278232Y-71611133D01*
X73278228Y-71611131D01*
X73219754Y-71599500D01*
X73219748Y-71599500D01*
X70949500Y-71599500D01*
X70808915Y-71579287D01*
X70679720Y-71520286D01*
X70572381Y-71427276D01*
X70495594Y-71307792D01*
X70455579Y-71171515D01*
X70450500Y-71100500D01*
X70450500Y-69993296D01*
X70470713Y-69852711D01*
X70529714Y-69723516D01*
X70596656Y-69640448D01*
X70680453Y-69556652D01*
X70794154Y-69471537D01*
X70927230Y-69421903D01*
X71033297Y-69410500D01*
X71039416Y-69410500D01*
X71180001Y-69430713D01*
X71309196Y-69489714D01*
X71416535Y-69582724D01*
X71425147Y-69592937D01*
X71489115Y-69670882D01*
X71553250Y-69723516D01*
X71641462Y-69795910D01*
X71641464Y-69795911D01*
X71815268Y-69888812D01*
X71815272Y-69888814D01*
X71881197Y-69908812D01*
X72003868Y-69946024D01*
X72178571Y-69963230D01*
X72199999Y-69965341D01*
X72200000Y-69965341D01*
X72200001Y-69965341D01*
X72219318Y-69963438D01*
X72396132Y-69946024D01*
X72584727Y-69888814D01*
X72758538Y-69795910D01*
X72910883Y-69670883D01*
X73035910Y-69518538D01*
X73128814Y-69344727D01*
X73186024Y-69156132D01*
X73203403Y-68979676D01*
X73237298Y-68841751D01*
X73308679Y-68718961D01*
X73411762Y-68621255D01*
X73538197Y-68556549D01*
X73677740Y-68530085D01*
X73819086Y-68544006D01*
X73950785Y-68597185D01*
X74062166Y-68685314D01*
X74144207Y-68801253D01*
X74190261Y-68935610D01*
X74196597Y-68979677D01*
X74213976Y-69156133D01*
X74271185Y-69344727D01*
X74271187Y-69344731D01*
X74364088Y-69518535D01*
X74489116Y-69670883D01*
X74553250Y-69723516D01*
X74641462Y-69795910D01*
X74641464Y-69795911D01*
X74815268Y-69888812D01*
X74815272Y-69888814D01*
X74881197Y-69908812D01*
X75003868Y-69946024D01*
X75178571Y-69963230D01*
X75199999Y-69965341D01*
X75200000Y-69965341D01*
X75200001Y-69965341D01*
X75219318Y-69963438D01*
X75396132Y-69946024D01*
X75584727Y-69888814D01*
X75758538Y-69795910D01*
X75910883Y-69670883D01*
X76035910Y-69518538D01*
X76128814Y-69344727D01*
X76186024Y-69156132D01*
X76203403Y-68979676D01*
X76237298Y-68841751D01*
X76308679Y-68718961D01*
X76411762Y-68621255D01*
X76538197Y-68556549D01*
X76677740Y-68530085D01*
X76819086Y-68544006D01*
X76950785Y-68597185D01*
X77062166Y-68685314D01*
X77144207Y-68801253D01*
X77190261Y-68935610D01*
X77196597Y-68979677D01*
X77213976Y-69156133D01*
X77271185Y-69344727D01*
X77271187Y-69344731D01*
X77364088Y-69518535D01*
X77489116Y-69670883D01*
X77553250Y-69723516D01*
X77641462Y-69795910D01*
X77641464Y-69795911D01*
X77815268Y-69888812D01*
X77815272Y-69888814D01*
X77881197Y-69908812D01*
X78003868Y-69946024D01*
X78178571Y-69963230D01*
X78199999Y-69965341D01*
X78200000Y-69965341D01*
X78200001Y-69965341D01*
X78219318Y-69963438D01*
X78396132Y-69946024D01*
X78584727Y-69888814D01*
X78758538Y-69795910D01*
X78910883Y-69670883D01*
X79035910Y-69518538D01*
X79128814Y-69344727D01*
X79186024Y-69156132D01*
X79205341Y-68960000D01*
X79186024Y-68763868D01*
X79134881Y-68595272D01*
X79128814Y-68575272D01*
X79128812Y-68575268D01*
X79035911Y-68401464D01*
X79035910Y-68401462D01*
X78910883Y-68249117D01*
X78831670Y-68184108D01*
X78806975Y-68163841D01*
X78711125Y-68059030D01*
X78648687Y-67931460D01*
X78641543Y-67907265D01*
X78619799Y-67826114D01*
X78603907Y-67798589D01*
X78594730Y-67782694D01*
X78594727Y-67782689D01*
X78570480Y-67740691D01*
X78560489Y-67723386D01*
X78560488Y-67723385D01*
X78560487Y-67723383D01*
X77753488Y-66916384D01*
X77754733Y-66915138D01*
X77685041Y-66843768D01*
X77618461Y-66718311D01*
X77589922Y-66579177D01*
X77601738Y-66437639D01*
X77652952Y-66305164D01*
X77739413Y-66192483D01*
X77854119Y-66108725D01*
X77987775Y-66060677D01*
X78088039Y-66050500D01*
X83406705Y-66050500D01*
X83547290Y-66070713D01*
X83676485Y-66129714D01*
X83759551Y-66196654D01*
X84310050Y-66747153D01*
X84395166Y-66860854D01*
X84444800Y-66993929D01*
X84454933Y-67135597D01*
X84424742Y-67274382D01*
X84356674Y-67399039D01*
X84310052Y-67452843D01*
X84139514Y-67623382D01*
X84139509Y-67623388D01*
X84080200Y-67726113D01*
X84080200Y-67726114D01*
X84080201Y-67726115D01*
X84049498Y-67840697D01*
X84046494Y-67863516D01*
X84008103Y-68000259D01*
X83932741Y-68120647D01*
X83868329Y-68184108D01*
X83789116Y-68249117D01*
X83664088Y-68401464D01*
X83571187Y-68575268D01*
X83571185Y-68575272D01*
X83513976Y-68763866D01*
X83494659Y-68959999D01*
X83494659Y-68960000D01*
X83513976Y-69156133D01*
X83571185Y-69344727D01*
X83571187Y-69344731D01*
X83664088Y-69518535D01*
X83789116Y-69670883D01*
X83853250Y-69723516D01*
X83941462Y-69795910D01*
X83941464Y-69795911D01*
X84115268Y-69888812D01*
X84115272Y-69888814D01*
X84181197Y-69908812D01*
X84303868Y-69946024D01*
X84478571Y-69963230D01*
X84499999Y-69965341D01*
X84500000Y-69965341D01*
X84500001Y-69965341D01*
X84519318Y-69963438D01*
X84696132Y-69946024D01*
X84884727Y-69888814D01*
X85058538Y-69795910D01*
X85210883Y-69670883D01*
X85335910Y-69518538D01*
X85428814Y-69344727D01*
X85486024Y-69156132D01*
X85504388Y-68969675D01*
X85538281Y-68831753D01*
X85609662Y-68708963D01*
X85712744Y-68611257D01*
X85839179Y-68546550D01*
X85978721Y-68520085D01*
X86120068Y-68534006D01*
X86251767Y-68587184D01*
X86363149Y-68675313D01*
X86445190Y-68791252D01*
X86491245Y-68925608D01*
X86497581Y-68969675D01*
X86513976Y-69136134D01*
X86571185Y-69324727D01*
X86571187Y-69324731D01*
X86664088Y-69498535D01*
X86789116Y-69650883D01*
X86874632Y-69721064D01*
X86941462Y-69775910D01*
X86941464Y-69775911D01*
X87115268Y-69868812D01*
X87115272Y-69868814D01*
X87181197Y-69888812D01*
X87303868Y-69926024D01*
X87478571Y-69943230D01*
X87499999Y-69945341D01*
X87500000Y-69945341D01*
X87500001Y-69945341D01*
X87519318Y-69943438D01*
X87696132Y-69926024D01*
X87884727Y-69868814D01*
X88058538Y-69775910D01*
X88210883Y-69650883D01*
X88335910Y-69498538D01*
X88428814Y-69324727D01*
X88486024Y-69136132D01*
X88502418Y-68969677D01*
X88536313Y-68831751D01*
X88607694Y-68708961D01*
X88710777Y-68611255D01*
X88837211Y-68546549D01*
X88976754Y-68520085D01*
X89118101Y-68534006D01*
X89249799Y-68587185D01*
X89361181Y-68675314D01*
X89443222Y-68791253D01*
X89489276Y-68925610D01*
X89495612Y-68969677D01*
X89513976Y-69156133D01*
X89571185Y-69344727D01*
X89571187Y-69344731D01*
X89664088Y-69518535D01*
X89789116Y-69670883D01*
X89853250Y-69723516D01*
X89941462Y-69795910D01*
X89941464Y-69795911D01*
X90115268Y-69888812D01*
X90115272Y-69888814D01*
X90181197Y-69908812D01*
X90303868Y-69946024D01*
X90478571Y-69963230D01*
X90499999Y-69965341D01*
X90500000Y-69965341D01*
X90500001Y-69965341D01*
X90519318Y-69963438D01*
X90696132Y-69946024D01*
X90884727Y-69888814D01*
X91058538Y-69795910D01*
X91210883Y-69670883D01*
X91335910Y-69518538D01*
X91428814Y-69344727D01*
X91486024Y-69156132D01*
X91505341Y-68960000D01*
X91486024Y-68763868D01*
X91434881Y-68595272D01*
X91428814Y-68575272D01*
X91428812Y-68575268D01*
X91335911Y-68401464D01*
X91335910Y-68401462D01*
X91273396Y-68325289D01*
X91210882Y-68249115D01*
X91132937Y-68185147D01*
X91037087Y-68080336D01*
X90974648Y-67952767D01*
X90950679Y-67812774D01*
X90950500Y-67799416D01*
X90950500Y-67540691D01*
X90919799Y-67426115D01*
X90919799Y-67426114D01*
X90919798Y-67426112D01*
X90860490Y-67323386D01*
X90589814Y-67052710D01*
X90276617Y-66739513D01*
X90276612Y-66739509D01*
X90173889Y-66680202D01*
X90173888Y-66680201D01*
X90173887Y-66680201D01*
X90149677Y-66673714D01*
X90149670Y-66673712D01*
X90149669Y-66673712D01*
X90059309Y-66649500D01*
X85693295Y-66649500D01*
X85552710Y-66629287D01*
X85423515Y-66570286D01*
X85340453Y-66503350D01*
X84739449Y-65902346D01*
X84654334Y-65788645D01*
X84604700Y-65655570D01*
X84594567Y-65513901D01*
X84624758Y-65375117D01*
X84692826Y-65250460D01*
X84793257Y-65150030D01*
X84917914Y-65081962D01*
X85056698Y-65051771D01*
X85092296Y-65050500D01*
X94306705Y-65050500D01*
X94447290Y-65070713D01*
X94576485Y-65129714D01*
X94659551Y-65196654D01*
X96903346Y-67440449D01*
X96988462Y-67554150D01*
X97038096Y-67687225D01*
X97049500Y-67793295D01*
X97049500Y-67819416D01*
X97029287Y-67960001D01*
X96970286Y-68089196D01*
X96877276Y-68196535D01*
X96867063Y-68205147D01*
X96789117Y-68269115D01*
X96664088Y-68421464D01*
X96571187Y-68595268D01*
X96571185Y-68595272D01*
X96513976Y-68783866D01*
X96494659Y-68979999D01*
X96494659Y-68980000D01*
X96513976Y-69176133D01*
X96571185Y-69364727D01*
X96571187Y-69364731D01*
X96664088Y-69538535D01*
X96789116Y-69690883D01*
X96828880Y-69723516D01*
X96941462Y-69815910D01*
X96941464Y-69815911D01*
X97115268Y-69908812D01*
X97115272Y-69908814D01*
X97172003Y-69926023D01*
X97303868Y-69966024D01*
X97478571Y-69983230D01*
X97499999Y-69985341D01*
X97500000Y-69985341D01*
X97500001Y-69985341D01*
X97519318Y-69983438D01*
X97696132Y-69966024D01*
X97884727Y-69908814D01*
X98058538Y-69815910D01*
X98210883Y-69690883D01*
X98335910Y-69538538D01*
X98428814Y-69364727D01*
X98486024Y-69176132D01*
X98504388Y-68989675D01*
X98538281Y-68851753D01*
X98609662Y-68728963D01*
X98712744Y-68631257D01*
X98839179Y-68566550D01*
X98978721Y-68540085D01*
X99120068Y-68554006D01*
X99251767Y-68607184D01*
X99363149Y-68695313D01*
X99445190Y-68811252D01*
X99491245Y-68945608D01*
X99497581Y-68989675D01*
X99513976Y-69156134D01*
X99571185Y-69344727D01*
X99571187Y-69344731D01*
X99664088Y-69518535D01*
X99789116Y-69670883D01*
X99853250Y-69723516D01*
X99941462Y-69795910D01*
X99941464Y-69795911D01*
X100115268Y-69888812D01*
X100115272Y-69888814D01*
X100181197Y-69908812D01*
X100303868Y-69946024D01*
X100478571Y-69963230D01*
X100499999Y-69965341D01*
X100500000Y-69965341D01*
X100500001Y-69965341D01*
X100519318Y-69963438D01*
X100696132Y-69946024D01*
X100884727Y-69888814D01*
X101058538Y-69795910D01*
X101210883Y-69670883D01*
X101335910Y-69518538D01*
X101428814Y-69344727D01*
X101486024Y-69156132D01*
X101503403Y-68979676D01*
X101537298Y-68841751D01*
X101608679Y-68718961D01*
X101711762Y-68621255D01*
X101838197Y-68556549D01*
X101977740Y-68530085D01*
X102119086Y-68544006D01*
X102250785Y-68597185D01*
X102362166Y-68685314D01*
X102444207Y-68801253D01*
X102490261Y-68935610D01*
X102496597Y-68979677D01*
X102513976Y-69156133D01*
X102571185Y-69344727D01*
X102571187Y-69344731D01*
X102664088Y-69518535D01*
X102789116Y-69670883D01*
X102853250Y-69723516D01*
X102941462Y-69795910D01*
X102941464Y-69795911D01*
X103115268Y-69888812D01*
X103115272Y-69888814D01*
X103181197Y-69908812D01*
X103303868Y-69946024D01*
X103478571Y-69963230D01*
X103499999Y-69965341D01*
X103500000Y-69965341D01*
X103500001Y-69965341D01*
X103519318Y-69963438D01*
X103696132Y-69946024D01*
X103884727Y-69888814D01*
X104058538Y-69795910D01*
X104210883Y-69670883D01*
X104335910Y-69518538D01*
X104428814Y-69344727D01*
X104486024Y-69156132D01*
X104505341Y-68960000D01*
X104486024Y-68763868D01*
X104434881Y-68595272D01*
X104428814Y-68575272D01*
X104428812Y-68575268D01*
X104335911Y-68401464D01*
X104335910Y-68401462D01*
X104273396Y-68325289D01*
X104210882Y-68249115D01*
X104132937Y-68185147D01*
X104037087Y-68080336D01*
X103974648Y-67952767D01*
X103950679Y-67812774D01*
X103950500Y-67799416D01*
X103950500Y-67640690D01*
X103936632Y-67588936D01*
X103936631Y-67588933D01*
X103926333Y-67550500D01*
X103919799Y-67526114D01*
X103919799Y-67526113D01*
X103862064Y-67426114D01*
X103860488Y-67423384D01*
X103176617Y-66739513D01*
X103176612Y-66739509D01*
X103073889Y-66680202D01*
X103073888Y-66680201D01*
X103073887Y-66680201D01*
X103049677Y-66673714D01*
X103049670Y-66673712D01*
X103049669Y-66673712D01*
X102959309Y-66649500D01*
X98140691Y-66649500D01*
X98050326Y-66673713D01*
X98050323Y-66673713D01*
X98026117Y-66680199D01*
X98026108Y-66680203D01*
X97971737Y-66711594D01*
X97839880Y-66764380D01*
X97698492Y-66777880D01*
X97559029Y-66750999D01*
X97432788Y-66685915D01*
X97369395Y-66632291D01*
X94976617Y-64239513D01*
X94976612Y-64239509D01*
X94873889Y-64180202D01*
X94873888Y-64180201D01*
X94873887Y-64180201D01*
X94849677Y-64173714D01*
X94849670Y-64173712D01*
X94849669Y-64173712D01*
X94759309Y-64149500D01*
X68940691Y-64149500D01*
X68850326Y-64173713D01*
X68850323Y-64173713D01*
X68826112Y-64180201D01*
X68723384Y-64239511D01*
X68723382Y-64239513D01*
X68052346Y-64910550D01*
X67938645Y-64995666D01*
X67805570Y-65045300D01*
X67663902Y-65055433D01*
X67525117Y-65025242D01*
X67400460Y-64957174D01*
X67300030Y-64856744D01*
X67231962Y-64732087D01*
X67201771Y-64593302D01*
X67200500Y-64557704D01*
X67200500Y-64060255D01*
X67200499Y-64060245D01*
X67188868Y-64001774D01*
X67188867Y-64001773D01*
X67188867Y-64001769D01*
X67188864Y-64001764D01*
X67188535Y-64000969D01*
X67153407Y-63863351D01*
X67158474Y-63721411D01*
X67188535Y-63619031D01*
X67188863Y-63618236D01*
X67188867Y-63618231D01*
X67200500Y-63559748D01*
X67200500Y-61520252D01*
X67188867Y-61461769D01*
X67188864Y-61461764D01*
X67188535Y-61460969D01*
X67153407Y-61323351D01*
X67158474Y-61181411D01*
X67188535Y-61079031D01*
X67188863Y-61078236D01*
X67188867Y-61078231D01*
X67200500Y-61019748D01*
X67200500Y-58980252D01*
X67200499Y-58980245D01*
X67188868Y-58921771D01*
X67188866Y-58921767D01*
X67144552Y-58855448D01*
X67144551Y-58855447D01*
X67078232Y-58811133D01*
X67078228Y-58811131D01*
X67019754Y-58799500D01*
X67019748Y-58799500D01*
X64980252Y-58799500D01*
X64980245Y-58799500D01*
X64921771Y-58811131D01*
X64921767Y-58811133D01*
X64855448Y-58855447D01*
X64855447Y-58855448D01*
X64811133Y-58921767D01*
X64811131Y-58921771D01*
X64799500Y-58980245D01*
X64799500Y-61019754D01*
X64811132Y-61078233D01*
X64811467Y-61079040D01*
X64846593Y-61216658D01*
X64841524Y-61358598D01*
X64811467Y-61460960D01*
X64811132Y-61461766D01*
X64799500Y-61520245D01*
X64799500Y-63559754D01*
X64811132Y-63618233D01*
X64811467Y-63619040D01*
X64846593Y-63756658D01*
X64841524Y-63898598D01*
X64811467Y-64000960D01*
X64811132Y-64001766D01*
X64799500Y-64060245D01*
X64799500Y-66099754D01*
X64811132Y-66158233D01*
X64811467Y-66159040D01*
X64846593Y-66296658D01*
X64841524Y-66438598D01*
X64811467Y-66540960D01*
X64811132Y-66541766D01*
X64799500Y-66600245D01*
X64799500Y-68639754D01*
X64811132Y-68698233D01*
X64811467Y-68699040D01*
X64846593Y-68836658D01*
X64841524Y-68978598D01*
X64811467Y-69080960D01*
X64811132Y-69081766D01*
X64799500Y-69140245D01*
X64799500Y-71179754D01*
X64811132Y-71238233D01*
X64811467Y-71239040D01*
X64846593Y-71376658D01*
X64841524Y-71518598D01*
X64811467Y-71620960D01*
X64811132Y-71621766D01*
X64799500Y-71680245D01*
X64799500Y-73719754D01*
X64811132Y-73778233D01*
X64811467Y-73779040D01*
X64846593Y-73916658D01*
X64841524Y-74058598D01*
X64811467Y-74160960D01*
X64811132Y-74161766D01*
X64799500Y-74220245D01*
X64799500Y-76259754D01*
X64811132Y-76318233D01*
X64811467Y-76319040D01*
X64846593Y-76456658D01*
X64841524Y-76598598D01*
X64811467Y-76700960D01*
X64811132Y-76701766D01*
X64799500Y-76760245D01*
X64799500Y-78799754D01*
X64811132Y-78858233D01*
X64811467Y-78859040D01*
X64846593Y-78996658D01*
X64841524Y-79138598D01*
X64811467Y-79240960D01*
X64811132Y-79241766D01*
X64799500Y-79300245D01*
X64799500Y-81339754D01*
X64811132Y-81398233D01*
X64811467Y-81399040D01*
X64846593Y-81536658D01*
X64841524Y-81678598D01*
X64811467Y-81780960D01*
X64811132Y-81781766D01*
X64799500Y-81840245D01*
X64799500Y-83879754D01*
X64816646Y-83965951D01*
X64824248Y-84107778D01*
X64791584Y-84246001D01*
X64721301Y-84369422D01*
X64619093Y-84468044D01*
X64493241Y-84533875D01*
X64456383Y-84545295D01*
X64350329Y-84573711D01*
X64350330Y-84573712D01*
X64326112Y-84580201D01*
X64223384Y-84639511D01*
X63039511Y-85823384D01*
X62980200Y-85926114D01*
X62949500Y-86040691D01*
X62949500Y-99159309D01*
X62957726Y-99190009D01*
X62960951Y-99202042D01*
X62960952Y-99202051D01*
X62960953Y-99202051D01*
X62980200Y-99273885D01*
X62980200Y-99273886D01*
X63039509Y-99376612D01*
X63039513Y-99376617D01*
X63647384Y-99984488D01*
X63647386Y-99984489D01*
X63750113Y-100043799D01*
X63774309Y-100050281D01*
X63774322Y-100050287D01*
X63774322Y-100050285D01*
X63774326Y-100050286D01*
X63864691Y-100074500D01*
X64300500Y-100074500D01*
X64441085Y-100094713D01*
X64570280Y-100153714D01*
X64677619Y-100246724D01*
X64754406Y-100366208D01*
X64794421Y-100502485D01*
X64799500Y-100573500D01*
X64799500Y-100643754D01*
X64811132Y-100702233D01*
X64811467Y-100703040D01*
X64846593Y-100840658D01*
X64841524Y-100982598D01*
X64811467Y-101084960D01*
X64811132Y-101085766D01*
X64799500Y-101144245D01*
X64799500Y-103183754D01*
X64811132Y-103242233D01*
X64811467Y-103243040D01*
X64846593Y-103380658D01*
X64841524Y-103522598D01*
X64811467Y-103624960D01*
X64811132Y-103625766D01*
X64799500Y-103684245D01*
X64799500Y-105723754D01*
X64811131Y-105782228D01*
X64811133Y-105782232D01*
X64855447Y-105848551D01*
X64855448Y-105848552D01*
X64921767Y-105892866D01*
X64921771Y-105892868D01*
X64980245Y-105904499D01*
X64980248Y-105904499D01*
X64980252Y-105904500D01*
X64980256Y-105904500D01*
X67019744Y-105904500D01*
X67019748Y-105904500D01*
X67019752Y-105904499D01*
X67019754Y-105904499D01*
X67078228Y-105892868D01*
X67078229Y-105892867D01*
X67078231Y-105892867D01*
X67144552Y-105848552D01*
X67188867Y-105782231D01*
X67188868Y-105782228D01*
X67189485Y-105780740D01*
X67261959Y-105658592D01*
X67365911Y-105561811D01*
X67492918Y-105498236D01*
X67632691Y-105473019D01*
X67773908Y-105488202D01*
X67905126Y-105542555D01*
X68015717Y-105631675D01*
X68096719Y-105748342D01*
X68141572Y-105883104D01*
X68149500Y-105971701D01*
X68149500Y-108516298D01*
X68129287Y-108656883D01*
X68070286Y-108786078D01*
X67977276Y-108893417D01*
X67857792Y-108970204D01*
X67721515Y-109010219D01*
X67579485Y-109010219D01*
X67443208Y-108970204D01*
X67323724Y-108893417D01*
X67230714Y-108786078D01*
X67189486Y-108707262D01*
X67188867Y-108705769D01*
X67144552Y-108639448D01*
X67144551Y-108639447D01*
X67078232Y-108595133D01*
X67078228Y-108595131D01*
X67019754Y-108583500D01*
X67019748Y-108583500D01*
X64980252Y-108583500D01*
X64980245Y-108583500D01*
X64921771Y-108595131D01*
X64921767Y-108595133D01*
X64855448Y-108639447D01*
X64855447Y-108639448D01*
X64811133Y-108705767D01*
X64811131Y-108705771D01*
X64799500Y-108764245D01*
X64799500Y-110803754D01*
X64811132Y-110862233D01*
X64811467Y-110863040D01*
X64846593Y-111000658D01*
X64841524Y-111142598D01*
X64811467Y-111244960D01*
X64811132Y-111245766D01*
X64799500Y-111304245D01*
X64799500Y-113343754D01*
X64811132Y-113402233D01*
X64811467Y-113403040D01*
X64846593Y-113540658D01*
X64841524Y-113682598D01*
X64811467Y-113784960D01*
X64811132Y-113785766D01*
X64799500Y-113844245D01*
X64799500Y-115883754D01*
X64811132Y-115942233D01*
X64811467Y-115943040D01*
X64846593Y-116080658D01*
X64841524Y-116222598D01*
X64811467Y-116324960D01*
X64811132Y-116325766D01*
X64799500Y-116384245D01*
X64799500Y-118423754D01*
X64811132Y-118482233D01*
X64811467Y-118483040D01*
X64846593Y-118620658D01*
X64841524Y-118762598D01*
X64811467Y-118864960D01*
X64811132Y-118865766D01*
X64799500Y-118924245D01*
X64799500Y-120963754D01*
X64811132Y-121022233D01*
X64811467Y-121023040D01*
X64846593Y-121160658D01*
X64841524Y-121302598D01*
X64811467Y-121404960D01*
X64811132Y-121405766D01*
X64799500Y-121464245D01*
X64799500Y-123503754D01*
X64811132Y-123562233D01*
X64811467Y-123563040D01*
X64846593Y-123700658D01*
X64841524Y-123842598D01*
X64811467Y-123944960D01*
X64811132Y-123945766D01*
X64799500Y-124004245D01*
X64799500Y-126043754D01*
X64811132Y-126102233D01*
X64811467Y-126103040D01*
X64846593Y-126240658D01*
X64841524Y-126382598D01*
X64811467Y-126484960D01*
X64811132Y-126485766D01*
X64799500Y-126544245D01*
X64799500Y-128583754D01*
X64811131Y-128642228D01*
X64811133Y-128642232D01*
X64855447Y-128708551D01*
X64855448Y-128708552D01*
X64921767Y-128752866D01*
X64921771Y-128752868D01*
X64980245Y-128764499D01*
X64980248Y-128764499D01*
X64980252Y-128764500D01*
X64980256Y-128764500D01*
X67019744Y-128764500D01*
X67019748Y-128764500D01*
X67019752Y-128764499D01*
X67019754Y-128764499D01*
X67078228Y-128752868D01*
X67078229Y-128752867D01*
X67078231Y-128752867D01*
X67144552Y-128708552D01*
X67188867Y-128642231D01*
X67195333Y-128609728D01*
X67200499Y-128583754D01*
X67200500Y-128583744D01*
X67200500Y-126544255D01*
X67200499Y-126544245D01*
X67188868Y-126485774D01*
X67188867Y-126485773D01*
X67188867Y-126485769D01*
X67188864Y-126485764D01*
X67188535Y-126484969D01*
X67153407Y-126347351D01*
X67158474Y-126205411D01*
X67188535Y-126103031D01*
X67188865Y-126102233D01*
X67188867Y-126102231D01*
X67188867Y-126102228D01*
X67207679Y-126056816D01*
X67208455Y-126057137D01*
X67231355Y-125992220D01*
X67314425Y-125877016D01*
X67426587Y-125789882D01*
X67558753Y-125737877D01*
X67673521Y-125724500D01*
X68227151Y-125724500D01*
X68367736Y-125744713D01*
X68496931Y-125803714D01*
X68579997Y-125870654D01*
X71680160Y-128970817D01*
X71765276Y-129084518D01*
X71814910Y-129217593D01*
X71825043Y-129359261D01*
X71794852Y-129498046D01*
X71726784Y-129622703D01*
X71626354Y-129723133D01*
X71501697Y-129791201D01*
X71362912Y-129821392D01*
X71278404Y-129820260D01*
X71120002Y-129804659D01*
X71119999Y-129804659D01*
X70923866Y-129823976D01*
X70735272Y-129881185D01*
X70735268Y-129881187D01*
X70561464Y-129974088D01*
X70534482Y-129996232D01*
X70412986Y-130069793D01*
X70275687Y-130106145D01*
X70217920Y-130109500D01*
X68511002Y-130109500D01*
X68402891Y-130131005D01*
X68375682Y-130136417D01*
X68375672Y-130136419D01*
X68375671Y-130136420D01*
X68375669Y-130136420D01*
X68375668Y-130136421D01*
X68338335Y-130151884D01*
X68322866Y-130158292D01*
X68322859Y-130158295D01*
X68322858Y-130158294D01*
X68248193Y-130189222D01*
X68248187Y-130189225D01*
X68181811Y-130233578D01*
X68181810Y-130233578D01*
X68133460Y-130265884D01*
X68133450Y-130265892D01*
X65495890Y-132903451D01*
X65495887Y-132903455D01*
X65447541Y-132975811D01*
X65419226Y-133018186D01*
X65419224Y-133018190D01*
X65366420Y-133145671D01*
X65366419Y-133145674D01*
X65339500Y-133281008D01*
X65339500Y-155643991D01*
X65339499Y-155643991D01*
X65366420Y-155779327D01*
X65366423Y-155779336D01*
X65419221Y-155906804D01*
X65419226Y-155906813D01*
X65495884Y-156021541D01*
X65495888Y-156021546D01*
X69950886Y-160476542D01*
X70048456Y-160574112D01*
X70048463Y-160574118D01*
X70163185Y-160650773D01*
X70163189Y-160650775D01*
X70218938Y-160673867D01*
X70237864Y-160681706D01*
X70237866Y-160681707D01*
X70290671Y-160703580D01*
X70317568Y-160708929D01*
X70317591Y-160708937D01*
X70317591Y-160708934D01*
X70426007Y-160730500D01*
X77202672Y-160730500D01*
X77343257Y-160750713D01*
X77472452Y-160809714D01*
X77579791Y-160902724D01*
X77622081Y-160968530D01*
X77623826Y-160967365D01*
X77695447Y-161074551D01*
X77695448Y-161074552D01*
X77761767Y-161118866D01*
X77761771Y-161118868D01*
X77820245Y-161130499D01*
X77820248Y-161130499D01*
X77820252Y-161130500D01*
X77820256Y-161130500D01*
X79659744Y-161130500D01*
X79659748Y-161130500D01*
X79659752Y-161130499D01*
X79659754Y-161130499D01*
X79718228Y-161118868D01*
X79718229Y-161118867D01*
X79718231Y-161118867D01*
X79784552Y-161074552D01*
X79828867Y-161008231D01*
X79840500Y-160949748D01*
X79840500Y-159505849D01*
X79860713Y-159365264D01*
X79919714Y-159236069D01*
X80012724Y-159128730D01*
X80132208Y-159051943D01*
X80268485Y-159011928D01*
X80410515Y-159011928D01*
X80546792Y-159051943D01*
X80666276Y-159128730D01*
X80692346Y-159153003D01*
X84008453Y-162469111D01*
X84008458Y-162469115D01*
X84123186Y-162545773D01*
X84123189Y-162545775D01*
X84250671Y-162598580D01*
X84277409Y-162603898D01*
X84277414Y-162603900D01*
X84358303Y-162619989D01*
X84386007Y-162625500D01*
X84386011Y-162625500D01*
X97858991Y-162625500D01*
X97858994Y-162625500D01*
X97994328Y-162598580D01*
X98121811Y-162545775D01*
X98236543Y-162469114D01*
X99875985Y-160829669D01*
X99989678Y-160744560D01*
X100122753Y-160694926D01*
X100264422Y-160684793D01*
X100272268Y-160685417D01*
X100330000Y-160690468D01*
X100556692Y-160670635D01*
X100776496Y-160611739D01*
X100982734Y-160515568D01*
X101169139Y-160385047D01*
X101322532Y-160231654D01*
X101436233Y-160146538D01*
X101569308Y-160096904D01*
X101675378Y-160085500D01*
X113098991Y-160085500D01*
X113098994Y-160085500D01*
X113234328Y-160058580D01*
X113361811Y-160005775D01*
X113476543Y-159929114D01*
X115400371Y-158005286D01*
X117347654Y-156058004D01*
X117461355Y-155972888D01*
X117594430Y-155923254D01*
X117736098Y-155913121D01*
X117874883Y-155943312D01*
X117999540Y-156011380D01*
X118099970Y-156111810D01*
X118168038Y-156236467D01*
X118198229Y-156375252D01*
X118199500Y-156410850D01*
X118199500Y-166800500D01*
X118179287Y-166941085D01*
X118120286Y-167070280D01*
X118027276Y-167177619D01*
X117907792Y-167254406D01*
X117771515Y-167294421D01*
X117700500Y-167299500D01*
X61604500Y-167299500D01*
X61463915Y-167279287D01*
X61334720Y-167220286D01*
X61227381Y-167127276D01*
X61150594Y-167007792D01*
X61110579Y-166871515D01*
X61105500Y-166800500D01*
X61105500Y-163321287D01*
X63749500Y-163321287D01*
X63781160Y-163561781D01*
X63781161Y-163561787D01*
X63843946Y-163796101D01*
X63843947Y-163796104D01*
X63936775Y-164020211D01*
X64058061Y-164230284D01*
X64058066Y-164230293D01*
X64205728Y-164422730D01*
X64205739Y-164422742D01*
X64377257Y-164594260D01*
X64377269Y-164594271D01*
X64569706Y-164741933D01*
X64569709Y-164741935D01*
X64569711Y-164741936D01*
X64779788Y-164863224D01*
X65003900Y-164956054D01*
X65238211Y-165018838D01*
X65238215Y-165018838D01*
X65238218Y-165018839D01*
X65478712Y-165050500D01*
X65721288Y-165050500D01*
X65961781Y-165018839D01*
X65961779Y-165018839D01*
X65961789Y-165018838D01*
X66196100Y-164956054D01*
X66420212Y-164863224D01*
X66630289Y-164741936D01*
X66822738Y-164594265D01*
X66994265Y-164422738D01*
X67141936Y-164230289D01*
X67263224Y-164020212D01*
X67356054Y-163796100D01*
X67418838Y-163561789D01*
X67437335Y-163421287D01*
X112849500Y-163421287D01*
X112881160Y-163661781D01*
X112881161Y-163661787D01*
X112943946Y-163896101D01*
X112943947Y-163896104D01*
X113036775Y-164120211D01*
X113158061Y-164330284D01*
X113158066Y-164330293D01*
X113305728Y-164522730D01*
X113305739Y-164522742D01*
X113477257Y-164694260D01*
X113477269Y-164694271D01*
X113669706Y-164841933D01*
X113669709Y-164841935D01*
X113669711Y-164841936D01*
X113879788Y-164963224D01*
X114103900Y-165056054D01*
X114338211Y-165118838D01*
X114338215Y-165118838D01*
X114338218Y-165118839D01*
X114578712Y-165150500D01*
X114821288Y-165150500D01*
X115061781Y-165118839D01*
X115061779Y-165118839D01*
X115061789Y-165118838D01*
X115296100Y-165056054D01*
X115520212Y-164963224D01*
X115730289Y-164841936D01*
X115922738Y-164694265D01*
X116094265Y-164522738D01*
X116241936Y-164330289D01*
X116363224Y-164120212D01*
X116456054Y-163896100D01*
X116518838Y-163661789D01*
X116550500Y-163421288D01*
X116550500Y-163178712D01*
X116518838Y-162938211D01*
X116456054Y-162703900D01*
X116412427Y-162598576D01*
X116363224Y-162479788D01*
X116241938Y-162269715D01*
X116241933Y-162269706D01*
X116094271Y-162077269D01*
X116094260Y-162077257D01*
X115922742Y-161905739D01*
X115922730Y-161905728D01*
X115730293Y-161758066D01*
X115730284Y-161758061D01*
X115520211Y-161636775D01*
X115296104Y-161543947D01*
X115296101Y-161543946D01*
X115061787Y-161481161D01*
X115061781Y-161481160D01*
X114821288Y-161449500D01*
X114578712Y-161449500D01*
X114338218Y-161481160D01*
X114338212Y-161481161D01*
X114103898Y-161543946D01*
X114103895Y-161543947D01*
X113879788Y-161636775D01*
X113669715Y-161758061D01*
X113669706Y-161758066D01*
X113477269Y-161905728D01*
X113477257Y-161905739D01*
X113305739Y-162077257D01*
X113305728Y-162077269D01*
X113158066Y-162269706D01*
X113158061Y-162269715D01*
X113036775Y-162479788D01*
X112943947Y-162703895D01*
X112943946Y-162703898D01*
X112881161Y-162938212D01*
X112881160Y-162938218D01*
X112849500Y-163178712D01*
X112849500Y-163421287D01*
X67437335Y-163421287D01*
X67450500Y-163321288D01*
X67450500Y-163078712D01*
X67418838Y-162838211D01*
X67356054Y-162603900D01*
X67263224Y-162379788D01*
X67141936Y-162169711D01*
X67141935Y-162169709D01*
X67141933Y-162169706D01*
X66994271Y-161977269D01*
X66994260Y-161977257D01*
X66822742Y-161805739D01*
X66822730Y-161805728D01*
X66630293Y-161658066D01*
X66630284Y-161658061D01*
X66420211Y-161536775D01*
X66196104Y-161443947D01*
X66196101Y-161443946D01*
X65961787Y-161381161D01*
X65961781Y-161381160D01*
X65721288Y-161349500D01*
X65478712Y-161349500D01*
X65238218Y-161381160D01*
X65238212Y-161381161D01*
X65003898Y-161443946D01*
X65003895Y-161443947D01*
X64779788Y-161536775D01*
X64569715Y-161658061D01*
X64569706Y-161658066D01*
X64377269Y-161805728D01*
X64377257Y-161805739D01*
X64205739Y-161977257D01*
X64205728Y-161977269D01*
X64058066Y-162169706D01*
X64058061Y-162169715D01*
X63936775Y-162379788D01*
X63843947Y-162603895D01*
X63843947Y-162603897D01*
X63781161Y-162838212D01*
X63781160Y-162838218D01*
X63749500Y-163078712D01*
X63749500Y-163321287D01*
X61105500Y-163321287D01*
X61105500Y-57219754D01*
X70724500Y-57219754D01*
X70736131Y-57278228D01*
X70736133Y-57278232D01*
X70780447Y-57344551D01*
X70780448Y-57344552D01*
X70846767Y-57388866D01*
X70846771Y-57388868D01*
X70905245Y-57400499D01*
X70905248Y-57400499D01*
X70905252Y-57400500D01*
X70905256Y-57400500D01*
X70999203Y-57400500D01*
X71139788Y-57420713D01*
X71268983Y-57479714D01*
X71376322Y-57572724D01*
X71453109Y-57692208D01*
X71493124Y-57828485D01*
X71493124Y-57970515D01*
X71453109Y-58106792D01*
X71384936Y-58216061D01*
X71364088Y-58241464D01*
X71271187Y-58415268D01*
X71271185Y-58415272D01*
X71213976Y-58603866D01*
X71194659Y-58799999D01*
X71194659Y-58800000D01*
X71213976Y-58996133D01*
X71271185Y-59184727D01*
X71271187Y-59184731D01*
X71364088Y-59358535D01*
X71489116Y-59510883D01*
X71574632Y-59581064D01*
X71641462Y-59635910D01*
X71641464Y-59635911D01*
X71815268Y-59728812D01*
X71815272Y-59728814D01*
X71881197Y-59748812D01*
X72003868Y-59786024D01*
X72178571Y-59803230D01*
X72199999Y-59805341D01*
X72200000Y-59805341D01*
X72200001Y-59805341D01*
X72219318Y-59803438D01*
X72396132Y-59786024D01*
X72584727Y-59728814D01*
X72758538Y-59635910D01*
X72910883Y-59510883D01*
X73035910Y-59358538D01*
X73128814Y-59184727D01*
X73186024Y-58996132D01*
X73205341Y-58800000D01*
X73186024Y-58603868D01*
X73134881Y-58435272D01*
X73128814Y-58415272D01*
X73128812Y-58415268D01*
X73035913Y-58241467D01*
X73035911Y-58241464D01*
X73035910Y-58241462D01*
X73012703Y-58213185D01*
X72939145Y-58091692D01*
X72902793Y-57954393D01*
X72906595Y-57812414D01*
X72950244Y-57677257D01*
X73030202Y-57559872D01*
X73139993Y-57469769D01*
X73270721Y-57414247D01*
X73323584Y-57404709D01*
X73344746Y-57400500D01*
X73344748Y-57400500D01*
X73376181Y-57394247D01*
X73403228Y-57388868D01*
X73403229Y-57388867D01*
X73403231Y-57388867D01*
X73469552Y-57344552D01*
X73513867Y-57278231D01*
X73525499Y-57219754D01*
X76724500Y-57219754D01*
X76736131Y-57278228D01*
X76736133Y-57278232D01*
X76780447Y-57344551D01*
X76780448Y-57344552D01*
X76846767Y-57388866D01*
X76846771Y-57388868D01*
X76905245Y-57400499D01*
X76905248Y-57400499D01*
X76905252Y-57400500D01*
X76905256Y-57400500D01*
X76999203Y-57400500D01*
X77139788Y-57420713D01*
X77268983Y-57479714D01*
X77376322Y-57572724D01*
X77453109Y-57692208D01*
X77493124Y-57828485D01*
X77493124Y-57970515D01*
X77453109Y-58106792D01*
X77384936Y-58216061D01*
X77364088Y-58241464D01*
X77271187Y-58415268D01*
X77271185Y-58415272D01*
X77213976Y-58603866D01*
X77194659Y-58799999D01*
X77194659Y-58800000D01*
X77213976Y-58996133D01*
X77271185Y-59184727D01*
X77271187Y-59184731D01*
X77364088Y-59358535D01*
X77489116Y-59510883D01*
X77574632Y-59581064D01*
X77641462Y-59635910D01*
X77641464Y-59635911D01*
X77815268Y-59728812D01*
X77815272Y-59728814D01*
X77881197Y-59748812D01*
X78003868Y-59786024D01*
X78178571Y-59803230D01*
X78199999Y-59805341D01*
X78200000Y-59805341D01*
X78200001Y-59805341D01*
X78219318Y-59803438D01*
X78396132Y-59786024D01*
X78584727Y-59728814D01*
X78758538Y-59635910D01*
X78910883Y-59510883D01*
X79035910Y-59358538D01*
X79128814Y-59184727D01*
X79186024Y-58996132D01*
X79205341Y-58800000D01*
X79186024Y-58603868D01*
X79134881Y-58435272D01*
X79128814Y-58415272D01*
X79128812Y-58415268D01*
X79035913Y-58241467D01*
X79035911Y-58241464D01*
X79035910Y-58241462D01*
X79012703Y-58213185D01*
X78939145Y-58091692D01*
X78902793Y-57954393D01*
X78906595Y-57812414D01*
X78950244Y-57677257D01*
X79030202Y-57559872D01*
X79139993Y-57469769D01*
X79270721Y-57414247D01*
X79323584Y-57404709D01*
X79344746Y-57400500D01*
X79344748Y-57400500D01*
X79376181Y-57394247D01*
X79403228Y-57388868D01*
X79403229Y-57388867D01*
X79403231Y-57388867D01*
X79469552Y-57344552D01*
X79513867Y-57278231D01*
X79525499Y-57219754D01*
X83024500Y-57219754D01*
X83036131Y-57278228D01*
X83036133Y-57278232D01*
X83080447Y-57344551D01*
X83080448Y-57344552D01*
X83146767Y-57388866D01*
X83146771Y-57388868D01*
X83205245Y-57400499D01*
X83205248Y-57400499D01*
X83205252Y-57400500D01*
X83205256Y-57400500D01*
X83299203Y-57400500D01*
X83439788Y-57420713D01*
X83568983Y-57479714D01*
X83676322Y-57572724D01*
X83753109Y-57692208D01*
X83793124Y-57828485D01*
X83793124Y-57970515D01*
X83753109Y-58106792D01*
X83684936Y-58216061D01*
X83664088Y-58241464D01*
X83571187Y-58415268D01*
X83571185Y-58415272D01*
X83513976Y-58603866D01*
X83494659Y-58799999D01*
X83494659Y-58800000D01*
X83513976Y-58996133D01*
X83571185Y-59184727D01*
X83571187Y-59184731D01*
X83664088Y-59358535D01*
X83789116Y-59510883D01*
X83874632Y-59581064D01*
X83941462Y-59635910D01*
X83941464Y-59635911D01*
X84115268Y-59728812D01*
X84115272Y-59728814D01*
X84181197Y-59748812D01*
X84303868Y-59786024D01*
X84478571Y-59803230D01*
X84499999Y-59805341D01*
X84500000Y-59805341D01*
X84500001Y-59805341D01*
X84519318Y-59803438D01*
X84696132Y-59786024D01*
X84884727Y-59728814D01*
X85058538Y-59635910D01*
X85210883Y-59510883D01*
X85335910Y-59358538D01*
X85428814Y-59184727D01*
X85486024Y-58996132D01*
X85505341Y-58800000D01*
X85486024Y-58603868D01*
X85434881Y-58435272D01*
X85428814Y-58415272D01*
X85428812Y-58415268D01*
X85335913Y-58241467D01*
X85335911Y-58241464D01*
X85335910Y-58241462D01*
X85312703Y-58213185D01*
X85239145Y-58091692D01*
X85202793Y-57954393D01*
X85206595Y-57812414D01*
X85250244Y-57677257D01*
X85330202Y-57559872D01*
X85439993Y-57469769D01*
X85570721Y-57414247D01*
X85623584Y-57404709D01*
X85644746Y-57400500D01*
X85644748Y-57400500D01*
X85676181Y-57394247D01*
X85703228Y-57388868D01*
X85703229Y-57388867D01*
X85703231Y-57388867D01*
X85769552Y-57344552D01*
X85813867Y-57278231D01*
X85825499Y-57219754D01*
X89024500Y-57219754D01*
X89036131Y-57278228D01*
X89036133Y-57278232D01*
X89080447Y-57344551D01*
X89080448Y-57344552D01*
X89146767Y-57388866D01*
X89146771Y-57388868D01*
X89205245Y-57400499D01*
X89205248Y-57400499D01*
X89205252Y-57400500D01*
X89205256Y-57400500D01*
X89299203Y-57400500D01*
X89439788Y-57420713D01*
X89568983Y-57479714D01*
X89676322Y-57572724D01*
X89753109Y-57692208D01*
X89793124Y-57828485D01*
X89793124Y-57970515D01*
X89753109Y-58106792D01*
X89684936Y-58216061D01*
X89664088Y-58241464D01*
X89571187Y-58415268D01*
X89571185Y-58415272D01*
X89513976Y-58603866D01*
X89494659Y-58799999D01*
X89494659Y-58800000D01*
X89513976Y-58996133D01*
X89571185Y-59184727D01*
X89571187Y-59184731D01*
X89664088Y-59358535D01*
X89789116Y-59510883D01*
X89874632Y-59581064D01*
X89941462Y-59635910D01*
X89941464Y-59635911D01*
X90115268Y-59728812D01*
X90115272Y-59728814D01*
X90181197Y-59748812D01*
X90303868Y-59786024D01*
X90478571Y-59803230D01*
X90499999Y-59805341D01*
X90500000Y-59805341D01*
X90500001Y-59805341D01*
X90519318Y-59803438D01*
X90696132Y-59786024D01*
X90884727Y-59728814D01*
X91058538Y-59635910D01*
X91210883Y-59510883D01*
X91335910Y-59358538D01*
X91428814Y-59184727D01*
X91486024Y-58996132D01*
X91505341Y-58800000D01*
X91486024Y-58603868D01*
X91434881Y-58435272D01*
X91428814Y-58415272D01*
X91428812Y-58415268D01*
X91335913Y-58241467D01*
X91335911Y-58241464D01*
X91335910Y-58241462D01*
X91312703Y-58213185D01*
X91239145Y-58091692D01*
X91202793Y-57954393D01*
X91206595Y-57812414D01*
X91250244Y-57677257D01*
X91330202Y-57559872D01*
X91439993Y-57469769D01*
X91570721Y-57414247D01*
X91623584Y-57404709D01*
X91644746Y-57400500D01*
X91644748Y-57400500D01*
X91676181Y-57394247D01*
X91703228Y-57388868D01*
X91703229Y-57388867D01*
X91703231Y-57388867D01*
X91769552Y-57344552D01*
X91813867Y-57278231D01*
X91825499Y-57219754D01*
X95999500Y-57219754D01*
X96011131Y-57278228D01*
X96011133Y-57278232D01*
X96055447Y-57344551D01*
X96055448Y-57344552D01*
X96121767Y-57388866D01*
X96121771Y-57388868D01*
X96180245Y-57400499D01*
X96180248Y-57400499D01*
X96180252Y-57400500D01*
X96180256Y-57400500D01*
X96315617Y-57400500D01*
X96456202Y-57420713D01*
X96585397Y-57479714D01*
X96692736Y-57572724D01*
X96769523Y-57692208D01*
X96809538Y-57828485D01*
X96809538Y-57970515D01*
X96769523Y-58106792D01*
X96701351Y-58216058D01*
X96680504Y-58241462D01*
X96664086Y-58261467D01*
X96571187Y-58435268D01*
X96571185Y-58435272D01*
X96513976Y-58623866D01*
X96494659Y-58819999D01*
X96494659Y-58820000D01*
X96513976Y-59016133D01*
X96571185Y-59204727D01*
X96571187Y-59204731D01*
X96664088Y-59378535D01*
X96789116Y-59530883D01*
X96874632Y-59601064D01*
X96941462Y-59655910D01*
X96941464Y-59655911D01*
X97115268Y-59748812D01*
X97115272Y-59748814D01*
X97197392Y-59773724D01*
X97303868Y-59806024D01*
X97478571Y-59823230D01*
X97499999Y-59825341D01*
X97500000Y-59825341D01*
X97500001Y-59825341D01*
X97519318Y-59823438D01*
X97696132Y-59806024D01*
X97884727Y-59748814D01*
X98058538Y-59655910D01*
X98210883Y-59530883D01*
X98335910Y-59378538D01*
X98428814Y-59204727D01*
X98486024Y-59016132D01*
X98505341Y-58820000D01*
X98504467Y-58811131D01*
X98503230Y-58798571D01*
X98486024Y-58623868D01*
X98428814Y-58435273D01*
X98428814Y-58435272D01*
X98428812Y-58435268D01*
X98335911Y-58261464D01*
X98335910Y-58261462D01*
X98295650Y-58212405D01*
X98222089Y-58090909D01*
X98185737Y-57953609D01*
X98189539Y-57811630D01*
X98233188Y-57676473D01*
X98313147Y-57559088D01*
X98422938Y-57468985D01*
X98553666Y-57413464D01*
X98595822Y-57405859D01*
X98595708Y-57405282D01*
X98678228Y-57388868D01*
X98678229Y-57388867D01*
X98678231Y-57388867D01*
X98744552Y-57344552D01*
X98788867Y-57278231D01*
X98800499Y-57219754D01*
X101999500Y-57219754D01*
X102011131Y-57278228D01*
X102011133Y-57278232D01*
X102055447Y-57344551D01*
X102055448Y-57344552D01*
X102121767Y-57388866D01*
X102121771Y-57388868D01*
X102180245Y-57400499D01*
X102180248Y-57400499D01*
X102180252Y-57400500D01*
X102180256Y-57400500D01*
X102299203Y-57400500D01*
X102439788Y-57420713D01*
X102568983Y-57479714D01*
X102676322Y-57572724D01*
X102753109Y-57692208D01*
X102793124Y-57828485D01*
X102793124Y-57970515D01*
X102753109Y-58106792D01*
X102684936Y-58216061D01*
X102664088Y-58241464D01*
X102571187Y-58415268D01*
X102571185Y-58415272D01*
X102513976Y-58603866D01*
X102494659Y-58799999D01*
X102494659Y-58800000D01*
X102513976Y-58996133D01*
X102571185Y-59184727D01*
X102571187Y-59184731D01*
X102664088Y-59358535D01*
X102789116Y-59510883D01*
X102874632Y-59581064D01*
X102941462Y-59635910D01*
X102941464Y-59635911D01*
X103115268Y-59728812D01*
X103115272Y-59728814D01*
X103181197Y-59748812D01*
X103303868Y-59786024D01*
X103478571Y-59803230D01*
X103499999Y-59805341D01*
X103500000Y-59805341D01*
X103500001Y-59805341D01*
X103519318Y-59803438D01*
X103696132Y-59786024D01*
X103884727Y-59728814D01*
X104058538Y-59635910D01*
X104210883Y-59510883D01*
X104335910Y-59358538D01*
X104428814Y-59184727D01*
X104486024Y-58996132D01*
X104505341Y-58800000D01*
X104486024Y-58603868D01*
X104434881Y-58435272D01*
X104428814Y-58415272D01*
X104428812Y-58415268D01*
X104335913Y-58241467D01*
X104335911Y-58241464D01*
X104335910Y-58241462D01*
X104310584Y-58210603D01*
X104237026Y-58089110D01*
X104200674Y-57951811D01*
X104204476Y-57809832D01*
X104248125Y-57674675D01*
X104328083Y-57557290D01*
X104437874Y-57467187D01*
X104568602Y-57411665D01*
X104598975Y-57404631D01*
X104619743Y-57400500D01*
X104619748Y-57400500D01*
X104678231Y-57388867D01*
X104744552Y-57344552D01*
X104788867Y-57278231D01*
X104800500Y-57219748D01*
X104800500Y-54780252D01*
X104800499Y-54780245D01*
X104788868Y-54721771D01*
X104788866Y-54721767D01*
X104744552Y-54655448D01*
X104744551Y-54655447D01*
X104678232Y-54611133D01*
X104678228Y-54611131D01*
X104619754Y-54599500D01*
X104619748Y-54599500D01*
X102180252Y-54599500D01*
X102180245Y-54599500D01*
X102121771Y-54611131D01*
X102121767Y-54611133D01*
X102055448Y-54655447D01*
X102055447Y-54655448D01*
X102011133Y-54721767D01*
X102011131Y-54721771D01*
X101999500Y-54780245D01*
X101999500Y-57219754D01*
X98800499Y-57219754D01*
X98800500Y-57219748D01*
X98800500Y-54780252D01*
X98800499Y-54780245D01*
X98788868Y-54721771D01*
X98788866Y-54721767D01*
X98744552Y-54655448D01*
X98744551Y-54655447D01*
X98678232Y-54611133D01*
X98678228Y-54611131D01*
X98619754Y-54599500D01*
X98619748Y-54599500D01*
X96180252Y-54599500D01*
X96180245Y-54599500D01*
X96121771Y-54611131D01*
X96121767Y-54611133D01*
X96055448Y-54655447D01*
X96055447Y-54655448D01*
X96011133Y-54721767D01*
X96011131Y-54721771D01*
X95999500Y-54780245D01*
X95999500Y-57219754D01*
X91825499Y-57219754D01*
X91825500Y-57219748D01*
X91825500Y-54780252D01*
X91825499Y-54780245D01*
X91813868Y-54721771D01*
X91813866Y-54721767D01*
X91769552Y-54655448D01*
X91769551Y-54655447D01*
X91703232Y-54611133D01*
X91703228Y-54611131D01*
X91644754Y-54599500D01*
X91644748Y-54599500D01*
X89205252Y-54599500D01*
X89205245Y-54599500D01*
X89146771Y-54611131D01*
X89146767Y-54611133D01*
X89080448Y-54655447D01*
X89080447Y-54655448D01*
X89036133Y-54721767D01*
X89036131Y-54721771D01*
X89024500Y-54780245D01*
X89024500Y-57219754D01*
X85825499Y-57219754D01*
X85825500Y-57219748D01*
X85825500Y-54780252D01*
X85825499Y-54780245D01*
X85813868Y-54721771D01*
X85813866Y-54721767D01*
X85769552Y-54655448D01*
X85769551Y-54655447D01*
X85703232Y-54611133D01*
X85703228Y-54611131D01*
X85644754Y-54599500D01*
X85644748Y-54599500D01*
X83205252Y-54599500D01*
X83205245Y-54599500D01*
X83146771Y-54611131D01*
X83146767Y-54611133D01*
X83080448Y-54655447D01*
X83080447Y-54655448D01*
X83036133Y-54721767D01*
X83036131Y-54721771D01*
X83024500Y-54780245D01*
X83024500Y-57219754D01*
X79525499Y-57219754D01*
X79525500Y-57219748D01*
X79525500Y-54780252D01*
X79525499Y-54780245D01*
X79513868Y-54721771D01*
X79513866Y-54721767D01*
X79469552Y-54655448D01*
X79469551Y-54655447D01*
X79403232Y-54611133D01*
X79403228Y-54611131D01*
X79344754Y-54599500D01*
X79344748Y-54599500D01*
X76905252Y-54599500D01*
X76905245Y-54599500D01*
X76846771Y-54611131D01*
X76846767Y-54611133D01*
X76780448Y-54655447D01*
X76780447Y-54655448D01*
X76736133Y-54721767D01*
X76736131Y-54721771D01*
X76724500Y-54780245D01*
X76724500Y-57219754D01*
X73525499Y-57219754D01*
X73525500Y-57219748D01*
X73525500Y-54780252D01*
X73525499Y-54780245D01*
X73513868Y-54721771D01*
X73513866Y-54721767D01*
X73469552Y-54655448D01*
X73469551Y-54655447D01*
X73403232Y-54611133D01*
X73403228Y-54611131D01*
X73344754Y-54599500D01*
X73344748Y-54599500D01*
X70905252Y-54599500D01*
X70905245Y-54599500D01*
X70846771Y-54611131D01*
X70846767Y-54611133D01*
X70780448Y-54655447D01*
X70780447Y-54655448D01*
X70736133Y-54721767D01*
X70736131Y-54721771D01*
X70724500Y-54780245D01*
X70724500Y-57219754D01*
X61105500Y-57219754D01*
X61105500Y-47321287D01*
X63749500Y-47321287D01*
X63781160Y-47561781D01*
X63781161Y-47561787D01*
X63843946Y-47796101D01*
X63843947Y-47796104D01*
X63936775Y-48020211D01*
X64058061Y-48230284D01*
X64058066Y-48230293D01*
X64205728Y-48422730D01*
X64205739Y-48422742D01*
X64377257Y-48594260D01*
X64377269Y-48594271D01*
X64569706Y-48741933D01*
X64569709Y-48741935D01*
X64569711Y-48741936D01*
X64779788Y-48863224D01*
X65003900Y-48956054D01*
X65238211Y-49018838D01*
X65238215Y-49018838D01*
X65238218Y-49018839D01*
X65478712Y-49050500D01*
X65721288Y-49050500D01*
X65961781Y-49018839D01*
X65961779Y-49018839D01*
X65961789Y-49018838D01*
X66196100Y-48956054D01*
X66420212Y-48863224D01*
X66630289Y-48741936D01*
X66822738Y-48594265D01*
X66994265Y-48422738D01*
X67141936Y-48230289D01*
X67263224Y-48020212D01*
X67356054Y-47796100D01*
X67418838Y-47561789D01*
X67437335Y-47421287D01*
X112849500Y-47421287D01*
X112881160Y-47661781D01*
X112881161Y-47661787D01*
X112943946Y-47896101D01*
X112943947Y-47896104D01*
X113036775Y-48120211D01*
X113158061Y-48330284D01*
X113158066Y-48330293D01*
X113305728Y-48522730D01*
X113305739Y-48522742D01*
X113477257Y-48694260D01*
X113477269Y-48694271D01*
X113669706Y-48841933D01*
X113669709Y-48841935D01*
X113669711Y-48841936D01*
X113879788Y-48963224D01*
X114103900Y-49056054D01*
X114338211Y-49118838D01*
X114338215Y-49118838D01*
X114338218Y-49118839D01*
X114578712Y-49150500D01*
X114821288Y-49150500D01*
X115061781Y-49118839D01*
X115061779Y-49118839D01*
X115061789Y-49118838D01*
X115296100Y-49056054D01*
X115520212Y-48963224D01*
X115730289Y-48841936D01*
X115922738Y-48694265D01*
X116094265Y-48522738D01*
X116241936Y-48330289D01*
X116363224Y-48120212D01*
X116456054Y-47896100D01*
X116518838Y-47661789D01*
X116550500Y-47421288D01*
X116550500Y-47178712D01*
X116518838Y-46938211D01*
X116456054Y-46703900D01*
X116363224Y-46479788D01*
X116241936Y-46269711D01*
X116241935Y-46269709D01*
X116241933Y-46269706D01*
X116094271Y-46077269D01*
X116094260Y-46077257D01*
X115922742Y-45905739D01*
X115922730Y-45905728D01*
X115730293Y-45758066D01*
X115730284Y-45758061D01*
X115520211Y-45636775D01*
X115296104Y-45543947D01*
X115296101Y-45543946D01*
X115061787Y-45481161D01*
X115061781Y-45481160D01*
X114821288Y-45449500D01*
X114578712Y-45449500D01*
X114338218Y-45481160D01*
X114338212Y-45481161D01*
X114103898Y-45543946D01*
X114103895Y-45543947D01*
X113879788Y-45636775D01*
X113669715Y-45758061D01*
X113669706Y-45758066D01*
X113477269Y-45905728D01*
X113477257Y-45905739D01*
X113305739Y-46077257D01*
X113305728Y-46077269D01*
X113158066Y-46269706D01*
X113158061Y-46269715D01*
X113036775Y-46479788D01*
X112943947Y-46703895D01*
X112943946Y-46703898D01*
X112881161Y-46938212D01*
X112881160Y-46938218D01*
X112849500Y-47178712D01*
X112849500Y-47421287D01*
X67437335Y-47421287D01*
X67450500Y-47321288D01*
X67450500Y-47078712D01*
X67418838Y-46838211D01*
X67356054Y-46603900D01*
X67263224Y-46379788D01*
X67141936Y-46169711D01*
X67141935Y-46169709D01*
X67141933Y-46169706D01*
X66994271Y-45977269D01*
X66994260Y-45977257D01*
X66822742Y-45805739D01*
X66822730Y-45805728D01*
X66630293Y-45658066D01*
X66630284Y-45658061D01*
X66420211Y-45536775D01*
X66196104Y-45443947D01*
X66196101Y-45443946D01*
X65961787Y-45381161D01*
X65961781Y-45381160D01*
X65721288Y-45349500D01*
X65478712Y-45349500D01*
X65238218Y-45381160D01*
X65238212Y-45381161D01*
X65003898Y-45443946D01*
X65003895Y-45443947D01*
X64779788Y-45536775D01*
X64569715Y-45658061D01*
X64569706Y-45658066D01*
X64377269Y-45805728D01*
X64377257Y-45805739D01*
X64205739Y-45977257D01*
X64205728Y-45977269D01*
X64058066Y-46169706D01*
X64058061Y-46169715D01*
X63936775Y-46379788D01*
X63843947Y-46603895D01*
X63843946Y-46603898D01*
X63781161Y-46838212D01*
X63781160Y-46838218D01*
X63749500Y-47078712D01*
X63749500Y-47321287D01*
X61105500Y-47321287D01*
X61105500Y-44079500D01*
X61125713Y-43938915D01*
X61184714Y-43809720D01*
X61277724Y-43702381D01*
X61397208Y-43625594D01*
X61533485Y-43585579D01*
X61604500Y-43580500D01*
X117700500Y-43580500D01*
X117841085Y-43600713D01*
G37*
G04 #@! TD.AperFunction*
M02*
