G04 #@! TF.GenerationSoftware,KiCad,Pcbnew,8.0.0*
G04 #@! TF.CreationDate,2024-06-05T07:53:31-07:00*
G04 #@! TF.ProjectId,sim_switch,73696d5f-7377-4697-9463-682e6b696361,rev?*
G04 #@! TF.SameCoordinates,Original*
G04 #@! TF.FileFunction,Copper,L1,Top*
G04 #@! TF.FilePolarity,Positive*
%FSLAX46Y46*%
G04 Gerber Fmt 4.6, Leading zero omitted, Abs format (unit mm)*
G04 Created by KiCad (PCBNEW 8.0.0) date 2024-06-05 07:53:31*
%MOMM*%
%LPD*%
G01*
G04 APERTURE LIST*
G04 Aperture macros list*
%AMRoundRect*
0 Rectangle with rounded corners*
0 $1 Rounding radius*
0 $2 $3 $4 $5 $6 $7 $8 $9 X,Y pos of 4 corners*
0 Add a 4 corners polygon primitive as box body*
4,1,4,$2,$3,$4,$5,$6,$7,$8,$9,$2,$3,0*
0 Add four circle primitives for the rounded corners*
1,1,$1+$1,$2,$3*
1,1,$1+$1,$4,$5*
1,1,$1+$1,$6,$7*
1,1,$1+$1,$8,$9*
0 Add four rect primitives between the rounded corners*
20,1,$1+$1,$2,$3,$4,$5,0*
20,1,$1+$1,$4,$5,$6,$7,0*
20,1,$1+$1,$6,$7,$8,$9,0*
20,1,$1+$1,$8,$9,$2,$3,0*%
G04 Aperture macros list end*
G04 #@! TA.AperFunction,SMDPad,CuDef*
%ADD10R,4.000000X8.000000*%
G04 #@! TD*
G04 #@! TA.AperFunction,SMDPad,CuDef*
%ADD11RoundRect,0.750000X-2.750000X-0.750000X2.750000X-0.750000X2.750000X0.750000X-2.750000X0.750000X0*%
G04 #@! TD*
G04 #@! TA.AperFunction,SMDPad,CuDef*
%ADD12RoundRect,0.750000X2.750000X0.750000X-2.750000X0.750000X-2.750000X-0.750000X2.750000X-0.750000X0*%
G04 #@! TD*
G04 #@! TA.AperFunction,ComponentPad*
%ADD13O,4.000000X2.500000*%
G04 #@! TD*
G04 #@! TA.AperFunction,ComponentPad*
%ADD14C,4.000000*%
G04 #@! TD*
G04 #@! TA.AperFunction,ComponentPad*
%ADD15R,2.000000X1.905000*%
G04 #@! TD*
G04 #@! TA.AperFunction,ComponentPad*
%ADD16O,2.000000X1.905000*%
G04 #@! TD*
G04 #@! TA.AperFunction,Conductor*
%ADD17C,2.000000*%
G04 #@! TD*
G04 APERTURE END LIST*
D10*
X162000000Y-66000000D03*
X162000000Y-88000000D03*
D11*
X153500000Y-88500000D03*
X153500000Y-95500000D03*
D12*
X153500000Y-64000000D03*
X153500000Y-57000000D03*
D13*
X145000000Y-85000000D03*
X145000000Y-82000000D03*
D14*
X145000000Y-77000000D03*
X145000000Y-72000000D03*
X145000000Y-67000000D03*
D15*
X152555000Y-73660000D03*
D16*
X152555000Y-76200000D03*
X152555000Y-78740000D03*
D17*
X145000000Y-67000000D02*
X150500000Y-67000000D01*
X150500000Y-67000000D02*
X153500000Y-64000000D01*
X145000000Y-82000000D02*
X149295000Y-82000000D01*
X149295000Y-82000000D02*
X152555000Y-78740000D01*
X147500000Y-85000000D02*
X148000000Y-85500000D01*
X148000000Y-90500000D02*
X149500000Y-92000000D01*
X148000000Y-85500000D02*
X148000000Y-90500000D01*
X149500000Y-92000000D02*
X157000000Y-92000000D01*
X157000000Y-92000000D02*
X162000000Y-87000000D01*
X145000000Y-85000000D02*
X147500000Y-85000000D01*
X154200000Y-76200000D02*
X152555000Y-76200000D01*
X147500000Y-72000000D02*
X148500000Y-73000000D01*
X152555000Y-76200000D02*
X155300000Y-76200000D01*
X162000000Y-66000000D02*
X162000000Y-65000000D01*
X155500000Y-77500000D02*
X154200000Y-76200000D01*
X145000000Y-72000000D02*
X147500000Y-72000000D01*
X153500000Y-88500000D02*
X155500000Y-86500000D01*
X155300000Y-76200000D02*
X156000000Y-75500000D01*
X148500000Y-75500000D02*
X149200000Y-76200000D01*
X148500000Y-73000000D02*
X148500000Y-75500000D01*
X156000000Y-72000000D02*
X162000000Y-66000000D01*
X155500000Y-86500000D02*
X155500000Y-77500000D01*
X156000000Y-75500000D02*
X156000000Y-72000000D01*
X149200000Y-76200000D02*
X152555000Y-76200000D01*
X153500000Y-95500000D02*
X147000000Y-95500000D01*
X152555000Y-73660000D02*
X152555000Y-71445000D01*
X158500000Y-65500000D02*
X158500000Y-62000000D01*
X147000000Y-57000000D02*
X153500000Y-57000000D01*
X152555000Y-71445000D02*
X158500000Y-65500000D01*
X147000000Y-95500000D02*
X141500000Y-90000000D01*
X158500000Y-62000000D02*
X153500000Y-57000000D01*
X141500000Y-90000000D02*
X141500000Y-62500000D01*
X141500000Y-62500000D02*
X147000000Y-57000000D01*
M02*
