G04 #@! TF.GenerationSoftware,KiCad,Pcbnew,8.0.0*
G04 #@! TF.CreationDate,2024-03-18T20:15:54-07:00*
G04 #@! TF.ProjectId,sumitomo_node_v2,73756d69-746f-46d6-9f5f-6e6f64655f76,rev?*
G04 #@! TF.SameCoordinates,Original*
G04 #@! TF.FileFunction,Copper,L2,Bot*
G04 #@! TF.FilePolarity,Positive*
%FSLAX46Y46*%
G04 Gerber Fmt 4.6, Leading zero omitted, Abs format (unit mm)*
G04 Created by KiCad (PCBNEW 8.0.0) date 2024-03-18 20:15:54*
%MOMM*%
%LPD*%
G01*
G04 APERTURE LIST*
G04 #@! TA.AperFunction,ComponentPad*
%ADD10R,2.200000X2.200000*%
G04 #@! TD*
G04 #@! TA.AperFunction,ComponentPad*
%ADD11O,2.200000X2.200000*%
G04 #@! TD*
G04 #@! TA.AperFunction,ComponentPad*
%ADD12R,2.000000X2.000000*%
G04 #@! TD*
G04 #@! TA.AperFunction,ComponentPad*
%ADD13R,1.600000X1.600000*%
G04 #@! TD*
G04 #@! TA.AperFunction,ComponentPad*
%ADD14O,1.600000X1.600000*%
G04 #@! TD*
G04 #@! TA.AperFunction,ComponentPad*
%ADD15C,1.600000*%
G04 #@! TD*
G04 #@! TA.AperFunction,ComponentPad*
%ADD16R,1.800000X1.800000*%
G04 #@! TD*
G04 #@! TA.AperFunction,ComponentPad*
%ADD17C,1.800000*%
G04 #@! TD*
G04 #@! TA.AperFunction,Conductor*
%ADD18C,1.000000*%
G04 #@! TD*
G04 APERTURE END LIST*
D10*
X90170000Y-159385000D03*
D11*
X100330000Y-159385000D03*
D12*
X114260000Y-69144000D03*
X114260000Y-71684000D03*
X114260000Y-74224000D03*
X114260000Y-76764000D03*
X114260000Y-79304000D03*
X114260000Y-81844000D03*
X114260000Y-84384000D03*
X114260000Y-86924000D03*
X114260000Y-92004000D03*
X114260000Y-94544000D03*
X114260000Y-97084000D03*
X114260000Y-99624000D03*
X114260000Y-102164000D03*
X114260000Y-104704000D03*
X114260000Y-107244000D03*
X114260000Y-109784000D03*
X114260000Y-114864000D03*
X114260000Y-117404000D03*
X114260000Y-119944000D03*
X114260000Y-122484000D03*
X114260000Y-125024000D03*
X114260000Y-127564000D03*
X114260000Y-130104000D03*
X114260000Y-132644000D03*
X66000000Y-60000000D03*
X66000000Y-62540000D03*
X66000000Y-65080000D03*
X66000000Y-67620000D03*
X66000000Y-70160000D03*
X66000000Y-72700000D03*
X66000000Y-75240000D03*
X66000000Y-77780000D03*
X66000000Y-80320000D03*
X66000000Y-82860000D03*
X66000000Y-86924000D03*
X66000000Y-89464000D03*
X66000000Y-92004000D03*
X66000000Y-94544000D03*
X66000000Y-97084000D03*
X66000000Y-99624000D03*
X66000000Y-102164000D03*
X66000000Y-104704000D03*
X66000000Y-109784000D03*
X66000000Y-112324000D03*
X66000000Y-114864000D03*
X66000000Y-117404000D03*
X66000000Y-119944000D03*
X66000000Y-122484000D03*
X66000000Y-125024000D03*
X66000000Y-127564000D03*
X85090000Y-156210000D03*
X85090000Y-153670000D03*
X85090000Y-151130000D03*
X85090000Y-148590000D03*
X85090000Y-146050000D03*
X86380000Y-71000000D03*
X88920000Y-71000000D03*
X91460000Y-71000000D03*
X94000000Y-71000000D03*
D13*
X114300000Y-147000000D03*
D14*
X111760000Y-147000000D03*
X109220000Y-147000000D03*
X106680000Y-147000000D03*
X104140000Y-147000000D03*
X101600000Y-147000000D03*
X99060000Y-147000000D03*
X96520000Y-147000000D03*
X93980000Y-147000000D03*
X91440000Y-147000000D03*
X91440000Y-154620000D03*
X93980000Y-154620000D03*
X96520000Y-154620000D03*
X99060000Y-154620000D03*
X101600000Y-154620000D03*
X104140000Y-154620000D03*
X106680000Y-154620000D03*
X109220000Y-154620000D03*
X111760000Y-154620000D03*
X114300000Y-154620000D03*
X71120000Y-130810000D03*
D15*
X81280000Y-130810000D03*
D14*
X71120000Y-134620000D03*
D15*
X81280000Y-134620000D03*
D14*
X71120000Y-138430000D03*
D15*
X81280000Y-138430000D03*
D16*
X78740000Y-160030000D03*
D17*
X78740000Y-157490000D03*
D16*
X71120000Y-152400000D03*
D17*
X71120000Y-154940000D03*
D16*
X71120000Y-144780000D03*
D17*
X71120000Y-147320000D03*
D18*
X86380000Y-99080000D02*
X86380000Y-71000000D01*
X88900000Y-101600000D02*
X86380000Y-99080000D01*
X108656000Y-81844000D02*
X114260000Y-81844000D01*
X88900000Y-101600000D02*
X108656000Y-81844000D01*
X88900000Y-146780000D02*
X88900000Y-101600000D01*
X87090000Y-148590000D02*
X88900000Y-146780000D01*
X87090000Y-148590000D02*
X91440000Y-152940000D01*
X85090000Y-148590000D02*
X87090000Y-148590000D01*
X91440000Y-152940000D02*
X91440000Y-154620000D01*
G04 #@! TA.AperFunction,Conductor*
G36*
X126141085Y-47510713D02*
G01*
X126270280Y-47569714D01*
X126377619Y-47662724D01*
X126454406Y-47782208D01*
X126494421Y-47918485D01*
X126499500Y-47989500D01*
X126499500Y-167910500D01*
X126479287Y-168051085D01*
X126420286Y-168180280D01*
X126327276Y-168287619D01*
X126207792Y-168364406D01*
X126071515Y-168404421D01*
X126000500Y-168409500D01*
X55609500Y-168409500D01*
X55468915Y-168389287D01*
X55339720Y-168330286D01*
X55232381Y-168237276D01*
X55155594Y-168117792D01*
X55115579Y-167981515D01*
X55110500Y-167910500D01*
X55110500Y-162798894D01*
X57637500Y-162798894D01*
X57673973Y-163122596D01*
X57673978Y-163122627D01*
X57746463Y-163440210D01*
X57746469Y-163440229D01*
X57854063Y-163747719D01*
X57854068Y-163747729D01*
X57995405Y-164041218D01*
X57995414Y-164041235D01*
X57995415Y-164041237D01*
X58168739Y-164317081D01*
X58371857Y-164571783D01*
X58602217Y-164802143D01*
X58856919Y-165005261D01*
X59132763Y-165178585D01*
X59132774Y-165178590D01*
X59132781Y-165178594D01*
X59426270Y-165319931D01*
X59426280Y-165319936D01*
X59500094Y-165345764D01*
X59733773Y-165427532D01*
X59733785Y-165427534D01*
X59733789Y-165427536D01*
X59865805Y-165457667D01*
X60051383Y-165500024D01*
X60375111Y-165536500D01*
X60700889Y-165536500D01*
X61024617Y-165500024D01*
X61296747Y-165437912D01*
X61342210Y-165427536D01*
X61342211Y-165427535D01*
X61342227Y-165427532D01*
X61649722Y-165319935D01*
X61943237Y-165178585D01*
X62219081Y-165005261D01*
X62473783Y-164802143D01*
X62704143Y-164571783D01*
X62907261Y-164317081D01*
X63080585Y-164041237D01*
X63221935Y-163747722D01*
X63329532Y-163440227D01*
X63402024Y-163122617D01*
X63438499Y-162798894D01*
X118679500Y-162798894D01*
X118715973Y-163122596D01*
X118715978Y-163122627D01*
X118788463Y-163440210D01*
X118788469Y-163440229D01*
X118896063Y-163747719D01*
X118896068Y-163747729D01*
X119037405Y-164041218D01*
X119037414Y-164041235D01*
X119037415Y-164041237D01*
X119210739Y-164317081D01*
X119413857Y-164571783D01*
X119644217Y-164802143D01*
X119898919Y-165005261D01*
X120174763Y-165178585D01*
X120174774Y-165178590D01*
X120174781Y-165178594D01*
X120468270Y-165319931D01*
X120468280Y-165319936D01*
X120542094Y-165345764D01*
X120775773Y-165427532D01*
X120775785Y-165427534D01*
X120775789Y-165427536D01*
X120907805Y-165457667D01*
X121093383Y-165500024D01*
X121417111Y-165536500D01*
X121742889Y-165536500D01*
X122066617Y-165500024D01*
X122338747Y-165437912D01*
X122384210Y-165427536D01*
X122384211Y-165427535D01*
X122384227Y-165427532D01*
X122691722Y-165319935D01*
X122985237Y-165178585D01*
X123261081Y-165005261D01*
X123515783Y-164802143D01*
X123746143Y-164571783D01*
X123949261Y-164317081D01*
X124122585Y-164041237D01*
X124263935Y-163747722D01*
X124371532Y-163440227D01*
X124444024Y-163122617D01*
X124480500Y-162798889D01*
X124480500Y-162473111D01*
X124444024Y-162149383D01*
X124371532Y-161831773D01*
X124263935Y-161524278D01*
X124122585Y-161230763D01*
X123949261Y-160954919D01*
X123746143Y-160700217D01*
X123515783Y-160469857D01*
X123515779Y-160469854D01*
X123515776Y-160469851D01*
X123261080Y-160266738D01*
X122985235Y-160093414D01*
X122985218Y-160093405D01*
X122691729Y-159952068D01*
X122691719Y-159952063D01*
X122458043Y-159870297D01*
X122384227Y-159844468D01*
X122384222Y-159844467D01*
X122384210Y-159844463D01*
X122066627Y-159771978D01*
X122066622Y-159771977D01*
X122066617Y-159771976D01*
X122066609Y-159771975D01*
X122066596Y-159771973D01*
X121742894Y-159735500D01*
X121742889Y-159735500D01*
X121417111Y-159735500D01*
X121417105Y-159735500D01*
X121093403Y-159771973D01*
X121093387Y-159771975D01*
X121093383Y-159771976D01*
X121093379Y-159771976D01*
X121093372Y-159771978D01*
X120775789Y-159844463D01*
X120775770Y-159844469D01*
X120468280Y-159952063D01*
X120468270Y-159952068D01*
X120174781Y-160093405D01*
X120174764Y-160093414D01*
X119898919Y-160266738D01*
X119644223Y-160469851D01*
X119644212Y-160469861D01*
X119413861Y-160700212D01*
X119413851Y-160700223D01*
X119210738Y-160954919D01*
X119037414Y-161230764D01*
X119037405Y-161230781D01*
X118896068Y-161524270D01*
X118896063Y-161524280D01*
X118788469Y-161831770D01*
X118788463Y-161831789D01*
X118715978Y-162149372D01*
X118715973Y-162149403D01*
X118679500Y-162473105D01*
X118679500Y-162798894D01*
X63438499Y-162798894D01*
X63438500Y-162798889D01*
X63438500Y-162473111D01*
X63402024Y-162149383D01*
X63329532Y-161831773D01*
X63221935Y-161524278D01*
X63080585Y-161230763D01*
X62907261Y-160954919D01*
X62704143Y-160700217D01*
X62473783Y-160469857D01*
X62473779Y-160469854D01*
X62473776Y-160469851D01*
X62219080Y-160266738D01*
X61943235Y-160093414D01*
X61943218Y-160093405D01*
X61649729Y-159952068D01*
X61649719Y-159952063D01*
X61416043Y-159870297D01*
X61342227Y-159844468D01*
X61342222Y-159844467D01*
X61342210Y-159844463D01*
X61024627Y-159771978D01*
X61024622Y-159771977D01*
X61024617Y-159771976D01*
X61024609Y-159771975D01*
X61024596Y-159771973D01*
X60700894Y-159735500D01*
X60700889Y-159735500D01*
X60375111Y-159735500D01*
X60375105Y-159735500D01*
X60051403Y-159771973D01*
X60051387Y-159771975D01*
X60051383Y-159771976D01*
X60051379Y-159771976D01*
X60051372Y-159771978D01*
X59733789Y-159844463D01*
X59733770Y-159844469D01*
X59426280Y-159952063D01*
X59426270Y-159952068D01*
X59132781Y-160093405D01*
X59132764Y-160093414D01*
X58856919Y-160266738D01*
X58602223Y-160469851D01*
X58602212Y-160469861D01*
X58371861Y-160700212D01*
X58371851Y-160700223D01*
X58168738Y-160954919D01*
X57995414Y-161230764D01*
X57995405Y-161230781D01*
X57854068Y-161524270D01*
X57854063Y-161524280D01*
X57746469Y-161831770D01*
X57746463Y-161831789D01*
X57673978Y-162149372D01*
X57673973Y-162149403D01*
X57637500Y-162473105D01*
X57637500Y-162798894D01*
X55110500Y-162798894D01*
X55110500Y-157490005D01*
X77634785Y-157490005D01*
X77653601Y-157693071D01*
X77653602Y-157693080D01*
X77709419Y-157889253D01*
X77800327Y-158071821D01*
X77905108Y-158210574D01*
X77973699Y-158334944D01*
X78004473Y-158473600D01*
X77994936Y-158615310D01*
X77945861Y-158748592D01*
X77861223Y-158862650D01*
X77784134Y-158926188D01*
X77695447Y-158985448D01*
X77651133Y-159051767D01*
X77651131Y-159051771D01*
X77639500Y-159110245D01*
X77639500Y-160949754D01*
X77651131Y-161008228D01*
X77651133Y-161008232D01*
X77695447Y-161074551D01*
X77695448Y-161074552D01*
X77761767Y-161118866D01*
X77761771Y-161118868D01*
X77820245Y-161130499D01*
X77820248Y-161130499D01*
X77820252Y-161130500D01*
X77820256Y-161130500D01*
X79659744Y-161130500D01*
X79659748Y-161130500D01*
X79659752Y-161130499D01*
X79659754Y-161130499D01*
X79718228Y-161118868D01*
X79718229Y-161118867D01*
X79718231Y-161118867D01*
X79784552Y-161074552D01*
X79828867Y-161008231D01*
X79839472Y-160954919D01*
X79840499Y-160949754D01*
X79840500Y-160949744D01*
X79840500Y-160504754D01*
X88869500Y-160504754D01*
X88881131Y-160563228D01*
X88881133Y-160563232D01*
X88925447Y-160629551D01*
X88925448Y-160629552D01*
X88991767Y-160673866D01*
X88991771Y-160673868D01*
X89050245Y-160685499D01*
X89050248Y-160685499D01*
X89050252Y-160685500D01*
X89050256Y-160685500D01*
X91289744Y-160685500D01*
X91289748Y-160685500D01*
X91289752Y-160685499D01*
X91289754Y-160685499D01*
X91348228Y-160673868D01*
X91348229Y-160673867D01*
X91348231Y-160673867D01*
X91414552Y-160629552D01*
X91458867Y-160563231D01*
X91470500Y-160504748D01*
X91470500Y-159385001D01*
X99024532Y-159385001D01*
X99044365Y-159611693D01*
X99103261Y-159831498D01*
X99159485Y-159952068D01*
X99199432Y-160037734D01*
X99329953Y-160224139D01*
X99490861Y-160385047D01*
X99677266Y-160515568D01*
X99779473Y-160563228D01*
X99883501Y-160611738D01*
X99883503Y-160611738D01*
X99883504Y-160611739D01*
X100103308Y-160670635D01*
X100308264Y-160688566D01*
X100329999Y-160690468D01*
X100330000Y-160690468D01*
X100330001Y-160690468D01*
X100349834Y-160688732D01*
X100556692Y-160670635D01*
X100776496Y-160611739D01*
X100982734Y-160515568D01*
X101169139Y-160385047D01*
X101330047Y-160224139D01*
X101460568Y-160037734D01*
X101556739Y-159831496D01*
X101615635Y-159611692D01*
X101635468Y-159385000D01*
X101615635Y-159158308D01*
X101556739Y-158938504D01*
X101552540Y-158929500D01*
X101506738Y-158831277D01*
X101460568Y-158732266D01*
X101330047Y-158545861D01*
X101169139Y-158384953D01*
X100998177Y-158265245D01*
X100982736Y-158254433D01*
X100776498Y-158158261D01*
X100556693Y-158099365D01*
X100330001Y-158079532D01*
X100329999Y-158079532D01*
X100103306Y-158099365D01*
X99883501Y-158158261D01*
X99677263Y-158254433D01*
X99490863Y-158384951D01*
X99490857Y-158384956D01*
X99329956Y-158545857D01*
X99329951Y-158545863D01*
X99199433Y-158732263D01*
X99103261Y-158938501D01*
X99044365Y-159158306D01*
X99024532Y-159384998D01*
X99024532Y-159385001D01*
X91470500Y-159385001D01*
X91470500Y-158265252D01*
X91459624Y-158210574D01*
X91458868Y-158206771D01*
X91458866Y-158206767D01*
X91414552Y-158140448D01*
X91414551Y-158140447D01*
X91348232Y-158096133D01*
X91348228Y-158096131D01*
X91289754Y-158084500D01*
X91289748Y-158084500D01*
X89050252Y-158084500D01*
X89050245Y-158084500D01*
X88991771Y-158096131D01*
X88991767Y-158096133D01*
X88925448Y-158140447D01*
X88925447Y-158140448D01*
X88881133Y-158206767D01*
X88881131Y-158206771D01*
X88869500Y-158265245D01*
X88869500Y-160504754D01*
X79840500Y-160504754D01*
X79840500Y-159110255D01*
X79840499Y-159110245D01*
X79828868Y-159051771D01*
X79828866Y-159051767D01*
X79784552Y-158985448D01*
X79784551Y-158985447D01*
X79695867Y-158926189D01*
X79590206Y-158831277D01*
X79515565Y-158710441D01*
X79477991Y-158573471D01*
X79480527Y-158431464D01*
X79522969Y-158295923D01*
X79574886Y-158210580D01*
X79679673Y-158071821D01*
X79770582Y-157889250D01*
X79826397Y-157693083D01*
X79845215Y-157490000D01*
X79845215Y-157489994D01*
X79826398Y-157286928D01*
X79826397Y-157286919D01*
X79826397Y-157286917D01*
X79810133Y-157229754D01*
X83889500Y-157229754D01*
X83901131Y-157288228D01*
X83901133Y-157288232D01*
X83945447Y-157354551D01*
X83945448Y-157354552D01*
X84011767Y-157398866D01*
X84011771Y-157398868D01*
X84070245Y-157410499D01*
X84070248Y-157410499D01*
X84070252Y-157410500D01*
X84070256Y-157410500D01*
X86109744Y-157410500D01*
X86109748Y-157410500D01*
X86109752Y-157410499D01*
X86109754Y-157410499D01*
X86168228Y-157398868D01*
X86168229Y-157398867D01*
X86168231Y-157398867D01*
X86234552Y-157354552D01*
X86278867Y-157288231D01*
X86279127Y-157286928D01*
X86290499Y-157229754D01*
X86290500Y-157229744D01*
X86290500Y-155190255D01*
X86290499Y-155190245D01*
X86278868Y-155131774D01*
X86278867Y-155131773D01*
X86278867Y-155131769D01*
X86278864Y-155131764D01*
X86278535Y-155130969D01*
X86243407Y-154993351D01*
X86248474Y-154851411D01*
X86278535Y-154749031D01*
X86278863Y-154748236D01*
X86278867Y-154748231D01*
X86290500Y-154689748D01*
X86290500Y-152650252D01*
X86278867Y-152591769D01*
X86278864Y-152591764D01*
X86278535Y-152590969D01*
X86243407Y-152453351D01*
X86248474Y-152311411D01*
X86278535Y-152209031D01*
X86278863Y-152208236D01*
X86278867Y-152208231D01*
X86290500Y-152149748D01*
X86290500Y-150110252D01*
X86290499Y-150110245D01*
X86278868Y-150051771D01*
X86278866Y-150051767D01*
X86234552Y-149985448D01*
X86234551Y-149985447D01*
X86168232Y-149941133D01*
X86168228Y-149941131D01*
X86109754Y-149929500D01*
X86109748Y-149929500D01*
X84070252Y-149929500D01*
X84070245Y-149929500D01*
X84011771Y-149941131D01*
X84011767Y-149941133D01*
X83945448Y-149985447D01*
X83945447Y-149985448D01*
X83901133Y-150051767D01*
X83901131Y-150051771D01*
X83889500Y-150110245D01*
X83889500Y-152149754D01*
X83901132Y-152208233D01*
X83901467Y-152209040D01*
X83936593Y-152346658D01*
X83931524Y-152488598D01*
X83901467Y-152590960D01*
X83901132Y-152591766D01*
X83889500Y-152650245D01*
X83889500Y-154689754D01*
X83901132Y-154748233D01*
X83901467Y-154749040D01*
X83936593Y-154886658D01*
X83931524Y-155028598D01*
X83901467Y-155130960D01*
X83901132Y-155131766D01*
X83889500Y-155190245D01*
X83889500Y-157229754D01*
X79810133Y-157229754D01*
X79770582Y-157090750D01*
X79679673Y-156908179D01*
X79556764Y-156745421D01*
X79406041Y-156608019D01*
X79406040Y-156608018D01*
X79232637Y-156500652D01*
X79042453Y-156426975D01*
X79042454Y-156426975D01*
X78841978Y-156389500D01*
X78841976Y-156389500D01*
X78638024Y-156389500D01*
X78638021Y-156389500D01*
X78437545Y-156426975D01*
X78247362Y-156500652D01*
X78073959Y-156608018D01*
X77923235Y-156745421D01*
X77800325Y-156908181D01*
X77709419Y-157090746D01*
X77653602Y-157286919D01*
X77653601Y-157286928D01*
X77634785Y-157489994D01*
X77634785Y-157490005D01*
X55110500Y-157490005D01*
X55110500Y-154940005D01*
X70014785Y-154940005D01*
X70033601Y-155143071D01*
X70033602Y-155143080D01*
X70089419Y-155339253D01*
X70180325Y-155521818D01*
X70180326Y-155521819D01*
X70180327Y-155521821D01*
X70303236Y-155684579D01*
X70453959Y-155821981D01*
X70627363Y-155929348D01*
X70817544Y-156003024D01*
X71018024Y-156040500D01*
X71018027Y-156040500D01*
X71221973Y-156040500D01*
X71221976Y-156040500D01*
X71422456Y-156003024D01*
X71612637Y-155929348D01*
X71786041Y-155821981D01*
X71936764Y-155684579D01*
X72059673Y-155521821D01*
X72150582Y-155339250D01*
X72206397Y-155143083D01*
X72213591Y-155065448D01*
X72225215Y-154940005D01*
X72225215Y-154939994D01*
X72206398Y-154736928D01*
X72206397Y-154736919D01*
X72206397Y-154736917D01*
X72150582Y-154540750D01*
X72059673Y-154358179D01*
X71954890Y-154219424D01*
X71886300Y-154095056D01*
X71855526Y-153956399D01*
X71865063Y-153814690D01*
X71914138Y-153681407D01*
X71998775Y-153567349D01*
X72075869Y-153503808D01*
X72098228Y-153488867D01*
X72098231Y-153488867D01*
X72164552Y-153444552D01*
X72208867Y-153378231D01*
X72220500Y-153319748D01*
X72220500Y-151480252D01*
X72220499Y-151480245D01*
X72208868Y-151421771D01*
X72208866Y-151421767D01*
X72164552Y-151355448D01*
X72164551Y-151355447D01*
X72098232Y-151311133D01*
X72098228Y-151311131D01*
X72039754Y-151299500D01*
X72039748Y-151299500D01*
X70200252Y-151299500D01*
X70200245Y-151299500D01*
X70141771Y-151311131D01*
X70141767Y-151311133D01*
X70075448Y-151355447D01*
X70075447Y-151355448D01*
X70031133Y-151421767D01*
X70031131Y-151421771D01*
X70019500Y-151480245D01*
X70019500Y-153319754D01*
X70031131Y-153378228D01*
X70031133Y-153378232D01*
X70075446Y-153444550D01*
X70075447Y-153444550D01*
X70075448Y-153444552D01*
X70141769Y-153488867D01*
X70141770Y-153488867D01*
X70164132Y-153503809D01*
X70269793Y-153598721D01*
X70344434Y-153719557D01*
X70382008Y-153856527D01*
X70379472Y-153998535D01*
X70337030Y-154134075D01*
X70285109Y-154219424D01*
X70180326Y-154358178D01*
X70089419Y-154540746D01*
X70033602Y-154736919D01*
X70033601Y-154736928D01*
X70014785Y-154939994D01*
X70014785Y-154940005D01*
X55110500Y-154940005D01*
X55110500Y-147320005D01*
X70014785Y-147320005D01*
X70033601Y-147523071D01*
X70033602Y-147523080D01*
X70089419Y-147719253D01*
X70180325Y-147901818D01*
X70180326Y-147901819D01*
X70180327Y-147901821D01*
X70303236Y-148064579D01*
X70453959Y-148201981D01*
X70627363Y-148309348D01*
X70817544Y-148383024D01*
X71018024Y-148420500D01*
X71018027Y-148420500D01*
X71221973Y-148420500D01*
X71221976Y-148420500D01*
X71422456Y-148383024D01*
X71612637Y-148309348D01*
X71786041Y-148201981D01*
X71936764Y-148064579D01*
X72059673Y-147901821D01*
X72150582Y-147719250D01*
X72206397Y-147523083D01*
X72212678Y-147455298D01*
X72225215Y-147320005D01*
X72225215Y-147319994D01*
X72206398Y-147116928D01*
X72206397Y-147116919D01*
X72206397Y-147116917D01*
X72192978Y-147069754D01*
X83889500Y-147069754D01*
X83901131Y-147128228D01*
X83901133Y-147128232D01*
X83945447Y-147194551D01*
X83945448Y-147194552D01*
X84011767Y-147238866D01*
X84011771Y-147238868D01*
X84070245Y-147250499D01*
X84070248Y-147250499D01*
X84070252Y-147250500D01*
X84070256Y-147250500D01*
X86109744Y-147250500D01*
X86109748Y-147250500D01*
X86109752Y-147250499D01*
X86109754Y-147250499D01*
X86168228Y-147238868D01*
X86168229Y-147238867D01*
X86168231Y-147238867D01*
X86234552Y-147194552D01*
X86278867Y-147128231D01*
X86281116Y-147116928D01*
X86290499Y-147069754D01*
X86290500Y-147069744D01*
X86290500Y-147000000D01*
X90434659Y-147000000D01*
X90453976Y-147196133D01*
X90511185Y-147384727D01*
X90511187Y-147384731D01*
X90604088Y-147558535D01*
X90729116Y-147710883D01*
X90773887Y-147747625D01*
X90881462Y-147835910D01*
X90881464Y-147835911D01*
X91055268Y-147928812D01*
X91055272Y-147928814D01*
X91107154Y-147944552D01*
X91243868Y-147986024D01*
X91418571Y-148003230D01*
X91439999Y-148005341D01*
X91440000Y-148005341D01*
X91440001Y-148005341D01*
X91459318Y-148003438D01*
X91636132Y-147986024D01*
X91824727Y-147928814D01*
X91998538Y-147835910D01*
X92150883Y-147710883D01*
X92275910Y-147558538D01*
X92275914Y-147558530D01*
X92289535Y-147538148D01*
X92291950Y-147539761D01*
X92354006Y-147455298D01*
X92466940Y-147369167D01*
X92599565Y-147318343D01*
X92741137Y-147306941D01*
X92880187Y-147335887D01*
X93005448Y-147402836D01*
X93106775Y-147502362D01*
X93129981Y-147538471D01*
X93130465Y-147538148D01*
X93144088Y-147558535D01*
X93269116Y-147710883D01*
X93313887Y-147747625D01*
X93421462Y-147835910D01*
X93421464Y-147835911D01*
X93595268Y-147928812D01*
X93595272Y-147928814D01*
X93647154Y-147944552D01*
X93783868Y-147986024D01*
X93958571Y-148003230D01*
X93979999Y-148005341D01*
X93980000Y-148005341D01*
X93980001Y-148005341D01*
X93999318Y-148003438D01*
X94176132Y-147986024D01*
X94364727Y-147928814D01*
X94538538Y-147835910D01*
X94690883Y-147710883D01*
X94815910Y-147558538D01*
X94815914Y-147558530D01*
X94829535Y-147538148D01*
X94831950Y-147539761D01*
X94894006Y-147455298D01*
X95006940Y-147369167D01*
X95139565Y-147318343D01*
X95281137Y-147306941D01*
X95420187Y-147335887D01*
X95545448Y-147402836D01*
X95646775Y-147502362D01*
X95669981Y-147538471D01*
X95670465Y-147538148D01*
X95684088Y-147558535D01*
X95809116Y-147710883D01*
X95853887Y-147747625D01*
X95961462Y-147835910D01*
X95961464Y-147835911D01*
X96135268Y-147928812D01*
X96135272Y-147928814D01*
X96187154Y-147944552D01*
X96323868Y-147986024D01*
X96498571Y-148003230D01*
X96519999Y-148005341D01*
X96520000Y-148005341D01*
X96520001Y-148005341D01*
X96539318Y-148003438D01*
X96716132Y-147986024D01*
X96904727Y-147928814D01*
X97078538Y-147835910D01*
X97230883Y-147710883D01*
X97355910Y-147558538D01*
X97355914Y-147558530D01*
X97369535Y-147538148D01*
X97371950Y-147539761D01*
X97434006Y-147455298D01*
X97546940Y-147369167D01*
X97679565Y-147318343D01*
X97821137Y-147306941D01*
X97960187Y-147335887D01*
X98085448Y-147402836D01*
X98186775Y-147502362D01*
X98209981Y-147538471D01*
X98210465Y-147538148D01*
X98224088Y-147558535D01*
X98349116Y-147710883D01*
X98393887Y-147747625D01*
X98501462Y-147835910D01*
X98501464Y-147835911D01*
X98675268Y-147928812D01*
X98675272Y-147928814D01*
X98727154Y-147944552D01*
X98863868Y-147986024D01*
X99038571Y-148003230D01*
X99059999Y-148005341D01*
X99060000Y-148005341D01*
X99060001Y-148005341D01*
X99079318Y-148003438D01*
X99256132Y-147986024D01*
X99444727Y-147928814D01*
X99618538Y-147835910D01*
X99770883Y-147710883D01*
X99895910Y-147558538D01*
X99895914Y-147558530D01*
X99909535Y-147538148D01*
X99911950Y-147539761D01*
X99974006Y-147455298D01*
X100086940Y-147369167D01*
X100219565Y-147318343D01*
X100361137Y-147306941D01*
X100500187Y-147335887D01*
X100625448Y-147402836D01*
X100726775Y-147502362D01*
X100749981Y-147538471D01*
X100750465Y-147538148D01*
X100764088Y-147558535D01*
X100889116Y-147710883D01*
X100933887Y-147747625D01*
X101041462Y-147835910D01*
X101041464Y-147835911D01*
X101215268Y-147928812D01*
X101215272Y-147928814D01*
X101267154Y-147944552D01*
X101403868Y-147986024D01*
X101578571Y-148003230D01*
X101599999Y-148005341D01*
X101600000Y-148005341D01*
X101600001Y-148005341D01*
X101619318Y-148003438D01*
X101796132Y-147986024D01*
X101984727Y-147928814D01*
X102158538Y-147835910D01*
X102310883Y-147710883D01*
X102435910Y-147558538D01*
X102435914Y-147558530D01*
X102449535Y-147538148D01*
X102451950Y-147539761D01*
X102514006Y-147455298D01*
X102626940Y-147369167D01*
X102759565Y-147318343D01*
X102901137Y-147306941D01*
X103040187Y-147335887D01*
X103165448Y-147402836D01*
X103266775Y-147502362D01*
X103289981Y-147538471D01*
X103290465Y-147538148D01*
X103304088Y-147558535D01*
X103429116Y-147710883D01*
X103473887Y-147747625D01*
X103581462Y-147835910D01*
X103581464Y-147835911D01*
X103755268Y-147928812D01*
X103755272Y-147928814D01*
X103807154Y-147944552D01*
X103943868Y-147986024D01*
X104118571Y-148003230D01*
X104139999Y-148005341D01*
X104140000Y-148005341D01*
X104140001Y-148005341D01*
X104159318Y-148003438D01*
X104336132Y-147986024D01*
X104524727Y-147928814D01*
X104698538Y-147835910D01*
X104850883Y-147710883D01*
X104975910Y-147558538D01*
X104975914Y-147558530D01*
X104989535Y-147538148D01*
X104991950Y-147539761D01*
X105054006Y-147455298D01*
X105166940Y-147369167D01*
X105299565Y-147318343D01*
X105441137Y-147306941D01*
X105580187Y-147335887D01*
X105705448Y-147402836D01*
X105806775Y-147502362D01*
X105829981Y-147538471D01*
X105830465Y-147538148D01*
X105844088Y-147558535D01*
X105969116Y-147710883D01*
X106013887Y-147747625D01*
X106121462Y-147835910D01*
X106121464Y-147835911D01*
X106295268Y-147928812D01*
X106295272Y-147928814D01*
X106347154Y-147944552D01*
X106483868Y-147986024D01*
X106658571Y-148003230D01*
X106679999Y-148005341D01*
X106680000Y-148005341D01*
X106680001Y-148005341D01*
X106699318Y-148003438D01*
X106876132Y-147986024D01*
X107064727Y-147928814D01*
X107238538Y-147835910D01*
X107390883Y-147710883D01*
X107515910Y-147558538D01*
X107515914Y-147558530D01*
X107529535Y-147538148D01*
X107531950Y-147539761D01*
X107594006Y-147455298D01*
X107706940Y-147369167D01*
X107839565Y-147318343D01*
X107981137Y-147306941D01*
X108120187Y-147335887D01*
X108245448Y-147402836D01*
X108346775Y-147502362D01*
X108369981Y-147538471D01*
X108370465Y-147538148D01*
X108384088Y-147558535D01*
X108509116Y-147710883D01*
X108553887Y-147747625D01*
X108661462Y-147835910D01*
X108661464Y-147835911D01*
X108835268Y-147928812D01*
X108835272Y-147928814D01*
X108887154Y-147944552D01*
X109023868Y-147986024D01*
X109198571Y-148003230D01*
X109219999Y-148005341D01*
X109220000Y-148005341D01*
X109220001Y-148005341D01*
X109239318Y-148003438D01*
X109416132Y-147986024D01*
X109604727Y-147928814D01*
X109778538Y-147835910D01*
X109930883Y-147710883D01*
X110055910Y-147558538D01*
X110055914Y-147558530D01*
X110069535Y-147538148D01*
X110071950Y-147539761D01*
X110134006Y-147455298D01*
X110246940Y-147369167D01*
X110379565Y-147318343D01*
X110521137Y-147306941D01*
X110660187Y-147335887D01*
X110785448Y-147402836D01*
X110886775Y-147502362D01*
X110909981Y-147538471D01*
X110910465Y-147538148D01*
X110924088Y-147558535D01*
X111049116Y-147710883D01*
X111093887Y-147747625D01*
X111201462Y-147835910D01*
X111201464Y-147835911D01*
X111375268Y-147928812D01*
X111375272Y-147928814D01*
X111427154Y-147944552D01*
X111563868Y-147986024D01*
X111738571Y-148003230D01*
X111759999Y-148005341D01*
X111760000Y-148005341D01*
X111760001Y-148005341D01*
X111779318Y-148003438D01*
X111956132Y-147986024D01*
X112144727Y-147928814D01*
X112318538Y-147835910D01*
X112470883Y-147710883D01*
X112470887Y-147710877D01*
X112487937Y-147693829D01*
X112601636Y-147608712D01*
X112734711Y-147559075D01*
X112876379Y-147548941D01*
X113015164Y-147579130D01*
X113139822Y-147647196D01*
X113240254Y-147747625D01*
X113301802Y-147855706D01*
X113311132Y-147878230D01*
X113355447Y-147944551D01*
X113355448Y-147944552D01*
X113421767Y-147988866D01*
X113421771Y-147988868D01*
X113480245Y-148000499D01*
X113480248Y-148000499D01*
X113480252Y-148000500D01*
X113480256Y-148000500D01*
X115119744Y-148000500D01*
X115119748Y-148000500D01*
X115119752Y-148000499D01*
X115119754Y-148000499D01*
X115178228Y-147988868D01*
X115178229Y-147988867D01*
X115178231Y-147988867D01*
X115244552Y-147944552D01*
X115288867Y-147878231D01*
X115300500Y-147819748D01*
X115300500Y-146180252D01*
X115300499Y-146180245D01*
X115288868Y-146121771D01*
X115288866Y-146121767D01*
X115244552Y-146055448D01*
X115244551Y-146055447D01*
X115178232Y-146011133D01*
X115178228Y-146011131D01*
X115119754Y-145999500D01*
X115119748Y-145999500D01*
X113480252Y-145999500D01*
X113480245Y-145999500D01*
X113421771Y-146011131D01*
X113421767Y-146011133D01*
X113355448Y-146055447D01*
X113355447Y-146055448D01*
X113311132Y-146121769D01*
X113301801Y-146144296D01*
X113229325Y-146266442D01*
X113125372Y-146363223D01*
X112998364Y-146426796D01*
X112858590Y-146452011D01*
X112717374Y-146436827D01*
X112586156Y-146382472D01*
X112487942Y-146306175D01*
X112470884Y-146289117D01*
X112338231Y-146180252D01*
X112318538Y-146164090D01*
X112318536Y-146164089D01*
X112318535Y-146164088D01*
X112144731Y-146071187D01*
X112144727Y-146071185D01*
X111956133Y-146013976D01*
X111760001Y-145994659D01*
X111759999Y-145994659D01*
X111563866Y-146013976D01*
X111375272Y-146071185D01*
X111375268Y-146071187D01*
X111201464Y-146164088D01*
X111049116Y-146289116D01*
X110924088Y-146441464D01*
X110910465Y-146461852D01*
X110908050Y-146460238D01*
X110845980Y-146544715D01*
X110733042Y-146630841D01*
X110600415Y-146681661D01*
X110458843Y-146693056D01*
X110319795Y-146664105D01*
X110194536Y-146597152D01*
X110093213Y-146497621D01*
X110070018Y-146461529D01*
X110069535Y-146461852D01*
X110055911Y-146441464D01*
X110055910Y-146441462D01*
X109969687Y-146336399D01*
X109930883Y-146289116D01*
X109798231Y-146180252D01*
X109778538Y-146164090D01*
X109778536Y-146164089D01*
X109778535Y-146164088D01*
X109604731Y-146071187D01*
X109604727Y-146071185D01*
X109416133Y-146013976D01*
X109220001Y-145994659D01*
X109219999Y-145994659D01*
X109023866Y-146013976D01*
X108835272Y-146071185D01*
X108835268Y-146071187D01*
X108661464Y-146164088D01*
X108509116Y-146289116D01*
X108384088Y-146441464D01*
X108370465Y-146461852D01*
X108368050Y-146460238D01*
X108305980Y-146544715D01*
X108193042Y-146630841D01*
X108060415Y-146681661D01*
X107918843Y-146693056D01*
X107779795Y-146664105D01*
X107654536Y-146597152D01*
X107553213Y-146497621D01*
X107530018Y-146461529D01*
X107529535Y-146461852D01*
X107515911Y-146441464D01*
X107515910Y-146441462D01*
X107429687Y-146336399D01*
X107390883Y-146289116D01*
X107258231Y-146180252D01*
X107238538Y-146164090D01*
X107238536Y-146164089D01*
X107238535Y-146164088D01*
X107064731Y-146071187D01*
X107064727Y-146071185D01*
X106876133Y-146013976D01*
X106680001Y-145994659D01*
X106679999Y-145994659D01*
X106483866Y-146013976D01*
X106295272Y-146071185D01*
X106295268Y-146071187D01*
X106121464Y-146164088D01*
X105969116Y-146289116D01*
X105844088Y-146441464D01*
X105830465Y-146461852D01*
X105828050Y-146460238D01*
X105765980Y-146544715D01*
X105653042Y-146630841D01*
X105520415Y-146681661D01*
X105378843Y-146693056D01*
X105239795Y-146664105D01*
X105114536Y-146597152D01*
X105013213Y-146497621D01*
X104990018Y-146461529D01*
X104989535Y-146461852D01*
X104975911Y-146441464D01*
X104975910Y-146441462D01*
X104889687Y-146336399D01*
X104850883Y-146289116D01*
X104718231Y-146180252D01*
X104698538Y-146164090D01*
X104698536Y-146164089D01*
X104698535Y-146164088D01*
X104524731Y-146071187D01*
X104524727Y-146071185D01*
X104336133Y-146013976D01*
X104140001Y-145994659D01*
X104139999Y-145994659D01*
X103943866Y-146013976D01*
X103755272Y-146071185D01*
X103755268Y-146071187D01*
X103581464Y-146164088D01*
X103429116Y-146289116D01*
X103304088Y-146441464D01*
X103290465Y-146461852D01*
X103288050Y-146460238D01*
X103225980Y-146544715D01*
X103113042Y-146630841D01*
X102980415Y-146681661D01*
X102838843Y-146693056D01*
X102699795Y-146664105D01*
X102574536Y-146597152D01*
X102473213Y-146497621D01*
X102450018Y-146461529D01*
X102449535Y-146461852D01*
X102435911Y-146441464D01*
X102435910Y-146441462D01*
X102349687Y-146336399D01*
X102310883Y-146289116D01*
X102178231Y-146180252D01*
X102158538Y-146164090D01*
X102158536Y-146164089D01*
X102158535Y-146164088D01*
X101984731Y-146071187D01*
X101984727Y-146071185D01*
X101796133Y-146013976D01*
X101600001Y-145994659D01*
X101599999Y-145994659D01*
X101403866Y-146013976D01*
X101215272Y-146071185D01*
X101215268Y-146071187D01*
X101041464Y-146164088D01*
X100889116Y-146289116D01*
X100764088Y-146441464D01*
X100750465Y-146461852D01*
X100748050Y-146460238D01*
X100685980Y-146544715D01*
X100573042Y-146630841D01*
X100440415Y-146681661D01*
X100298843Y-146693056D01*
X100159795Y-146664105D01*
X100034536Y-146597152D01*
X99933213Y-146497621D01*
X99910018Y-146461529D01*
X99909535Y-146461852D01*
X99895911Y-146441464D01*
X99895910Y-146441462D01*
X99809687Y-146336399D01*
X99770883Y-146289116D01*
X99638231Y-146180252D01*
X99618538Y-146164090D01*
X99618536Y-146164089D01*
X99618535Y-146164088D01*
X99444731Y-146071187D01*
X99444727Y-146071185D01*
X99256133Y-146013976D01*
X99060001Y-145994659D01*
X99059999Y-145994659D01*
X98863866Y-146013976D01*
X98675272Y-146071185D01*
X98675268Y-146071187D01*
X98501464Y-146164088D01*
X98349116Y-146289116D01*
X98224088Y-146441464D01*
X98210465Y-146461852D01*
X98208050Y-146460238D01*
X98145980Y-146544715D01*
X98033042Y-146630841D01*
X97900415Y-146681661D01*
X97758843Y-146693056D01*
X97619795Y-146664105D01*
X97494536Y-146597152D01*
X97393213Y-146497621D01*
X97370018Y-146461529D01*
X97369535Y-146461852D01*
X97355911Y-146441464D01*
X97355910Y-146441462D01*
X97269687Y-146336399D01*
X97230883Y-146289116D01*
X97098231Y-146180252D01*
X97078538Y-146164090D01*
X97078536Y-146164089D01*
X97078535Y-146164088D01*
X96904731Y-146071187D01*
X96904727Y-146071185D01*
X96716133Y-146013976D01*
X96520001Y-145994659D01*
X96519999Y-145994659D01*
X96323866Y-146013976D01*
X96135272Y-146071185D01*
X96135268Y-146071187D01*
X95961464Y-146164088D01*
X95809116Y-146289116D01*
X95684088Y-146441464D01*
X95670465Y-146461852D01*
X95668050Y-146460238D01*
X95605980Y-146544715D01*
X95493042Y-146630841D01*
X95360415Y-146681661D01*
X95218843Y-146693056D01*
X95079795Y-146664105D01*
X94954536Y-146597152D01*
X94853213Y-146497621D01*
X94830018Y-146461529D01*
X94829535Y-146461852D01*
X94815911Y-146441464D01*
X94815910Y-146441462D01*
X94729687Y-146336399D01*
X94690883Y-146289116D01*
X94558231Y-146180252D01*
X94538538Y-146164090D01*
X94538536Y-146164089D01*
X94538535Y-146164088D01*
X94364731Y-146071187D01*
X94364727Y-146071185D01*
X94176133Y-146013976D01*
X93980001Y-145994659D01*
X93979999Y-145994659D01*
X93783866Y-146013976D01*
X93595272Y-146071185D01*
X93595268Y-146071187D01*
X93421464Y-146164088D01*
X93269116Y-146289116D01*
X93144088Y-146441464D01*
X93130465Y-146461852D01*
X93128050Y-146460238D01*
X93065980Y-146544715D01*
X92953042Y-146630841D01*
X92820415Y-146681661D01*
X92678843Y-146693056D01*
X92539795Y-146664105D01*
X92414536Y-146597152D01*
X92313213Y-146497621D01*
X92290018Y-146461529D01*
X92289535Y-146461852D01*
X92275911Y-146441464D01*
X92275910Y-146441462D01*
X92189687Y-146336399D01*
X92150883Y-146289116D01*
X92018231Y-146180252D01*
X91998538Y-146164090D01*
X91998536Y-146164089D01*
X91998535Y-146164088D01*
X91824731Y-146071187D01*
X91824727Y-146071185D01*
X91636133Y-146013976D01*
X91440001Y-145994659D01*
X91439999Y-145994659D01*
X91243866Y-146013976D01*
X91055272Y-146071185D01*
X91055268Y-146071187D01*
X90881464Y-146164088D01*
X90729116Y-146289116D01*
X90604088Y-146441464D01*
X90511187Y-146615268D01*
X90511185Y-146615272D01*
X90453976Y-146803866D01*
X90434659Y-146999999D01*
X90434659Y-147000000D01*
X86290500Y-147000000D01*
X86290500Y-145030255D01*
X86290499Y-145030245D01*
X86278868Y-144971771D01*
X86278866Y-144971767D01*
X86234552Y-144905448D01*
X86234551Y-144905447D01*
X86168232Y-144861133D01*
X86168228Y-144861131D01*
X86109754Y-144849500D01*
X86109748Y-144849500D01*
X84070252Y-144849500D01*
X84070245Y-144849500D01*
X84011771Y-144861131D01*
X84011767Y-144861133D01*
X83945448Y-144905447D01*
X83945447Y-144905448D01*
X83901133Y-144971767D01*
X83901131Y-144971771D01*
X83889500Y-145030245D01*
X83889500Y-147069754D01*
X72192978Y-147069754D01*
X72150582Y-146920750D01*
X72059673Y-146738179D01*
X71954890Y-146599424D01*
X71886300Y-146475056D01*
X71855526Y-146336399D01*
X71865063Y-146194690D01*
X71914138Y-146061407D01*
X71998775Y-145947349D01*
X72075869Y-145883808D01*
X72098228Y-145868867D01*
X72098231Y-145868867D01*
X72164552Y-145824552D01*
X72208867Y-145758231D01*
X72220500Y-145699748D01*
X72220500Y-143860252D01*
X72220499Y-143860245D01*
X72208868Y-143801771D01*
X72208866Y-143801767D01*
X72164552Y-143735448D01*
X72164551Y-143735447D01*
X72098232Y-143691133D01*
X72098228Y-143691131D01*
X72039754Y-143679500D01*
X72039748Y-143679500D01*
X70200252Y-143679500D01*
X70200245Y-143679500D01*
X70141771Y-143691131D01*
X70141767Y-143691133D01*
X70075448Y-143735447D01*
X70075447Y-143735448D01*
X70031133Y-143801767D01*
X70031131Y-143801771D01*
X70019500Y-143860245D01*
X70019500Y-145699754D01*
X70031131Y-145758228D01*
X70031133Y-145758232D01*
X70075446Y-145824550D01*
X70075447Y-145824550D01*
X70075448Y-145824552D01*
X70141769Y-145868867D01*
X70141770Y-145868867D01*
X70164132Y-145883809D01*
X70269793Y-145978721D01*
X70344434Y-146099557D01*
X70382008Y-146236527D01*
X70379472Y-146378535D01*
X70337030Y-146514075D01*
X70285109Y-146599424D01*
X70180326Y-146738178D01*
X70089419Y-146920746D01*
X70033602Y-147116919D01*
X70033601Y-147116928D01*
X70014785Y-147319994D01*
X70014785Y-147320005D01*
X55110500Y-147320005D01*
X55110500Y-138430000D01*
X70114659Y-138430000D01*
X70133976Y-138626133D01*
X70191185Y-138814727D01*
X70191187Y-138814731D01*
X70284088Y-138988535D01*
X70409116Y-139140883D01*
X70494632Y-139211064D01*
X70561462Y-139265910D01*
X70561464Y-139265911D01*
X70735268Y-139358812D01*
X70735272Y-139358814D01*
X70817392Y-139383724D01*
X70923868Y-139416024D01*
X71098571Y-139433230D01*
X71119999Y-139435341D01*
X71120000Y-139435341D01*
X71120001Y-139435341D01*
X71139318Y-139433438D01*
X71316132Y-139416024D01*
X71504727Y-139358814D01*
X71678538Y-139265910D01*
X71830883Y-139140883D01*
X71955910Y-138988538D01*
X72048814Y-138814727D01*
X72106024Y-138626132D01*
X72125341Y-138430000D01*
X80274659Y-138430000D01*
X80293976Y-138626133D01*
X80351185Y-138814727D01*
X80351187Y-138814731D01*
X80444088Y-138988535D01*
X80569116Y-139140883D01*
X80654632Y-139211064D01*
X80721462Y-139265910D01*
X80721464Y-139265911D01*
X80895268Y-139358812D01*
X80895272Y-139358814D01*
X80977392Y-139383724D01*
X81083868Y-139416024D01*
X81258571Y-139433230D01*
X81279999Y-139435341D01*
X81280000Y-139435341D01*
X81280001Y-139435341D01*
X81299318Y-139433438D01*
X81476132Y-139416024D01*
X81664727Y-139358814D01*
X81838538Y-139265910D01*
X81990883Y-139140883D01*
X82115910Y-138988538D01*
X82208814Y-138814727D01*
X82266024Y-138626132D01*
X82285341Y-138430000D01*
X82266024Y-138233868D01*
X82208814Y-138045273D01*
X82208814Y-138045272D01*
X82208812Y-138045268D01*
X82115911Y-137871464D01*
X82115910Y-137871462D01*
X82061064Y-137804632D01*
X81990883Y-137719116D01*
X81886681Y-137633600D01*
X81838538Y-137594090D01*
X81838536Y-137594089D01*
X81838535Y-137594088D01*
X81664731Y-137501187D01*
X81664727Y-137501185D01*
X81476133Y-137443976D01*
X81280001Y-137424659D01*
X81279999Y-137424659D01*
X81083866Y-137443976D01*
X80895272Y-137501185D01*
X80895268Y-137501187D01*
X80721464Y-137594088D01*
X80569116Y-137719116D01*
X80444088Y-137871464D01*
X80351187Y-138045268D01*
X80351185Y-138045272D01*
X80293976Y-138233866D01*
X80274659Y-138429999D01*
X80274659Y-138430000D01*
X72125341Y-138430000D01*
X72106024Y-138233868D01*
X72048814Y-138045273D01*
X72048814Y-138045272D01*
X72048812Y-138045268D01*
X71955911Y-137871464D01*
X71955910Y-137871462D01*
X71901064Y-137804632D01*
X71830883Y-137719116D01*
X71726681Y-137633600D01*
X71678538Y-137594090D01*
X71678536Y-137594089D01*
X71678535Y-137594088D01*
X71504731Y-137501187D01*
X71504727Y-137501185D01*
X71316133Y-137443976D01*
X71120001Y-137424659D01*
X71119999Y-137424659D01*
X70923866Y-137443976D01*
X70735272Y-137501185D01*
X70735268Y-137501187D01*
X70561464Y-137594088D01*
X70409116Y-137719116D01*
X70284088Y-137871464D01*
X70191187Y-138045268D01*
X70191185Y-138045272D01*
X70133976Y-138233866D01*
X70114659Y-138429999D01*
X70114659Y-138430000D01*
X55110500Y-138430000D01*
X55110500Y-134620000D01*
X70114659Y-134620000D01*
X70133976Y-134816133D01*
X70191185Y-135004727D01*
X70191187Y-135004731D01*
X70284088Y-135178535D01*
X70409116Y-135330883D01*
X70494632Y-135401064D01*
X70561462Y-135455910D01*
X70561464Y-135455911D01*
X70735268Y-135548812D01*
X70735272Y-135548814D01*
X70817392Y-135573724D01*
X70923868Y-135606024D01*
X71098571Y-135623230D01*
X71119999Y-135625341D01*
X71120000Y-135625341D01*
X71120001Y-135625341D01*
X71139318Y-135623438D01*
X71316132Y-135606024D01*
X71504727Y-135548814D01*
X71678538Y-135455910D01*
X71830883Y-135330883D01*
X71955910Y-135178538D01*
X72048814Y-135004727D01*
X72106024Y-134816132D01*
X72125341Y-134620000D01*
X80274659Y-134620000D01*
X80293976Y-134816133D01*
X80351185Y-135004727D01*
X80351187Y-135004731D01*
X80444088Y-135178535D01*
X80569116Y-135330883D01*
X80654632Y-135401064D01*
X80721462Y-135455910D01*
X80721464Y-135455911D01*
X80895268Y-135548812D01*
X80895272Y-135548814D01*
X80977392Y-135573724D01*
X81083868Y-135606024D01*
X81258571Y-135623230D01*
X81279999Y-135625341D01*
X81280000Y-135625341D01*
X81280001Y-135625341D01*
X81299318Y-135623438D01*
X81476132Y-135606024D01*
X81664727Y-135548814D01*
X81838538Y-135455910D01*
X81990883Y-135330883D01*
X82115910Y-135178538D01*
X82208814Y-135004727D01*
X82266024Y-134816132D01*
X82285341Y-134620000D01*
X82266024Y-134423868D01*
X82208814Y-134235273D01*
X82208814Y-134235272D01*
X82208812Y-134235268D01*
X82115911Y-134061464D01*
X82115910Y-134061462D01*
X82061064Y-133994632D01*
X81990883Y-133909116D01*
X81886681Y-133823600D01*
X81838538Y-133784090D01*
X81838536Y-133784089D01*
X81838535Y-133784088D01*
X81664731Y-133691187D01*
X81664727Y-133691185D01*
X81574299Y-133663754D01*
X113059500Y-133663754D01*
X113071131Y-133722228D01*
X113071133Y-133722232D01*
X113115447Y-133788551D01*
X113115448Y-133788552D01*
X113181767Y-133832866D01*
X113181771Y-133832868D01*
X113240245Y-133844499D01*
X113240248Y-133844499D01*
X113240252Y-133844500D01*
X113240256Y-133844500D01*
X115279744Y-133844500D01*
X115279748Y-133844500D01*
X115279752Y-133844499D01*
X115279754Y-133844499D01*
X115338228Y-133832868D01*
X115338229Y-133832867D01*
X115338231Y-133832867D01*
X115404552Y-133788552D01*
X115448867Y-133722231D01*
X115455043Y-133691186D01*
X115460499Y-133663754D01*
X115460500Y-133663744D01*
X115460500Y-131624255D01*
X115460499Y-131624245D01*
X115448868Y-131565774D01*
X115448867Y-131565773D01*
X115448867Y-131565769D01*
X115448864Y-131565764D01*
X115448535Y-131564969D01*
X115413407Y-131427351D01*
X115418474Y-131285411D01*
X115448535Y-131183031D01*
X115448863Y-131182236D01*
X115448867Y-131182231D01*
X115460500Y-131123748D01*
X115460500Y-129084252D01*
X115448867Y-129025769D01*
X115448864Y-129025764D01*
X115448535Y-129024969D01*
X115413407Y-128887351D01*
X115418474Y-128745411D01*
X115448535Y-128643031D01*
X115448863Y-128642236D01*
X115448867Y-128642231D01*
X115460500Y-128583748D01*
X115460500Y-126544252D01*
X115448867Y-126485769D01*
X115448864Y-126485764D01*
X115448535Y-126484969D01*
X115413407Y-126347351D01*
X115418474Y-126205411D01*
X115448535Y-126103031D01*
X115448863Y-126102236D01*
X115448867Y-126102231D01*
X115460500Y-126043748D01*
X115460500Y-124004252D01*
X115448867Y-123945769D01*
X115448864Y-123945764D01*
X115448535Y-123944969D01*
X115413407Y-123807351D01*
X115418474Y-123665411D01*
X115448535Y-123563031D01*
X115448863Y-123562236D01*
X115448867Y-123562231D01*
X115460500Y-123503748D01*
X115460500Y-121464252D01*
X115448867Y-121405769D01*
X115448864Y-121405764D01*
X115448535Y-121404969D01*
X115413407Y-121267351D01*
X115418474Y-121125411D01*
X115448535Y-121023031D01*
X115448863Y-121022236D01*
X115448867Y-121022231D01*
X115460500Y-120963748D01*
X115460500Y-118924252D01*
X115448867Y-118865769D01*
X115448864Y-118865764D01*
X115448535Y-118864969D01*
X115413407Y-118727351D01*
X115418474Y-118585411D01*
X115448535Y-118483031D01*
X115448863Y-118482236D01*
X115448867Y-118482231D01*
X115460500Y-118423748D01*
X115460500Y-116384252D01*
X115448867Y-116325769D01*
X115448864Y-116325764D01*
X115448535Y-116324969D01*
X115413407Y-116187351D01*
X115418474Y-116045411D01*
X115448535Y-115943031D01*
X115448863Y-115942236D01*
X115448867Y-115942231D01*
X115460500Y-115883748D01*
X115460500Y-113844252D01*
X115460499Y-113844245D01*
X115448868Y-113785771D01*
X115448866Y-113785767D01*
X115404552Y-113719448D01*
X115404551Y-113719447D01*
X115338232Y-113675133D01*
X115338228Y-113675131D01*
X115279754Y-113663500D01*
X115279748Y-113663500D01*
X113240252Y-113663500D01*
X113240245Y-113663500D01*
X113181771Y-113675131D01*
X113181767Y-113675133D01*
X113115448Y-113719447D01*
X113115447Y-113719448D01*
X113071133Y-113785767D01*
X113071131Y-113785771D01*
X113059500Y-113844245D01*
X113059500Y-115883754D01*
X113071132Y-115942233D01*
X113071467Y-115943040D01*
X113106593Y-116080658D01*
X113101524Y-116222598D01*
X113071467Y-116324960D01*
X113071132Y-116325766D01*
X113059500Y-116384245D01*
X113059500Y-118423754D01*
X113071132Y-118482233D01*
X113071467Y-118483040D01*
X113106593Y-118620658D01*
X113101524Y-118762598D01*
X113071467Y-118864960D01*
X113071132Y-118865766D01*
X113059500Y-118924245D01*
X113059500Y-120963754D01*
X113071132Y-121022233D01*
X113071467Y-121023040D01*
X113106593Y-121160658D01*
X113101524Y-121302598D01*
X113071467Y-121404960D01*
X113071132Y-121405766D01*
X113059500Y-121464245D01*
X113059500Y-123503754D01*
X113071132Y-123562233D01*
X113071467Y-123563040D01*
X113106593Y-123700658D01*
X113101524Y-123842598D01*
X113071467Y-123944960D01*
X113071132Y-123945766D01*
X113059500Y-124004245D01*
X113059500Y-126043754D01*
X113071132Y-126102233D01*
X113071467Y-126103040D01*
X113106593Y-126240658D01*
X113101524Y-126382598D01*
X113071467Y-126484960D01*
X113071132Y-126485766D01*
X113059500Y-126544245D01*
X113059500Y-128583754D01*
X113071132Y-128642233D01*
X113071467Y-128643040D01*
X113106593Y-128780658D01*
X113101524Y-128922598D01*
X113071467Y-129024960D01*
X113071132Y-129025766D01*
X113059500Y-129084245D01*
X113059500Y-131123754D01*
X113071132Y-131182233D01*
X113071467Y-131183040D01*
X113106593Y-131320658D01*
X113101524Y-131462598D01*
X113071467Y-131564960D01*
X113071132Y-131565766D01*
X113059500Y-131624245D01*
X113059500Y-133663754D01*
X81574299Y-133663754D01*
X81476133Y-133633976D01*
X81280001Y-133614659D01*
X81279999Y-133614659D01*
X81083866Y-133633976D01*
X80895272Y-133691185D01*
X80895268Y-133691187D01*
X80721464Y-133784088D01*
X80569116Y-133909116D01*
X80444088Y-134061464D01*
X80351187Y-134235268D01*
X80351185Y-134235272D01*
X80293976Y-134423866D01*
X80274659Y-134619999D01*
X80274659Y-134620000D01*
X72125341Y-134620000D01*
X72106024Y-134423868D01*
X72048814Y-134235273D01*
X72048814Y-134235272D01*
X72048812Y-134235268D01*
X71955911Y-134061464D01*
X71955910Y-134061462D01*
X71901064Y-133994632D01*
X71830883Y-133909116D01*
X71726681Y-133823600D01*
X71678538Y-133784090D01*
X71678536Y-133784089D01*
X71678535Y-133784088D01*
X71504731Y-133691187D01*
X71504727Y-133691185D01*
X71316133Y-133633976D01*
X71120001Y-133614659D01*
X71119999Y-133614659D01*
X70923866Y-133633976D01*
X70735272Y-133691185D01*
X70735268Y-133691187D01*
X70561464Y-133784088D01*
X70409116Y-133909116D01*
X70284088Y-134061464D01*
X70191187Y-134235268D01*
X70191185Y-134235272D01*
X70133976Y-134423866D01*
X70114659Y-134619999D01*
X70114659Y-134620000D01*
X55110500Y-134620000D01*
X55110500Y-130810000D01*
X70114659Y-130810000D01*
X70133976Y-131006133D01*
X70191185Y-131194727D01*
X70191187Y-131194731D01*
X70284088Y-131368535D01*
X70409116Y-131520883D01*
X70494632Y-131591064D01*
X70561462Y-131645910D01*
X70561464Y-131645911D01*
X70735268Y-131738812D01*
X70735272Y-131738814D01*
X70817392Y-131763724D01*
X70923868Y-131796024D01*
X71098571Y-131813230D01*
X71119999Y-131815341D01*
X71120000Y-131815341D01*
X71120001Y-131815341D01*
X71139318Y-131813438D01*
X71316132Y-131796024D01*
X71504727Y-131738814D01*
X71678538Y-131645910D01*
X71830883Y-131520883D01*
X71955910Y-131368538D01*
X72048814Y-131194727D01*
X72106024Y-131006132D01*
X72125341Y-130810000D01*
X80274659Y-130810000D01*
X80293976Y-131006133D01*
X80351185Y-131194727D01*
X80351187Y-131194731D01*
X80444088Y-131368535D01*
X80569116Y-131520883D01*
X80654632Y-131591064D01*
X80721462Y-131645910D01*
X80721464Y-131645911D01*
X80895268Y-131738812D01*
X80895272Y-131738814D01*
X80977392Y-131763724D01*
X81083868Y-131796024D01*
X81258571Y-131813230D01*
X81279999Y-131815341D01*
X81280000Y-131815341D01*
X81280001Y-131815341D01*
X81299318Y-131813438D01*
X81476132Y-131796024D01*
X81664727Y-131738814D01*
X81838538Y-131645910D01*
X81990883Y-131520883D01*
X82115910Y-131368538D01*
X82208814Y-131194727D01*
X82266024Y-131006132D01*
X82285341Y-130810000D01*
X82266024Y-130613868D01*
X82208814Y-130425273D01*
X82208814Y-130425272D01*
X82208812Y-130425268D01*
X82115911Y-130251464D01*
X82115910Y-130251462D01*
X82061064Y-130184632D01*
X81990883Y-130099116D01*
X81886681Y-130013600D01*
X81838538Y-129974090D01*
X81838536Y-129974089D01*
X81838535Y-129974088D01*
X81664731Y-129881187D01*
X81664727Y-129881185D01*
X81476133Y-129823976D01*
X81280001Y-129804659D01*
X81279999Y-129804659D01*
X81083866Y-129823976D01*
X80895272Y-129881185D01*
X80895268Y-129881187D01*
X80721464Y-129974088D01*
X80569116Y-130099116D01*
X80444088Y-130251464D01*
X80351187Y-130425268D01*
X80351185Y-130425272D01*
X80293976Y-130613866D01*
X80274659Y-130809999D01*
X80274659Y-130810000D01*
X72125341Y-130810000D01*
X72106024Y-130613868D01*
X72048814Y-130425273D01*
X72048814Y-130425272D01*
X72048812Y-130425268D01*
X71955911Y-130251464D01*
X71955910Y-130251462D01*
X71901064Y-130184632D01*
X71830883Y-130099116D01*
X71726681Y-130013600D01*
X71678538Y-129974090D01*
X71678536Y-129974089D01*
X71678535Y-129974088D01*
X71504731Y-129881187D01*
X71504727Y-129881185D01*
X71316133Y-129823976D01*
X71120001Y-129804659D01*
X71119999Y-129804659D01*
X70923866Y-129823976D01*
X70735272Y-129881185D01*
X70735268Y-129881187D01*
X70561464Y-129974088D01*
X70409116Y-130099116D01*
X70284088Y-130251464D01*
X70191187Y-130425268D01*
X70191185Y-130425272D01*
X70133976Y-130613866D01*
X70114659Y-130809999D01*
X70114659Y-130810000D01*
X55110500Y-130810000D01*
X55110500Y-128583754D01*
X64799500Y-128583754D01*
X64811131Y-128642228D01*
X64811133Y-128642232D01*
X64855447Y-128708551D01*
X64855448Y-128708552D01*
X64921767Y-128752866D01*
X64921771Y-128752868D01*
X64980245Y-128764499D01*
X64980248Y-128764499D01*
X64980252Y-128764500D01*
X64980256Y-128764500D01*
X67019744Y-128764500D01*
X67019748Y-128764500D01*
X67019752Y-128764499D01*
X67019754Y-128764499D01*
X67078228Y-128752868D01*
X67078229Y-128752867D01*
X67078231Y-128752867D01*
X67144552Y-128708552D01*
X67188867Y-128642231D01*
X67188869Y-128642225D01*
X67200499Y-128583754D01*
X67200500Y-128583744D01*
X67200500Y-126544255D01*
X67200499Y-126544245D01*
X67188868Y-126485774D01*
X67188867Y-126485773D01*
X67188867Y-126485769D01*
X67188864Y-126485764D01*
X67188535Y-126484969D01*
X67153407Y-126347351D01*
X67158474Y-126205411D01*
X67188535Y-126103031D01*
X67188863Y-126102236D01*
X67188867Y-126102231D01*
X67200500Y-126043748D01*
X67200500Y-124004252D01*
X67188867Y-123945769D01*
X67188864Y-123945764D01*
X67188535Y-123944969D01*
X67153407Y-123807351D01*
X67158474Y-123665411D01*
X67188535Y-123563031D01*
X67188863Y-123562236D01*
X67188867Y-123562231D01*
X67200500Y-123503748D01*
X67200500Y-121464252D01*
X67188867Y-121405769D01*
X67188864Y-121405764D01*
X67188535Y-121404969D01*
X67153407Y-121267351D01*
X67158474Y-121125411D01*
X67188535Y-121023031D01*
X67188863Y-121022236D01*
X67188867Y-121022231D01*
X67200500Y-120963748D01*
X67200500Y-118924252D01*
X67188867Y-118865769D01*
X67188864Y-118865764D01*
X67188535Y-118864969D01*
X67153407Y-118727351D01*
X67158474Y-118585411D01*
X67188535Y-118483031D01*
X67188863Y-118482236D01*
X67188867Y-118482231D01*
X67200500Y-118423748D01*
X67200500Y-116384252D01*
X67188867Y-116325769D01*
X67188864Y-116325764D01*
X67188535Y-116324969D01*
X67153407Y-116187351D01*
X67158474Y-116045411D01*
X67188535Y-115943031D01*
X67188863Y-115942236D01*
X67188867Y-115942231D01*
X67200500Y-115883748D01*
X67200500Y-113844252D01*
X67188867Y-113785769D01*
X67188864Y-113785764D01*
X67188535Y-113784969D01*
X67153407Y-113647351D01*
X67158474Y-113505411D01*
X67188535Y-113403031D01*
X67188863Y-113402236D01*
X67188867Y-113402231D01*
X67200500Y-113343748D01*
X67200500Y-111304252D01*
X67188867Y-111245769D01*
X67188864Y-111245764D01*
X67188535Y-111244969D01*
X67153407Y-111107351D01*
X67158474Y-110965411D01*
X67188535Y-110863031D01*
X67188863Y-110862236D01*
X67188867Y-110862231D01*
X67200499Y-110803754D01*
X113059500Y-110803754D01*
X113071131Y-110862228D01*
X113071133Y-110862232D01*
X113115447Y-110928551D01*
X113115448Y-110928552D01*
X113181767Y-110972866D01*
X113181771Y-110972868D01*
X113240245Y-110984499D01*
X113240248Y-110984499D01*
X113240252Y-110984500D01*
X113240256Y-110984500D01*
X115279744Y-110984500D01*
X115279748Y-110984500D01*
X115279752Y-110984499D01*
X115279754Y-110984499D01*
X115338228Y-110972868D01*
X115338229Y-110972867D01*
X115338231Y-110972867D01*
X115404552Y-110928552D01*
X115448867Y-110862231D01*
X115448869Y-110862225D01*
X115460499Y-110803754D01*
X115460500Y-110803744D01*
X115460500Y-108764255D01*
X115460499Y-108764245D01*
X115448868Y-108705774D01*
X115448867Y-108705771D01*
X115448867Y-108705769D01*
X115448864Y-108705764D01*
X115448535Y-108704969D01*
X115413407Y-108567351D01*
X115418474Y-108425411D01*
X115448535Y-108323031D01*
X115448863Y-108322236D01*
X115448867Y-108322231D01*
X115460500Y-108263748D01*
X115460500Y-106224252D01*
X115448867Y-106165769D01*
X115448864Y-106165764D01*
X115448535Y-106164969D01*
X115413407Y-106027351D01*
X115418474Y-105885411D01*
X115448535Y-105783031D01*
X115448863Y-105782236D01*
X115448867Y-105782231D01*
X115460500Y-105723748D01*
X115460500Y-103684252D01*
X115448867Y-103625769D01*
X115448864Y-103625764D01*
X115448535Y-103624969D01*
X115413407Y-103487351D01*
X115418474Y-103345411D01*
X115448535Y-103243031D01*
X115448863Y-103242236D01*
X115448867Y-103242231D01*
X115460500Y-103183748D01*
X115460500Y-101144252D01*
X115448867Y-101085769D01*
X115448864Y-101085764D01*
X115448535Y-101084969D01*
X115413407Y-100947351D01*
X115418474Y-100805411D01*
X115448535Y-100703031D01*
X115448863Y-100702236D01*
X115448867Y-100702231D01*
X115460500Y-100643748D01*
X115460500Y-98604252D01*
X115448867Y-98545769D01*
X115448864Y-98545764D01*
X115448535Y-98544969D01*
X115413407Y-98407351D01*
X115418474Y-98265411D01*
X115448535Y-98163031D01*
X115448863Y-98162236D01*
X115448867Y-98162231D01*
X115460500Y-98103748D01*
X115460500Y-96064252D01*
X115448867Y-96005769D01*
X115448864Y-96005764D01*
X115448535Y-96004969D01*
X115413407Y-95867351D01*
X115418474Y-95725411D01*
X115448535Y-95623031D01*
X115448863Y-95622236D01*
X115448867Y-95622231D01*
X115460500Y-95563748D01*
X115460500Y-93524252D01*
X115448867Y-93465769D01*
X115448864Y-93465764D01*
X115448535Y-93464969D01*
X115413407Y-93327351D01*
X115418474Y-93185411D01*
X115448535Y-93083031D01*
X115448863Y-93082236D01*
X115448867Y-93082231D01*
X115460500Y-93023748D01*
X115460500Y-90984252D01*
X115460499Y-90984245D01*
X115448868Y-90925771D01*
X115448866Y-90925767D01*
X115404552Y-90859448D01*
X115404551Y-90859447D01*
X115338232Y-90815133D01*
X115338228Y-90815131D01*
X115279754Y-90803500D01*
X115279748Y-90803500D01*
X113240252Y-90803500D01*
X113240245Y-90803500D01*
X113181771Y-90815131D01*
X113181767Y-90815133D01*
X113115448Y-90859447D01*
X113115447Y-90859448D01*
X113071133Y-90925767D01*
X113071131Y-90925771D01*
X113059500Y-90984245D01*
X113059500Y-93023754D01*
X113071132Y-93082233D01*
X113071467Y-93083040D01*
X113106593Y-93220658D01*
X113101524Y-93362598D01*
X113071467Y-93464960D01*
X113071132Y-93465766D01*
X113059500Y-93524245D01*
X113059500Y-95563754D01*
X113071132Y-95622233D01*
X113071467Y-95623040D01*
X113106593Y-95760658D01*
X113101524Y-95902598D01*
X113071467Y-96004960D01*
X113071132Y-96005766D01*
X113059500Y-96064245D01*
X113059500Y-98103754D01*
X113071132Y-98162233D01*
X113071467Y-98163040D01*
X113106593Y-98300658D01*
X113101524Y-98442598D01*
X113071467Y-98544960D01*
X113071132Y-98545766D01*
X113059500Y-98604245D01*
X113059500Y-100643754D01*
X113071132Y-100702233D01*
X113071467Y-100703040D01*
X113106593Y-100840658D01*
X113101524Y-100982598D01*
X113071467Y-101084960D01*
X113071132Y-101085766D01*
X113059500Y-101144245D01*
X113059500Y-103183754D01*
X113071132Y-103242233D01*
X113071467Y-103243040D01*
X113106593Y-103380658D01*
X113101524Y-103522598D01*
X113071467Y-103624960D01*
X113071132Y-103625766D01*
X113059500Y-103684245D01*
X113059500Y-105723754D01*
X113071132Y-105782233D01*
X113071467Y-105783040D01*
X113106593Y-105920658D01*
X113101524Y-106062598D01*
X113071467Y-106164960D01*
X113071132Y-106165766D01*
X113059500Y-106224245D01*
X113059500Y-108263754D01*
X113071132Y-108322233D01*
X113071467Y-108323040D01*
X113106593Y-108460658D01*
X113101524Y-108602598D01*
X113071467Y-108704960D01*
X113071132Y-108705766D01*
X113059500Y-108764245D01*
X113059500Y-110803754D01*
X67200499Y-110803754D01*
X67200500Y-110803748D01*
X67200500Y-108764252D01*
X67200499Y-108764245D01*
X67188868Y-108705771D01*
X67188866Y-108705767D01*
X67144552Y-108639448D01*
X67144551Y-108639447D01*
X67078232Y-108595133D01*
X67078228Y-108595131D01*
X67019754Y-108583500D01*
X67019748Y-108583500D01*
X64980252Y-108583500D01*
X64980245Y-108583500D01*
X64921771Y-108595131D01*
X64921767Y-108595133D01*
X64855448Y-108639447D01*
X64855447Y-108639448D01*
X64811133Y-108705767D01*
X64811131Y-108705771D01*
X64799500Y-108764245D01*
X64799500Y-110803754D01*
X64811132Y-110862233D01*
X64811467Y-110863040D01*
X64846593Y-111000658D01*
X64841524Y-111142598D01*
X64811467Y-111244960D01*
X64811132Y-111245766D01*
X64799500Y-111304245D01*
X64799500Y-113343754D01*
X64811132Y-113402233D01*
X64811467Y-113403040D01*
X64846593Y-113540658D01*
X64841524Y-113682598D01*
X64811467Y-113784960D01*
X64811132Y-113785766D01*
X64799500Y-113844245D01*
X64799500Y-115883754D01*
X64811132Y-115942233D01*
X64811467Y-115943040D01*
X64846593Y-116080658D01*
X64841524Y-116222598D01*
X64811467Y-116324960D01*
X64811132Y-116325766D01*
X64799500Y-116384245D01*
X64799500Y-118423754D01*
X64811132Y-118482233D01*
X64811467Y-118483040D01*
X64846593Y-118620658D01*
X64841524Y-118762598D01*
X64811467Y-118864960D01*
X64811132Y-118865766D01*
X64799500Y-118924245D01*
X64799500Y-120963754D01*
X64811132Y-121022233D01*
X64811467Y-121023040D01*
X64846593Y-121160658D01*
X64841524Y-121302598D01*
X64811467Y-121404960D01*
X64811132Y-121405766D01*
X64799500Y-121464245D01*
X64799500Y-123503754D01*
X64811132Y-123562233D01*
X64811467Y-123563040D01*
X64846593Y-123700658D01*
X64841524Y-123842598D01*
X64811467Y-123944960D01*
X64811132Y-123945766D01*
X64799500Y-124004245D01*
X64799500Y-126043754D01*
X64811132Y-126102233D01*
X64811467Y-126103040D01*
X64846593Y-126240658D01*
X64841524Y-126382598D01*
X64811467Y-126484960D01*
X64811132Y-126485766D01*
X64799500Y-126544245D01*
X64799500Y-128583754D01*
X55110500Y-128583754D01*
X55110500Y-105723754D01*
X64799500Y-105723754D01*
X64811131Y-105782228D01*
X64811133Y-105782232D01*
X64855447Y-105848551D01*
X64855448Y-105848552D01*
X64921767Y-105892866D01*
X64921771Y-105892868D01*
X64980245Y-105904499D01*
X64980248Y-105904499D01*
X64980252Y-105904500D01*
X64980256Y-105904500D01*
X67019744Y-105904500D01*
X67019748Y-105904500D01*
X67019752Y-105904499D01*
X67019754Y-105904499D01*
X67078228Y-105892868D01*
X67078229Y-105892867D01*
X67078231Y-105892867D01*
X67144552Y-105848552D01*
X67188867Y-105782231D01*
X67188869Y-105782225D01*
X67200499Y-105723754D01*
X67200500Y-105723744D01*
X67200500Y-103684255D01*
X67200499Y-103684245D01*
X67188868Y-103625774D01*
X67188867Y-103625773D01*
X67188867Y-103625769D01*
X67188864Y-103625764D01*
X67188535Y-103624969D01*
X67153407Y-103487351D01*
X67158474Y-103345411D01*
X67188535Y-103243031D01*
X67188863Y-103242236D01*
X67188867Y-103242231D01*
X67200500Y-103183748D01*
X67200500Y-101144252D01*
X67188867Y-101085769D01*
X67188864Y-101085764D01*
X67188535Y-101084969D01*
X67153407Y-100947351D01*
X67158474Y-100805411D01*
X67188535Y-100703031D01*
X67188863Y-100702236D01*
X67188867Y-100702231D01*
X67200500Y-100643748D01*
X67200500Y-98604252D01*
X67188867Y-98545769D01*
X67188864Y-98545764D01*
X67188535Y-98544969D01*
X67153407Y-98407351D01*
X67158474Y-98265411D01*
X67188535Y-98163031D01*
X67188863Y-98162236D01*
X67188867Y-98162231D01*
X67200500Y-98103748D01*
X67200500Y-96064252D01*
X67188867Y-96005769D01*
X67188864Y-96005764D01*
X67188535Y-96004969D01*
X67153407Y-95867351D01*
X67158474Y-95725411D01*
X67188535Y-95623031D01*
X67188863Y-95622236D01*
X67188867Y-95622231D01*
X67200500Y-95563748D01*
X67200500Y-93524252D01*
X67188867Y-93465769D01*
X67188864Y-93465764D01*
X67188535Y-93464969D01*
X67153407Y-93327351D01*
X67158474Y-93185411D01*
X67188535Y-93083031D01*
X67188863Y-93082236D01*
X67188867Y-93082231D01*
X67200500Y-93023748D01*
X67200500Y-90984252D01*
X67188867Y-90925769D01*
X67188864Y-90925764D01*
X67188535Y-90924969D01*
X67153407Y-90787351D01*
X67158474Y-90645411D01*
X67188535Y-90543031D01*
X67188863Y-90542236D01*
X67188867Y-90542231D01*
X67200500Y-90483748D01*
X67200500Y-88444252D01*
X67188867Y-88385769D01*
X67188864Y-88385764D01*
X67188535Y-88384969D01*
X67153407Y-88247351D01*
X67158474Y-88105411D01*
X67188535Y-88003031D01*
X67188863Y-88002236D01*
X67188867Y-88002231D01*
X67200499Y-87943754D01*
X113059500Y-87943754D01*
X113071131Y-88002228D01*
X113071133Y-88002232D01*
X113115447Y-88068551D01*
X113115448Y-88068552D01*
X113181767Y-88112866D01*
X113181771Y-88112868D01*
X113240245Y-88124499D01*
X113240248Y-88124499D01*
X113240252Y-88124500D01*
X113240256Y-88124500D01*
X115279744Y-88124500D01*
X115279748Y-88124500D01*
X115279752Y-88124499D01*
X115279754Y-88124499D01*
X115338228Y-88112868D01*
X115338229Y-88112867D01*
X115338231Y-88112867D01*
X115404552Y-88068552D01*
X115448867Y-88002231D01*
X115448869Y-88002225D01*
X115460499Y-87943754D01*
X115460500Y-87943744D01*
X115460500Y-85904255D01*
X115460499Y-85904245D01*
X115448868Y-85845774D01*
X115448867Y-85845771D01*
X115448867Y-85845769D01*
X115448864Y-85845764D01*
X115448535Y-85844969D01*
X115413407Y-85707351D01*
X115418474Y-85565411D01*
X115448535Y-85463031D01*
X115448863Y-85462236D01*
X115448867Y-85462231D01*
X115460500Y-85403748D01*
X115460500Y-83364252D01*
X115460499Y-83364245D01*
X115448868Y-83305771D01*
X115448866Y-83305767D01*
X115404552Y-83239448D01*
X115404551Y-83239447D01*
X115338232Y-83195133D01*
X115338228Y-83195131D01*
X115279754Y-83183500D01*
X115279748Y-83183500D01*
X113240252Y-83183500D01*
X113240245Y-83183500D01*
X113181771Y-83195131D01*
X113181767Y-83195133D01*
X113115448Y-83239447D01*
X113115447Y-83239448D01*
X113071133Y-83305767D01*
X113071131Y-83305771D01*
X113059500Y-83364245D01*
X113059500Y-85403754D01*
X113071132Y-85462233D01*
X113071467Y-85463040D01*
X113106593Y-85600658D01*
X113101524Y-85742598D01*
X113071467Y-85844960D01*
X113071132Y-85845766D01*
X113059500Y-85904245D01*
X113059500Y-87943754D01*
X67200499Y-87943754D01*
X67200500Y-87943748D01*
X67200500Y-85904252D01*
X67200499Y-85904245D01*
X67188868Y-85845771D01*
X67188866Y-85845767D01*
X67144552Y-85779448D01*
X67144551Y-85779447D01*
X67078232Y-85735133D01*
X67078228Y-85735131D01*
X67019754Y-85723500D01*
X67019748Y-85723500D01*
X64980252Y-85723500D01*
X64980245Y-85723500D01*
X64921771Y-85735131D01*
X64921767Y-85735133D01*
X64855448Y-85779447D01*
X64855447Y-85779448D01*
X64811133Y-85845767D01*
X64811131Y-85845771D01*
X64799500Y-85904245D01*
X64799500Y-87943754D01*
X64811132Y-88002233D01*
X64811467Y-88003040D01*
X64846593Y-88140658D01*
X64841524Y-88282598D01*
X64811467Y-88384960D01*
X64811132Y-88385766D01*
X64799500Y-88444245D01*
X64799500Y-90483754D01*
X64811132Y-90542233D01*
X64811467Y-90543040D01*
X64846593Y-90680658D01*
X64841524Y-90822598D01*
X64811467Y-90924960D01*
X64811132Y-90925766D01*
X64799500Y-90984245D01*
X64799500Y-93023754D01*
X64811132Y-93082233D01*
X64811467Y-93083040D01*
X64846593Y-93220658D01*
X64841524Y-93362598D01*
X64811467Y-93464960D01*
X64811132Y-93465766D01*
X64799500Y-93524245D01*
X64799500Y-95563754D01*
X64811132Y-95622233D01*
X64811467Y-95623040D01*
X64846593Y-95760658D01*
X64841524Y-95902598D01*
X64811467Y-96004960D01*
X64811132Y-96005766D01*
X64799500Y-96064245D01*
X64799500Y-98103754D01*
X64811132Y-98162233D01*
X64811467Y-98163040D01*
X64846593Y-98300658D01*
X64841524Y-98442598D01*
X64811467Y-98544960D01*
X64811132Y-98545766D01*
X64799500Y-98604245D01*
X64799500Y-100643754D01*
X64811132Y-100702233D01*
X64811467Y-100703040D01*
X64846593Y-100840658D01*
X64841524Y-100982598D01*
X64811467Y-101084960D01*
X64811132Y-101085766D01*
X64799500Y-101144245D01*
X64799500Y-103183754D01*
X64811132Y-103242233D01*
X64811467Y-103243040D01*
X64846593Y-103380658D01*
X64841524Y-103522598D01*
X64811467Y-103624960D01*
X64811132Y-103625766D01*
X64799500Y-103684245D01*
X64799500Y-105723754D01*
X55110500Y-105723754D01*
X55110500Y-83879754D01*
X64799500Y-83879754D01*
X64811131Y-83938228D01*
X64811133Y-83938232D01*
X64855447Y-84004551D01*
X64855448Y-84004552D01*
X64921767Y-84048866D01*
X64921771Y-84048868D01*
X64980245Y-84060499D01*
X64980248Y-84060499D01*
X64980252Y-84060500D01*
X64980256Y-84060500D01*
X67019744Y-84060500D01*
X67019748Y-84060500D01*
X67019752Y-84060499D01*
X67019754Y-84060499D01*
X67078228Y-84048868D01*
X67078229Y-84048867D01*
X67078231Y-84048867D01*
X67144552Y-84004552D01*
X67188867Y-83938231D01*
X67200500Y-83879748D01*
X67200500Y-81840252D01*
X67188867Y-81781769D01*
X67188864Y-81781764D01*
X67188535Y-81780969D01*
X67153407Y-81643351D01*
X67158474Y-81501411D01*
X67188535Y-81399031D01*
X67188863Y-81398236D01*
X67188867Y-81398231D01*
X67200500Y-81339748D01*
X67200500Y-80323754D01*
X113059500Y-80323754D01*
X113071131Y-80382228D01*
X113071133Y-80382232D01*
X113115447Y-80448551D01*
X113115448Y-80448552D01*
X113181767Y-80492866D01*
X113181771Y-80492868D01*
X113240245Y-80504499D01*
X113240248Y-80504499D01*
X113240252Y-80504500D01*
X113240256Y-80504500D01*
X115279744Y-80504500D01*
X115279748Y-80504500D01*
X115279752Y-80504499D01*
X115279754Y-80504499D01*
X115338228Y-80492868D01*
X115338229Y-80492867D01*
X115338231Y-80492867D01*
X115404552Y-80448552D01*
X115448867Y-80382231D01*
X115460500Y-80323748D01*
X115460500Y-78284252D01*
X115448867Y-78225769D01*
X115448864Y-78225764D01*
X115448535Y-78224969D01*
X115413407Y-78087351D01*
X115418474Y-77945411D01*
X115448535Y-77843031D01*
X115448863Y-77842236D01*
X115448867Y-77842231D01*
X115460500Y-77783748D01*
X115460500Y-75744252D01*
X115448867Y-75685769D01*
X115448864Y-75685764D01*
X115448535Y-75684969D01*
X115413407Y-75547351D01*
X115418474Y-75405411D01*
X115448535Y-75303031D01*
X115448863Y-75302236D01*
X115448867Y-75302231D01*
X115460500Y-75243748D01*
X115460500Y-73204252D01*
X115448867Y-73145769D01*
X115448864Y-73145764D01*
X115448535Y-73144969D01*
X115413407Y-73007351D01*
X115418474Y-72865411D01*
X115448535Y-72763031D01*
X115448863Y-72762236D01*
X115448867Y-72762231D01*
X115460500Y-72703748D01*
X115460500Y-70664252D01*
X115448867Y-70605769D01*
X115448864Y-70605764D01*
X115448535Y-70604969D01*
X115413407Y-70467351D01*
X115418474Y-70325411D01*
X115448535Y-70223031D01*
X115448863Y-70222236D01*
X115448867Y-70222231D01*
X115460500Y-70163748D01*
X115460500Y-68124252D01*
X115460499Y-68124245D01*
X115448868Y-68065771D01*
X115448866Y-68065767D01*
X115404552Y-67999448D01*
X115404551Y-67999447D01*
X115338232Y-67955133D01*
X115338228Y-67955131D01*
X115279754Y-67943500D01*
X115279748Y-67943500D01*
X113240252Y-67943500D01*
X113240245Y-67943500D01*
X113181771Y-67955131D01*
X113181767Y-67955133D01*
X113115448Y-67999447D01*
X113115447Y-67999448D01*
X113071133Y-68065767D01*
X113071131Y-68065771D01*
X113059500Y-68124245D01*
X113059500Y-70163754D01*
X113071132Y-70222233D01*
X113071467Y-70223040D01*
X113106593Y-70360658D01*
X113101524Y-70502598D01*
X113071467Y-70604960D01*
X113071132Y-70605766D01*
X113059500Y-70664245D01*
X113059500Y-72703754D01*
X113071132Y-72762233D01*
X113071467Y-72763040D01*
X113106593Y-72900658D01*
X113101524Y-73042598D01*
X113071467Y-73144960D01*
X113071132Y-73145766D01*
X113059500Y-73204245D01*
X113059500Y-75243754D01*
X113071132Y-75302233D01*
X113071467Y-75303040D01*
X113106593Y-75440658D01*
X113101524Y-75582598D01*
X113071467Y-75684960D01*
X113071132Y-75685766D01*
X113059500Y-75744245D01*
X113059500Y-77783754D01*
X113071132Y-77842233D01*
X113071467Y-77843040D01*
X113106593Y-77980658D01*
X113101524Y-78122598D01*
X113071467Y-78224960D01*
X113071132Y-78225766D01*
X113059500Y-78284245D01*
X113059500Y-80323754D01*
X67200500Y-80323754D01*
X67200500Y-79300252D01*
X67188867Y-79241769D01*
X67188864Y-79241764D01*
X67188535Y-79240969D01*
X67153407Y-79103351D01*
X67158474Y-78961411D01*
X67188535Y-78859031D01*
X67188863Y-78858236D01*
X67188867Y-78858231D01*
X67200500Y-78799748D01*
X67200500Y-76760252D01*
X67188867Y-76701769D01*
X67188864Y-76701764D01*
X67188535Y-76700969D01*
X67153407Y-76563351D01*
X67158474Y-76421411D01*
X67188535Y-76319031D01*
X67188863Y-76318236D01*
X67188867Y-76318231D01*
X67200500Y-76259748D01*
X67200500Y-74220252D01*
X67188867Y-74161769D01*
X67188864Y-74161764D01*
X67188535Y-74160969D01*
X67153407Y-74023351D01*
X67158474Y-73881411D01*
X67188535Y-73779031D01*
X67188863Y-73778236D01*
X67188867Y-73778231D01*
X67200500Y-73719748D01*
X67200500Y-72019754D01*
X87719500Y-72019754D01*
X87731131Y-72078228D01*
X87731133Y-72078232D01*
X87775447Y-72144551D01*
X87775448Y-72144552D01*
X87841767Y-72188866D01*
X87841771Y-72188868D01*
X87900245Y-72200499D01*
X87900248Y-72200499D01*
X87900252Y-72200500D01*
X87900256Y-72200500D01*
X89939744Y-72200500D01*
X89939748Y-72200500D01*
X89939752Y-72200499D01*
X89939754Y-72200499D01*
X89968989Y-72194683D01*
X89998231Y-72188867D01*
X89998236Y-72188863D01*
X89999031Y-72188535D01*
X90136649Y-72153407D01*
X90278589Y-72158474D01*
X90380969Y-72188535D01*
X90381764Y-72188864D01*
X90381769Y-72188867D01*
X90381773Y-72188867D01*
X90381774Y-72188868D01*
X90440245Y-72200499D01*
X90440248Y-72200499D01*
X90440252Y-72200500D01*
X90440256Y-72200500D01*
X92479744Y-72200500D01*
X92479748Y-72200500D01*
X92479752Y-72200499D01*
X92479754Y-72200499D01*
X92508989Y-72194683D01*
X92538231Y-72188867D01*
X92538236Y-72188863D01*
X92539031Y-72188535D01*
X92676649Y-72153407D01*
X92818589Y-72158474D01*
X92920969Y-72188535D01*
X92921764Y-72188864D01*
X92921769Y-72188867D01*
X92921773Y-72188867D01*
X92921774Y-72188868D01*
X92980245Y-72200499D01*
X92980248Y-72200499D01*
X92980252Y-72200500D01*
X92980256Y-72200500D01*
X95019744Y-72200500D01*
X95019748Y-72200500D01*
X95019752Y-72200499D01*
X95019754Y-72200499D01*
X95078228Y-72188868D01*
X95078229Y-72188867D01*
X95078231Y-72188867D01*
X95144552Y-72144552D01*
X95188867Y-72078231D01*
X95200500Y-72019748D01*
X95200500Y-69980252D01*
X95200499Y-69980245D01*
X95188868Y-69921771D01*
X95188866Y-69921767D01*
X95144552Y-69855448D01*
X95144551Y-69855447D01*
X95078232Y-69811133D01*
X95078228Y-69811131D01*
X95019754Y-69799500D01*
X95019748Y-69799500D01*
X92980252Y-69799500D01*
X92980245Y-69799500D01*
X92921766Y-69811132D01*
X92920960Y-69811467D01*
X92783342Y-69846593D01*
X92641402Y-69841524D01*
X92539040Y-69811467D01*
X92538233Y-69811132D01*
X92479754Y-69799500D01*
X92479748Y-69799500D01*
X90440252Y-69799500D01*
X90440245Y-69799500D01*
X90381766Y-69811132D01*
X90380960Y-69811467D01*
X90243342Y-69846593D01*
X90101402Y-69841524D01*
X89999040Y-69811467D01*
X89998233Y-69811132D01*
X89939754Y-69799500D01*
X89939748Y-69799500D01*
X87900252Y-69799500D01*
X87900245Y-69799500D01*
X87841771Y-69811131D01*
X87841767Y-69811133D01*
X87775448Y-69855447D01*
X87775447Y-69855448D01*
X87731133Y-69921767D01*
X87731131Y-69921771D01*
X87719500Y-69980245D01*
X87719500Y-72019754D01*
X67200500Y-72019754D01*
X67200500Y-71680252D01*
X67188867Y-71621769D01*
X67188864Y-71621764D01*
X67188535Y-71620969D01*
X67153407Y-71483351D01*
X67158474Y-71341411D01*
X67188535Y-71239031D01*
X67188863Y-71238236D01*
X67188867Y-71238231D01*
X67200500Y-71179748D01*
X67200500Y-69140252D01*
X67188867Y-69081769D01*
X67188864Y-69081764D01*
X67188535Y-69080969D01*
X67153407Y-68943351D01*
X67158474Y-68801411D01*
X67188535Y-68699031D01*
X67188863Y-68698236D01*
X67188867Y-68698231D01*
X67200500Y-68639748D01*
X67200500Y-66600252D01*
X67188867Y-66541769D01*
X67188864Y-66541764D01*
X67188535Y-66540969D01*
X67153407Y-66403351D01*
X67158474Y-66261411D01*
X67188535Y-66159031D01*
X67188863Y-66158236D01*
X67188867Y-66158231D01*
X67200500Y-66099748D01*
X67200500Y-64060252D01*
X67188867Y-64001769D01*
X67188864Y-64001764D01*
X67188535Y-64000969D01*
X67153407Y-63863351D01*
X67158474Y-63721411D01*
X67188535Y-63619031D01*
X67188863Y-63618236D01*
X67188867Y-63618231D01*
X67200500Y-63559748D01*
X67200500Y-61520252D01*
X67188867Y-61461769D01*
X67188864Y-61461764D01*
X67188535Y-61460969D01*
X67153407Y-61323351D01*
X67158474Y-61181411D01*
X67188535Y-61079031D01*
X67188863Y-61078236D01*
X67188867Y-61078231D01*
X67200500Y-61019748D01*
X67200500Y-58980252D01*
X67200499Y-58980245D01*
X67188868Y-58921771D01*
X67188866Y-58921767D01*
X67144552Y-58855448D01*
X67144551Y-58855447D01*
X67078232Y-58811133D01*
X67078228Y-58811131D01*
X67019754Y-58799500D01*
X67019748Y-58799500D01*
X64980252Y-58799500D01*
X64980245Y-58799500D01*
X64921771Y-58811131D01*
X64921767Y-58811133D01*
X64855448Y-58855447D01*
X64855447Y-58855448D01*
X64811133Y-58921767D01*
X64811131Y-58921771D01*
X64799500Y-58980245D01*
X64799500Y-61019754D01*
X64811132Y-61078233D01*
X64811467Y-61079040D01*
X64846593Y-61216658D01*
X64841524Y-61358598D01*
X64811467Y-61460960D01*
X64811132Y-61461766D01*
X64799500Y-61520245D01*
X64799500Y-63559754D01*
X64811132Y-63618233D01*
X64811467Y-63619040D01*
X64846593Y-63756658D01*
X64841524Y-63898598D01*
X64811467Y-64000960D01*
X64811132Y-64001766D01*
X64799500Y-64060245D01*
X64799500Y-66099754D01*
X64811132Y-66158233D01*
X64811467Y-66159040D01*
X64846593Y-66296658D01*
X64841524Y-66438598D01*
X64811467Y-66540960D01*
X64811132Y-66541766D01*
X64799500Y-66600245D01*
X64799500Y-68639754D01*
X64811132Y-68698233D01*
X64811467Y-68699040D01*
X64846593Y-68836658D01*
X64841524Y-68978598D01*
X64811467Y-69080960D01*
X64811132Y-69081766D01*
X64799500Y-69140245D01*
X64799500Y-71179754D01*
X64811132Y-71238233D01*
X64811467Y-71239040D01*
X64846593Y-71376658D01*
X64841524Y-71518598D01*
X64811467Y-71620960D01*
X64811132Y-71621766D01*
X64799500Y-71680245D01*
X64799500Y-73719754D01*
X64811132Y-73778233D01*
X64811467Y-73779040D01*
X64846593Y-73916658D01*
X64841524Y-74058598D01*
X64811467Y-74160960D01*
X64811132Y-74161766D01*
X64799500Y-74220245D01*
X64799500Y-76259754D01*
X64811132Y-76318233D01*
X64811467Y-76319040D01*
X64846593Y-76456658D01*
X64841524Y-76598598D01*
X64811467Y-76700960D01*
X64811132Y-76701766D01*
X64799500Y-76760245D01*
X64799500Y-78799754D01*
X64811132Y-78858233D01*
X64811467Y-78859040D01*
X64846593Y-78996658D01*
X64841524Y-79138598D01*
X64811467Y-79240960D01*
X64811132Y-79241766D01*
X64799500Y-79300245D01*
X64799500Y-81339754D01*
X64811132Y-81398233D01*
X64811467Y-81399040D01*
X64846593Y-81536658D01*
X64841524Y-81678598D01*
X64811467Y-81780960D01*
X64811132Y-81781766D01*
X64799500Y-81840245D01*
X64799500Y-83879754D01*
X55110500Y-83879754D01*
X55110500Y-52922894D01*
X57637500Y-52922894D01*
X57673973Y-53246596D01*
X57673978Y-53246627D01*
X57746463Y-53564210D01*
X57746469Y-53564229D01*
X57854063Y-53871719D01*
X57854068Y-53871729D01*
X57995405Y-54165218D01*
X57995414Y-54165235D01*
X58168738Y-54441080D01*
X58368661Y-54691776D01*
X58371857Y-54695783D01*
X58602217Y-54926143D01*
X58856919Y-55129261D01*
X59132763Y-55302585D01*
X59132774Y-55302590D01*
X59132781Y-55302594D01*
X59426270Y-55443931D01*
X59426280Y-55443936D01*
X59500094Y-55469764D01*
X59733773Y-55551532D01*
X59733785Y-55551534D01*
X59733789Y-55551536D01*
X59865805Y-55581667D01*
X60051383Y-55624024D01*
X60375111Y-55660500D01*
X60700889Y-55660500D01*
X61024617Y-55624024D01*
X61296747Y-55561912D01*
X61342210Y-55551536D01*
X61342211Y-55551535D01*
X61342227Y-55551532D01*
X61649722Y-55443935D01*
X61943237Y-55302585D01*
X62219081Y-55129261D01*
X62473783Y-54926143D01*
X62704143Y-54695783D01*
X62907261Y-54441081D01*
X63080585Y-54165237D01*
X63221935Y-53871722D01*
X63329532Y-53564227D01*
X63402024Y-53246617D01*
X63438500Y-52922889D01*
X63438500Y-52918894D01*
X118679500Y-52918894D01*
X118715973Y-53242596D01*
X118715978Y-53242627D01*
X118788463Y-53560210D01*
X118788467Y-53560222D01*
X118788468Y-53560227D01*
X118814297Y-53634043D01*
X118896063Y-53867719D01*
X118896068Y-53867729D01*
X119037405Y-54161218D01*
X119037414Y-54161235D01*
X119037415Y-54161237D01*
X119108218Y-54273919D01*
X119210738Y-54437080D01*
X119413851Y-54691776D01*
X119413861Y-54691787D01*
X119644212Y-54922138D01*
X119644223Y-54922148D01*
X119649233Y-54926143D01*
X119898919Y-55125261D01*
X120174763Y-55298585D01*
X120174774Y-55298590D01*
X120174781Y-55298594D01*
X120468270Y-55439931D01*
X120468280Y-55439936D01*
X120542094Y-55465764D01*
X120775773Y-55547532D01*
X120775785Y-55547534D01*
X120775789Y-55547536D01*
X120907805Y-55577667D01*
X121093383Y-55620024D01*
X121417111Y-55656500D01*
X121742889Y-55656500D01*
X122066617Y-55620024D01*
X122338747Y-55557912D01*
X122384210Y-55547536D01*
X122384211Y-55547535D01*
X122384227Y-55547532D01*
X122691722Y-55439935D01*
X122985237Y-55298585D01*
X123261081Y-55125261D01*
X123515783Y-54922143D01*
X123746143Y-54691783D01*
X123949261Y-54437081D01*
X124122585Y-54161237D01*
X124263935Y-53867722D01*
X124371532Y-53560227D01*
X124444024Y-53242617D01*
X124480500Y-52918889D01*
X124480500Y-52593111D01*
X124444024Y-52269383D01*
X124372445Y-51955773D01*
X124371536Y-51951789D01*
X124371534Y-51951785D01*
X124371532Y-51951773D01*
X124289764Y-51718094D01*
X124263936Y-51644280D01*
X124263931Y-51644270D01*
X124122594Y-51350781D01*
X124122585Y-51350764D01*
X124122585Y-51350763D01*
X123949261Y-51074919D01*
X123746143Y-50820217D01*
X123515783Y-50589857D01*
X123515779Y-50589854D01*
X123515776Y-50589851D01*
X123261080Y-50386738D01*
X122985235Y-50213414D01*
X122985218Y-50213405D01*
X122691729Y-50072068D01*
X122691719Y-50072063D01*
X122458043Y-49990297D01*
X122384227Y-49964468D01*
X122384222Y-49964467D01*
X122384210Y-49964463D01*
X122066627Y-49891978D01*
X122066622Y-49891977D01*
X122066617Y-49891976D01*
X122066609Y-49891975D01*
X122066596Y-49891973D01*
X121742894Y-49855500D01*
X121742889Y-49855500D01*
X121417111Y-49855500D01*
X121417105Y-49855500D01*
X121093403Y-49891973D01*
X121093387Y-49891975D01*
X121093383Y-49891976D01*
X121093379Y-49891976D01*
X121093372Y-49891978D01*
X120775789Y-49964463D01*
X120775770Y-49964469D01*
X120468280Y-50072063D01*
X120468270Y-50072068D01*
X120174781Y-50213405D01*
X120174764Y-50213414D01*
X119898919Y-50386738D01*
X119644223Y-50589851D01*
X119644212Y-50589861D01*
X119413861Y-50820212D01*
X119413851Y-50820223D01*
X119210738Y-51074919D01*
X119037414Y-51350764D01*
X119037405Y-51350781D01*
X118896068Y-51644270D01*
X118896063Y-51644280D01*
X118788469Y-51951770D01*
X118788463Y-51951789D01*
X118715978Y-52269372D01*
X118715973Y-52269403D01*
X118679500Y-52593105D01*
X118679500Y-52918894D01*
X63438500Y-52918894D01*
X63438500Y-52597111D01*
X63402024Y-52273383D01*
X63329532Y-51955773D01*
X63221935Y-51648278D01*
X63080585Y-51354763D01*
X62907261Y-51078919D01*
X62704143Y-50824217D01*
X62473783Y-50593857D01*
X62473779Y-50593854D01*
X62473776Y-50593851D01*
X62219080Y-50390738D01*
X61943235Y-50217414D01*
X61943218Y-50217405D01*
X61649729Y-50076068D01*
X61649719Y-50076063D01*
X61416043Y-49994297D01*
X61342227Y-49968468D01*
X61342222Y-49968467D01*
X61342210Y-49968463D01*
X61024627Y-49895978D01*
X61024622Y-49895977D01*
X61024617Y-49895976D01*
X61024609Y-49895975D01*
X61024596Y-49895973D01*
X60700894Y-49859500D01*
X60700889Y-49859500D01*
X60375111Y-49859500D01*
X60375105Y-49859500D01*
X60051403Y-49895973D01*
X60051387Y-49895975D01*
X60051383Y-49895976D01*
X60051379Y-49895976D01*
X60051372Y-49895978D01*
X59733789Y-49968463D01*
X59733770Y-49968469D01*
X59426280Y-50076063D01*
X59426270Y-50076068D01*
X59132781Y-50217405D01*
X59132764Y-50217414D01*
X58856919Y-50390738D01*
X58602223Y-50593851D01*
X58602212Y-50593861D01*
X58371861Y-50824212D01*
X58371851Y-50824223D01*
X58168738Y-51078919D01*
X57995414Y-51354764D01*
X57995405Y-51354781D01*
X57854068Y-51648270D01*
X57854063Y-51648280D01*
X57746469Y-51955770D01*
X57746463Y-51955789D01*
X57673978Y-52273372D01*
X57673973Y-52273403D01*
X57637500Y-52597105D01*
X57637500Y-52922894D01*
X55110500Y-52922894D01*
X55110500Y-47989500D01*
X55130713Y-47848915D01*
X55189714Y-47719720D01*
X55282724Y-47612381D01*
X55402208Y-47535594D01*
X55538485Y-47495579D01*
X55609500Y-47490500D01*
X126000500Y-47490500D01*
X126141085Y-47510713D01*
G37*
G04 #@! TD.AperFunction*
M02*
