G04 #@! TF.GenerationSoftware,KiCad,Pcbnew,8.0.0*
G04 #@! TF.CreationDate,2024-03-18T20:15:54-07:00*
G04 #@! TF.ProjectId,sumitomo_node_v2,73756d69-746f-46d6-9f5f-6e6f64655f76,rev?*
G04 #@! TF.SameCoordinates,Original*
G04 #@! TF.FileFunction,Soldermask,Top*
G04 #@! TF.FilePolarity,Negative*
%FSLAX46Y46*%
G04 Gerber Fmt 4.6, Leading zero omitted, Abs format (unit mm)*
G04 Created by KiCad (PCBNEW 8.0.0) date 2024-03-18 20:15:54*
%MOMM*%
%LPD*%
G01*
G04 APERTURE LIST*
%ADD10C,5.300000*%
%ADD11R,2.200000X2.200000*%
%ADD12O,2.200000X2.200000*%
%ADD13R,2.000000X2.000000*%
%ADD14R,1.600000X1.600000*%
%ADD15O,1.600000X1.600000*%
%ADD16C,1.600000*%
%ADD17R,1.800000X1.800000*%
%ADD18C,1.800000*%
G04 APERTURE END LIST*
D10*
X121580000Y-162636000D03*
X60538000Y-162636000D03*
X121580000Y-52756000D03*
X60538000Y-52760000D03*
D11*
X90170000Y-159385000D03*
D12*
X100330000Y-159385000D03*
D13*
X114260000Y-69144000D03*
X114260000Y-71684000D03*
X114260000Y-74224000D03*
X114260000Y-76764000D03*
X114260000Y-79304000D03*
X114260000Y-81844000D03*
X114260000Y-84384000D03*
X114260000Y-86924000D03*
X114260000Y-92004000D03*
X114260000Y-94544000D03*
X114260000Y-97084000D03*
X114260000Y-99624000D03*
X114260000Y-102164000D03*
X114260000Y-104704000D03*
X114260000Y-107244000D03*
X114260000Y-109784000D03*
X114260000Y-114864000D03*
X114260000Y-117404000D03*
X114260000Y-119944000D03*
X114260000Y-122484000D03*
X114260000Y-125024000D03*
X114260000Y-127564000D03*
X114260000Y-130104000D03*
X114260000Y-132644000D03*
X66000000Y-60000000D03*
X66000000Y-62540000D03*
X66000000Y-65080000D03*
X66000000Y-67620000D03*
X66000000Y-70160000D03*
X66000000Y-72700000D03*
X66000000Y-75240000D03*
X66000000Y-77780000D03*
X66000000Y-80320000D03*
X66000000Y-82860000D03*
X66000000Y-86924000D03*
X66000000Y-89464000D03*
X66000000Y-92004000D03*
X66000000Y-94544000D03*
X66000000Y-97084000D03*
X66000000Y-99624000D03*
X66000000Y-102164000D03*
X66000000Y-104704000D03*
X66000000Y-109784000D03*
X66000000Y-112324000D03*
X66000000Y-114864000D03*
X66000000Y-117404000D03*
X66000000Y-119944000D03*
X66000000Y-122484000D03*
X66000000Y-125024000D03*
X66000000Y-127564000D03*
X85090000Y-156210000D03*
X85090000Y-153670000D03*
X85090000Y-151130000D03*
X85090000Y-148590000D03*
X85090000Y-146050000D03*
X86380000Y-71000000D03*
X88920000Y-71000000D03*
X91460000Y-71000000D03*
X94000000Y-71000000D03*
D14*
X114300000Y-147000000D03*
D15*
X111760000Y-147000000D03*
X109220000Y-147000000D03*
X106680000Y-147000000D03*
X104140000Y-147000000D03*
X101600000Y-147000000D03*
X99060000Y-147000000D03*
X96520000Y-147000000D03*
X93980000Y-147000000D03*
X91440000Y-147000000D03*
X91440000Y-154620000D03*
X93980000Y-154620000D03*
X96520000Y-154620000D03*
X99060000Y-154620000D03*
X101600000Y-154620000D03*
X104140000Y-154620000D03*
X106680000Y-154620000D03*
X109220000Y-154620000D03*
X111760000Y-154620000D03*
X114300000Y-154620000D03*
X71120000Y-130810000D03*
D16*
X81280000Y-130810000D03*
D15*
X71120000Y-134620000D03*
D16*
X81280000Y-134620000D03*
D15*
X71120000Y-138430000D03*
D16*
X81280000Y-138430000D03*
D17*
X78740000Y-160030000D03*
D18*
X78740000Y-157490000D03*
D17*
X71120000Y-152400000D03*
D18*
X71120000Y-154940000D03*
D17*
X71120000Y-144780000D03*
D18*
X71120000Y-147320000D03*
M02*
