G04 #@! TF.GenerationSoftware,KiCad,Pcbnew,8.0.0*
G04 #@! TF.CreationDate,2024-03-18T20:15:54-07:00*
G04 #@! TF.ProjectId,sumitomo_node_v2,73756d69-746f-46d6-9f5f-6e6f64655f76,rev?*
G04 #@! TF.SameCoordinates,Original*
G04 #@! TF.FileFunction,Legend,Bot*
G04 #@! TF.FilePolarity,Positive*
%FSLAX46Y46*%
G04 Gerber Fmt 4.6, Leading zero omitted, Abs format (unit mm)*
G04 Created by KiCad (PCBNEW 8.0.0) date 2024-03-18 20:15:54*
%MOMM*%
%LPD*%
G01*
G04 APERTURE LIST*
%ADD10C,0.100000*%
%ADD11C,0.150000*%
%ADD12C,0.120000*%
%ADD13C,5.300000*%
%ADD14R,2.200000X2.200000*%
%ADD15O,2.200000X2.200000*%
%ADD16R,2.000000X2.000000*%
%ADD17R,1.600000X1.600000*%
%ADD18O,1.600000X1.600000*%
%ADD19C,1.600000*%
%ADD20R,1.800000X1.800000*%
%ADD21C,1.800000*%
G04 APERTURE END LIST*
D10*
X115021904Y-38121419D02*
X115021904Y-38930942D01*
X115021904Y-38930942D02*
X114974285Y-39026180D01*
X114974285Y-39026180D02*
X114926666Y-39073800D01*
X114926666Y-39073800D02*
X114831428Y-39121419D01*
X114831428Y-39121419D02*
X114640952Y-39121419D01*
X114640952Y-39121419D02*
X114545714Y-39073800D01*
X114545714Y-39073800D02*
X114498095Y-39026180D01*
X114498095Y-39026180D02*
X114450476Y-38930942D01*
X114450476Y-38930942D02*
X114450476Y-38121419D01*
X113450476Y-39121419D02*
X114021904Y-39121419D01*
X113736190Y-39121419D02*
X113736190Y-38121419D01*
X113736190Y-38121419D02*
X113831428Y-38264276D01*
X113831428Y-38264276D02*
X113926666Y-38359514D01*
X113926666Y-38359514D02*
X114021904Y-38407133D01*
X109761904Y-62457419D02*
X109761904Y-63266942D01*
X109761904Y-63266942D02*
X109714285Y-63362180D01*
X109714285Y-63362180D02*
X109666666Y-63409800D01*
X109666666Y-63409800D02*
X109571428Y-63457419D01*
X109571428Y-63457419D02*
X109380952Y-63457419D01*
X109380952Y-63457419D02*
X109285714Y-63409800D01*
X109285714Y-63409800D02*
X109238095Y-63362180D01*
X109238095Y-63362180D02*
X109190476Y-63266942D01*
X109190476Y-63266942D02*
X109190476Y-62457419D01*
X108761904Y-62552657D02*
X108714285Y-62505038D01*
X108714285Y-62505038D02*
X108619047Y-62457419D01*
X108619047Y-62457419D02*
X108380952Y-62457419D01*
X108380952Y-62457419D02*
X108285714Y-62505038D01*
X108285714Y-62505038D02*
X108238095Y-62552657D01*
X108238095Y-62552657D02*
X108190476Y-62647895D01*
X108190476Y-62647895D02*
X108190476Y-62743133D01*
X108190476Y-62743133D02*
X108238095Y-62885990D01*
X108238095Y-62885990D02*
X108809523Y-63457419D01*
X108809523Y-63457419D02*
X108190476Y-63457419D01*
X94459800Y-72526265D02*
X94507419Y-72669122D01*
X94507419Y-72669122D02*
X94507419Y-72907217D01*
X94507419Y-72907217D02*
X94459800Y-73002455D01*
X94459800Y-73002455D02*
X94412180Y-73050074D01*
X94412180Y-73050074D02*
X94316942Y-73097693D01*
X94316942Y-73097693D02*
X94221704Y-73097693D01*
X94221704Y-73097693D02*
X94126466Y-73050074D01*
X94126466Y-73050074D02*
X94078847Y-73002455D01*
X94078847Y-73002455D02*
X94031228Y-72907217D01*
X94031228Y-72907217D02*
X93983609Y-72716741D01*
X93983609Y-72716741D02*
X93935990Y-72621503D01*
X93935990Y-72621503D02*
X93888371Y-72573884D01*
X93888371Y-72573884D02*
X93793133Y-72526265D01*
X93793133Y-72526265D02*
X93697895Y-72526265D01*
X93697895Y-72526265D02*
X93602657Y-72573884D01*
X93602657Y-72573884D02*
X93555038Y-72621503D01*
X93555038Y-72621503D02*
X93507419Y-72716741D01*
X93507419Y-72716741D02*
X93507419Y-72954836D01*
X93507419Y-72954836D02*
X93555038Y-73097693D01*
X94412180Y-74097693D02*
X94459800Y-74050074D01*
X94459800Y-74050074D02*
X94507419Y-73907217D01*
X94507419Y-73907217D02*
X94507419Y-73811979D01*
X94507419Y-73811979D02*
X94459800Y-73669122D01*
X94459800Y-73669122D02*
X94364561Y-73573884D01*
X94364561Y-73573884D02*
X94269323Y-73526265D01*
X94269323Y-73526265D02*
X94078847Y-73478646D01*
X94078847Y-73478646D02*
X93935990Y-73478646D01*
X93935990Y-73478646D02*
X93745514Y-73526265D01*
X93745514Y-73526265D02*
X93650276Y-73573884D01*
X93650276Y-73573884D02*
X93555038Y-73669122D01*
X93555038Y-73669122D02*
X93507419Y-73811979D01*
X93507419Y-73811979D02*
X93507419Y-73907217D01*
X93507419Y-73907217D02*
X93555038Y-74050074D01*
X93555038Y-74050074D02*
X93602657Y-74097693D01*
X94507419Y-75002455D02*
X94507419Y-74526265D01*
X94507419Y-74526265D02*
X93507419Y-74526265D01*
X93459800Y-76050074D02*
X94745514Y-75192932D01*
X93507419Y-76240551D02*
X93507419Y-76811979D01*
X94507419Y-76526265D02*
X93507419Y-76526265D01*
X93507419Y-77050075D02*
X94507419Y-77716741D01*
X93507419Y-77716741D02*
X94507419Y-77050075D01*
X91919800Y-72526265D02*
X91967419Y-72669122D01*
X91967419Y-72669122D02*
X91967419Y-72907217D01*
X91967419Y-72907217D02*
X91919800Y-73002455D01*
X91919800Y-73002455D02*
X91872180Y-73050074D01*
X91872180Y-73050074D02*
X91776942Y-73097693D01*
X91776942Y-73097693D02*
X91681704Y-73097693D01*
X91681704Y-73097693D02*
X91586466Y-73050074D01*
X91586466Y-73050074D02*
X91538847Y-73002455D01*
X91538847Y-73002455D02*
X91491228Y-72907217D01*
X91491228Y-72907217D02*
X91443609Y-72716741D01*
X91443609Y-72716741D02*
X91395990Y-72621503D01*
X91395990Y-72621503D02*
X91348371Y-72573884D01*
X91348371Y-72573884D02*
X91253133Y-72526265D01*
X91253133Y-72526265D02*
X91157895Y-72526265D01*
X91157895Y-72526265D02*
X91062657Y-72573884D01*
X91062657Y-72573884D02*
X91015038Y-72621503D01*
X91015038Y-72621503D02*
X90967419Y-72716741D01*
X90967419Y-72716741D02*
X90967419Y-72954836D01*
X90967419Y-72954836D02*
X91015038Y-73097693D01*
X91967419Y-73526265D02*
X90967419Y-73526265D01*
X90967419Y-73526265D02*
X90967419Y-73764360D01*
X90967419Y-73764360D02*
X91015038Y-73907217D01*
X91015038Y-73907217D02*
X91110276Y-74002455D01*
X91110276Y-74002455D02*
X91205514Y-74050074D01*
X91205514Y-74050074D02*
X91395990Y-74097693D01*
X91395990Y-74097693D02*
X91538847Y-74097693D01*
X91538847Y-74097693D02*
X91729323Y-74050074D01*
X91729323Y-74050074D02*
X91824561Y-74002455D01*
X91824561Y-74002455D02*
X91919800Y-73907217D01*
X91919800Y-73907217D02*
X91967419Y-73764360D01*
X91967419Y-73764360D02*
X91967419Y-73526265D01*
X91681704Y-74478646D02*
X91681704Y-74954836D01*
X91967419Y-74383408D02*
X90967419Y-74716741D01*
X90967419Y-74716741D02*
X91967419Y-75050074D01*
X90919800Y-76097693D02*
X92205514Y-75240551D01*
X91967419Y-77002455D02*
X91491228Y-76669122D01*
X91967419Y-76431027D02*
X90967419Y-76431027D01*
X90967419Y-76431027D02*
X90967419Y-76811979D01*
X90967419Y-76811979D02*
X91015038Y-76907217D01*
X91015038Y-76907217D02*
X91062657Y-76954836D01*
X91062657Y-76954836D02*
X91157895Y-77002455D01*
X91157895Y-77002455D02*
X91300752Y-77002455D01*
X91300752Y-77002455D02*
X91395990Y-76954836D01*
X91395990Y-76954836D02*
X91443609Y-76907217D01*
X91443609Y-76907217D02*
X91491228Y-76811979D01*
X91491228Y-76811979D02*
X91491228Y-76431027D01*
X90967419Y-77335789D02*
X91967419Y-78002455D01*
X90967419Y-78002455D02*
X91967419Y-77335789D01*
X85935038Y-73097693D02*
X85887419Y-73002455D01*
X85887419Y-73002455D02*
X85887419Y-72859598D01*
X85887419Y-72859598D02*
X85935038Y-72716741D01*
X85935038Y-72716741D02*
X86030276Y-72621503D01*
X86030276Y-72621503D02*
X86125514Y-72573884D01*
X86125514Y-72573884D02*
X86315990Y-72526265D01*
X86315990Y-72526265D02*
X86458847Y-72526265D01*
X86458847Y-72526265D02*
X86649323Y-72573884D01*
X86649323Y-72573884D02*
X86744561Y-72621503D01*
X86744561Y-72621503D02*
X86839800Y-72716741D01*
X86839800Y-72716741D02*
X86887419Y-72859598D01*
X86887419Y-72859598D02*
X86887419Y-72954836D01*
X86887419Y-72954836D02*
X86839800Y-73097693D01*
X86839800Y-73097693D02*
X86792180Y-73145312D01*
X86792180Y-73145312D02*
X86458847Y-73145312D01*
X86458847Y-73145312D02*
X86458847Y-72954836D01*
X86887419Y-73573884D02*
X85887419Y-73573884D01*
X85887419Y-73573884D02*
X86887419Y-74145312D01*
X86887419Y-74145312D02*
X85887419Y-74145312D01*
X86887419Y-74621503D02*
X85887419Y-74621503D01*
X85887419Y-74621503D02*
X85887419Y-74859598D01*
X85887419Y-74859598D02*
X85935038Y-75002455D01*
X85935038Y-75002455D02*
X86030276Y-75097693D01*
X86030276Y-75097693D02*
X86125514Y-75145312D01*
X86125514Y-75145312D02*
X86315990Y-75192931D01*
X86315990Y-75192931D02*
X86458847Y-75192931D01*
X86458847Y-75192931D02*
X86649323Y-75145312D01*
X86649323Y-75145312D02*
X86744561Y-75097693D01*
X86744561Y-75097693D02*
X86839800Y-75002455D01*
X86839800Y-75002455D02*
X86887419Y-74859598D01*
X86887419Y-74859598D02*
X86887419Y-74621503D01*
X88427419Y-72431027D02*
X89427419Y-72764360D01*
X89427419Y-72764360D02*
X88427419Y-73097693D01*
X89332180Y-74002455D02*
X89379800Y-73954836D01*
X89379800Y-73954836D02*
X89427419Y-73811979D01*
X89427419Y-73811979D02*
X89427419Y-73716741D01*
X89427419Y-73716741D02*
X89379800Y-73573884D01*
X89379800Y-73573884D02*
X89284561Y-73478646D01*
X89284561Y-73478646D02*
X89189323Y-73431027D01*
X89189323Y-73431027D02*
X88998847Y-73383408D01*
X88998847Y-73383408D02*
X88855990Y-73383408D01*
X88855990Y-73383408D02*
X88665514Y-73431027D01*
X88665514Y-73431027D02*
X88570276Y-73478646D01*
X88570276Y-73478646D02*
X88475038Y-73573884D01*
X88475038Y-73573884D02*
X88427419Y-73716741D01*
X88427419Y-73716741D02*
X88427419Y-73811979D01*
X88427419Y-73811979D02*
X88475038Y-73954836D01*
X88475038Y-73954836D02*
X88522657Y-74002455D01*
X89332180Y-75002455D02*
X89379800Y-74954836D01*
X89379800Y-74954836D02*
X89427419Y-74811979D01*
X89427419Y-74811979D02*
X89427419Y-74716741D01*
X89427419Y-74716741D02*
X89379800Y-74573884D01*
X89379800Y-74573884D02*
X89284561Y-74478646D01*
X89284561Y-74478646D02*
X89189323Y-74431027D01*
X89189323Y-74431027D02*
X88998847Y-74383408D01*
X88998847Y-74383408D02*
X88855990Y-74383408D01*
X88855990Y-74383408D02*
X88665514Y-74431027D01*
X88665514Y-74431027D02*
X88570276Y-74478646D01*
X88570276Y-74478646D02*
X88475038Y-74573884D01*
X88475038Y-74573884D02*
X88427419Y-74716741D01*
X88427419Y-74716741D02*
X88427419Y-74811979D01*
X88427419Y-74811979D02*
X88475038Y-74954836D01*
X88475038Y-74954836D02*
X88522657Y-75002455D01*
D11*
X83986666Y-131264819D02*
X84319999Y-130788628D01*
X84558094Y-131264819D02*
X84558094Y-130264819D01*
X84558094Y-130264819D02*
X84177142Y-130264819D01*
X84177142Y-130264819D02*
X84081904Y-130312438D01*
X84081904Y-130312438D02*
X84034285Y-130360057D01*
X84034285Y-130360057D02*
X83986666Y-130455295D01*
X83986666Y-130455295D02*
X83986666Y-130598152D01*
X83986666Y-130598152D02*
X84034285Y-130693390D01*
X84034285Y-130693390D02*
X84081904Y-130741009D01*
X84081904Y-130741009D02*
X84177142Y-130788628D01*
X84177142Y-130788628D02*
X84558094Y-130788628D01*
X83653332Y-130264819D02*
X83034285Y-130264819D01*
X83034285Y-130264819D02*
X83367618Y-130645771D01*
X83367618Y-130645771D02*
X83224761Y-130645771D01*
X83224761Y-130645771D02*
X83129523Y-130693390D01*
X83129523Y-130693390D02*
X83081904Y-130741009D01*
X83081904Y-130741009D02*
X83034285Y-130836247D01*
X83034285Y-130836247D02*
X83034285Y-131074342D01*
X83034285Y-131074342D02*
X83081904Y-131169580D01*
X83081904Y-131169580D02*
X83129523Y-131217200D01*
X83129523Y-131217200D02*
X83224761Y-131264819D01*
X83224761Y-131264819D02*
X83510475Y-131264819D01*
X83510475Y-131264819D02*
X83605713Y-131217200D01*
X83605713Y-131217200D02*
X83653332Y-131169580D01*
X83986666Y-135074819D02*
X84319999Y-134598628D01*
X84558094Y-135074819D02*
X84558094Y-134074819D01*
X84558094Y-134074819D02*
X84177142Y-134074819D01*
X84177142Y-134074819D02*
X84081904Y-134122438D01*
X84081904Y-134122438D02*
X84034285Y-134170057D01*
X84034285Y-134170057D02*
X83986666Y-134265295D01*
X83986666Y-134265295D02*
X83986666Y-134408152D01*
X83986666Y-134408152D02*
X84034285Y-134503390D01*
X84034285Y-134503390D02*
X84081904Y-134551009D01*
X84081904Y-134551009D02*
X84177142Y-134598628D01*
X84177142Y-134598628D02*
X84558094Y-134598628D01*
X83605713Y-134170057D02*
X83558094Y-134122438D01*
X83558094Y-134122438D02*
X83462856Y-134074819D01*
X83462856Y-134074819D02*
X83224761Y-134074819D01*
X83224761Y-134074819D02*
X83129523Y-134122438D01*
X83129523Y-134122438D02*
X83081904Y-134170057D01*
X83081904Y-134170057D02*
X83034285Y-134265295D01*
X83034285Y-134265295D02*
X83034285Y-134360533D01*
X83034285Y-134360533D02*
X83081904Y-134503390D01*
X83081904Y-134503390D02*
X83653332Y-135074819D01*
X83653332Y-135074819D02*
X83034285Y-135074819D01*
X83986666Y-138884819D02*
X84319999Y-138408628D01*
X84558094Y-138884819D02*
X84558094Y-137884819D01*
X84558094Y-137884819D02*
X84177142Y-137884819D01*
X84177142Y-137884819D02*
X84081904Y-137932438D01*
X84081904Y-137932438D02*
X84034285Y-137980057D01*
X84034285Y-137980057D02*
X83986666Y-138075295D01*
X83986666Y-138075295D02*
X83986666Y-138218152D01*
X83986666Y-138218152D02*
X84034285Y-138313390D01*
X84034285Y-138313390D02*
X84081904Y-138361009D01*
X84081904Y-138361009D02*
X84177142Y-138408628D01*
X84177142Y-138408628D02*
X84558094Y-138408628D01*
X83034285Y-138884819D02*
X83605713Y-138884819D01*
X83319999Y-138884819D02*
X83319999Y-137884819D01*
X83319999Y-137884819D02*
X83415237Y-138027676D01*
X83415237Y-138027676D02*
X83510475Y-138122914D01*
X83510475Y-138122914D02*
X83605713Y-138170533D01*
D10*
X110510000Y-107830000D02*
X69870000Y-107830000D01*
X69870000Y-64650000D01*
X110510000Y-64650000D01*
X110510000Y-107830000D01*
D12*
X72930000Y-130810000D02*
X72160000Y-130810000D01*
X72930000Y-129440000D02*
X72930000Y-132180000D01*
X79470000Y-129440000D02*
X72930000Y-129440000D01*
X72930000Y-132180000D02*
X79470000Y-132180000D01*
X79470000Y-132180000D02*
X79470000Y-129440000D01*
X79470000Y-130810000D02*
X80240000Y-130810000D01*
X72930000Y-134620000D02*
X72160000Y-134620000D01*
X72930000Y-133250000D02*
X72930000Y-135990000D01*
X79470000Y-133250000D02*
X72930000Y-133250000D01*
X72930000Y-135990000D02*
X79470000Y-135990000D01*
X79470000Y-135990000D02*
X79470000Y-133250000D01*
X79470000Y-134620000D02*
X80240000Y-134620000D01*
X72930000Y-138430000D02*
X72160000Y-138430000D01*
X72930000Y-137060000D02*
X72930000Y-139800000D01*
X79470000Y-137060000D02*
X72930000Y-137060000D01*
X72930000Y-139800000D02*
X79470000Y-139800000D01*
X79470000Y-139800000D02*
X79470000Y-137060000D01*
X79470000Y-138430000D02*
X80240000Y-138430000D01*
%LPC*%
D13*
X121580000Y-162636000D03*
X60538000Y-162636000D03*
X121580000Y-52756000D03*
X60538000Y-52760000D03*
D14*
X90170000Y-159385000D03*
D15*
X100330000Y-159385000D03*
D16*
X114260000Y-69144000D03*
X114260000Y-71684000D03*
X114260000Y-74224000D03*
X114260000Y-76764000D03*
X114260000Y-79304000D03*
X114260000Y-81844000D03*
X114260000Y-84384000D03*
X114260000Y-86924000D03*
X114260000Y-92004000D03*
X114260000Y-94544000D03*
X114260000Y-97084000D03*
X114260000Y-99624000D03*
X114260000Y-102164000D03*
X114260000Y-104704000D03*
X114260000Y-107244000D03*
X114260000Y-109784000D03*
X114260000Y-114864000D03*
X114260000Y-117404000D03*
X114260000Y-119944000D03*
X114260000Y-122484000D03*
X114260000Y-125024000D03*
X114260000Y-127564000D03*
X114260000Y-130104000D03*
X114260000Y-132644000D03*
X66000000Y-60000000D03*
X66000000Y-62540000D03*
X66000000Y-65080000D03*
X66000000Y-67620000D03*
X66000000Y-70160000D03*
X66000000Y-72700000D03*
X66000000Y-75240000D03*
X66000000Y-77780000D03*
X66000000Y-80320000D03*
X66000000Y-82860000D03*
X66000000Y-86924000D03*
X66000000Y-89464000D03*
X66000000Y-92004000D03*
X66000000Y-94544000D03*
X66000000Y-97084000D03*
X66000000Y-99624000D03*
X66000000Y-102164000D03*
X66000000Y-104704000D03*
X66000000Y-109784000D03*
X66000000Y-112324000D03*
X66000000Y-114864000D03*
X66000000Y-117404000D03*
X66000000Y-119944000D03*
X66000000Y-122484000D03*
X66000000Y-125024000D03*
X66000000Y-127564000D03*
X85090000Y-156210000D03*
X85090000Y-153670000D03*
X85090000Y-151130000D03*
X85090000Y-148590000D03*
X85090000Y-146050000D03*
X86380000Y-71000000D03*
X88920000Y-71000000D03*
X91460000Y-71000000D03*
X94000000Y-71000000D03*
D17*
X114300000Y-147000000D03*
D18*
X111760000Y-147000000D03*
X109220000Y-147000000D03*
X106680000Y-147000000D03*
X104140000Y-147000000D03*
X101600000Y-147000000D03*
X99060000Y-147000000D03*
X96520000Y-147000000D03*
X93980000Y-147000000D03*
X91440000Y-147000000D03*
X91440000Y-154620000D03*
X93980000Y-154620000D03*
X96520000Y-154620000D03*
X99060000Y-154620000D03*
X101600000Y-154620000D03*
X104140000Y-154620000D03*
X106680000Y-154620000D03*
X109220000Y-154620000D03*
X111760000Y-154620000D03*
X114300000Y-154620000D03*
X71120000Y-130810000D03*
D19*
X81280000Y-130810000D03*
D18*
X71120000Y-134620000D03*
D19*
X81280000Y-134620000D03*
D18*
X71120000Y-138430000D03*
D19*
X81280000Y-138430000D03*
D20*
X78740000Y-160030000D03*
D21*
X78740000Y-157490000D03*
D20*
X71120000Y-152400000D03*
D21*
X71120000Y-154940000D03*
D20*
X71120000Y-144780000D03*
D21*
X71120000Y-147320000D03*
%LPD*%
M02*
