G04 #@! TF.GenerationSoftware,KiCad,Pcbnew,8.0.0*
G04 #@! TF.CreationDate,2024-03-18T20:15:54-07:00*
G04 #@! TF.ProjectId,sumitomo_node_v2,73756d69-746f-46d6-9f5f-6e6f64655f76,rev?*
G04 #@! TF.SameCoordinates,Original*
G04 #@! TF.FileFunction,Copper,L1,Top*
G04 #@! TF.FilePolarity,Positive*
%FSLAX46Y46*%
G04 Gerber Fmt 4.6, Leading zero omitted, Abs format (unit mm)*
G04 Created by KiCad (PCBNEW 8.0.0) date 2024-03-18 20:15:54*
%MOMM*%
%LPD*%
G01*
G04 APERTURE LIST*
G04 #@! TA.AperFunction,ComponentPad*
%ADD10R,2.200000X2.200000*%
G04 #@! TD*
G04 #@! TA.AperFunction,ComponentPad*
%ADD11O,2.200000X2.200000*%
G04 #@! TD*
G04 #@! TA.AperFunction,ComponentPad*
%ADD12R,2.000000X2.000000*%
G04 #@! TD*
G04 #@! TA.AperFunction,ComponentPad*
%ADD13R,1.600000X1.600000*%
G04 #@! TD*
G04 #@! TA.AperFunction,ComponentPad*
%ADD14O,1.600000X1.600000*%
G04 #@! TD*
G04 #@! TA.AperFunction,ComponentPad*
%ADD15C,1.600000*%
G04 #@! TD*
G04 #@! TA.AperFunction,ComponentPad*
%ADD16R,1.800000X1.800000*%
G04 #@! TD*
G04 #@! TA.AperFunction,ComponentPad*
%ADD17C,1.800000*%
G04 #@! TD*
G04 #@! TA.AperFunction,Conductor*
%ADD18C,1.000000*%
G04 #@! TD*
G04 APERTURE END LIST*
D10*
X90170000Y-159385000D03*
D11*
X100330000Y-159385000D03*
D12*
X114260000Y-69144000D03*
X114260000Y-71684000D03*
X114260000Y-74224000D03*
X114260000Y-76764000D03*
X114260000Y-79304000D03*
X114260000Y-81844000D03*
X114260000Y-84384000D03*
X114260000Y-86924000D03*
X114260000Y-92004000D03*
X114260000Y-94544000D03*
X114260000Y-97084000D03*
X114260000Y-99624000D03*
X114260000Y-102164000D03*
X114260000Y-104704000D03*
X114260000Y-107244000D03*
X114260000Y-109784000D03*
X114260000Y-114864000D03*
X114260000Y-117404000D03*
X114260000Y-119944000D03*
X114260000Y-122484000D03*
X114260000Y-125024000D03*
X114260000Y-127564000D03*
X114260000Y-130104000D03*
X114260000Y-132644000D03*
X66000000Y-60000000D03*
X66000000Y-62540000D03*
X66000000Y-65080000D03*
X66000000Y-67620000D03*
X66000000Y-70160000D03*
X66000000Y-72700000D03*
X66000000Y-75240000D03*
X66000000Y-77780000D03*
X66000000Y-80320000D03*
X66000000Y-82860000D03*
X66000000Y-86924000D03*
X66000000Y-89464000D03*
X66000000Y-92004000D03*
X66000000Y-94544000D03*
X66000000Y-97084000D03*
X66000000Y-99624000D03*
X66000000Y-102164000D03*
X66000000Y-104704000D03*
X66000000Y-109784000D03*
X66000000Y-112324000D03*
X66000000Y-114864000D03*
X66000000Y-117404000D03*
X66000000Y-119944000D03*
X66000000Y-122484000D03*
X66000000Y-125024000D03*
X66000000Y-127564000D03*
X85090000Y-156210000D03*
X85090000Y-153670000D03*
X85090000Y-151130000D03*
X85090000Y-148590000D03*
X85090000Y-146050000D03*
X86380000Y-71000000D03*
X88920000Y-71000000D03*
X91460000Y-71000000D03*
X94000000Y-71000000D03*
D13*
X114300000Y-147000000D03*
D14*
X111760000Y-147000000D03*
X109220000Y-147000000D03*
X106680000Y-147000000D03*
X104140000Y-147000000D03*
X101600000Y-147000000D03*
X99060000Y-147000000D03*
X96520000Y-147000000D03*
X93980000Y-147000000D03*
X91440000Y-147000000D03*
X91440000Y-154620000D03*
X93980000Y-154620000D03*
X96520000Y-154620000D03*
X99060000Y-154620000D03*
X101600000Y-154620000D03*
X104140000Y-154620000D03*
X106680000Y-154620000D03*
X109220000Y-154620000D03*
X111760000Y-154620000D03*
X114300000Y-154620000D03*
X71120000Y-130810000D03*
D15*
X81280000Y-130810000D03*
D14*
X71120000Y-134620000D03*
D15*
X81280000Y-134620000D03*
D14*
X71120000Y-138430000D03*
D15*
X81280000Y-138430000D03*
D16*
X78740000Y-160030000D03*
D17*
X78740000Y-157490000D03*
D16*
X71120000Y-152400000D03*
D17*
X71120000Y-154940000D03*
D16*
X71120000Y-144780000D03*
D17*
X71120000Y-147320000D03*
D18*
X66040000Y-133350000D02*
X68580000Y-130810000D01*
X66040000Y-155575000D02*
X66040000Y-133350000D01*
X70495000Y-160030000D02*
X66040000Y-155575000D01*
X78740000Y-160030000D02*
X70495000Y-160030000D01*
X68580000Y-130810000D02*
X71120000Y-130810000D01*
X113030000Y-159385000D02*
X100330000Y-159385000D01*
X116840000Y-155575000D02*
X113030000Y-159385000D01*
X116840000Y-79884000D02*
X116840000Y-155575000D01*
X116260000Y-79304000D02*
X116840000Y-79884000D01*
X114260000Y-79304000D02*
X116260000Y-79304000D01*
X97790000Y-161925000D02*
X100330000Y-159385000D01*
X84455000Y-161925000D02*
X97790000Y-161925000D01*
X80020000Y-157490000D02*
X84455000Y-161925000D01*
X78740000Y-157490000D02*
X80020000Y-157490000D01*
X88265000Y-157480000D02*
X90170000Y-159385000D01*
X88265000Y-147955000D02*
X88265000Y-157480000D01*
X86360000Y-146050000D02*
X88265000Y-147955000D01*
X85090000Y-146050000D02*
X86360000Y-146050000D01*
X102164000Y-79304000D02*
X114260000Y-79304000D01*
X99060000Y-76200000D02*
X102164000Y-79304000D01*
X99060000Y-69850000D02*
X99060000Y-76200000D01*
X96520000Y-67310000D02*
X99060000Y-69850000D01*
X88900000Y-71120000D02*
X88900000Y-68580000D01*
X88900000Y-68580000D02*
X90170000Y-67310000D01*
X88920000Y-71100000D02*
X88900000Y-71120000D01*
X90170000Y-67310000D02*
X96520000Y-67310000D01*
X88920000Y-71000000D02*
X88920000Y-71100000D01*
X106116000Y-99624000D02*
X114260000Y-99624000D01*
X82550000Y-123190000D02*
X106116000Y-99624000D01*
X81280000Y-130810000D02*
X82550000Y-129540000D01*
X82550000Y-129540000D02*
X82550000Y-123190000D01*
X108656000Y-102164000D02*
X114260000Y-102164000D01*
X85090000Y-125730000D02*
X108656000Y-102164000D01*
X85090000Y-133350000D02*
X85090000Y-125730000D01*
X81280000Y-134620000D02*
X83820000Y-134620000D01*
X83820000Y-134620000D02*
X85090000Y-133350000D01*
X109926000Y-104704000D02*
X114260000Y-104704000D01*
X87630000Y-127000000D02*
X109926000Y-104704000D01*
X87630000Y-135890000D02*
X87630000Y-127000000D01*
X85090000Y-138430000D02*
X87630000Y-135890000D01*
X81280000Y-138430000D02*
X85090000Y-138430000D01*
X82550000Y-156210000D02*
X85090000Y-156210000D01*
X73660000Y-147320000D02*
X82550000Y-156210000D01*
X73660000Y-127000000D02*
X73660000Y-147320000D01*
X71684000Y-125024000D02*
X73660000Y-127000000D01*
X66000000Y-125024000D02*
X71684000Y-125024000D01*
X73660000Y-154940000D02*
X73660000Y-153670000D01*
X78740000Y-157490000D02*
X76210000Y-157490000D01*
X76210000Y-157490000D02*
X73660000Y-154940000D01*
X73660000Y-153670000D02*
X72390000Y-154940000D01*
X73660000Y-151130000D02*
X73660000Y-153670000D01*
X71120000Y-148590000D02*
X73660000Y-151130000D01*
X71120000Y-147320000D02*
X71120000Y-148590000D01*
X72390000Y-154940000D02*
X71120000Y-154940000D01*
X68580000Y-135890000D02*
X68580000Y-149860000D01*
X68580000Y-149860000D02*
X71120000Y-152400000D01*
X69850000Y-134620000D02*
X68580000Y-135890000D01*
X71120000Y-134620000D02*
X69850000Y-134620000D01*
X71120000Y-138430000D02*
X71120000Y-144780000D01*
X76200000Y-147320000D02*
X82550000Y-153670000D01*
X82550000Y-153670000D02*
X85090000Y-153670000D01*
X74224000Y-122484000D02*
X76200000Y-124460000D01*
X66000000Y-122484000D02*
X74224000Y-122484000D01*
X76200000Y-124460000D02*
X76200000Y-147320000D01*
X76764000Y-119944000D02*
X66000000Y-119944000D01*
X78740000Y-146050000D02*
X78740000Y-121920000D01*
X78740000Y-121920000D02*
X76764000Y-119944000D01*
X83820000Y-151130000D02*
X78740000Y-146050000D01*
X85090000Y-151130000D02*
X83820000Y-151130000D01*
X80716000Y-112324000D02*
X94000000Y-99040000D01*
X94000000Y-99040000D02*
X94000000Y-71000000D01*
X66000000Y-112324000D02*
X80716000Y-112324000D01*
X91460000Y-96500000D02*
X91460000Y-71000000D01*
X78176000Y-109784000D02*
X91460000Y-96500000D01*
X66000000Y-109784000D02*
X78176000Y-109784000D01*
X66000000Y-110450000D02*
X66040000Y-110490000D01*
X66000000Y-109784000D02*
X66000000Y-110450000D01*
X91440000Y-127000000D02*
X91440000Y-147000000D01*
X111196000Y-107244000D02*
X91440000Y-127000000D01*
X114260000Y-107244000D02*
X111196000Y-107244000D01*
X93980000Y-128270000D02*
X93980000Y-147000000D01*
X112466000Y-109784000D02*
X93980000Y-128270000D01*
X114260000Y-109784000D02*
X112466000Y-109784000D01*
X111196000Y-114864000D02*
X96520000Y-129540000D01*
X114260000Y-114864000D02*
X111196000Y-114864000D01*
X96520000Y-129540000D02*
X96520000Y-147000000D01*
X99060000Y-129540000D02*
X99060000Y-147000000D01*
X114260000Y-117404000D02*
X111196000Y-117404000D01*
X111196000Y-117404000D02*
X99060000Y-129540000D01*
X101600000Y-129540000D02*
X101600000Y-147000000D01*
X111196000Y-119944000D02*
X101600000Y-129540000D01*
X114260000Y-119944000D02*
X111196000Y-119944000D01*
X104140000Y-129540000D02*
X104140000Y-147000000D01*
X111196000Y-122484000D02*
X104140000Y-129540000D01*
X114260000Y-122484000D02*
X111196000Y-122484000D01*
X111196000Y-125024000D02*
X106680000Y-129540000D01*
X114260000Y-125024000D02*
X111196000Y-125024000D01*
X106680000Y-129540000D02*
X106680000Y-147000000D01*
X109220000Y-129540000D02*
X109220000Y-147000000D01*
X111196000Y-127564000D02*
X109220000Y-129540000D01*
X114260000Y-127564000D02*
X111196000Y-127564000D01*
X112466000Y-130104000D02*
X114260000Y-130104000D01*
X111760000Y-130810000D02*
X112466000Y-130104000D01*
X111760000Y-147000000D02*
X111760000Y-130810000D01*
X114300000Y-132684000D02*
X114260000Y-132644000D01*
X114300000Y-147000000D02*
X114300000Y-132684000D01*
X111760000Y-154620000D02*
X114300000Y-154620000D01*
X109220000Y-154620000D02*
X111760000Y-154620000D01*
X106680000Y-154620000D02*
X109220000Y-154620000D01*
X104140000Y-154620000D02*
X106680000Y-154620000D01*
X101600000Y-154620000D02*
X104140000Y-154620000D01*
X99060000Y-154620000D02*
X101600000Y-154620000D01*
X96520000Y-154620000D02*
X99060000Y-154620000D01*
X93980000Y-154620000D02*
X96520000Y-154620000D01*
X91440000Y-154620000D02*
X93980000Y-154620000D01*
G04 #@! TA.AperFunction,Conductor*
G36*
X126141085Y-47510713D02*
G01*
X126270280Y-47569714D01*
X126377619Y-47662724D01*
X126454406Y-47782208D01*
X126494421Y-47918485D01*
X126499500Y-47989500D01*
X126499500Y-167910500D01*
X126479287Y-168051085D01*
X126420286Y-168180280D01*
X126327276Y-168287619D01*
X126207792Y-168364406D01*
X126071515Y-168404421D01*
X126000500Y-168409500D01*
X55609500Y-168409500D01*
X55468915Y-168389287D01*
X55339720Y-168330286D01*
X55232381Y-168237276D01*
X55155594Y-168117792D01*
X55115579Y-167981515D01*
X55110500Y-167910500D01*
X55110500Y-162798894D01*
X57637500Y-162798894D01*
X57673973Y-163122596D01*
X57673978Y-163122627D01*
X57746463Y-163440210D01*
X57746469Y-163440229D01*
X57854063Y-163747719D01*
X57854068Y-163747729D01*
X57995405Y-164041218D01*
X57995414Y-164041235D01*
X57995415Y-164041237D01*
X58168739Y-164317081D01*
X58371857Y-164571783D01*
X58602217Y-164802143D01*
X58856919Y-165005261D01*
X59132763Y-165178585D01*
X59132774Y-165178590D01*
X59132781Y-165178594D01*
X59426270Y-165319931D01*
X59426280Y-165319936D01*
X59500094Y-165345764D01*
X59733773Y-165427532D01*
X59733785Y-165427534D01*
X59733789Y-165427536D01*
X59865805Y-165457667D01*
X60051383Y-165500024D01*
X60375111Y-165536500D01*
X60700889Y-165536500D01*
X61024617Y-165500024D01*
X61296747Y-165437912D01*
X61342210Y-165427536D01*
X61342211Y-165427535D01*
X61342227Y-165427532D01*
X61649722Y-165319935D01*
X61943237Y-165178585D01*
X62219081Y-165005261D01*
X62473783Y-164802143D01*
X62704143Y-164571783D01*
X62907261Y-164317081D01*
X63080585Y-164041237D01*
X63221935Y-163747722D01*
X63329532Y-163440227D01*
X63402024Y-163122617D01*
X63438499Y-162798894D01*
X118679500Y-162798894D01*
X118715973Y-163122596D01*
X118715978Y-163122627D01*
X118788463Y-163440210D01*
X118788469Y-163440229D01*
X118896063Y-163747719D01*
X118896068Y-163747729D01*
X119037405Y-164041218D01*
X119037414Y-164041235D01*
X119037415Y-164041237D01*
X119210739Y-164317081D01*
X119413857Y-164571783D01*
X119644217Y-164802143D01*
X119898919Y-165005261D01*
X120174763Y-165178585D01*
X120174774Y-165178590D01*
X120174781Y-165178594D01*
X120468270Y-165319931D01*
X120468280Y-165319936D01*
X120542094Y-165345764D01*
X120775773Y-165427532D01*
X120775785Y-165427534D01*
X120775789Y-165427536D01*
X120907805Y-165457667D01*
X121093383Y-165500024D01*
X121417111Y-165536500D01*
X121742889Y-165536500D01*
X122066617Y-165500024D01*
X122338747Y-165437912D01*
X122384210Y-165427536D01*
X122384211Y-165427535D01*
X122384227Y-165427532D01*
X122691722Y-165319935D01*
X122985237Y-165178585D01*
X123261081Y-165005261D01*
X123515783Y-164802143D01*
X123746143Y-164571783D01*
X123949261Y-164317081D01*
X124122585Y-164041237D01*
X124263935Y-163747722D01*
X124371532Y-163440227D01*
X124444024Y-163122617D01*
X124480500Y-162798889D01*
X124480500Y-162473111D01*
X124444024Y-162149383D01*
X124371532Y-161831773D01*
X124263935Y-161524278D01*
X124122585Y-161230763D01*
X123949261Y-160954919D01*
X123746143Y-160700217D01*
X123515783Y-160469857D01*
X123515779Y-160469854D01*
X123515776Y-160469851D01*
X123261080Y-160266738D01*
X122985235Y-160093414D01*
X122985218Y-160093405D01*
X122691729Y-159952068D01*
X122691719Y-159952063D01*
X122458043Y-159870297D01*
X122384227Y-159844468D01*
X122384222Y-159844467D01*
X122384210Y-159844463D01*
X122066627Y-159771978D01*
X122066622Y-159771977D01*
X122066617Y-159771976D01*
X122066609Y-159771975D01*
X122066596Y-159771973D01*
X121742894Y-159735500D01*
X121742889Y-159735500D01*
X121417111Y-159735500D01*
X121417105Y-159735500D01*
X121093403Y-159771973D01*
X121093387Y-159771975D01*
X121093383Y-159771976D01*
X121093379Y-159771976D01*
X121093372Y-159771978D01*
X120775789Y-159844463D01*
X120775770Y-159844469D01*
X120468280Y-159952063D01*
X120468270Y-159952068D01*
X120174781Y-160093405D01*
X120174764Y-160093414D01*
X119898919Y-160266738D01*
X119644223Y-160469851D01*
X119644212Y-160469861D01*
X119413861Y-160700212D01*
X119413851Y-160700223D01*
X119210738Y-160954919D01*
X119037414Y-161230764D01*
X119037405Y-161230781D01*
X118896068Y-161524270D01*
X118896063Y-161524280D01*
X118788469Y-161831770D01*
X118788463Y-161831789D01*
X118715978Y-162149372D01*
X118715973Y-162149403D01*
X118679500Y-162473105D01*
X118679500Y-162798894D01*
X63438499Y-162798894D01*
X63438500Y-162798889D01*
X63438500Y-162473111D01*
X63402024Y-162149383D01*
X63329532Y-161831773D01*
X63221935Y-161524278D01*
X63080585Y-161230763D01*
X62907261Y-160954919D01*
X62704143Y-160700217D01*
X62473783Y-160469857D01*
X62473779Y-160469854D01*
X62473776Y-160469851D01*
X62219080Y-160266738D01*
X61943235Y-160093414D01*
X61943218Y-160093405D01*
X61649729Y-159952068D01*
X61649719Y-159952063D01*
X61416043Y-159870297D01*
X61342227Y-159844468D01*
X61342222Y-159844467D01*
X61342210Y-159844463D01*
X61024627Y-159771978D01*
X61024622Y-159771977D01*
X61024617Y-159771976D01*
X61024609Y-159771975D01*
X61024596Y-159771973D01*
X60700894Y-159735500D01*
X60700889Y-159735500D01*
X60375111Y-159735500D01*
X60375105Y-159735500D01*
X60051403Y-159771973D01*
X60051387Y-159771975D01*
X60051383Y-159771976D01*
X60051379Y-159771976D01*
X60051372Y-159771978D01*
X59733789Y-159844463D01*
X59733770Y-159844469D01*
X59426280Y-159952063D01*
X59426270Y-159952068D01*
X59132781Y-160093405D01*
X59132764Y-160093414D01*
X58856919Y-160266738D01*
X58602223Y-160469851D01*
X58602212Y-160469861D01*
X58371861Y-160700212D01*
X58371851Y-160700223D01*
X58168738Y-160954919D01*
X57995414Y-161230764D01*
X57995405Y-161230781D01*
X57854068Y-161524270D01*
X57854063Y-161524280D01*
X57746469Y-161831770D01*
X57746463Y-161831789D01*
X57673978Y-162149372D01*
X57673973Y-162149403D01*
X57637500Y-162473105D01*
X57637500Y-162798894D01*
X55110500Y-162798894D01*
X55110500Y-128583754D01*
X64799500Y-128583754D01*
X64811131Y-128642228D01*
X64811133Y-128642232D01*
X64855447Y-128708551D01*
X64855448Y-128708552D01*
X64921767Y-128752866D01*
X64921771Y-128752868D01*
X64980245Y-128764499D01*
X64980248Y-128764499D01*
X64980252Y-128764500D01*
X64980256Y-128764500D01*
X67019744Y-128764500D01*
X67019748Y-128764500D01*
X67019752Y-128764499D01*
X67019754Y-128764499D01*
X67078228Y-128752868D01*
X67078229Y-128752867D01*
X67078231Y-128752867D01*
X67144552Y-128708552D01*
X67188867Y-128642231D01*
X67188869Y-128642225D01*
X67200499Y-128583754D01*
X67200500Y-128583744D01*
X67200500Y-126544255D01*
X67200499Y-126544245D01*
X67188868Y-126485774D01*
X67188867Y-126485773D01*
X67188867Y-126485769D01*
X67188864Y-126485764D01*
X67188535Y-126484969D01*
X67153407Y-126347351D01*
X67158474Y-126205411D01*
X67188535Y-126103031D01*
X67188865Y-126102233D01*
X67188867Y-126102231D01*
X67188867Y-126102228D01*
X67207679Y-126056816D01*
X67208455Y-126057137D01*
X67231355Y-125992220D01*
X67314425Y-125877016D01*
X67426587Y-125789882D01*
X67558753Y-125737877D01*
X67673521Y-125724500D01*
X71187151Y-125724500D01*
X71327736Y-125744713D01*
X71456931Y-125803714D01*
X71539997Y-125870654D01*
X72813346Y-127144003D01*
X72898462Y-127257704D01*
X72948096Y-127390779D01*
X72959500Y-127496849D01*
X72959500Y-130136925D01*
X72939287Y-130277510D01*
X72880286Y-130406705D01*
X72787276Y-130514044D01*
X72667792Y-130590831D01*
X72531515Y-130630846D01*
X72389485Y-130630846D01*
X72253208Y-130590831D01*
X72133724Y-130514044D01*
X72040714Y-130406705D01*
X72020422Y-130372154D01*
X71955910Y-130251462D01*
X71830883Y-130099116D01*
X71693708Y-129986540D01*
X71678538Y-129974090D01*
X71678536Y-129974089D01*
X71678535Y-129974088D01*
X71504731Y-129881187D01*
X71504727Y-129881185D01*
X71316133Y-129823976D01*
X71120001Y-129804659D01*
X71119999Y-129804659D01*
X70923866Y-129823976D01*
X70735272Y-129881185D01*
X70735268Y-129881187D01*
X70561464Y-129974088D01*
X70534482Y-129996232D01*
X70412986Y-130069793D01*
X70275687Y-130106145D01*
X70217920Y-130109500D01*
X68511005Y-130109500D01*
X68457165Y-130120209D01*
X68402591Y-130131065D01*
X68375671Y-130136420D01*
X68375669Y-130136420D01*
X68375668Y-130136421D01*
X68344739Y-130149232D01*
X68322866Y-130158292D01*
X68322864Y-130158293D01*
X68322863Y-130158292D01*
X68248196Y-130189221D01*
X68248188Y-130189225D01*
X68229964Y-130201402D01*
X68211740Y-130213580D01*
X68155046Y-130251462D01*
X68133454Y-130265889D01*
X68133450Y-130265892D01*
X65495890Y-132903451D01*
X65495887Y-132903455D01*
X65447541Y-132975811D01*
X65419226Y-133018186D01*
X65419224Y-133018190D01*
X65366420Y-133145671D01*
X65366419Y-133145674D01*
X65339500Y-133281008D01*
X65339500Y-155643991D01*
X65339499Y-155643991D01*
X65366420Y-155779327D01*
X65366423Y-155779336D01*
X65419221Y-155906804D01*
X65419226Y-155906813D01*
X65495884Y-156021541D01*
X65495888Y-156021546D01*
X69950886Y-160476542D01*
X70048456Y-160574112D01*
X70048463Y-160574118D01*
X70163185Y-160650773D01*
X70163189Y-160650775D01*
X70218938Y-160673867D01*
X70237864Y-160681706D01*
X70237866Y-160681707D01*
X70290671Y-160703580D01*
X70317568Y-160708929D01*
X70317591Y-160708937D01*
X70317591Y-160708934D01*
X70426007Y-160730500D01*
X77202672Y-160730500D01*
X77343257Y-160750713D01*
X77472452Y-160809714D01*
X77579791Y-160902724D01*
X77622081Y-160968530D01*
X77623826Y-160967365D01*
X77695447Y-161074551D01*
X77695448Y-161074552D01*
X77761767Y-161118866D01*
X77761771Y-161118868D01*
X77820245Y-161130499D01*
X77820248Y-161130499D01*
X77820252Y-161130500D01*
X77820256Y-161130500D01*
X79659744Y-161130500D01*
X79659748Y-161130500D01*
X79659752Y-161130499D01*
X79659754Y-161130499D01*
X79718228Y-161118868D01*
X79718229Y-161118867D01*
X79718231Y-161118867D01*
X79784552Y-161074552D01*
X79828867Y-161008231D01*
X79839472Y-160954919D01*
X79840499Y-160949754D01*
X79840500Y-160949744D01*
X79840500Y-159110255D01*
X79840499Y-159110245D01*
X79828868Y-159051771D01*
X79828866Y-159051767D01*
X79784552Y-158985448D01*
X79784551Y-158985447D01*
X79718232Y-158941133D01*
X79718228Y-158941131D01*
X79659754Y-158929500D01*
X79659748Y-158929500D01*
X77820252Y-158929500D01*
X77820245Y-158929500D01*
X77761771Y-158941131D01*
X77761767Y-158941133D01*
X77695448Y-158985447D01*
X77695447Y-158985448D01*
X77623826Y-159092635D01*
X77622129Y-159091501D01*
X77591218Y-159143602D01*
X77487268Y-159240386D01*
X77360262Y-159303962D01*
X77220488Y-159329182D01*
X77202672Y-159329500D01*
X70991848Y-159329500D01*
X70851263Y-159309287D01*
X70722068Y-159250286D01*
X70639002Y-159183346D01*
X66886654Y-155430997D01*
X66801538Y-155317296D01*
X66751904Y-155184221D01*
X66740500Y-155078151D01*
X66740500Y-133846848D01*
X66760713Y-133706263D01*
X66819714Y-133577068D01*
X66886654Y-133494002D01*
X68724002Y-131656654D01*
X68837703Y-131571538D01*
X68970778Y-131521904D01*
X69076848Y-131510500D01*
X70217920Y-131510500D01*
X70358505Y-131530713D01*
X70487700Y-131589714D01*
X70534482Y-131623768D01*
X70561462Y-131645910D01*
X70561464Y-131645911D01*
X70735268Y-131738812D01*
X70735272Y-131738814D01*
X70817392Y-131763724D01*
X70923868Y-131796024D01*
X71098571Y-131813230D01*
X71119999Y-131815341D01*
X71120000Y-131815341D01*
X71120001Y-131815341D01*
X71139318Y-131813438D01*
X71316132Y-131796024D01*
X71504727Y-131738814D01*
X71678538Y-131645910D01*
X71830883Y-131520883D01*
X71955910Y-131368538D01*
X71955914Y-131368531D01*
X72020422Y-131247847D01*
X72104519Y-131133391D01*
X72217456Y-131047264D01*
X72350083Y-130996444D01*
X72491655Y-130985048D01*
X72630703Y-131013999D01*
X72755963Y-131080951D01*
X72857286Y-131180482D01*
X72926463Y-131304526D01*
X72957891Y-131443036D01*
X72959500Y-131483074D01*
X72959500Y-133946925D01*
X72939287Y-134087510D01*
X72880286Y-134216705D01*
X72787276Y-134324044D01*
X72667792Y-134400831D01*
X72531515Y-134440846D01*
X72389485Y-134440846D01*
X72253208Y-134400831D01*
X72133724Y-134324044D01*
X72040714Y-134216705D01*
X72020422Y-134182154D01*
X71955910Y-134061462D01*
X71830883Y-133909116D01*
X71705518Y-133806232D01*
X71678538Y-133784090D01*
X71678536Y-133784089D01*
X71678535Y-133784088D01*
X71504731Y-133691187D01*
X71504727Y-133691185D01*
X71316133Y-133633976D01*
X71120001Y-133614659D01*
X71119999Y-133614659D01*
X70923866Y-133633976D01*
X70735272Y-133691185D01*
X70735268Y-133691187D01*
X70561464Y-133784088D01*
X70534482Y-133806232D01*
X70412986Y-133879793D01*
X70275687Y-133916145D01*
X70217920Y-133919500D01*
X69781005Y-133919500D01*
X69732935Y-133929062D01*
X69672591Y-133941065D01*
X69659131Y-133943742D01*
X69645674Y-133946419D01*
X69645666Y-133946422D01*
X69518195Y-133999221D01*
X69518186Y-133999226D01*
X69403458Y-134075884D01*
X69403453Y-134075888D01*
X68035891Y-135443450D01*
X68035890Y-135443452D01*
X68035887Y-135443455D01*
X68035886Y-135443457D01*
X67965489Y-135548814D01*
X67965488Y-135548815D01*
X67959227Y-135558185D01*
X67959225Y-135558187D01*
X67959225Y-135558189D01*
X67939412Y-135606023D01*
X67906420Y-135685671D01*
X67906419Y-135685674D01*
X67879500Y-135821008D01*
X67879500Y-149928991D01*
X67879499Y-149928991D01*
X67906420Y-150064327D01*
X67906423Y-150064336D01*
X67959221Y-150191804D01*
X67959226Y-150191813D01*
X68035884Y-150306541D01*
X68035888Y-150306546D01*
X69873346Y-152144002D01*
X69958462Y-152257703D01*
X70008096Y-152390778D01*
X70019500Y-152496848D01*
X70019500Y-153319754D01*
X70031131Y-153378228D01*
X70031133Y-153378232D01*
X70075447Y-153444551D01*
X70075448Y-153444552D01*
X70141767Y-153488866D01*
X70141771Y-153488868D01*
X70200245Y-153500499D01*
X70200248Y-153500499D01*
X70200252Y-153500500D01*
X70200256Y-153500500D01*
X72039744Y-153500500D01*
X72039748Y-153500500D01*
X72039752Y-153500499D01*
X72039754Y-153500499D01*
X72098228Y-153488868D01*
X72098229Y-153488867D01*
X72098231Y-153488867D01*
X72164552Y-153444552D01*
X72208867Y-153378231D01*
X72220500Y-153319748D01*
X72220500Y-151480252D01*
X72220499Y-151480245D01*
X72208868Y-151421771D01*
X72208866Y-151421767D01*
X72164552Y-151355448D01*
X72164551Y-151355447D01*
X72098232Y-151311133D01*
X72098228Y-151311131D01*
X72039754Y-151299500D01*
X72039748Y-151299500D01*
X71216848Y-151299500D01*
X71076263Y-151279287D01*
X70947068Y-151220286D01*
X70864002Y-151153346D01*
X69426654Y-149715997D01*
X69341538Y-149602296D01*
X69291904Y-149469221D01*
X69280500Y-149363151D01*
X69280500Y-146226947D01*
X69300713Y-146086362D01*
X69359714Y-145957167D01*
X69452724Y-145849828D01*
X69572208Y-145773041D01*
X69708485Y-145733026D01*
X69850515Y-145733026D01*
X69986792Y-145773041D01*
X70056736Y-145812048D01*
X70075447Y-145824550D01*
X70075448Y-145824552D01*
X70113276Y-145849828D01*
X70141769Y-145868867D01*
X70141771Y-145868868D01*
X70200245Y-145880499D01*
X70200248Y-145880499D01*
X70200252Y-145880500D01*
X70200256Y-145880500D01*
X72039744Y-145880500D01*
X72039748Y-145880500D01*
X72039752Y-145880499D01*
X72039754Y-145880499D01*
X72098228Y-145868868D01*
X72098229Y-145868867D01*
X72098231Y-145868867D01*
X72164552Y-145824552D01*
X72164552Y-145824550D01*
X72183264Y-145812048D01*
X72311385Y-145750748D01*
X72451586Y-145728027D01*
X72592509Y-145745725D01*
X72722738Y-145802409D01*
X72831722Y-145893487D01*
X72910631Y-146011580D01*
X72953074Y-146147120D01*
X72959500Y-146226947D01*
X72959500Y-147388991D01*
X72959499Y-147388991D01*
X72972689Y-147455298D01*
X72983262Y-147508454D01*
X72986420Y-147524327D01*
X72986423Y-147524336D01*
X73039221Y-147651804D01*
X73039226Y-147651813D01*
X73115884Y-147766541D01*
X73115888Y-147766546D01*
X82103453Y-156754111D01*
X82103457Y-156754114D01*
X82218189Y-156830775D01*
X82218191Y-156830775D01*
X82218195Y-156830778D01*
X82301583Y-156865317D01*
X82345672Y-156883580D01*
X82481006Y-156910500D01*
X82481007Y-156910500D01*
X83416479Y-156910500D01*
X83557064Y-156930713D01*
X83686259Y-156989714D01*
X83793598Y-157082724D01*
X83870385Y-157202208D01*
X83887665Y-157255718D01*
X83901133Y-157288232D01*
X83945447Y-157354551D01*
X83945448Y-157354552D01*
X84011767Y-157398866D01*
X84011771Y-157398868D01*
X84070245Y-157410499D01*
X84070248Y-157410499D01*
X84070252Y-157410500D01*
X84070256Y-157410500D01*
X86109744Y-157410500D01*
X86109748Y-157410500D01*
X86109752Y-157410499D01*
X86109754Y-157410499D01*
X86168228Y-157398868D01*
X86168229Y-157398867D01*
X86168231Y-157398867D01*
X86234552Y-157354552D01*
X86278867Y-157288231D01*
X86285335Y-157255718D01*
X86290499Y-157229754D01*
X86290500Y-157229744D01*
X86290500Y-155190255D01*
X86290499Y-155190245D01*
X86278868Y-155131774D01*
X86278867Y-155131773D01*
X86278867Y-155131769D01*
X86278864Y-155131764D01*
X86278535Y-155130969D01*
X86243407Y-154993351D01*
X86248474Y-154851411D01*
X86278535Y-154749031D01*
X86278863Y-154748236D01*
X86278867Y-154748231D01*
X86290500Y-154689748D01*
X86290500Y-152650252D01*
X86278867Y-152591769D01*
X86278864Y-152591764D01*
X86278535Y-152590969D01*
X86243407Y-152453351D01*
X86248474Y-152311411D01*
X86278535Y-152209031D01*
X86278863Y-152208236D01*
X86278867Y-152208231D01*
X86290500Y-152149748D01*
X86290500Y-150110252D01*
X86278867Y-150051769D01*
X86278864Y-150051764D01*
X86278535Y-150050969D01*
X86243407Y-149913351D01*
X86248474Y-149771411D01*
X86278535Y-149669031D01*
X86278863Y-149668236D01*
X86278867Y-149668231D01*
X86290500Y-149609748D01*
X86290500Y-148175849D01*
X86310713Y-148035264D01*
X86369714Y-147906069D01*
X86462724Y-147798730D01*
X86582208Y-147721943D01*
X86718485Y-147681928D01*
X86860515Y-147681928D01*
X86996792Y-147721943D01*
X87116276Y-147798730D01*
X87142346Y-147823003D01*
X87418346Y-148099003D01*
X87503462Y-148212704D01*
X87553096Y-148345779D01*
X87564500Y-148451849D01*
X87564500Y-157548991D01*
X87564499Y-157548991D01*
X87591420Y-157684327D01*
X87591423Y-157684336D01*
X87644221Y-157811804D01*
X87644226Y-157811813D01*
X87720884Y-157926541D01*
X87720888Y-157926546D01*
X88723346Y-158929003D01*
X88808462Y-159042704D01*
X88858096Y-159175779D01*
X88869500Y-159281849D01*
X88869500Y-160504754D01*
X88881131Y-160563228D01*
X88881133Y-160563232D01*
X88925447Y-160629551D01*
X88925448Y-160629552D01*
X88991767Y-160673866D01*
X88991771Y-160673868D01*
X89050245Y-160685499D01*
X89050248Y-160685499D01*
X89050252Y-160685500D01*
X89050256Y-160685500D01*
X91289744Y-160685500D01*
X91289748Y-160685500D01*
X91289752Y-160685499D01*
X91289754Y-160685499D01*
X91348228Y-160673868D01*
X91348229Y-160673867D01*
X91348231Y-160673867D01*
X91414552Y-160629552D01*
X91458867Y-160563231D01*
X91470500Y-160504748D01*
X91470500Y-158265252D01*
X91470499Y-158265245D01*
X91458868Y-158206771D01*
X91458866Y-158206767D01*
X91414552Y-158140448D01*
X91414551Y-158140447D01*
X91348232Y-158096133D01*
X91348228Y-158096131D01*
X91289754Y-158084500D01*
X91289748Y-158084500D01*
X90066849Y-158084500D01*
X89926264Y-158064287D01*
X89797069Y-158005286D01*
X89714003Y-157938346D01*
X89111654Y-157335997D01*
X89026538Y-157222296D01*
X88976904Y-157089221D01*
X88965500Y-156983151D01*
X88965500Y-154620000D01*
X90434659Y-154620000D01*
X90453976Y-154816133D01*
X90511185Y-155004727D01*
X90511187Y-155004731D01*
X90579091Y-155131769D01*
X90604090Y-155178538D01*
X90613706Y-155190255D01*
X90729116Y-155330883D01*
X90764848Y-155360207D01*
X90881462Y-155455910D01*
X90881464Y-155455911D01*
X91055268Y-155548812D01*
X91055272Y-155548814D01*
X91137392Y-155573724D01*
X91243868Y-155606024D01*
X91418571Y-155623230D01*
X91439999Y-155625341D01*
X91440000Y-155625341D01*
X91440001Y-155625341D01*
X91459318Y-155623438D01*
X91636132Y-155606024D01*
X91824727Y-155548814D01*
X91998538Y-155455910D01*
X92025518Y-155433768D01*
X92147014Y-155360207D01*
X92284313Y-155323855D01*
X92342080Y-155320500D01*
X93077920Y-155320500D01*
X93218505Y-155340713D01*
X93347700Y-155399714D01*
X93394482Y-155433768D01*
X93421462Y-155455910D01*
X93421464Y-155455911D01*
X93595268Y-155548812D01*
X93595272Y-155548814D01*
X93677392Y-155573724D01*
X93783868Y-155606024D01*
X93958571Y-155623230D01*
X93979999Y-155625341D01*
X93980000Y-155625341D01*
X93980001Y-155625341D01*
X93999318Y-155623438D01*
X94176132Y-155606024D01*
X94364727Y-155548814D01*
X94538538Y-155455910D01*
X94565518Y-155433768D01*
X94687014Y-155360207D01*
X94824313Y-155323855D01*
X94882080Y-155320500D01*
X95617920Y-155320500D01*
X95758505Y-155340713D01*
X95887700Y-155399714D01*
X95934482Y-155433768D01*
X95961462Y-155455910D01*
X95961464Y-155455911D01*
X96135268Y-155548812D01*
X96135272Y-155548814D01*
X96217392Y-155573724D01*
X96323868Y-155606024D01*
X96498571Y-155623230D01*
X96519999Y-155625341D01*
X96520000Y-155625341D01*
X96520001Y-155625341D01*
X96539318Y-155623438D01*
X96716132Y-155606024D01*
X96904727Y-155548814D01*
X97078538Y-155455910D01*
X97105518Y-155433768D01*
X97227014Y-155360207D01*
X97364313Y-155323855D01*
X97422080Y-155320500D01*
X98157920Y-155320500D01*
X98298505Y-155340713D01*
X98427700Y-155399714D01*
X98474482Y-155433768D01*
X98501462Y-155455910D01*
X98501464Y-155455911D01*
X98675268Y-155548812D01*
X98675272Y-155548814D01*
X98757392Y-155573724D01*
X98863868Y-155606024D01*
X99038571Y-155623230D01*
X99059999Y-155625341D01*
X99060000Y-155625341D01*
X99060001Y-155625341D01*
X99079318Y-155623438D01*
X99256132Y-155606024D01*
X99444727Y-155548814D01*
X99618538Y-155455910D01*
X99645518Y-155433768D01*
X99767014Y-155360207D01*
X99904313Y-155323855D01*
X99962080Y-155320500D01*
X100697920Y-155320500D01*
X100838505Y-155340713D01*
X100967700Y-155399714D01*
X101014482Y-155433768D01*
X101041462Y-155455910D01*
X101041464Y-155455911D01*
X101215268Y-155548812D01*
X101215272Y-155548814D01*
X101297392Y-155573724D01*
X101403868Y-155606024D01*
X101578571Y-155623230D01*
X101599999Y-155625341D01*
X101600000Y-155625341D01*
X101600001Y-155625341D01*
X101619318Y-155623438D01*
X101796132Y-155606024D01*
X101984727Y-155548814D01*
X102158538Y-155455910D01*
X102185518Y-155433768D01*
X102307014Y-155360207D01*
X102444313Y-155323855D01*
X102502080Y-155320500D01*
X103237920Y-155320500D01*
X103378505Y-155340713D01*
X103507700Y-155399714D01*
X103554482Y-155433768D01*
X103581462Y-155455910D01*
X103581464Y-155455911D01*
X103755268Y-155548812D01*
X103755272Y-155548814D01*
X103837392Y-155573724D01*
X103943868Y-155606024D01*
X104118571Y-155623230D01*
X104139999Y-155625341D01*
X104140000Y-155625341D01*
X104140001Y-155625341D01*
X104159318Y-155623438D01*
X104336132Y-155606024D01*
X104524727Y-155548814D01*
X104698538Y-155455910D01*
X104725518Y-155433768D01*
X104847014Y-155360207D01*
X104984313Y-155323855D01*
X105042080Y-155320500D01*
X105777920Y-155320500D01*
X105918505Y-155340713D01*
X106047700Y-155399714D01*
X106094482Y-155433768D01*
X106121462Y-155455910D01*
X106121464Y-155455911D01*
X106295268Y-155548812D01*
X106295272Y-155548814D01*
X106377392Y-155573724D01*
X106483868Y-155606024D01*
X106658571Y-155623230D01*
X106679999Y-155625341D01*
X106680000Y-155625341D01*
X106680001Y-155625341D01*
X106699318Y-155623438D01*
X106876132Y-155606024D01*
X107064727Y-155548814D01*
X107238538Y-155455910D01*
X107265518Y-155433768D01*
X107387014Y-155360207D01*
X107524313Y-155323855D01*
X107582080Y-155320500D01*
X108317920Y-155320500D01*
X108458505Y-155340713D01*
X108587700Y-155399714D01*
X108634482Y-155433768D01*
X108661462Y-155455910D01*
X108661464Y-155455911D01*
X108835268Y-155548812D01*
X108835272Y-155548814D01*
X108917392Y-155573724D01*
X109023868Y-155606024D01*
X109198571Y-155623230D01*
X109219999Y-155625341D01*
X109220000Y-155625341D01*
X109220001Y-155625341D01*
X109239318Y-155623438D01*
X109416132Y-155606024D01*
X109604727Y-155548814D01*
X109778538Y-155455910D01*
X109805518Y-155433768D01*
X109927014Y-155360207D01*
X110064313Y-155323855D01*
X110122080Y-155320500D01*
X110857920Y-155320500D01*
X110998505Y-155340713D01*
X111127700Y-155399714D01*
X111174482Y-155433768D01*
X111201462Y-155455910D01*
X111201464Y-155455911D01*
X111375268Y-155548812D01*
X111375272Y-155548814D01*
X111457392Y-155573724D01*
X111563868Y-155606024D01*
X111738571Y-155623230D01*
X111759999Y-155625341D01*
X111760000Y-155625341D01*
X111760001Y-155625341D01*
X111779318Y-155623438D01*
X111956132Y-155606024D01*
X112144727Y-155548814D01*
X112318538Y-155455910D01*
X112345518Y-155433768D01*
X112467014Y-155360207D01*
X112604313Y-155323855D01*
X112662080Y-155320500D01*
X113397920Y-155320500D01*
X113538505Y-155340713D01*
X113667700Y-155399714D01*
X113714482Y-155433768D01*
X113741462Y-155455910D01*
X113741464Y-155455911D01*
X113915268Y-155548812D01*
X113915272Y-155548814D01*
X113997392Y-155573724D01*
X114103868Y-155606024D01*
X114278571Y-155623230D01*
X114299999Y-155625341D01*
X114300000Y-155625341D01*
X114300001Y-155625341D01*
X114319318Y-155623438D01*
X114496132Y-155606024D01*
X114684727Y-155548814D01*
X114858538Y-155455910D01*
X115010883Y-155330883D01*
X115135910Y-155178538D01*
X115228814Y-155004727D01*
X115286024Y-154816132D01*
X115305341Y-154620000D01*
X115286024Y-154423868D01*
X115253724Y-154317392D01*
X115228814Y-154235272D01*
X115228812Y-154235268D01*
X115135911Y-154061464D01*
X115135910Y-154061462D01*
X115081064Y-153994632D01*
X115010883Y-153909116D01*
X114885518Y-153806232D01*
X114858538Y-153784090D01*
X114858536Y-153784089D01*
X114858535Y-153784088D01*
X114684731Y-153691187D01*
X114684727Y-153691185D01*
X114496133Y-153633976D01*
X114300001Y-153614659D01*
X114299999Y-153614659D01*
X114103866Y-153633976D01*
X113915272Y-153691185D01*
X113915268Y-153691187D01*
X113741464Y-153784088D01*
X113714482Y-153806232D01*
X113592986Y-153879793D01*
X113455687Y-153916145D01*
X113397920Y-153919500D01*
X112662080Y-153919500D01*
X112521495Y-153899287D01*
X112392300Y-153840286D01*
X112345518Y-153806232D01*
X112343572Y-153804635D01*
X112318538Y-153784090D01*
X112318536Y-153784089D01*
X112318535Y-153784088D01*
X112144731Y-153691187D01*
X112144727Y-153691185D01*
X111956133Y-153633976D01*
X111760001Y-153614659D01*
X111759999Y-153614659D01*
X111563866Y-153633976D01*
X111375272Y-153691185D01*
X111375268Y-153691187D01*
X111201464Y-153784088D01*
X111174482Y-153806232D01*
X111052986Y-153879793D01*
X110915687Y-153916145D01*
X110857920Y-153919500D01*
X110122080Y-153919500D01*
X109981495Y-153899287D01*
X109852300Y-153840286D01*
X109805518Y-153806232D01*
X109803572Y-153804635D01*
X109778538Y-153784090D01*
X109778536Y-153784089D01*
X109778535Y-153784088D01*
X109604731Y-153691187D01*
X109604727Y-153691185D01*
X109416133Y-153633976D01*
X109220001Y-153614659D01*
X109219999Y-153614659D01*
X109023866Y-153633976D01*
X108835272Y-153691185D01*
X108835268Y-153691187D01*
X108661464Y-153784088D01*
X108634482Y-153806232D01*
X108512986Y-153879793D01*
X108375687Y-153916145D01*
X108317920Y-153919500D01*
X107582080Y-153919500D01*
X107441495Y-153899287D01*
X107312300Y-153840286D01*
X107265518Y-153806232D01*
X107263572Y-153804635D01*
X107238538Y-153784090D01*
X107238536Y-153784089D01*
X107238535Y-153784088D01*
X107064731Y-153691187D01*
X107064727Y-153691185D01*
X106876133Y-153633976D01*
X106680001Y-153614659D01*
X106679999Y-153614659D01*
X106483866Y-153633976D01*
X106295272Y-153691185D01*
X106295268Y-153691187D01*
X106121464Y-153784088D01*
X106094482Y-153806232D01*
X105972986Y-153879793D01*
X105835687Y-153916145D01*
X105777920Y-153919500D01*
X105042080Y-153919500D01*
X104901495Y-153899287D01*
X104772300Y-153840286D01*
X104725518Y-153806232D01*
X104723572Y-153804635D01*
X104698538Y-153784090D01*
X104698536Y-153784089D01*
X104698535Y-153784088D01*
X104524731Y-153691187D01*
X104524727Y-153691185D01*
X104336133Y-153633976D01*
X104140001Y-153614659D01*
X104139999Y-153614659D01*
X103943866Y-153633976D01*
X103755272Y-153691185D01*
X103755268Y-153691187D01*
X103581464Y-153784088D01*
X103554482Y-153806232D01*
X103432986Y-153879793D01*
X103295687Y-153916145D01*
X103237920Y-153919500D01*
X102502080Y-153919500D01*
X102361495Y-153899287D01*
X102232300Y-153840286D01*
X102185518Y-153806232D01*
X102183572Y-153804635D01*
X102158538Y-153784090D01*
X102158536Y-153784089D01*
X102158535Y-153784088D01*
X101984731Y-153691187D01*
X101984727Y-153691185D01*
X101796133Y-153633976D01*
X101600001Y-153614659D01*
X101599999Y-153614659D01*
X101403866Y-153633976D01*
X101215272Y-153691185D01*
X101215268Y-153691187D01*
X101041464Y-153784088D01*
X101014482Y-153806232D01*
X100892986Y-153879793D01*
X100755687Y-153916145D01*
X100697920Y-153919500D01*
X99962080Y-153919500D01*
X99821495Y-153899287D01*
X99692300Y-153840286D01*
X99645518Y-153806232D01*
X99643572Y-153804635D01*
X99618538Y-153784090D01*
X99618536Y-153784089D01*
X99618535Y-153784088D01*
X99444731Y-153691187D01*
X99444727Y-153691185D01*
X99256133Y-153633976D01*
X99060001Y-153614659D01*
X99059999Y-153614659D01*
X98863866Y-153633976D01*
X98675272Y-153691185D01*
X98675268Y-153691187D01*
X98501464Y-153784088D01*
X98474482Y-153806232D01*
X98352986Y-153879793D01*
X98215687Y-153916145D01*
X98157920Y-153919500D01*
X97422080Y-153919500D01*
X97281495Y-153899287D01*
X97152300Y-153840286D01*
X97105518Y-153806232D01*
X97103572Y-153804635D01*
X97078538Y-153784090D01*
X97078536Y-153784089D01*
X97078535Y-153784088D01*
X96904731Y-153691187D01*
X96904727Y-153691185D01*
X96716133Y-153633976D01*
X96520001Y-153614659D01*
X96519999Y-153614659D01*
X96323866Y-153633976D01*
X96135272Y-153691185D01*
X96135268Y-153691187D01*
X95961464Y-153784088D01*
X95934482Y-153806232D01*
X95812986Y-153879793D01*
X95675687Y-153916145D01*
X95617920Y-153919500D01*
X94882080Y-153919500D01*
X94741495Y-153899287D01*
X94612300Y-153840286D01*
X94565518Y-153806232D01*
X94563572Y-153804635D01*
X94538538Y-153784090D01*
X94538536Y-153784089D01*
X94538535Y-153784088D01*
X94364731Y-153691187D01*
X94364727Y-153691185D01*
X94176133Y-153633976D01*
X93980001Y-153614659D01*
X93979999Y-153614659D01*
X93783866Y-153633976D01*
X93595272Y-153691185D01*
X93595268Y-153691187D01*
X93421464Y-153784088D01*
X93394482Y-153806232D01*
X93272986Y-153879793D01*
X93135687Y-153916145D01*
X93077920Y-153919500D01*
X92342080Y-153919500D01*
X92201495Y-153899287D01*
X92072300Y-153840286D01*
X92025518Y-153806232D01*
X92023572Y-153804635D01*
X91998538Y-153784090D01*
X91998536Y-153784089D01*
X91998535Y-153784088D01*
X91824731Y-153691187D01*
X91824727Y-153691185D01*
X91636133Y-153633976D01*
X91440001Y-153614659D01*
X91439999Y-153614659D01*
X91243866Y-153633976D01*
X91055272Y-153691185D01*
X91055268Y-153691187D01*
X90881464Y-153784088D01*
X90729116Y-153909116D01*
X90604088Y-154061464D01*
X90511187Y-154235268D01*
X90511185Y-154235272D01*
X90453976Y-154423866D01*
X90434659Y-154619999D01*
X90434659Y-154620000D01*
X88965500Y-154620000D01*
X88965500Y-147886010D01*
X88965500Y-147886007D01*
X88938580Y-147750672D01*
X88885775Y-147623189D01*
X88850404Y-147570252D01*
X88809114Y-147508457D01*
X88809111Y-147508454D01*
X88809108Y-147508450D01*
X86806546Y-145505888D01*
X86806541Y-145505884D01*
X86691813Y-145429226D01*
X86691807Y-145429223D01*
X86587370Y-145385964D01*
X86465222Y-145313490D01*
X86368440Y-145209539D01*
X86304865Y-145082532D01*
X86288918Y-145022301D01*
X86278867Y-144971769D01*
X86234552Y-144905448D01*
X86234551Y-144905447D01*
X86168232Y-144861133D01*
X86168228Y-144861131D01*
X86109754Y-144849500D01*
X86109748Y-144849500D01*
X84070252Y-144849500D01*
X84070245Y-144849500D01*
X84011771Y-144861131D01*
X84011767Y-144861133D01*
X83945448Y-144905447D01*
X83945447Y-144905448D01*
X83901133Y-144971767D01*
X83901131Y-144971771D01*
X83889500Y-145030245D01*
X83889500Y-147069754D01*
X83901132Y-147128233D01*
X83901467Y-147129040D01*
X83936593Y-147266658D01*
X83931524Y-147408598D01*
X83901467Y-147510960D01*
X83901132Y-147511766D01*
X83889500Y-147570245D01*
X83889500Y-149004151D01*
X83869287Y-149144736D01*
X83810286Y-149273931D01*
X83717276Y-149381270D01*
X83597792Y-149458057D01*
X83461515Y-149498072D01*
X83319485Y-149498072D01*
X83183208Y-149458057D01*
X83063724Y-149381270D01*
X83037654Y-149356997D01*
X79586654Y-145905997D01*
X79501538Y-145792296D01*
X79451904Y-145659221D01*
X79440500Y-145553151D01*
X79440500Y-139103074D01*
X79460713Y-138962489D01*
X79519714Y-138833294D01*
X79612724Y-138725955D01*
X79732208Y-138649168D01*
X79868485Y-138609153D01*
X80010515Y-138609153D01*
X80146792Y-138649168D01*
X80266276Y-138725955D01*
X80359286Y-138833294D01*
X80379578Y-138867847D01*
X80444085Y-138988531D01*
X80444088Y-138988535D01*
X80569116Y-139140883D01*
X80604848Y-139170207D01*
X80721462Y-139265910D01*
X80721464Y-139265911D01*
X80895268Y-139358812D01*
X80895272Y-139358814D01*
X80977392Y-139383724D01*
X81083868Y-139416024D01*
X81258571Y-139433230D01*
X81279999Y-139435341D01*
X81280000Y-139435341D01*
X81280001Y-139435341D01*
X81299318Y-139433438D01*
X81476132Y-139416024D01*
X81664727Y-139358814D01*
X81838538Y-139265910D01*
X81865518Y-139243768D01*
X81987014Y-139170207D01*
X82124313Y-139133855D01*
X82182080Y-139130500D01*
X85158991Y-139130500D01*
X85158994Y-139130500D01*
X85294328Y-139103580D01*
X85421811Y-139050775D01*
X85536543Y-138974114D01*
X88174113Y-136336543D01*
X88250774Y-136221812D01*
X88250775Y-136221811D01*
X88303580Y-136094328D01*
X88330500Y-135958993D01*
X88330500Y-127496849D01*
X88350713Y-127356264D01*
X88409714Y-127227069D01*
X88476654Y-127144003D01*
X110070003Y-105550654D01*
X110183704Y-105465538D01*
X110316779Y-105415904D01*
X110422849Y-105404500D01*
X112586479Y-105404500D01*
X112727064Y-105424713D01*
X112856259Y-105483714D01*
X112963598Y-105576724D01*
X113040385Y-105696208D01*
X113057668Y-105749728D01*
X113071467Y-105783040D01*
X113106593Y-105920658D01*
X113101524Y-106062598D01*
X113071467Y-106164960D01*
X113052324Y-106211175D01*
X113051547Y-106210853D01*
X113028645Y-106275780D01*
X112945575Y-106390984D01*
X112833413Y-106478118D01*
X112701247Y-106530123D01*
X112586479Y-106543500D01*
X111127005Y-106543500D01*
X111073165Y-106554209D01*
X111018591Y-106565065D01*
X111005131Y-106567742D01*
X110991674Y-106570419D01*
X110991666Y-106570422D01*
X110864195Y-106623221D01*
X110864186Y-106623226D01*
X110749458Y-106699884D01*
X110749453Y-106699888D01*
X90895888Y-126553453D01*
X90895884Y-126553458D01*
X90819226Y-126668186D01*
X90819224Y-126668190D01*
X90766420Y-126795671D01*
X90766419Y-126795674D01*
X90739500Y-126931008D01*
X90739500Y-146097919D01*
X90719287Y-146238504D01*
X90660286Y-146367699D01*
X90626235Y-146414477D01*
X90604090Y-146441460D01*
X90604088Y-146441464D01*
X90511187Y-146615268D01*
X90511185Y-146615272D01*
X90453976Y-146803866D01*
X90434659Y-146999999D01*
X90434659Y-147000000D01*
X90453976Y-147196133D01*
X90511185Y-147384727D01*
X90511187Y-147384731D01*
X90594053Y-147539761D01*
X90604090Y-147558538D01*
X90613705Y-147570254D01*
X90729116Y-147710883D01*
X90796942Y-147766546D01*
X90881462Y-147835910D01*
X90881464Y-147835911D01*
X91055268Y-147928812D01*
X91055272Y-147928814D01*
X91107154Y-147944552D01*
X91243868Y-147986024D01*
X91418571Y-148003230D01*
X91439999Y-148005341D01*
X91440000Y-148005341D01*
X91440001Y-148005341D01*
X91459318Y-148003438D01*
X91636132Y-147986024D01*
X91824727Y-147928814D01*
X91998538Y-147835910D01*
X92150883Y-147710883D01*
X92275910Y-147558538D01*
X92275914Y-147558530D01*
X92289535Y-147538148D01*
X92291950Y-147539761D01*
X92354006Y-147455298D01*
X92466940Y-147369167D01*
X92599565Y-147318343D01*
X92741137Y-147306941D01*
X92880187Y-147335887D01*
X93005448Y-147402836D01*
X93106775Y-147502362D01*
X93129981Y-147538471D01*
X93130465Y-147538148D01*
X93144088Y-147558535D01*
X93144090Y-147558538D01*
X93153705Y-147570254D01*
X93269116Y-147710883D01*
X93336942Y-147766546D01*
X93421462Y-147835910D01*
X93421464Y-147835911D01*
X93595268Y-147928812D01*
X93595272Y-147928814D01*
X93647154Y-147944552D01*
X93783868Y-147986024D01*
X93958571Y-148003230D01*
X93979999Y-148005341D01*
X93980000Y-148005341D01*
X93980001Y-148005341D01*
X93999318Y-148003438D01*
X94176132Y-147986024D01*
X94364727Y-147928814D01*
X94538538Y-147835910D01*
X94690883Y-147710883D01*
X94815910Y-147558538D01*
X94815914Y-147558530D01*
X94829535Y-147538148D01*
X94831950Y-147539761D01*
X94894006Y-147455298D01*
X95006940Y-147369167D01*
X95139565Y-147318343D01*
X95281137Y-147306941D01*
X95420187Y-147335887D01*
X95545448Y-147402836D01*
X95646775Y-147502362D01*
X95669981Y-147538471D01*
X95670465Y-147538148D01*
X95684088Y-147558535D01*
X95684090Y-147558538D01*
X95693705Y-147570254D01*
X95809116Y-147710883D01*
X95876942Y-147766546D01*
X95961462Y-147835910D01*
X95961464Y-147835911D01*
X96135268Y-147928812D01*
X96135272Y-147928814D01*
X96187154Y-147944552D01*
X96323868Y-147986024D01*
X96498571Y-148003230D01*
X96519999Y-148005341D01*
X96520000Y-148005341D01*
X96520001Y-148005341D01*
X96539318Y-148003438D01*
X96716132Y-147986024D01*
X96904727Y-147928814D01*
X97078538Y-147835910D01*
X97230883Y-147710883D01*
X97355910Y-147558538D01*
X97355914Y-147558530D01*
X97369535Y-147538148D01*
X97371950Y-147539761D01*
X97434006Y-147455298D01*
X97546940Y-147369167D01*
X97679565Y-147318343D01*
X97821137Y-147306941D01*
X97960187Y-147335887D01*
X98085448Y-147402836D01*
X98186775Y-147502362D01*
X98209981Y-147538471D01*
X98210465Y-147538148D01*
X98224088Y-147558535D01*
X98224090Y-147558538D01*
X98233705Y-147570254D01*
X98349116Y-147710883D01*
X98416942Y-147766546D01*
X98501462Y-147835910D01*
X98501464Y-147835911D01*
X98675268Y-147928812D01*
X98675272Y-147928814D01*
X98727154Y-147944552D01*
X98863868Y-147986024D01*
X99038571Y-148003230D01*
X99059999Y-148005341D01*
X99060000Y-148005341D01*
X99060001Y-148005341D01*
X99079318Y-148003438D01*
X99256132Y-147986024D01*
X99444727Y-147928814D01*
X99618538Y-147835910D01*
X99770883Y-147710883D01*
X99895910Y-147558538D01*
X99895914Y-147558530D01*
X99909535Y-147538148D01*
X99911950Y-147539761D01*
X99974006Y-147455298D01*
X100086940Y-147369167D01*
X100219565Y-147318343D01*
X100361137Y-147306941D01*
X100500187Y-147335887D01*
X100625448Y-147402836D01*
X100726775Y-147502362D01*
X100749981Y-147538471D01*
X100750465Y-147538148D01*
X100764088Y-147558535D01*
X100764090Y-147558538D01*
X100773705Y-147570254D01*
X100889116Y-147710883D01*
X100956942Y-147766546D01*
X101041462Y-147835910D01*
X101041464Y-147835911D01*
X101215268Y-147928812D01*
X101215272Y-147928814D01*
X101267154Y-147944552D01*
X101403868Y-147986024D01*
X101578571Y-148003230D01*
X101599999Y-148005341D01*
X101600000Y-148005341D01*
X101600001Y-148005341D01*
X101619318Y-148003438D01*
X101796132Y-147986024D01*
X101984727Y-147928814D01*
X102158538Y-147835910D01*
X102310883Y-147710883D01*
X102435910Y-147558538D01*
X102435914Y-147558530D01*
X102449535Y-147538148D01*
X102451950Y-147539761D01*
X102514006Y-147455298D01*
X102626940Y-147369167D01*
X102759565Y-147318343D01*
X102901137Y-147306941D01*
X103040187Y-147335887D01*
X103165448Y-147402836D01*
X103266775Y-147502362D01*
X103289981Y-147538471D01*
X103290465Y-147538148D01*
X103304088Y-147558535D01*
X103304090Y-147558538D01*
X103313705Y-147570254D01*
X103429116Y-147710883D01*
X103496942Y-147766546D01*
X103581462Y-147835910D01*
X103581464Y-147835911D01*
X103755268Y-147928812D01*
X103755272Y-147928814D01*
X103807154Y-147944552D01*
X103943868Y-147986024D01*
X104118571Y-148003230D01*
X104139999Y-148005341D01*
X104140000Y-148005341D01*
X104140001Y-148005341D01*
X104159318Y-148003438D01*
X104336132Y-147986024D01*
X104524727Y-147928814D01*
X104698538Y-147835910D01*
X104850883Y-147710883D01*
X104975910Y-147558538D01*
X104975914Y-147558530D01*
X104989535Y-147538148D01*
X104991950Y-147539761D01*
X105054006Y-147455298D01*
X105166940Y-147369167D01*
X105299565Y-147318343D01*
X105441137Y-147306941D01*
X105580187Y-147335887D01*
X105705448Y-147402836D01*
X105806775Y-147502362D01*
X105829981Y-147538471D01*
X105830465Y-147538148D01*
X105844088Y-147558535D01*
X105844090Y-147558538D01*
X105853705Y-147570254D01*
X105969116Y-147710883D01*
X106036942Y-147766546D01*
X106121462Y-147835910D01*
X106121464Y-147835911D01*
X106295268Y-147928812D01*
X106295272Y-147928814D01*
X106347154Y-147944552D01*
X106483868Y-147986024D01*
X106658571Y-148003230D01*
X106679999Y-148005341D01*
X106680000Y-148005341D01*
X106680001Y-148005341D01*
X106699318Y-148003438D01*
X106876132Y-147986024D01*
X107064727Y-147928814D01*
X107238538Y-147835910D01*
X107390883Y-147710883D01*
X107515910Y-147558538D01*
X107515914Y-147558530D01*
X107529535Y-147538148D01*
X107531950Y-147539761D01*
X107594006Y-147455298D01*
X107706940Y-147369167D01*
X107839565Y-147318343D01*
X107981137Y-147306941D01*
X108120187Y-147335887D01*
X108245448Y-147402836D01*
X108346775Y-147502362D01*
X108369981Y-147538471D01*
X108370465Y-147538148D01*
X108384088Y-147558535D01*
X108384090Y-147558538D01*
X108393705Y-147570254D01*
X108509116Y-147710883D01*
X108576942Y-147766546D01*
X108661462Y-147835910D01*
X108661464Y-147835911D01*
X108835268Y-147928812D01*
X108835272Y-147928814D01*
X108887154Y-147944552D01*
X109023868Y-147986024D01*
X109198571Y-148003230D01*
X109219999Y-148005341D01*
X109220000Y-148005341D01*
X109220001Y-148005341D01*
X109239318Y-148003438D01*
X109416132Y-147986024D01*
X109604727Y-147928814D01*
X109778538Y-147835910D01*
X109930883Y-147710883D01*
X110055910Y-147558538D01*
X110055914Y-147558530D01*
X110069535Y-147538148D01*
X110071950Y-147539761D01*
X110134006Y-147455298D01*
X110246940Y-147369167D01*
X110379565Y-147318343D01*
X110521137Y-147306941D01*
X110660187Y-147335887D01*
X110785448Y-147402836D01*
X110886775Y-147502362D01*
X110909981Y-147538471D01*
X110910465Y-147538148D01*
X110924088Y-147558535D01*
X110924090Y-147558538D01*
X110933705Y-147570254D01*
X111049116Y-147710883D01*
X111116942Y-147766546D01*
X111201462Y-147835910D01*
X111201464Y-147835911D01*
X111375268Y-147928812D01*
X111375272Y-147928814D01*
X111427154Y-147944552D01*
X111563868Y-147986024D01*
X111738571Y-148003230D01*
X111759999Y-148005341D01*
X111760000Y-148005341D01*
X111760001Y-148005341D01*
X111779318Y-148003438D01*
X111956132Y-147986024D01*
X112144727Y-147928814D01*
X112318538Y-147835910D01*
X112470883Y-147710883D01*
X112470887Y-147710877D01*
X112487937Y-147693829D01*
X112601636Y-147608712D01*
X112734711Y-147559075D01*
X112876379Y-147548941D01*
X113015164Y-147579130D01*
X113139822Y-147647196D01*
X113240254Y-147747625D01*
X113301802Y-147855706D01*
X113311132Y-147878230D01*
X113355447Y-147944551D01*
X113355448Y-147944552D01*
X113421767Y-147988866D01*
X113421771Y-147988868D01*
X113480245Y-148000499D01*
X113480248Y-148000499D01*
X113480252Y-148000500D01*
X113480256Y-148000500D01*
X115119744Y-148000500D01*
X115119748Y-148000500D01*
X115119752Y-148000499D01*
X115119754Y-148000499D01*
X115178228Y-147988868D01*
X115178229Y-147988867D01*
X115178231Y-147988867D01*
X115244552Y-147944552D01*
X115288867Y-147878231D01*
X115300500Y-147819748D01*
X115300500Y-146180252D01*
X115293910Y-146147120D01*
X115288868Y-146121771D01*
X115288866Y-146121767D01*
X115244552Y-146055448D01*
X115244551Y-146055447D01*
X115222264Y-146040555D01*
X115116603Y-145945642D01*
X115041963Y-145824806D01*
X115004389Y-145687836D01*
X115000500Y-145625656D01*
X115000500Y-134306181D01*
X115020713Y-134165596D01*
X115079714Y-134036401D01*
X115172724Y-133929062D01*
X115292208Y-133852275D01*
X115308541Y-133845165D01*
X115338233Y-133832866D01*
X115392588Y-133796546D01*
X115404552Y-133788552D01*
X115448867Y-133722231D01*
X115452044Y-133706263D01*
X115460499Y-133663754D01*
X115460500Y-133663744D01*
X115460500Y-131624255D01*
X115460499Y-131624245D01*
X115448868Y-131565774D01*
X115448867Y-131565773D01*
X115448867Y-131565769D01*
X115448864Y-131565764D01*
X115448535Y-131564969D01*
X115413407Y-131427351D01*
X115418474Y-131285411D01*
X115448535Y-131183031D01*
X115448863Y-131182236D01*
X115448867Y-131182231D01*
X115460500Y-131123748D01*
X115460500Y-129084252D01*
X115448867Y-129025769D01*
X115448864Y-129025764D01*
X115448535Y-129024969D01*
X115413407Y-128887351D01*
X115418474Y-128745411D01*
X115448535Y-128643031D01*
X115448863Y-128642236D01*
X115448867Y-128642231D01*
X115460500Y-128583748D01*
X115460500Y-126544252D01*
X115448867Y-126485769D01*
X115448864Y-126485764D01*
X115448535Y-126484969D01*
X115413407Y-126347351D01*
X115418474Y-126205411D01*
X115448535Y-126103031D01*
X115448863Y-126102236D01*
X115448867Y-126102231D01*
X115460500Y-126043748D01*
X115460500Y-124004252D01*
X115448867Y-123945769D01*
X115448864Y-123945764D01*
X115448535Y-123944969D01*
X115413407Y-123807351D01*
X115418474Y-123665411D01*
X115448535Y-123563031D01*
X115448863Y-123562236D01*
X115448867Y-123562231D01*
X115460500Y-123503748D01*
X115460500Y-121464252D01*
X115448867Y-121405769D01*
X115448864Y-121405764D01*
X115448535Y-121404969D01*
X115413407Y-121267351D01*
X115418474Y-121125411D01*
X115448535Y-121023031D01*
X115448863Y-121022236D01*
X115448867Y-121022231D01*
X115460500Y-120963748D01*
X115460500Y-118924252D01*
X115448867Y-118865769D01*
X115448864Y-118865764D01*
X115448535Y-118864969D01*
X115413407Y-118727351D01*
X115418474Y-118585411D01*
X115448535Y-118483031D01*
X115448863Y-118482236D01*
X115448867Y-118482231D01*
X115460500Y-118423748D01*
X115460500Y-116384252D01*
X115448867Y-116325769D01*
X115448864Y-116325764D01*
X115448535Y-116324969D01*
X115413407Y-116187351D01*
X115418474Y-116045411D01*
X115448535Y-115943031D01*
X115448863Y-115942236D01*
X115448867Y-115942231D01*
X115460500Y-115883748D01*
X115460500Y-113844252D01*
X115460499Y-113844245D01*
X115448868Y-113785771D01*
X115448866Y-113785767D01*
X115404552Y-113719448D01*
X115404551Y-113719447D01*
X115338232Y-113675133D01*
X115338228Y-113675131D01*
X115279754Y-113663500D01*
X115279748Y-113663500D01*
X113240252Y-113663500D01*
X113240245Y-113663500D01*
X113181771Y-113675131D01*
X113181767Y-113675133D01*
X113115448Y-113719447D01*
X113115447Y-113719448D01*
X113071133Y-113785767D01*
X113052324Y-113831177D01*
X113051547Y-113830855D01*
X113028645Y-113895780D01*
X112945575Y-114010984D01*
X112833413Y-114098118D01*
X112701247Y-114150123D01*
X112586479Y-114163500D01*
X111127005Y-114163500D01*
X111073165Y-114174209D01*
X111018591Y-114185065D01*
X111005131Y-114187742D01*
X110991674Y-114190419D01*
X110991666Y-114190422D01*
X110864195Y-114243221D01*
X110864186Y-114243226D01*
X110749458Y-114319884D01*
X110749453Y-114319888D01*
X95975888Y-129093453D01*
X95975884Y-129093458D01*
X95899226Y-129208186D01*
X95899224Y-129208190D01*
X95846420Y-129335671D01*
X95846419Y-129335674D01*
X95819500Y-129471008D01*
X95819500Y-146097919D01*
X95799287Y-146238504D01*
X95740286Y-146367699D01*
X95706235Y-146414477D01*
X95684090Y-146441460D01*
X95670465Y-146461852D01*
X95668050Y-146460238D01*
X95605980Y-146544715D01*
X95493042Y-146630841D01*
X95360415Y-146681661D01*
X95218843Y-146693056D01*
X95079795Y-146664105D01*
X94954536Y-146597152D01*
X94853213Y-146497621D01*
X94830018Y-146461529D01*
X94829535Y-146461852D01*
X94815909Y-146441460D01*
X94793765Y-146414477D01*
X94720205Y-146292980D01*
X94683854Y-146155681D01*
X94680500Y-146097919D01*
X94680500Y-128766849D01*
X94700713Y-128626264D01*
X94759714Y-128497069D01*
X94826654Y-128414003D01*
X102596157Y-120644500D01*
X112363732Y-110876924D01*
X112477430Y-110791811D01*
X112610505Y-110742177D01*
X112752173Y-110732044D01*
X112890958Y-110762235D01*
X113015615Y-110830303D01*
X113079905Y-110894593D01*
X113080697Y-110893801D01*
X113115448Y-110928552D01*
X113181767Y-110972866D01*
X113181771Y-110972868D01*
X113240245Y-110984499D01*
X113240248Y-110984499D01*
X113240252Y-110984500D01*
X113240256Y-110984500D01*
X115279744Y-110984500D01*
X115279748Y-110984500D01*
X115279752Y-110984499D01*
X115279754Y-110984499D01*
X115338228Y-110972868D01*
X115338229Y-110972867D01*
X115338231Y-110972867D01*
X115404552Y-110928552D01*
X115448867Y-110862231D01*
X115460500Y-110803748D01*
X115460500Y-108764252D01*
X115448867Y-108705769D01*
X115448864Y-108705764D01*
X115448535Y-108704969D01*
X115413407Y-108567351D01*
X115418474Y-108425411D01*
X115448535Y-108323031D01*
X115448863Y-108322236D01*
X115448867Y-108322231D01*
X115460500Y-108263748D01*
X115460500Y-106224252D01*
X115448867Y-106165769D01*
X115448864Y-106165764D01*
X115448535Y-106164969D01*
X115413407Y-106027351D01*
X115418474Y-105885411D01*
X115448535Y-105783031D01*
X115448863Y-105782236D01*
X115448867Y-105782231D01*
X115460500Y-105723748D01*
X115460500Y-103684252D01*
X115448867Y-103625769D01*
X115448864Y-103625764D01*
X115448535Y-103624969D01*
X115413407Y-103487351D01*
X115418474Y-103345411D01*
X115448535Y-103243031D01*
X115448863Y-103242236D01*
X115448867Y-103242231D01*
X115460500Y-103183748D01*
X115460500Y-101144252D01*
X115448867Y-101085769D01*
X115448864Y-101085764D01*
X115448535Y-101084969D01*
X115413407Y-100947351D01*
X115418474Y-100805411D01*
X115448535Y-100703031D01*
X115448863Y-100702236D01*
X115448867Y-100702231D01*
X115460500Y-100643748D01*
X115460500Y-98604252D01*
X115448867Y-98545769D01*
X115448864Y-98545764D01*
X115448535Y-98544969D01*
X115413407Y-98407351D01*
X115418474Y-98265411D01*
X115448535Y-98163031D01*
X115448863Y-98162236D01*
X115448867Y-98162231D01*
X115460500Y-98103748D01*
X115460500Y-96064252D01*
X115448867Y-96005769D01*
X115448864Y-96005764D01*
X115448535Y-96004969D01*
X115413407Y-95867351D01*
X115418474Y-95725411D01*
X115448535Y-95623031D01*
X115448863Y-95622236D01*
X115448867Y-95622231D01*
X115460500Y-95563748D01*
X115460500Y-93524252D01*
X115448867Y-93465769D01*
X115448864Y-93465764D01*
X115448535Y-93464969D01*
X115413407Y-93327351D01*
X115418474Y-93185411D01*
X115448535Y-93083031D01*
X115448863Y-93082236D01*
X115448867Y-93082231D01*
X115460500Y-93023748D01*
X115460500Y-90984252D01*
X115460499Y-90984245D01*
X115448868Y-90925771D01*
X115448866Y-90925767D01*
X115404552Y-90859448D01*
X115404551Y-90859447D01*
X115338232Y-90815133D01*
X115338228Y-90815131D01*
X115279754Y-90803500D01*
X115279748Y-90803500D01*
X113240252Y-90803500D01*
X113240245Y-90803500D01*
X113181771Y-90815131D01*
X113181767Y-90815133D01*
X113115448Y-90859447D01*
X113115447Y-90859448D01*
X113071133Y-90925767D01*
X113071131Y-90925771D01*
X113059500Y-90984245D01*
X113059500Y-93023754D01*
X113071132Y-93082233D01*
X113071467Y-93083040D01*
X113106593Y-93220658D01*
X113101524Y-93362598D01*
X113071467Y-93464960D01*
X113071132Y-93465766D01*
X113059500Y-93524245D01*
X113059500Y-95563754D01*
X113071132Y-95622233D01*
X113071467Y-95623040D01*
X113106593Y-95760658D01*
X113101524Y-95902598D01*
X113071467Y-96004960D01*
X113071132Y-96005766D01*
X113059500Y-96064245D01*
X113059500Y-98103754D01*
X113071132Y-98162233D01*
X113071467Y-98163040D01*
X113106593Y-98300658D01*
X113101524Y-98442598D01*
X113071467Y-98544960D01*
X113052324Y-98591175D01*
X113051547Y-98590853D01*
X113028645Y-98655780D01*
X112945575Y-98770984D01*
X112833413Y-98858118D01*
X112701247Y-98910123D01*
X112586479Y-98923500D01*
X106184994Y-98923500D01*
X106047006Y-98923500D01*
X105911672Y-98950420D01*
X105911663Y-98950423D01*
X105784195Y-99003221D01*
X105784186Y-99003226D01*
X105669458Y-99079884D01*
X105669453Y-99079888D01*
X82005890Y-122743451D01*
X82005887Y-122743455D01*
X81957541Y-122815811D01*
X81929226Y-122858186D01*
X81929224Y-122858190D01*
X81876420Y-122985671D01*
X81876419Y-122985674D01*
X81849500Y-123121008D01*
X81849500Y-129043149D01*
X81829287Y-129183734D01*
X81770286Y-129312929D01*
X81703346Y-129395995D01*
X81422537Y-129676804D01*
X81308836Y-129761920D01*
X81175761Y-129811554D01*
X81118606Y-129820554D01*
X81107358Y-129821662D01*
X81083865Y-129823976D01*
X80895272Y-129881185D01*
X80895268Y-129881187D01*
X80721464Y-129974088D01*
X80569116Y-130099116D01*
X80444089Y-130251462D01*
X80379578Y-130372154D01*
X80295480Y-130486610D01*
X80182543Y-130572736D01*
X80049916Y-130623556D01*
X79908343Y-130634951D01*
X79769295Y-130606000D01*
X79644036Y-130539047D01*
X79542714Y-130439516D01*
X79473536Y-130315472D01*
X79442109Y-130176962D01*
X79440500Y-130136925D01*
X79440500Y-121851010D01*
X79440500Y-121851007D01*
X79413580Y-121715672D01*
X79360775Y-121588189D01*
X79284114Y-121473457D01*
X79284111Y-121473453D01*
X77210546Y-119399888D01*
X77210541Y-119399884D01*
X77095813Y-119323226D01*
X77095804Y-119323221D01*
X76968336Y-119270423D01*
X76968332Y-119270421D01*
X76968328Y-119270420D01*
X76832994Y-119243500D01*
X76832993Y-119243500D01*
X76832991Y-119243500D01*
X67673521Y-119243500D01*
X67532936Y-119223287D01*
X67403741Y-119164286D01*
X67296402Y-119071276D01*
X67219615Y-118951792D01*
X67202334Y-118898282D01*
X67188867Y-118865771D01*
X67188867Y-118865769D01*
X67188865Y-118865766D01*
X67188535Y-118864969D01*
X67153407Y-118727351D01*
X67158474Y-118585411D01*
X67188535Y-118483031D01*
X67188863Y-118482236D01*
X67188867Y-118482231D01*
X67200500Y-118423748D01*
X67200500Y-116384252D01*
X67188867Y-116325769D01*
X67188864Y-116325764D01*
X67188535Y-116324969D01*
X67153407Y-116187351D01*
X67158474Y-116045411D01*
X67188535Y-115943031D01*
X67188863Y-115942236D01*
X67188867Y-115942231D01*
X67200500Y-115883748D01*
X67200500Y-113844252D01*
X67197899Y-113831177D01*
X67188868Y-113785774D01*
X67188867Y-113785771D01*
X67188867Y-113785769D01*
X67188864Y-113785764D01*
X67188535Y-113784969D01*
X67153407Y-113647351D01*
X67158474Y-113505411D01*
X67188535Y-113403031D01*
X67188865Y-113402233D01*
X67188867Y-113402231D01*
X67188867Y-113402228D01*
X67207679Y-113356816D01*
X67208455Y-113357137D01*
X67231355Y-113292220D01*
X67314425Y-113177016D01*
X67426587Y-113089882D01*
X67558753Y-113037877D01*
X67673521Y-113024500D01*
X80784991Y-113024500D01*
X80784994Y-113024500D01*
X80920328Y-112997580D01*
X81047811Y-112944775D01*
X81162543Y-112868114D01*
X94544114Y-99486543D01*
X94620775Y-99371811D01*
X94673580Y-99244328D01*
X94700500Y-99108994D01*
X94700500Y-98971006D01*
X94700500Y-87943754D01*
X113059500Y-87943754D01*
X113071131Y-88002228D01*
X113071133Y-88002232D01*
X113115447Y-88068551D01*
X113115448Y-88068552D01*
X113181767Y-88112866D01*
X113181771Y-88112868D01*
X113240245Y-88124499D01*
X113240248Y-88124499D01*
X113240252Y-88124500D01*
X113240256Y-88124500D01*
X115279744Y-88124500D01*
X115279748Y-88124500D01*
X115279752Y-88124499D01*
X115279754Y-88124499D01*
X115338228Y-88112868D01*
X115338229Y-88112867D01*
X115338231Y-88112867D01*
X115404552Y-88068552D01*
X115448867Y-88002231D01*
X115448869Y-88002225D01*
X115460499Y-87943754D01*
X115460500Y-87943744D01*
X115460500Y-85904255D01*
X115460499Y-85904245D01*
X115448868Y-85845774D01*
X115448867Y-85845771D01*
X115448867Y-85845769D01*
X115448864Y-85845764D01*
X115448535Y-85844969D01*
X115413407Y-85707351D01*
X115418474Y-85565411D01*
X115448535Y-85463031D01*
X115448863Y-85462236D01*
X115448867Y-85462231D01*
X115460500Y-85403748D01*
X115460500Y-83364252D01*
X115448867Y-83305769D01*
X115448864Y-83305764D01*
X115448535Y-83304969D01*
X115413407Y-83167351D01*
X115418474Y-83025411D01*
X115448535Y-82923031D01*
X115448863Y-82922236D01*
X115448867Y-82922231D01*
X115460500Y-82863748D01*
X115460500Y-80824252D01*
X115460499Y-80824245D01*
X115448868Y-80765771D01*
X115448866Y-80765767D01*
X115404552Y-80699448D01*
X115404551Y-80699447D01*
X115338232Y-80655133D01*
X115338228Y-80655131D01*
X115279754Y-80643500D01*
X115279748Y-80643500D01*
X113240252Y-80643500D01*
X113240245Y-80643500D01*
X113181771Y-80655131D01*
X113181767Y-80655133D01*
X113115448Y-80699447D01*
X113115447Y-80699448D01*
X113071133Y-80765767D01*
X113071131Y-80765771D01*
X113059500Y-80824245D01*
X113059500Y-82863754D01*
X113071132Y-82922233D01*
X113071467Y-82923040D01*
X113106593Y-83060658D01*
X113101524Y-83202598D01*
X113071467Y-83304960D01*
X113071132Y-83305766D01*
X113059500Y-83364245D01*
X113059500Y-85403754D01*
X113071132Y-85462233D01*
X113071467Y-85463040D01*
X113106593Y-85600658D01*
X113101524Y-85742598D01*
X113071467Y-85844960D01*
X113071132Y-85845766D01*
X113059500Y-85904245D01*
X113059500Y-87943754D01*
X94700500Y-87943754D01*
X94700500Y-77783754D01*
X113059500Y-77783754D01*
X113071131Y-77842228D01*
X113071133Y-77842232D01*
X113115447Y-77908551D01*
X113115448Y-77908552D01*
X113181767Y-77952866D01*
X113181771Y-77952868D01*
X113240245Y-77964499D01*
X113240248Y-77964499D01*
X113240252Y-77964500D01*
X113240256Y-77964500D01*
X115279744Y-77964500D01*
X115279748Y-77964500D01*
X115279752Y-77964499D01*
X115279754Y-77964499D01*
X115338228Y-77952868D01*
X115338229Y-77952867D01*
X115338231Y-77952867D01*
X115404552Y-77908552D01*
X115448867Y-77842231D01*
X115460500Y-77783748D01*
X115460500Y-75744252D01*
X115448867Y-75685769D01*
X115448864Y-75685764D01*
X115448535Y-75684969D01*
X115413407Y-75547351D01*
X115418474Y-75405411D01*
X115448535Y-75303031D01*
X115448863Y-75302236D01*
X115448867Y-75302231D01*
X115460500Y-75243748D01*
X115460500Y-73204252D01*
X115448867Y-73145769D01*
X115448864Y-73145764D01*
X115448535Y-73144969D01*
X115413407Y-73007351D01*
X115418474Y-72865411D01*
X115448535Y-72763031D01*
X115448863Y-72762236D01*
X115448867Y-72762231D01*
X115460500Y-72703748D01*
X115460500Y-70664252D01*
X115448867Y-70605769D01*
X115448864Y-70605764D01*
X115448535Y-70604969D01*
X115413407Y-70467351D01*
X115418474Y-70325411D01*
X115448535Y-70223031D01*
X115448863Y-70222236D01*
X115448867Y-70222231D01*
X115460500Y-70163748D01*
X115460500Y-68124252D01*
X115460499Y-68124245D01*
X115448868Y-68065771D01*
X115448866Y-68065767D01*
X115404552Y-67999448D01*
X115404551Y-67999447D01*
X115338232Y-67955133D01*
X115338228Y-67955131D01*
X115279754Y-67943500D01*
X115279748Y-67943500D01*
X113240252Y-67943500D01*
X113240245Y-67943500D01*
X113181771Y-67955131D01*
X113181767Y-67955133D01*
X113115448Y-67999447D01*
X113115447Y-67999448D01*
X113071133Y-68065767D01*
X113071131Y-68065771D01*
X113059500Y-68124245D01*
X113059500Y-70163754D01*
X113071132Y-70222233D01*
X113071467Y-70223040D01*
X113106593Y-70360658D01*
X113101524Y-70502598D01*
X113071467Y-70604960D01*
X113071132Y-70605766D01*
X113059500Y-70664245D01*
X113059500Y-72703754D01*
X113071132Y-72762233D01*
X113071467Y-72763040D01*
X113106593Y-72900658D01*
X113101524Y-73042598D01*
X113071467Y-73144960D01*
X113071132Y-73145766D01*
X113059500Y-73204245D01*
X113059500Y-75243754D01*
X113071132Y-75302233D01*
X113071467Y-75303040D01*
X113106593Y-75440658D01*
X113101524Y-75582598D01*
X113071467Y-75684960D01*
X113071132Y-75685766D01*
X113059500Y-75744245D01*
X113059500Y-77783754D01*
X94700500Y-77783754D01*
X94700500Y-72673521D01*
X94720713Y-72532936D01*
X94779714Y-72403741D01*
X94872724Y-72296402D01*
X94992208Y-72219615D01*
X95045718Y-72202334D01*
X95078228Y-72188867D01*
X95078231Y-72188867D01*
X95144552Y-72144552D01*
X95188867Y-72078231D01*
X95200500Y-72019748D01*
X95200500Y-69980252D01*
X95200499Y-69980245D01*
X95188868Y-69921771D01*
X95188866Y-69921767D01*
X95144552Y-69855448D01*
X95144551Y-69855447D01*
X95078232Y-69811133D01*
X95078228Y-69811131D01*
X95019754Y-69799500D01*
X95019748Y-69799500D01*
X92980252Y-69799500D01*
X92980245Y-69799500D01*
X92921766Y-69811132D01*
X92920960Y-69811467D01*
X92783342Y-69846593D01*
X92641402Y-69841524D01*
X92539040Y-69811467D01*
X92538233Y-69811132D01*
X92479754Y-69799500D01*
X92479748Y-69799500D01*
X90440252Y-69799500D01*
X90440245Y-69799500D01*
X90381771Y-69811131D01*
X90381767Y-69811133D01*
X90315448Y-69855447D01*
X90315447Y-69855448D01*
X90271133Y-69921767D01*
X90271131Y-69921771D01*
X90259500Y-69980245D01*
X90259500Y-72019754D01*
X90271131Y-72078228D01*
X90271133Y-72078232D01*
X90315447Y-72144551D01*
X90315448Y-72144552D01*
X90381767Y-72188866D01*
X90427177Y-72207676D01*
X90426855Y-72208452D01*
X90491780Y-72231355D01*
X90606984Y-72314425D01*
X90694118Y-72426587D01*
X90746123Y-72558753D01*
X90759500Y-72673521D01*
X90759500Y-96003151D01*
X90739287Y-96143736D01*
X90680286Y-96272931D01*
X90613346Y-96355997D01*
X78031997Y-108937346D01*
X77918296Y-109022462D01*
X77785221Y-109072096D01*
X77679151Y-109083500D01*
X67673521Y-109083500D01*
X67532936Y-109063287D01*
X67403741Y-109004286D01*
X67296402Y-108911276D01*
X67219615Y-108791792D01*
X67202334Y-108738281D01*
X67188866Y-108705767D01*
X67144552Y-108639448D01*
X67144551Y-108639447D01*
X67078232Y-108595133D01*
X67078228Y-108595131D01*
X67019754Y-108583500D01*
X67019748Y-108583500D01*
X64980252Y-108583500D01*
X64980245Y-108583500D01*
X64921771Y-108595131D01*
X64921767Y-108595133D01*
X64855448Y-108639447D01*
X64855447Y-108639448D01*
X64811133Y-108705767D01*
X64811131Y-108705771D01*
X64799500Y-108764245D01*
X64799500Y-110803754D01*
X64811132Y-110862233D01*
X64811467Y-110863040D01*
X64846593Y-111000658D01*
X64841524Y-111142598D01*
X64811467Y-111244960D01*
X64811132Y-111245766D01*
X64799500Y-111304245D01*
X64799500Y-113343754D01*
X64811132Y-113402233D01*
X64811467Y-113403040D01*
X64846593Y-113540658D01*
X64841524Y-113682598D01*
X64811467Y-113784960D01*
X64811132Y-113785766D01*
X64799500Y-113844245D01*
X64799500Y-115883754D01*
X64811132Y-115942233D01*
X64811467Y-115943040D01*
X64846593Y-116080658D01*
X64841524Y-116222598D01*
X64811467Y-116324960D01*
X64811132Y-116325766D01*
X64799500Y-116384245D01*
X64799500Y-118423754D01*
X64811132Y-118482233D01*
X64811467Y-118483040D01*
X64846593Y-118620658D01*
X64841524Y-118762598D01*
X64811467Y-118864960D01*
X64811132Y-118865766D01*
X64799500Y-118924245D01*
X64799500Y-120963754D01*
X64811132Y-121022233D01*
X64811467Y-121023040D01*
X64846593Y-121160658D01*
X64841524Y-121302598D01*
X64811467Y-121404960D01*
X64811132Y-121405766D01*
X64799500Y-121464245D01*
X64799500Y-123503754D01*
X64811132Y-123562233D01*
X64811467Y-123563040D01*
X64846593Y-123700658D01*
X64841524Y-123842598D01*
X64811467Y-123944960D01*
X64811132Y-123945766D01*
X64799500Y-124004245D01*
X64799500Y-126043754D01*
X64811132Y-126102233D01*
X64811467Y-126103040D01*
X64846593Y-126240658D01*
X64841524Y-126382598D01*
X64811467Y-126484960D01*
X64811132Y-126485766D01*
X64799500Y-126544245D01*
X64799500Y-128583754D01*
X55110500Y-128583754D01*
X55110500Y-105723754D01*
X64799500Y-105723754D01*
X64811131Y-105782228D01*
X64811133Y-105782232D01*
X64855447Y-105848551D01*
X64855448Y-105848552D01*
X64921767Y-105892866D01*
X64921771Y-105892868D01*
X64980245Y-105904499D01*
X64980248Y-105904499D01*
X64980252Y-105904500D01*
X64980256Y-105904500D01*
X67019744Y-105904500D01*
X67019748Y-105904500D01*
X67019752Y-105904499D01*
X67019754Y-105904499D01*
X67078228Y-105892868D01*
X67078229Y-105892867D01*
X67078231Y-105892867D01*
X67144552Y-105848552D01*
X67188867Y-105782231D01*
X67188869Y-105782225D01*
X67200499Y-105723754D01*
X67200500Y-105723744D01*
X67200500Y-103684255D01*
X67200499Y-103684245D01*
X67188868Y-103625774D01*
X67188867Y-103625773D01*
X67188867Y-103625769D01*
X67188864Y-103625764D01*
X67188535Y-103624969D01*
X67153407Y-103487351D01*
X67158474Y-103345411D01*
X67188535Y-103243031D01*
X67188863Y-103242236D01*
X67188867Y-103242231D01*
X67200500Y-103183748D01*
X67200500Y-101144252D01*
X67188867Y-101085769D01*
X67188864Y-101085764D01*
X67188535Y-101084969D01*
X67153407Y-100947351D01*
X67158474Y-100805411D01*
X67188535Y-100703031D01*
X67188863Y-100702236D01*
X67188867Y-100702231D01*
X67200500Y-100643748D01*
X67200500Y-98604252D01*
X67188867Y-98545769D01*
X67188864Y-98545764D01*
X67188535Y-98544969D01*
X67153407Y-98407351D01*
X67158474Y-98265411D01*
X67188535Y-98163031D01*
X67188863Y-98162236D01*
X67188867Y-98162231D01*
X67200500Y-98103748D01*
X67200500Y-96064252D01*
X67188867Y-96005769D01*
X67188864Y-96005764D01*
X67188535Y-96004969D01*
X67153407Y-95867351D01*
X67158474Y-95725411D01*
X67188535Y-95623031D01*
X67188863Y-95622236D01*
X67188867Y-95622231D01*
X67200500Y-95563748D01*
X67200500Y-93524252D01*
X67188867Y-93465769D01*
X67188864Y-93465764D01*
X67188535Y-93464969D01*
X67153407Y-93327351D01*
X67158474Y-93185411D01*
X67188535Y-93083031D01*
X67188863Y-93082236D01*
X67188867Y-93082231D01*
X67200500Y-93023748D01*
X67200500Y-90984252D01*
X67188867Y-90925769D01*
X67188864Y-90925764D01*
X67188535Y-90924969D01*
X67153407Y-90787351D01*
X67158474Y-90645411D01*
X67188535Y-90543031D01*
X67188863Y-90542236D01*
X67188867Y-90542231D01*
X67200500Y-90483748D01*
X67200500Y-88444252D01*
X67188867Y-88385769D01*
X67188864Y-88385764D01*
X67188535Y-88384969D01*
X67153407Y-88247351D01*
X67158474Y-88105411D01*
X67188535Y-88003031D01*
X67188863Y-88002236D01*
X67188867Y-88002231D01*
X67200500Y-87943748D01*
X67200500Y-85904252D01*
X67200499Y-85904245D01*
X67188868Y-85845771D01*
X67188866Y-85845767D01*
X67144552Y-85779448D01*
X67144551Y-85779447D01*
X67078232Y-85735133D01*
X67078228Y-85735131D01*
X67019754Y-85723500D01*
X67019748Y-85723500D01*
X64980252Y-85723500D01*
X64980245Y-85723500D01*
X64921771Y-85735131D01*
X64921767Y-85735133D01*
X64855448Y-85779447D01*
X64855447Y-85779448D01*
X64811133Y-85845767D01*
X64811131Y-85845771D01*
X64799500Y-85904245D01*
X64799500Y-87943754D01*
X64811132Y-88002233D01*
X64811467Y-88003040D01*
X64846593Y-88140658D01*
X64841524Y-88282598D01*
X64811467Y-88384960D01*
X64811132Y-88385766D01*
X64799500Y-88444245D01*
X64799500Y-90483754D01*
X64811132Y-90542233D01*
X64811467Y-90543040D01*
X64846593Y-90680658D01*
X64841524Y-90822598D01*
X64811467Y-90924960D01*
X64811132Y-90925766D01*
X64799500Y-90984245D01*
X64799500Y-93023754D01*
X64811132Y-93082233D01*
X64811467Y-93083040D01*
X64846593Y-93220658D01*
X64841524Y-93362598D01*
X64811467Y-93464960D01*
X64811132Y-93465766D01*
X64799500Y-93524245D01*
X64799500Y-95563754D01*
X64811132Y-95622233D01*
X64811467Y-95623040D01*
X64846593Y-95760658D01*
X64841524Y-95902598D01*
X64811467Y-96004960D01*
X64811132Y-96005766D01*
X64799500Y-96064245D01*
X64799500Y-98103754D01*
X64811132Y-98162233D01*
X64811467Y-98163040D01*
X64846593Y-98300658D01*
X64841524Y-98442598D01*
X64811467Y-98544960D01*
X64811132Y-98545766D01*
X64799500Y-98604245D01*
X64799500Y-100643754D01*
X64811132Y-100702233D01*
X64811467Y-100703040D01*
X64846593Y-100840658D01*
X64841524Y-100982598D01*
X64811467Y-101084960D01*
X64811132Y-101085766D01*
X64799500Y-101144245D01*
X64799500Y-103183754D01*
X64811132Y-103242233D01*
X64811467Y-103243040D01*
X64846593Y-103380658D01*
X64841524Y-103522598D01*
X64811467Y-103624960D01*
X64811132Y-103625766D01*
X64799500Y-103684245D01*
X64799500Y-105723754D01*
X55110500Y-105723754D01*
X55110500Y-83879754D01*
X64799500Y-83879754D01*
X64811131Y-83938228D01*
X64811133Y-83938232D01*
X64855447Y-84004551D01*
X64855448Y-84004552D01*
X64921767Y-84048866D01*
X64921771Y-84048868D01*
X64980245Y-84060499D01*
X64980248Y-84060499D01*
X64980252Y-84060500D01*
X64980256Y-84060500D01*
X67019744Y-84060500D01*
X67019748Y-84060500D01*
X67019752Y-84060499D01*
X67019754Y-84060499D01*
X67078228Y-84048868D01*
X67078229Y-84048867D01*
X67078231Y-84048867D01*
X67144552Y-84004552D01*
X67188867Y-83938231D01*
X67200500Y-83879748D01*
X67200500Y-81840252D01*
X67188867Y-81781769D01*
X67188864Y-81781764D01*
X67188535Y-81780969D01*
X67153407Y-81643351D01*
X67158474Y-81501411D01*
X67188535Y-81399031D01*
X67188863Y-81398236D01*
X67188867Y-81398231D01*
X67200500Y-81339748D01*
X67200500Y-79300252D01*
X67188867Y-79241769D01*
X67188864Y-79241764D01*
X67188535Y-79240969D01*
X67153407Y-79103351D01*
X67158474Y-78961411D01*
X67188535Y-78859031D01*
X67188863Y-78858236D01*
X67188867Y-78858231D01*
X67200500Y-78799748D01*
X67200500Y-76760252D01*
X67188867Y-76701769D01*
X67188864Y-76701764D01*
X67188535Y-76700969D01*
X67153407Y-76563351D01*
X67158474Y-76421411D01*
X67188535Y-76319031D01*
X67188863Y-76318236D01*
X67188867Y-76318231D01*
X67200500Y-76259748D01*
X67200500Y-74220252D01*
X67188867Y-74161769D01*
X67188864Y-74161764D01*
X67188535Y-74160969D01*
X67153407Y-74023351D01*
X67158474Y-73881411D01*
X67188535Y-73779031D01*
X67188863Y-73778236D01*
X67188867Y-73778231D01*
X67200500Y-73719748D01*
X67200500Y-72019754D01*
X85179500Y-72019754D01*
X85191131Y-72078228D01*
X85191133Y-72078232D01*
X85235447Y-72144551D01*
X85235448Y-72144552D01*
X85301767Y-72188866D01*
X85301771Y-72188868D01*
X85360245Y-72200499D01*
X85360248Y-72200499D01*
X85360252Y-72200500D01*
X85360256Y-72200500D01*
X87399744Y-72200500D01*
X87399748Y-72200500D01*
X87399752Y-72200499D01*
X87399754Y-72200499D01*
X87458228Y-72188868D01*
X87458229Y-72188867D01*
X87458231Y-72188867D01*
X87524552Y-72144552D01*
X87568867Y-72078231D01*
X87580500Y-72019748D01*
X87580500Y-69980252D01*
X87580499Y-69980245D01*
X87568868Y-69921771D01*
X87568866Y-69921767D01*
X87524552Y-69855448D01*
X87524551Y-69855447D01*
X87458232Y-69811133D01*
X87458228Y-69811131D01*
X87399754Y-69799500D01*
X87399748Y-69799500D01*
X85360252Y-69799500D01*
X85360245Y-69799500D01*
X85301771Y-69811131D01*
X85301767Y-69811133D01*
X85235448Y-69855447D01*
X85235447Y-69855448D01*
X85191133Y-69921767D01*
X85191131Y-69921771D01*
X85179500Y-69980245D01*
X85179500Y-72019754D01*
X67200500Y-72019754D01*
X67200500Y-71680252D01*
X67188867Y-71621769D01*
X67188864Y-71621764D01*
X67188535Y-71620969D01*
X67153407Y-71483351D01*
X67158474Y-71341411D01*
X67188535Y-71239031D01*
X67188863Y-71238236D01*
X67188867Y-71238231D01*
X67200500Y-71179748D01*
X67200500Y-69140252D01*
X67188867Y-69081769D01*
X67188864Y-69081764D01*
X67188535Y-69080969D01*
X67153407Y-68943351D01*
X67158474Y-68801411D01*
X67188535Y-68699031D01*
X67188863Y-68698236D01*
X67188867Y-68698231D01*
X67200500Y-68639748D01*
X67200500Y-66600252D01*
X67188867Y-66541769D01*
X67188864Y-66541764D01*
X67188535Y-66540969D01*
X67153407Y-66403351D01*
X67158474Y-66261411D01*
X67188535Y-66159031D01*
X67188863Y-66158236D01*
X67188867Y-66158231D01*
X67200500Y-66099748D01*
X67200500Y-64060252D01*
X67188867Y-64001769D01*
X67188864Y-64001764D01*
X67188535Y-64000969D01*
X67153407Y-63863351D01*
X67158474Y-63721411D01*
X67188535Y-63619031D01*
X67188863Y-63618236D01*
X67188867Y-63618231D01*
X67200500Y-63559748D01*
X67200500Y-61520252D01*
X67188867Y-61461769D01*
X67188864Y-61461764D01*
X67188535Y-61460969D01*
X67153407Y-61323351D01*
X67158474Y-61181411D01*
X67188535Y-61079031D01*
X67188863Y-61078236D01*
X67188867Y-61078231D01*
X67200500Y-61019748D01*
X67200500Y-58980252D01*
X67200499Y-58980245D01*
X67188868Y-58921771D01*
X67188866Y-58921767D01*
X67144552Y-58855448D01*
X67144551Y-58855447D01*
X67078232Y-58811133D01*
X67078228Y-58811131D01*
X67019754Y-58799500D01*
X67019748Y-58799500D01*
X64980252Y-58799500D01*
X64980245Y-58799500D01*
X64921771Y-58811131D01*
X64921767Y-58811133D01*
X64855448Y-58855447D01*
X64855447Y-58855448D01*
X64811133Y-58921767D01*
X64811131Y-58921771D01*
X64799500Y-58980245D01*
X64799500Y-61019754D01*
X64811132Y-61078233D01*
X64811467Y-61079040D01*
X64846593Y-61216658D01*
X64841524Y-61358598D01*
X64811467Y-61460960D01*
X64811132Y-61461766D01*
X64799500Y-61520245D01*
X64799500Y-63559754D01*
X64811132Y-63618233D01*
X64811467Y-63619040D01*
X64846593Y-63756658D01*
X64841524Y-63898598D01*
X64811467Y-64000960D01*
X64811132Y-64001766D01*
X64799500Y-64060245D01*
X64799500Y-66099754D01*
X64811132Y-66158233D01*
X64811467Y-66159040D01*
X64846593Y-66296658D01*
X64841524Y-66438598D01*
X64811467Y-66540960D01*
X64811132Y-66541766D01*
X64799500Y-66600245D01*
X64799500Y-68639754D01*
X64811132Y-68698233D01*
X64811467Y-68699040D01*
X64846593Y-68836658D01*
X64841524Y-68978598D01*
X64811467Y-69080960D01*
X64811132Y-69081766D01*
X64799500Y-69140245D01*
X64799500Y-71179754D01*
X64811132Y-71238233D01*
X64811467Y-71239040D01*
X64846593Y-71376658D01*
X64841524Y-71518598D01*
X64811467Y-71620960D01*
X64811132Y-71621766D01*
X64799500Y-71680245D01*
X64799500Y-73719754D01*
X64811132Y-73778233D01*
X64811467Y-73779040D01*
X64846593Y-73916658D01*
X64841524Y-74058598D01*
X64811467Y-74160960D01*
X64811132Y-74161766D01*
X64799500Y-74220245D01*
X64799500Y-76259754D01*
X64811132Y-76318233D01*
X64811467Y-76319040D01*
X64846593Y-76456658D01*
X64841524Y-76598598D01*
X64811467Y-76700960D01*
X64811132Y-76701766D01*
X64799500Y-76760245D01*
X64799500Y-78799754D01*
X64811132Y-78858233D01*
X64811467Y-78859040D01*
X64846593Y-78996658D01*
X64841524Y-79138598D01*
X64811467Y-79240960D01*
X64811132Y-79241766D01*
X64799500Y-79300245D01*
X64799500Y-81339754D01*
X64811132Y-81398233D01*
X64811467Y-81399040D01*
X64846593Y-81536658D01*
X64841524Y-81678598D01*
X64811467Y-81780960D01*
X64811132Y-81781766D01*
X64799500Y-81840245D01*
X64799500Y-83879754D01*
X55110500Y-83879754D01*
X55110500Y-52922894D01*
X57637500Y-52922894D01*
X57673973Y-53246596D01*
X57673978Y-53246627D01*
X57746463Y-53564210D01*
X57746469Y-53564229D01*
X57854063Y-53871719D01*
X57854068Y-53871729D01*
X57995405Y-54165218D01*
X57995414Y-54165235D01*
X58168738Y-54441080D01*
X58368661Y-54691776D01*
X58371857Y-54695783D01*
X58602217Y-54926143D01*
X58856919Y-55129261D01*
X59132763Y-55302585D01*
X59132774Y-55302590D01*
X59132781Y-55302594D01*
X59426270Y-55443931D01*
X59426280Y-55443936D01*
X59500094Y-55469764D01*
X59733773Y-55551532D01*
X59733785Y-55551534D01*
X59733789Y-55551536D01*
X59865805Y-55581667D01*
X60051383Y-55624024D01*
X60375111Y-55660500D01*
X60700889Y-55660500D01*
X61024617Y-55624024D01*
X61296747Y-55561912D01*
X61342210Y-55551536D01*
X61342211Y-55551535D01*
X61342227Y-55551532D01*
X61649722Y-55443935D01*
X61943237Y-55302585D01*
X62219081Y-55129261D01*
X62473783Y-54926143D01*
X62704143Y-54695783D01*
X62907261Y-54441081D01*
X63080585Y-54165237D01*
X63221935Y-53871722D01*
X63329532Y-53564227D01*
X63402024Y-53246617D01*
X63438500Y-52922889D01*
X63438500Y-52918894D01*
X118679500Y-52918894D01*
X118715973Y-53242596D01*
X118715978Y-53242627D01*
X118788463Y-53560210D01*
X118788467Y-53560222D01*
X118788468Y-53560227D01*
X118814297Y-53634043D01*
X118896063Y-53867719D01*
X118896068Y-53867729D01*
X119037405Y-54161218D01*
X119037414Y-54161235D01*
X119037415Y-54161237D01*
X119108218Y-54273919D01*
X119210738Y-54437080D01*
X119413851Y-54691776D01*
X119413861Y-54691787D01*
X119644212Y-54922138D01*
X119644223Y-54922148D01*
X119649233Y-54926143D01*
X119898919Y-55125261D01*
X120174763Y-55298585D01*
X120174774Y-55298590D01*
X120174781Y-55298594D01*
X120468270Y-55439931D01*
X120468280Y-55439936D01*
X120542094Y-55465764D01*
X120775773Y-55547532D01*
X120775785Y-55547534D01*
X120775789Y-55547536D01*
X120907805Y-55577667D01*
X121093383Y-55620024D01*
X121417111Y-55656500D01*
X121742889Y-55656500D01*
X122066617Y-55620024D01*
X122338747Y-55557912D01*
X122384210Y-55547536D01*
X122384211Y-55547535D01*
X122384227Y-55547532D01*
X122691722Y-55439935D01*
X122985237Y-55298585D01*
X123261081Y-55125261D01*
X123515783Y-54922143D01*
X123746143Y-54691783D01*
X123949261Y-54437081D01*
X124122585Y-54161237D01*
X124263935Y-53867722D01*
X124371532Y-53560227D01*
X124444024Y-53242617D01*
X124480500Y-52918889D01*
X124480500Y-52593111D01*
X124444024Y-52269383D01*
X124372445Y-51955773D01*
X124371536Y-51951789D01*
X124371534Y-51951785D01*
X124371532Y-51951773D01*
X124289764Y-51718094D01*
X124263936Y-51644280D01*
X124263931Y-51644270D01*
X124122594Y-51350781D01*
X124122585Y-51350764D01*
X124122585Y-51350763D01*
X123949261Y-51074919D01*
X123746143Y-50820217D01*
X123515783Y-50589857D01*
X123515779Y-50589854D01*
X123515776Y-50589851D01*
X123261080Y-50386738D01*
X122985235Y-50213414D01*
X122985218Y-50213405D01*
X122691729Y-50072068D01*
X122691719Y-50072063D01*
X122458043Y-49990297D01*
X122384227Y-49964468D01*
X122384222Y-49964467D01*
X122384210Y-49964463D01*
X122066627Y-49891978D01*
X122066622Y-49891977D01*
X122066617Y-49891976D01*
X122066609Y-49891975D01*
X122066596Y-49891973D01*
X121742894Y-49855500D01*
X121742889Y-49855500D01*
X121417111Y-49855500D01*
X121417105Y-49855500D01*
X121093403Y-49891973D01*
X121093387Y-49891975D01*
X121093383Y-49891976D01*
X121093379Y-49891976D01*
X121093372Y-49891978D01*
X120775789Y-49964463D01*
X120775770Y-49964469D01*
X120468280Y-50072063D01*
X120468270Y-50072068D01*
X120174781Y-50213405D01*
X120174764Y-50213414D01*
X119898919Y-50386738D01*
X119644223Y-50589851D01*
X119644212Y-50589861D01*
X119413861Y-50820212D01*
X119413851Y-50820223D01*
X119210738Y-51074919D01*
X119037414Y-51350764D01*
X119037405Y-51350781D01*
X118896068Y-51644270D01*
X118896063Y-51644280D01*
X118788469Y-51951770D01*
X118788463Y-51951789D01*
X118715978Y-52269372D01*
X118715973Y-52269403D01*
X118679500Y-52593105D01*
X118679500Y-52918894D01*
X63438500Y-52918894D01*
X63438500Y-52597111D01*
X63402024Y-52273383D01*
X63329532Y-51955773D01*
X63221935Y-51648278D01*
X63080585Y-51354763D01*
X62907261Y-51078919D01*
X62704143Y-50824217D01*
X62473783Y-50593857D01*
X62473779Y-50593854D01*
X62473776Y-50593851D01*
X62219080Y-50390738D01*
X61943235Y-50217414D01*
X61943218Y-50217405D01*
X61649729Y-50076068D01*
X61649719Y-50076063D01*
X61416043Y-49994297D01*
X61342227Y-49968468D01*
X61342222Y-49968467D01*
X61342210Y-49968463D01*
X61024627Y-49895978D01*
X61024622Y-49895977D01*
X61024617Y-49895976D01*
X61024609Y-49895975D01*
X61024596Y-49895973D01*
X60700894Y-49859500D01*
X60700889Y-49859500D01*
X60375111Y-49859500D01*
X60375105Y-49859500D01*
X60051403Y-49895973D01*
X60051387Y-49895975D01*
X60051383Y-49895976D01*
X60051379Y-49895976D01*
X60051372Y-49895978D01*
X59733789Y-49968463D01*
X59733770Y-49968469D01*
X59426280Y-50076063D01*
X59426270Y-50076068D01*
X59132781Y-50217405D01*
X59132764Y-50217414D01*
X58856919Y-50390738D01*
X58602223Y-50593851D01*
X58602212Y-50593861D01*
X58371861Y-50824212D01*
X58371851Y-50824223D01*
X58168738Y-51078919D01*
X57995414Y-51354764D01*
X57995405Y-51354781D01*
X57854068Y-51648270D01*
X57854063Y-51648280D01*
X57746469Y-51955770D01*
X57746463Y-51955789D01*
X57673978Y-52273372D01*
X57673973Y-52273403D01*
X57637500Y-52597105D01*
X57637500Y-52922894D01*
X55110500Y-52922894D01*
X55110500Y-47989500D01*
X55130713Y-47848915D01*
X55189714Y-47719720D01*
X55282724Y-47612381D01*
X55402208Y-47535594D01*
X55538485Y-47495579D01*
X55609500Y-47490500D01*
X126000500Y-47490500D01*
X126141085Y-47510713D01*
G37*
G04 #@! TD.AperFunction*
M02*
