G04 #@! TF.GenerationSoftware,KiCad,Pcbnew,8.0.0*
G04 #@! TF.CreationDate,2024-03-18T20:15:54-07:00*
G04 #@! TF.ProjectId,sumitomo_node_v2,73756d69-746f-46d6-9f5f-6e6f64655f76,rev?*
G04 #@! TF.SameCoordinates,Original*
G04 #@! TF.FileFunction,Legend,Top*
G04 #@! TF.FilePolarity,Positive*
%FSLAX46Y46*%
G04 Gerber Fmt 4.6, Leading zero omitted, Abs format (unit mm)*
G04 Created by KiCad (PCBNEW 8.0.0) date 2024-03-18 20:15:54*
%MOMM*%
%LPD*%
G01*
G04 APERTURE LIST*
%ADD10C,0.150000*%
%ADD11C,0.100000*%
%ADD12C,0.120000*%
%ADD13C,5.300000*%
%ADD14R,2.200000X2.200000*%
%ADD15O,2.200000X2.200000*%
%ADD16R,2.000000X2.000000*%
%ADD17R,1.600000X1.600000*%
%ADD18O,1.600000X1.600000*%
%ADD19C,1.600000*%
%ADD20R,1.800000X1.800000*%
%ADD21C,1.800000*%
G04 APERTURE END LIST*
D10*
X75203207Y-164534636D02*
X75155588Y-164582256D01*
X75155588Y-164582256D02*
X75012731Y-164629875D01*
X75012731Y-164629875D02*
X74917493Y-164629875D01*
X74917493Y-164629875D02*
X74774636Y-164582256D01*
X74774636Y-164582256D02*
X74679398Y-164487017D01*
X74679398Y-164487017D02*
X74631779Y-164391779D01*
X74631779Y-164391779D02*
X74584160Y-164201303D01*
X74584160Y-164201303D02*
X74584160Y-164058446D01*
X74584160Y-164058446D02*
X74631779Y-163867970D01*
X74631779Y-163867970D02*
X74679398Y-163772732D01*
X74679398Y-163772732D02*
X74774636Y-163677494D01*
X74774636Y-163677494D02*
X74917493Y-163629875D01*
X74917493Y-163629875D02*
X75012731Y-163629875D01*
X75012731Y-163629875D02*
X75155588Y-163677494D01*
X75155588Y-163677494D02*
X75203207Y-163725113D01*
X75631779Y-164629875D02*
X75631779Y-163629875D01*
X76679397Y-164629875D02*
X76346064Y-164153684D01*
X76107969Y-164629875D02*
X76107969Y-163629875D01*
X76107969Y-163629875D02*
X76488921Y-163629875D01*
X76488921Y-163629875D02*
X76584159Y-163677494D01*
X76584159Y-163677494D02*
X76631778Y-163725113D01*
X76631778Y-163725113D02*
X76679397Y-163820351D01*
X76679397Y-163820351D02*
X76679397Y-163963208D01*
X76679397Y-163963208D02*
X76631778Y-164058446D01*
X76631778Y-164058446D02*
X76584159Y-164106065D01*
X76584159Y-164106065D02*
X76488921Y-164153684D01*
X76488921Y-164153684D02*
X76107969Y-164153684D01*
X77298445Y-163629875D02*
X77488921Y-163629875D01*
X77488921Y-163629875D02*
X77584159Y-163677494D01*
X77584159Y-163677494D02*
X77679397Y-163772732D01*
X77679397Y-163772732D02*
X77727016Y-163963208D01*
X77727016Y-163963208D02*
X77727016Y-164296541D01*
X77727016Y-164296541D02*
X77679397Y-164487017D01*
X77679397Y-164487017D02*
X77584159Y-164582256D01*
X77584159Y-164582256D02*
X77488921Y-164629875D01*
X77488921Y-164629875D02*
X77298445Y-164629875D01*
X77298445Y-164629875D02*
X77203207Y-164582256D01*
X77203207Y-164582256D02*
X77107969Y-164487017D01*
X77107969Y-164487017D02*
X77060350Y-164296541D01*
X77060350Y-164296541D02*
X77060350Y-163963208D01*
X77060350Y-163963208D02*
X77107969Y-163772732D01*
X77107969Y-163772732D02*
X77203207Y-163677494D01*
X77203207Y-163677494D02*
X77298445Y-163629875D01*
X78012731Y-163629875D02*
X78584159Y-163629875D01*
X78298445Y-164629875D02*
X78298445Y-163629875D01*
X78917493Y-164106065D02*
X79250826Y-164106065D01*
X79393683Y-164629875D02*
X78917493Y-164629875D01*
X78917493Y-164629875D02*
X78917493Y-163629875D01*
X78917493Y-163629875D02*
X79393683Y-163629875D01*
X80393683Y-164534636D02*
X80346064Y-164582256D01*
X80346064Y-164582256D02*
X80203207Y-164629875D01*
X80203207Y-164629875D02*
X80107969Y-164629875D01*
X80107969Y-164629875D02*
X79965112Y-164582256D01*
X79965112Y-164582256D02*
X79869874Y-164487017D01*
X79869874Y-164487017D02*
X79822255Y-164391779D01*
X79822255Y-164391779D02*
X79774636Y-164201303D01*
X79774636Y-164201303D02*
X79774636Y-164058446D01*
X79774636Y-164058446D02*
X79822255Y-163867970D01*
X79822255Y-163867970D02*
X79869874Y-163772732D01*
X79869874Y-163772732D02*
X79965112Y-163677494D01*
X79965112Y-163677494D02*
X80107969Y-163629875D01*
X80107969Y-163629875D02*
X80203207Y-163629875D01*
X80203207Y-163629875D02*
X80346064Y-163677494D01*
X80346064Y-163677494D02*
X80393683Y-163725113D01*
X80822255Y-164534636D02*
X80869874Y-164582256D01*
X80869874Y-164582256D02*
X80822255Y-164629875D01*
X80822255Y-164629875D02*
X80774636Y-164582256D01*
X80774636Y-164582256D02*
X80822255Y-164534636D01*
X80822255Y-164534636D02*
X80822255Y-164629875D01*
X81298445Y-164629875D02*
X81298445Y-163629875D01*
X81298445Y-163629875D02*
X81631778Y-164344160D01*
X81631778Y-164344160D02*
X81965111Y-163629875D01*
X81965111Y-163629875D02*
X81965111Y-164629875D01*
X82346064Y-163629875D02*
X83012730Y-164629875D01*
X83012730Y-163629875D02*
X82346064Y-164629875D01*
X84107968Y-163582256D02*
X83250826Y-164867970D01*
X84393683Y-164344160D02*
X84869873Y-164344160D01*
X84298445Y-164629875D02*
X84631778Y-163629875D01*
X84631778Y-163629875D02*
X84965111Y-164629875D01*
X85298445Y-163629875D02*
X85298445Y-164439398D01*
X85298445Y-164439398D02*
X85346064Y-164534636D01*
X85346064Y-164534636D02*
X85393683Y-164582256D01*
X85393683Y-164582256D02*
X85488921Y-164629875D01*
X85488921Y-164629875D02*
X85679397Y-164629875D01*
X85679397Y-164629875D02*
X85774635Y-164582256D01*
X85774635Y-164582256D02*
X85822254Y-164534636D01*
X85822254Y-164534636D02*
X85869873Y-164439398D01*
X85869873Y-164439398D02*
X85869873Y-163629875D01*
X86203207Y-163629875D02*
X86774635Y-163629875D01*
X86488921Y-164629875D02*
X86488921Y-163629875D01*
X87298445Y-163629875D02*
X87488921Y-163629875D01*
X87488921Y-163629875D02*
X87584159Y-163677494D01*
X87584159Y-163677494D02*
X87679397Y-163772732D01*
X87679397Y-163772732D02*
X87727016Y-163963208D01*
X87727016Y-163963208D02*
X87727016Y-164296541D01*
X87727016Y-164296541D02*
X87679397Y-164487017D01*
X87679397Y-164487017D02*
X87584159Y-164582256D01*
X87584159Y-164582256D02*
X87488921Y-164629875D01*
X87488921Y-164629875D02*
X87298445Y-164629875D01*
X87298445Y-164629875D02*
X87203207Y-164582256D01*
X87203207Y-164582256D02*
X87107969Y-164487017D01*
X87107969Y-164487017D02*
X87060350Y-164296541D01*
X87060350Y-164296541D02*
X87060350Y-163963208D01*
X87060350Y-163963208D02*
X87107969Y-163772732D01*
X87107969Y-163772732D02*
X87203207Y-163677494D01*
X87203207Y-163677494D02*
X87298445Y-163629875D01*
X88155588Y-164629875D02*
X88155588Y-163629875D01*
X88155588Y-163629875D02*
X88488921Y-164344160D01*
X88488921Y-164344160D02*
X88822254Y-163629875D01*
X88822254Y-163629875D02*
X88822254Y-164629875D01*
X89250826Y-164344160D02*
X89727016Y-164344160D01*
X89155588Y-164629875D02*
X89488921Y-163629875D01*
X89488921Y-163629875D02*
X89822254Y-164629875D01*
X90012731Y-163629875D02*
X90584159Y-163629875D01*
X90298445Y-164629875D02*
X90298445Y-163629875D01*
X90917493Y-164629875D02*
X90917493Y-163629875D01*
X91584159Y-163629875D02*
X91774635Y-163629875D01*
X91774635Y-163629875D02*
X91869873Y-163677494D01*
X91869873Y-163677494D02*
X91965111Y-163772732D01*
X91965111Y-163772732D02*
X92012730Y-163963208D01*
X92012730Y-163963208D02*
X92012730Y-164296541D01*
X92012730Y-164296541D02*
X91965111Y-164487017D01*
X91965111Y-164487017D02*
X91869873Y-164582256D01*
X91869873Y-164582256D02*
X91774635Y-164629875D01*
X91774635Y-164629875D02*
X91584159Y-164629875D01*
X91584159Y-164629875D02*
X91488921Y-164582256D01*
X91488921Y-164582256D02*
X91393683Y-164487017D01*
X91393683Y-164487017D02*
X91346064Y-164296541D01*
X91346064Y-164296541D02*
X91346064Y-163963208D01*
X91346064Y-163963208D02*
X91393683Y-163772732D01*
X91393683Y-163772732D02*
X91488921Y-163677494D01*
X91488921Y-163677494D02*
X91584159Y-163629875D01*
X92441302Y-164629875D02*
X92441302Y-163629875D01*
X92441302Y-163629875D02*
X93012730Y-164629875D01*
X93012730Y-164629875D02*
X93012730Y-163629875D01*
X74584160Y-166192200D02*
X74727017Y-166239819D01*
X74727017Y-166239819D02*
X74965112Y-166239819D01*
X74965112Y-166239819D02*
X75060350Y-166192200D01*
X75060350Y-166192200D02*
X75107969Y-166144580D01*
X75107969Y-166144580D02*
X75155588Y-166049342D01*
X75155588Y-166049342D02*
X75155588Y-165954104D01*
X75155588Y-165954104D02*
X75107969Y-165858866D01*
X75107969Y-165858866D02*
X75060350Y-165811247D01*
X75060350Y-165811247D02*
X74965112Y-165763628D01*
X74965112Y-165763628D02*
X74774636Y-165716009D01*
X74774636Y-165716009D02*
X74679398Y-165668390D01*
X74679398Y-165668390D02*
X74631779Y-165620771D01*
X74631779Y-165620771D02*
X74584160Y-165525533D01*
X74584160Y-165525533D02*
X74584160Y-165430295D01*
X74584160Y-165430295D02*
X74631779Y-165335057D01*
X74631779Y-165335057D02*
X74679398Y-165287438D01*
X74679398Y-165287438D02*
X74774636Y-165239819D01*
X74774636Y-165239819D02*
X75012731Y-165239819D01*
X75012731Y-165239819D02*
X75155588Y-165287438D01*
X75584160Y-165239819D02*
X75584160Y-166049342D01*
X75584160Y-166049342D02*
X75631779Y-166144580D01*
X75631779Y-166144580D02*
X75679398Y-166192200D01*
X75679398Y-166192200D02*
X75774636Y-166239819D01*
X75774636Y-166239819D02*
X75965112Y-166239819D01*
X75965112Y-166239819D02*
X76060350Y-166192200D01*
X76060350Y-166192200D02*
X76107969Y-166144580D01*
X76107969Y-166144580D02*
X76155588Y-166049342D01*
X76155588Y-166049342D02*
X76155588Y-165239819D01*
X76631779Y-166239819D02*
X76631779Y-165239819D01*
X76631779Y-165239819D02*
X76965112Y-165954104D01*
X76965112Y-165954104D02*
X77298445Y-165239819D01*
X77298445Y-165239819D02*
X77298445Y-166239819D01*
X77774636Y-166239819D02*
X77774636Y-165239819D01*
X78107969Y-165239819D02*
X78679397Y-165239819D01*
X78393683Y-166239819D02*
X78393683Y-165239819D01*
X79203207Y-165239819D02*
X79393683Y-165239819D01*
X79393683Y-165239819D02*
X79488921Y-165287438D01*
X79488921Y-165287438D02*
X79584159Y-165382676D01*
X79584159Y-165382676D02*
X79631778Y-165573152D01*
X79631778Y-165573152D02*
X79631778Y-165906485D01*
X79631778Y-165906485D02*
X79584159Y-166096961D01*
X79584159Y-166096961D02*
X79488921Y-166192200D01*
X79488921Y-166192200D02*
X79393683Y-166239819D01*
X79393683Y-166239819D02*
X79203207Y-166239819D01*
X79203207Y-166239819D02*
X79107969Y-166192200D01*
X79107969Y-166192200D02*
X79012731Y-166096961D01*
X79012731Y-166096961D02*
X78965112Y-165906485D01*
X78965112Y-165906485D02*
X78965112Y-165573152D01*
X78965112Y-165573152D02*
X79012731Y-165382676D01*
X79012731Y-165382676D02*
X79107969Y-165287438D01*
X79107969Y-165287438D02*
X79203207Y-165239819D01*
X80060350Y-166239819D02*
X80060350Y-165239819D01*
X80060350Y-165239819D02*
X80393683Y-165954104D01*
X80393683Y-165954104D02*
X80727016Y-165239819D01*
X80727016Y-165239819D02*
X80727016Y-166239819D01*
X81393683Y-165239819D02*
X81584159Y-165239819D01*
X81584159Y-165239819D02*
X81679397Y-165287438D01*
X81679397Y-165287438D02*
X81774635Y-165382676D01*
X81774635Y-165382676D02*
X81822254Y-165573152D01*
X81822254Y-165573152D02*
X81822254Y-165906485D01*
X81822254Y-165906485D02*
X81774635Y-166096961D01*
X81774635Y-166096961D02*
X81679397Y-166192200D01*
X81679397Y-166192200D02*
X81584159Y-166239819D01*
X81584159Y-166239819D02*
X81393683Y-166239819D01*
X81393683Y-166239819D02*
X81298445Y-166192200D01*
X81298445Y-166192200D02*
X81203207Y-166096961D01*
X81203207Y-166096961D02*
X81155588Y-165906485D01*
X81155588Y-165906485D02*
X81155588Y-165573152D01*
X81155588Y-165573152D02*
X81203207Y-165382676D01*
X81203207Y-165382676D02*
X81298445Y-165287438D01*
X81298445Y-165287438D02*
X81393683Y-165239819D01*
X82012731Y-166335057D02*
X82774635Y-166335057D01*
X83012731Y-166239819D02*
X83012731Y-165239819D01*
X83012731Y-165239819D02*
X83584159Y-166239819D01*
X83584159Y-166239819D02*
X83584159Y-165239819D01*
X84250826Y-165239819D02*
X84441302Y-165239819D01*
X84441302Y-165239819D02*
X84536540Y-165287438D01*
X84536540Y-165287438D02*
X84631778Y-165382676D01*
X84631778Y-165382676D02*
X84679397Y-165573152D01*
X84679397Y-165573152D02*
X84679397Y-165906485D01*
X84679397Y-165906485D02*
X84631778Y-166096961D01*
X84631778Y-166096961D02*
X84536540Y-166192200D01*
X84536540Y-166192200D02*
X84441302Y-166239819D01*
X84441302Y-166239819D02*
X84250826Y-166239819D01*
X84250826Y-166239819D02*
X84155588Y-166192200D01*
X84155588Y-166192200D02*
X84060350Y-166096961D01*
X84060350Y-166096961D02*
X84012731Y-165906485D01*
X84012731Y-165906485D02*
X84012731Y-165573152D01*
X84012731Y-165573152D02*
X84060350Y-165382676D01*
X84060350Y-165382676D02*
X84155588Y-165287438D01*
X84155588Y-165287438D02*
X84250826Y-165239819D01*
X85107969Y-166239819D02*
X85107969Y-165239819D01*
X85107969Y-165239819D02*
X85346064Y-165239819D01*
X85346064Y-165239819D02*
X85488921Y-165287438D01*
X85488921Y-165287438D02*
X85584159Y-165382676D01*
X85584159Y-165382676D02*
X85631778Y-165477914D01*
X85631778Y-165477914D02*
X85679397Y-165668390D01*
X85679397Y-165668390D02*
X85679397Y-165811247D01*
X85679397Y-165811247D02*
X85631778Y-166001723D01*
X85631778Y-166001723D02*
X85584159Y-166096961D01*
X85584159Y-166096961D02*
X85488921Y-166192200D01*
X85488921Y-166192200D02*
X85346064Y-166239819D01*
X85346064Y-166239819D02*
X85107969Y-166239819D01*
X86107969Y-165716009D02*
X86441302Y-165716009D01*
X86584159Y-166239819D02*
X86107969Y-166239819D01*
X86107969Y-166239819D02*
X86107969Y-165239819D01*
X86107969Y-165239819D02*
X86584159Y-165239819D01*
X86774636Y-166335057D02*
X87536540Y-166335057D01*
X87631779Y-165239819D02*
X87965112Y-166239819D01*
X87965112Y-166239819D02*
X88298445Y-165239819D01*
X88584160Y-165335057D02*
X88631779Y-165287438D01*
X88631779Y-165287438D02*
X88727017Y-165239819D01*
X88727017Y-165239819D02*
X88965112Y-165239819D01*
X88965112Y-165239819D02*
X89060350Y-165287438D01*
X89060350Y-165287438D02*
X89107969Y-165335057D01*
X89107969Y-165335057D02*
X89155588Y-165430295D01*
X89155588Y-165430295D02*
X89155588Y-165525533D01*
X89155588Y-165525533D02*
X89107969Y-165668390D01*
X89107969Y-165668390D02*
X88536541Y-166239819D01*
X88536541Y-166239819D02*
X89155588Y-166239819D01*
X120818095Y-157340819D02*
X120818095Y-156340819D01*
X120818095Y-156817009D02*
X121389523Y-156817009D01*
X121389523Y-157340819D02*
X121389523Y-156340819D01*
X122294285Y-156674152D02*
X122294285Y-157340819D01*
X122056190Y-156293200D02*
X121818095Y-157007485D01*
X121818095Y-157007485D02*
X122437142Y-157007485D01*
X59776095Y-157340819D02*
X59776095Y-156340819D01*
X59776095Y-156817009D02*
X60347523Y-156817009D01*
X60347523Y-157340819D02*
X60347523Y-156340819D01*
X60728476Y-156340819D02*
X61347523Y-156340819D01*
X61347523Y-156340819D02*
X61014190Y-156721771D01*
X61014190Y-156721771D02*
X61157047Y-156721771D01*
X61157047Y-156721771D02*
X61252285Y-156769390D01*
X61252285Y-156769390D02*
X61299904Y-156817009D01*
X61299904Y-156817009D02*
X61347523Y-156912247D01*
X61347523Y-156912247D02*
X61347523Y-157150342D01*
X61347523Y-157150342D02*
X61299904Y-157245580D01*
X61299904Y-157245580D02*
X61252285Y-157293200D01*
X61252285Y-157293200D02*
X61157047Y-157340819D01*
X61157047Y-157340819D02*
X60871333Y-157340819D01*
X60871333Y-157340819D02*
X60776095Y-157293200D01*
X60776095Y-157293200D02*
X60728476Y-157245580D01*
X116078095Y-53794819D02*
X116078095Y-52794819D01*
X116078095Y-53271009D02*
X116649523Y-53271009D01*
X116649523Y-53794819D02*
X116649523Y-52794819D01*
X117078095Y-52890057D02*
X117125714Y-52842438D01*
X117125714Y-52842438D02*
X117220952Y-52794819D01*
X117220952Y-52794819D02*
X117459047Y-52794819D01*
X117459047Y-52794819D02*
X117554285Y-52842438D01*
X117554285Y-52842438D02*
X117601904Y-52890057D01*
X117601904Y-52890057D02*
X117649523Y-52985295D01*
X117649523Y-52985295D02*
X117649523Y-53080533D01*
X117649523Y-53080533D02*
X117601904Y-53223390D01*
X117601904Y-53223390D02*
X117030476Y-53794819D01*
X117030476Y-53794819D02*
X117649523Y-53794819D01*
X64008095Y-53794819D02*
X64008095Y-52794819D01*
X64008095Y-53271009D02*
X64579523Y-53271009D01*
X64579523Y-53794819D02*
X64579523Y-52794819D01*
X65579523Y-53794819D02*
X65008095Y-53794819D01*
X65293809Y-53794819D02*
X65293809Y-52794819D01*
X65293809Y-52794819D02*
X65198571Y-52937676D01*
X65198571Y-52937676D02*
X65103333Y-53032914D01*
X65103333Y-53032914D02*
X65008095Y-53080533D01*
X94511905Y-157369819D02*
X94511905Y-156369819D01*
X94511905Y-156369819D02*
X94750000Y-156369819D01*
X94750000Y-156369819D02*
X94892857Y-156417438D01*
X94892857Y-156417438D02*
X94988095Y-156512676D01*
X94988095Y-156512676D02*
X95035714Y-156607914D01*
X95035714Y-156607914D02*
X95083333Y-156798390D01*
X95083333Y-156798390D02*
X95083333Y-156941247D01*
X95083333Y-156941247D02*
X95035714Y-157131723D01*
X95035714Y-157131723D02*
X94988095Y-157226961D01*
X94988095Y-157226961D02*
X94892857Y-157322200D01*
X94892857Y-157322200D02*
X94750000Y-157369819D01*
X94750000Y-157369819D02*
X94511905Y-157369819D01*
X95940476Y-156703152D02*
X95940476Y-157369819D01*
X95702381Y-156322200D02*
X95464286Y-157036485D01*
X95464286Y-157036485D02*
X96083333Y-157036485D01*
X89908095Y-157739819D02*
X89908095Y-156739819D01*
X90479523Y-157739819D02*
X90050952Y-157168390D01*
X90479523Y-156739819D02*
X89908095Y-157311247D01*
D11*
X85598095Y-142967419D02*
X85598095Y-143776942D01*
X85598095Y-143776942D02*
X85645714Y-143872180D01*
X85645714Y-143872180D02*
X85693333Y-143919800D01*
X85693333Y-143919800D02*
X85788571Y-143967419D01*
X85788571Y-143967419D02*
X85979047Y-143967419D01*
X85979047Y-143967419D02*
X86074285Y-143919800D01*
X86074285Y-143919800D02*
X86121904Y-143872180D01*
X86121904Y-143872180D02*
X86169523Y-143776942D01*
X86169523Y-143776942D02*
X86169523Y-142967419D01*
X86550476Y-142967419D02*
X87169523Y-142967419D01*
X87169523Y-142967419D02*
X86836190Y-143348371D01*
X86836190Y-143348371D02*
X86979047Y-143348371D01*
X86979047Y-143348371D02*
X87074285Y-143395990D01*
X87074285Y-143395990D02*
X87121904Y-143443609D01*
X87121904Y-143443609D02*
X87169523Y-143538847D01*
X87169523Y-143538847D02*
X87169523Y-143776942D01*
X87169523Y-143776942D02*
X87121904Y-143872180D01*
X87121904Y-143872180D02*
X87074285Y-143919800D01*
X87074285Y-143919800D02*
X86979047Y-143967419D01*
X86979047Y-143967419D02*
X86693333Y-143967419D01*
X86693333Y-143967419D02*
X86598095Y-143919800D01*
X86598095Y-143919800D02*
X86550476Y-143872180D01*
X80885312Y-151637419D02*
X80551979Y-151161228D01*
X80313884Y-151637419D02*
X80313884Y-150637419D01*
X80313884Y-150637419D02*
X80694836Y-150637419D01*
X80694836Y-150637419D02*
X80790074Y-150685038D01*
X80790074Y-150685038D02*
X80837693Y-150732657D01*
X80837693Y-150732657D02*
X80885312Y-150827895D01*
X80885312Y-150827895D02*
X80885312Y-150970752D01*
X80885312Y-150970752D02*
X80837693Y-151065990D01*
X80837693Y-151065990D02*
X80790074Y-151113609D01*
X80790074Y-151113609D02*
X80694836Y-151161228D01*
X80694836Y-151161228D02*
X80313884Y-151161228D01*
X81218646Y-150637419D02*
X81885312Y-151637419D01*
X81885312Y-150637419D02*
X81218646Y-151637419D01*
X82266265Y-151637419D02*
X82266265Y-150637419D01*
X82266265Y-150637419D02*
X82504360Y-150637419D01*
X82504360Y-150637419D02*
X82647217Y-150685038D01*
X82647217Y-150685038D02*
X82742455Y-150780276D01*
X82742455Y-150780276D02*
X82790074Y-150875514D01*
X82790074Y-150875514D02*
X82837693Y-151065990D01*
X82837693Y-151065990D02*
X82837693Y-151208847D01*
X82837693Y-151208847D02*
X82790074Y-151399323D01*
X82790074Y-151399323D02*
X82742455Y-151494561D01*
X82742455Y-151494561D02*
X82647217Y-151589800D01*
X82647217Y-151589800D02*
X82504360Y-151637419D01*
X82504360Y-151637419D02*
X82266265Y-151637419D01*
X80266265Y-156034800D02*
X80409122Y-156082419D01*
X80409122Y-156082419D02*
X80647217Y-156082419D01*
X80647217Y-156082419D02*
X80742455Y-156034800D01*
X80742455Y-156034800D02*
X80790074Y-155987180D01*
X80790074Y-155987180D02*
X80837693Y-155891942D01*
X80837693Y-155891942D02*
X80837693Y-155796704D01*
X80837693Y-155796704D02*
X80790074Y-155701466D01*
X80790074Y-155701466D02*
X80742455Y-155653847D01*
X80742455Y-155653847D02*
X80647217Y-155606228D01*
X80647217Y-155606228D02*
X80456741Y-155558609D01*
X80456741Y-155558609D02*
X80361503Y-155510990D01*
X80361503Y-155510990D02*
X80313884Y-155463371D01*
X80313884Y-155463371D02*
X80266265Y-155368133D01*
X80266265Y-155368133D02*
X80266265Y-155272895D01*
X80266265Y-155272895D02*
X80313884Y-155177657D01*
X80313884Y-155177657D02*
X80361503Y-155130038D01*
X80361503Y-155130038D02*
X80456741Y-155082419D01*
X80456741Y-155082419D02*
X80694836Y-155082419D01*
X80694836Y-155082419D02*
X80837693Y-155130038D01*
X81266265Y-155558609D02*
X81599598Y-155558609D01*
X81742455Y-156082419D02*
X81266265Y-156082419D01*
X81266265Y-156082419D02*
X81266265Y-155082419D01*
X81266265Y-155082419D02*
X81742455Y-155082419D01*
X82028170Y-155082419D02*
X82599598Y-155082419D01*
X82313884Y-156082419D02*
X82313884Y-155082419D01*
X80837693Y-148145038D02*
X80742455Y-148097419D01*
X80742455Y-148097419D02*
X80599598Y-148097419D01*
X80599598Y-148097419D02*
X80456741Y-148145038D01*
X80456741Y-148145038D02*
X80361503Y-148240276D01*
X80361503Y-148240276D02*
X80313884Y-148335514D01*
X80313884Y-148335514D02*
X80266265Y-148525990D01*
X80266265Y-148525990D02*
X80266265Y-148668847D01*
X80266265Y-148668847D02*
X80313884Y-148859323D01*
X80313884Y-148859323D02*
X80361503Y-148954561D01*
X80361503Y-148954561D02*
X80456741Y-149049800D01*
X80456741Y-149049800D02*
X80599598Y-149097419D01*
X80599598Y-149097419D02*
X80694836Y-149097419D01*
X80694836Y-149097419D02*
X80837693Y-149049800D01*
X80837693Y-149049800D02*
X80885312Y-149002180D01*
X80885312Y-149002180D02*
X80885312Y-148668847D01*
X80885312Y-148668847D02*
X80694836Y-148668847D01*
X81313884Y-149097419D02*
X81313884Y-148097419D01*
X81313884Y-148097419D02*
X81885312Y-149097419D01*
X81885312Y-149097419D02*
X81885312Y-148097419D01*
X82361503Y-149097419D02*
X82361503Y-148097419D01*
X82361503Y-148097419D02*
X82599598Y-148097419D01*
X82599598Y-148097419D02*
X82742455Y-148145038D01*
X82742455Y-148145038D02*
X82837693Y-148240276D01*
X82837693Y-148240276D02*
X82885312Y-148335514D01*
X82885312Y-148335514D02*
X82932931Y-148525990D01*
X82932931Y-148525990D02*
X82932931Y-148668847D01*
X82932931Y-148668847D02*
X82885312Y-148859323D01*
X82885312Y-148859323D02*
X82837693Y-148954561D01*
X82837693Y-148954561D02*
X82742455Y-149049800D01*
X82742455Y-149049800D02*
X82599598Y-149097419D01*
X82599598Y-149097419D02*
X82361503Y-149097419D01*
X80171027Y-153177419D02*
X80742455Y-153177419D01*
X80456741Y-154177419D02*
X80456741Y-153177419D01*
X80980551Y-153177419D02*
X81647217Y-154177419D01*
X81647217Y-153177419D02*
X80980551Y-154177419D01*
X82028170Y-154177419D02*
X82028170Y-153177419D01*
X82028170Y-153177419D02*
X82266265Y-153177419D01*
X82266265Y-153177419D02*
X82409122Y-153225038D01*
X82409122Y-153225038D02*
X82504360Y-153320276D01*
X82504360Y-153320276D02*
X82551979Y-153415514D01*
X82551979Y-153415514D02*
X82599598Y-153605990D01*
X82599598Y-153605990D02*
X82599598Y-153748847D01*
X82599598Y-153748847D02*
X82551979Y-153939323D01*
X82551979Y-153939323D02*
X82504360Y-154034561D01*
X82504360Y-154034561D02*
X82409122Y-154129800D01*
X82409122Y-154129800D02*
X82266265Y-154177419D01*
X82266265Y-154177419D02*
X82028170Y-154177419D01*
X80171027Y-145557419D02*
X80504360Y-146557419D01*
X80504360Y-146557419D02*
X80837693Y-145557419D01*
X81742455Y-146462180D02*
X81694836Y-146509800D01*
X81694836Y-146509800D02*
X81551979Y-146557419D01*
X81551979Y-146557419D02*
X81456741Y-146557419D01*
X81456741Y-146557419D02*
X81313884Y-146509800D01*
X81313884Y-146509800D02*
X81218646Y-146414561D01*
X81218646Y-146414561D02*
X81171027Y-146319323D01*
X81171027Y-146319323D02*
X81123408Y-146128847D01*
X81123408Y-146128847D02*
X81123408Y-145985990D01*
X81123408Y-145985990D02*
X81171027Y-145795514D01*
X81171027Y-145795514D02*
X81218646Y-145700276D01*
X81218646Y-145700276D02*
X81313884Y-145605038D01*
X81313884Y-145605038D02*
X81456741Y-145557419D01*
X81456741Y-145557419D02*
X81551979Y-145557419D01*
X81551979Y-145557419D02*
X81694836Y-145605038D01*
X81694836Y-145605038D02*
X81742455Y-145652657D01*
X82742455Y-146462180D02*
X82694836Y-146509800D01*
X82694836Y-146509800D02*
X82551979Y-146557419D01*
X82551979Y-146557419D02*
X82456741Y-146557419D01*
X82456741Y-146557419D02*
X82313884Y-146509800D01*
X82313884Y-146509800D02*
X82218646Y-146414561D01*
X82218646Y-146414561D02*
X82171027Y-146319323D01*
X82171027Y-146319323D02*
X82123408Y-146128847D01*
X82123408Y-146128847D02*
X82123408Y-145985990D01*
X82123408Y-145985990D02*
X82171027Y-145795514D01*
X82171027Y-145795514D02*
X82218646Y-145700276D01*
X82218646Y-145700276D02*
X82313884Y-145605038D01*
X82313884Y-145605038D02*
X82456741Y-145557419D01*
X82456741Y-145557419D02*
X82551979Y-145557419D01*
X82551979Y-145557419D02*
X82694836Y-145605038D01*
X82694836Y-145605038D02*
X82742455Y-145652657D01*
D10*
X118127200Y-152143332D02*
X118174819Y-152000475D01*
X118174819Y-152000475D02*
X118174819Y-151762380D01*
X118174819Y-151762380D02*
X118127200Y-151667142D01*
X118127200Y-151667142D02*
X118079580Y-151619523D01*
X118079580Y-151619523D02*
X117984342Y-151571904D01*
X117984342Y-151571904D02*
X117889104Y-151571904D01*
X117889104Y-151571904D02*
X117793866Y-151619523D01*
X117793866Y-151619523D02*
X117746247Y-151667142D01*
X117746247Y-151667142D02*
X117698628Y-151762380D01*
X117698628Y-151762380D02*
X117651009Y-151952856D01*
X117651009Y-151952856D02*
X117603390Y-152048094D01*
X117603390Y-152048094D02*
X117555771Y-152095713D01*
X117555771Y-152095713D02*
X117460533Y-152143332D01*
X117460533Y-152143332D02*
X117365295Y-152143332D01*
X117365295Y-152143332D02*
X117270057Y-152095713D01*
X117270057Y-152095713D02*
X117222438Y-152048094D01*
X117222438Y-152048094D02*
X117174819Y-151952856D01*
X117174819Y-151952856D02*
X117174819Y-151714761D01*
X117174819Y-151714761D02*
X117222438Y-151571904D01*
X117174819Y-151238570D02*
X118174819Y-151000475D01*
X118174819Y-151000475D02*
X117460533Y-150809999D01*
X117460533Y-150809999D02*
X118174819Y-150619523D01*
X118174819Y-150619523D02*
X117174819Y-150381428D01*
X118174819Y-149476666D02*
X118174819Y-150048094D01*
X118174819Y-149762380D02*
X117174819Y-149762380D01*
X117174819Y-149762380D02*
X117317676Y-149857618D01*
X117317676Y-149857618D02*
X117412914Y-149952856D01*
X117412914Y-149952856D02*
X117460533Y-150048094D01*
X75234819Y-159498094D02*
X74234819Y-159498094D01*
X74234819Y-159498094D02*
X74234819Y-159259999D01*
X74234819Y-159259999D02*
X74282438Y-159117142D01*
X74282438Y-159117142D02*
X74377676Y-159021904D01*
X74377676Y-159021904D02*
X74472914Y-158974285D01*
X74472914Y-158974285D02*
X74663390Y-158926666D01*
X74663390Y-158926666D02*
X74806247Y-158926666D01*
X74806247Y-158926666D02*
X74996723Y-158974285D01*
X74996723Y-158974285D02*
X75091961Y-159021904D01*
X75091961Y-159021904D02*
X75187200Y-159117142D01*
X75187200Y-159117142D02*
X75234819Y-159259999D01*
X75234819Y-159259999D02*
X75234819Y-159498094D01*
X74234819Y-158593332D02*
X74234819Y-157974285D01*
X74234819Y-157974285D02*
X74615771Y-158307618D01*
X74615771Y-158307618D02*
X74615771Y-158164761D01*
X74615771Y-158164761D02*
X74663390Y-158069523D01*
X74663390Y-158069523D02*
X74711009Y-158021904D01*
X74711009Y-158021904D02*
X74806247Y-157974285D01*
X74806247Y-157974285D02*
X75044342Y-157974285D01*
X75044342Y-157974285D02*
X75139580Y-158021904D01*
X75139580Y-158021904D02*
X75187200Y-158069523D01*
X75187200Y-158069523D02*
X75234819Y-158164761D01*
X75234819Y-158164761D02*
X75234819Y-158450475D01*
X75234819Y-158450475D02*
X75187200Y-158545713D01*
X75187200Y-158545713D02*
X75139580Y-158593332D01*
X75534819Y-154408094D02*
X74534819Y-154408094D01*
X74534819Y-154408094D02*
X74534819Y-154169999D01*
X74534819Y-154169999D02*
X74582438Y-154027142D01*
X74582438Y-154027142D02*
X74677676Y-153931904D01*
X74677676Y-153931904D02*
X74772914Y-153884285D01*
X74772914Y-153884285D02*
X74963390Y-153836666D01*
X74963390Y-153836666D02*
X75106247Y-153836666D01*
X75106247Y-153836666D02*
X75296723Y-153884285D01*
X75296723Y-153884285D02*
X75391961Y-153931904D01*
X75391961Y-153931904D02*
X75487200Y-154027142D01*
X75487200Y-154027142D02*
X75534819Y-154169999D01*
X75534819Y-154169999D02*
X75534819Y-154408094D01*
X74630057Y-153455713D02*
X74582438Y-153408094D01*
X74582438Y-153408094D02*
X74534819Y-153312856D01*
X74534819Y-153312856D02*
X74534819Y-153074761D01*
X74534819Y-153074761D02*
X74582438Y-152979523D01*
X74582438Y-152979523D02*
X74630057Y-152931904D01*
X74630057Y-152931904D02*
X74725295Y-152884285D01*
X74725295Y-152884285D02*
X74820533Y-152884285D01*
X74820533Y-152884285D02*
X74963390Y-152931904D01*
X74963390Y-152931904D02*
X75534819Y-153503332D01*
X75534819Y-153503332D02*
X75534819Y-152884285D01*
X75534819Y-146788094D02*
X74534819Y-146788094D01*
X74534819Y-146788094D02*
X74534819Y-146549999D01*
X74534819Y-146549999D02*
X74582438Y-146407142D01*
X74582438Y-146407142D02*
X74677676Y-146311904D01*
X74677676Y-146311904D02*
X74772914Y-146264285D01*
X74772914Y-146264285D02*
X74963390Y-146216666D01*
X74963390Y-146216666D02*
X75106247Y-146216666D01*
X75106247Y-146216666D02*
X75296723Y-146264285D01*
X75296723Y-146264285D02*
X75391961Y-146311904D01*
X75391961Y-146311904D02*
X75487200Y-146407142D01*
X75487200Y-146407142D02*
X75534819Y-146549999D01*
X75534819Y-146549999D02*
X75534819Y-146788094D01*
X75534819Y-145264285D02*
X75534819Y-145835713D01*
X75534819Y-145549999D02*
X74534819Y-145549999D01*
X74534819Y-145549999D02*
X74677676Y-145645237D01*
X74677676Y-145645237D02*
X74772914Y-145740475D01*
X74772914Y-145740475D02*
X74820533Y-145835713D01*
D12*
X91510000Y-159385000D02*
X92530000Y-159385000D01*
X92530000Y-157915000D02*
X92530000Y-160855000D01*
X92530000Y-160855000D02*
X97970000Y-160855000D01*
X93310000Y-157915000D02*
X93310000Y-160855000D01*
X93430000Y-157915000D02*
X93430000Y-160855000D01*
X93550000Y-157915000D02*
X93550000Y-160855000D01*
X97970000Y-157915000D02*
X92530000Y-157915000D01*
X97970000Y-160855000D02*
X97970000Y-157915000D01*
X98990000Y-159385000D02*
X97970000Y-159385000D01*
D11*
X63460000Y-142804000D02*
X116800000Y-142804000D01*
X116800000Y-41204000D01*
X63460000Y-41204000D01*
X63460000Y-142804000D01*
X100290000Y-49459000D02*
X109180000Y-49459000D01*
X109180000Y-39299000D01*
X100290000Y-39299000D01*
X100290000Y-49459000D01*
X72985000Y-50729000D02*
X84415000Y-50729000D01*
X84415000Y-34854000D01*
X72985000Y-34854000D01*
X72985000Y-50729000D01*
X83820000Y-144780000D02*
X111760000Y-144780000D01*
X111760000Y-157480000D01*
X83820000Y-157480000D01*
X83820000Y-144780000D01*
D12*
X116960000Y-145620000D02*
X115577000Y-145620000D01*
X116960000Y-145620000D02*
X116960000Y-147004000D01*
X116720000Y-145860000D02*
X89020000Y-145860000D01*
X116720000Y-145860000D02*
X116720000Y-155760000D01*
X89020000Y-145860000D02*
X89020000Y-155760000D01*
X114935000Y-148780000D02*
X113665000Y-148780000D01*
X114815000Y-148780000D02*
X114815000Y-150133333D01*
X114695000Y-148780000D02*
X114695000Y-150133333D01*
X114575000Y-148780000D02*
X114575000Y-150133333D01*
X114455000Y-148780000D02*
X114455000Y-150133333D01*
X114335000Y-148780000D02*
X114335000Y-150133333D01*
X114215000Y-148780000D02*
X114215000Y-150133333D01*
X114095000Y-148780000D02*
X114095000Y-150133333D01*
X113975000Y-148780000D02*
X113975000Y-150133333D01*
X113855000Y-148780000D02*
X113855000Y-150133333D01*
X113735000Y-148780000D02*
X113735000Y-150133333D01*
X113665000Y-148780000D02*
X113665000Y-152840000D01*
X112395000Y-148780000D02*
X111125000Y-148780000D01*
X112275000Y-148780000D02*
X112275000Y-150133333D01*
X112155000Y-148780000D02*
X112155000Y-150133333D01*
X112035000Y-148780000D02*
X112035000Y-150133333D01*
X111915000Y-148780000D02*
X111915000Y-150133333D01*
X111795000Y-148780000D02*
X111795000Y-150133333D01*
X111675000Y-148780000D02*
X111675000Y-150133333D01*
X111555000Y-148780000D02*
X111555000Y-150133333D01*
X111435000Y-148780000D02*
X111435000Y-150133333D01*
X111315000Y-148780000D02*
X111315000Y-150133333D01*
X111195000Y-148780000D02*
X111195000Y-150133333D01*
X111125000Y-148780000D02*
X111125000Y-152840000D01*
X109855000Y-148780000D02*
X108585000Y-148780000D01*
X109735000Y-148780000D02*
X109735000Y-150133333D01*
X109615000Y-148780000D02*
X109615000Y-150133333D01*
X109495000Y-148780000D02*
X109495000Y-150133333D01*
X109375000Y-148780000D02*
X109375000Y-150133333D01*
X109255000Y-148780000D02*
X109255000Y-150133333D01*
X109135000Y-148780000D02*
X109135000Y-150133333D01*
X109015000Y-148780000D02*
X109015000Y-150133333D01*
X108895000Y-148780000D02*
X108895000Y-150133333D01*
X108775000Y-148780000D02*
X108775000Y-150133333D01*
X108655000Y-148780000D02*
X108655000Y-150133333D01*
X108585000Y-148780000D02*
X108585000Y-152840000D01*
X107315000Y-148780000D02*
X106045000Y-148780000D01*
X107195000Y-148780000D02*
X107195000Y-150133333D01*
X107075000Y-148780000D02*
X107075000Y-150133333D01*
X106955000Y-148780000D02*
X106955000Y-150133333D01*
X106835000Y-148780000D02*
X106835000Y-150133333D01*
X106715000Y-148780000D02*
X106715000Y-150133333D01*
X106595000Y-148780000D02*
X106595000Y-150133333D01*
X106475000Y-148780000D02*
X106475000Y-150133333D01*
X106355000Y-148780000D02*
X106355000Y-150133333D01*
X106235000Y-148780000D02*
X106235000Y-150133333D01*
X106115000Y-148780000D02*
X106115000Y-150133333D01*
X106045000Y-148780000D02*
X106045000Y-152840000D01*
X104775000Y-148780000D02*
X103505000Y-148780000D01*
X104655000Y-148780000D02*
X104655000Y-150133333D01*
X104535000Y-148780000D02*
X104535000Y-150133333D01*
X104415000Y-148780000D02*
X104415000Y-150133333D01*
X104295000Y-148780000D02*
X104295000Y-150133333D01*
X104175000Y-148780000D02*
X104175000Y-150133333D01*
X104055000Y-148780000D02*
X104055000Y-150133333D01*
X103935000Y-148780000D02*
X103935000Y-150133333D01*
X103815000Y-148780000D02*
X103815000Y-150133333D01*
X103695000Y-148780000D02*
X103695000Y-150133333D01*
X103575000Y-148780000D02*
X103575000Y-150133333D01*
X103505000Y-148780000D02*
X103505000Y-152840000D01*
X102235000Y-148780000D02*
X100965000Y-148780000D01*
X102115000Y-148780000D02*
X102115000Y-150133333D01*
X101995000Y-148780000D02*
X101995000Y-150133333D01*
X101875000Y-148780000D02*
X101875000Y-150133333D01*
X101755000Y-148780000D02*
X101755000Y-150133333D01*
X101635000Y-148780000D02*
X101635000Y-150133333D01*
X101515000Y-148780000D02*
X101515000Y-150133333D01*
X101395000Y-148780000D02*
X101395000Y-150133333D01*
X101275000Y-148780000D02*
X101275000Y-150133333D01*
X101155000Y-148780000D02*
X101155000Y-150133333D01*
X101035000Y-148780000D02*
X101035000Y-150133333D01*
X100965000Y-148780000D02*
X100965000Y-152840000D01*
X99695000Y-148780000D02*
X98425000Y-148780000D01*
X99575000Y-148780000D02*
X99575000Y-150133333D01*
X99455000Y-148780000D02*
X99455000Y-150133333D01*
X99335000Y-148780000D02*
X99335000Y-150133333D01*
X99215000Y-148780000D02*
X99215000Y-150133333D01*
X99095000Y-148780000D02*
X99095000Y-150133333D01*
X98975000Y-148780000D02*
X98975000Y-150133333D01*
X98855000Y-148780000D02*
X98855000Y-150133333D01*
X98735000Y-148780000D02*
X98735000Y-150133333D01*
X98615000Y-148780000D02*
X98615000Y-150133333D01*
X98495000Y-148780000D02*
X98495000Y-150133333D01*
X98425000Y-148780000D02*
X98425000Y-152840000D01*
X97155000Y-148780000D02*
X95885000Y-148780000D01*
X97035000Y-148780000D02*
X97035000Y-150133333D01*
X96915000Y-148780000D02*
X96915000Y-150133333D01*
X96795000Y-148780000D02*
X96795000Y-150133333D01*
X96675000Y-148780000D02*
X96675000Y-150133333D01*
X96555000Y-148780000D02*
X96555000Y-150133333D01*
X96435000Y-148780000D02*
X96435000Y-150133333D01*
X96315000Y-148780000D02*
X96315000Y-150133333D01*
X96195000Y-148780000D02*
X96195000Y-150133333D01*
X96075000Y-148780000D02*
X96075000Y-150133333D01*
X95955000Y-148780000D02*
X95955000Y-150133333D01*
X95885000Y-148780000D02*
X95885000Y-152840000D01*
X94615000Y-148780000D02*
X93345000Y-148780000D01*
X94495000Y-148780000D02*
X94495000Y-150133333D01*
X94375000Y-148780000D02*
X94375000Y-150133333D01*
X94255000Y-148780000D02*
X94255000Y-150133333D01*
X94135000Y-148780000D02*
X94135000Y-150133333D01*
X94015000Y-148780000D02*
X94015000Y-150133333D01*
X93895000Y-148780000D02*
X93895000Y-150133333D01*
X93775000Y-148780000D02*
X93775000Y-150133333D01*
X93655000Y-148780000D02*
X93655000Y-150133333D01*
X93535000Y-148780000D02*
X93535000Y-150133333D01*
X93415000Y-148780000D02*
X93415000Y-150133333D01*
X93345000Y-148780000D02*
X93345000Y-152840000D01*
X92075000Y-148780000D02*
X90805000Y-148780000D01*
X91955000Y-148780000D02*
X91955000Y-150133333D01*
X91835000Y-148780000D02*
X91835000Y-150133333D01*
X91715000Y-148780000D02*
X91715000Y-150133333D01*
X91595000Y-148780000D02*
X91595000Y-150133333D01*
X91475000Y-148780000D02*
X91475000Y-150133333D01*
X91355000Y-148780000D02*
X91355000Y-150133333D01*
X91235000Y-148780000D02*
X91235000Y-150133333D01*
X91115000Y-148780000D02*
X91115000Y-150133333D01*
X90995000Y-148780000D02*
X90995000Y-150133333D01*
X90875000Y-148780000D02*
X90875000Y-150133333D01*
X90805000Y-148780000D02*
X90805000Y-152840000D01*
X114935000Y-150133333D02*
X113665000Y-150133333D01*
X112395000Y-150133333D02*
X111125000Y-150133333D01*
X109855000Y-150133333D02*
X108585000Y-150133333D01*
X107315000Y-150133333D02*
X106045000Y-150133333D01*
X104775000Y-150133333D02*
X103505000Y-150133333D01*
X102235000Y-150133333D02*
X100965000Y-150133333D01*
X99695000Y-150133333D02*
X98425000Y-150133333D01*
X97155000Y-150133333D02*
X95885000Y-150133333D01*
X94615000Y-150133333D02*
X93345000Y-150133333D01*
X92075000Y-150133333D02*
X90805000Y-150133333D01*
X114935000Y-152840000D02*
X114935000Y-148780000D01*
X113665000Y-152840000D02*
X114935000Y-152840000D01*
X112395000Y-152840000D02*
X112395000Y-148780000D01*
X111125000Y-152840000D02*
X112395000Y-152840000D01*
X109855000Y-152840000D02*
X109855000Y-148780000D01*
X108585000Y-152840000D02*
X109855000Y-152840000D01*
X107315000Y-152840000D02*
X107315000Y-148780000D01*
X106045000Y-152840000D02*
X107315000Y-152840000D01*
X104775000Y-152840000D02*
X104775000Y-148780000D01*
X103505000Y-152840000D02*
X104775000Y-152840000D01*
X102235000Y-152840000D02*
X102235000Y-148780000D01*
X100965000Y-152840000D02*
X102235000Y-152840000D01*
X99695000Y-152840000D02*
X99695000Y-148780000D01*
X98425000Y-152840000D02*
X99695000Y-152840000D01*
X97155000Y-152840000D02*
X97155000Y-148780000D01*
X95885000Y-152840000D02*
X97155000Y-152840000D01*
X94615000Y-152840000D02*
X94615000Y-148780000D01*
X93345000Y-152840000D02*
X94615000Y-152840000D01*
X92075000Y-152840000D02*
X92075000Y-148780000D01*
X90805000Y-152840000D02*
X92075000Y-152840000D01*
X116720000Y-155760000D02*
X89020000Y-155760000D01*
X77195000Y-161320000D02*
X80285000Y-161320000D01*
X77195170Y-161319999D02*
G75*
G02*
X78740462Y-155770001I1544830J2559999D01*
G01*
X78739538Y-155770000D02*
G75*
G02*
X80284830Y-161320000I462J-2990000D01*
G01*
X81240000Y-158760000D02*
G75*
G02*
X76240000Y-158760000I-2500000J0D01*
G01*
X76240000Y-158760000D02*
G75*
G02*
X81240000Y-158760000I2500000J0D01*
G01*
X72665000Y-151110000D02*
X69575000Y-151110000D01*
X72664830Y-151110001D02*
G75*
G02*
X71119538Y-156659999I-1544830J-2559999D01*
G01*
X71120462Y-156660000D02*
G75*
G02*
X69575170Y-151110000I-462J2990000D01*
G01*
X73620000Y-153670000D02*
G75*
G02*
X68620000Y-153670000I-2500000J0D01*
G01*
X68620000Y-153670000D02*
G75*
G02*
X73620000Y-153670000I2500000J0D01*
G01*
X72665000Y-143490000D02*
X69575000Y-143490000D01*
X72664830Y-143490001D02*
G75*
G02*
X71119538Y-149039999I-1544830J-2559999D01*
G01*
X71120462Y-149040000D02*
G75*
G02*
X69575170Y-143490000I-462J2990000D01*
G01*
X73620000Y-146050000D02*
G75*
G02*
X68620000Y-146050000I-2500000J0D01*
G01*
X68620000Y-146050000D02*
G75*
G02*
X73620000Y-146050000I2500000J0D01*
G01*
%LPC*%
D13*
X121580000Y-162636000D03*
X60538000Y-162636000D03*
X121580000Y-52756000D03*
X60538000Y-52760000D03*
D14*
X90170000Y-159385000D03*
D15*
X100330000Y-159385000D03*
D16*
X114260000Y-69144000D03*
X114260000Y-71684000D03*
X114260000Y-74224000D03*
X114260000Y-76764000D03*
X114260000Y-79304000D03*
X114260000Y-81844000D03*
X114260000Y-84384000D03*
X114260000Y-86924000D03*
X114260000Y-92004000D03*
X114260000Y-94544000D03*
X114260000Y-97084000D03*
X114260000Y-99624000D03*
X114260000Y-102164000D03*
X114260000Y-104704000D03*
X114260000Y-107244000D03*
X114260000Y-109784000D03*
X114260000Y-114864000D03*
X114260000Y-117404000D03*
X114260000Y-119944000D03*
X114260000Y-122484000D03*
X114260000Y-125024000D03*
X114260000Y-127564000D03*
X114260000Y-130104000D03*
X114260000Y-132644000D03*
X66000000Y-60000000D03*
X66000000Y-62540000D03*
X66000000Y-65080000D03*
X66000000Y-67620000D03*
X66000000Y-70160000D03*
X66000000Y-72700000D03*
X66000000Y-75240000D03*
X66000000Y-77780000D03*
X66000000Y-80320000D03*
X66000000Y-82860000D03*
X66000000Y-86924000D03*
X66000000Y-89464000D03*
X66000000Y-92004000D03*
X66000000Y-94544000D03*
X66000000Y-97084000D03*
X66000000Y-99624000D03*
X66000000Y-102164000D03*
X66000000Y-104704000D03*
X66000000Y-109784000D03*
X66000000Y-112324000D03*
X66000000Y-114864000D03*
X66000000Y-117404000D03*
X66000000Y-119944000D03*
X66000000Y-122484000D03*
X66000000Y-125024000D03*
X66000000Y-127564000D03*
X85090000Y-156210000D03*
X85090000Y-153670000D03*
X85090000Y-151130000D03*
X85090000Y-148590000D03*
X85090000Y-146050000D03*
X86380000Y-71000000D03*
X88920000Y-71000000D03*
X91460000Y-71000000D03*
X94000000Y-71000000D03*
D17*
X114300000Y-147000000D03*
D18*
X111760000Y-147000000D03*
X109220000Y-147000000D03*
X106680000Y-147000000D03*
X104140000Y-147000000D03*
X101600000Y-147000000D03*
X99060000Y-147000000D03*
X96520000Y-147000000D03*
X93980000Y-147000000D03*
X91440000Y-147000000D03*
X91440000Y-154620000D03*
X93980000Y-154620000D03*
X96520000Y-154620000D03*
X99060000Y-154620000D03*
X101600000Y-154620000D03*
X104140000Y-154620000D03*
X106680000Y-154620000D03*
X109220000Y-154620000D03*
X111760000Y-154620000D03*
X114300000Y-154620000D03*
X71120000Y-130810000D03*
D19*
X81280000Y-130810000D03*
D18*
X71120000Y-134620000D03*
D19*
X81280000Y-134620000D03*
D18*
X71120000Y-138430000D03*
D19*
X81280000Y-138430000D03*
D20*
X78740000Y-160030000D03*
D21*
X78740000Y-157490000D03*
D20*
X71120000Y-152400000D03*
D21*
X71120000Y-154940000D03*
D20*
X71120000Y-144780000D03*
D21*
X71120000Y-147320000D03*
%LPD*%
M02*
