M48
; DRILL file {KiCad 8.0.0} date 2024-03-18T20:15:56-0700
; FORMAT={-:-/ absolute / metric / decimal}
; #@! TF.CreationDate,2024-03-18T20:15:56-07:00
; #@! TF.GenerationSoftware,Kicad,Pcbnew,8.0.0
; #@! TF.FileFunction,Plated,1,2,PTH
FMAT,2
METRIC
; #@! TA.AperFunction,Plated,PTH,ComponentDrill
T1C0.800
; #@! TA.AperFunction,Plated,PTH,ComponentDrill
T2C0.900
; #@! TA.AperFunction,Plated,PTH,ComponentDrill
T3C1.020
; #@! TA.AperFunction,Plated,PTH,ComponentDrill
T4C1.100
%
G90
G05
T1
X71.12Y-130.81
X71.12Y-134.62
X71.12Y-138.43
X81.28Y-130.81
X81.28Y-134.62
X81.28Y-138.43
X91.44Y-147.0
X91.44Y-154.62
X93.98Y-147.0
X93.98Y-154.62
X96.52Y-147.0
X96.52Y-154.62
X99.06Y-147.0
X99.06Y-154.62
X101.6Y-147.0
X101.6Y-154.62
X104.14Y-147.0
X104.14Y-154.62
X106.68Y-147.0
X106.68Y-154.62
X109.22Y-147.0
X109.22Y-154.62
X111.76Y-147.0
X111.76Y-154.62
X114.3Y-147.0
X114.3Y-154.62
T2
X71.12Y-144.78
X71.12Y-147.32
X71.12Y-152.4
X71.12Y-154.94
X78.74Y-157.49
X78.74Y-160.03
T3
X66.0Y-60.0
X66.0Y-62.54
X66.0Y-65.08
X66.0Y-67.62
X66.0Y-70.16
X66.0Y-72.7
X66.0Y-75.24
X66.0Y-77.78
X66.0Y-80.32
X66.0Y-82.86
X66.0Y-86.924
X66.0Y-89.464
X66.0Y-92.004
X66.0Y-94.544
X66.0Y-97.084
X66.0Y-99.624
X66.0Y-102.164
X66.0Y-104.704
X66.0Y-109.784
X66.0Y-112.324
X66.0Y-114.864
X66.0Y-117.404
X66.0Y-119.944
X66.0Y-122.484
X66.0Y-125.024
X66.0Y-127.564
X85.09Y-146.05
X85.09Y-148.59
X85.09Y-151.13
X85.09Y-153.67
X85.09Y-156.21
X86.38Y-71.0
X88.92Y-71.0
X91.46Y-71.0
X94.0Y-71.0
X114.26Y-69.144
X114.26Y-71.684
X114.26Y-74.224
X114.26Y-76.764
X114.26Y-79.304
X114.26Y-81.844
X114.26Y-84.384
X114.26Y-86.924
X114.26Y-92.004
X114.26Y-94.544
X114.26Y-97.084
X114.26Y-99.624
X114.26Y-102.164
X114.26Y-104.704
X114.26Y-107.244
X114.26Y-109.784
X114.26Y-114.864
X114.26Y-117.404
X114.26Y-119.944
X114.26Y-122.484
X114.26Y-125.024
X114.26Y-127.564
X114.26Y-130.104
X114.26Y-132.644
T4
X90.17Y-159.385
X100.33Y-159.385
M30
